<svg xmlns="http://www.w3.org/2000/svg" height="250.01" width="250" viewBox="0 0 250.00232 250.01252"><g transform="matrix(1.9348 0 0 1.9348 -1.2792 -.57447)"><path fill="#154734" d="m62.758 0.86625c-0.927-0.01266-1.948 0.29935-3.123 1.0782-2.219-1.4138-2.615-0.4148-4.437 0.3652-1.7025-0.6775-3.8202 0.10445-5.3164 1.0957-1.77-0.3675-2.7427-0.44961-4.959 1.6191-1.9612-0.835-3.5115 0.47086-4.8027 1.8809-2.0463-0.2375-2.8405-0.11258-4.748 2.1387-1.8412-0.10875-2.7627 0.24836-4.4902 2.6621-1.58 0.15-2.7676 0.26883-4.0801 2.9238-2.2888-0.03125-3.1493 1.463-3.7168 3.0293-0.5175 0.20875-0.93516 0.06273-1.3477 0.42773-2.315 0.94125-2.6445 3.7461-2.6445 3.7461-1.3438 0.575-2.4615 1.3066-2.7715 2.6641-0.5675 0.20875-1.012 0.17211-1.4258 0.69336-1.7475 1.41-1.5147 3.4051-1.7422 3.4238-1.4838 0.065-2.5796 2.2611-2.1934 3.7461-0.765-0.06-2.4536 1.6148-2.5898 3.1523-0.045 0.4925-0.31102 1.4612-0.25977 1.5137l-0.0507-0.052c-1.3421 0.888-1.9612 2.611-1.8062 4.178-1.1662 0.7675-2.0138 2.9748-1.5488 4.6973-1.6525 1.41-1.9601 3.7587-1.3926 5.6387-1.1875 1.0438-1.602 2.4552-1.5508 4.0215-0.05125 0.8875 0.55078 1.8477 0.55078 1.8477-1.485 1.485-1.1686 3.7375-0.49609 4.9375-1.1812 2.1662-0.62172 3.6022 0.050781 5.2734-0.26 0.52375-0.57398 1.4968-0.52148 2.123-0.10375 1.2538 0.82992 1.8427 1.1387 2.9414-0.825 0.88625-0.82531 2.663-0.25781 3.8105 0.31 0.58625 1.2591 1.1301 1.0391 1.6738-0.9525 2.3588 0.355 3.6513 1.5938 4.7988-0.5675 0.88875-0.5675 2.2453 0 3.1328 0.1825 0.76625 1.071 1.4011 1.4473 2.0898 0.1625 0.2975 0.00781 1.1875 0.00781 1.1875-0.155 1.62 0.86914 2.7266 2.2129 3.5078l-0.10352 1.1523c-0.05125 1.8788 1.6499 3.0791 3.0449 3.7578-0.2075 0.57375-0.36102 1.3034-0.10352 1.8809 0.36125 1.1475 1.3435 1.7732 2.3223 2.1895 0.1575 0.9425 0.36398 1.988 1.2402 2.7168 0.62 0.73 1.1457 1.0276 1.9707 1.3926-0.0525 1.3575 1.0245 2.6284 2.3145 3.1484 0.31 0.31375 0.82594 0.15625 1.0859 0.46875-0.0525 1.2538 0.43234 1.7124 1.3086 2.3887 0.46625 0.15875 2.0027 0.97109 2.0977 0.58984-0.48125 1.285 1.3235 2.9627 3.2598 3.2227 0 0 0.4475 1.3402 1.9375 2.0664 0.96 0.46875 2.1931 0.77539 2.5469 0.55664 0.54875 2.155 2.6145 3.0601 4.8008 2.6113 0.5675 1.1475 1.4287 2.3869 3.1074 2.5156 1.2875 0.0987 2.0664 0.13758 2.2227 0.0801 0.5975 1.8738 4.1031 2.5478 5.3906 1.6641 0.3225 1.225 1.5508 1.7436 2.582 1.8711 0.905 0.12875 2.8047 0.0293 2.8047 0.0293 1.7125 2.1675 4.6992 0.72852 4.6992 0.72852 1.1438 1.4388 3.8542 0.95609 4.8867 0.27734 1.5488 1.1625 2.646 1.2904 4.2598-0.19336 0 0 1.3673 1.1446 2.3223 1.0996 1.225-0.0613 2.5526-1.1166 2.5176-1.1641 1.1612 1.0338 3.0911 1.3289 4.8398-0.77735 1.42 1.1638 3.0984 1.1639 4.3047-1.1211 0.72125 0.47 1.9951 0.57961 2.9238 0.47461 1.0325-0.26125 1.9276-1.0976 2.3926-2.1426 0.465 0.1025 0.89133 0.19375 1.3926 0.3125 2.0238 0.4775 3.1726-0.71133 3.8926-2.1738 0.36375 0.105 0.51719 0.38922 1.6797 0.32422 1.5475 0.065 2.7111-1.6141 2.8398-2.7129 0.465 0 1.3543 0.31281 1.873 0.25781 1.445-0.3625 2.503-1.572 2.9668-3.0332 0.465 0.0525 1.0594 0.0889 1.4219 0.19141 2.1275-0.645 2.244-1.7946 2.709-3.0996 0.87625 0.15625 1.6662-0.20242 2.3887-0.51367 0.82625-0.7325 1.1912-2.0324 1.2949-3.0762l1.6074-0.0273c1.4475-0.36375 1.9552-2.1647 2.1602-3.5234l1.582-0.34961c1.3962-0.67875 1.8262-2.2066 1.8262-3.7754 0.87875-0.26 1.8143-0.62273 2.4355-1.459 1.0812-0.9375 1.2071-2.8375 1.2246-2.9688-0.001 0 2.906-1.0338 2.2598-4.3926l1.3535-0.83789c1.0362-0.9925 1.091-2.7636 0.72852-4.1211 0.3625-0.20875 0.96469-0.30586 1.2734-0.72461 1.2912-1.0962 1.3085-2.932 0.94726-4.5508 0.51625-0.2075 1.1333-0.8332 1.3945-1.4082 0.31-0.9925 0.25625-1.9823-0.15625-2.8711 0.61875-0.7825 1.0413-1.1794 1.3926-2.4531 0.38625-1.3925-0.20398-2.663-0.61523-3.918 0.77125-0.41375 1.3616-1.1928 1.6191-1.9766 0.10375-1.0962-0.48594-2.042-1.0547-2.877l1.1367-1.252c0.56875-1.2012 0.00039-2.5588-0.72461-3.5l0.57812-0.83398c0.725-1.6175-0.008-3.2888-0.93945-4.4375 0.26125-0.5225 0.62031-1.0439 0.57031-1.7227 0.33375-1.395-0.59921-2.6876-1.1992-3.5488 0 0 0.37445-0.56039 0.5332-1.4629 0-1.5675-0.9861-2.767-2.1211-3.8633 0.3075-0.62625 0.45727-1.3469 0.50977-2.0781-0.2075-1.0962-1.0283-2.2043-1.957-2.9355l0.20703-1.6172c-0.15375-1.3575-1.1382-2.5068-2.2207-3.3418 0.25875-0.46875-0.0505-0.78172 0.0508-1.3555-0.20375-1.3575-1.0302-2.6105-2.2715-3.1855 0.1575-1.8788-1.3223-3.83-2.7148-4.875 0.12875-1.0988-0.75203-2.2175-1.6133-2.9062-0.33125-0.26625-1.4854-1.161-1.8066-1.291-0.41125-1.4088-1.0305-3.0365-3.1055-3.6152-0.30875-1.88-2.6154-3.3666-3.9941-3.6191-0.31-1.5662-1.5808-2.4873-2.9258-3.0098-0.88125-0.28375-1.7832-0.41211-1.7832-0.41211-0.3875-1.9375-2.1909-2.9292-3.7422-2.668l-0.733-1.1455c-1.4212-1.68-3.6193-1.3015-3.748-1.6152-0.77375-1.5512-2.9662-2.3252-4.4199-1.9414-1.3212-1.9338-2.9455-1.6712-4.6992-1.5137-0.67-0.67875-1.0752-1.259-2.3027-1.6465-0.98125-0.31375-2.5996-0.076172-2.5996-0.076172-1.46-1.2275-2.407-1.289-4.5957-0.52148-0.41375-0.47-0.92906-0.78367-1.4453-1.0449-0.87875-0.2075-1.9633-0.15648-2.7383 0.25977-1.651-1.3575-4.131-0.99076-5.833-0.05076-0.797-0.51937-1.63-0.85648-2.557-0.86914z"/><path fill="#fff" d="m68.873 2.005c-0.155 0.46875-0.61867 0.99117-0.82617 1.5137l0.10352 0.15625c0.51625-0.41875 1.0344-1.0964 1.7031-1.2539 0.25875 0.105 0 0.26172 0 0.41797l-4.0254 4.125-0.40039-0.050781c-0.8175-0.04-2.0423 0.014609-3.2285 0.13086 0.515-1.8275 2.1309-3.1601 3.4746-4.5176l1.4961-0.41992c-0.05125 0.26125-0.3093 0.57469-0.1543 0.83594 0.51625-0.5225 1.1349-0.78125 1.8574-0.9375zm-7.5879 0.25977h0.36133c0.155 0.4175-0.36226 0.88766-0.10352 1.2539 0.31-0.31375 0.82555-0.8357 1.3418-0.93945-0.1025 0.3125-0.30859 0.6257-0.30859 0.93945 0.6175-0.10625 1.0841-0.83617 1.8066-0.88867-1.1888 1.515-2.2884 3.0292-3.4746 4.543-1.0838 0.0525-1.7302-0.043828-3.7402 0.38867l0.03906-0.33789c1.2388-1.7738 1.8581-4.019 4.0781-4.959zm10.645 0.25391c0.11253-0.013979 0.22875-0.011875 0.35156 0.00781 0.1025 0.57375-0.82539 0.93867-0.61914 1.3574 0.465-0.31375 0.87781-0.78516 1.4453-0.94141 0.10125 0.46875-0.62008 0.88742-0.36133 1.3574l1.1855-0.88867c-0.2575 0.47125-0.67078 1.1491-1.2383 1.6191l-2.3633 2.1426c-0.49-0.15625-1.6784 0-3.0059 0 0.155-1.41 1.4443-2.5593 2.5293-3.498 0.72406-0.22969 1.2885-1.0584 2.0762-1.1562zm-14.414 0.3203-0.36 1.0449c0.56625 0.47 1.0826-1.6715 1.3926-0.20898-0.93 1.5138-1.7568 3.1302-2.9043 4.1602l-2.6309 0.47266c-0.65875-0.09125-0.19383-0.5625-0.14258-1.0312 0.56625-1.2537 1.2377-2.4545 2.1152-3.5508v0.73047c0.3625-0.47 0.87805-0.99242 1.3418-1.3574 0.10375 0.15625-0.20477 0.47094 0.05273 0.67969 0.46375-0.1575 0.61977-0.83445 1.1348-0.93945zm18.596 0.92969c0.08066-0.010842 0.16414-0.00992 0.24805 0.00977l-0.46484 0.73047c0.61875-0.05125 1.2372-0.57398 1.9609-0.52148-0.205 0.36625-0.61766 0.73094-0.72266 0.99219 0.77375-0.36625 1.4975-0.83469 2.375-0.99219-1.755 1.305-2.8391 2.9958-4.8516 3.832l-2.9062-0.38867c-0.41125-0.365-0.0368-0.52148 0.2207-0.83398 0.92875-0.8875 1.6018-1.8781 2.6855-2.6094 0.40578 0.54797 0.89043-0.14285 1.4551-0.21875zm-23.447 0.00977-0.10352 0.99219c0.36125-0.21 0.61969-0.62594 0.92969-0.99219l0.30859 0.31445c-1.1862 1.67-1.5481 3.8085-3.1094 4.791l-2.5293 0.62695c-0.39875-0.66875 0.16531-1.6081 0.47656-2.5469 0.56875-0.94 0.87914-1.9323 1.9629-2.5586 0.36125 0.36625 0.77203-0.36547 1.2383-0.57422-0.155 0.365-0.51531 0.72945-0.25781 1.0957l1.084-1.1484zm27.566 0.62695 0.15625 0.10352c-0.0525 0.575-1.0349 0.78391-0.82617 1.2539 0.515-0.4175 1.1353-0.62719 1.7578-0.83594-0.15875 0.26125-0.51758 0.5232-0.67383 0.7832l0.103 0.1561c0.61875-0.41625 1.2382-0.7307 1.9082-0.93945-0.155 0.4175-0.92953 0.72945-1.2383 1.0957 0.77375-0.26125 1.86-0.67773 2.5312-0.67773-1.9625 1.0438-3.1242 2.6218-5.293 3.248l-2.3867-0.51562c0.36-1.0438 1.4828-1.6882 2.2578-2.627 0.62-0.20875 1.0819-0.88867 1.7031-1.0449zm-32.315 0.4159c0.20625 0.5225-0.3625 0.88766 0 1.2539 0.20625-0.36625 0.56445-0.7307 0.87695-1.0957l-0.15625 0.625c-0.82625 1.7238-1.2913 3.3936-2.5488 4.6523l-2.5273 0.93945c-0.29125-0.37125 0.06938-1.2077 0.32812-1.834 0.67-1.2525 0.92844-2.6613 1.9609-3.7051 0.155 0.26125-0.20773 0.4707 0.10352 0.62695 0.2575-0.365 0.51547-0.93992 0.98047-1.2012 0.0525 0.36625-0.15578 0.73094-0.05078 0.99219 0.4125-0.31375 0.51695-0.99266 1.0332-1.2539zm36.498 1.2011c-0.36125 0.47-0.98297 0.67914-1.1367 1.1504 0.825-0.20875 1.756-0.73266 2.6348-1.0977-0.20875 0.46875-0.88016 0.83516-1.0352 1.2539 0.87625 0.05125 1.3925-0.99344 2.375-0.83594-0.2075 0.365-0.67094 0.5732-0.92969 0.93945 0.7225-0.05375 1.3945-0.67992 2.2207-0.73242-1.1375 1.0975-2.7359 1.4103-3.9746 2.3516-1.2388 1.46-2.8526 0.16508-4.2988-0.20117 0.155-0.57375 0.58258-0.635 1.0488-1 0.979-0.6787 2.011-1.2543 3.096-1.8281zm-40.525 0.36523c-0.0525 0.20875 0.10352 0.26172 0.10352 0.41797h0.20703c-0.82625 1.775-1.0359 3.2306-2.0684 4.9531-0.82625 0.4175-1.9762 1.0942-2.9062 1.3555-0.25875-1.88 0.63633-3.2812 1.2051-4.9512 0.2575-0.10375 0.67094-0.20922 0.77344-0.57422 0.10375 0.10375 0.20609 0.15625 0.30859 0.15625l0.41406-0.52148c-0.05125 0.36625-0.20555 0.73094-0.1543 0.99219 0.465-0.365 0.72352-1.0439 1.1348-1.5664v1.0957l0.98242-1.3574zm46.095 1.3301c0.1197 0.0000879 0.24242 0.00781 0.36523 0.027344-0.1525 0.5225-0.82625 0.62742-1.0312 1.0449l2.2188-0.67969c-0.155 0.365-0.87797 0.47016-1.1367 0.94141 0.82625-0.1575 1.8081-0.52219 2.7344-0.36719l-0.35937 0.36719c-1.755 0.78125-3.4573 1.6169-5.2148 2.4531-0.90375-0.4575-1.7541-0.73133-3.2891-1.3613 0.92875-0.78375 2.1045-1.407 3.2383-2.0332-0.04875 0.105-0.000234 0.20945 0.10352 0.31445 0.76781-0.27453 1.5332-0.70765 2.3711-0.70703zm-50.537 0.70703c-0.36 1.775-0.76281 3.3788-1.3828 5.2051-0.87875 0.835-2.3755 1.4016-3.3555 2.1328-0.46625-0.835 0.19531-1.5964 0.19531-2.5352l0.57031-2.1406c-0.05125 0.15625 0.05031 0.20852 0.10156 0.25977 0.46375-0.4175 0.87922-1.1987 1.293-1.6699 0.1025 0.47125 0.15312 0.88742 0.20312 1.3574 0.465-0.68 0.2082-1.8794 1.1895-2.2969l0.46484 0.625 0.7207-0.9375zm53.172 1.3047c-0.1025 0.20875-0.38656 0.31883-0.53906 0.73633 1.0312 0 1.5187-0.68383 2.6074-0.73633 0.153 0.5226-0.931 0.6768-0.622 1.1988 0.622-0.1558 1.087-0.6258 1.861-0.4682-0.105 0.57375-1.0337 0.46992-0.82617 1.0449 0.82625-0.20875 1.6491-0.67945 2.4766-0.31445-0.61875 0.31375-1.3932 0.57344-2.0645 0.83594-1.395 0.57375-2.7347 1.251-4.0859 1.2598l-2.83-1.416c1.29-0.835 2.6297-1.6181 4.0234-2.1406zm-58.694 1.3575c0.05125 0.4175-0.10297 0.88742 0.05078 1.2012 0.31-0.10625 0.30992-0.67969 0.66992-0.67969-0.36 1.8262-0.33688 3.3627-1.4219 4.9277-0.775 0.62625-2.0788 1.5591-2.9062 2.1328 0.25875-2.1312 0.68086-2.8602 0.97461-5.4414 0.1025 0-0.1032 0.67727 0.31055 0.57227 0.205-0.67875 0.41219-1.3037 0.92969-1.8262 0.1525 0.10375-0.05367 0.46922 0.20508 0.57422 0.46375-0.36625 0.515-1.2522 1.1875-1.4609zm64.373 0.62695c-0.25875 0.46875-0.98047 0.36422-1.1367 0.88672 0.5175 0 1.2403-0.21023 1.7578-0.05273l-0.62109 0.62695c0.31 0.15625 0.62195-0.20898 1.0332-0.05274 0.155 0.47-0.67039 0.5732-0.61914 0.93945 0.87625-0.15625 1.703-0.52273 2.5293-0.05273-1.3437 0.78375-3.1995 1.321-4.6445 1.9473-0.70875 0-2.582-1.2283-3.5645-1.7383-0.205-0.365 0.36359-0.52297 0.62109-0.73047 1.4975-0.68 2.9945-1.3047 4.6445-1.7734zm-67.988 1.8261 0.20898 0.36523-0.97461 5.4102c-0.86125 0.6525-1.5641 1.3739-2.5879 2.3164-0.3125-1.88-0.25836-4.1252 0.46289-5.8477 0.155 0 0.25781 0.26102 0.41406 0.10352l0.35938-0.78125 0.3125 0.36524c0.2575-0.575 0.3075-1.5156 1.0312-1.6719 0.05125 0.365-0.1557 0.78539 0.1543 0.99414 0.51625-0.20875 0.05289-0.99266 0.61914-1.2539zm70.062 1.7051c0.36463-0.01859 0.73976 0.04344 1.127 0.22656l2.0625 0.10352c-0.465 0.3125-1.1852 0.10445-1.4414 0.62695 0.77125-0.10375 1.7519-0.15578 2.5781-0.20703l-1.2891 0.625 0.0508 0.10352 2.7891 0.10547-0.3086 0.3125c-2.015 0.26125-4.0795 0.82398-5.9883 1.3965-0.035-0.0012-2.262-1.6454-2.582-1.8066l-0.10547-0.21484c1.0069-0.43125 2.0135-1.2157 3.1074-1.2715zm-74.45 1.166c0.20625 0.26125-0.15516 1.1482 0.30859 1.0957l0.20703-0.36523-0.50781 5.1426c-0.405 0.515-1.37 1.3245-1.9375 2.002l-0.34375 0.26758c-0.05125-1.8262-0.30797-4.0707 0.20703-5.8457l0.25976 0.36523c0.36125-0.5225 0.30969-1.3069 0.77344-1.8281 0.20625-0.0525 0.001 0.26242 0.10352 0.41992 0 0.1025-0.05172 0.20852 0.05078 0.25977 0.36125-0.365 0.56766-0.99242 0.87891-1.5137zm79.222 1.5742c0.21818 0.01296 0.43195 0.04351 0.63867 0.0957 0 0.26-0.77554 0.15648-0.31054 0.52148 0.46625-0.15625 0.92953 0.05297 1.3945 0.10547-0.1525 0.15625-0.51758 0.15672-0.51758 0.41797 0.77625 0.20875 1.6005-0.10453 2.3242 0.26172 0.1025 0.155-0.36211 0.15477-0.56836 0.25977-0.105-0.05125-0.15508 0.05422-0.20508 0.10547 0 0.10375 0.10008 0.25828 0.20508 0.20703 0.67125 0.10375 1.4449 0.000234 2.0137 0.36523v0.26172c-2.2712 0.0525-4.5432 0.7832-6.8144 0.7832-1.0325-0.89125-2.129-1.6673-2.709-2.1836 1.2655-0.50312 3.0216-1.2919 4.5488-1.2012zm-82.27 1.349 0.209 0.156c-0.44 1.6425 0.15961 3.9551-0.24414 5.7676-0.1375 0.5775-0.71898 1.2252-1.7715 2.2715-0.56625-1.7762-1.1859-4.0712-0.41211-5.9512 0.2575 0.31375-0.000391 1.0957 0.41211 1.0957 0.05125-0.67875 0.1043-1.4089 0.4668-2.0352 0.20625 0.20875 0.25641 0.57297 0.41016 0.88672 0.363-0.784-0.102-1.93 0.93-2.191zm42.334 0.30859c-25.005 0-45.277 20.289-45.277 45.312 0 25.025 20.272 45.312 45.277 45.312 25.006 0 45.277-20.287 45.277-45.312 0-25.024-20.271-45.312-45.277-45.312zm0 0.86133c24.53 0 44.42 19.902 44.42 44.451 0 24.55-19.89 44.453-44.42 44.453-24.529 0-44.416-19.903-44.416-44.453 0-24.549 19.887-44.451 44.416-44.451zm42.176 0.86523c0.66875 0 1.3927-0.000781 1.959 0.26172-0.30875 0.31125-1.086 0.36523-1.1348 0.83398 0.67125 0 1.3932-0.3125 2.0645 0l-0.67188 0.36524c0.82625 0.20875 1.703-0.0518 2.5293 0.31445h0.1543c-0.61875 0.57375-1.4425 0.15695-2.0625 0.62695l0.15429 0.10352c0.9275-0.15625 1.8593 0.000234 2.6856 0.36523 0 0.36625-0.36258 0.31297-0.51758 0.41797-1.8588-0.05125-3.7149 0.36375-5.2637 0.3125-1.0325-0.7825-1.7814-1.7175-2.9414-2.6875 1.4188-0.45125 2.0624-0.70531 3.0449-0.91406zm-42.176 0.10938c-23.992 0-43.441 19.465-43.441 43.477s19.449 43.479 43.441 43.479 43.445-19.466 43.445-43.479c0-24.011-19.453-43.477-43.445-43.477zm0 0.86914c23.514 0 42.578 19.075 42.578 42.607s-19.064 42.609-42.578 42.609-42.576-19.077-42.576-42.609 19.062-42.607 42.576-42.607zm-45.584 0.17c-0.10375 2.14 0.92859 4.3845 0.27734 6.4395l-1.5488 2.0371c-0.793-1.69-1.31-3.884-1.001-6.129l0.56836 1.0449c0.257-0.469-0.259-1.147 0.205-1.565 0.2575 0.4175 0.36336 1.0957 0.72461 1.4082 0-0.73125-0.2575-1.6706 0-2.4531l0.35938 0.73047c0.31125-0.365 0.15727-1.0437 0.41602-1.5137zm91.147 2.6388c1.025-0.04672 2.0574 0.10226 2.8574 0.49414-0.4125 0.41875-1.2906-0.10453-1.5469 0.41797 0.92875 0.41625 2.0634 0.26148 2.9922 0.67773-0.0512 0.31375-0.51672 0.41648-0.82422 0.52148-0.10375 0.0525-0.2593-0.05227-0.31055 0.05273 0.9275 0.36375 2.3766 0.20969 2.9941 1.1484-1.4975 0.2075-2.6837-0.15602-4.2324 0.05273-0.98125-0.0525-1.7563 0.20828-2.7363-0.26172-0.465-0.835-1.4317-1.5188-2.0117-2.4238 0.77501-0.39125 1.7934-0.63297 2.8184-0.67969zm-38.592 0.0293c-1.1939-0.0012-2.2189 0.79922-2.5273 2.4727-0.35 1.8912 0.5118 3.0659 1.9668 3.3359 1.3688 0.25375 2.3005-0.43258 2.748-1.5801l-1.14-0.21c-0.26125 0.64625-0.76984 0.92219-1.4023 0.80469-0.9675-0.18-1.1903-1.1366-1.0078-2.1191 0.285-1.5463 1.1595-1.7634 1.707-1.6621 0.9425 0.175 1.0064 0.82492 1.0352 1.1699l1.1426 0.21289c0.08875-0.82-0.3657-2.0712-2.002-2.375-0.17594-0.03266-0.34897-0.04865-0.51953-0.04883zm-15.107 0.2168c-0.17826 0.0066-0.37016 0.03039-0.57812 0.07617-1.7625 0.38625-1.8545 1.5259-1.7207 2.1309 0.26125 1.1962 1.151 1.2075 2.0723 1.2188l0.61328 0.0078c0.605 0.01 1.0371 0.03524 1.1309 0.45898 0.125 0.575-0.44422 0.83367-0.98047 0.95117-0.99 0.2175-1.268-0.32375-1.3418-0.625l-1.0879 0.24024c0.1475 0.67375 0.7375 1.7404 2.7188 1.3066 0.475-0.105 2.11-0.61305 1.75-2.248-0.21125-0.97625-0.96094-1.1316-1.7422-1.1504l-1.3945-0.0332c-0.2375-0.0038-0.60547-0.01766-0.69922-0.44141-0.1075-0.4925 0.37203-0.76438 0.80078-0.85938 0.99375-0.2175 1.2105 0.33797 1.293 0.57422l1.0879-0.24023c-0.13344-0.58078-0.6741-1.4135-1.9219-1.3672zm-40.648 0.82231c0.4125 2.0875 1.1926 3.8898 0.98633 6.1348-0.31 0.5225-0.77508 1.1621-1.1426 1.8496-1.29-1.3562-1.5487-3.391-1.8574-5.166l0.465 0.21c0.25875-0.31375 0.10305-0.62719 0.1543-0.99219 0.10375 0.0525 0.15484 0.26148 0.30859 0.20898 0.10375-0.4175 0.000547-1.0434 0.31055-1.4609 0.31 0.10375 0.36188 0.57398 0.67187 0.67773 0.25875-0.41625-0.10273-0.93969 0.10352-1.4609zm60.787 0.2207-1.9453 5.2109 1.0898 0.4082 0.87305-2.3379 2.0293 0.75977-0.87305 2.3379 1.0879 0.40625 1.9473-5.2109-1.0879-0.4082-0.73828 1.9746-2.0312-0.75781 0.73828-1.9766-1.0898-0.40625zm-12.195 0.20898c-0.4875 0-0.88281 0.39531-0.88281 0.88281 0 0.48625 0.39531 0.88281 0.88281 0.88281 0.48875 0 0.88281-0.39656 0.88281-0.88281 0-0.4875-0.39406-0.88281-0.88281-0.88281zm-14.256 0.69922-1.2422 0.50391 0.25 5.9023 1.1348-0.46094-0.07227-1.209 1.9023-0.76953 0.75977 0.92773 1.1719-0.47461-3.9043-4.4199zm-0.15234 1.416 1.4629 1.7812-1.3125 0.5332-0.16602-2.3066 0.01563-0.0078zm62.973 0.25195c1.5231-0.0081 3.1394 0.35977 4.334 0.75195l0.25977 0.26172c-0.0525 0.10375-0.15727 0.26125-0.25977 0.15625-0.67 0-1.2381-0.15578-1.8594 0.10547 0.2075 0.52125 1.0335 0.15453 1.4473 0.51953l1.1348 0.52344c-0.46375 0.365-1.4462-0.15602-2.0625 0.20898 0.77125 0.52125 1.9596 0.41719 2.4746 1.3047-1.0325 0.20875-2.0116-0.15648-2.9941-0.20898l-2.7344-0.1582c-0.065-0.08375-2.2133-2.5462-2.2695-2.9688 0.73547-0.3525 1.6154-0.49124 2.5293-0.49609zm-67.473 0.4043-1.1387 0.70312 0.08008 2.0625-1.7871-1.0078-1.1797 0.72656 2.8711 1.4258-0.03711 3.3633 1.1523-0.71094-0.04102-2.2051 1.8926 1.0625 1.201-0.746-3.0566-1.5078 0.03906-3.166zm-33.145 0.45312c0.31 0.0525 0.51641 1.095 0.87891 0.46875-0.10375-0.10375-0.05274-0.26148-0.05274-0.36523l1.5488 5.5332c-0.8975 1.4938-1.0255 1.6871-1.6055 2.8496-1.1362-1.4088-1.6966-3.0575-2.0078-4.9375-0.0525-0.15625 0.15508-0.20945 0.20508-0.31445 0.26 0.21 0.26055 0.62867 0.62305 0.73242 0.05-0.7825-0.3625-1.7231-0.15625-2.4531 0.2575 0.3125 0.36016 0.78172 0.72266 0.88672 0.25875-0.78375-0.3625-1.5666-0.15625-2.4004zm72.102 0.03516-4.5312 3.7832 1.0547 0.62109 0.91406-0.79102 1.7676 1.043-0.27344 1.168 1.0859 0.64258 1.1348-5.7871-1.1523-0.67969zm-0.078 1.4102 0.01563 0.0078-0.52539 2.2461-1.2207-0.7207 1.7305-1.5332zm-19.783 1.2371c-17.876 0-32.369 14.505-32.369 32.395 0 17.891 14.493 32.396 32.369 32.396 17.878 0 32.371-14.505 32.371-32.396 0-17.89-14.494-32.395-32.371-32.395zm24.436 0.31641-3.6113 4.2324 0.86719 0.74023 1.4121-1.6562 0.91211 0.78125c0.655 0.55875 0.49836 0.81117 0.0059 1.3887-0.3725 0.43625-0.52297 0.6843-0.63672 0.93555l0.98242 0.83594 0.09375-0.11133c-0.12875-0.23125-0.000703-0.38641 0.5293-1.0039 0.67375-0.79125 0.59641-1.0812 0.37891-1.5312 0.54 0.215 1.1174 0.01578 1.5137-0.44922 0.3125-0.36625 0.81641-1.3715-0.30859-2.334l-2.1387-1.8281zm-49.211 0.27539-3.0898 2.6777 3.6387 4.207 3.1895-2.7656-0.64258-0.74414-2.3301 2.0195-0.94336-1.0898 2.0488-1.7734-0.64453-0.74609-2.0488 1.7754-0.76367-0.88476 2.2285-1.9336-0.64258-0.74219zm74.123 0.11914c1.8088 0.10375 3.6156 0.05148 5.2656 0.52148 0.10375 0.10375 0.31156 0.2607 0.25781 0.4707-0.61875-0.05375-1.2897-0.1057-1.8047-0.1582v0.1582c0.93 0.3125 1.8591 0.5732 2.6328 1.0957-0.5675 0-1.2396-0.05148-1.7559-0.20898-0.0512 0.105-0.15601 0.15602-0.10351 0.25977 0.72375 0.36625 1.654 0.47164 2.2715 1.1504-0.20625 0.105-0.77515-0.05422-0.5664 0.36328 0.2025 0.1575 0.66789 0.1582 0.61914 0.4707-1.7562-0.105-3.7681-0.36422-5.4219-1.043l-0.61719-0.41797c-0.415-0.83625-0.87828-1.5659-1.3945-2.3496 0.105-0.26125 0.41219-0.20875 0.61719-0.3125zm-103.6 0.157c0.61875 2.0888 2.1355 5.0039 2.0117 6.1602-0.08375 0.78875-0.51648 1.9328-0.92774 2.8203h-0.31055c-1.0837-1.8288-2.372-3.6569-2.2695-5.9531 0.4125 0.20875 0.41273 1.1477 0.92773 0.83398-0.30875-0.5725-0.46484-1.3034-0.46484-1.9297l0.87695 0.93945 0.15625-0.15625c-0.0525-0.8875-0.82625-1.9836 0-2.7148zm54.258 0.7168c17.004 0 30.787 13.796 30.787 30.811 0 17.018-13.783 30.812-30.787 30.812-17.002 0-30.787-13.795-30.787-30.812 0-17.015 13.785-30.811 30.787-30.811zm24.68 0.20508 1.0996 0.93945c0.51875 0.4425 0.33774 0.86023 0.14648 1.084-0.35875 0.4175-0.71898 0.38594-1.1777-0.0078l-1.0371-0.88477 0.96875-1.1309zm-23.289 1.1856c-0.85625-0.0125-1.6877 0.30477-2.2539 0.97852-0.58125 0.69-0.73359 2.348-0.27734 3.1992 0.48 0.89375 1.5505 1.4684 2.6855 1.4609 1.0312-0.005 1.9617-0.52266 2.3242-1.5664 0.165-0.3975-0.06203-0.7075-0.36328-0.3125-0.5425 1.045-1.278 1.4824-2.373 1.3574-1.0075-0.2225-0.92266-2.7045-0.72266-3.707 0.145-0.6075 0.56672-0.83844 0.98047-0.83594 1.145 0.0125 1.8338 0.70641 2.375 1.5664l-0.05078-1.7207c-0.14625 0.09-0.2775 0.1532-0.40625 0.25195-0.61875-0.47-1.0805-0.63562-1.918-0.67188zm-5.8457 0.31641c-0.17287 0.0071-0.35953 0.02906-0.56641 0.0625-0.8425 0.1625-1.696 0.62117-2.0723 1.4199-0.37 0.79-0.14422 2.3716 0.58203 3.1953 0.67 0.76 1.6517 1.1157 2.7617 0.87695 1.0112-0.21625 1.8198-0.90836 1.9648-2.0059 0.08375-0.42375-0.19852-0.68117-0.41602-0.23242-0.32375 1.1338-0.95789 1.7112-2.0566 1.8125-1.03-0.015-1.4409-2.4626-1.4434-3.4863 0.02125-0.62375 0.38797-0.93758 0.79297-1.0176 1.1225-0.22125 1.9374 0.32148 2.6387 1.0527l-0.39258-1.6777c-0.12625 0.12-0.2382 0.20953-0.3457 0.33203-0.52406-0.25125-0.92865-0.35342-1.4473-0.33203zm9.9629 0.49609 0.30859 0.53906-0.92383 3.7402-0.7207 0.36523 4.3047 1.248 0.49023-1.334-0.87695 0.49609-1.6035-0.44336 0.94727-3.6445 0.54297-0.36914-2.4688-0.59766zm23.625 0.73828-0.74805 0.63867 1.0918 1.2793-3.4805 2.9727 0.75391 0.88477 3.4785-2.9727 1.0918 1.2773 0.75-0.63867-2.9375-3.4414zm-58.443 0.17969-2.918 3.457 0.75195 0.63477 1.084-1.2832 3.4961 2.9531 0.74805-0.88867-3.4941-2.9531 1.082-1.2852-0.75-0.63476zm20.236 0.0332-4.7031 1.7695 0.63867 0.30859 1.5391 3.4043-0.25391 0.85352 4.791-1.9785-0.62109-1.4551-0.44336 1.1562-1.9746 0.76367-0.74414-1.582 0.50586-0.17383 0.84961 0.21289-0.60938-1.3105-0.41211 0.66211-0.52539 0.22656-0.4707-1.2715 1.623-0.66602 1.3984 0.57617-0.58789-1.4961zm60.281 0.0957c2.065 0.26125 4.183 0.31344 5.8867 1.4609-0.51625 0-1.1884-0.3125-1.5996 0 0.51501 0.47 1.5467 0.36617 1.8555 1.0449-0.36125 0.1575-0.92703-0.05101-1.2383 0.20898 0.465 0.47 1.2909 0.31367 1.7559 0.88867-0.31125 0.20875-0.67094-0.20898-0.92969 0.10352 0.25875 0.575 1.4462 0.47016 1.3438 1.2539-1.9112-0.575-3.9247-0.83586-5.6797-1.7246l-1.4941-3.0273 0.0996-0.20898zm-39.936 0.58398 0.17188 0.68945-1.6328 3.3594-0.81641 0.34961 4.5801 2.4258 0.7207-1.4082-1.1719 0.39648-1.8516-1.0332 0.74414-1.582 0.45508 0.2793 0.38086 0.78906 0.61914-1.3047-0.77539 0.10352-0.50781-0.25976 0.67774-1.1738 1.5469 0.82422 0.45117 1.4453 0.77539-1.4102-4.3672-2.4902zm-67.591 0.98317 0.5703 0.47 1.9099 4.332c-0.0525 0.99125-0.62016 1.8273-0.87891 2.7148h-0.25781c-1.2912-1.775-2.9438-3.6024-2.8926-5.9512 0.72375 0.4175 0.6725 1.6184 1.3438 1.8809-0.10375-1.0975-0.98062-2.0895-0.67188-3.2383 0.41375 0.10375 0.41445 1.0442 0.87695 0.73047v-0.93945zm39.467 2.6777c-0.17709-0.01395-0.34953-0.0072-0.51172 0.01562-1.4675 0.465-2.6598 1.7477-2.6973 3.2539-0.02 0.7775 0.17367 1.383 1.0762 2.0293 0.74625 0.5325 1.5709 0.65625 2.3184 0.40625 0.9875-0.4125 1.8651-1.2956 2.1738-2.4531 0.2175-0.82125 0.34844-1.4246-0.69531-2.4434-0.54938-0.53719-1.1328-0.76676-1.6641-0.80859zm70.596 0.32617c1.0953 0.01805 2.2256 0.52047 3.3555 0.70312 0.67125 0.365 1.497 0.31172 2.0645 0.88672v0.10352c-0.415-0.26-0.9818-0.2075-1.498-0.3125 0.2575 0.4175 1.0318 0.52297 1.498 0.88672 0.15375 0.31375 0.46531 0.47094 0.41406 0.83594-0.67-0.26125-1.3947-0.52148-2.1172-0.52148l0.10156 0.20703c0.67126 0.5225 1.7059 0.52312 2.1172 1.3594-0.36 0.10375-0.72203-0.41648-1.082-0.05273 0.20625 0.36625 0.875 0.52242 0.875 1.0449-1.6512-0.67875-3.5091-0.83539-5.0078-1.9316l-1.1875-3.1855c0.155-0.01953 0.31033-0.02602 0.4668-0.02344zm-20.49 0.2168-4.7363 2.916 2.2109 3.5996 0.83789-0.51562-1.6133-2.6289 1.2285-0.75586 1.418 2.3125 0.83789-0.51562-1.4219-2.3125 0.99805-0.61328 1.5449 2.5156 0.83984-0.51367-2.1445-3.4883zm-16.184 0.002c-0.46625 0.02875-0.87898 0.3657-1.084 0.7832-0.72375 1.775 1.2731 2.1891 2.0469 3.4941 0.22375 0.4 0.38516 0.77594 0.03516 1.0547-0.69375 0.54875-1.6183-0.42672-2.082-1.1055-0.195-0.24625-0.27422-0.43219-0.35547-0.67969 0 0-0.4682-0.98602-0.4707-1.041 0 0-0.65961 0.84547-0.72461 0.88672l0.68555 0.4707c0.9175 0.83875 1.5145 2.0482 2.8945 2.0957 0.82875 0.0275 1.5061-0.24094 1.6523-0.99219 0.2575-1.7738-1.2551-2.4172-2.2363-3.6172-0.135-0.2025-0.31625-0.52688 0-0.67188 0.50625-0.23375 0.8625 0.11422 1.3438 0.41797 0.44 0.37625 0.84805 0.75242 1.0918 1.2012 0.03625 0.05375 0.19727 1.1484 0.19727 1.1484 0.05-0.045 0.77539-0.88867 0.77539-0.88867-0.26375-0.28125-0.69336-0.69141-0.69336-0.69141-0.721-1.035-1.642-1.954-3.074-1.867zm-75.502 0.066c1.0338 1.9825 2.4246 3.8102 3.0684 5.8027l-0.8262 3.128-0.2305 0.098c-0.9787-1.252-2.3723-2.766-2.6835-4.332 0.155 0 0.20758 0.20922 0.36133 0.26172 0.2087-0.574-0.4643-1.201-0.3106-1.828l-0.1015-0.207c0.155-0.05375 0.41141 0.52226 0.72266 0.25976l-0.41602-1.043h0.36523c0-0.4175-0.41375-1.0454 0-1.4629-0.0513-0.209-0.1555-0.521 0.0507-0.678zm40.48 0.424c0.08441 0.0036 0.16352 0.02609 0.22852 0.07422 0.35375 0.29125 1.3518 1.2395 1.9668 1.9395 0.13125 0.185 0.31266 0.4407 0.34766 0.68945 0.0275 0.19625-0.17648 0.58375-0.36524 0.78125-0.21625 0.22625-0.40016 0.27781-0.62891 0.28906-0.1625 0.0075-0.49633-0.11781-0.64258-0.25781-0.66-0.63-2.0834-2.0189-2.0859-2.3164-0.01375-0.33375 0.16313-0.58898 0.42188-0.86523 0.19312-0.18094 0.50457-0.34482 0.75781-0.33398zm18.012 0.45898-4.8027 14.932-16.072-0.0059 13.027 9.5586c-1.4975 4.8038-3.0967 9.5532-4.543 14.408 4.2338-2.7662 8.3127-5.9485 12.598-8.666 4.285 2.9775 8.4665 6.1109 12.803 8.9297-1.4988-4.96-3.2-9.8152-4.75-14.723 4.1312-3.1838 8.6212-6.0555 12.545-9.293h-15.59l-4.957-14.932-0.25781-0.20898zm-34.494 0.85719-1.873 3.4902 4.8984 2.6328 0.55078-1.0254-2.0605-1.1074 1.1582-2.1582-0.86719-0.46484-1.1582 2.1582-1.1035-0.59375 1.3203-2.4648-0.865-0.467zm56.684 2.041-0.10938 0.94336-3.0996 2.2441-0.79297-0.08789 1.4434 2.0547 0.22852-0.62891 3.084-2.2656 0.77148-0.10742-1.5254-2.1523zm32.682 0.3418c1.705 0.26125 3.2518 0.88813 4.748 1.5156 0.46625 0.46875 1.0335 0.67648 1.1348 1.3027-0.51375 0-0.92891-0.51953-1.4414-0.36328 0.66875 0.67875 1.702 1.3037 2.2695 2.1387-0.8775 0-1.498-0.78125-2.3242-0.78125 0.5175 0.67875 1.3945 0.9907 2.0645 1.5645-0.465 0.105-0.82531-0.41727-1.2891-0.25977 0.25749 0.46875 0.87601 0.62594 1.1348 1.1484-1.4438-0.575-3.2506-1.1481-4.748-1.8281l-0.41601-0.41797-1.1328-4.0195zm-76.748 0.14258c-0.28716 0.01206-0.54922 0.12203-0.71094 0.34375-1.0288 1.3338-3.0234 3.9727-3.0234 3.9727l0.92188 0.05078 2.7441 2.0801 0.21484 0.7832 1.7812-2.1133-0.875 0.01172-1.0547-0.78125 0.69531-0.92383 1.6621-0.26367 0.37695 0.43945 1.752-2.3184-1.0039 0.32617-2.0996 0.23242c0.1025-0.3325 0.13945-0.85508-0.0918-1.1738-0.26406-0.43828-0.81046-0.68611-1.2891-0.66602zm21.615 0.2207v17.281c-1.29-1.725-2.6309-3.5512-3.8184-5.3262l3.8184-11.955zm-59.936 0.57812 0.36133 0.10352c1.0838 1.985 2.5803 3.7583 3.0391 5.7383l-0.46484 2.6602c-0.81875-0.20375-1.4384-1.3-2.1621-2.0312-0.36125-0.8875-1.5484-1.6181-1.5996-2.7656 0.30875 0.26 0.56695 0.67945 0.87695 0.93945l0.15625-0.20898c-0.3625-0.57375-0.77562-1.1999-0.82812-1.8262 0.25875 0.10375 0.46539 0.46875 0.77539 0.46875 0.0525-0.6275-0.62109-1.0947-0.62109-1.7734 0.36375 0 0.51766 0.78398 0.87891 0.36524 0.05125-0.62625-0.82586-0.93992-0.41211-1.6699zm96.652 0.55859-5.1562 2.0801 0.42773 1.0566 2.0176-0.81641 0.44922 1.1152c0.32 0.7975 0.06437 0.95062-0.64062 1.2344-0.53125 0.215-0.77719 0.36516-0.99219 0.53516l0.48047 1.1934 0.13672-0.05469c-0.0075-0.265 0.18109-0.33953 0.93359-0.64453 0.96-0.3875 1.0292-0.68289 1.043-1.1816 0.37875 0.44 0.98062 0.53148 1.5469 0.30273 0.4475-0.18 1.3591-0.83914 0.80664-2.2129l-1.0527-2.6074zm-58.914 0.11328c0.08666-0.0091 0.17852-0.0054 0.27539 0.01758 0.52 0.125 0.79289 0.50641 0.83789 1.0352 0.0025 0.57125-0.45789 1.0015-0.90039 1.5527l-1.6465-1.1699c0.45062-0.58844 0.82697-1.3719 1.4336-1.4355zm58.449 1.3008 0.54101 1.3438c0.25625 0.6325-0.0973 0.91734-0.37109 1.0273-0.50875 0.20625-0.81156 0.01117-1.0391-0.54883l-0.50586-1.2637 1.375-0.55859zm-72.282 0.984c-1.3128 0.17033-1.8716 1.2777-2.0469 1.8008-0.235 0.69875-0.55047 2.638 1.9258 3.4668 2.4738 0.83125 3.3905-0.90797 3.623-1.6055 0.235-0.6975 0.54992-2.6348-1.9238-3.4648-0.61875-0.20781-1.1405-0.25404-1.5781-0.19727zm0.251 1.1348c0.27139-0.0067 0.58992 0.04031 0.95898 0.16406 1.4762 0.49625 1.5626 1.4545 1.3613 2.0508-0.19875 0.595-0.84672 1.3114-2.3242 0.81641-1.4738-0.495-1.5606-1.4577-1.3594-2.0527 0.14812-0.44625 0.54912-0.95836 1.3633-0.97852zm61.639 0.08984-4.8184 0.2168-0.74609-0.12305 0.90234 1.3887 0.17383-0.72656 0.90625-0.06445 0.82812 1.8086-0.64648 0.77539-0.38477-0.08789 1.0273 2.541 0.21289-0.69727 3.0996-3.8652-0.55469-1.166zm-50.615 0.08984c-0.6252-0.0081-1.1135 0.36867-1.3066 0.75586-0.08 0.16125-1.7754 4.0039-1.7754 4.0039l0.70898-0.3418 3.418 1.6211 0.33203 0.75976 1.1758-2.4043-0.699 0.143-1.071-0.508s0.37711-1.0727 0.75586-2.084c0.2225-0.59125-0.20695-1.5012-0.87695-1.7949-0.23312-0.1025-0.45762-0.14768-0.66602-0.15039zm81.495 0.218c1.9612 0.4175 3.9205 0.78289 5.418 2.4004v0.20898c-0.72125-0.20875-1.2905-0.62523-2.0117-0.83398l-0.15234 0.20703c0.25625 0.36625 0.77305 0.62789 1.0293 0.99414-0.205 0.10375-0.30836-0.21172-0.41211 0.05078 0.6725 0.6775 1.7039 0.99312 2.0664 1.9844l-1.7559-0.67969-0.15625 0.15625 1.3926 1.4629-4.541-2.4023c-0.67125-1.045-0.7232-2.3488-0.87695-3.5488zm-31.98 0.33594-1.3125 1.4688-0.62305-1.4199 1.9355-0.04883zm-49.647 0.70117c0.15037 0.02641 0.3032 0.08406 0.45508 0.17188 1.0688 0.55375 0.21617 1.9-0.04883 2.4062l-2.002-0.86328s0.28508-0.69805 0.48633-1.123c0.23719-0.47344 0.65826-0.67102 1.1094-0.5918zm-35.816 0.05863c1.1875 1.5138 2.892 3.0802 3.6133 4.959-0.25875 0.88875-0.30461 1.4353-0.56836 2.8203l-0.6177-0.315c-0.9288-0.992-2.324-1.775-3.0977-3.027l0.3581-0.052c-0.1025-0.365-0.51805-0.5207-0.4668-0.93945 0.26 0 0.41438 0.4707 0.67188 0.1582-0.10375-0.4175-0.72297-0.52414-0.82422-0.99414 0.2575-0.10375 0.5682 0.20977 0.87695 0.25977-0.155-0.52-0.72445-0.93695-0.87695-1.5645 0.51625-0.05125 0.77383 0.94117 1.2363 0.57617-0.205-0.575-0.97969-0.99289-0.77344-1.6191 0.2575 0.0525 0.41344 0.67922 0.77344 0.41797l-0.3086-0.68zm99.823 1.532-5.437 1.184 0.89844 4.125 0.96094-0.20703-0.65625-3.0156 1.4082-0.30469 0.57422 2.6484 0.96289-0.20703-0.57617-2.6523 1.1406-0.24805 0.62891 2.8867 0.96094-0.21094-0.86914-3.998zm18.5 1.6523c1.135 0.46875 2.1699 1.0424 3.2012 1.6699 0 1.1462 1.3934 1.8784 1.9609 2.8184-0.36375 0-0.98008-0.10672-1.3926-0.41797l-0.10352 0.10352c0.46375 0.57625 1.1884 1.0456 1.5996 1.6719-0.46625-0.1025-0.87726-0.47047-1.291-0.41797 0.26 0.47 0.87945 0.83492 1.0332 1.3574-1.3925-0.68125-2.7364-1.6188-4.1289-2.6113-0.98-1.0438-0.67421-2.7128-0.98046-4.0703l0.10156-0.10352zm-119.56 2.245c1.8062 0.73125 2.8899 2.4541 4.2324 3.9141 0.36 0.88875 0.050781 2.1416 0.050781 2.9766-1.4975-0.62625-2.6839-1.3559-3.9727-2.5059 0.205-0.10375 0.30789 0.25977 0.46289-0.05273l-0.10352-0.25977c0.10375 0.05125 0.20805 0.20875 0.31055 0.15625l0.1543-0.156-1.1348-1.203c0.36125 0.05375 0.56844 0.52422 0.92969 0.26172-0.1025-0.469-0.6736-0.678-0.9824-1.045 0.4125 0 0.72297 0.42164 1.1367 0.36914-0.2575-0.52375-0.93-0.67914-1.3438-1.1504 0.2075 0 0.41406 0.3125 0.57031 0 0.10125-0.3125-0.67297-0.47117-0.10547-0.73242-0.1025-0.155-0.25633-0.31102-0.20508-0.57226zm67.062 0.67578h12.959c-5.37 1.88-11.254 3.8109-16.936 5.5859 1.24-1.8775 2.6853-3.7584 3.9766-5.5859zm-22.252 0.41797c5.6288 1.7225 11.255 3.707 16.83 5.5332-1.9088 0.83875-4.0266 1.4623-6.0391 2.0898-3.6138-2.2962-7.281-5.1155-10.791-7.623zm-20.834 0.5332c-0.8225 0.0087-2.0123 0.60508-2.1211 2.2676-0.09375 1.4325 0.82297 2.6173 2.7617 2.7461 1.9175 0.125 2.9838-0.8682 3.0801-2.3457 0.09125-1.3925-0.69867-2.2356-1.8887-2.5469l-0.07813 1.1602c0.6725 0.185 1.0061 0.65508 0.96484 1.2988-0.065 0.9825-0.98688 1.317-1.9844 1.252-1.5688-0.10375-1.8859-0.95016-1.8496-1.5039 0.0625-0.96125 0.69977-1.098 1.041-1.168l0.07422-1.1602zm78.283 0.92578-5.5586 0.25391 0.10938 2.4062c0.0825 1.8362 1.8212 2.2295 3.0137 2.1758 1.0525-0.04625 2.6292-0.50836 2.543-2.3809l-0.10742-2.4551zm17.969 0.42188c1.6012 0.4175 2.8401 1.5154 4.2363 2.4004 0.0513 0.31375 0.35984 0.52219 0.30859 0.83594-0.72125-0.26-1.2899-0.88695-2.0137-1.252l-0.0527 0.05078c0.67125 0.99125 2.0665 1.8803 2.4277 2.9766-0.2575 0.2075-0.41289-0.15524-0.61914-0.20898l-1.3418-1.2012-0.15625 0.15625c0.36125 0.8375 1.6506 1.4094 1.7031 2.2969l-1.0312-0.10547c-1.1875-1.0412-2.79-1.7219-3.5625-3.2344 0-0.88625-0.36344-2.0373 0.10156-2.7148zm-84.316 0.74609c-0.4025 0-0.73047 0.32672-0.73047 0.73047s0.32797 0.73242 0.73047 0.73242c0.40375 0 0.73047-0.32867 0.73047-0.73242s-0.32672-0.73047-0.73047-0.73047zm65.437 0.01367 0.0488 1.1152c0.0225 0.495-0.0748 1.2824-1.7148 1.3574-0.91125 0.04125-1.8774-0.23328-1.9199-1.1758l-0.0527-1.1309 3.6387-0.16602zm-12.713 0.07031c-0.4025 0-0.72852 0.32867-0.72852 0.73242s0.32602 0.73047 0.72852 0.73047c0.40375 0 0.73047-0.32672 0.73047-0.73047s-0.32672-0.73242-0.73047-0.73242zm-89.053 1.519c0.51625 0.21 1.0341 0.67727 1.6016 0.57227 1.0838 0.7325 2.2702 1.5155 3.1465 2.5605l0.2089 3.705c-0.46625 0.21-0.87727-0.31203-1.291-0.51953-1.3412-0.94125-2.22-1.5688-3.4062-2.7188v-0.25977c0.465 0 0.82406 0.47195 1.2891 0.31445-0.4125-0.78375-1.3937-1.2529-1.8574-2.0879 0.31-0.1575 0.87602 0.67953 0.97852 0.05078-0.205-0.20875-0.40969-0.31273-0.61719-0.52148 0.31 0 0.56695 0.20898 0.87695 0.05273-0.155-0.5225-0.82719-0.67719-0.92969-1.1484zm63.5 1.8242 6.248 1.9844c1.4475 3.9688 2.8413 7.9885 4.0801 12.01-3.5638-4.4888-7.0231-9.2941-10.328-13.994zm57.146 0.264c1.4488 0.575 2.7886 1.5663 3.8711 2.7676v0.15625c-0.67-0.21-1.1847-0.78219-1.8047-0.99219l-0.15625 0.10352c0.72375 0.73125 1.8081 1.5141 2.0156 2.5078-0.67125-0.105-1.2389-0.94164-1.9102-0.99414l1.5996 2.0352c-0.31 0.10625-0.66898-0.20781-0.92773-0.10156 0.205 0.5725 1.1847 0.78492 0.77344 1.5137-1.445-0.9925-2.8408-1.9338-3.7695-3.5 0.3075-1.0962-0.0502-2.5048 0.30859-3.4961zm-58.33 0.36523v6.3164c-3.25 2.4538-6.6611 4.8034-9.9648 7.0996l9.9648-13.416zm-34.402 0.4082-5.5469 0.33789 0.07031 1.1602 5.5469-0.33789-0.07031-1.1602zm8.8047 1.3477c-0.40375 0-0.73047 0.32797-0.73047 0.73047 0 0.405 0.32672 0.73242 0.73047 0.73242 0.4025 0 0.72852-0.32742 0.72852-0.73242 0-0.4025-0.32602-0.73047-0.72852-0.73047zm-25.67 0.08398c-0.10125 1.0438-0.41008 2.088-0.20508 3.1855-0.4125-0.1575-0.98031-0.3657-1.4453-0.62695 0 0.6275 0.20305 1.5632 0.5918 2.1895-0.26125 0.0525-0.51734-0.16211-0.83984-0.16211 0.12875 0.35375 0.09398 0.78367 0.27148 1.3262 0.08375 0.2575 0.13875 0.69773 0.4375 0.74023-0.22375-0.03125-0.50367-0.18766-0.51367-0.09766 0.1025 1.8288 1.8611 2.4777 3.1523 3.3652 0.25625 0.46875-0.000312 1.4084 0.77344 1.4609 0.1025-0.10375 0.35938-0.000235 0.35938-0.20898 0.10375-0.4675-0.15406-0.73016-0.25781-1.0977 1.29-1.0425 1.8586-2.6633 1.4961-4.332-0.16125-0.0375-0.45898 0.07227-0.45898 0.07227 0.06375-0.67875 0.28945-1.6745 0.06445-1.9707l-0.79102 0.01953c0-0.7825 0.10398-1.5684-0.10352-2.3496-0.51625 0.15625-0.81524 0.65266-1.2402 1.0977-0.285-1.0588-0.51602-1.9863-1.291-2.6113zm77.684 0c-0.405 0-0.72852 0.32867-0.72852 0.73242 0 0.405 0.32352 0.73047 0.72852 0.73047 0.40375 0 0.72852-0.32547 0.72852-0.73047 0-0.40375-0.32477-0.73242-0.72852-0.73242zm-88.16 0.61328 0.51562 0.1582 3.9766 3.1289c0.30875 0.94125 0.46383 1.9873 0.36133 2.9785-0.415 0.365-0.77547-0.15789-1.1367-0.21289-0.46625-0.36375-1.1345-0.41328-1.3945-0.98828-0.61875-0.21-1.3924-0.73219-1.8574-1.3047 0.10375 0 0.15453 0.001 0.20703-0.05273l-0.5753-0.73c0.31125 0.05125 0.62289 0.52102 0.93164 0.25977l-1.3418-1.409c0.30875 0 0.56547 0.36524 0.82422 0.20898-0.1025-0.52125-0.92922-0.62516-0.82422-1.2539 0.30875 0.0525 0.61648 0.26047 0.92773 0.10547-0.1081-0.313-0.6748-0.574-0.6235-0.888zm27.471 0.36133-0.99023 0.17578 0.48047 2.7227-4.4824 0.79492 0.20312 1.1484 5.4746-0.97461-0.68555-3.8672zm85.532 0.317c-0.77375 0.62875-1.0021 1.5513-1.2871 2.6113-0.425-0.445-0.72399-0.93945-1.2402-1.0957-0.20625 0.78-0.10351 1.5652-0.10351 2.3477l-0.79102-0.01953c-0.225 0.29625 0 1.292 0.0625 1.9707 0 0-0.29523-0.10906-0.45898-0.07031-0.36 1.6688 0.2075 3.2895 1.5 4.332-0.105 0.3675-0.36422 0.62516-0.26172 1.0977 0 0.20625 0.26008 0.10078 0.36133 0.20703 0.77375-0.05125 0.51664-0.99023 0.77539-1.459 1.29-0.88875 3.0466-1.5352 3.1504-3.3652-0.01-0.09125-0.29008 0.06516-0.51758 0.09766 0.30125-0.04375 0.3557-0.48469 0.43945-0.74219 0.17875-0.54125 0.14274-0.96992 0.27149-1.3262-0.3225 0-0.57789 0.21586-0.83789 0.16211 0.39-0.62625 0.59179-1.5632 0.59179-2.1895-0.46625 0.26-1.0341 0.4707-1.4453 0.62695 0.20625-1.0975-0.10398-2.1405-0.20898-3.1855zm-102.22 0.067c0.155 0.7825 0.9293 1.8788 0.31055 2.4551-0.465-0.6275-0.41305-1.6726-0.31055-2.4551zm85.549 0.56836-0.18164 1.1484 5.4902 0.875 0.1836-1.1504-5.4922-0.87305zm-83.588 0.21484c0.15625 1.15-0.10156 2.4528-1.1328 3.1328-0.2075-1.2012 0.20531-2.4028 1.1328-3.1328zm99.951 0.50781c0.10625 0.7825 0.15711 1.8281-0.30664 2.4531-0.62-0.57375 0.15289-1.6706 0.30664-2.4531zm7.0664 0.1582c1.1875 0.73125 2.3762 1.7219 3.3574 2.7656-0.20875 0.05375-0.41485-0.3125-0.6211 0 0.46375 0.8875 1.0326 1.8286 1.2363 2.8711-0.36 0.0525-0.56398-0.36524-0.92773-0.36524 0 0.52125 0.77586 0.88695 0.72461 1.5645-0.25875-0.05125-0.56867-0.31125-0.82617-0.46875l0.10156 0.83594-3.459-4.2285c-0.05-0.99125 0.25657-1.9821 0.41407-2.9746zm-110.37 0.58789c0.92875 0.3125 1.8044 1.1491 1.7031 2.2441-0.72375-0.62625-1.9094-1.1466-1.7031-2.2441zm101.35 0.03711c0.93 0.73 1.3417 1.9316 1.1367 3.1328-1.0338-0.6775-1.2905-1.9853-1.1367-3.1328zm-97.164 0.84961c0.155 1.305-0.41477 2.6101-1.4473 3.5488-0.155-0.625-0.51383-1.2509-0.36133-1.9297 0.67375-0.47125 0.82734-1.6191 1.8086-1.6191zm82.34 0.33984-0.30664 1.0391 3.8066 1.1152-0.004 0.01563-4.4414 1.0625-0.32617 1.1172 5.3359 1.5625 0.30469-1.041-3.7148-1.0879 0.0039-0.01563 4.3379-1.0312 0.34375-1.1758-5.3398-1.5605zm18.178 0.06445c0.21 1.0975-0.97867 1.6166-1.7012 2.2441-0.10375-1.0975 0.77117-1.9304 1.7012-2.2441zm-24.385 0.35352-0.9668 0.32031-4.1094-0.01758-0.62305 1.2676 3.0371 3.3223 0.14648 0.91992 0.77539-1.3574-0.59766-0.0332-0.64648-0.69336 0.80664-1.7266 1.082 0.08203 0.25781 0.5 0.83789-2.584zm-80.572 0.02539c0.8775 0.15625 1.6515 0.67914 2.1152 1.4629 0.0525 0.365 0.41453 0.7807 0.20703 1.0957-0.87625-0.78375-2.4773-0.93984-2.3223-2.5586zm-8.4141 0.50781c1.4962 0.94 3.098 1.6713 4.543 2.9238 0.36125 1.045 0.51469 2.1913 0.77344 3.2363-1.29-0.1575-2.528-0.7307-3.7168-1.4082-0.515-0.47-1.2894-0.68164-1.5469-1.3066 0.4125-0.0525 0.72227 0.6257 1.1348 0.31445-0.465-0.5225-1.0328-0.99312-1.4453-1.5156 0.66875 0.1575 1.1862 0.62742 1.8574 0.73242-0.46375-0.52125-1.3929-0.99391-1.8066-1.7227 0.36125-0.21 0.6182 0.3625 0.87695 0-0.207-0.47-0.8265-0.366-0.879-0.938l0.20703-0.31445zm109.19 0c0.98 0 1.1361 1.1497 1.8086 1.6172 0.155 0.68125-0.20703 1.3061-0.36328 1.9336-1.0325-0.94-1.6016-2.2445-1.4453-3.5508zm-70.322 0.4043-0.25781 0.75976-3.3477 1.7617-0.70117-0.18164 1.1602 2.3438 0.35352-0.59766 1.0508-0.55078s0.63094 0.94688 1.2109 1.8594c0.3375 0.5325 1.384 0.79164 2.0215 0.43164 0.8875-0.5 0.89617-1.4825 0.63867-2-0.08125-0.16125-2.1289-3.8262-2.1289-3.8262zm-25.604 0.18359c0.20625 0.7825-0.000546 1.6169-0.31055 2.2969-0.325 0.68375-1.0313 1.0449-1.2363 0.88867-0.37875-0.755 0.21242-1.4409 0.66992-2.0371 0.40375-0.52625 0.4357-1.0109 0.87695-1.1484zm100.37 0.19531c0.15625 1.6188-1.4455 1.7761-2.3242 2.5586-0.205-0.31375 0.15828-0.7307 0.20703-1.0957 0.46375-0.7825 1.2397-1.3054 2.1172-1.4629zm-86.791 0.375c-0.21219-0.01359-0.42992 0.01414-0.63867 0.08789-0.5175 0.1825-0.96938 0.53102-0.98438 1.2598-0.18625-0.18125-0.54758-0.53188-1.2988-0.26562-0.54125 0.19-1.2298 0.80484-0.77734 2.0898l0.89844 2.5508 5.2441-1.8496-0.78125-2.2188c-0.37875-1.0762-0.66305-1.2991-1.0605-1.4941-0.182-0.09-0.388-0.145-0.6-0.158zm57.26 0.08398 2.1289 0.16016-0.64648 1.4062-1.4824-1.5664zm-75.377 0.28516c0.8775 0.4175 2.4273 1.0961 2.3223 2.0898-0.98-0.26125-2.0635-0.99359-2.3223-2.0898zm109.8 0.14453h0.1543c1.0838 1.3562 2.7365 2.6618 3.459 4.2793-0.5675 0.26125-0.61875-0.78352-1.1875-0.57227l0.72266 1.5625c-0.41375 0-0.61719-0.46852-0.92969-0.57227-0.15375 0.5725 0.5161 0.93867 0.46484 1.5137-0.465-0.05125-0.56546-0.62719-0.98046-0.83594 0 0.88625 0.98015 1.4606 0.8789 2.4531-1.2925-1.515-2.4267-3.2877-3.1992-5.1152 0.10125-0.93875 0.20469-1.8779 0.61719-2.7129zm-9.75 0.20703c0.44 0.14 0.47266 0.62094 0.87891 1.1484 0.45875 0.595 1.0462 1.2821 0.66992 2.0371-0.20625 0.155-0.91328-0.20547-1.2383-0.88672-0.31-0.67875-0.51555-1.5151-0.31055-2.2988zm-81.943 0.44141c0.33 0.0086 0.55766 0.23352 0.69922 0.63477l0.47266 1.3438-1.4004 0.49609-0.49023-1.3984c-0.14125-0.395-0.10328-0.85172 0.35547-1.0117 0.13344-0.04687 0.25328-0.0673 0.36328-0.06445zm12.648 0.25s0.48898 0.80836 0.70898 1.2246c0.3125 0.635 0.01609 1.0993-0.62891 1.373-1.085 0.5225-1.7277-1.0013-1.9727-1.5176l1.8926-1.0801zm73.838 0.25c-0.25625 1.0938-1.3428 1.8266-2.3203 2.0879-0.10375-0.99375 1.4416-1.6716 2.3203-2.0879zm-88.621 0.39648c0.26396 0.03809 0.45594 0.27906 0.57031 0.60156l0.45117 1.2871-1.1465 0.4043-0.436-1.256c-0.17625-0.5-0.15391-0.85141 0.27734-1.0039 0.10406-0.03687 0.20107-0.0459 0.28906-0.0332zm57.545 0.14062-1.1465 1.6152 1-0.16016 1.9844 1.4121-4.2676 0.46875-1.3711 1.5566 1.1855-0.01172 2.6855 1.8906 0.0918 0.90039 1.2246-1.4219-1.002 0.06445-2.0762-1.4219 4.3945-0.36524 0.77539-1.0449-3.252-2.5137-0.22656-0.96875zm-68.307 0.15234c-0.36125 0-0.53109 0.25211-0.62109 0.63086-0.07125 0.43-0.0382 0.68688 0.12305 1.2031 0.45125-0.225 0.77414-0.54852 0.96289-1.1035 0.0525-0.31125-0.10359-0.73047-0.46484-0.73047zm-0.05273 0.52344c0.3275 0.11375-0.02766 0.72797-0.25391 0.82422-0.12875-0.25625 0.000156-0.90297 0.25391-0.82422zm94.223 0.76953c-0.36125 0-0.51485 0.41742-0.46484 0.73242 0.18875 0.55375 0.51039 0.87586 0.96289 1.0996 0.16125-0.515 0.19484-0.77383 0.12109-1.2051-0.09-0.37625-0.25914-0.62695-0.61914-0.62695zm-98.336 0.0957c-0.18312-0.01559-0.36344 0.06164-0.53125 0.2832-0.2225 0.48625 0.30891 0.99344 0.72266 1.1484 0.465 0.105 0.87703-0.000469 1.2383-0.10547-0.31031-0.39094-0.88031-1.2794-1.4297-1.3262zm5.0938 0.2832c-0.465 0-0.78102 0.29148-0.97852 0.83398l-0.22266 0.78125c0.01 0.06875 0.74211-0.09781 1.0996-0.41406 0.515-0.33 0.83531-0.94242 0.10156-1.2012zm-14.006 0.0078c0.37266-0.01289 0.81891 0.29266 1.207 0.44922l3.5605 1.7734c0.4325 1.7412 0.88375 2.6448 1.1875 3.4473-0.82625 0.20625-1.6523-0.31445-2.4785-0.4707-0.92875-0.67875-2.1154-0.83586-2.8379-1.8809 0.4125-0.105 0.67 0.47117 1.0312 0.10742-0.41125-0.4725-1.2386-0.57688-1.4961-1.2031 0.20625-0.105 0.82664 0.47 0.77539-0.15625l-0.9783-0.783c0.4125-0.0525 0.92703 0.73117 1.082 0.10742-0.51625-0.3675-0.92953-0.73266-1.3945-1.2539 0.10312-0.09219 0.21953-0.13242 0.34375-0.13672zm107.3 0.137c0.255-0.07875 0.38266 0.56602 0.25391 0.82226-0.225-0.09625-0.58016-0.70602-0.25391-0.82226zm-98.422 0.05078c0.22186-0.0076 0.76 0.41703 0.89453 0.64453-0.77375-0.03-1.1293-0.32133-0.9668-0.61133 0.01672-0.02047 0.04057-0.03212 0.07227-0.0332zm31.844 0.06445-0.30469 0.89062-2.6211 2.2324-0.75391 0.04102 1.6777 2.1953 0.17774-0.85352 1.0234-0.9043 0.6875 0.85547-0.10352 1.6797-0.47656 0.33789 1.8867 2.2129-0.10547-1.0508 0.22852-2.1035c0.3675 0.21375 0.81258 0.29031 1.1738 0.13281 0.775-0.26125 1.2201-1.308 0.73633-1.8555-1.0812-1.2925-3.2266-3.8105-3.2266-3.8105zm-26.93 0.08984c0.04588-0.0039 0.09414 0.01438 0.14258 0.07031 0.19375 0.225-0.12891 0.41797-0.12891 0.41797l-0.58008 0.39062 0.31641-0.6543s0.11236-0.21283 0.25-0.22461zm102.84 0.21094h0.21093c0.9275 1.2 1.5981 2.5568 2.4219 3.8105-0.15375 0.2075-0.20438 0.20774-0.35938 0.05273-0.10375 0-0.10258-0.10547-0.20508-0.10547l-0.10546 0.10547c0.20625 0.8875 0.77656 1.6701 0.72656 2.6113-0.56875-0.26125-0.82992-0.99336-1.2949-1.4121l-0.15235 0.1582c0.20625 0.94 0.87696 1.7748 0.87696 2.7148-0.56875-0.2625-0.77602-1.0959-1.291-1.4609 0.0512 0.83375 1.0847 1.5641 0.92969 2.5566l-0.31-0.051c-1.03-1.6725-2.0626-3.2912-2.5801-5.1699l1.1328-3.8105zm-5.2188 0.44727c-0.54955 0.04658-1.1194 0.93438-1.4297 1.3281 0.36125 0.10625 0.77523 0.20797 1.2402 0.10547 0.41375-0.15875 0.94391-0.66664 0.72266-1.1504-0.16813-0.22094-0.35002-0.29873-0.53321-0.2832zm-5.0957 0.2832c-0.73375 0.26-0.40953 0.87188 0.10547 1.2031 0.355 0.315 1.0864 0.48211 1.0977 0.41211l-0.22266-0.78125c-0.19-0.541-0.5-0.834-0.97-0.834zm-97.283 0.08984c-0.33217 0.01629-0.59039 0.19031-0.60352 0.44531-0.0525 0.5225 0.34094 0.75594 0.77344 0.83594 0.36125 0 0.87852-0.05148 1.291-0.20898-0.15375-0.52-0.63883-0.9057-1.1113-1.0332-0.12094-0.0325-0.23889-0.04449-0.34961-0.03906zm102.42 0.105c0.0316 0.001 0.0577 0.01078 0.0742 0.03125 0.16125 0.2925-0.195 0.58274-0.96875 0.61524 0.13781-0.22859 0.67369-0.6538 0.89453-0.64648zm-4.9141 0.15625c0.13781 0.01125 0.25 0.22266 0.25 0.22266l0.3164 0.6543-0.58008-0.38672s-0.32265-0.19367-0.1289-0.41992c0.0488-0.05625 0.0966-0.07406 0.14258-0.07031zm-97.479 0.10352c0.23684-0.06504 0.75031 0.21524 0.94531 0.48242-0.45375 0.12875-1.1146 0.06344-1.0684-0.28906-0.0044-0.11156 0.0441-0.17168 0.12305-0.19336zm5.3633 0.0957c-0.51625 0-0.92781 0.13133-1.2891 0.54883 0.29 0.485 0.86461 0.61328 1.2246 0.61328 0.2075 0.05125 0.68508-0.18383 0.73633-0.39258 0.07-0.4475-0.31062-0.71828-0.67188-0.76953zm14.275 0.07813c-0.39525-0.04044-0.83195 0.06297-1.3105 0.33203l-3.1504 1.7754 0.58203 1.0332 3.1895-1.7969c0.5875-0.33 1.0853-0.23726 1.4766 0.45898 0.265 0.47125 0.18992 1.0302-0.48633 1.4102l-3.1445 1.7715 0.58008 1.0332 3.2129-1.8086c0.4775-0.2875 0.81219-0.61102 0.96094-1.041 0.23625-0.70125-0.02734-1.4229-0.27734-1.8691-0.42969-0.76406-0.97406-1.2314-1.6328-1.2988zm13.033 0.32227c0.51625 0.5775 1.3882 1.2146 1.002 2.0371-0.22875 0.48625-0.70227 0.57-1.2285 0.5-0.6175-0.10375-0.82898-0.62773-1.2715-1.1777l1.498-1.3594zm-27.496 0.0039c0.22594 0.000156 0.42086 0.07289 0.39648 0.25977-0.0475 0.33625-0.77617 0.07422-0.98242-0.08203 0.10312-0.105 0.36-0.17789 0.58594-0.17773zm97.061 0.42773c-0.11059-0.005-0.22867 0.0082-0.34961 0.04102-0.47375 0.12625-0.95828 0.50875-1.1133 1.0312 0.41375 0.155 0.93031 0.20703 1.2891 0.20703 0.4375-0.07875 0.82914-0.31344 0.77539-0.83594-0.0122-0.25594-0.2698-0.42824-0.60156-0.44336zm-95.943 0.08008c-0.20625 0.8875-0.51524 1.7241-0.92774 2.5078h-0.1543c-0.4125-0.78375-1.1369-1.2548-1.8594-1.6211-0.25875 1.305 0.05484 2.4635 0.62109 3.6035-1.0862-0.575-2.3767-0.62719-3.5117-0.83594 0.5175 1.5125 2.118 2.4548 3.5117 2.8711 0.77375 0.20875 1.6505 0.26024 2.373 0.67774 0.36125 0.36625 0.4143 1.0454 0.31055 1.4629-1.2388-1.2-3.304-0.93992-4.6465-1.6699 0.92875 2.245 3.2531 3.6535 5.4219 4.0723 0.31 0.10375 0.61766 0.47 0.56641 0.78125-1.085-0.15625-2.1682 0.000234-3.252-0.25977 0 0 0.10305 0.20875 0.1543 0.3125 1.29 2.0888 3.3572 2.978 5.6797 2.873 0.36125 0.2075 0.61875 0.78024 1.0312 0.83398 0.155-0.3125-0.15328-0.57492-0.20703-0.88867 0.2075-2.8712 0.31062-5.7401-1.7031-7.8301-0.155-0.15625-0.14992-0.06422-0.20117 0.14453 0.295 0.835-0.46695 2.1518-0.1582 3.248-0.1275-0.0225-0.31008-0.20602-0.51758-0.25977 0.62-2.2975 0.51875-5.1879-1.0312-7.1504-0.25875 1.2012-0.67172 2.5573-1.1367 3.4961-0.4125-1.8262 0.77484-3.1848 0.46484-5.0098-0.2075-0.47125-0.36188-1.1506-0.82812-1.3594zm95.924 0.2832c0.0792 0.02127 0.12711 0.08016 0.12304 0.19141 0.0438 0.355-0.61515 0.42047-1.0664 0.29297 0.19312-0.26719 0.70576-0.54818 0.94336-0.48438zm-100.41 0.04297c-0.51625 0.20875-1.2496 0.40148-1.4746 1.0215-0.13 0.35625 0.09641 0.67961 0.44141 0.75586 0.56 0.085 0.84781-0.33641 0.94531-0.72266 0.12875-0.42 0.08789-1.0547 0.08789-1.0547zm95.049 0.05469c-0.3625 0.05125-0.74383 0.32133-0.67383 0.76758 0.05 0.21125 0.53008 0.44383 0.73633 0.39258 0.365 0 0.93906-0.12828 1.2266-0.61328-0.35875-0.41875-0.77281-0.54688-1.2891-0.54688zm-15.248 0.12695-0.53711 0.94141 4.7695 2.7383 0.44141-0.77148c-0.3425-0.22625-0.67484-0.73578-0.15234-1.6445l0.07617-0.13281-0.66016-0.37891-0.64844 1.1328-3.2891-1.8848zm15.434 0.27539c0.2261-0.000469 0.48414 0.07336 0.58789 0.17773-0.2075 0.15875-0.93367 0.42024-0.98242 0.08398-0.0256-0.1875 0.16844-0.26125 0.39453-0.26172zm-95.516 0.01563s-0.4832 1.1638-0.75195 0.9375c-0.345-0.355 0.4932-0.7275 0.75195-0.9375zm4.9805 0.03711c0.565 1.2 0.000235 2.5578-0.25976 3.7578-0.15625-1.0438 0.56656-2.0344 0.10156-2.9219-0.31 0.52125-0.10211 1.4602-0.41211 2.0352-0.41375-0.93875 0.25781-1.9836 0.57031-2.8711zm89.057 0.05078c-0.56625 1.4638-1.2411 3.1852-0.6211 4.8027 0.155 0.8875 1.1877 1.7236 0.72266 2.5586 0.67125-0.20875 1.4455-0.52148 2.3242-0.52148 1.5475-0.41875 3.1497-1.826 3.4609-3.4473-0.77625 0.73125-2.0166 0.73266-2.9453 0.94141 0.20625-1.0962 0.0523-1.9853 0.10352-2.9766l-1.8574 1.6191c-0.20875-1.0425-0.5175-2.1391-1.1875-2.9766zm-92.518 0.43359c-0.465 0.10125-0.96766 0.585-1.0352 1.0625-0.065 0.45 0.15828 0.71141 0.36328 0.81641 0.4125 0.11875 0.66938-0.23719 0.67188-0.52344v-1.3555zm63.926 0.23828-1.1562 0.87891 1.0469 4.6426-0.16992 0.73438 1.4609-0.96094-0.75977-0.08203-0.27148-1.2109 1.7578-1.3867 1.1973 0.61523 0.09375 0.60547 1.9082-1.8379-0.63281-0.05469-4.4746-1.9434zm33.443 0.05859s-0.0421 0.63344 0.0879 1.0547c0.0975 0.38625 0.38656 0.8082 0.94531 0.7207 0.34375-0.075 0.56766-0.39766 0.44141-0.75391-0.2275-0.62-0.95711-0.81023-1.4746-1.0215zm-96.646 0.05469c1.0325 0.73 1.547 1.8269 1.9082 2.9219-0.36125-0.52-0.7225-1.0947-1.1875-1.4609v0.3125c0.67125 0.7825 1.1888 1.6711 1.7051 2.5586-1.8175-0.91-2.4645-2.6533-2.4258-4.332zm-1.0156 0.25586c-0.15625 0.15875 0.01844 1.0093-0.25781 0.9043-0.24125-0.02375-0.12969-0.6118 0.25781-0.9043zm92.965 0.0039c0.4125 0.88875 0.9293 2.4028 0.1543 3.2891-0.20625-0.835-0.00086-1.5656-0.41211-2.2969-0.31 1.1488 0.30883 2.2963 0.20508 3.3926-0.66875-1.2-0.66852-3.1323 0.0527-4.3848zm4.9785 0.1582c0.25625 0.20875 1.0957 0.5832 0.75195 0.93945-0.27 0.225-0.75195-0.93945-0.75195-0.93945zm-108.76 0.102c1.8062 0.57375 3.5627 1.3566 5.3164 2.0879 0.04 0.05 1.4134 2.9788 1.5996 3.5488l-0.10352 0.10352c-2.0632-0.367-4.1797-0.784-5.6772-2.297v-0.20898h0.72266c-0.36-0.41625-1.0842-0.67648-1.293-1.1465 0.36375 0.05125 0.72539 0.31203 1.0879 0.20703-0.20625-0.57375-1.0342-0.36594-1.293-0.99219 0.465-0.10375 0.93023 0.31469 1.3965 0.21094-0.46625-0.68-1.6021-0.67992-1.7559-1.5137zm107.23 0.41602v1.3574c0.001 0.2875 0.25812 0.64469 0.67187 0.52344 0.20875-0.105 0.43008-0.36391 0.36133-0.81641-0.0675-0.475-0.5682-0.95945-1.0332-1.0645zm6.8574 0.25976c0.77375 1.83 2.4277 3.2355 2.4277 5.3242-0.51625-0.36375-0.775-1.1987-1.1875-1.8262 0.0525 0.835 0.72415 1.5126 0.61915 2.4551-0.3125-0.0525-0.61993-0.52367-0.82618-0.73242-0.0512 0.47125 0.3093 0.99289 0.1543 1.6191-0.5675-0.31375-0.61828-1.1471-1.082-1.5684 0 0.9425 0.72312 1.8305 0.51562 2.873-0.7225-1.2512-1.4459-2.6635-1.9609-4.0723 0.0512-1.4612 0.77109-2.8185 1.3398-4.0723zm-39.52 0.24609 1.6328 0.85938-1.2051 0.94141-0.42773-1.8008zm32.953 0.10742c0.38625 0.28875 0.49977 0.87859 0.25977 0.90234-0.275 0.105-0.10477-0.74859-0.25977-0.90234zm-62.908 0.09375c-0.775 0.06375-1.3554 0.32227-1.9004 1.291-0.45 0.79875-0.48305 1.6321-0.1543 2.3496 0.51625 0.93875 1.4869 1.7172 2.6719 1.8984 0.83875 0.1275 1.4535 0.19617 2.3535-0.95508 0.63125-0.80625 0.71203-1.6118 0.55078-2.248-0.62125-1.4088-2.0215-2.4622-3.5215-2.3359zm61.637 0.02539c0.10375 1.4087-0.31156 2.8698-1.6016 3.6523 0.205-0.73125 0.77789-1.3545 0.93164-2.1895-0.0537-0.05375-0.15524-0.05469-0.20899-0.05469l-1.1348 2.1934c-0.155-0.20875 0.00054-0.93867 0.15429-1.3574 0.3625-0.88625 1.1881-1.5654 1.8594-2.2441zm-18.18 0.503c-0.43969 0.03719-0.91391 0.2707-1.3477 0.83008-0.895 1.1525-0.31367 2.1741 0.23633 2.6016 0.56375 0.43875 1.0183 0.41906 1.5508 0.16406-0.08875 0.4925 0.11383 0.89164 0.48633 1.1816 0.5975 0.46625 1.4998 0.40195 2.1973-0.49805 0.59125-0.75875 0.60648-1.7004-0.13477-2.2754-0.4025-0.31375-0.82281-0.34227-1.2578-0.13477 0.205-0.89625-0.36984-1.3444-0.58984-1.5156-0.29625-0.23062-0.70094-0.3907-1.1406-0.35352zm-42.307 0.16992c0.4525 0.04875 1.2035 0.78438 1.291 1.0156 0.0975 0.275-0.53258 1.2756-1.0488 1.8906-0.5325 0.71-0.93461 1.0484-1.2246 1.2246-0.3225 0.0675-1.1945-0.51453-1.457-1.082-0.10625-0.30625 0.39133-1.0484 0.89258-1.6309 0.59625-0.725 1.3856-1.4505 1.5469-1.418zm25.988 0.10156-2.3047 1.0566 0.92188 0.22852-0.63672 1.3828-1.2852-0.60742 0.05078-0.56445-2.793 1.0508 1.2266 0.37109 2.2598 1.1621-0.882 1.905-0.791 1.059 2.449-0.771-0.9-0.479 0.773-1.465 1.5078 0.76562 0.16602 0.5957 2.3887-1.293-1.166-0.18359-2.3789-1.293 1.3945-2.9238zm-62.51 0.0078c1.445 0.15625 2.9436 0.57562 4.0273 1.8281-0.8275-0.155-1.6-0.67922-2.375-0.73047 0.61875 0.5225 1.4955 0.6807 2.168 1.0957-1.2388-0.10375-3.0453-0.78211-3.8203-2.1934zm92.984 0.20898c-0.62 1.5162-1.447 3.0295-1.3945 4.752 0.05 0.52125 0.46429 1.1997 0.15429 1.6172-0.23625-1.0538-0.51687-2.0884-0.82812-2.9746-0.9275 2.0362-2.1662 4.0719-1.8574 6.5781 0 0.57375 0.36015 1.1487-0.3086 1.3574 0.20375-1.305-0.25836-2.5561-0.56836-3.6523-1.6012 1.4588-2.1166 3.8095-1.6504 5.8457-0.20875 0.26-0.52007 0.46852-0.83007 0.41602 0-0.05-0.00023-0.1025 0.10352-0.15625 0.20625-0.93875 0.10469-2.3503 0.0547-3.2891l-1.8086 1.9844c-0.62125 0.835-1.1359 1.8796-1.4434 2.6621-0.0525-0.46876 0.15336-1.0437 0.09961-1.5137 0 0-1.3978 1.3102-1.9141 1.9902-1.1875 1.305-0.66687 3.4402-0.04687 4.8477 0.465 0.12625 0.67094 0.20898 1.0859 0.20898 1.9088 0.20875 4.2849-0.0512 5.4199-1.8262-0.4125-0.105-0.98352 0.001-1.291-0.3125 0 0 0.94844-0.125 1.8359-0.625 1.0138-0.57375 1.9929-1.5624 2.2441-2.0898-0.9825 0.365-2.1182 0.41875-3.252 0.46875 0.2625-0.28375 0.65218-0.67125 0.92968-1.0938 2.2712 0.0513 4.3868-0.94305 5.9356-2.873v-0.15625c-1.8588 0.1025-3.3585-0.20852-5.0098 0.52148l0.0527-0.05273c0.515-1.9838 2.6856-1.3045 4.0781-1.5645 1.0175-0.03125 1.7182-0.66898 2.3457-1.4277 0.39125-0.4725 0.935-1.1936 1.2188-1.3398l-0.1543-0.10352c-1.035 0.2075-2.2746 0.41703-3.2559 0.05078 0.5675-1.0962 2.0141-0.6257 2.9941-1.0957 1.4462-0.6275 2.0658-2.1933 2.582-3.3945-1.4962 0.365-3.0462-0.05258-4.2324 1.0449 0.005-1.9438-1.2891-4.8047-1.2891-4.8047zm-86.17 0.05273c0.87625 1.5162 1.0341 3.602 0.41406 5.2207-0.465-0.20875-0.61914-0.52172-0.61914-1.043l0.30859-3.3418-0.10352-0.15625c-0.51625 1.0975-0.51516 2.4528-0.56641 3.7578-0.82625-1.41-0.10484-3.1325 0.56641-4.4375zm71.895 0.51562c0.205-0.01469 0.42336 0.06078 0.63086 0.22266 0.47125 0.365 0.44297 0.82102 0.19922 1.1348-0.37 0.4775-0.86812 0.34492-1.1719 0.10742-0.30125-0.23375-0.55398-0.70344-0.20898-1.1484 0.15375-0.19688 0.34578-0.30172 0.55078-0.31641zm20.131 0.4082c0.1455-0.0078 0.29312-0.0041 0.4414 0.01563-0.67125 1.0962-1.8066 2.0874-3.1504 1.9824 0.67125-0.3125 1.6525-0.83375 2.375-1.4062-0.67125 0.05-1.3917 0.4675-2.0117 0.78125 0.40579-0.63984 1.3272-1.3185 2.3457-1.373zm-5.8066 0.12109c0.25875 1.2525 1.0341 2.61 0.57031 3.9688-0.15375 0.155-0.36281 0.15406-0.57031 0.25781 0.15375-1.0438 0.25898-1.9802-0.10352-2.9727-0.10375 0.9925 0.15641 2.3466-0.30859 3.2891-0.05 0.10375-0.20657 0.05078-0.25782 0.05078-0.72499-1.5138-0.0513-3.2888 0.66993-4.5938zm-73.141 0.085c-0.45719 0.03984-0.84539 0.26438-1.041 0.42188-0.8475 0.6875-0.97508 1.6266-0.29883 2.4629l1.5977 1.9785 4.3223-3.5-0.73242-0.90625-1.5586 1.2637-0.83594-1.0352c-0.469-0.583-0.996-0.726-1.453-0.686zm60.781 0.98047c0.17484-0.01391 0.34648 0.0432 0.47461 0.14258 0.32 0.2475 0.38328 0.62156 0.08203 1.0078-0.21375 0.27375-0.59773 0.33953-0.92773 0.08203-0.31125-0.2425-0.38625-0.61297-0.125-0.94922 0.1425-0.18375 0.32125-0.2693 0.49609-0.2832zm-60.49 0.13086c0.17454 0.02219 0.36938 0.1243 0.57422 0.37695l0.67773 0.83789-1.2676 1.0293-0.58203-0.71875c-0.45375-0.56-0.46812-0.93484-0.04687-1.2773 0.12031-0.09687 0.35362-0.28502 0.64453-0.24805zm24.078 0.23242-0.21484 1.3359 0.91992-0.67969 0.98438 0.11328-0.3457 3.7793-0.63867 0.64453 2.8398 0.32422-0.54883-0.77539 0.36914-3.7617 1.1621 0.11133 0.9043 0.89063 0.0918-1.3066-5.5234-0.67578zm11.449 0.02734-5.293 0.64648 0.56641 0.4668 0.37109 3.877-0.4043 0.67773 5.4277-0.69531-0.20508-1.7754-0.80078 1.4199-2.1465 0.27539-0.19336-1.7305 0.91602-0.10156 0.51953 0.57422-0.19336-1.8125-0.33789 0.75-0.9668 0.12109-0.17969-1.7891 2.1445-0.25781 0.95312 0.96875-0.17773-1.6152zm-62.912 0.512c0.22336-0.01951 0.56273 0.07977 0.75586 0.11914 1.6525 0.83375 3.4002 0.63859 4.8965 1.8398 0.775 1.42 1.3623 2.2822 1.4023 2.6484-1.6012 0.05375-3.7176-0.15617-5.1113-1.0449 0.155-0.155 0.41211 0.05227 0.56836-0.20898-0.775-0.41625-1.6019-0.41742-1.8594-1.3574h1.3438c-0.62125-0.52125-1.9121-0.36422-1.9121-1.3555 0.15625-0.0525 0.3618 0.05078 0.4668-0.10547-0.0525-0.36625-0.51711-0.20625-0.72461-0.46875 0.039375-0.03906 0.099375-0.0599 0.17383-0.06641zm110.14 0.17c0.9275 1.6175 1.9607 3.2382 2.0644 5.0645-0.6175-0.21-0.56898-1.1491-1.084-1.6191-0.15625 0.31375 0.0501 0.78516 0.20507 1.0977 0.31 0.46875 0.36407 1.1487 0.41407 1.6699-0.36-0.105-0.61969-0.62695-0.92969-0.93945-0.205 0.26125 0.15476 0.5732 0.10351 0.93945-0.36125 0.20875-0.56625-0.31469-0.875-0.36719-0.0537 0.785 0.87368 1.6184 0.35743 2.3496-0.6175-1.565-1.96-3.235-1.9062-5.0625l1.6504-3.1328zm-26.305 0.29492-1.5527 1.5137-0.8457-0.87109-0.77539 0.75781 0.84766 0.87109-0.4375 0.42774 0.58594 0.60352 0.43945-0.42773 2.3984 2.4648 0.88281-0.85938-0.88672-3.8086-0.65625-0.67188zm-74.723 0.02c1.6-0.05125 2.8909 0.83562 3.9746 1.8281v0.10352c-0.8775-0.47125-1.652-1.0437-2.582-1.3574l-0.10352 0.10547c0.8275 0.73125 2.0661 1.1494 2.8398 1.9844-1.4962-0.3125-3.3539-0.99406-4.1289-2.6641zm23.516 0.03711-0.6543 0.73047 2.2988 2.0566-0.96094 1.0742-2.0215-1.8086-0.65234 0.73633 2.0195 1.8066-0.7793 0.87305-2.1992-1.9688-0.65625 0.73438 3.0488 2.7266 3.7051-4.1484-3.1484-2.8125zm-16.648 0.01563c1.3938 1.67 1.1367 4.0206 0.98047 6.1094-0.515-1.255-0.05336-2.6648-0.56836-3.916-0.25875 0.3125 0.05297 0.78297-0.05078 1.1992v1.2012c-0.6725-1.4612-0.67258-2.9762-0.36133-4.5938zm88.014 0.73047c0.40016-0.02625 0.78633-0.02688 1.0957 0-0.41125 0.83625-0.82711 1.7736-1.7559 2.2461-0.825 0.365-1.497 0.41797-2.4258 0.57422 0.72125-0.94 1.9606-0.99289 2.6856-1.7754-0.93 0.20875-1.8593 0.67617-2.6856 1.2012 0.155-0.94 1.0844-1.7248 1.9082-2.0898 0.3625-0.07813 0.77758-0.13 1.1777-0.15625zm-20.137 0.35742 0.66211 2.6562-0.0098 0.01367c-0.12125-0.12375-0.70406-0.75719-1.6328-1.7109l0.98047-0.95898zm14.107 0.16406c1.2412 1.5138-0.20484 3.1855-0.46484 4.6992l-0.15625 0.20898c0.0525-0.47 0.5693-1.7229 0.31055-2.5566-0.31 0.99125-0.41 2.0869-0.875 3.0781-0.41625-1.9838 0.30804-3.8109 1.1855-5.4297zm-84.463 0.52344c1.135 0.46875 2.1165 1.2021 2.2715 2.5059-0.4125-0.4175-0.72148-0.73219-1.084-1.1484l-0.15625 0.15625 1.3418 1.7227c-1.1862-0.575-2.0618-1.9838-2.373-3.2363zm87.096 0.36523c-0.36125 1.0425-0.40993 2.6623-1.8574 2.7148 0.5175-0.52125 0.92782-1.0977 1.2891-1.7227l-0.10157-0.10352-1.2891 1.459c0.10125-0.67625 1.0815-1.8789 1.959-2.3477zm-82.5 0.625c0.05125 1.9838-0.31 3.8124 0 5.6387-1.3938-0.9375-3.204-0.99047-4.8027-1.1992 0.5675 1.8788 2.6336 2.5569 4.1836 3.2344 0.8775 0.26125 1.9601 0.10664 2.5801 0.83789-1.1862-0.10625-2.6846 0.2075-3.9746 0 0.98 2.4012 3.5856 2.4208 5.7969 2.707 1.2162 0.15625 1.7421 0.54906 2.2559 0.63281-0.06125-0.24875-0.000547-0.31171-0.1543-0.41796-1.24-2.4538 0.21445-5.9162-2.7793-7.4824-0.3225-0.095-0.54969-0.29117-0.83594-0.45117 0.1025 0.78125 0.31024 1.6177 0.05273 2.3477-0.31-2.14-0.36102-4.4889-2.3223-5.8477zm61.074 0.1543c-0.42562-0.01687-0.84906 0.13758-1.1953 0.39258-1.3038 0.96125-0.8857 2.1704-0.43945 2.7754 0.74875 1.0175 1.802 0.87891 2.3945 0.44141 0.42875-0.31625 0.53008-0.59617 0.61133-0.82617l0.55078 1.0762-1.8008 1.3262 0.54102 0.73828 2.4336-1.793-1.4863-2.6602-0.80859 0.53906c0.06 0.43625-0.23406 0.6632-0.35156 0.75195-0.4625 0.34-0.94117 0.07734-1.2324-0.31641-0.34875-0.475-0.36477-1.0114 0.05273-1.3164 0.385-0.28625 0.7568-0.18531 1.0605 0.14844l0.87305-0.64258c-0.35-0.43-0.7775-0.61789-1.2031-0.63477zm-42.301 0.74805-0.07812 0.125c0.16 0.21 0.05289 0.38156-0.38086 1.0703-0.55125 0.8775-0.43234 1.1553-0.15234 1.5703-0.565-0.1375-1.1073 0.14406-1.4336 0.66406-0.255 0.4075-0.60602 1.4755 0.64648 2.2617l2.3789 1.498 2.959-4.709-0.96484-0.60742-1.1562 1.8438-1.0176-0.64062c-0.7275-0.4575-0.61078-0.7318-0.20703-1.373 0.305-0.4875 0.41914-0.75508 0.49414-1.0176l-1.0879-0.68555zm-18.207 0.35156c1.6025 1.3038 0.67227 3.3424 1.291 5.1699l-0.251-0.103c-0.35875-1.0438-0.35945-2.2455-0.87695-3.1855l-0.10352 0.15625 0.4668 2.6641c-0.155 0.10375-0.77461-0.10547-0.72461-0.57422-0.205-1.305-0.15422-2.8725 0.20703-4.125zm-16.416 0.05078 5.1113 1.0977c0.39 0.16375 0.49219 0.34524 0.74219 0.64648 0.25375 0.44375 1.0967 1.6784 1.3555 2.1934-0.8275 0.31375-1.7883 0.18656-2.7695 0.13281-1.0325-0.26-2.269-0.15375-3.1465-0.78125 0.1025-0.20875 0.4632-0.10375 0.56445-0.3125-0.515-0.26125-1.0323-0.47242-1.4961-0.88867 0.46375-0.1575 1.1876 0.05297 1.5488-0.20703-0.509-0.368-1.54-0.21-1.85-0.835l0.5156-0.262-0.7226-0.574 0.1543-0.209zm9.3945 0.002c1.3938 0.2075 2.9435-0.05133 3.8223 1.3574-0.775-0.05125-1.7037-0.36617-2.5312-0.73242 0 0.5225 0.72352 0.5757 1.1348 0.7832l2.1699 0.4707 0.25781 0.31445c-1.7037 0.105-3.923-0.10461-4.9043-2.0371l0.05078-0.15625zm96.02 0.20703h0.25976c0.82875 1.4612 1.7021 2.9755 1.7559 4.6992-0.62-0.31625-0.61929-1.1506-1.1855-1.5156-0.0538 0.47125 0.25781 1.0444 0.25781 1.5156-0.41625-0.21125-0.51961-0.89062-0.88086-0.89062 0.2075 1.045 0.82562 1.9858 0.67187 3.082-0.41375-0.47-0.51593-1.1472-0.92968-1.6172-0.25875 0.94 0.88093 2.1389-0.25782 2.8164l-0.25976-0.3125c-0.36125-1.7738-1.2377-3.6012-0.92774-5.4824l1.4961-2.2949zm-12.381 0.67969c0.46375 1.3562 0.5157 3.0292-0.31055 4.2305-0.20875-0.785 0.10274-1.8263-0.10351-2.6113-0.30875 0.94-0.25735 1.8271-0.3086 2.8184l-0.31054 0.20898c-0.515-1.5125-0.3618-3.6015 1.0332-4.6465zm5.0957 0.22656c0.59356-0.0024 1.2804 0.07359 1.8223 0.03516-0.82625 1.67-2.737 1.9852-4.4395 1.8789 0.7225-0.62625 1.9088-0.72992 2.7363-1.2012-0.98-0.105-1.8576 0.52195-2.7363 0.7832-0.0512-1.0438 1.1357-1.3572 2.0645-1.4609 0.16812-0.02563 0.35488-0.03436 0.55273-0.03516zm-27.488 1.5117-2.168 0.91406c-1.0475 0.44625-1.2526 0.74094-1.4238 1.1484-0.15875 0.37875-0.16734 0.83984 0.0039 1.2461 0.21375 0.505 0.59016 0.93375 1.3164 0.90625-0.16875 0.1975-0.49359 0.57945-0.18359 1.3145 0.22125 0.52875 0.87336 1.1772 2.1309 0.64844l2.4902-1.0527-2.166-5.125zm-52.004 0.50781c2.6338 1.1988 1.549 4.0199 2.2715 6.1074-0.8775-1.0962-0.77602-2.6642-1.291-3.918l-0.10156 0.10742 0.51367 2.6621c-0.93-1.3587-1.7538-3.029-1.3926-4.959zm15.486 0.0332c0.19078-0.02312 0.40906 0.05297 0.66406 0.21484l1.1543 0.72461-0.79102 1.2598-1.2266-0.77344c-0.57625-0.36125-0.45703-0.80062-0.30078-1.0469 0.14562-0.23438 0.30922-0.35578 0.5-0.37891zm-22.457 0.53906c1.6012-0.05125 2.9944 0.47266 4.2344 1.2539l0.25781 0.36328c-0.82625 0-1.7553-0.62453-2.6328-0.67578 0.93 0.785 2.2727 0.83492 3.2539 1.5137-1.86-0.0525-3.7695-0.83758-5.1133-2.4551zm78.836 0.05273c0.36125 2.1938-0.67094 4.0216-2.1172 5.5879 0.1575-0.99375 0.77742-2.1386 0.98242-3.1836-0.56875 0.9375-1.083 2.2409-1.498 3.1309 0-2.195 0.98156-4.0202 2.6328-5.5352zm-48.178 0.08008-0.30273 0.9375 2.9336 0.94726-0.44336 1.3711-2.5781-0.83594-0.30078 0.9375 2.5762 0.83593-0.35742 1.1113-2.8086-0.90625-0.30078 0.93555 3.8887 1.2559 1.7109-5.2949-4.0176-1.2949zm60.768 0.07617c0.5175 1.5138 1.1375 3.1833 1.3438 4.8008-0.51625 0.26375-0.46367-0.94047-0.98242-0.57422 0.1025 0.5225 0.0549 1.0962-0.20508 1.5137-0.36-0.0525-0.30937-0.78172-0.67187-0.73047-0.0512 0.67875 0.31133 1.3056 0.20508 1.9844l-0.61719-1.1992-0.1543 0.10156c-0.0538 0.94125 0.3618 1.7748 0.1543 2.7148-1.0325-1.4625-1.2913-3.4455-1.5488-5.168l2.4766-3.4434zm-33.104 0.02734 0.57812 1.3711-1.3613 0.57812c-0.38625 0.16125-0.84125 0.15438-1.0312-0.29688-0.2225-0.52-0.01734-0.87516 0.50391-1.0977l1.3105-0.55469zm-67.408 0.70312c1.9625 0.10375 3.8427-0.22586 5.5977 0.71289l1.8047 2.2617 0.0332 0.36524c-1.4962 0-3.2523 0.2625-4.6973 0l-0.36133-0.3125c0.30875 0 0.56594-0.054 0.77344-0.20899-0.67-0.26125-1.5492-0.36617-2.168-0.88867l0.51758-0.20703c-0.155-0.41625-0.62016-0.2625-0.87891-0.46875l0.37-0.371c-0.2575-0.31125-1.2395-0.15523-1.0332-0.83398l0.05078-0.05078zm94.365 0.19922c0.23402 0.0059 0.46226 0.02445 0.68164 0.06445-0.98125 1.5125-2.7877 2.1899-4.6465 2.1387 0.725-0.62625 1.6008-0.94016 2.4258-1.2539-0.5675-0.26125-1.0829 0.20945-1.6504 0.31445l-0.77539 0.46875c0.0925-0.37875 0.35047-0.76664 0.48047-1.0566 0.4525-0.19625 0.96641-0.29906 1.3789-0.50781 0.65812-0.07688 1.4034-0.18566 2.1055-0.16797zm-75.572 0.27344c-0.31 1.0962-0.05047 2.2961 0.20703 3.3398 0.20625 0.8875 1.0327 1.5684 0.87891 2.5059-1.4388-0.2125-3.7186-1.252-5.2148-0.0508 1.6462 1.195 2.9682 2.4875 5.0645 1.9375 0.60375-0.215 1.3359-0.11179 1.3359-0.99804 0.4125-2.5062-0.15524-5.1694-2.2715-6.7344zm42.238 0.04687-1.1328 0.26758 0.47852 2.0312-1.0156 3.8125 1.2832-0.30273 0.51758-2.6055 1.6777 2.0879 1.332-0.3125-2.6621-2.9336-0.47852-2.0449zm-46.988 0.0039c0.8775 0.46875 2.169 0.88711 2.4277 2.0371-0.67125-0.315-1.0863-1.2527-1.8613-1.4102l-0.56641-0.62695zm76.307 0.3125c-0.25625 1.095-0.97992 2.3493-2.0137 3.1855l-1.2891 0.36523c0.46375-0.57375 1.2902-0.9914 1.5977-1.7227l-0.10157-0.15625-1.4453 1.4102c0.3075-1.4637 1.9094-2.402 3.252-3.082zm-45.033 0.03516-0.80078 5.5039 1.1504 0.16993 0.30274-2.0879 2.1445 0.3125-0.30469 2.0859 1.1523 0.16797 0.79883-5.5039-1.1484-0.16992-0.35938 2.4687-2.1445-0.31054 0.35938-2.4707-1.1504-0.16602zm-26.316 0.22461c1.6525 1.4112 1.9091 3.6556 1.8066 5.7969-0.25875-0.99125-0.15539-2.558-0.77539-3.498 0.10375 0.88625 0.25734 1.8278 0.30859 2.8203-0.77375-1.565-1.3398-3.2904-1.3398-5.1191zm49.352 0.4375 0.47266 1.1211-1.2266 0.51758c-0.485 0.2075-0.83812 0.20516-1.0156-0.21484-0.17125-0.41 0.09313-0.71453 0.51562-0.89453l1.2539-0.5293zm-14.621 0.01172-1.1621 0.02148 0.07227 4.5801-1.6816 0.0254 0.01563 0.98437 4.5234-0.0703-0.01563-0.98437-1.6797 0.0254-0.07227-4.582zm30.836 1.1191c0.3625 1.5125-0.25773 2.976-0.92773 4.2285-0.105-0.83625 0.15281-1.9313 0.25781-2.7676-0.62 0.73125-0.51562 1.9326-0.67188 2.9238-0.3075-0.73-0.56875-2.3488 0.15625-3.2363 0.41125-0.36624 0.6693-0.93843 1.1855-1.1484zm-70.68 0.36523c1.1362-0.0525 2.2727 0.47094 3.2539 0.99219-0.93-0.0537-1.7566-0.41844-2.6328-0.36719 0.30875 0.57375 1.1344 0.41945 1.7031 0.62695 0.62125 0.10625 1.2894 0.15915 1.7031 0.68164-2.1162-0.0525-4.3348-0.47109-5.8848-1.7773 0.3625-0.20875 1.1874 0 1.8574-0.15625zm83.322 0.57227 0.25781 0.20703c0.2575 1.5662 1.2362 2.9772 0.875 4.6484-0.46125 0.05-0.35844-0.41891-0.61719-0.62891-0.2575 0.5775 0.15571 1.2004-0.15429 1.7754l-0.67188-1.4082-0.10156 0.15625c0.05 0.78375 0.05 1.6687 0 2.4512-0.62-0.67749-0.25961-1.8249-0.72461-2.6074l-0.10352 0.10547-0.0508 2.4004c-0.0513 0-0.10429-0.0527-0.15429-0.0527-0.20625 0.10625 0 0.2075 0 0.3125l-0.20704 0.20899c-0.0537-1.6712-0.77359-3.7067-0.30859-5.3242l1.9609-2.2441zm-90.863 0.375c0.74175 0.007 1.4579 0.0941 2.0879 0.35937 0.6075 0.2525 0.70406 0.4775 1.1016 1.1562l0.96484 1.0332 0.0332 0.20704c-1.9625-0.155-3.9752 0.83523-5.834 0.0527 0-0.155 1.3429-0.15422 0.61914-0.57422-0.36 0.105-0.56969-0.20898-0.92969-0.20898 0.4125-0.31375 0.9293-0.00024 1.3418-0.36524-0.67-0.41625-2.2709 0.15578-2.6309-0.73046 0.20625 0 0.35938 0.001 0.51562-0.15625-0.1025-0.41501-0.67219-0.31445-0.92969-0.62695 1.1141 0.0477 2.4239-0.15856 3.6602-0.14648zm85.242 0.0957c-1.6 1.41-3.613 2.4034-5.7305 1.7246 1.0325-0.15625 2.0141-0.47047 2.9941-0.73047v-0.10547c-0.82375 0.05-1.7028 0.36492-2.6328 0.41992 1.4462-1.1512 3.4579-1.0998 5.3691-1.3086zm-6.7617 1.0977c0.10375 0.365-0.10336 1.0449 0.46289 1.0449l-1.1348 0.67773 0.67188-1.7226zm-62.109 0.0508c-0.05125 1.0962-0.11539 1.7578 0.56836 3.1328-0.56875-0.31125-1.1906-0.93828-1.8594-0.67578-0.105 0.35625 0.62828 1.2588 1.3945 1.7188-0.93 0.2625-1.707 1.0479-2.7383 0.83789 0.0025 0.0713 0.13203 0.26297 0.36328 0.41797 1.5225 0.65125 3.1995 0.26078 4.2832-0.88672 0.10375-0.21-0.205-0.57789 0-0.83789 0.20625 0.41875 0.37914 0.78641 0.77539 1.2539-1.135 0.20875-2.0816 1.2188-3.3203 1.2187 0 0 0.99812 0.46665 1.4844 0.4629 1.225 0.002 2.1427-0.56946 3.1777-1.002-1.1875-1.1475 0.000703-2.977-1.3418-4.0195-0.41125-0.20875-0.70703-0.57391-1.2383-0.62891 0.155 0.5225 0.25828 1.1492 0.20703 1.6192-0.31-0.99-0.41836-2.0151-1.7559-2.6113zm58.855 0.26172-1.3086 0.6875c-0.55625 0.48375-0.72922 2.121-1.0117 2.4473l0.3418-1.9434 0.01953-0.35547c-0.8025 0.4175-1.5415 1.0978-1.8965 1.7891-0.4 0.78-0.35469 1.6002-0.27344 2.5976-0.01875 0.18125-0.98008 0.83399-1.5488 0.83399 0.5575-0.56625 0.89438-1.4056 1.0469-2.1406 0.12875-0.61875 0.12914-1.2582 0.24414-1.7207-0.5675 0.10125-1.2209 0.73437-1.6309 1.2031-0.72375 0.9425-0.71297 1.9727-0.38672 3.2852 0.31125 1.0425 1.2891 1.0757 2.2754 1.252 0.7225 0 1.9837-0.23851 2.1699-0.57226-0.12125-0.15125-0.52008-0.15719-0.67383-0.36719 0.8775-0.0512 2.0641-0.0517 2.6328-0.73047 1.3038 0.0737 1.9095-0.26195 2.4258-0.93944-1.0338-0.42001-2.1142-0.83517-3.1992-0.94142 1.1125-0.33875 1.9097-0.93765 1.9609-2.0352l-1.8066 0.4707c0.205-0.94125 0.61914-1.8278 0.61914-2.8203zm-58.445 0.4707c0.93125 0.68 0.72539 1.8778 1.0879 2.8203-0.56875-0.68125-1.1891-1.6716-1.0879-2.8203zm-6.5508 0.1543c1.1813 0.0415 2.332 0.47203 3.4551 0.78515-0.93 0.41625-1.9621 0.0525-2.7871-0.15625l-0.1543 0.10547c0.825 0.625 2.1159 0.62477 3.1484 0.41602l0.20703 0.20898c-0.62 0.6775-2.0068 0.57625-2.8418 0.3125-0.825-0.3125-1.495-1.147-2.2188-1.5644 0.40031-0.0916 0.79764-0.12127 1.1914-0.10742zm64.48 0.0547c-0.155 0.93875-0.41125 2.0881-1.1875 2.9219-0.205-0.83375 0.42734-2.3636 0.68359-2.5586l0.50391-0.36328zm5.5059 0.25977c0.70312-0.0258 1.4383 0.15805 2.082 0.41992-0.9275 1.3025-2.7867 1.1484-4.3867 1.1484 0.72375-0.83625 2.1162-0.36641 3.0449-0.94141-0.62-0.20625-1.394-0.002-2.1152 0.0508l-0.51562 0.15821c0.51625-0.575 1.1875-0.81016 1.8906-0.83594zm7.5996 0.46875 0.25782 0.0508c0.15375 1.6712 0.46531 3.1838 0.41406 4.9062-0.155-0.4675-0.36063-0.93773-0.51563-1.459-0.25625 0.835-0.10476 1.8776-0.41601 2.6602-0.3075-0.105-0.35992-0.8325-0.66992-1.0938-0.15625 0.47 0.10539 1.2517-0.25586 1.668-0.25875-0.41625-0.15633-1.043-0.51758-1.3555l-0.15625 0.15625c-0.0512 0.88625 0.46515 1.8262-0.15235 2.4512l-0.25781-0.31054c-0.0538-1.7738-0.51969-3.5509-0.0547-5.2734l2.3242-2.4004zm-69.277 0.002c0.56875 0.46875 1.0098 0.78656 1.0098 1.5703 0 0.38876 0.02148 0.83079 0.02148 1.1445-0.8775-0.5225-1.1862-1.6174-1.0312-2.7148zm1.7559 0c-0.1025 0.94-0.31024 1.6711-0.05273 2.5586 0.205 0.7825 0.87734 1.4087 1.4961 1.8262-1.2888-0.1025-2.7695 0.22039-4.1582 1.1816l-0.02148 0.0195c1.8912 0.7975 3.182 0.63305 4.8008-0.93945v0.31445c0.31 0.78125 1.0852 1.1992 1.9102 1.1992v-0.52149c-0.0875-1.2262-1.3774-2.0024-1.8574-1.2012-0.93-0.83625-0.20695-2.3471-0.87695-3.2871-0.41375-0.52375-0.67148-0.88914-1.2402-1.1504zm52.453 0.31446c0.105 0.99125-0.51578 1.9819-1.2383 2.7656-0.0525-0.57625 0.01086-1.588 0.47461-2.0606l0.76367-0.70507zm-69.541 0.25585 1.8516 0.0313 2.2246 2.1094c-1.7025 0.31375-3.1988 0.62625-4.9551 0.9375-0.2075-0.20625-0.51594-0.15281-0.77344-0.25781 0.36-0.1575 0.82648-0.15797 1.084-0.41797-0.6725-0.15625-1.6015-0.26047-2.2715-0.41797l0.30859-0.46875c-0.25875-0.21-0.66875-0.054-0.875-0.36523l0.20508-0.3125-0.51562-0.31641c1.1362-0.4675 2.3755-0.46774 3.7168-0.52149zm17.396 0.10938c1.0325 0.67875 0.72445 2.0878 1.0332 3.1328-0.46375-0.1575-0.78445-0.82492-0.93945-1.2949-0.20625-0.62625-0.1975-1.2116-0.09375-1.8379zm-4.9043 0.4707 1.7305 1.1504c-0.3625 0.055-1.3692-0.63039-1.7305-1.1504zm54.52 0.31055c0.26 1.1488-0.46398 2.1413-1.084 3.0801-0.41125-1.2012 0.30898-2.2451 1.084-3.0801zm5.6289 0c-0.36 0.73-1.2398 0.99539-1.9648 1.3066 0.21-0.73 1.1911-1.1491 1.9648-1.3066zm-51.955 0.87891c-0.21035 0.0211-0.37789 0.14554-0.44727 0.42773-0.11375 0.45125-0.17711 1.167 0.30664 1.6445 0.51625-0.3 1.207-1.808 0.36328-2.0605-0.0775-0.0138-0.15254-0.0188-0.22266-0.0117zm48.855 0.11523c-0.05 0.4175-0.35922 0.99242-0.82422 1.3574 0-0.41875 0.35922-0.93992 0.82422-1.3574zm-55.848 0.36719c0.22826-0.008 0.46367 0.0348 0.70898 0.15234-0.67 0.68-1.4703 0.8782-2.6328 0.62696 0.62062-0.27563 1.239-0.75504 1.9238-0.7793zm7.0605 0.0508c0.3525-0.01 0.0078 0.37351 0.0078 0.63476l-0.06055 0.30469c-0.25875-0.21-0.23977-0.94945 0.05273-0.93945zm2.0449 0.14258c-0.38094 0-0.80726 0.22094-0.96289 0.58594-0.2575 0.46874-0.15328 1.1491 0.10547 1.6191 0.7225-0.10375 1.4888-0.93844 1.5488-1.4609 0.02563-0.5225-0.31047-0.74414-0.69141-0.74414zm58.557 0.11328c0.15625 1.775 0.465 3.6007 0.15625 5.377-0.4625-0.26125-0.35899-1.1476-0.77149-1.2539v1.2012c-0.31125 0.15875-0.46781-0.20727-0.57031-0.41602-0.10375 0-0.25508 0.10477-0.20508 0.25977 0 0.575 0.05 1.2012-0.15625 1.6699-0.51625-0.3125-0.41265-1.0959-0.5664-1.6172h-0.15821c-0.30875 0.73 0.20953 2.1931-0.66797 2.6094l-0.25977-0.57227c0.2075-1.6725-0.15664-3.6572 0.56836-5.1172l2.6309-2.1406zm-17.162 0.13672c-0.0726-0.009-0.14938-0.002-0.22656 0.0234-0.56875 0.10499-0.65633 0.30539-0.61133 0.99414 0.085 0.30125 0.42969 0.90429 0.42969 0.90429s0.81703-0.64695 0.80078-1.5332c0-0.19594-0.17479-0.36149-0.39258-0.38867zm-41.418 0.11718c0.16688 0.0482 0.31828 0.24977 0.24609 0.38477-0.10375 0.3125-0.56305 0.79195-0.87305 1.002l-0.002-0.22851c0.03375-0.34375 0.0011-0.93774 0.46484-1.1465 0.05156-0.0262 0.10844-0.0278 0.16406-0.0117zm-18.875 0.0254c0.82844-0.006 1.6318 0.26328 2.4043 1.1328 0.5175 0.58125 1.1641 1.0996 1.1641 1.0996-1.4462 0.78-3.0827 0.98656-4.7852 1.1953l0.77539-0.41797c-0.67125-0.4175-1.8076-0.0518-2.5801-0.31055l0.66797-0.47265c-0.41125-0.20875-1.1859-0.00047-1.4434-0.41797 0.20625-0.10375 0.46312-0.0532 0.51562-0.31445-0.41375-0.20625-0.98055 0.0537-1.3418-0.36133l0.30859-0.31641c1.4844-0.032 2.9337-0.80671 4.3145-0.8164zm66.932 0.12109c0.78024-0.0539 1.6114 0.1068 2.7383 0.49023-0.0525 0.31375-0.73148 0.39172-1.2402 0.41797-0.7775 0.0387-1.547-0.4182-2.2695-0.7832 0.25812-0.0653 0.51141-0.10703 0.77148-0.125zm-54.557 0.10937c0.13065 0.006 0.26476 0.0275 0.40039 0.0664-0.6725 0.4725-1.7045 0.94164-2.7383 0.83789 0.63328-0.27344 1.4234-0.94847 2.3379-0.9043zm47.9 0.0156c0.1 0.3125-0.10797 0.79859-0.26172 1.0586 0-0.26-0.38578-1.1623 0.26172-1.0586zm-2.0156 0.11914c-0.12664 0.0279-0.25234 0.0909-0.36328 0.19531-0.33625 0.31375-0.10266 1.0138 0.30859 1.2188l0.81836 0.5586c-0.10375-0.52375 0.08727-0.94438 0.0098-1.5156-0.0066-0.315-0.39352-0.5407-0.77344-0.45703zm-37.305 0.17969c-0.09463-0.004-0.19227 0.003-0.2832 0.0156-0.67 0.20875-1.2898 0.73-1.4961 1.4062 0 0.365 0.41289 0.15969 0.61914 0.21094 0.62-0.26125 1.7051-0.21117 1.7051-1.2012 0-0.31313-0.26104-0.41928-0.54492-0.43164zm37.459 0.17187c0.3075-0.0563 0.27391 0.75953 0.22266 1.0195-0.205-0.21-0.77516-0.77453-0.22266-1.0195zm-37.732 0.19141c0.12842-0.0163 0.25172 0.003 0.35547 0.0684-0.05375 0.67875-0.82922 0.5764-1.293 0.78515 0.11719-0.43125 0.55225-0.80459 0.9375-0.85351zm44.305 0.0527c0.73077 0.0414 1.4688 0.39571 2.0508 0.5918-0.98125 0.25875-2.3942-0.0178-3.3242-0.22656 0.39938-0.30282 0.83497-0.39006 1.2734-0.36524zm-43.127 0.22461c0.3775 1.3262 1.8453 1.7028 1.7578 2.6641-1.6012-1.045-3.3137-1.4676-5.5762-0.9414 1.1862 1.62 3.0361 2.5301 5.0586 2.6113-1.85 0.56375-3.4062 1.7734-3.4062 1.7734 2.2712 1.3575 5.1273 0.77305 7.0723-1.0957 0.59375-0.19875 1.1869 0.2607 1.7031 0.62695-1.1862 0.88625-2.6331 1.2016-3.9219 1.9316v0.21093c1.8588 0.88625 4.3348 0.46953 6.0898-0.26172-0.30875 0.41625-0.82524 0.88719-1.084 1.3047 1.4462 0.20875 3.0116 0.036 4.3379-0.36523-0.51625 0.41875-1.1101 0.53125-1.7051 0.9375 1.3938 0.47125 3.0454 0.21398 4.1816-0.57227 0.51625-0.3125 1.0586-1.084 1.0586-1.084l0.77539 0.21484 0.73047-0.16992c0.43125 0.60375 1.5611 1.1066 2.4961 1.3516 0.77375-0.105 2.2191 0.26125 2.9941-0.3125 0.9275 0.20875 2.2714 0.36352 3.0977-0.0527l-0.66992-0.67969c0.98125 0.36625 2.3723 0.62719 3.5098 0.21094 0.4125-0.1575 0.98297-0.31571 1.1367-0.78321-0.98-0.88875-2.1699-1.2031-3.2012-1.8281 0.205-0.2075 0.51492-0.26172 0.82617-0.26172 2.1663 0.83625 4.6468 2.3516 7.123 1.1504-0.87625-0.73375-1.9111-1.3076-2.8398-1.8301 1.91 0 4.1301-0.72914 5.1113-2.5566-0.7225 0-1.3407-0.26172-2.0645-0.26172-1.8588-0.21-2.6836 1.2011-3.8711 2.4024l-0.46289 0.0527c0.9275-1.3588 2.0639-2.7162 2.7852-4.125-0.5675-0.20875-1.033 0.105-1.498 0.15625-1.91 0.2075-3.0976 2.1412-3.7676 3.6562-0.25875-0.0525-0.36086 0.31227-0.56836 0.10352 0.72125-0.94125 1.3963-1.8803 1.7051-2.9766-1.6012 0.36625-3.0974 0.57211-4.3887 1.7246-0.05125-0.2625 0.30859-0.57586 0.30859-0.94336-2.0138 0.1575-3.9238 1.1503-5.1113 2.6641 0.41375-0.73 1.6523-2.1914 1.6523-2.1914-1.445-0.10375-2.9946 0.36414-4.1309 1.4629-0.6025-0.095-0.98812-0.18-1.5469 0.15625-0.56875-1.045-1.7041-1.5152-2.7891-1.7227-0.65375-0.165-1.127 0.26368-1.127 0.26368-0.8175-0.64375-2.5636-0.90008-3.9336-0.73633 0 0.47125 0.56914 0.67937 0.77539 1.0469l-0.05078 0.0508c-1.395-0.93999-2.8915-1.9319-4.6465-1.9844l2.2188 2.9258v0.20703c-0.36-0.0513-0.67094-0.20773-0.92969-0.52148-1.1875-1.9325-2.7886-3.7585-5.2148-3.6035zm-5.8379 0.14649c0.26883-0.0275 0.55953 0.57101 0.67578 0.8457-0.31 0.15625-1.0422-0.39922-0.92969-0.57422 0.0775-0.18312 0.1643-0.26232 0.25391-0.27148zm40.949 0.0371c-0.10654-0.0115-0.22359-0.002-0.35547 0.0254-0.415 0.15375-0.64609 0.55742-0.37109 1.0449 0.32875 0.5475 1.9199 0.45898 1.9199 0.45898 0.0088-0.095-0.38672-0.86132-0.38672-0.86133-0.25969-0.42-0.48701-0.63363-0.80664-0.66796zm-43.588 0.13086c0.2358-0.008 0.46797-0.006 0.68359 0-0.725 0.62625-2.0155 0.83296-2.6855 0.57421 0.54094-0.43125 1.2946-0.55043 2.002-0.57421zm8.9941 0.0527c1.8062 0.0512 3.1486 1.6161 3.8711 3.0273-0.93-0.46875-1.5995-1.5669-2.4258-2.1406l-0.10156 0.10547 1.9102 2.1894c-0.155 0.10625-0.41484 0.0547-0.62109 0.0547-0.62125-0.47-1.0316-1.1998-1.2891-1.9336l-1.3438-1.3027zm38.258 0.10352c-0.72375 0.155-0.87898 0.99046-1.2402 1.5117 0.4125-0.0512 0.87883-0.15625 1.3926-0.15625 0.31125-0.20875 0.87938-0.36351 0.82812-0.88476 0-0.57375-0.61922-0.41945-0.98047-0.4707zm-6.3496 0.15429c-0.88 1.3062-1.9121 2.823-3.0996 3.918-0.2575 0.0537-0.46445 0.10352-0.7207 0.10352 0.8775-1.2 1.5469-2.4533 2.7344-3.5508h-0.30859c-1.0325 1.045-1.7063 2.2983-2.7363 3.2383 0.205-0.8875 0.77414-2.2476 1.8066-2.9238 0.67125-0.47 1.548-0.47016 2.3242-0.78516zm2.6309 0c0.30125 0.0112 0.68945 0.65821 0.68945 0.65821s-0.25922 0.0432-0.63672-0.0293c-0.44-0.0575-0.44024-0.61766-0.05273-0.62891zm6.2246 0.0664c0.75938-0.0274 1.5333 0.39234 2.1914 0.66797-0.92875 0.41375-2.1677 0.15304-2.9414-0.47071 0.245-0.13062 0.49688-0.18812 0.75-0.19726zm-2.3418 0.14844c0.11523-0.016 0.23562-0.004 0.35156 0.0488 0.1025 0.2575-0.20703 0.41774-0.36328 0.52149-0.25625 0.0513-0.4632 0.10351-0.7207 0.10351 0.07781-0.31312 0.38672-0.62578 0.73242-0.67382zm-34.084 0.67382c1.5488 0.41875 3.1457 1.2516 4.127 2.6641v0.20898h-0.61719c-0.62125-0.5775-1.2916-1.4096-1.9629-1.8809l-0.1543 0.10547 1.7539 1.8281c-0.36125 0.1025-0.56695 0.10203-0.87695-0.10547-0.82625-0.8875-1.7008-1.8278-2.2695-2.8203zm47.066 0.14649c-0.000782 0.007-0.01469 0.0218-0.03906 0.0449 0.05 1.815 0.09703 3.6286-0.26172 5.3398-0.20625 0.155-0.20492 0.365-0.51367 0.3125l-0.10742-2.2441-0.20508-0.10351c-0.41125 0.5725-0.20516 1.4064-0.41016 2.0352-0.25875-0.10625-0.25812-0.41695-0.51562-0.4707l-0.25976 0.57422c-0.15375-0.20875-0.1043-0.62672-0.31055-0.88672-0.4125 0.9925 0.10414 2.6633-1.2871 3.082 0.20125-1.8438 0.35438-3.6404 0.79688-5.4316-0.09 0.0425-0.09461 0.019 0.02539-0.10351-0.0088 0.035-0.01539 0.0685-0.02539 0.10351 0.42875-0.20125 2.7505-1.8945 3.0742-2.207v-0.0391c0.0275-0.0125 0.03984-0.0129 0.03906-0.006zm-23.732 0.0625-0.05078 0.31445c-0.56875 0.88875-1.1374 1.8809-2.0137 2.5059l-0.72266-0.10351c0.5175-0.67875 1.1873-1.1509 1.6523-1.8809l-0.05273-0.0527c-1.2375 0.47125-1.703 2.5584-3.1992 1.8809 1.1875-1.4612 2.838-2.1928 4.3867-2.6641zm-34.5 0.0664c-0.32281 0.013-0.65789 0.0901-0.91602 0.14258-0.36125 0.0513-0.82586 0.52289-0.56836 0.99414 0.20625 0.46875 0.51727 0.55055 1.291 0.31055 0.41375-0.26 0.9832-0.67797 1.0332-1.1992-0.20688-0.20937-0.51703-0.26101-0.83984-0.24805zm-11.684 0.0215c0.2769-0.0203 0.57766-0.004 0.92578 0.0742 0.5375 0.54125 1.7252 1.0725 2.584 1.875-0.155 0.41625-0.58898 0.30906-1.0527 0.41406-1.0325 0.10375-1.8618 0.57398-2.8418 0.67773-0.05125-0.0512 0.0015-0.051 0.05273-0.10351-0.62-0.20875-1.4989 0.15531-2.0664-0.0547 0.20625-0.26 0.77414-0.0513 0.61914-0.46875-0.61875-0.0513-1.0824 0.36875-1.7012 0.15625l0.689-0.46c-0.25875-0.26125-0.72125 0-1.0312 0-0.56875-0.0538-0.77594-0.52273-1.0859-0.83398 0.67125-0.42 1.6535-0.47188 2.4785-0.73438 1.0059-0.0769 1.6185-0.47215 2.4492-0.5332zm16.152 0.11133c1.2974 0.0685 2.6825 0.63742 3.8047 1.2637-0.62 0.0512-1.6505-0.57492-2.5293-0.41992 0.7225 0.57625 1.9621 0.47047 2.7871 1.043-1.8575 0.21125-3.9234-0.41399-5.3184-1.7715 0.4-0.10469 0.82338-0.13806 1.2559-0.11523zm-4.7148 0.26562c0.17082-0.0213 0.33578-0.0207 0.46484 0.006 0 0.3125-0.96156 1.0438-1.2891 0.625-0.24656-0.31031 0.31176-0.56699 0.82422-0.63086zm15.23 0.006c1.705-0.0525 3.0463 0.83563 3.9238 2.2969-0.77375-0.365-1.6503-1.2541-2.4766-1.6191v0.26172l2.4766 1.9316c-1.5975-0.46875-3.0463-1.4611-3.9238-2.8711zm-12.752 0.10352c-0.61875 0.575-1.7033 1.0448-1.2383 2.0898 0.31 0.20875 0.7757 0.1018 1.0332-0.1582 0.2575-0.5225 0.56758-1.3566 0.20508-1.9316zm28.293 0.0547c-0.6725 1.41-2.2207 2.2441-3.4082 3.1328l-0.05078-0.0547c0.67125-1.0425 1.7028-1.5669 2.4766-2.4531-0.2575-0.105-0.46492 0.21001-0.66992 0.3125-0.775 0.73251-1.7035 1.3066-2.3223 2.1953l-0.41406-0.0547c1.0325-1.46 2.4774-2.9744 4.3887-3.0781zm9.498 0c0.67125 0 1.3966-0.00023 1.9629 0.25977-0.8775 1.3062-2.3226 1.6177-3.7676 1.7227 0.465-0.4175 1.1856-0.36422 1.5469-0.88672-0.56625-0.0525-1.1859 0.5232-1.7559 0.4707 0.465-0.68 1.1899-1.3589 2.0137-1.5664zm5.043 0.17969c-0.20625 0 0.51562 1.0762 0.51562 1.0762s0.25969 0.56032 0.99219 0.25782c0.24375-0.0988 0.44805-0.50461 0.3418-0.81836-0.20375-0.625-1.1609-0.47313-1.8496-0.51563zm-26.311 0.23438c1.0838 0.21125 2.3226 0.31461 2.7363 1.5684l-0.25976 0.20898c-0.51625-0.3125-0.82805-0.99344-1.498-1.1484-0.20625 0.46875 0.56961 0.46969 0.72461 0.83594 0.2575 0.3125 0.77266 0.67625 0.41016 1.0938 0 0.105-0.10352 0.10516-0.10352 0.16016-1.0312-0.5775-1.391-1.7788-2.0098-2.7188zm8.1035 0.10547-2.0137 2.5586c-0.155-0.0512-0.30883-0.36422-0.20508-0.57422 0.41375-0.625 1.0841-0.88515 1.4453-1.5664l-0.136-0.1c-0.56875 0.47-1.0838 0.83469-1.5488 1.4609-0.155-0.105-0.30789-0.31102-0.46289-0.41602 0.7225-0.8875 1.8052-1.3056 2.9414-1.3594zm16.883 0-0.20703 1.3066c0.1025 0.4175 0.30648 1.0425 0.92774 0.9375 0.31-0.1575 0.46484-0.415 0.46484-0.78125-0.2025-0.57375-0.6168-1.2016-1.1855-1.4629zm-41.768 0.0547c0.05125 0.31125 0.000391 0.88399-0.41211 1.1465h-0.25781c-0.1025-0.52375 0.35992-0.78399 0.66992-1.1465zm43.654 0.0371c0.385 0 0.85789 0.00039 0.90039 0.27539-0.15375 0.3125-0.35164 0.12086-0.55664 0.0684l-0.34375-0.34375zm-42.363 0.22266c-0.31 0.52-0.66961 1.1487-0.41211 1.8262 0.15375 0.20875 0.36039 0.26125 0.61914 0.3125 0.46375-0.155 0.66992-0.52398 0.66992-0.99023-0.15375-0.47125-0.41195-0.93969-0.87695-1.1484zm39.34 0.3125c-0.77375 0.365-1.5986 0.93375-1.4961 1.875 0.06625 0.4325 0.60195 0.77562 0.87695 0.57812 1.3175-0.70625 0.61914-2.4531 0.61914-2.4531zm-27.104 0.0508 1.0332 0.83789c-0.415 0.415-0.8257-0.41789-1.0332-0.83789zm28.498 0.0547c0.2075 0.2075 0.50976 0.42258 0.50976 0.73633-0.105 0.26125-0.30328 0.34656-0.45703 0.10156-0.2075-0.21125-0.15648-0.57789-0.05273-0.83789zm-40.682 0.25976c0.20625 0.26125 0.30906 0.67875 0.25781 0.9375-0.15625 0.10625-0.20758 0.10625-0.36133 0-0.155-0.31125-0.000235-0.67625 0.10352-0.9375zm6.7109 0.31446c-1.1362 0.83375-2.3762 1.4626-3.7188 1.7226 0 0.105 0.10523 0.15578 0.20898 0.20703 1.705 0 2.838-1.4072 4.3867-1.7734-0.05 0.36625-0.38562 0.60914-0.85938 0.99414-1.285 1.0538-3.3985 1.3094-4.9473 0.73437 1.4612-0.98875 3.2772-1.7823 4.9297-1.8848zm32.242 0.0332c-0.05125 0.46875 0.10156 1.4351-0.42969 1.2051-0.535-0.22875 0.25719-1.0763 0.42969-1.2051zm-19.51 0.14453c0.63295 0.0262 1.3094 0.35078 1.4648 0.91797 0.14625 0.53 0.05117 1.2462-0.36133 1.6699-0.3975 0.41-1.2912 0.57571-1.8574 0.31446-0.56125-0.24876-0.96617-0.84391-0.82617-1.5664 0.0925-0.4925 0.22938-0.69758 0.60937-1.0488 0.22594-0.21047 0.59094-0.30285 0.9707-0.28711zm-30.18 0.0781c0.20389 0.005 0.40867 0.0256 0.61523 0.0664l2.375 1.4609c0.05125 0.61375-0.77258 0.71773-1.3926 0.92773-1.1362 0.4175-2.273 0.88672-3.5117 1.043 0.05125-0.20875 1.0314-0.26172 0.72266-0.73047-0.41375 0.105-1.3438 0.41797-1.3438-0.20703v-0.3164c-0.7225-0.15625-1.4438 0.26125-2.0625 0.15625 0.465-0.4175 1.2886-0.41703 1.6523-0.83203-0.725-0.10625-1.4457 0.20898-2.2207 0.20898-0.15375-0.47125 0.46492-0.73187 0.82617-0.89062 1.5356-0.18157 2.9126-0.92277 4.3398-0.88672zm61.52 0.0996c0.10375 1.67-0.55656 3.1905-1.0703 4.8105-0.26125-0.15875-0.000469-0.68062-0.26172-0.89062-0.36125 0.2625-0.20523 1.0432-0.77148 1.0957l-0.10352-0.78125h-0.10547c-0.36125 0.83375-0.30945 1.8798-0.87695 2.5586-0.3075-0.5225 0.15695-1.2023-0.1543-1.7773-0.56625 0.41875-0.25914 1.3586-0.77539 1.7773l-0.10156-0.10546c0.2575-1.775 0.4518-3.1307 1.123-4.752 0.635-0.4625 1.6302-1.193 3.0977-1.9355zm-38.949 0.30273c0.65844-0.0453 1.3559 0.0202 1.8984 0.17578-0.36125 0.26125-1.2403-0.052-1.7578 0.26172 0.15625 0.41875 0.82719 0.15594 1.2422 0.21094-0.8775 0.415-2.2219 0.36109-3.0469-0.16016 0.3875-0.28687 1.0056-0.44297 1.6641-0.48828zm15.76 0.041c0.34691 0.002 0.69492 0.0396 1.0371 0.11523 0.05125-0.025 0.07766-0.008 0.09766 0.0254 0.06 0.0125 0.12359 0.0281 0.18359 0.0469-0.13625 0.1725-0.13859 0.0269-0.18359-0.0469-0.0325-0.01-0.06516-0.0154-0.09766-0.0254-0.01 0.006-0.01875 0.0108-0.03125 0.0195-1.3425 0.3125-2.5286 0.36594-3.8711 0.67969 0.79781-0.51281 1.8245-0.82037 2.8652-0.81445zm4.9336 0.13476c1.3925 0.10375 2.8902 0.31266 3.9727 1.4102-2.0138 0.67875-3.8717-0.20844-5.418-1.1484 0.97875-0.31375 2.0114 0.46898 2.9414 0.52148-0.4125-0.36625-1.0326-0.47046-1.5488-0.73046l0.05273-0.0527zm-17.692 0.29 0.31055 0.10547c0 0.10625-0.20555 0.0508-0.31055 0.0508v-0.15625zm13.631 0.10547c-0.82625 0.31375-1.706 0.88726-2.6348 0.57226 0.61875-0.31125 1.7048-0.46601 2.6348-0.57226zm-6.5586 0.25976c0.05125 0.365 0.36211 0.57422 0.56836 0.88672-0.31125-0.20875-0.92914-0.31297-0.77539-0.73047l0.20703-0.15625zm-11.822 0.3125 1.2402 0.31446c-0.8275 0.365-1.8591 0.25945-2.6328 0.7832l0.10352 0.15625 4.2324-0.99219c-1.6525 0.93875-3.9761 2.0882-6.4023 1.4082 1.0838-0.5725 2.3752-0.93743 3.459-1.6699zm5.4551 0.0137c0.22599-0.005 0.45711 0.006 0.68945 0.0391-1.1362 0.73125-2.4787 1.0449-3.3574 1.9824l0.15625 0.10547c1.0838-0.47 2.0137-1.3555 3.2012-1.5117-0.77375 1.6162-2.4291 1.8937-4.3379 1.8262 0.67812-1.4612 2.0665-2.4036 3.6484-2.4414zm7.8125 0.0391c1.7575 0.20875 3.7189 0.7818 4.4414 2.5606-1.9625 0.15375-3.6675-0.52407-4.75-2.0391l0.46484 0.0547c0.87625 0.5725 1.8056 1.2527 2.7344 1.3027-0.8775-0.67625-2.0622-1.0442-2.9922-1.7754l0.10156-0.10351zm4.8848 0.041c1.3794-0.0145 2.7448 0.92485 3.791 1.6289-1.6012 0.73125-3.6675 0.47078-4.9062-0.73047 1.0838 0.20875 2.425 0.31547 3.5625 0.41797l-0.188-0.17c-1.2375-0.15625-2.4251-0.46922-3.6113-0.73047 0.45156-0.26094 0.91131-0.37211 1.3711-0.37696zm-10.668 0.32618c0.15625 0.93875-0.66906 1.7734-1.4453 2.1934 0 0.15375 0.0532 0.25875 0.1582 0.3125 0.67125-0.36625 1.4441-0.94086 1.6504-1.7246 0 0.575-0.56852 1.5146-1.291 1.7246-0.61875 0.2075-1.3416 0.41554-1.9629 0.31054 1.2912-0.52125 1.8069-2.0352 2.8906-2.8164zm3.7188 0.20898c1.1875 0.5725 2.3755 1.2524 3.3555 2.1387-1.6525 0.47-3.0464-0.2614-4.2852-1.0976 0.825-1.0962 1.7033 0.68046 2.582 0.57422-0.4125-0.57376-1.1859-0.83469-1.7559-1.3047l0.10352-0.31055zm-27.445 0.24609 2.6328 1.4062c-0.89875 0.5875-2.3448 1.3686-3.791 1.8398-0.61875-1.305-1.7038 0.36601-2.7363-0.20899 0.2075-0.15875 0.46781-0.2082 0.57031-0.4707-0.56875-0.31125-1.5491 0.62992-1.8066-0.0488l1.8574-0.9414c-0.87875-0.10375-1.7561 0.31273-2.6836 0.36523l0.10156-0.26367c2.065-0.51875 3.8717-1.7715 5.8555-1.6777zm53.049 0.11329c-0.20875 1.4112-0.46688 2.82-0.98438 4.125-0.2575-0.0513-0.30664-0.41844-0.30664-0.67969 0-0.105-0.10375-0.15602-0.15625-0.25977h-0.10352c-0.5175 0.67875-0.41273 1.8262-1.2402 2.1387-0.05-0.4175 0.10617-0.88671-0.04883-1.1992-0.4125 0.6775-0.72297 1.4606-1.1367 2.1406 0.25875-0.835 0.56656-1.8293 0.41406-2.7168-0.62 1.0962-0.87891 2.5591-1.9102 3.4453l0.05078-0.78125c0.87625-1.67 1.0862-3.2536 2.1699-4.8711 0.98125-0.41875 1.9241-0.82297 2.9004-1.293l0.35156-0.0488zm-49.146 1.6719c0.37 0.0413 1.3109 0.60836 3.4922 1.4121-1.2388 1.1462-2.8204 1.6684-4.3691 2.5547h-1.0332c0.67-0.46875 1.6002-0.52344 2.1152-1.1484-0.72125-0.15875-1.2907 0.62625-2.0645 0.3125l0.61914-0.52148-0.10156-0.15625-2.7891 0.7832c0.82625-0.6775 1.9108-0.83492 2.582-1.5137-1.1888 0.155-2.3743 0.93797-3.7168 0.73047 1.5488-1.0425 3.4581-1.8269 5.2656-2.4531zm44.666 0.18359c-0.36 1.775-0.89117 3.2099-2.0762 4.5137 0-0.10375 0.04977-0.62696 0.10352-0.93946-0.725 0.67875-1.0877 2.1396-2.2227 2.5059 0-0.67875 0.56984-1.2516 0.46484-1.9316-0.77125 0.57375-1.1348 1.9302-2.166 2.3477 0.36125-1.93 1.6648-3.3137 2.541-5.1387 1.085-0.41875 2.2205-0.98993 3.3555-1.3574zm-40.268 1.6797c0.94625 0.12375 2.5801 0.51516 3.5488 1.0352-1.135 1.0425-1.8543 2.0591-3.4043 2.3203 0-0.26125 0.46383-0.41648 0.36133-0.67773-0.775 0.31375-1.4445 1.2005-2.4258 0.88671l0.66992-0.83398c-0.41375-0.15625-1.0316 0.20727-1.4453 0.25977-0.2575 0.10375-0.56867 0.10445-0.82617 0.1582 0.36125-0.47125 1.3941-0.52289 1.8066-1.1504l-0.1543-0.15625c-0.87625 0.15625-1.652 0.73219-2.582 0.67969 1.6012-1.095 2.6449-1.949 4.4512-2.5215zm35.623 0c-0.62 1.565-1.2524 2.8877-2.2324 4.3477v-0.93945c-0.57 0.46999-0.9293 1.4082-1.6543 1.7207l-0.1543-0.72852c-0.10125 0.365-0.46445 0.62594-0.7207 0.83594-0.05375-0.3125 0.09953-0.88937-0.10547-1.2031-0.15375 0.0525-0.25859 0.15671-0.30859 0.26171 0.61875-1.2012 0.84031-2.3349 1.8203-3.3262 1.1362-0.3125 2.2192-0.6575 3.3555-0.96875zm-4.4023 1.1113-2.0117 4.0723c-0.31 0.155-0.51812 0.4707-0.82812 0.4707-0.05-0.21 0.05242-0.52422-0.04883-0.73047-0.56875 0.415-0.98008 1.198-1.5488 1.5117-0.10375-0.3675 0.35914-1.1477 0.30664-1.7227l-1.1348 1.0957-0.10352-0.57227-0.87695 0.83203c0.2075-1.5112 1.0839-2.685 2.0664-3.9375 0.59375-0.4425 1.7348-0.0997 3.291-0.77344l0.88867-0.24609zm-26.07 0.19336 3.4082 0.62695 0.20703 0.11719c-1.24 1.0988-2.478 2.2983-3.873 2.9258 0-0.31125 0.51688-0.62844 0.67188-0.99219-0.7225 0.15625-1.4977 0.73141-2.2715 0.94141 0.25875-0.52375 1.2397-0.73219 0.92969-1.3047-0.87875 0.4675-1.5485 1.1457-2.4785 1.5645 0.30875-0.52 1.1348-0.99368 1.6523-1.5137 0.05125-0.10625-0.05227-0.15672-0.10352-0.26171-0.8775 0.41624-1.5988 1.3047-2.7363 1.1484l-0.05078-0.20898c1.5475-1.2525 3.1483-2.4005 4.6445-3.043zm5.2559 0.86523 2.3203 0.3125c-0.3475 1.0312-1.6374 2.3354-2.6699 3.2754-0.25875 0.0513-0.51812 0.15625-0.82812 0.15625-0.1025-0.26125 0.41281-0.47046 0.25781-0.73046-0.67125 0.365-1.2372 0.83398-1.9609 0.99023-0.25625-0.31375 0.41352-0.57227 0.10352-0.88477-0.62 0.4175-1.3927 0.88649-2.1152 0.67774v-0.20899c1.7038-1.2 3.0463-3.1854 4.8926-3.5879zm15.666 0.0254c-0.465 1.2525-1.2013 1.9962-1.9238 3.0938-0.62125 0.29-0.93141 1.2887-1.7539 1.5137-0.10375-0.4175 0.30812-0.67993 0.35937-1.0449-0.30875 0-0.66922 0.41649-0.98047 0.67774 0-0.31375 0.465-0.88695 0.3125-1.252-0.62125 0.6775-1.3962 1.3549-2.1699 1.6699 0.41375-1.67 1.7283-2.8095 2.8633-4.2695 1.0325-0.26375 2.208-0.22993 3.293-0.38868zm-4.4551 0.38868 0.15625 0.35351c-1.1875 1.3038-1.7538 3.0288-3.25 3.9688-0.10375-0.0525 0.46383-0.46945 0.20508-0.7832-0.36 0.31375-0.77477 0.78367-1.291 0.88867 0.20625-0.36625 0.41359-0.73266 0.46484-1.0977-0.515 0.31125-0.82484 1.0972-1.4961 1.1484 0.10375-0.36375 0.36156-0.7307 0.25781-1.0957l-1.3418 0.73242v-0.26367c1.0838-1.3062 1.4812-2.665 2.875-3.6562 1.0325-0.10625 2.2837-0.0903 3.4199-0.19531zm-7.0449 0.0859 2.4785 0.10547c-0.2325 0.73875-1.1098 1.7282-1.7285 2.7207-0.82625 0.105-1.0844 1.2024-1.8594 1.3574-0.10375-0.20875 0.15625-0.36422 0-0.57422l-0.87695 0.4707c0-0.47 0.51508-0.78367 0.36133-1.2012-0.67375 0.47-1.2922 0.88742-2.1172 1.0449-0.10375-0.2625 0.30898-0.52594-0.10352-0.67969 1.3425-1.2012 2.222-3.1329 3.8457-3.2441zm3.524-115.14c31.654 0 57.316 25.681 57.316 57.359 0 31.679-25.663 57.361-57.316 57.361-31.655 0-57.314-25.683-57.314-57.361 0-31.679 25.659-57.359 57.314-57.359z"/><path fill="#154734" d="m63.908 10.303c-1.031 0-1.612 0.065-2.515 0.097 0.361 0.365 1 0.873 1 0.873s0.322 3.593 0.322 4.1c0 0.776-1.08 1.26-2.258 1.389-1.161 0.13-1.548-0.482-1.613-0.967l-0.397-4.09 1.17-1.143-2.258 0.29-2.226 0.355 1.25 0.604 0.465 3.914c0.156 1.068 1.288 1.422 2.168 1.566 2.281 0.375 4.247-0.593 4.183-1.756-0.062-1.13-0.195-3.133-0.26-4.328l0.969-0.904zm2.233 0.045 0.996 1.088-0.377 4.812-1.172 0.836 2.773 0.098-1.064-0.936s0.322-4.004 0.322-4.101l0.172-0.178 4.904 5.951h0.157l0.64-6 1.162-0.871-2.55-0.356 0.873 1.196-0.323 2.873-3.486-4.36-3.027-0.052zm10.943 1.201 0.635 1.047-1.094 5.166-0.971 0.517 3.487 0.84-0.616-1.064 1.065-5.006 1.066-0.549-3.572-0.951zm5.219 1.433 0.418 1.067 0.967 6.719 0.548 0.289 5.186-4.131 1.205-0.26-2.324-1.228 0.482 1.164-3.322 2.744-0.635-4.508 1.022-0.563-3.547-1.293zm-41.035 2.916c-0.425 0.033-0.789 0.251-0.954 0.346-0.327 0.193-6.093 3.651-6.093 3.651l1.646 0.453 2.422 4.05-0.389 1.245 3.485-2.164-1.194-0.225-1.355-2.244 1-0.6 2.801 1.471v0.889l3.33-1.698-1.08-0.177-3.018-1.614s0.838-0.485 0.967-1.097c0.181-0.374 0.026-1.087-0.25-1.522-0.406-0.644-0.893-0.796-1.318-0.764zm-1.151 1.331c0.671 0.039 1.159 1.346 0.608 1.712-1.097 0.679-2.278 1.373-2.278 1.373l-0.959-1.591s1.67-1.041 2.332-1.428c0.101-0.053 0.201-0.072 0.297-0.066zm51.992 0.05 0.161 1.131-2.797 4.26-1.43 0.228 6.422 4.198 1.289-1.711-2.51 0.209c-0.456-0.37-2.193-1.52-2.193-1.52l1.652-2.42 1.375 1.018s0.288 0.872 0.299 0.937c0.024-0.065 0.991-1.486 1.033-1.566l-1.092 0.096-1.338-0.951 1.194-1.809 2.775 1.904 0.16 1.971 1.323-1.713-2.741-1.873-3.582-2.389zm-59.386 4.858c-1.145-0.073-2.325 0.294-3.116 0.924-1.741 1.613-2.773 3.486-1.832 5.585 0.608 1.26 1.91 1.775 3.096 1.618 1.544-0.133 3.248-0.912 4.125-2.426 0.775-1.163 1.225-2.551 0.625-3.996-0.646-1.123-1.754-1.633-2.898-1.705zm67.647 0.845v1.207l-3.411 3.909-1.086 0.105 2.482 2.297 0.206-1.08 1.499-1.635 0.86 0.861-0.84 2.778-0.648 0.097 2.198 2.356c-0.01-0.075 0.06-0.871 0.06-0.871l0.81-3.166c0.36 0.314 0.8 0.518 1.33 0.504 0.67-0.018 1.29-0.209 1.65-0.836 0.28-0.636 0.28-1.476-0.37-2.121-1.55-1.559-4.74-4.405-4.74-4.405zm-69.393 0.383c1.363-0.064 2.534 1.234 3.199 2.514 0.311 0.836 0.256 1.931-0.412 2.559-0.878 0.729-2.027 0.757-2.944 0.156-1.213-0.819-2.321-2.044-1.857-3.662 0.207-0.627 0.8-1.242 1.418-1.452 0.202-0.068 0.401-0.106 0.596-0.115zm71.233 2.043c0.94 0.714 1.87 1.527 1.77 2.221-0.16 0.695-0.67 1.275-1.49 1.201-0.83-0.054-1.67-1.189-1.99-1.508l1.71-1.914zm-79.347 4.918-2.42 3.26 1.51-0.191 3.82 3.027-0.037 1.459s2.866-3.657 4.414-5.535c0 0-1.221-1.213-1.898-1.731l0.35 2.565-1.381 1.65-4.131-3.133-0.227-1.371zm84.657 1.412c-0.14-0.004-0.29 0.001-0.44 0.016-0.58 0.09-1.08 0.311-1.39 0.885-0.93 1.88 1.23 3.029 1.65 4.648 0.15 0.47-0.05 1.2-0.62 1.358-0.81 0-1.32-0.311-1.77-1.055-0.44-0.716-0.84-1.851-1-2.518l0.29-1.545c-0.25 0.22-1.51 1.093-1.84 1.223l1 0.42c0.53 1.774 0.97 3.552 3.22 4.258 0.82 0.166 1.59 0.036 2.11-0.68 1.32-1.811-0.58-3.411-1.34-4.906-0.24-0.481-0.21-0.941 0.26-1.203 0.37-0.119 0.95-0.149 1.4 0.302 0.58 0.55 1.13 1.486 1.46 2.745 0.06 0.356-0.11 0.774-0.23 1.39 0.12-0.002 1.48-0.808 1.48-0.808s-0.37-0.339-0.71-0.647c-0.45-1.726-1.42-3.819-3.53-3.883zm-88.01 3.239c-0.464 0.73-1.383 2.312-1.383 2.312l1.059-0.309s0.969 2.228 0.953 2.291l-2.694 0.616s-0.419-0.454-0.453-0.616c-0.611 1.067-1.451 2.907-1.451 2.907 0.451-0.065 0.966-0.405 1.42-0.547l3.322-0.598 1.922 1.076 0.465 1.104 1.775-3.393-1.424 0.414-2.261-1.275s-0.726-1.848-0.998-2.805c0 0-0.193-0.765-0.252-1.177zm93.51 3.455-0.42 1.035-4.61 2.388-1.04-0.291 1.55 3.069 0.42-1 4.65-2.229 1.06 0.258-1.61-3.23zm2.46 5.07-1.89 0.889 1.69 0.468 0.49 1.319-4.79 1.652-1.24-0.322 1.19 3.326 0.71-0.938 4.82-1.548 0.47 1.322s-0.81 1.647-0.81 1.715c0 0 1.81-0.649 1.91-0.649l-2.55-7.234zm-93.289 0.551-1.16 0.451-6.97 0.935v0.26l4.646 4.553s0.529 1.517 0.516 1.582l0.871-2.842c-0.449 0.339-1.096 0.613-1.096 0.613l-1.162-1.064c0.027 0.081 0.678-1.971 0.678-1.971l1.677-0.097 0.625 0.787 1.375-3.207zm-4.318 2.58-0.516 1.41-1.361-1.311c0.098 0.033 1.877-0.099 1.877-0.099zm-4.385 3.877c-0.56-0.036-1.225 0.677-1.451 1.388l-0.582 3.004-0.676 4.102 1.227-1 4.621 0.65c-0.01-0.071 1.047 1.762 1.047 1.762 0.395-2.996 1.107-6.709 1.107-7.678 0-0.903-0.849-1.533-1.58-1.744-0.867-0.25-1.806 0.291-2.156 0.965-0.103-0.771-0.523-1.386-1.557-1.449zm104.68 0.744-0.57 1.047-2.71 3.156-1.89 0.316-0.97-0.548 0.58 3.228 0.58-0.678 2.46-0.355 3.06 1.744 0.87 0.84-0.22-2.389-0.58 0.936-2.75-1.58 2.07-2.457 0.84 0.388-0.77-3.648zm-101.78 1.338c0.747 0.028 1.485 0.525 1.457 1.146-0.012 0.262-0.428 2.971-0.428 2.971s-2.702-0.419-2.787-0.416c0.015-0.071 0.392-2.297 0.439-2.586 0.098-0.58 0.575-1.031 1-1.098 0.105-0.016 0.212-0.021 0.319-0.017zm-3.307 0.256c0.516 0 1.031 0.102 1.238 0.625-0.023 0.396-0.281 1.598-0.445 2.787l-1.877-0.281c0.258-1.095 0.265-3.079 1.084-3.131z"/></g></svg>
