<?xml version="1.0" encoding="UTF-8" standalone="no"?>
<svg
   xmlns:dc="http://purl.org/dc/elements/1.1/"
   xmlns:cc="http://creativecommons.org/ns#"
   xmlns:rdf="http://www.w3.org/1999/02/22-rdf-syntax-ns#"
   xmlns:svg="http://www.w3.org/2000/svg"
   xmlns="http://www.w3.org/2000/svg"
   id="svg3282"
   version="1.1"
   xml:space="preserve"
   width="172.97301"
   height="56.710751"
   viewBox="0 0 172.97301 56.710751"><g
     id="g3290"
     transform="matrix(1.25,0,0,-1.25,-466.25,928.88075)"><g
       id="g3856"><g
         id="g4076"
         transform="matrix(1,0,0,-1,-1225,820)"><g
           id="g4100"><g
             clip-path="url(#clipPath4080)"
             id="g4102"><g
               id="g4104"><g
                 id="g4106"><g
                   id="g4110"><g
                     clip-path="url(#clipPath4084)"
                     id="g4112"><g
                       id="g4114"><g
                         id="g4116"><g
                           clip-path="url(#clipPath4088)"
                           id="g4118"><g
                             id="g4120"><g
                               clip-path="url(#clipPath4092)"
                               id="g4122"><path
                                 d="m 1607.7878,102.3902 c 0,-1.3485 0.8047,-0.9189 0.8047,-1.2415 0,-0.1309 -0.069,-0.1552 -0.207,-0.1552 -0.5747,0.0243 -0.9305,0.0482 -1.3095,0.0482 -0.3216,0 -0.6314,-0.0239 -0.965,-0.0482 -0.149,0 -0.3453,-0.059 -0.3453,0.1308 0,0.4303 1.4136,0.0608 1.4136,1.4339 l 0,2.3631 c 0,2.0166 -0.2986,3.9032 -2.5848,3.9032 -2.056,0 -2.516,-1.5165 -2.516,-3.3431 l 0,-2.5896 c 0,-1.9573 0.9651,-1.3244 0.9651,-1.7311 0,-0.0713 -0.023,-0.1672 -0.1264,-0.1672 -0.2181,0 -1.0337,0.0482 -1.6201,0.0482 -0.5742,0 -1.4359,-0.0482 -1.5847,-0.0482 -0.092,0 -0.2413,0.0361 -0.2413,0.1916 0,0.4534 1.1945,0.0703 1.1945,1.0974 l 0,3.8916 c 0,2.316 1.1487,3.3539 3.2964,3.3539 3.1711,0 3.8258,-2.0166 3.8258,-4.4407"
                                 style="fill:#00674c;fill-opacity:1;fill-rule:nonzero;stroke:none"
                                 id="path4124" /><path
                                 d="m 1617.1356,107.8214 c 0,1.217 -1.1034,1.0031 -1.1034,1.4791 0,0.2034 0.2303,0.1437 0.3557,0.1437 0.3106,0 0.6209,-0.0478 0.9886,-0.0478 0.4028,0 0.7931,0.0478 1.3552,0.0478 0.1499,0 0.4369,0.0125 0.4369,-0.1547 0,-0.5609 -1.4704,0.251 -1.4704,-2.041 l 0,-4.0576 c 0,-0.108 0.023,-0.1921 0.092,-0.1921 0.057,0 0.1257,0.0603 0.2062,0.1562 l 5.5261,6.2063 c 0.081,0.0954 0.1376,0.1667 0.2986,0.1667 0.1374,0 0.1374,-0.0964 0.1374,-0.3586 l 0,-6.6956 c 0,-1.2533 0.9766,-0.9664 0.9766,-1.3251 0,-0.0355 0,-0.1552 -0.2172,-0.1552 -0.1044,0 -0.5066,0.0482 -1.2308,0.0482 -0.7916,0 -1.1247,-0.0482 -1.3088,-0.0482 -0.1496,0 -0.1841,0.1197 -0.1841,0.2041 0,0.3942 1.402,0.1786 1.402,1.2647 l 0,3.9745 c 0,0.298 -0.023,0.4409 -0.092,0.4409 -0.069,0 -0.2061,-0.1429 -0.3557,-0.3096 l -4.619,-5.2635 c -0.206,-0.2275 -0.068,-0.3111 -0.4359,-0.3111 -0.6083,0 -0.9074,0.0482 -1.2066,0.0482 -0.218,0 -0.4245,-0.0482 -0.6426,-0.0482 -0.1378,0 -0.1958,0.0959 -0.1958,0.2041 0,0.5719 1.287,-0.2041 1.287,2.0884"
                                 style="fill:#00674c;fill-opacity:1;fill-rule:nonzero;stroke:none"
                                 id="path4126" /><path
                                 d="m 1635.1104,102.2707 c 0,-1.1336 0.8615,-0.7033 0.8615,-1.11 0,-0.1429 -0.058,-0.1672 -0.4021,-0.1672 -0.6549,0 -1.0686,0.0482 -1.4826,0.0482 -0.4023,0 -0.8497,-0.0482 -1.2976,-0.0482 -0.1037,0 -0.3902,-0.0359 -0.3902,0.1672 0,0.4175 1.2976,0.0833 1.2976,1.1702 l 0,5.7296 c 0,1.1331 -0.8268,0.8227 -0.8268,1.24 0,0.0608 0.023,0.1437 0.126,0.1437 0.2985,0 0.7932,-0.0478 1.287,-0.0478 0.8954,0 1.3212,0.0478 1.7457,0.0478 0.2647,0 0.3676,-0.0478 0.3676,-0.1788 0,-0.3822 -1.2861,0.1662 -1.2861,-1.3008"
                                 style="fill:#00674c;fill-opacity:1;fill-rule:nonzero;stroke:none"
                                 id="path4128" /><path
                                 d="m 1651.3657,102.0796 c 0.3101,-0.7034 0.7805,-0.6445 0.7805,-0.9189 0,-0.2031 -0.1604,-0.1672 -0.4016,-0.1672 -0.3213,0 -0.6427,0.0482 -0.9646,0.0482 -0.3332,0 -0.6555,-0.0482 -0.9883,-0.0482 -0.1378,0 -0.4707,-0.0359 -0.4707,0.1916 0,0.4177 1.1598,-0.0244 1.1598,1.0974 0,0.1913 -0.022,0.6093 -0.3672,1.4095 l -1.5747,3.629 c -0.034,0.0822 -0.08,0.2494 -0.1485,0.2494 -0.069,0 -0.1264,-0.1672 -0.1613,-0.2494 l -1.4933,-3.8441 c -0.2865,-0.7287 -0.4364,-1.2901 -0.4364,-1.6468 0,-0.5012 0.6889,-0.3227 0.6889,-0.645 0,-0.2032 -0.057,-0.1916 -0.4248,-0.1916 -0.1833,0 -0.5164,0.0482 -1.2526,0.0482 -0.3899,0 -0.7809,-0.0482 -1.1604,-0.0482 -0.1715,0 -0.5281,-0.0949 -0.5281,0.1916 0,0.0833 0.1499,0.1549 0.1838,0.1662 0.4713,0.12 0.6323,0.2515 0.8278,0.7173 l 2.8595,6.9462 c 0.2077,0.5022 0.3217,0.6201 0.4374,0.6201 0.1257,0 0.1832,-0.0717 0.3101,-0.3816"
                                 style="fill:#00674c;fill-opacity:1;fill-rule:nonzero;stroke:none"
                                 id="path4130" /><path
                                 d="m 1661.879,102.3902 c 0,-0.8228 0.047,-0.8356 1.4357,-0.8356 2.2183,0 1.322,1.3975 1.8614,1.3975 0.2643,0 0.2067,-0.3939 0.1949,-0.5491 l -0.046,-1.1825 c 0,-0.1073 -0.08,-0.227 -0.2297,-0.227 -1.0105,0 -1.8034,0.0482 -2.6189,0.0482 -1.7581,0 -2.585,-0.0482 -3.0559,-0.0482 -0.1604,0 -0.2525,0.0959 -0.2525,0.2041 0,0.476 1.2979,0.0944 1.2979,1.169 l 0,5.5862 c 0,1.4562 -0.8726,0.8119 -0.8726,1.3602 0,0.0714 0.069,0.1312 0.2185,0.1312 0.6314,0 1.1138,-0.0478 1.4706,-0.0478 0.5743,0 1.2623,0.0478 3.0091,0.0478 0.9419,0 1.6197,-0.9787 1.6197,-1.91 0,-0.2262 -0.081,-0.2621 -0.126,-0.2621 -0.4365,0 -0.2756,1.5644 -3.1248,1.5644 -0.8278,0 -0.7816,-0.4306 -0.7816,-1.171 l 0,-1.527 c 0,-0.6925 -0.046,-0.8356 0.4828,-0.8356 l 0.8496,0 c 1.1955,0 0.8736,1.2652 1.2403,1.2652 0.2766,0 0.2076,-0.4296 0.1964,-0.5851 l -0.08,-2.1245 c -0.011,-0.3226 -0.1385,-0.2983 -0.2187,-0.2983 -0.2298,0 -0.2642,1.0975 -1.252,1.0975 l -0.724,0 c -0.4942,0 -0.4942,-0.0834 -0.4942,-0.5971"
                                 style="fill:#00674c;fill-opacity:1;fill-rule:nonzero;stroke:none"
                                 id="path4132" /><path
                                 d="m 1674.3079,107.7499 c 0,1.5034 -0.9308,1.1098 -0.9308,1.4914 0,0.2395 0.2422,0.2029 0.3681,0.2029 0.5734,0 1.1482,-0.0478 1.769,-0.0478 0.4812,0 0.7928,0.0478 0.9878,0.0478 0.2641,0 0.3557,-0.0714 0.3557,-0.1788 0,-0.4289 -1.1385,0.0602 -1.1385,-1.2182 l 0,-2.0642 c 0,-0.4178 -0.069,-0.5016 0.5411,-0.5016 0.5748,0 0.781,0.108 1.0443,0.6327 l 0.9662,1.8864 c 0.3568,0.6919 0.7244,1.4437 1.6309,1.4437 0.4598,0 1.2177,-0.2622 1.2177,-0.6318 0,-0.0958 -0.069,-0.1677 -0.1723,-0.1677 -0.1136,0 -0.2298,0.0719 -0.344,0.0719 -0.091,0 -0.3106,0 -0.4149,-0.1911 -0.8269,-1.504 -1.8033,-3.2351 -1.8033,-3.3067 0,-0.1193 0.3337,-0.2267 0.6673,-0.5009 0.3328,-0.2872 0.6666,-0.7281 0.6666,-1.4923 0,-0.5489 -0.2294,-2.2321 -2.7464,-2.2321 -0.7698,0 -1.5498,0.0482 -2.3205,0.0482 -0.7236,0 -0.8156,-0.0482 -1.3443,-0.0482 -0.1377,0 -0.2514,0.06 -0.2514,0.1797 0,0.4296 1.2517,-0.0125 1.2517,1.325 l 0,5.2517 z m 1.4113,-5.5264 c 0,-0.7161 0.3579,-0.7161 0.7828,-0.7161 1.1589,0 1.8037,0.8828 1.8037,2.0528 0,0.7043 -0.069,1.3729 -1.8162,1.3729 -0.3429,0 -0.7703,0 -0.7703,-0.2991"
                                 style="fill:#00674c;fill-opacity:1;fill-rule:evenodd;stroke:none"
                                 id="path4134" /><path
                                 d="m 1689.0551,108.6327 c 0.057,0.2867 0.046,0.3821 0.3326,0.4539 0.667,0.1547 1.2532,0.4414 1.954,0.4414 1.5045,0 2.5622,-1.0625 2.5622,-2.6255 0,-1.5162 -0.7584,-2.0287 -1.9884,-2.5906 -1.54,-0.704 -2.172,-0.8594 -2.172,-1.6575 0,-0.8007 0.5163,-1.2547 1.2743,-1.2547 1.9766,0 2.1498,2.2196 2.4152,2.2196 0.2508,0 0.2853,-0.1424 0.2633,-0.4053 l -0.1255,-1.6004 c -0.025,-0.2736 0.01,-0.4529 -0.161,-0.4529 -0.1506,0 -0.4376,0.1906 -0.5878,0.1906 -0.344,0 -0.8252,-0.4653 -1.7688,-0.4653 -1.3436,0 -2.2629,1.003 -2.2629,2.3752 0,1.2541 0.6792,1.7191 1.6675,2.1731 1.847,0.8473 2.572,1.0025 2.572,2.0166 0,0.955 -0.6901,1.5282 -1.5857,1.5282 -1.2759,0 -1.9874,-1.0861 -2.3556,-2.2325 -0.045,-0.1541 -0.069,-0.2626 -0.252,-0.2626 -0.2869,0 -0.1733,0.347 -0.1383,0.5137"
                                 style="fill:#00674c;fill-opacity:1;fill-rule:nonzero;stroke:none"
                                 id="path4136" /><path
                                 d="m 1704.2122,102.2707 c 0,-1.1336 0.8618,-0.7033 0.8618,-1.11 0,-0.1429 -0.058,-0.1672 -0.4032,-0.1672 -0.6546,0 -1.0685,0.0482 -1.4813,0.0482 -0.4028,0 -0.8506,-0.0482 -1.2979,-0.0482 -0.104,0 -0.3904,-0.0359 -0.3904,0.1672 0,0.4175 1.2969,0.0833 1.2969,1.1702 l 0,5.7296 c 0,1.1331 -0.8269,0.8227 -0.8269,1.24 0,0.0608 0.023,0.1437 0.1255,0.1437 0.2993,0 0.7934,-0.0478 1.2876,-0.0478 0.8967,0 1.3225,0.0478 1.7467,0.0478 0.2638,0 0.3677,-0.0478 0.3677,-0.1788 0,-0.3822 -1.2865,0.1662 -1.2865,-1.3008"
                                 style="fill:#00674c;fill-opacity:1;fill-rule:nonzero;stroke:none"
                                 id="path4138" /><path
                                 d="m 1715.9641,107.8812 c 0,1.4193 -1.2993,0.8474 -1.2993,1.3124 0,0.2631 0.1953,0.2506 0.4026,0.2506 0.4597,0 0.8397,-0.0478 1.6089,-0.0478 0.7702,0 1.1488,0.0478 1.6084,0.0478 0.3337,0 0.5631,0.0366 0.5631,-0.2506 0,-0.3339 -1.4706,0.0125 -1.4706,-1.4555 l 0,-5.3958 c 0,-0.5728 0.1146,-0.6325 0.5862,-0.6325 l 0.9759,0 c 1.3214,-0.048 0.9528,1.2772 1.4125,1.2772 0.2993,0 0.1729,-0.465 0.1481,-0.6086 l -0.1249,-1.0982 c -0.011,-0.1195 -0.011,-0.2867 -0.1836,-0.2867 -1.0696,0 -1.8378,0.0482 -3.5151,0.0482 -1.6783,0 -2.4471,-0.0482 -3.5155,-0.0482 -0.1739,0 -0.1739,0.1672 -0.1836,0.2867 l -0.1846,1.5758 c -0.023,0.1552 -0.092,0.4177 0.1501,0.4177 0.5163,0 0.1728,-1.5639 1.4701,-1.5639 l 0.9656,0 c 0.47,0 0.5857,0.0597 0.5857,0.6325"
                                 style="fill:#00674c;fill-opacity:1;fill-rule:nonzero;stroke:none"
                                 id="path4140" /><path
                                 d="m 1730.7109,105.6132 c 0.1377,0.2629 0.1846,0.3586 0.1846,0.7523 l 0,1.5519 c 0,1.5142 -1.2526,0.8584 -1.2526,1.3956 0,0.1075 0.1254,0.1312 0.3106,0.1312 0.3214,0 0.6551,-0.0478 1.6876,-0.0478 1.4356,0 1.6207,0.0478 1.7123,0.0478 0.1954,0 0.3671,-0.0126 0.3671,-0.1437 0,-0.6081 -1.4125,0.2165 -1.4125,-1.288 l 0,-1.7781 c 0,-0.4298 0.034,-0.5137 0.1485,-0.753 l 1.5052,-2.9594 c 0.6792,-1.3131 1.195,-1.0746 1.195,-1.3977 0,-0.0826 -0.056,-0.1308 -0.2072,-0.1308 -0.3203,0 -0.4474,0.0482 -1.3216,0.0482 -0.5959,0 -0.8371,-0.0482 -0.9862,-0.0482 -0.1378,0 -0.2196,0.06 -0.2196,0.1797 0,0.3694 1.1143,0.107 1.1143,0.8954 0,0.0834 0.012,0.2493 -0.2051,0.656 l -1.0454,1.9695 c -0.1378,0.2618 -0.219,0.3577 -0.2885,0.3577 -0.091,0 -0.1727,-0.1556 -0.3563,-0.5491 l -1.0325,-2.2202 c -0.1379,-0.2973 -0.163,-0.4414 -0.163,-0.5481 0,-0.4055 0.633,-0.3111 0.633,-0.5857 0,-0.0716 -0.034,-0.1668 -0.1954,-0.1552 -0.7003,0.0482 -1.194,0.0482 -1.6774,0.0482 -0.5738,0 -0.8505,-0.0482 -1.0561,-0.0482 -0.2638,0 -0.4026,0 -0.4026,0.1436 0,0.3814 0.7024,0.0834 1.1491,0.9425"
                                 style="fill:#00674c;fill-opacity:1;fill-rule:nonzero;stroke:none"
                                 id="path4142" /><path
                                 d="m 1603.2891,87.4664 c 0,-1.2697 0.047,-1.88 1.4094,-1.88 4.2029,0 4.8733,2.1966 4.8733,3.6616 0,2.3684 -1.1784,3.9551 -3.442,3.9551 -2.2402,0 -2.8407,-0.6836 -2.8407,-3.0023 l 0,-2.7344 z m -2.8406,3.8075 c 0,2.3691 -1.9871,1.7091 -1.9871,2.5155 0,0.3415 0.2313,0.3902 0.7621,0.3902 0.4856,0 1.0867,-0.0977 1.6398,-0.0977 1.1556,0 2.31,0.0977 5.7523,0.0977 3.7648,0 5.8893,-2.0992 5.8893,-5.3218 0,-2.1976 -0.8776,-3.5158 -3.6951,-4.272 l 0,-0.0492 c 1.6397,-0.5614 2.5177,-1.9037 2.5177,-3.4418 0,-0.5857 -0.024,-4.1992 -5.683,-4.1992 -1.9397,0 -3.9028,0.0974 -5.8664,0.0974 -1.0625,0 -1.2237,-0.0974 -1.3856,-0.0974 -0.1153,0 -0.3925,-0.0248 -0.3925,0.3661 0,1.1961 2.4485,-0.1466 2.4485,3.2223 l 0,10.7899 z m 2.8406,-11.0091 c 0,-1.3922 0.047,-2.3197 1.6164,-2.3197 2.0556,0 3.7659,1.5627 3.7659,3.8088 0,1.8065 -0.6702,2.7342 -2.4259,2.7342 l -1.3856,0 c -1.34,-0.0979 -1.5708,-0.196 -1.5708,-1.3917"
                                 style="fill:#00674c;fill-opacity:1;fill-rule:evenodd;stroke:none"
                                 id="path4144" /><path
                                 d="m 1617.8203,82.4222 c 0,-1.8551 1.3856,-1.1519 1.3856,-1.8159 0,-0.2343 -0.092,-0.2735 -0.6462,-0.2735 -1.054,0 -1.7189,0.0781 -2.3834,0.0781 -0.6477,0 -1.3676,-0.0781 -2.0888,-0.0781 -0.1661,0 -0.6279,-0.0584 -0.6279,0.2735 0,0.6834 2.088,0.1368 2.088,1.9134 l 0,9.3751 c 0,1.8552 -1.3307,1.3478 -1.3307,2.0307 0,0.0974 0.037,0.2342 0.2039,0.2342 0.4795,0 1.275,-0.0778 2.0688,-0.0778 1.4414,0 2.1251,0.0778 2.8087,0.0778 0.4248,0 0.5913,-0.0778 0.5913,-0.2925 0,-0.6246 -2.0693,0.2735 -2.0693,-2.1291"
                                 style="fill:#00674c;fill-opacity:1;fill-rule:nonzero;stroke:none"
                                 id="path4146" /><path
                                 d="m 1622.1155,91.5037 c 0,1.9922 -1.7742,1.6405 -1.7742,2.4218 0,0.3324 0.3699,0.2342 0.5733,0.2342 0.4986,0 0.9973,-0.0778 1.5885,-0.0778 0.6473,0 1.2752,0.0778 2.1806,0.0778 0.2405,0 0.702,0.0199 0.702,-0.254 0,-0.9174 -2.3652,0.4107 -2.3652,-3.3394 l 0,-6.6401 c 0,-0.176 0.037,-0.3123 0.1482,-0.3123 0.092,0 0.2031,0.0974 0.3324,0.2538 l 8.8878,10.1552 c 0.1288,0.1567 0.2219,0.2747 0.4802,0.2747 0.2218,0 0.2218,-0.1569 0.2218,-0.5865 l 0,-10.9566 c 0,-2.0506 1.5707,-1.5823 1.5707,-2.1676 0,-0.0587 0,-0.2541 -0.3508,-0.2541 -0.1666,0 -0.8128,0.0781 -1.9779,0.0781 -1.2742,0 -1.8106,-0.0781 -2.1052,-0.0781 -0.2416,0 -0.2965,0.1954 -0.2965,0.3314 0,0.6451 2.2551,0.2936 2.2551,2.0707 l 0,6.5033 c 0,0.4881 -0.038,0.7231 -0.1482,0.7231 -0.1106,0 -0.3331,-0.235 -0.573,-0.5079 l -7.4285,-8.6129 c -0.3316,-0.3713 -0.1098,-0.5077 -0.7012,-0.5077 -0.9794,0 -1.4608,0.0781 -1.9409,0.0781 -0.3509,0 -0.6833,-0.0781 -1.0341,-0.0781 -0.2222,0 -0.3146,0.1562 -0.3146,0.3314 0,0.9379 2.0697,-0.3314 2.0697,3.4184"
                                 style="fill:#00674c;fill-opacity:1;fill-rule:nonzero;stroke:none"
                                 id="path4148" /><path
                                 d="m 1647.709,81.6216 c 0,-0.3123 0,-0.7421 -0.2772,-0.7421 -0.2963,0 -0.3332,0.547 -0.74,0.547 -0.4981,0 -2.0506,-1.2694 -4.6186,-1.2694 -4.6561,0 -6.5594,4.3159 -6.5594,7.5973 0,1.5425 0.8315,6.5432 6.2457,6.5432 2.0133,0 4.0644,-0.8994 5.8201,-1.9147 0.1665,-0.0979 0.1848,-0.1956 0.1848,-0.508 0,-0.2736 -0.055,-0.8205 -0.055,-1.6206 0,-2.4999 1.2746,-1.4452 1.2746,-2.2855 0,-0.1951 -0.1104,-0.2729 -0.2031,-0.2729 -0.6656,0 -1.3124,0.0778 -1.9952,0.0778 -0.869,0 -1.7189,-0.0778 -2.5875,-0.0778 -0.314,0 -0.9053,-0.1565 -0.9053,0.4102 0,0.7419 2.1987,-0.5863 2.1987,2.4602 0,1.1334 -0.055,2.7737 -3.3812,2.7737 -2.9933,0 -4.2866,-3.5544 -4.2866,-6.23 0,-4.9413 2.4392,-6.1326 4.1571,-6.1326 4.8595,0 4.8595,4.2575 5.266,4.2575 0.3516,0 0.4625,-0.0978 0.4625,-0.3516"
                                 style="fill:#00674c;fill-opacity:1;fill-rule:nonzero;stroke:none"
                                 id="path4150" /><path
                                 d="m 1662.4849,82.3836 c 0,-1.9144 1.3291,-1.0743 1.3291,-1.8165 0,-0.1762 -0.073,-0.2343 -0.3872,-0.2343 -0.7945,0 -1.4783,0.0781 -2.4394,0.0781 -1.1451,0 -1.6258,-0.0781 -2.3838,-0.0781 -0.2586,0 -0.4242,-0.0391 -0.4242,0.3121 0,0.5665 2.0315,-0.1358 2.0315,2.0117 l 0,2.7542 c 0,0.4296 -0.1099,0.8785 -0.6462,0.8785 l -5.488,0 c -0.3883,0 -0.4613,-0.2538 -0.4613,-0.7813 l 0,-3.105 c 0,-1.7388 1.4222,-1.1718 1.4222,-1.7776 0,-0.1946 -0.1665,-0.2926 -0.4247,-0.2926 -0.5362,0 -1.2748,0.0781 -2.3844,0.0781 -0.9599,0 -1.5148,-0.0781 -2.0696,-0.0781 -0.3507,0 -0.9046,0.0196 -0.9046,0.3121 0,0.7427 2.0873,-0.1167 2.0873,2.0117 l 0,8.711 c 0,2.4218 -1.5694,1.7183 -1.5694,2.4996 0,0.2541 0.1836,0.2925 0.4063,0.2925 0.9234,0 1.6994,-0.0778 2.4763,-0.0778 1.3292,0 1.9402,0.0778 2.697,0.0778 0.5918,0 0.5543,-0.1561 0.5543,-0.2732 0,-0.7029 -2.2907,0 -2.2907,-2.4218 l 0,-3.0656 c 0,-0.8597 0.055,-1.055 0.9044,-1.055 l 4.9343,0 c 0.813,0 0.7568,0.2147 0.7568,1.0354 l 0,3.5153 c 0,1.8946 -1.3486,1.3666 -1.3486,2.0498 0,0.1373 0.1116,0.2151 0.3696,0.2151 0.9427,0 1.663,-0.0778 2.3284,-0.0778 0.7578,0 1.8469,0.0778 2.4578,0.0778 0.2407,0 0.3883,0.0199 0.3883,-0.2342 0,-0.7617 -1.9215,-0.039 -1.9215,-2.519"
                                 style="fill:#00674c;fill-opacity:1;fill-rule:nonzero;stroke:none"
                                 id="path4152" /><path
                                 d="m 1672.5374,89.356 c 0.4808,0 0.5733,0.195 1.1832,1.7185 0.2041,0.5268 0.3331,0.8786 0.3331,1.3084 0,1.1908 -1.3127,0.9759 -1.3127,1.5426 0,0.2734 0.2397,0.2342 0.5733,0.2342 0.5363,0 1.2202,-0.0778 2.0321,-0.0778 1.2193,0 1.719,0.0778 2.3833,0.0778 0.4993,0 0.6661,0.0392 0.6661,-0.2925 0,-0.6447 -0.9992,0.1173 -1.5905,-1.2699 l -4.9883,-11.9524 c -0.2396,-0.5855 -0.2766,-0.6246 -0.4427,-0.6246 -0.2397,0 -0.3338,0.3706 -0.4628,0.6836 l -5.0072,11.8156 c -0.4618,1.0937 -1.4043,0.9764 -1.4043,1.4251 0,0.2543 0.2961,0.2151 0.5542,0.2151 0.5364,0 1.0717,-0.0778 1.626,-0.0778 0.5913,0 1.1456,0.0778 1.7374,0.0778 0.3877,0 0.9601,0.1379 0.9601,-0.2732 0,-0.5277 -1.9946,-0.2148 -1.9946,-1.6209 0,-0.4684 0.258,-1.1521 0.3877,-1.5431 0.4252,-1.2887 0.812,-1.3665 1.1265,-1.3665 l 3.6401,0 z m -3.0857,-1.0549 c -0.3311,0 -0.5904,0.0194 -0.5904,-0.1757 0,-0.2734 0.1106,-0.4878 0.2022,-0.7226 l 1.4233,-3.4565 c 0.093,-0.2152 0.166,-0.235 0.2036,-0.235 0.093,0 0.036,0 0.147,0.1564 l 1.5175,3.5351 c 0.09,0.2348 0.2015,0.4492 0.2015,0.7226 0,0.1951 -0.2596,0.1757 -0.5913,0.1757"
                                 style="fill:#00674c;fill-opacity:1;fill-rule:evenodd;stroke:none"
                                 id="path4154" /><path
                                 d="m 1681.2521,85.3719 c 0,-0.137 0,-0.4886 0.13,-0.4886 0.075,0 0.1466,0.2147 0.2026,0.332 l 3.5861,8.4175 c 0.092,0.2146 0.183,0.5468 0.4618,0.5468 0.2951,0 0.3691,-0.2931 0.4797,-0.5468 l 3.4924,-7.7145 c 0.2771,-0.6446 0.4983,-1.035 0.5728,-1.035 0.1106,0 0.1291,0.293 0.1492,0.8788 l 0.2756,5.9178 c 0.1106,2.1675 -1.3297,1.5232 -1.3297,2.1873 0,0.3518 0.4607,0.2925 0.8495,0.2925 0.4247,0 0.8684,-0.0778 2.0696,-0.0778 0.5352,0 1.0531,0.0778 1.5893,0.0778 0.6465,0 0.8865,0 0.8865,-0.3319 0,-0.7223 -1.7009,0.1369 -1.792,-2.4213 l -0.3141,-8.652 c -0.075,-2.2454 1.736,-1.4842 1.736,-2.1874 0,-0.1562 -0.037,-0.2343 -0.5359,-0.2343 -0.5167,0 -0.8679,0.0781 -1.2001,0.0781 -0.2767,0 -0.6294,-0.0781 -1.0712,-0.0781 -0.3526,0 -0.4077,0.2541 -0.4621,0.3905 l -4.2869,9.4524 c -0.019,0.0582 -0.1847,0.4108 -0.2956,0.4108 -0.1117,0 -0.1673,-0.1373 -0.2398,-0.3129 l -4.0673,-9.3749 c -0.2565,-0.5855 -0.4417,-0.5659 -0.6453,-0.5659 -0.6104,0 -1.2937,0.0781 -1.7195,0.0781 -0.5902,0 -0.8684,-0.0781 -1.1065,-0.0781 -0.1301,0 -0.2237,0.1562 -0.2237,0.2735 0,0.8594 1.9781,-0.0585 1.8661,3.1637 l -0.2577,7.8509 c -0.073,2.0508 -1.5899,1.5627 -1.5899,2.2656 0,0.1171 0.075,0.2732 0.3517,0.2732 0.2782,0 0.9246,-0.0778 1.8296,-0.0778 0.8499,0 1.2387,0.0778 1.903,0.0778 0.5168,0 0.4432,-0.2342 0.4432,-0.3123 0,-0.8009 -2.0321,0.3322 -1.9215,-3.0069"
                                 style="fill:#00674c;fill-opacity:1;fill-rule:nonzero;stroke:none"
                                 id="path4156" /><path
                                 d="m 1700.0553,91.6013 c 0,2.3242 -2.0892,1.387 -2.0892,2.1487 0,0.4296 0.3147,0.4097 0.6469,0.4097 0.7389,0 1.3493,-0.0778 2.5879,-0.0778 1.2367,0 1.8466,0.0778 2.586,0.0778 0.5352,0 0.905,0.0593 0.905,-0.4097 0,-0.5469 -2.3649,0.0196 -2.3649,-2.3824 l 0,-8.8278 c 0,-0.9377 0.1852,-1.0355 0.9431,-1.0355 l 1.5704,0 c 2.1251,-0.0778 1.5344,2.0897 2.2733,2.0897 0.4807,0 0.2766,-0.7612 0.2385,-0.9955 l -0.2015,-1.7969 c -0.02,-0.1953 -0.02,-0.4688 -0.2957,-0.4688 -1.719,0 -2.9576,0.0781 -5.6542,0.0781 -2.698,0 -3.9356,-0.0781 -5.6545,-0.0781 -0.2783,0 -0.2783,0.2735 -0.2952,0.4688 l -0.2956,2.5773 c -0.039,0.254 -0.1487,0.6839 0.2385,0.6839 0.8325,0 0.2787,-2.5585 2.3668,-2.5585 l 1.5519,0 c 0.7574,0 0.9425,0.0978 0.9425,1.0355"
                                 style="fill:#00674c;fill-opacity:1;fill-rule:nonzero;stroke:none"
                                 id="path4158" /><path
                                 d="m 1710.2952,86.5823 c 0,-2.8321 0.9239,-5.5271 4.0472,-5.5849 2.3822,-0.0396 4.6365,2.226 4.6365,6.542 0,3.2422 -1.0351,5.8588 -4.2118,5.9176 -3.3084,0.0585 -4.4719,-4.0232 -4.4719,-6.8747 z m -2.2724,1.1136 c 0,3.9644 2.495,6.6017 6.2064,6.6017 5.8969,0 7.023,-4.7852 7.023,-7.5201 0,-4.1403 -2.7535,-6.6593 -6.3555,-6.6204 -4.4175,0.0391 -6.8739,3.2617 -6.8739,7.5388"
                                 style="fill:#00674c;fill-opacity:1;fill-rule:evenodd;stroke:none"
                                 id="path4160" /><path
                                 d="m 1723.8314,91.5037 c 0,1.9922 -1.7724,1.6405 -1.7724,2.4218 0,0.3324 0.3692,0.2342 0.5717,0.2342 0.4988,0 0.9981,-0.0778 1.5895,-0.0778 0.6467,0 1.2742,0.0778 2.1812,0.0778 0.2391,0 0.7019,0.0199 0.7019,-0.254 0,-0.9174 -2.3648,0.4107 -2.3648,-3.3394 l 0,-6.6401 c 0,-0.176 0.037,-0.3123 0.147,-0.3123 0.092,0 0.2036,0.0974 0.3333,0.2538 l 8.8858,10.1552 c 0.1301,0.1567 0.2232,0.2747 0.4828,0.2747 0.2207,0 0.2207,-0.1569 0.2207,-0.5865 l 0,-10.9566 c 0,-2.0506 1.5703,-1.5823 1.5703,-2.1676 0,-0.0587 0,-0.2541 -0.3507,-0.2541 -0.1661,0 -0.8129,0.0781 -1.9781,0.0781 -1.2742,0 -1.8105,-0.0781 -2.1056,-0.0781 -0.2401,0 -0.2957,0.1954 -0.2957,0.3314 0,0.6451 2.2553,0.2936 2.2553,2.0707 l 0,6.5033 c 0,0.4881 -0.038,0.7231 -0.1492,0.7231 -0.1105,0 -0.3315,-0.235 -0.5723,-0.5079 l -7.4276,-8.6129 c -0.3337,-0.3713 -0.1111,-0.5077 -0.7024,-0.5077 -0.9811,0 -1.4608,0.0781 -1.9405,0.0781 -0.3507,0 -0.6834,-0.0781 -1.0347,-0.0781 -0.2216,0 -0.3141,0.1562 -0.3141,0.3314 0,0.9379 2.0686,-0.3314 2.0686,3.4184"
                                 style="fill:#00674c;fill-opacity:1;fill-rule:nonzero;stroke:none"
                                 id="path4162" /><path
                                 d="m 1607.573,119.2561 c -0.071,-0.4875 -0.3523,-0.7858 -0.7911,-0.7858 -0.5854,0 -0.7425,0.3846 -0.7425,0.6668 0,0.3088 0.1951,0.5036 0.6016,0.6553 l 0.5201,0.1954 c 0.6557,0.244 0.9591,0.6286 0.9591,1.1273 0,0.6663 -0.531,1.1489 -1.3221,1.1489 -0.7479,0 -1.2789,-0.3957 -1.344,-1.2197 l 0.5203,0 c 0.043,0.4499 0.271,0.7642 0.8508,0.7642 0.4497,0 0.7749,-0.2872 0.7749,-0.6502 0,-0.3199 -0.2656,-0.5258 -0.6395,-0.6719 l -0.5255,-0.2059 c -0.6123,-0.2385 -0.9159,-0.5961 -0.9159,-1.1274 0,-0.7099 0.5905,-1.1378 1.2679,-1.1378 0.6829,0 1.2139,0.4063 1.2737,1.2408"
                                 style="fill:#00674c;fill-opacity:1;fill-rule:nonzero;stroke:none"
                                 id="path4164" /><path
                                 d="m 1610.9489,118.5682 -1.0297,0 0,-0.4881 2.5796,0 0,0.4881 -1.0297,0 0,3.6305 -0.5202,0"
                                 style="fill:#00674c;fill-opacity:1;fill-rule:nonzero;stroke:none"
                                 id="path4166" /><path
                                 d="m 1615.5833,118.7631 -0.7804,2.0211 1.5606,0 -0.7802,-2.0211 z m 0.9589,2.4765 -1.9181,0 -0.3741,0.9591 -0.5688,0 1.6743,-4.1186 0.4552,0 1.6747,4.1186 -0.5691,0"
                                 style="fill:#00674c;fill-opacity:1;fill-rule:nonzero;stroke:none"
                                 id="path4168" /><path
                                 d="m 1619.6973,118.5682 -1.0296,0 0,-0.4881 2.5795,0 0,0.4881 -1.0297,0 0,3.6305 -0.5202,0"
                                 style="fill:#00674c;fill-opacity:1;fill-rule:nonzero;stroke:none"
                                 id="path4170" /><path
                                 d="m 1623.2357,118.0801 2.1299,0 0,0.4881 -1.6096,0 0,1.3056 1.6096,0 0,0.488 -1.6096,0 0,1.3494 1.6096,0 0,0.4875 -2.1299,0"
                                 style="fill:#00674c;fill-opacity:1;fill-rule:nonzero;stroke:none"
                                 id="path4172" /><path
                                 d="m 1630.3617,118.0801 0.5203,0 0,2.471 c 0,0.6719 0.3737,1.2248 1.0946,1.2248 0.7205,0 1.0947,-0.5529 1.0947,-1.2248 l 0,-2.471 0.5203,0 0,2.6227 c 0,0.8888 -0.6722,1.5612 -1.6258,1.5612 -0.9322,0 -1.6041,-0.6724 -1.6041,-1.5612"
                                 style="fill:#00674c;fill-opacity:1;fill-rule:nonzero;stroke:none"
                                 id="path4174" /><path
                                 d="m 1638.5444,118.0801 0.5203,0 0,4.1186 -0.4878,0 -2.2109,-3.1866 -0.011,0 0,3.1866 -0.5201,0 0,-4.1186 0.4875,0 2.2112,3.1866 0.011,0"
                                 style="fill:#00674c;fill-opacity:1;fill-rule:nonzero;stroke:none"
                                 id="path4176" /><path
                                 d="m 1641.3081,118.0801 0.5201,0 0,4.1186 -0.5201,0"
                                 style="fill:#00674c;fill-opacity:1;fill-rule:nonzero;stroke:none"
                                 id="path4178" /><path
                                 d="m 1646.7214,118.0801 0.5529,0 -1.5228,4.1186 -0.4335,0 -1.5228,-4.1186 0.5528,0 1.1813,3.2896 0.011,0"
                                 style="fill:#00674c;fill-opacity:1;fill-rule:nonzero;stroke:none"
                                 id="path4180" /><path
                                 d="m 1649.2628,118.0801 2.1297,0 0,0.4881 -1.6095,0 0,1.3056 1.6095,0 0,0.488 -1.6095,0 0,1.3494 1.6095,0 0,0.4875 -2.1297,0"
                                 style="fill:#00674c;fill-opacity:1;fill-rule:nonzero;stroke:none"
                                 id="path4182" /><path
                                 d="m 1654.0586,120.1234 c 0.07,0.005 0.1465,0.005 0.4551,0.005 0.797,0 1.0731,-0.3469 1.0731,-0.7968 0,-0.4821 -0.3307,-0.7964 -0.8726,-0.7964 l -0.6556,0 0,1.5878 z m 0,0.3193 0,1.756 -0.5204,0 0,-4.1186 1.1868,0 c 0.7914,0 1.3822,0.4555 1.3822,1.2463 0,0.7371 -0.5801,1.1926 -1.2521,1.2302 l 1.6044,1.6421 -0.7318,0"
                                 style="fill:#00674c;fill-opacity:1;fill-rule:nonzero;stroke:none"
                                 id="path4184" /><path
                                 d="m 1660.3447,119.2561 c -0.071,-0.4875 -0.3523,-0.7858 -0.7909,-0.7858 -0.5857,0 -0.7425,0.3846 -0.7425,0.6668 0,0.3088 0.1949,0.5036 0.6017,0.6553 l 0.5199,0.1954 c 0.6555,0.244 0.9594,0.6286 0.9594,1.1273 0,0.6663 -0.5312,1.1489 -1.3225,1.1489 -0.7477,0 -1.2788,-0.3957 -1.3441,-1.2197 l 0.5204,0 c 0.044,0.4499 0.271,0.7642 0.8509,0.7642 0.45,0 0.7749,-0.2872 0.7749,-0.6502 0,-0.3199 -0.2658,-0.5258 -0.6396,-0.6719 l -0.5255,-0.2059 c -0.6124,-0.2385 -0.9158,-0.5961 -0.9158,-1.1274 0,-0.7099 0.5903,-1.1378 1.268,-1.1378 0.6828,0 1.2139,0.4063 1.2736,1.2408"
                                 style="fill:#00674c;fill-opacity:1;fill-rule:nonzero;stroke:none"
                                 id="path4186" /><path
                                 d="m 1662.9677,118.0801 0.5198,0 0,4.1186 -0.5198,0"
                                 style="fill:#00674c;fill-opacity:1;fill-rule:nonzero;stroke:none"
                                 id="path4188" /><path
                                 d="m 1666.4847,118.5682 -1.0294,0 0,-0.4881 2.5788,0 0,0.4881 -1.0295,0 0,3.6305 -0.5199,0"
                                 style="fill:#00674c;fill-opacity:1;fill-rule:nonzero;stroke:none"
                                 id="path4190" /><path
                                 d="m 1672.3635,118.0801 0.6074,0 -1.393,2.4765 0,1.6421 -0.5204,0 0,-1.6421 -1.3925,-2.4765 0.6073,0 1.0454,1.9292"
                                 style="fill:#00674c;fill-opacity:1;fill-rule:nonzero;stroke:none"
                                 id="path4192" /><path
                                 d="m 1679.8149,121.7759 c 0.8396,0 1.631,-0.6608 1.631,-1.6365 0,-0.9752 -0.7914,-1.6365 -1.631,-1.6365 -0.8397,0 -1.6316,0.6613 -1.6316,1.6365 0,0.9757 0.7919,1.6365 1.6316,1.6365 z m 0,-3.7606 c 1.3981,0 2.1838,1.1052 2.1838,2.1241 0,1.0189 -0.7857,2.1246 -2.1838,2.1246 -1.3982,0 -2.1838,-1.1057 -2.1838,-2.1246 0,-1.0189 0.7856,-2.1241 2.1838,-2.1241"
                                 style="fill:#00674c;fill-opacity:1;fill-rule:nonzero;stroke:none"
                                 id="path4194" /><path
                                 d="m 1684.1444,118.0801 2.1299,0 0,0.4881 -1.6095,0 0,1.3056 1.6095,0 0,0.488 -1.6095,0 0,1.8369 -0.5204,0"
                                 style="fill:#00674c;fill-opacity:1;fill-rule:nonzero;stroke:none"
                                 id="path4196" /><path
                                 d="m 1693.98,118.0801 0.5205,0 0,4.1186 -0.4876,0 -2.211,-3.1866 -0.011,0 0,3.1866 -0.5197,0 0,-4.1186 0.4874,0 2.211,3.1866 0.011,0"
                                 style="fill:#00674c;fill-opacity:1;fill-rule:nonzero;stroke:none"
                                 id="path4198" /><path
                                 d="m 1696.7655,118.0801 2.1298,0 0,0.4881 -1.6094,0 0,1.3056 1.6094,0 0,0.488 -1.6094,0 0,1.3494 1.6094,0 0,0.4875 -2.1298,0"
                                 style="fill:#00674c;fill-opacity:1;fill-rule:nonzero;stroke:none"
                                 id="path4200" /><path
                                 d="m 1705.5007,118.0801 0.5533,0 -1.2686,4.1186 -0.4005,0 -0.9918,-3.2624 -0.011,0 -0.9913,3.2624 -0.4011,0 -1.2681,-4.1186 0.5527,0 0.9215,3.1269 0.01,0 0.9374,-3.1269 0.4885,0 0.9374,3.1379 0.01,0"
                                 style="fill:#00674c;fill-opacity:1;fill-rule:nonzero;stroke:none"
                                 id="path4202" /><path
                                 d="m 1713.0337,118.0801 0.6073,0 -1.393,2.4765 0,1.6421 -0.5203,0 0,-1.6421 -1.3925,-2.4765 0.6067,0 1.0459,1.9292"
                                 style="fill:#00674c;fill-opacity:1;fill-rule:nonzero;stroke:none"
                                 id="path4204" /><path
                                 d="m 1717.4517,121.7759 c 0.8392,0 1.6311,-0.6608 1.6311,-1.6365 0,-0.9752 -0.7919,-1.6365 -1.6311,-1.6365 -0.8401,0 -1.6315,0.6613 -1.6315,1.6365 0,0.9757 0.7914,1.6365 1.6315,1.6365 z m 0,-3.7606 c 1.3977,0 2.1838,1.1052 2.1838,2.1241 0,1.0189 -0.7861,2.1246 -2.1838,2.1246 -1.3986,0 -2.1838,-1.1057 -2.1838,-2.1246 0,-1.0189 0.7852,-2.1241 2.1838,-2.1241"
                                 style="fill:#00674c;fill-opacity:1;fill-rule:nonzero;stroke:none"
                                 id="path4206" /><path
                                 d="m 1722.3011,120.1234 c 0.071,0.005 0.1467,0.005 0.4556,0.005 0.7965,0 1.0726,-0.3469 1.0726,-0.7968 0,-0.4821 -0.3305,-0.7964 -0.872,-0.7964 l -0.6562,0 0,1.5878 z m 0,0.3193 0,1.756 -0.5198,0 0,-4.1186 1.1867,0 c 0.7909,0 1.3817,0.4555 1.3817,1.2463 0,0.7371 -0.5794,1.1926 -1.2516,1.2302 l 1.6038,1.6421 -0.7317,0"
                                 style="fill:#00674c;fill-opacity:1;fill-rule:nonzero;stroke:none"
                                 id="path4208" /><path
                                 d="m 1728.8582,118.0801 0.6665,0 -1.8481,2.0106 1.8913,2.108 -0.7477,0 -1.6419,-1.8805 0,1.8805 -0.5203,0 0,-4.1186 0.5203,0 0,1.8861"
                                 style="fill:#00674c;fill-opacity:1;fill-rule:nonzero;stroke:none"
                                 id="path4210" /></g></g></g></g></g></g></g></g></g></g></g></g></g></g></svg>