<?xml version="1.0" encoding="utf-8"?>
<svg xmlns="http://www.w3.org/2000/svg" x="0px" y="0px" width="250px" height="248.3px">
<path fill="#1E4D2B" d="M237.8,110.2c-0.2-1.2-0.3-2.4-0.3-3.5c0-7.6,3.3-15.6,3.3-23.2c0-3.1-0.5-6.1-2-9
	c-5.6-11.1-20.2-13.5-28.3-22.9c-7.5-8.7-8.9-23.4-18.4-30.8c-3.5-2.7-7.9-3.4-12.6-3.4c-4.7,0-9.8,0.7-14.6,0.7
	c-2.8,0-5.6-0.2-8.1-1c-10.5-3-20-16-31.9-16c-12.5,0-21.3,12.9-32.4,16.1c-2.7,0.8-5.7,1-8.8,1c-4.3,0-8.8-0.4-13-0.4
	c-5.1,0-10,0.6-13.8,3.5c-9.5,7.2-11,22.2-18.6,31.1c-7.4,8.6-22.5,12.2-27.6,23.1C9.3,78.2,8.8,81,8.8,84c0,7.6,3.2,15.5,3.2,23.5
	c0,1,0,2-0.2,3C10.7,120.7,1,131.3,1,142.2c0,0.8,0.1,1.6,0.2,2.5c1.8,12.8,15.2,18.5,20,29c5,10.7,1.8,25.6,9.6,34.5
	c7.7,8.7,23.6,8.4,33,14.4c9.7,6.1,15.7,19.5,26.5,23.8c1.7,0.7,3.5,1,5.3,1c9,0,18.7-7,28.4-7c10.2,0,20.3,7.1,29.7,7.1
	c1.9,0,3.7-0.3,5.5-1c10.6-4.1,17.4-17.9,26.8-23.9c9.8-6.4,24.9-5.3,32.9-14.2c8-9,4.5-23.8,9.5-34.5c4.7-10.1,17.4-18.1,20.1-29.6
	c0.3-1.3,0.4-2.5,0.4-3.7C249,129.9,239.4,120.6,237.8,110.2"/>
<path fill="#FFFFFF" d="M210.9,126.5c0,47.4-38.5,85.9-85.9,85.9
	c-47.5,0-85.9-38.5-85.9-85.9c0-47.5,38.5-85.9,85.9-85.9C172.5,40.6,210.9,79,210.9,126.5z M236.4,126.1
	c0,61.4-50.1,111.4-111.4,111.4c-61.4,0-111.4-50.1-111.4-111.4C13.6,64.7,63.6,14.7,125,14.7C186.4,14.7,236.4,64.7,236.4,126.1z
	 M213.6,126.5c0-48.9-39.7-88.6-88.6-88.6c-48.9,0-88.6,39.7-88.6,88.6c0,48.9,39.7,88.6,88.6,88.6
	C173.9,215.1,213.6,175.4,213.6,126.5z"/>
<path fill="#1E4D2B" d="M187.6,106.2c-3.8-1.6-5.7-4-6.2-5.3l-0.3-0.7l-0.4,0.6c-1.5,1.9-3.2,3.3-4.8,3.4c-0.3-0.3-0.7-0.8-1.7-1.1
	c0-0.2,0-0.3,0-0.5c0-1.8,0.7-2.9,1.7-3.7c1.1-0.8,2.7-1.3,4.5-1.9l0.6-0.2l-0.3-0.5c-2.5-3.4-6.1-4.5-8.8-4.5
	c-4.9,0-6.8,2.5-9.5,3.5l-1,0.4l1,0.4c3.7,1.6,6,3.2,6,6.6c0,0.1,0,0.1,0,0.2c-1.2,0.3-2.1,0.4-3.2,0.4c-0.3,0-0.6,0-0.8,0
	c-0.5-2.9-1.6-5.1-3.4-5.2l-68.3,0c-1.1,0-1.9,1-2.5,2.3c-0.3,0.8-0.6,1.7-0.8,2.8H64l-0.1,0.2c-0.5,0.6-0.8,1.4-0.8,2.1
	c0,0.7,0.2,1.5,0.7,2.3L64,108h25.2c0.2,1.1,0.4,2.2,0.8,3c0.6,1.4,1.4,2.3,2.5,2.3h68.3c0,0,0,0,0.1,0c1.9-0.1,3-2.4,3.4-5.4
	c1.9,0.1,2.5,0.6,4.4,1.1c0,0.3,0,0.5,0,0.7c0,1.6-0.4,2.5-1.5,4l-0.2,0.3l0.3,0.3c1.8,1.4,2.9,3,3.7,4.8l0.6,1.3l0.3-1.4
	c0.3-1.9,1.6-3.7,2.9-4.9l0.3-0.3l-0.3-0.3c-0.9-1.1-1.2-2.3-1.2-3.5c0-0.3,0-0.7,0.1-1c0.4,0,0.8-0.2,1.3-0.5
	c0.3-0.2,0.7-0.4,0.8-0.8c2.1,0.1,3.7,1.5,5.1,2.9l0.3,0.3l0.3-0.3c1.6-1.6,3.1-2.3,6.3-3.9l0.9-0.4L187.6,106.2z M132.3,112.7
	L132.3,112.7c-0.6-0.6-1.1-1.1-1.6-1.6h13.2c-0.3,0.5-0.6,1.1-0.9,1.6H132.3z M108.3,112.7c-0.5-0.5-1.1-1.1-1.6-1.6h11.9
	c-0.3,0.5-0.6,1.1-0.9,1.6H108.3z M98.4,106.6c0.4,0.6,0.8,1.2,1.2,1.7c-0.9,1.4-1.7,2.7-2.4,4.2h-2.5
	C95.9,110.5,97.1,108.5,98.4,106.6 M94.6,98.8h2.3c0.8,1.5,1.8,3.2,2.7,4.6c0.2,0.3,0.3,0.5,0.5,0.8c0.4,0.6,0.8,1.1,1.2,1.7
	c0.2,0.2,0.4,0.5,0.5,0.7c1.5,2,3.2,4,5.1,5.9h-2.5c-1.4-1.4-2.6-2.8-3.7-4.3c-0.2-0.2-0.4-0.5-0.6-0.7c-0.4-0.6-0.8-1.1-1.2-1.7
	c-0.2-0.3-0.3-0.5-0.5-0.8C97.1,103.1,95.8,100.9,94.6,98.8 M151.8,106.1h5.5c0,0.6,0.1,1.2,0.1,1.8h-4.2
	C152.8,107.3,152.3,106.7,151.8,106.1 M157.3,105.5H152c0.5-0.6,0.9-1.2,1.4-1.8h4C157.3,104.2,157.3,104.8,157.3,105.5 M157.5,103
	H154c0.5-0.6,1-1.2,1.6-1.8h2.4C157.8,101.7,157.6,102.3,157.5,103 M151.1,105.2c-0.4-0.6-0.8-1.1-1.2-1.7c1.2-1.5,2.6-3.2,4-4.7
	h2.5C154.6,100.9,152.7,103.1,151.1,105.2 M149.5,102.7c-0.3-0.5-0.6-1-0.9-1.5h2.2C150.3,101.7,149.9,102.2,149.5,102.7
	 M151.3,100.5h-3.2c-0.3-0.6-0.6-1.2-1-1.7h5.7C152.3,99.3,151.8,99.9,151.3,100.5 M143,98.8c0.3,0.6,0.6,1.1,0.9,1.7h-13.1
	c0.5-0.6,1-1.1,1.6-1.7l0.1-0.1L143,98.8L143,98.8z M149.5,109c0.4,0.5,0.7,0.9,1.1,1.4h-1.9C149,110,149.2,109.5,149.5,109
	 M146.5,112.5h-2.5c1.1-2,2.3-4,3.6-5.9c0.4,0.6,0.8,1.2,1.2,1.7C148.1,109.7,147.3,111.1,146.5,112.5 M104.5,108.6h15.6
	c-0.4,0.6-0.7,1.2-1.1,1.8h-12.9C105.5,109.8,105,109.2,104.5,108.6 M100.2,102.7c-0.3-0.5-0.6-1-0.9-1.5h2.2
	C101,101.7,100.6,102.2,100.2,102.7 M104.6,98.9h2.5c-2,2-3.8,4.2-5.4,6.3c-0.4-0.6-0.8-1.1-1.2-1.7
	C101.8,102,103.2,100.4,104.6,98.9 M120.1,103h-15.5c0.5-0.6,1-1.2,1.6-1.8H119C119.4,101.8,119.7,102.4,120.1,103 M104.1,103.7
	h16.4c0.4,0.6,0.8,1.2,1.2,1.8h-19C103.1,104.9,103.6,104.3,104.1,103.7 M121.7,106.1c-0.4,0.6-0.8,1.2-1.2,1.8h-16.6
	c-0.5-0.6-1-1.2-1.4-1.8H121.7z M122.4,106.6c0.4,0.6,0.8,1.2,1.2,1.7c-0.9,1.4-1.7,2.7-2.4,4.2h-2.5
	C119.9,110.5,121.1,108.5,122.4,106.6 M124.2,109c0.4,0.5,0.7,0.9,1.1,1.4h-1.9C123.7,110,124,109.5,124.2,109 M124.7,108.3
	c-0.2-0.2-0.4-0.5-0.6-0.7c-0.4-0.6-0.8-1.1-1.2-1.7c-0.2-0.3-0.3-0.5-0.5-0.8c-1.3-1.9-2.6-4.1-3.7-6.2h2.3
	c0.8,1.5,1.7,3.2,2.7,4.6c0.2,0.3,0.3,0.5,0.5,0.8c0.4,0.6,0.8,1.1,1.2,1.7c0.2,0.2,0.4,0.5,0.5,0.7c1.5,2,3.2,4,5.1,5.9h-2.5
	C127,111.1,125.8,109.7,124.7,108.3 M125.8,105.2c-0.4-0.6-0.8-1.1-1.2-1.7c1.2-1.5,2.6-3.2,4-4.7h2.5
	C129.2,100.9,127.4,103.1,125.8,105.2 M145.8,107.9H128c-0.5-0.6-1-1.2-1.4-1.8H147C146.6,106.7,146.2,107.3,145.8,107.9
	 M124.2,102.7c-0.3-0.5-0.6-1-0.9-1.5h2.2C125,101.7,124.6,102.2,124.2,102.7 M128.5,108.6h16.8c-0.4,0.6-0.7,1.2-1.1,1.8h-14.2
	C129.6,109.8,129,109.2,128.5,108.6 M126.7,105.5c0.5-0.6,0.9-1.2,1.4-1.8h17.7c0.4,0.6,0.8,1.2,1.2,1.8H126.7z M128.7,103
	c0.5-0.6,1-1.2,1.6-1.8h14.1c0.3,0.6,0.7,1.2,1.1,1.8H128.7z M126,100.5h-3.2c-0.3-0.6-0.6-1.2-1-1.7h5.7
	C127.1,99.3,126.5,99.9,126,100.5 M117.7,98.8c0.3,0.6,0.6,1.1,0.9,1.7h-11.8c0.5-0.6,1-1.1,1.6-1.7l0.1-0.1L117.7,98.8L117.7,98.8z
	 M102,100.5h-3.2c-0.3-0.6-0.6-1.2-1-1.7h5.7C103,99.3,102.5,99.9,102,100.5 M101.3,110.4h-1.9c0.3-0.5,0.5-0.9,0.8-1.4
	C100.5,109.5,100.9,110,101.3,110.4 M97.6,105.5h-7.9c0-0.6,0.1-1.2,0.1-1.8h6.6C96.8,104.3,97.2,104.9,97.6,105.5 M89.7,106.1h8
	c-0.4,0.6-0.8,1.2-1.2,1.8h-6.6C89.8,107.4,89.7,106.8,89.7,106.1 M99,111.1h2.9c0.5,0.5,1,1.1,1.5,1.6h-5.2
	C98.4,112.2,98.7,111.6,99,111.1 M123,111.1h2.9c0.5,0.5,1,1.1,1.5,1.6h-5.2C122.4,112.2,122.7,111.6,123,111.1 M148.3,111.1h2.9
	c0.5,0.5,1,1.1,1.5,1.6h-5.2C147.7,112.2,148,111.6,148.3,111.1 M153.7,112.6c-1.4-1.4-2.6-2.8-3.7-4.3c-0.2-0.2-0.4-0.5-0.6-0.7
	c-0.4-0.6-0.8-1.1-1.2-1.7c-0.2-0.3-0.3-0.5-0.5-0.8c-1.3-1.9-2.6-4.1-3.8-6.2l2.3,0c0.8,1.5,1.8,3.2,2.7,4.6
	c0.2,0.3,0.3,0.5,0.5,0.8c0.4,0.6,0.8,1.1,1.2,1.7c0.2,0.2,0.4,0.5,0.5,0.7c1.5,2,3.2,4,5.1,5.9H153.7z M153.8,108.6h3.7
	c0.1,0.7,0.3,1.2,0.5,1.8h-2.6C154.8,109.8,154.3,109.2,153.8,108.6 M158.2,100.5C158.2,100.5,158.2,100.5,158.2,100.5l-2.1,0
	c0.5-0.6,1-1.1,1.6-1.7l0.1-0.1h1.5C158.9,99.2,158.5,99.8,158.2,100.5 M92.5,98.8h1.1l0,0.1c0.3,0.6,0.6,1.1,0.9,1.7h-3.9
	C91.2,99.3,91.9,98.7,92.5,98.8 M90.4,101.2H95c0.4,0.6,0.7,1.2,1.1,1.8h-6.1C90,102.3,90.2,101.7,90.4,101.2 M89.9,108.6h6.1
	c-0.4,0.6-0.7,1.2-1.1,1.8h-4.5C90.2,109.9,90.1,109.3,89.9,108.6 M90.7,111.1h3.8c-0.3,0.5-0.6,1.1-0.9,1.6h-1.2
	C91.9,112.7,91.2,112.2,90.7,111.1 M157.6,112.7L157.6,112.7c-0.6-0.6-1.1-1.1-1.6-1.6h2.3c0.3,0.7,0.6,1.2,1.1,1.6H157.6z
	 M124.6,74L96,96.4l59-0.1L125,73.7L124.6,74z M151.1,95l-51.4,0.1L125,75.3L151.1,95z M117,85.8C117,85.8,117,85.8,117,85.8
	L117,85.8z M116.6,85.1c2.3-1.1,3.1-1.9,4.1-2.5c1-0.6,2.2-0.8,5.1-0.7c0.2,0,0.4,0,0.5,0c3.7,0.1,5.1,1.5,5.9,2.1l-0.5,0.7
	c-1-0.7-1.9-1.8-5.5-2c-0.2,0-0.3,0-0.5,0c-2.9,0-3.8,0.2-4.7,0.6c-0.9,0.5-1.7,1.3-4.1,2.5L116.6,85.1z M125.3,92.6
	c-2.6,0-4.5-1-6.7-1.7l0.2-0.8c2.3,0.7,4.1,1.6,6.5,1.6c2.8,0,4.1-0.6,6.7-1.6l0.3,0.8C129.8,91.9,128.2,92.6,125.3,92.6L125.3,92.6
	z M130.6,85.7L130.6,85.7c-1.6-1.1-3.4-1.6-5.5-1.6c-1.9,0-3.6,0.5-5.1,1.6l-0.3,0.2l0,0c-1.3,0.9-2.7,2.1-3.9,2.9l0.5,0.7
	c1.2-0.9,2.5-2,3.8-2.8c1.3,2.3,2.3,3.6,4.6,3.5c0,0,0.1,0,0.1,0c2.9,0,4-1.3,5.5-3.6c1.3,0.9,2.9,2.2,4.2,3l0.2-0.4l0.2-0.4
	C133.8,88,132,86.7,130.6,85.7 M125.5,86.8c-0.7,0-1.2-0.3-1.2-0.7c0-0.4,0.5-0.7,1.2-0.7c0.7,0,1.2,0.3,1.2,0.7
	C126.7,86.5,126.1,86.8,125.5,86.8 M117.1,77.2l-0.9,0.7l-6.8-13.6c0.3-0.1,0.7-0.2,1-0.3L117.1,77.2z M122.6,72.9l-1,0.8L119.9,62
	c0.4,0,0.7-0.1,1.1-0.1L122.6,72.9z M141.7,83.7l-0.9-0.7l14.7-10.4c0.3,0.2,0.6,0.5,0.8,0.7L141.7,83.7z M119.7,75.2l-0.9,0.7
	l-4-13.1c0.4-0.1,0.7-0.1,1.1-0.2L119.7,75.2z M134,77.9l-0.9-0.7l6.6-13.2c0.3,0.1,0.7,0.2,1,0.3L134,77.9z M136.5,79.8l-0.9-0.6
	l9.4-13.1c0.3,0.2,0.7,0.3,1,0.5L136.5,79.8z M131.3,75.8l-0.9-0.7l3.8-12.5c0.4,0.1,0.7,0.1,1.1,0.2L131.3,75.8z M139,81.6
	l-0.9-0.6l12.1-12.2c0.3,0.2,0.6,0.4,0.9,0.6L139,81.6z M128.6,73.8l-1-0.7l1.6-11.1c0.4,0,0.7,0.1,1.1,0.1L128.6,73.8z M104.1,87.3
	l-1,0.8L86,82.8c0.2-0.3,0.4-0.6,0.6-0.9L104.1,87.3z M147.8,88.3l-1.1-0.8l17-5.2c0.2,0.3,0.4,0.6,0.6,0.9L147.8,88.3z M151.8,91.3
	l-1.2-0.9l15.9-2.4c0.1,0.3,0.2,0.7,0.4,1L151.8,91.3z M114.8,79l-0.8,0.7l-9.6-13.3c0.3-0.2,0.7-0.3,1-0.4L114.8,79z M109.8,82.9
	l-0.9,0.7L94.1,73c0.3-0.2,0.6-0.5,0.8-0.7L109.8,82.9z M144.6,85.9l-1-0.7l16.4-8c0.2,0.3,0.5,0.6,0.7,0.9L144.6,85.9z M124.5,71.4
	L124.5,71.4l0-9.6c0.2,0,0.4,0,0.6,0c0.2,0,0.3,0,0.5,0v9.7L125,71L124.5,71.4z M112.5,80.8l-0.8,0.7L99.3,69.1
	c0.3-0.2,0.6-0.4,0.9-0.6L112.5,80.8z M100.5,90.2l-1.2,0.9l-16-2.4c0.1-0.3,0.3-0.7,0.4-1L100.5,90.2z M107.1,85l-0.9,0.7l-16.6-8
	c0.2-0.3,0.5-0.6,0.7-0.8L107.1,85z M102.6,148.4c0,0.4-0.3,0.6-0.6,0.6c-0.3,0-0.6-0.3-0.6-0.6c0-0.3,0.3-0.6,0.6-0.6
	C102.3,147.7,102.6,148,102.6,148.4 M106.2,148.4c0-0.3-0.3-0.6-0.6-0.6c-0.3,0-0.6,0.3-0.6,0.6c0,0.4,0.3,0.6,0.6,0.6
	C105.9,149,106.2,148.7,106.2,148.4 M109.7,148.4c0-0.3-0.3-0.6-0.6-0.6c-0.4,0-0.6,0.3-0.6,0.6c0,0.4,0.3,0.6,0.6,0.6
	C109.4,149,109.7,148.7,109.7,148.4 M113.2,148.4c0-0.3-0.3-0.6-0.6-0.6s-0.6,0.3-0.6,0.6c0,0.4,0.3,0.6,0.6,0.6
	S113.2,148.7,113.2,148.4 M116.7,148.4c0-0.3-0.3-0.6-0.6-0.6c-0.3,0-0.6,0.3-0.6,0.6c0,0.4,0.3,0.6,0.6,0.6
	C116.5,149,116.7,148.7,116.7,148.4 M120.3,148.4c0-0.3-0.3-0.6-0.6-0.6c-0.4,0-0.6,0.3-0.6,0.6c0,0.4,0.3,0.6,0.6,0.6
	C120,149,120.3,148.7,120.3,148.4 M123.8,148.4c0-0.3-0.3-0.6-0.6-0.6c-0.3,0-0.6,0.3-0.6,0.6c0,0.4,0.3,0.6,0.6,0.6
	C123.5,149,123.8,148.7,123.8,148.4 M127.3,148.4c0-0.3-0.3-0.6-0.6-0.6c-0.4,0-0.6,0.3-0.6,0.6c0,0.4,0.3,0.6,0.6,0.6
	C127,149,127.3,148.7,127.3,148.4 M130.9,148.4c0-0.3-0.3-0.6-0.6-0.6c-0.3,0-0.6,0.3-0.6,0.6c0,0.4,0.3,0.6,0.6,0.6
	C130.6,149,130.9,148.7,130.9,148.4 M134.4,148.4c0-0.3-0.3-0.6-0.6-0.6c-0.3,0-0.6,0.3-0.6,0.6c0,0.4,0.3,0.6,0.6,0.6
	C134.1,149,134.4,148.7,134.4,148.4 M137.9,148.4c0-0.3-0.3-0.6-0.6-0.6c-0.3,0-0.6,0.3-0.6,0.6c0,0.4,0.3,0.6,0.6,0.6
	C137.6,149,137.9,148.7,137.9,148.4 M141.4,148.4c0-0.3-0.3-0.6-0.6-0.6s-0.6,0.3-0.6,0.6c0,0.4,0.3,0.6,0.6,0.6
	S141.4,148.7,141.4,148.4 M145,148.4c0-0.3-0.3-0.6-0.6-0.6c-0.3,0-0.6,0.3-0.6,0.6c0,0.4,0.3,0.6,0.6,0.6
	C144.7,149,145,148.7,145,148.4 M148.5,148.4c0-0.3-0.3-0.6-0.6-0.6c-0.3,0-0.6,0.3-0.6,0.6c0,0.4,0.3,0.6,0.6,0.6
	C148.2,149,148.5,148.7,148.5,148.4 M102.6,152.2c0-0.3-0.3-0.6-0.6-0.6c-0.3,0-0.6,0.3-0.6,0.6c0,0.4,0.3,0.6,0.6,0.6
	C102.3,152.8,102.6,152.5,102.6,152.2 M106.2,152.2c0-0.3-0.3-0.6-0.6-0.6c-0.3,0-0.6,0.3-0.6,0.6c0,0.4,0.3,0.6,0.6,0.6
	C105.9,152.8,106.2,152.5,106.2,152.2 M109.7,152.2c0-0.3-0.3-0.6-0.6-0.6c-0.4,0-0.6,0.3-0.6,0.6c0,0.4,0.3,0.6,0.6,0.6
	C109.4,152.8,109.7,152.5,109.7,152.2 M113.2,152.2c0-0.3-0.3-0.6-0.6-0.6s-0.6,0.3-0.6,0.6c0,0.4,0.3,0.6,0.6,0.6
	S113.2,152.5,113.2,152.2 M123.8,152.2c0-0.3-0.3-0.6-0.6-0.6c-0.3,0-0.6,0.3-0.6,0.6c0,0.4,0.3,0.6,0.6,0.6
	C123.5,152.8,123.8,152.5,123.8,152.2 M127.3,152.2c0-0.3-0.3-0.6-0.6-0.6c-0.4,0-0.6,0.3-0.6,0.6c0,0.4,0.3,0.6,0.6,0.6
	C127,152.8,127.3,152.5,127.3,152.2 M141.4,152.2c0-0.3-0.3-0.6-0.6-0.6s-0.6,0.3-0.6,0.6c0,0.4,0.3,0.6,0.6,0.6
	S141.4,152.5,141.4,152.2 M145,152.2c0-0.3-0.3-0.6-0.6-0.6c-0.3,0-0.6,0.3-0.6,0.6c0,0.4,0.3,0.6,0.6,0.6
	C144.7,152.8,145,152.5,145,152.2 M148.5,152.2c0-0.3-0.3-0.6-0.6-0.6c-0.3,0-0.6,0.3-0.6,0.6c0,0.4,0.3,0.6,0.6,0.6
	C148.2,152.8,148.5,152.5,148.5,152.2 M102.6,156c0-0.3-0.3-0.6-0.6-0.6c-0.3,0-0.6,0.3-0.6,0.6c0,0.4,0.3,0.6,0.6,0.6
	C102.3,156.6,102.6,156.3,102.6,156 M106.2,156c0-0.3-0.3-0.6-0.6-0.6c-0.3,0-0.6,0.3-0.6,0.6c0,0.4,0.3,0.6,0.6,0.6
	C105.9,156.6,106.2,156.3,106.2,156 M109.7,156c0-0.3-0.3-0.6-0.6-0.6c-0.4,0-0.6,0.3-0.6,0.6c0,0.4,0.3,0.6,0.6,0.6
	C109.4,156.6,109.7,156.3,109.7,156 M120.3,156c0-0.3-0.3-0.6-0.6-0.6c-0.4,0-0.6,0.3-0.6,0.6c0,0.4,0.3,0.6,0.6,0.6
	C120,156.6,120.3,156.3,120.3,156 M123.8,156c0-0.3-0.3-0.6-0.6-0.6c-0.3,0-0.6,0.3-0.6,0.6c0,0.4,0.3,0.6,0.6,0.6
	C123.5,156.6,123.8,156.3,123.8,156 M127.3,156c0-0.3-0.3-0.6-0.6-0.6c-0.4,0-0.6,0.3-0.6,0.6c0,0.4,0.3,0.6,0.6,0.6
	C127,156.6,127.3,156.3,127.3,156 M145,156c0-0.3-0.3-0.6-0.6-0.6c-0.3,0-0.6,0.3-0.6,0.6c0,0.4,0.3,0.6,0.6,0.6
	C144.7,156.6,145,156.3,145,156 M148.5,156c0-0.3-0.3-0.6-0.6-0.6c-0.3,0-0.6,0.3-0.6,0.6c0,0.4,0.3,0.6,0.6,0.6
	C148.2,156.6,148.5,156.3,148.5,156 M102.6,159.8c0-0.3-0.3-0.6-0.6-0.6c-0.3,0-0.6,0.3-0.6,0.6c0,0.4,0.3,0.6,0.6,0.6
	C102.3,160.4,102.6,160.1,102.6,159.8 M106.2,159.8c0-0.3-0.3-0.6-0.6-0.6c-0.3,0-0.6,0.3-0.6,0.6c0,0.4,0.3,0.6,0.6,0.6
	C105.9,160.4,106.2,160.1,106.2,159.8 M120.3,159.8c0-0.3-0.3-0.6-0.6-0.6c-0.4,0-0.6,0.3-0.6,0.6c0,0.4,0.3,0.6,0.6,0.6
	C120,160.4,120.3,160.1,120.3,159.8 M123.8,159.8c0-0.3-0.3-0.6-0.6-0.6c-0.3,0-0.6,0.3-0.6,0.6c0,0.4,0.3,0.6,0.6,0.6
	C123.5,160.4,123.8,160.1,123.8,159.8 M127.3,159.8c0-0.3-0.3-0.6-0.6-0.6c-0.4,0-0.6,0.3-0.6,0.6c0,0.4,0.3,0.6,0.6,0.6
	C127,160.4,127.3,160.1,127.3,159.8 M130.9,159.8c0-0.3-0.3-0.6-0.6-0.6c-0.3,0-0.6,0.3-0.6,0.6c0,0.4,0.3,0.6,0.6,0.6
	C130.6,160.4,130.9,160.1,130.9,159.8 M145,159.8c0-0.3-0.3-0.6-0.6-0.6c-0.3,0-0.6,0.3-0.6,0.6c0,0.4,0.3,0.6,0.6,0.6
	C144.7,160.4,145,160.1,145,159.8 M148.5,159.8c0-0.3-0.3-0.6-0.6-0.6c-0.3,0-0.6,0.3-0.6,0.6c0,0.4,0.3,0.6,0.6,0.6
	C148.2,160.4,148.5,160.1,148.5,159.8 M102.6,163.6c0-0.3-0.3-0.6-0.6-0.6c-0.3,0-0.6,0.3-0.6,0.6c0,0.4,0.3,0.6,0.6,0.6
	C102.3,164.2,102.6,163.9,102.6,163.6 M106.2,163.6c0-0.3-0.3-0.6-0.6-0.6c-0.3,0-0.6,0.3-0.6,0.6c0,0.4,0.3,0.6,0.6,0.6
	C105.9,164.2,106.2,163.9,106.2,163.6 M116.7,163.6c0-0.3-0.3-0.6-0.6-0.6c-0.3,0-0.6,0.3-0.6,0.6c0,0.4,0.3,0.6,0.6,0.6
	C116.5,164.2,116.7,163.9,116.7,163.6 M123.8,163.6c0-0.3-0.3-0.6-0.6-0.6c-0.3,0-0.6,0.3-0.6,0.6c0,0.4,0.3,0.6,0.6,0.6
	C123.5,164.2,123.8,163.9,123.8,163.6 M127.3,163.6c0-0.3-0.3-0.6-0.6-0.6c-0.4,0-0.6,0.3-0.6,0.6c0,0.4,0.3,0.6,0.6,0.6
	C127,164.2,127.3,163.9,127.3,163.6 M134.4,163.6c0-0.3-0.3-0.6-0.6-0.6c-0.3,0-0.6,0.3-0.6,0.6c0,0.4,0.3,0.6,0.6,0.6
	C134.1,164.2,134.4,163.9,134.4,163.6 M137.9,163.6c0-0.3-0.3-0.6-0.6-0.6c-0.3,0-0.6,0.3-0.6,0.6c0,0.4,0.3,0.6,0.6,0.6
	C137.6,164.2,137.9,163.9,137.9,163.6 M141.4,163.6c0-0.3-0.3-0.6-0.6-0.6s-0.6,0.3-0.6,0.6c0,0.4,0.3,0.6,0.6,0.6
	S141.4,163.9,141.4,163.6 M145,163.6c0-0.3-0.3-0.6-0.6-0.6c-0.3,0-0.6,0.3-0.6,0.6c0,0.4,0.3,0.6,0.6,0.6
	C144.7,164.2,145,163.9,145,163.6 M148.5,163.6c0-0.3-0.3-0.6-0.6-0.6c-0.3,0-0.6,0.3-0.6,0.6c0,0.4,0.3,0.6,0.6,0.6
	C148.2,164.2,148.5,163.9,148.5,163.6 M102.6,167.4c0-0.3-0.3-0.6-0.6-0.6c-0.3,0-0.6,0.3-0.6,0.6c0,0.4,0.3,0.6,0.6,0.6
	C102.3,168,102.6,167.7,102.6,167.4 M113.2,167.4c0-0.3-0.3-0.6-0.6-0.6s-0.6,0.3-0.6,0.6c0,0.4,0.3,0.6,0.6,0.6
	S113.2,167.7,113.2,167.4 M116.7,167.4c0-0.3-0.3-0.6-0.6-0.6c-0.3,0-0.6,0.3-0.6,0.6c0,0.4,0.3,0.6,0.6,0.6
	C116.5,168,116.7,167.7,116.7,167.4 M120.3,167.4c0-0.3-0.3-0.6-0.6-0.6c-0.4,0-0.6,0.3-0.6,0.6c0,0.4,0.3,0.6,0.6,0.6
	C120,168,120.3,167.7,120.3,167.4 M130.9,167.4c0-0.3-0.3-0.6-0.6-0.6c-0.3,0-0.6,0.3-0.6,0.6c0,0.4,0.3,0.6,0.6,0.6
	C130.6,168,130.9,167.7,130.9,167.4 M134.4,167.4c0-0.3-0.3-0.6-0.6-0.6c-0.3,0-0.6,0.3-0.6,0.6c0,0.4,0.3,0.6,0.6,0.6
	C134.1,168,134.4,167.7,134.4,167.4 M137.9,167.4c0-0.3-0.3-0.6-0.6-0.6c-0.3,0-0.6,0.3-0.6,0.6c0,0.4,0.3,0.6,0.6,0.6
	C137.6,168,137.9,167.7,137.9,167.4 M141.4,167.4c0-0.3-0.3-0.6-0.6-0.6s-0.6,0.3-0.6,0.6c0,0.4,0.3,0.6,0.6,0.6
	S141.4,167.7,141.4,167.4 M145,167.4c0-0.3-0.3-0.6-0.6-0.6c-0.3,0-0.6,0.3-0.6,0.6c0,0.4,0.3,0.6,0.6,0.6
	C144.7,168,145,167.7,145,167.4 M148.5,167.4c0-0.3-0.3-0.6-0.6-0.6c-0.3,0-0.6,0.3-0.6,0.6c0,0.4,0.3,0.6,0.6,0.6
	C148.2,168,148.5,167.7,148.5,167.4 M102.6,171.2c0-0.3-0.3-0.6-0.6-0.6c-0.3,0-0.6,0.3-0.6,0.6c0,0.4,0.3,0.6,0.6,0.6
	C102.3,171.8,102.6,171.5,102.6,171.2 M106.2,171.2c0-0.3-0.3-0.6-0.6-0.6c-0.3,0-0.6,0.3-0.6,0.6c0,0.4,0.3,0.6,0.6,0.6
	C105.9,171.8,106.2,171.5,106.2,171.2 M109.7,171.2c0-0.3-0.3-0.6-0.6-0.6c-0.4,0-0.6,0.3-0.6,0.6c0,0.4,0.3,0.6,0.6,0.6
	C109.4,171.8,109.7,171.5,109.7,171.2 M113.2,171.2c0-0.3-0.3-0.6-0.6-0.6s-0.6,0.3-0.6,0.6c0,0.4,0.3,0.6,0.6,0.6
	S113.2,171.5,113.2,171.2 M116.7,171.2c0-0.3-0.3-0.6-0.6-0.6c-0.3,0-0.6,0.3-0.6,0.6c0,0.4,0.3,0.6,0.6,0.6
	C116.5,171.8,116.7,171.5,116.7,171.2 M134.4,171.2c0-0.3-0.3-0.6-0.6-0.6c-0.3,0-0.6,0.3-0.6,0.6c0,0.4,0.3,0.6,0.6,0.6
	C134.1,171.8,134.4,171.5,134.4,171.2 M137.9,171.2c0-0.3-0.3-0.6-0.6-0.6c-0.3,0-0.6,0.3-0.6,0.6c0,0.4,0.3,0.6,0.6,0.6
	C137.6,171.8,137.9,171.5,137.9,171.2 M141.4,171.2c0-0.3-0.3-0.6-0.6-0.6s-0.6,0.3-0.6,0.6c0,0.4,0.3,0.6,0.6,0.6
	S141.4,171.5,141.4,171.2 M145,171.2c0-0.3-0.3-0.6-0.6-0.6c-0.3,0-0.6,0.3-0.6,0.6c0,0.4,0.3,0.6,0.6,0.6
	C144.7,171.8,145,171.5,145,171.2 M148.5,171.2c0-0.3-0.3-0.6-0.6-0.6c-0.3,0-0.6,0.3-0.6,0.6c0,0.4,0.3,0.6,0.6,0.6
	C148.2,171.8,148.5,171.5,148.5,171.2 M102.6,175c0-0.3-0.3-0.6-0.6-0.6c-0.3,0-0.6,0.3-0.6,0.6c0,0.4,0.3,0.6,0.6,0.6
	C102.3,175.6,102.6,175.3,102.6,175 M106.2,175c0-0.3-0.3-0.6-0.6-0.6c-0.3,0-0.6,0.3-0.6,0.6c0,0.4,0.3,0.6,0.6,0.6
	C105.9,175.6,106.2,175.3,106.2,175 M109.7,175c0-0.3-0.3-0.6-0.6-0.6c-0.4,0-0.6,0.3-0.6,0.6c0,0.4,0.3,0.6,0.6,0.6
	C109.4,175.6,109.7,175.3,109.7,175 M113.2,175c0-0.3-0.3-0.6-0.6-0.6s-0.6,0.3-0.6,0.6c0,0.4,0.3,0.6,0.6,0.6
	S113.2,175.3,113.2,175 M123.8,175c0-0.3-0.3-0.6-0.6-0.6c-0.3,0-0.6,0.3-0.6,0.6c0,0.4,0.3,0.6,0.6,0.6
	C123.5,175.6,123.8,175.3,123.8,175 M127.3,175c0-0.3-0.3-0.6-0.6-0.6c-0.4,0-0.6,0.3-0.6,0.6c0,0.4,0.3,0.6,0.6,0.6
	C127,175.6,127.3,175.3,127.3,175 M137.9,175c0-0.3-0.3-0.6-0.6-0.6c-0.3,0-0.6,0.3-0.6,0.6c0,0.4,0.3,0.6,0.6,0.6
	C137.6,175.6,137.9,175.3,137.9,175 M141.4,175c0-0.3-0.3-0.6-0.6-0.6s-0.6,0.3-0.6,0.6c0,0.4,0.3,0.6,0.6,0.6
	S141.4,175.3,141.4,175 M145,175c0-0.3-0.3-0.6-0.6-0.6c-0.3,0-0.6,0.3-0.6,0.6c0,0.4,0.3,0.6,0.6,0.6
	C144.7,175.6,145,175.3,145,175 M148.5,175c0-0.3-0.3-0.6-0.6-0.6c-0.3,0-0.6,0.3-0.6,0.6c0,0.4,0.3,0.6,0.6,0.6
	C148.2,175.6,148.5,175.3,148.5,175 M106.2,178.8c0-0.3-0.3-0.6-0.6-0.6c-0.3,0-0.6,0.3-0.6,0.6c0,0.3,0.3,0.6,0.6,0.6
	C105.9,179.4,106.2,179.1,106.2,178.8 M109.7,178.8c0-0.3-0.3-0.6-0.6-0.6c-0.4,0-0.6,0.3-0.6,0.6c0,0.3,0.3,0.6,0.6,0.6
	C109.4,179.4,109.7,179.1,109.7,178.8 M113.2,178.8c0-0.3-0.3-0.6-0.6-0.6s-0.6,0.3-0.6,0.6c0,0.3,0.3,0.6,0.6,0.6
	S113.2,179.1,113.2,178.8 M120.3,178.8c0-0.3-0.3-0.6-0.6-0.6c-0.4,0-0.6,0.3-0.6,0.6c0,0.3,0.3,0.6,0.6,0.6
	C120,179.4,120.3,179.1,120.3,178.8 M123.8,178.8c0-0.3-0.3-0.6-0.6-0.6c-0.3,0-0.6,0.3-0.6,0.6c0,0.3,0.3,0.6,0.6,0.6
	C123.5,179.4,123.8,179.1,123.8,178.8 M127.3,178.8c0-0.3-0.3-0.6-0.6-0.6c-0.4,0-0.6,0.3-0.6,0.6c0,0.3,0.3,0.6,0.6,0.6
	C127,179.4,127.3,179.1,127.3,178.8 M130.9,178.8c0-0.3-0.3-0.6-0.6-0.6c-0.3,0-0.6,0.3-0.6,0.6c0,0.3,0.3,0.6,0.6,0.6
	C130.6,179.4,130.9,179.1,130.9,178.8 M134.4,178.8c0-0.3-0.3-0.6-0.6-0.6c-0.3,0-0.6,0.3-0.6,0.6c0,0.3,0.3,0.6,0.6,0.6
	C134.1,179.4,134.4,179.1,134.4,178.8 M137.9,178.8c0-0.3-0.3-0.6-0.6-0.6c-0.3,0-0.6,0.3-0.6,0.6c0,0.3,0.3,0.6,0.6,0.6
	C137.6,179.4,137.9,179.1,137.9,178.8 M141.4,178.8c0-0.3-0.3-0.6-0.6-0.6s-0.6,0.3-0.6,0.6c0,0.3,0.3,0.6,0.6,0.6
	S141.4,179.1,141.4,178.8 M145,178.8c0-0.3-0.3-0.6-0.6-0.6c-0.3,0-0.6,0.3-0.6,0.6c0,0.3,0.3,0.6,0.6,0.6
	C144.7,179.4,145,179.1,145,178.8 M120.3,182.5c0-0.3-0.3-0.6-0.6-0.6c-0.4,0-0.6,0.3-0.6,0.6c0,0.3,0.3,0.6,0.6,0.6
	C120,183.1,120.3,182.8,120.3,182.5 M123.8,182.5c0-0.3-0.3-0.6-0.6-0.6c-0.3,0-0.6,0.3-0.6,0.6c0,0.3,0.3,0.6,0.6,0.6
	C123.5,183.1,123.8,182.8,123.8,182.5 M127.3,182.5c0-0.3-0.3-0.6-0.6-0.6c-0.4,0-0.6,0.3-0.6,0.6c0,0.3,0.3,0.6,0.6,0.6
	C127,183.1,127.3,182.8,127.3,182.5 M130.9,182.5c0-0.3-0.3-0.6-0.6-0.6c-0.3,0-0.6,0.3-0.6,0.6c0,0.3,0.3,0.6,0.6,0.6
	C130.6,183.1,130.9,182.8,130.9,182.5 M125.6,185.6c0-0.3-0.3-0.6-0.6-0.6c-0.3,0-0.6,0.3-0.6,0.6c0,0.4,0.3,0.6,0.6,0.6
	C125.3,186.3,125.6,186,125.6,185.6 M84.4,115.4l10.6,9.8V177c0,1.2,0.6,2.3,1.3,3.1c2.3,2.3,6.4,3.1,9.2,3.5
	c5.1,0.6,10.9,1.3,13.5,3.4c1.7,1.3,3.6,4.2,5.2,6l1,1.1l1-1.1c1.6-1.8,3.5-4.7,5.2-6c2.6-2.1,8.4-2.8,13.5-3.4
	c1.8-0.2,4.3-0.7,6.4-1.6c1.1-0.5,2-1.1,2.8-1.9c0.8-0.8,1.3-1.9,1.3-3.1v-51.8l10.6-9.8H84.4z M92.9,119.8l-2-1.8h2V119.8z
	 M96.3,122.9l-2.1-1.9v-3h2.1V122.9z M132.7,118h2.3v17.1c0.4-0.3,0.8-0.6,1.3-1V118h2.3v14.3c0.4-0.3,0.9-0.7,1.3-1V118h2.3v12
	c0.3-0.1,0.5-0.2,0.7-0.2c0.1,0,0.3,0.1,0.5,0.2V118h2.3v13.7c0.4,0.4,0.8,0.8,1.3,1.2v-15h2.3v17.4c0.4,0.5,0.8,0.9,1.3,1.4V118
	h2.3v24.7h-13.5l-6.4-7.9V118z M115.1,118h2.3v17c0.4-0.3,0.8-0.7,1.3-1V118h2.3v13.9c0.4-0.4,0.9-0.8,1.3-1.1V118h2.3v11
	c0.3-0.2,0.5-0.3,0.7-0.3c0.1,0,0.3,0.1,0.5,0.2V118h2.3v13c0.4,0.4,0.8,0.9,1.3,1.3V118h2.3v16.8h0l0,0v0c0,0,0,0,0,0l6.3,7.8
	h-14.3l-8.4-10.6V118z M97.5,118h2.3v22.4c0.4-0.4,0.8-0.8,1.3-1.3V118h2.3v18.8c0.4-0.4,0.8-0.8,1.3-1.3V118h2.3v15.3
	c0.4-0.4,0.9-0.8,1.3-1.2V118h2.3v12c0.3-0.2,0.5-0.4,0.6-0.4c0.2,0,0.4,0.1,0.6,0.2V118h2.3v14.1c0.4,0.5,0.8,1.1,1.3,1.6v0l7.1,9
	H97.5V118z M152.6,177c0,0.5-0.2,0.9-0.6,1.3c-1.3,1.4-5.2,2.5-7.7,2.7c-5,0.7-11,1.1-14.7,3.9c-1.8,1.4-3.3,3.5-4.6,5.2
	c-1.3-1.6-2.8-3.8-4.6-5.2c-3.7-2.8-9.7-3.2-14.7-3.9c-1.7-0.2-3.9-0.7-5.6-1.4c-0.9-0.4-1.6-0.8-2-1.3c-0.4-0.5-0.6-0.9-0.6-1.3
	v-31.7h55.1V177z M156,121l-2.1,1.9V118h2.1V121z M157.3,118h2l-2,1.8V118z M142.2,156.3c0,0-6.3-6.3-6.4-6.4
	c-0.3-0.3-0.7-0.4-1.1-0.4c-1,0-2.3,0.7-3.5,1.8c-1.2,1.2-1.8,2.5-1.8,3.5c0,0.4,0.1,0.8,0.4,1.1c0.1,0.1,3,2.7,3,2.7l-8,8.2l-8.4-7
	c0.3-3.8,2.6-6.9,5.9-9c0.2-0.1,0.3-0.3,0.3-0.5c0-0.2-0.1-0.3-0.3-0.3c-5.3,0.2-16.4,10-16.9,18l0,0.1l1.7,1.1l0-0.1
	c0.7-1.5,4.6-6.2,8.3-7.1l7.7,6.5l-8.7,8.9c-0.1,0.2-0.1,0.4-0.1,0.5c0,0.7,0.5,1,1.3,1c0.1,0,0.1,0,0.2,0l0,0l8.9-9l10.4,8.8l0,0
	c0.8-0.2,1.4-0.7,1.4-1.5c0-0.1,0-0.3-0.1-0.4l-10.1-8.5l8-8.1l2.1,2c0.2,0.2,0.5,0.3,0.9,0.3c1,0,2.3-0.7,3.4-1.8
	c1.1-1.1,1.7-2.5,1.7-3.5C142.4,156.8,142.4,156.5,142.2,156.3 M134.2,154.3c-1.3,1.3-3,1.8-3.7,1.1c-0.7-0.7-0.2-2.4,1.1-3.7
	c1.3-1.3,3-1.8,3.7-1.1C136,151.3,135.5,153,134.2,154.3 M89.8,217.6c-1.3,0-2.3,1-2.3,2.3c0,1.3,1,2.3,2.3,2.3c1.3,0,2.3-1,2.3-2.3
	C92.1,218.6,91.1,217.6,89.8,217.6 M161.5,217.6c-1.3,0-2.3,1-2.3,2.3c0,1.3,1,2.3,2.3,2.3c1.3,0,2.3-1,2.3-2.3
	C163.8,218.6,162.8,217.6,161.5,217.6 M40.3,162.7c-1-2.2-2.2-3.6-4-3.6c-0.8,0-1.7,0.2-2.6,0.7l-1.4,0.6l1.2,2.7l0.6-0.3
	c0.2-0.1,0.4-0.2,0.6-0.3c0.7-0.3,1.2-0.4,1.5-0.4c0.6,0,1,0.4,1.7,1.9l0.4,1c0.4,0.8,0.6,1.4,0.6,1.9c0,0.2,0,0.3-0.1,0.5
	c-0.2,0.5-0.8,0.9-2.2,1.5l-3.7,1.6c-1,0.4-1.7,0.7-2.1,0.7c-0.2,0-0.3,0-0.5-0.1c-0.6-0.2-0.9-0.8-1.5-2l-0.4-1
	c-0.4-0.8-0.5-1.4-0.5-1.8c0-0.6,0.2-0.9,1.5-1.5l0.4-0.2l0.6-0.3l-1.2-2.7l-1.2,0.5c-1.9,0.8-3,2-2.9,3.7c0,0.9,0.3,2,0.8,3.1
	l0.7,1.5c0.9,2.2,2.2,3.5,4.1,3.5c0,0,0,0,0,0c0.9,0,1.9-0.3,3.1-0.8l4.4-2c2.3-1,3.6-2.3,3.6-4.2c0-0.9-0.3-1.9-0.8-3L40.3,162.7z
	 M31.4,155.3c2.8-0.6,4.4-2,4.4-4.5c0-0.7-0.1-1.5-0.3-2.4l-0.4-1.8c-0.6-3-2-4.7-4.5-4.6c-0.7,0-1.4,0.1-2.2,0.3l-4.7,1.1
	c-1.4,0.3-2.5,0.8-3.3,1.5c-0.8,0.7-1.1,1.7-1.1,2.9c0,0.7,0.1,1.5,0.3,2.5l0.4,1.8h0c0.6,2.9,2,4.6,4.4,4.6c0,0,0.1,0,0.1,0
	c0.7,0,1.4-0.1,2.2-0.3L31.4,155.3z M24.6,153.8c-0.4,0-0.6-0.1-0.8-0.2c-0.6-0.4-0.9-1.2-1.2-2.6l-0.2-0.9
	c-0.2-0.8-0.3-1.4-0.3-1.9c0-0.4,0.1-0.6,0.2-0.9c0.2-0.5,0.9-0.8,2.4-1.1l3.9-0.9c0.8-0.2,1.4-0.3,1.8-0.3c0.4,0,0.6,0.1,0.8,0.2
	c0.6,0.4,0.9,1.2,1.2,2.6l0.2,0.9c0.2,0.8,0.3,1.4,0.3,1.9c0,0.4-0.1,0.6-0.2,0.9c-0.2,0.5-0.9,0.8-2.4,1.1l-3.9,0.9
	C25.7,153.7,25,153.8,24.6,153.8 M32.4,125.5l-2.8,0.2l0.5,8.1l-12.7,0.7l0.2,2.8l0.6,0l14.9-0.8L32.4,125.5z M22.4,120.9l4.8,0.6
	c0.5,0.1,0.9,0.1,1.4,0.1h0c1.4,0,2.6-0.4,3.4-1.3c0.8-0.9,1.2-2.2,1.4-3.9l0.2-1.8c0.1-0.6,0.1-1.1,0.1-1.5c0-1.4-0.3-2.6-1.2-3.4
	c-0.9-0.8-2.1-1.2-3.7-1.4l-4.8-0.6c-0.5-0.1-1-0.1-1.4-0.1c-1.4,0-2.6,0.4-3.4,1.3c-0.8,0.9-1.1,2.2-1.4,3.9l-0.2,1.8
	c-0.1,0.6-0.1,1.1-0.1,1.5c0,1.4,0.3,2.6,1.2,3.4C19.5,120.3,20.7,120.7,22.4,120.9 M20.4,114.4l0.1-0.9c0.2-1.4,0.3-2.2,0.9-2.7
	c0.3-0.2,0.6-0.3,1.2-0.3c0.4,0,0.9,0,1.4,0.1l4,0.5c1.5,0.2,2.2,0.4,2.5,0.8c0.2,0.4,0.3,0.8,0.3,1.4c0,0.4-0.1,0.9-0.1,1.5
	l-0.1,0.9c-0.2,1.4-0.3,2.2-0.9,2.7c-0.3,0.2-0.6,0.3-1.2,0.3c-0.4,0-0.9,0-1.4-0.1l-4-0.5c-1.5-0.2-2.2-0.4-2.5-0.8
	c-0.3-0.4-0.3-0.8-0.3-1.3C20.2,115.5,20.3,115,20.4,114.4 M35.1,104.2l0.8-2.7l-5.3-1.7l1.3-4.2c0.2-0.6,0.4-0.9,0.5-1.1
	c0.2-0.2,0.3-0.2,0.6-0.2c0.3,0,0.7,0.1,1.3,0.3l3.4,1.1l0.9-2.8l-3.9-1.2c-0.6-0.2-1.1-0.3-1.6-0.3c-0.5,0-1,0.1-1.4,0.4
	c-0.4-0.8-1.1-1.4-2.1-1.7l-2.1-0.6c-0.6-0.2-1.1-0.3-1.6-0.3c-0.9,0-1.7,0.4-2.2,1c-0.6,0.7-0.9,1.6-1.3,2.7l-2.1,6.7l0.6,0.2
	L35.1,104.2z M25,94c0.2-0.7,0.4-1.3,0.6-1.5c0.2-0.3,0.3-0.3,0.6-0.3c0.2,0,0.4,0,0.7,0.1l1.6,0.5c0.9,0.4,0.9,0.5,1,1
	c0,0.3-0.1,0.9-0.3,1.6L28,99l-4.2-1.3L25,94z M28.7,77.7L29,78l10.8,12l1.4-2.6l-2.6-2.9l2.9-5.6l3.9,0.5l1.4-2.6l-16.4-2.1
	L28.7,77.7z M38.6,78.5l-2,3.8l-4.2-4.7L38.6,78.5z M52.5,60.4l-3.7-2.9c-1.3-1-2.4-1.6-3.6-1.6c-1.5,0-2.7,1-4,2.6l-4.7,5.9
	l0.5,0.4L48.7,74l4.7-5.9c1-1.3,1.6-2.5,1.7-3.7C55,62.9,54,61.6,52.5,60.4 M51.1,66.6l-2.7,3.5l-7.9-6.3l2.7-3.5
	c0.9-1.1,1.5-1.5,1.9-1.5c0,0,0,0,0,0c0.4,0,1.1,0.3,2,1l3.6,2.9c1.1,0.9,1.4,1.4,1.4,1.9C52.1,65,51.8,65.7,51.1,66.6 M63.2,44.2
	c-1.3-1.5-2.5-2.4-4-2.4c-1.3,0-2.6,0.7-4,2L53.9,45h0c-1.6,1.4-2.6,2.7-2.6,4.2c0,1.3,0.7,2.4,1.8,3.8l3.2,3.7
	c1.3,1.5,2.5,2.4,4,2.4c1.3,0,2.6-0.7,4-2l1.4-1.2c1.6-1.4,2.6-2.7,2.6-4.2c0-1.3-0.7-2.4-1.8-3.8L63.2,44.2z M65.2,51.8
	c-0.1,0.7-0.7,1.3-1.8,2.2l-0.7,0.6c-1.1,0.9-1.7,1.4-2.5,1.4c-0.6,0-1.1-0.4-2.1-1.6l-2.6-3.1c-0.9-1-1.3-1.7-1.3-2.2
	c0-0.1,0-0.1,0-0.2c0.1-0.8,0.7-1.3,1.7-2.2l0.7-0.6c1.1-0.9,1.7-1.4,2.5-1.4c0.5,0,1.1,0.5,2.1,1.6l2.6,3.1c0.9,1,1.3,1.7,1.3,2.1
	C65.2,51.7,65.2,51.8,65.2,51.8 M101.6,34.5c0-0.8-0.2-1.6-0.5-2.5c-0.6-1.9-1.7-3.2-3.5-3.2c-0.4,0-0.9,0.1-1.4,0.2l-4.4,1
	c-0.3,0.1-0.5,0.1-0.6,0.1c-0.3,0-0.3,0-0.5-0.2c-0.1-0.1-0.3-0.5-0.5-1.1c-0.2-0.5-0.2-0.9-0.2-1.1c0-0.4,0.1-0.5,0.4-0.7
	c0.3-0.2,0.9-0.5,1.8-0.8c1.5-0.5,2.6-0.8,3.1-0.8c0.2,0,0.3,0,0.3,0c0.1,0,0.4,0.4,0.6,1.2l0.1,0.3l0.2,0.6l2.7-0.9L99,26.3
	c-0.1-0.3-0.1-0.5-0.2-0.7c-0.4-1.3-1-2.2-1.9-2.6c-0.5-0.2-1-0.3-1.5-0.3c-1.1,0-2.2,0.4-3.6,0.8l-0.5,0.2c-1.8,0.6-3.2,1-3.9,2.2
	c-0.3,0.5-0.5,1.2-0.5,1.8c0,0.7,0.2,1.4,0.4,2.2c0.6,2.1,1.8,3.2,3.5,3.2c0.5,0,1.1-0.1,1.7-0.2l4.3-1c0.3-0.1,0.4-0.1,0.6-0.1
	c0.3,0,0.2,0,0.4,0.2c0.1,0.2,0.3,0.7,0.5,1.3c0.2,0.6,0.3,1.1,0.3,1.3c0,0.1,0,0.1,0,0.1c-0.1,0.3-0.8,0.8-2.2,1.2
	c-1.7,0.6-2.9,0.9-3.4,0.9c-0.1,0-0.2,0-0.2,0c-0.3,0-0.7-0.5-1.1-1.9l-0.1-0.3l-0.2-0.6l-0.6,0.2l-2.1,0.7l0.1,0.6
	c0.1,0.3,0.1,0.5,0.2,0.7c0.5,1.5,1.2,2.6,2.3,3.2c0.5,0.2,1,0.3,1.5,0.3c1,0,2-0.3,3.2-0.7l0.7-0.2c2.1-0.7,3.7-1.2,4.4-2.8
	C101.5,35.4,101.6,35,101.6,34.5 M112.7,34.9l-1.9-12.6l4.5-0.7l-0.4-2.8l-11.8,1.7l0.1,0.6l0.3,2.1l4.5-0.7l1.9,12.6L112.7,34.9z
	 M129.1,34l3,0l-6-15.4l-3.5,0.1l-0.1,0.4l-5.3,15.2l3,0l1.3-3.7l6.3-0.1L129.1,34z M122.3,27.8l2.1-5.9l2.3,5.8L122.3,27.8z
	 M139.2,35.2l1.8-12.6l4.5,0.6l0.4-2.8l-11.8-1.7l-0.1,0.6l-0.3,2.1l4.5,0.6l-1.8,12.6L139.2,35.2z M151.6,31.1l7.8,2.4l0.8-2.6
	l-7.8-2.4l1-3.2l8.1,2.5l0.8-2.7l-10.8-3.3l-0.2,0.6l-4.3,14.2l10.8,3.3l0.8-2.6l-8.1-2.5L151.6,31.1z M196,45.2l-6.3,7.7
	c-0.9,1.1-1.4,1.5-1.8,1.5c0,0-0.1,0-0.1,0c-0.5,0-1.1-0.4-2-1.1l-1.2-0.9c-1-0.8-1.4-1.2-1.5-1.8c0-0.1,0-0.1,0-0.2
	c0-0.4,0.3-1,1.1-1.9l6.3-7.7l-0.5-0.4l-1.7-1.4l-6.5,7.9c-1.1,1.3-1.7,2.5-1.7,3.8c0,1.5,0.9,2.7,2.5,4l1.3,1.1
	c1.3,1.1,2.5,1.7,3.8,1.7c1.5,0,2.7-0.9,4-2.5l6.5-7.9L196,45.2z M210.4,60.6l-8.5,7l4.3-12.2L205,54l0.1-0.2l-0.1,0.1l-1-1.2
	l-0.5,0.4l-11.5,9.5l1.8,2.2l8.6-7.1L198,70l1.1,1.4l0,0.1l0.1-0.1l1,1.2l12-9.9L210.4,60.6z M215.7,68.3l-0.5,0.3l-12.6,7.9
	l1.5,2.4l13.2-8.2L215.7,68.3z M209.3,89.1l16.5-1.3l-1.3-2.8l-12.2,1.1l8.7-8.5l-0.2-0.4l-1.1-2.4l-11.7,11.6L209.3,89.1z
	 M215.5,107.7l2.7-0.7l-2.2-8.1l3.7-1l2.2,7.9l2.6-0.7l-2.2-7.9l3.3-0.9l2.2,8.1l2.7-0.7l-3-10.9l-0.6,0.2l-14.4,3.9L215.5,107.7z
	 M216.5,114.8l5.5-0.5l0.4,4.4c0,0.2,0,0.4,0,0.6c0,0.6-0.1,0.8-0.3,0.9c-0.2,0.2-0.7,0.3-1.5,0.4l-3.6,0.3l0.3,2.9l4.1-0.4
	c0.9-0.1,1.6-0.3,2.2-0.7c0.2-0.2,0.4-0.3,0.5-0.5c0.5,0.5,1.3,0.8,2.1,0.8c0.2,0,0.3,0,0.5,0l2.1-0.2c1.2-0.1,2.1-0.4,2.7-1.1
	c0.6-0.7,0.8-1.6,0.8-2.8c0-0.4,0-0.8-0.1-1.3l-0.7-7l-0.6,0.1l-14.8,1.4L216.5,114.8z M229.1,113.6l0.4,3.9c0,0.4,0.1,0.8,0.1,1.1
	c0,0.6-0.1,0.8-0.2,1c-0.1,0.1-0.4,0.3-1,0.3l-1.7,0.2c-0.1,0-0.2,0-0.3,0c-0.6,0-0.7-0.1-0.9-0.4c-0.2-0.3-0.3-0.9-0.4-1.8
	l-0.4-3.9L229.1,113.6z M232,131c-0.8-1.1-2-1.5-3.6-1.6c-0.3,0-0.6,0-0.8,0c-1.1,0-2.1,0.3-2.8,0.9c-0.7,0.7-1,1.6-1.2,2.8
	l-0.7,4.3c-0.1,0.5-0.2,0.7-0.3,0.8c-0.1,0.1-0.2,0.1-0.6,0.1c-0.3,0-0.6,0-1-0.1c-0.5,0-0.8-0.1-1.1-0.2c-0.3-0.1-0.3-0.1-0.3-0.1
	c-0.2-0.2-0.3-0.6-0.3-1.4c0-0.3,0-0.7,0.1-1.1c0.2-2.1,0.4-3.4,0.6-3.7c0.1-0.2,0.4-0.3,1.2-0.4c0.3,0,0.6,0,1,0.1l0.3,0l0.6,0.1
	l0.1-0.6l0.2-2.1l-0.6-0.1c-0.3,0-0.5-0.1-0.8-0.1c-0.3,0-0.6,0-0.9,0c-1.2,0-2.2,0.3-2.9,1c-1.2,1.1-1.3,2.6-1.5,4.5l-0.1,0.7
	c-0.1,0.8-0.1,1.5-0.1,2.2c0,1.1,0.2,2.2,1,3c0.9,1,2.1,1.1,3.6,1.3c0.3,0,0.6,0,0.9,0c1,0,1.9-0.2,2.6-0.8c0.7-0.6,1-1.5,1.2-2.6
	l0.8-4.4c0.1-0.5,0.2-0.8,0.3-0.9c0.1-0.1,0.3-0.2,0.8-0.2c0.2,0,0.3,0,0.6,0c0.9,0.1,1.3,0.2,1.4,0.4c0.2,0.1,0.3,0.4,0.3,1.1
	c0,0.4,0,0.8-0.1,1.3c-0.1,2.2-0.5,3.4-0.6,3.4c0,0-0.2,0.1-0.7,0.1c-0.2,0-0.4,0-0.7,0l-0.4,0l-0.6-0.1l-0.2,2.8l0.6,0.1
	c0.3,0,0.5,0.1,0.7,0.1c0.2,0,0.5,0,0.7,0c1,0,1.8-0.2,2.4-0.8c1.2-1.2,1.3-2.8,1.5-4.9l0-0.5c0.1-0.8,0.1-1.4,0.1-2
	C232.6,132.4,232.5,131.6,232,131 M215.3,144.7l-0.6,2.8l15.2,3.3l0.6-2.8l-0.6-0.1L215.3,144.7z M226.1,154.9l-1.5,4.3l-12-4.2
	l-0.9,2.7l12,4.2l-1.5,4.3l2.6,0.9l3.9-11.3l-0.6-0.2L226.1,154.9z M207.2,168l-0.3,0.6l-1,1.9l6,3.1l4.7,9.8l1.6-3.1l-3.4-6.8
	l7.6-1.1l1.6-3.1l-10.8,1.7L207.2,168z M115.7,217.6c-0.8-0.1-1.6-0.1-2.2-0.1c-1.3,0-2.4,0.2-3.1,1.1c-0.7,0.9-0.8,1.9-1,3
	c0,0.4-0.1,0.7-0.1,1c0,0.8,0.2,1.6,0.7,2.1c-0.3,0.2-0.6,0.4-0.8,0.8c-0.5,0.7-0.6,1.5-0.7,2.5c-0.1,0.6-0.1,1.1-0.1,1.6
	c0,0.7,0.1,1.3,0.4,1.9c0.9,1.5,2.6,1.8,4.9,2c0.9,0.1,1.7,0.2,2.5,0.2c1,0,1.9-0.1,2.6-0.6c1.1-0.8,1.3-2.1,1.5-3.8
	c0-0.4,0.1-0.7,0.1-1.1c0-0.9-0.2-1.8-0.9-2.4c0.2-0.2,0.4-0.4,0.6-0.6c0.4-0.6,0.6-1.5,0.7-2.5c0-0.5,0.1-0.9,0.1-1.2
	c0-0.9-0.2-1.8-0.9-2.5C119.2,218.1,117.8,217.8,115.7,217.6 M117.4,229c-0.1,1.1-0.2,1.4-0.6,1.6l0.3,0.5l-0.3-0.5
	c-0.1,0.1-0.4,0.2-1,0.2c-0.4,0-1,0-1.7-0.1c-1.7-0.2-2.6-0.5-2.7-0.7c-0.1-0.1-0.2-0.3-0.2-0.7c0-0.3,0-0.6,0.1-1
	c0.1-1,0.3-1.4,0.5-1.5c0.1-0.1,0.4-0.2,0.9-0.2c0.5,0,1,0.1,1.8,0.1c1.9,0.2,2.7,0.5,2.8,0.8c0.1,0.2,0.1,0.4,0.1,0.7
	C117.5,228.3,117.5,228.6,117.4,229 M117.9,222.5c-0.1,0.8-0.2,1.1-0.4,1.3c-0.1,0.1-0.4,0.3-1.1,0.3c-0.4,0-0.8,0-1.4-0.1
	c-1.2-0.1-2-0.3-2.3-0.5c-0.3-0.2-0.4-0.3-0.4-0.9c0-0.2,0-0.3,0-0.5c0.1-1.1,0.3-1.6,0.4-1.6c0-0.1,0.4-0.2,0.9-0.2c0,0,0,0,0.1,0
	c0.4,0,1,0,1.6,0.1c0.9,0.1,1.6,0.2,2,0.4c0.5,0.1,0.6,0.3,0.6,0.3c0.1,0.1,0.1,0.3,0.1,0.6C118,221.8,117.9,222.1,117.9,222.5
	 M123.6,218.4l0,0.6l0.1,2.2l8.1-0.3l-6.7,13l3.4-0.1l6.7-13.4l-0.1-2.4L123.6,218.4z M149.6,220.9c-0.3-1.5-0.7-2.6-1.4-3.5
	c-0.7-0.8-1.8-1.2-3-1.2c-0.5,0-1.1,0.1-1.8,0.2l-1.3,0.3c-1.4,0.3-2.6,0.7-3.3,1.4c-0.8,0.7-1.1,1.8-1.1,3c0,0.6,0.1,1.3,0.2,2
	l0.9,4.8c0.3,1.5,0.7,2.6,1.4,3.5c0.7,0.8,1.8,1.2,3,1.2h0.1c0.5,0,1.1-0.1,1.8-0.2l1.4-0.2c1.4-0.3,2.5-0.7,3.3-1.4
	c0.8-0.7,1.1-1.8,1.1-3c0-0.6-0.1-1.3-0.2-2L149.6,220.9z M147.6,228.6c-0.3,0.4-0.8,0.6-1.9,0.8l-1.2,0.2c-0.5,0.1-0.9,0.2-1.3,0.2
	c-0.4,0-0.6-0.1-0.8-0.2c-0.4-0.3-0.6-1-0.9-2.3l-0.9-4.7c-0.1-0.7-0.2-1.2-0.2-1.6c0-0.4,0.1-0.6,0.2-0.8c0.3-0.4,0.8-0.6,1.9-0.8
	l1.2-0.2c0.5-0.1,0.9-0.1,1.2-0.1c0.4,0,0.6,0.1,0.9,0.2c0.4,0.3,0.6,0.9,0.8,2.2l0.9,4.7c0.1,0.7,0.2,1.2,0.2,1.6
	C147.8,228.1,147.8,228.4,147.6,228.6 M101.9,218.1l1.8,0.4l-2.8,12.2l2.6,0.6l3.4-14.7l-4.5-1L101.9,218.1z M47.6,107.5l10.2,2.7
	l0.7-2.6l-10.2-2.7l1-3.7l-2.2-0.6l-2.7,9.9l2.2,0.6L47.6,107.5z M60.9,100.7l-12-4.6l-1,2.5l12,4.6L60.9,100.7z M203.9,137.9
	l-3.1-0.4l0.7-5.8l-2.1-0.3l-0.7,5.8l-2.6-0.3l0.8-6.4l-2.1-0.3l-1.1,8.9l12.2,1.5l1.1-9.2l-2.3-0.3L203.9,137.9z M58.1,143.1
	c-0.8-3.2-2.9-4.6-6-3.9l-8.1,2l0.6,2.6l7.9-1.9c1.9-0.5,3,0,3.4,1.8c0.4,1.7-0.3,2.6-2.2,3.1l-7.9,1.9l0.6,2.6l8.1-2
	C57.6,148.5,58.8,146.3,58.1,143.1 M76.9,69.8c1.3,0,2.3-1,2.3-2.3c0-1.3-1-2.3-2.3-2.3c-1.3,0-2.3,1-2.3,2.3
	C74.6,68.8,75.6,69.8,76.9,69.8 M55.9,122.2l-2.5-1.1l0.6-5l2.7-0.6l0.3-2.8l-13.3,3.1l-0.4,3l12.3,6L55.9,122.2z M51.3,120.1
	l-5.2-2.4l5.7-1.2L51.3,120.1z M195.5,141.4l-2.1-0.6l-2.7,9.4l2.1,0.6l1-3.5l9.7,2.8l0.7-2.4l-9.7-2.7L195.5,141.4z M191,103.9
	l11.6-4.2l-0.9-2.4l-11.6,4.2L191,103.9z M190.6,150.4l-1.2,2.7l2.9,4.1l-4.9,0.5l-1.2,2.7l7.1-1l4.1,6.1l1.2-2.7l-2.8-4.1l4.9-0.5
	l1.2-2.7l-7.3,0.9L190.6,150.4z M171.6,69.8c1.3,0,2.3-1,2.3-2.3c0-1.3-1-2.3-2.3-2.3c-1.3,0-2.3,1-2.3,2.3
	C169.3,68.8,170.3,69.8,171.6,69.8 M194.5,120.4l8.4-0.4l-8.2,5.4l0.1,2.6l12.3-0.6L207,125l-8.4,0.4l8.2-5.4l-0.1-2.6l-12.3,0.6
	L194.5,120.4z M109.1,59l-0.7-2.2l-6.4,2l-0.9-3l5.6-1.8l-0.6-2l-5.6,1.8l-0.8-2.5l6.1-1.9l-0.6-2L96.6,50l3.7,11.7L109.1,59z
	 M138.5,46.1l-2.5-0.4l-1.8,12.1l2.5,0.4L138.5,46.1z M128.1,57.3l4.6-12.1l-2.8-0.1l-3,9.1l-2.3-9.3l-2.8-0.1l3.8,12.4L128.1,57.3z
	 M159.9,66.4l1-2l-6-3l1.4-2.8l5.3,2.6l0.9-1.9l-5.3-2.6l1.1-2.3l5.8,2.8l0.9-1.9l-8-3.9l-5.4,11L159.9,66.4z M99.4,193.7l0.9-1.9
	l-8.1-3.7l-5.1,11.2l8.4,3.8l0.9-2.1l-6.1-2.8l1.3-2.9l5.3,2.4l0.9-1.9l-5.3-2.4l1.1-2.4L99.4,193.7z M112.3,207.5l9.2,0.9l0.2-2.3
	l-6.7-0.7l0.3-3.1l5.8,0.6l0.2-2.1l-5.8-0.6l0.3-2.6l6.4,0.6l0.2-2.1l-8.9-0.9L112.3,207.5z M61.9,155.5c-0.7-1.7-1.4-2.9-2.9-3.7
	c-1.5-0.8-3.5-0.8-5.7,0.2c-4,1.8-5.1,4.4-3.5,8l2,4.6l11.8-5.2L61.9,155.5z M52.9,161.4l-1-2.3c-0.9-2-0.1-3.4,2.6-4.6
	c2.7-1.2,4.2-0.7,5.2,1.5l0.9,2L52.9,161.4z M179.2,178.2c-1.3,0-2.3,1-2.3,2.3c0,1.3,1,2.3,2.3,2.3c1.3,0,2.3-1,2.3-2.3
	C181.5,179.2,180.4,178.2,179.2,178.2 M112.7,53.5l2.7-0.4c1.4-0.2,1.8,0.2,2.1,1.7l0.2,1.3c0.1,0.7,0.3,1.2,0.5,1.5l2.7-0.4
	l-0.1-0.4c-0.5-0.2-0.5-0.6-0.7-1.3l-0.2-1.4c-0.3-1.5-0.7-2.2-1.9-2.5c1.1-0.5,1.6-1.6,1.4-3.1c-0.3-2.4-1.7-3.3-4.4-2.9l-5.9,0.8
	l1.7,12.2l2.5-0.3L112.7,53.5z M112,48.2l3.1-0.4c1.2-0.2,1.8,0.3,2,1.4c0.2,1.1-0.4,1.7-1.6,1.9l-2.9,0.4L112,48.2z M148.2,203.4
	l-0.4-1.4c-0.4-1.4-0.9-2.1-2.1-2.3c1.1-0.6,1.5-1.8,1.1-3.2c-0.5-2.3-2.1-3.1-4.6-2.5l-5.8,1.4l2.8,12l2.5-0.6l-1.1-4.7l2.6-0.6
	c1.4-0.3,1.8,0.1,2.2,1.5l0.3,1.3c0.2,0.6,0.4,1.1,0.6,1.4l2.7-0.6l-0.1-0.4C148.5,204.5,148.4,204.1,148.2,203.4 M143,199.3
	l-2.9,0.7l-0.8-3.2l3-0.7c1.1-0.3,1.8,0.1,2.1,1.2C144.7,198.4,144.2,199,143,199.3 M165.9,182.9l2.6,3.8l-4.2,2.8l-2.6-3.8
	l-2.1,1.4l6.8,10.2l2.1-1.4l-3-4.5l4.2-2.8l3,4.5l2.1-1.4l-6.8-10.2L165.9,182.9z M127.9,196.1l-3.6,12.5l2.7-0.2l0.6-2.6l4.8-0.3
	l1,2.5l2.6-0.2l-5.2-12L127.9,196.1z M128.1,203.8l1.4-5.3l2,5.1L128.1,203.8z M184.6,75.9l-3.5,9.2l1.6,2.1l9.6-7.6l-1.6-2
	l-6.6,5.2l3.5-9.2l-1.6-2l-9.6,7.6l1.6,2L184.6,75.9z M63.3,72.7l6.8,5.6L60,76.7l-1.8,2.1l10,8.2l1.7-2L63,79.4L73.2,81l1.7-2.1
	l-10-8.2L63.3,72.7z M88.2,189.9c1.3-2,0.9-3.6-1.3-5.1l-4.9-3.3l-6.9,10.2l2.1,1.4l2.7-4l2.2,1.5c1.2,0.8,1.2,1.4,0.4,2.6l-0.7,1.1
	c-0.4,0.6-0.6,1-0.6,1.4l2.3,1.6l0.2-0.3c-0.2-0.5,0-0.8,0.4-1.4l0.8-1.2c0.8-1.3,1-2.1,0.2-3.1C86.3,191.6,87.4,191.2,88.2,189.9
	 M83.5,189l-2.5-1.7l1.8-2.7l2.6,1.7c1,0.7,1.1,1.5,0.5,2.3C85.3,189.6,84.6,189.7,83.5,189 M190.4,172.1l-2.6-1.8l3.3-4.9l-1.7-1.2
	l-3.3,4.9l-2.2-1.4l3.6-5.3l-1.8-1.2l-4.9,7.4l10.2,6.8l5.1-7.7l-1.9-1.3L190.4,172.1z M70.9,178.2c-1.3,0-2.3,1-2.3,2.3
	c0,1.3,1,2.3,2.3,2.3c1.3,0,2.3-1,2.3-2.3C73.2,179.2,72.2,178.2,70.9,178.2 M64.3,160.7l-2,1.3l3.9,5.9l-2.8,1.8l-3.4-5.2l-1.8,1.2
	l3.4,5.2l-2.3,1.5l-3.7-5.6l-1.9,1.2l5.2,7.8l10.8-7.1L64.3,160.7z M141.4,59.2c0.6,0.5,1.3,0.8,2.3,1.1l1.3,0.4
	c1.9,0.5,3.4,0.5,4.4-0.7c0.4-0.5,0.7-1.2,0.9-2l0.3-1.2l-2.3-0.6l-0.1,0.6c0,0.2-0.1,0.3-0.1,0.5c-0.2,0.6-0.3,1-0.5,1.2
	c-0.3,0.4-0.7,0.4-2.1,0.1l-0.9-0.2c-0.7-0.2-1.2-0.4-1.5-0.6c-0.1-0.1-0.2-0.2-0.3-0.3c-0.3-0.4-0.2-1,0.2-2.2l0.9-3.2
	c0.2-0.8,0.4-1.4,0.7-1.7c0.1-0.1,0.2-0.2,0.3-0.3c0.4-0.2,1-0.2,2,0.1l0.9,0.2c0.7,0.2,1.2,0.4,1.4,0.6c0.3,0.3,0.4,0.6,0.2,1.7
	l-0.1,0.3l-0.1,0.5l2.3,0.6l0.3-1c0.5-1.6,0.2-2.9-0.8-3.8c-0.6-0.5-1.4-0.8-2.4-1.1l-1.3-0.4c-1.9-0.5-3.4-0.4-4.3,0.8c0,0,0,0,0,0
	c-0.5,0.6-0.8,1.4-1.1,2.4l-1.1,3.8C140.1,56.7,140.2,58.2,141.4,59.2 M188,87.3c-1.1,0.5-1.8,1.1-2.3,1.8c-0.5,0.7-0.6,1.6-0.3,2.5
	c0.1,0.6,0.4,1.2,0.7,1.9l0.6,1.3h0c1,2.2,2.4,3.3,4.3,2.8c0,0,0.1,0,0.1,0c0.5-0.1,1.1-0.3,1.7-0.6l3.5-1.7c2.1-1,3.1-2.4,2.6-4.3
	c-0.1-0.6-0.4-1.2-0.7-1.8l-0.6-1.3c-1-2.2-2.5-3.3-4.4-2.8c-0.5,0.1-1.1,0.3-1.7,0.6L188,87.3z M193.7,87.3c0.3-0.1,0.5-0.1,0.7,0
	c0.6,0.2,0.9,0.8,1.4,1.8l0.3,0.6c0.3,0.6,0.5,1,0.6,1.4c0.1,0.3,0.1,0.5,0,0.8c-0.1,0.4-0.6,0.8-1.7,1.3l-2.9,1.4
	c-0.6,0.3-1,0.5-1.4,0.6c-0.3,0.1-0.5,0.1-0.7,0c-0.6-0.2-0.9-0.8-1.4-1.8l-0.3-0.6c-0.3-0.6-0.5-1.1-0.6-1.4
	c-0.1-0.3-0.1-0.5,0-0.8c0.1-0.4,0.6-0.8,1.7-1.3l2.9-1.5C192.9,87.6,193.3,87.4,193.7,87.3 M85.9,58.4c0.7,1.5,1.8,2.3,3.1,2.1
	c0.4-0.1,0.8-0.2,1.3-0.4l3.2-1.3c0.2-0.1,0.3-0.1,0.4-0.1c0.2,0,0.2,0,0.3,0.1c0.1,0.1,0.3,0.5,0.6,1c0.2,0.5,0.3,0.8,0.4,1
	c0,0.1,0,0.1,0,0.1c0,0.2-0.5,0.7-1.5,1.2c-1.3,0.6-2.1,1-2.6,1.1c-0.1,0-0.1,0-0.1,0c-0.2,0-0.6-0.3-1.1-1.4l-0.1-0.2l-0.2-0.4
	l-0.5,0.2l-1.5,0.7l0.2,0.4c0.1,0.2,0.2,0.4,0.2,0.5c0.5,1.1,1.2,1.9,2.2,2.2c0.4,0.1,0.8,0.1,1.2,0.1c0.8-0.1,1.5-0.5,2.4-0.9
	l0.5-0.2c1.5-0.8,2.7-1.3,3.1-2.6c0.1-0.4,0.1-0.7,0.1-1.1c-0.1-0.6-0.3-1.2-0.7-1.9c-0.7-1.4-1.7-2.3-3-2.1
	c-0.3,0.1-0.7,0.2-1.1,0.3l-3.3,1.3c-0.2,0.1-0.4,0.1-0.5,0.1c-0.2,0-0.3,0-0.4-0.1c-0.1-0.1-0.3-0.3-0.5-0.8
	c-0.2-0.4-0.3-0.7-0.3-0.8c0-0.3,0-0.4,0.2-0.6c0.2-0.2,0.7-0.5,1.4-0.8c1.1-0.6,1.9-0.9,2.3-1c0.1,0,0.2,0,0.2,0
	c0.1,0,0.3,0.3,0.6,0.9l0.1,0.2l0.2,0.4l2-1l-0.2-0.4c-0.1-0.2-0.2-0.4-0.2-0.5c-0.5-0.9-1-1.6-1.8-1.8c-0.4-0.1-0.8-0.1-1.2-0.1
	c-0.9,0.1-1.7,0.5-2.7,1l-0.4,0.2c-1.3,0.7-2.3,1.1-2.8,2.1c-0.2,0.5-0.2,0.9-0.2,1.4C85.4,57.3,85.6,57.9,85.9,58.4 M200.2,104.5
	c-1.6,0.3-2.6,1.1-2.7,2.5c0,0.4,0,0.7,0,1.1l0.5,3.5c0,0.2,0,0.4,0,0.5c0,0.2-0.1,0.3-0.2,0.4c-0.1,0.1-0.4,0.2-0.9,0.3
	c-0.4,0.1-0.7,0.1-0.9,0.1c-0.3,0-0.3-0.1-0.5-0.3c-0.2-0.3-0.3-0.8-0.5-1.5c-0.3-1.2-0.4-2.1-0.4-2.5c0-0.1,0-0.2,0.1-0.2
	c0-0.1,0.3-0.2,1-0.4l0.3-0.1l0.5-0.1l-0.5-2.2l-0.5,0.1c-0.2,0-0.4,0.1-0.6,0.1c-1,0.2-1.8,0.6-2.2,1.3c-0.2,0.4-0.3,0.8-0.3,1.2
	c-0.1,0.9,0.1,1.8,0.4,2.8l0.1,0.4c0.3,1.4,0.5,2.5,1.4,3.2c0.4,0.3,0.9,0.5,1.4,0.5c0.5,0,1.1,0,1.7-0.2c1.6-0.3,2.7-1.2,2.7-2.5
	c0-0.4,0-0.9-0.1-1.4l-0.5-3.4c0-0.2,0-0.4,0-0.5c0-0.2,0-0.2,0.2-0.3c0.2-0.1,0.5-0.2,1.1-0.3c0.5-0.1,0.9-0.2,1-0.1
	c0.1,0,0.1,0,0.1,0c0.2,0.1,0.5,0.7,0.8,1.8c0.3,1.4,0.5,2.3,0.5,2.7c0,0.1,0,0.1,0,0.1c0,0.2-0.4,0.5-1.6,0.8l-0.2,0l-0.5,0.1
	l0.1,0.5l0.4,1.6l0.5-0.1c0.2,0,0.4-0.1,0.6-0.1c1.2-0.3,2.1-0.7,2.6-1.6c0.2-0.4,0.3-0.7,0.3-1.1c0.1-0.8-0.1-1.6-0.3-2.5l-0.1-0.5
	c-0.4-1.7-0.7-3-1.8-3.7c-0.3-0.2-0.7-0.3-1-0.3C201.5,104.3,200.9,104.4,200.2,104.5 M54.3,94.4l3.5,1.8c0.6,0.3,1.1,0.5,1.6,0.7
	c1.9,0.5,3.4-0.5,4.5-2.7l0.7-1.3c0.4-0.7,0.6-1.3,0.8-1.8c0.5-1.9-0.4-3.4-2.5-4.4l-3.5-1.8c-0.6-0.3-1.1-0.5-1.6-0.7
	c0,0-0.1,0-0.1,0c-1.9-0.5-3.3,0.6-4.4,2.7h0l-0.7,1.3c-0.4,0.7-0.6,1.3-0.8,1.9c-0.3,0.9-0.2,1.8,0.3,2.5
	C52.5,93.2,53.3,93.8,54.3,94.4 M54.1,90.3c0.1-0.4,0.3-0.8,0.7-1.4l0.3-0.6c0.5-1,0.9-1.6,1.5-1.8c0.2-0.1,0.4-0.1,0.7,0
	c0.3,0.1,0.8,0.3,1.4,0.6l2.9,1.5c1.1,0.6,1.6,0.9,1.6,1.4c0.1,0.3,0,0.5,0,0.8c-0.1,0.4-0.3,0.8-0.6,1.4l-0.3,0.6
	c-0.5,1-0.9,1.6-1.5,1.8c-0.2,0.1-0.4,0.1-0.7,0c-0.3-0.1-0.8-0.3-1.4-0.6l-2.9-1.5c-1.1-0.6-1.6-0.9-1.7-1.4
	C54,90.8,54,90.6,54.1,90.3 M44.8,136.3c0.7,0.3,1.6,0.4,2.6,0.4l4-0.1c2,0,3.5-0.6,4.1-2c0.3-0.7,0.4-1.5,0.3-2.5l0-1.4
	c0-2-0.5-3.4-1.9-4c-0.6-0.3-1.3-0.3-2.2-0.3l-1.3,0l0.1,2.4l0.6-0.1c0.2,0,0.3,0,0.5,0c0.6,0,1,0,1.3,0.2c0.5,0.2,0.6,0.6,0.7,2
	l0,0.9c0,0.7,0,1.3-0.1,1.6c-0.1,0.1-0.1,0.2-0.2,0.4c-0.3,0.4-0.9,0.4-2.1,0.5l-3.3,0.1c-0.9,0-1.5,0-1.8-0.1
	c-0.1-0.1-0.2-0.1-0.3-0.2c-0.4-0.3-0.4-0.9-0.5-2l0-0.9c0-0.7,0-1.2,0.2-1.5c0.2-0.4,0.4-0.6,1.6-0.6l0.3,0l0.5,0l-0.1-2.4l-1,0
	c-1.7,0-2.9,0.6-3.4,1.9c-0.3,0.7-0.4,1.6-0.4,2.6l0,1.4C42.8,134.3,43.4,135.7,44.8,136.3C44.8,136.3,44.8,136.3,44.8,136.3
	 M109.4,194.7c-0.7-0.4-1.6-0.6-2.7-0.9l-0.4-0.1c-1.5-0.3-2.5-0.6-3.5-0.1c-0.4,0.2-0.8,0.6-1,1c-0.3,0.5-0.4,1-0.6,1.6
	c-0.4,1.6-0.1,2.9,1.1,3.6c0.4,0.2,0.8,0.4,1.3,0.5l3.3,1c0.2,0.1,0.3,0.1,0.4,0.2c0.2,0.1,0.2,0.1,0.2,0.3c0,0.2,0,0.6-0.2,1.1
	c-0.1,0.5-0.2,0.8-0.3,1c0,0.1-0.1,0.1-0.1,0.1c-0.2,0.2-0.8,0.2-1.9,0c-1.4-0.3-2.3-0.5-2.7-0.7c-0.1,0-0.1-0.1-0.1-0.1
	c-0.2-0.1-0.3-0.6,0-1.7l0-0.2l0.1-0.5l-0.5-0.1l-1.6-0.4l-0.1,0.4c-0.1,0.2-0.1,0.4-0.1,0.6c-0.3,1.2-0.2,2.3,0.3,3.1
	c0.2,0.3,0.5,0.6,0.9,0.8c0.7,0.4,1.5,0.6,2.4,0.8l0.5,0.1c1.7,0.4,3,0.7,4.1-0.1c0.3-0.2,0.5-0.5,0.7-0.8c0.3-0.5,0.5-1.1,0.6-1.9
	c0.4-1.5,0.1-2.8-1.1-3.5c-0.3-0.2-0.7-0.3-1.1-0.4l-3.4-1c-0.2-0.1-0.4-0.1-0.5-0.2c-0.2-0.1-0.2-0.2-0.3-0.3c0-0.2,0-0.5,0.1-0.9
	c0.1-0.4,0.2-0.7,0.3-0.9c0.2-0.2,0.2-0.3,0.5-0.3c0.3,0,0.8,0.1,1.6,0.2c1.2,0.3,2.1,0.5,2.4,0.7c0.1,0.1,0.2,0.1,0.2,0.1
	c0.1,0,0.1,0.4-0.1,1.1l-0.1,0.3l-0.1,0.5l2.2,0.5l0.1-0.4c0.1-0.2,0.1-0.4,0.1-0.6c0.2-1,0.2-1.9-0.3-2.5
	C110.1,195.2,109.8,194.9,109.4,194.7 M160.1,195.3l-2.2,1l0.3,0.5c0.1,0.1,0.2,0.3,0.2,0.5c0.3,0.6,0.4,1,0.4,1.2
	c0,0.5-0.3,0.8-1.5,1.4l-0.8,0.4c-0.7,0.3-1.2,0.5-1.6,0.5c-0.1,0-0.3,0-0.4-0.1c-0.4-0.1-0.8-0.7-1.3-1.8l-1.4-3
	c-0.4-0.8-0.6-1.4-0.6-1.7c0-0.1,0-0.3,0.1-0.4c0.2-0.5,0.7-0.8,1.6-1.2l0.8-0.4c0.7-0.3,1.2-0.4,1.5-0.4c0.5,0,0.7,0.2,1.2,1.2
	l0.1,0.3l0.2,0.5l2.2-1l-0.4-0.9c-0.7-1.5-1.7-2.4-3-2.4c-0.8,0-1.6,0.3-2.6,0.7l-1.2,0.6c-1.8,0.8-2.8,1.8-2.8,3.3c0,0,0,0,0,0
	c0,0.8,0.3,1.6,0.7,2.5l1.6,3.6c0.8,1.9,1.9,3,3.4,2.9c0.7,0,1.5-0.2,2.4-0.6l1.2-0.6c1.8-0.8,3-1.8,2.9-3.3c0-0.7-0.2-1.3-0.6-2.1
	L160.1,195.3z"/>
</svg>
