<svg xmlns="http://www.w3.org/2000/svg" xmlns:xlink="http://www.w3.org/1999/xlink" width="517.20325" height="508.73999"><defs><path id="reuse-0" fill="#243f65" d="m 0,0 c -0.04,0 -0.072,-0.032 -0.072,-0.072 0,-0.04 0.032,-0.073 0.072,-0.073 0.04,0 0.072,0.033 0.072,0.073 C 0.072,-0.032 0.04,0 0,0"/><path id="reuse-1" fill="#243f65" d="M 0,0 C 0.04,0 0.072,0.032 0.072,0.072 0.072,0.112 0.04,0.145 0,0.145 -0.04,0.145 -0.072,0.112 -0.072,0.072 -0.072,0.032 -0.04,0 0,0"/></defs><defs><clipPath id="a" clipPathUnits="userSpaceOnUse"><path d="m 125.88,532.673 h 64.651 v 63.593 H 125.88 Z"/></clipPath><clipPath id="b" clipPathUnits="userSpaceOnUse"><path d="m 125.88,532.673 h 64.652 v 63.593 H 125.88 Z"/></clipPath></defs><g clip-path="url(#a)" transform="translate(-564.14221,-593.24863) matrix(7.999982,0,0,-7.999982,-442.89568,5363.3659)"><path fill="#243f65" d="M 0,0 C -0.628,0.518 -1.21,1.005 -1.508,1.728 -1.084,1.382 -0.44,1.225 -0.236,0.675 h 0.048 c 0.047,1.037 -1.336,1.493 -1.446,2.529 0.11,0.283 0.346,0.047 0.503,-0.047 C -0.456,2.67 -0.016,1.948 0.189,1.194 0.173,0.817 0.22,0.33 0,0 m -0.188,-2.498 c -0.377,-0.283 -0.707,0.236 -1.022,0.424 -0.267,0.268 -0.518,0.55 -0.424,0.974 0.487,-0.298 0.754,-0.769 1.069,-1.162 0.125,0.173 0.047,0.361 0.031,0.565 -0.11,0.896 -1.524,1.524 -0.785,2.482 0.361,-0.235 0.534,-0.597 0.785,-0.942 0.455,-0.644 0.738,-1.587 0.346,-2.341 m -0.268,-2.34 -0.376,-0.754 c -0.472,0.33 0.141,0.864 -0.11,1.366 -0.299,0.582 -0.786,1.084 -0.99,1.697 -0.032,0.188 0.047,0.314 0.157,0.455 0.723,-0.738 1.728,-1.586 1.319,-2.764 m -1.178,-3.158 c -0.078,0.676 -0.848,1.131 -0.942,1.838 0.455,-0.345 0.675,-0.848 0.911,-1.319 0.346,0.125 0,0.487 0,0.722 -0.377,0.613 -0.817,1.336 -0.644,2.043 0.55,0.392 0.628,-0.535 0.864,-0.833 0.361,-0.738 0.298,-1.791 -0.189,-2.451 m -0.942,-2.497 c -0.204,0.44 0.094,0.958 -0.11,1.398 -0.22,0.675 -0.958,1.743 -0.031,2.262 0.439,-1.053 1.115,-2.623 0.141,-3.66 m -0.864,1.885 c 0.33,-0.346 0.44,-0.801 0.487,-1.273 -0.11,0.44 -0.518,0.77 -0.487,1.273 m -0.079,-3.77 c -0.172,-0.142 -0.235,-0.299 -0.439,-0.377 l -0.346,1.555 c 0.283,-0.204 0.424,-0.675 0.409,-1.1 0.094,-0.047 0.282,0.048 0.267,0.189 0.062,0.958 -0.739,1.791 -0.33,2.796 0.235,0.408 0.392,-0.11 0.487,-0.267 0.235,-0.88 0.659,-1.995 -0.048,-2.796 m -1.052,-1.838 c -0.188,-0.189 -0.408,-0.503 -0.676,-0.298 l -0.109,0.109 c -0.079,0.645 -0.487,1.289 -0.267,1.917 0.267,-0.565 0.596,-1.115 0.565,-1.806 0.142,-0.032 0.142,0.141 0.188,0.219 0.032,0.629 -0.031,1.21 -0.219,1.744 -0.11,0.314 0.282,1.429 0.518,0.518 0.11,-0.754 0.455,-1.696 0,-2.403 m -1.838,-2.231 h -0.235 c -0.189,0.503 -0.393,1.037 -0.33,1.587 0.345,-0.016 0.235,-0.566 0.408,-0.833 -0.016,-0.204 0.016,-0.424 0.189,-0.518 0.518,0.691 -0.205,1.461 0.031,2.262 0.094,0.236 0.11,0.503 0.314,0.707 0.377,-0.566 0.346,-1.351 0.44,-2.073 -0.11,-0.44 -0.346,-1.006 -0.817,-1.132 m -0.942,-1.429 c -0.204,-0.157 -0.346,-0.456 -0.613,-0.456 -0.283,0.519 -0.628,1.147 -0.377,1.744 0.204,-0.44 0.565,-0.848 0.424,-1.367 0.141,-0.047 0.236,0.142 0.299,0.236 0.172,0.754 -0.833,2.011 0.329,2.482 0.377,-0.817 0.472,-1.869 -0.062,-2.639 m -1.446,-1.539 c -0.298,-0.236 -0.471,-0.675 -0.879,-0.643 0.047,0.55 -0.267,1.161 -0.063,1.695 0.094,-0.44 0.417,-0.671 0.194,-1.327 0.11,-0.205 0.113,-0.019 0.223,0.013 0.66,0.722 -0.228,1.801 0.525,2.524 0.205,-0.346 0.221,-0.802 0.315,-1.21 0.11,-0.393 -0.016,-0.785 -0.315,-1.052 m -2.026,-1.933 c -0.141,-0.047 -0.267,-0.141 -0.424,-0.141 -0.157,0.393 -0.162,1.143 -0.005,1.536 0.078,-0.236 0.262,-0.381 0.183,-0.867 0.048,-0.094 0.027,-0.328 0.136,-0.229 0.684,0.62 -0.094,1.539 0.377,2.23 0.361,0.927 0.471,-0.329 0.566,-0.596 0.188,-0.88 -0.252,-1.446 -0.833,-1.933 m 9.535,16.321 c -0.189,0.487 -0.958,0.786 -0.785,1.367 0.188,-0.487 0.895,-0.754 0.785,-1.367 m -10.744,-14.388 c -0.77,-0.189 -1.257,-1.053 -1.54,-1.666 -0.754,-0.015 -1.256,-0.581 -1.665,-1.162 -1.021,0.252 -1.351,-1.099 -2.372,-1.068 -0.549,-0.267 -1.052,-0.66 -1.555,-1.052 -0.864,0.015 -1.712,-0.299 -2.293,-1.021 -0.644,0.172 -1.304,-0.111 -1.885,-0.33 -0.346,-0.519 -0.833,0.094 -1.32,-0.157 -0.455,-0.173 -0.895,-0.362 -1.288,-0.707 -0.864,0.455 -1.806,-0.016 -2.56,-0.425 -0.707,0.425 -1.65,0.048 -2.325,-0.266 -0.613,0.361 -1.492,0.455 -2.121,0.078 -0.235,0.016 -0.377,0.22 -0.596,0.267 -0.645,0.157 -1.414,0.377 -1.995,-0.031 -0.692,0.707 -1.744,0.518 -2.608,0.439 -0.581,0.582 -1.43,0.472 -2.23,0.535 -0.535,0.754 -1.587,0.722 -2.451,0.754 -0.597,0.801 -1.508,1.036 -2.482,1.021 -0.565,0.864 -1.477,1.241 -2.482,1.209 -0.125,0.566 -0.723,0.958 -1.131,1.32 -0.33,0.345 -1.052,0.031 -1.178,0.565 -0.267,0.723 -1.037,1.037 -1.649,1.32 -0.267,0.942 -1.226,1.571 -2.121,1.806 0.016,0.958 -0.974,1.681 -1.696,2.073 0.031,0.959 -1.006,1.462 -1.508,2.105 0.015,0.927 -0.644,1.713 -1.398,2.152 0.219,1.006 -0.346,1.775 -1.131,2.419 0.031,0.833 -0.252,1.524 -0.864,2.105 0.141,0.77 0,1.618 -0.487,2.231 0.298,0.487 0.094,1.241 -0.11,1.759 l -0.487,0.566 c 0.44,0.785 0.031,1.68 -0.377,2.34 0.408,0.644 0.361,1.602 0.031,2.262 0.503,0.597 0.503,1.524 0.157,2.184 l -0.125,0.157 c 0.424,0.722 0.502,1.633 0.235,2.45 0.267,0.063 0.377,0.409 0.487,0.644 0.189,0.393 0.11,0.99 0.079,1.383 0.455,0.722 0.958,1.523 0.675,2.45 0.393,0.298 0.456,0.785 0.676,1.178 0.125,0.361 -0.025,0.82 0.487,1.021 0.329,0.582 0.597,1.257 0.644,1.917 0.628,0.502 0.848,1.146 1.052,1.853 0.094,0.157 0.103,0.363 0.377,0.44 0.723,0.456 0.958,1.178 1.131,1.885 0.691,0.22 1.131,1.068 1.367,1.744 0.864,0.015 1.366,1.021 1.649,1.649 0.691,0.094 1.398,0.785 1.586,1.445 0.723,0.031 1.289,0.66 1.587,1.241 0.126,-0.047 0.456,-0.094 0.597,0.031 0.393,0.362 0.895,0.739 1.1,1.21 0.738,-0.016 1.413,0.518 1.884,1.131 0.786,0.016 1.571,0.456 2.106,1.052 0.643,-0.361 1.303,0.157 1.822,0.566 0.769,-0.079 1.382,0.455 2.026,0.801 0.628,-0.141 1.319,0.047 1.854,0.377 0.486,-0.047 1.209,0.016 1.649,0.408 0.33,-0.22 0.754,-0.062 1.1,0 0.251,0.079 0.581,0.346 0.785,-0.031 0.722,-0.283 1.335,0.126 1.885,0.487 0.251,-0.173 0.628,-0.126 0.879,-0.189 v -0.047 c 0.597,-0.125 1.194,0.063 1.807,0.267 0.88,-0.707 2.073,-0.392 3.126,-0.267 0.66,-0.974 1.979,0.236 2.639,-0.864 0.675,-0.204 1.508,-0.235 2.215,-0.11 0.408,-1.288 2.042,-0.534 2.607,-1.665 0.613,-0.565 1.508,-0.455 2.341,-0.518 0.471,-1.037 1.665,-1.571 2.717,-1.697 0.299,-1.02 1.383,-1.445 2.294,-1.665 0.345,-0.895 1.319,-1.586 2.152,-1.963 0.392,-0.958 1.209,-1.854 2.183,-2.294 0.063,-0.911 0.801,-1.649 1.587,-2.073 -0.016,-0.958 0.486,-1.822 1.319,-2.34 0.063,-0.236 0.079,-0.33 0.079,-0.597 0.141,-0.88 1.335,-1.367 1.052,-2.372 0.204,-0.613 0.299,-1.273 0.785,-1.775 C -3.456,10.603 -2.969,9.77 -2.498,9.032 -2.749,8.09 -2.435,7.1 -1.932,6.33 -2.183,5.545 -2.199,4.665 -1.853,3.911 -2.231,2.969 -1.979,1.964 -1.634,1.084 -2.168,0.361 -2.026,-0.691 -1.885,-1.587 c -0.691,-0.612 -0.644,-1.68 -0.565,-2.529 -0.566,-0.581 -0.676,-1.508 -0.503,-2.34 -0.628,-0.534 -0.974,-1.335 -0.895,-2.105 -0.66,-0.613 -0.833,-1.414 -0.943,-2.231 -0.785,-0.345 -1.1,-1.162 -1.21,-1.916 -0.895,-0.33 -1.083,-1.272 -1.397,-1.995 -0.535,-0.44 -1.178,-1.021 -1.351,-1.696 -1.053,-0.299 -1.116,-1.65 -2.121,-1.885 -0.471,-0.315 -0.534,-1.084 -1.162,-1.131 m 0.346,-1.221 c 0,-0.895 -0.205,-1.937 -1.1,-2.329 -0.686,0.135 -0.362,1.099 -0.299,1.617 l 0.079,0.11 c 0.062,-0.392 0.334,-0.904 0.098,-1.25 l 0.012,-0.132 c 0.864,0.55 0.141,1.885 0.895,2.561 0.204,0.031 0.153,-0.007 0.263,-0.117 0.034,-0.105 0.074,-0.214 0.052,-0.46 m -2.498,-3.351 c -0.22,-0.172 -0.519,-0.298 -0.833,-0.188 -0.267,0.44 -0.141,1.084 0.079,1.508 l 0.235,-1.241 c 0.142,0.063 0.283,0.283 0.33,0.456 0,0.738 0.094,1.413 0.566,1.963 0.125,0 0.282,-0.016 0.267,-0.157 0.094,-0.864 -0.063,-1.775 -0.644,-2.341 m -2.828,-1.696 c -0.094,0.031 -0.235,-0.063 -0.298,0.079 0.188,0.518 0.251,1.084 0.377,1.617 l 0.188,0.158 c -0.078,-0.472 0.173,-0.943 -0.188,-1.288 l 0.11,-0.11 c 0.958,0.628 0.487,1.9 1.241,2.638 0.157,0.016 0.267,-0.078 0.267,-0.219 -0.016,-1.179 -0.503,-2.467 -1.697,-2.875 m -1.084,-0.377 c -0.455,-0.283 -0.895,-0.691 -1.476,-0.518 0.172,0.612 0.377,1.335 0.675,1.947 -0.047,-0.502 0.236,-1.287 -0.33,-1.649 0.063,-0.141 0.205,-0.016 0.299,0.032 0.785,0.722 0.518,1.994 1.429,2.56 0.126,0.016 0.267,0 0.267,-0.141 -0.047,-0.848 -0.283,-1.603 -0.864,-2.231 m -3.927,-1.398 c -0.094,0.346 0.252,0.644 0.267,1.021 0.252,0.44 0.503,0.942 0.974,1.21 -0.424,-0.55 -0.204,-1.398 -0.785,-1.854 0.408,-0.141 0.518,0.377 0.707,0.613 0.329,0.628 0.644,1.492 1.445,1.696 -0.063,-0.565 -0.299,-1.162 -0.534,-1.696 -0.597,-0.566 -1.273,-1.021 -2.074,-0.99 m -2.073,-0.754 c -0.173,0.094 -0.299,-0.031 -0.456,0.126 0.22,0.738 0.66,1.492 1.241,1.995 l 0.189,0.078 c -0.472,-0.549 -0.252,-1.382 -0.896,-1.853 l 0.079,-0.079 c 0.88,0.66 1.068,1.901 2.183,2.152 -0.141,-0.44 -0.455,-0.832 -0.612,-1.241 -0.315,-0.597 -0.974,-1.209 -1.728,-1.178 m -2.828,-0.408 c -0.204,0.157 0.048,0.298 0.079,0.455 0.424,0.503 0.691,1.178 1.272,1.508 -0.22,-0.44 -0.251,-1.304 -0.864,-1.696 0.346,-0.016 0.613,0.471 0.864,0.675 0.393,0.471 0.848,1.241 1.508,1.351 l 0.047,-0.063 c -0.125,-0.487 -0.44,-0.801 -0.644,-1.256 -0.408,-0.849 -1.398,-1.037 -2.262,-0.974 m -1.618,-0.377 c -0.282,-0.016 -0.565,-0.063 -0.785,0.11 0.126,0.644 0.566,1.319 1.084,1.775 0.11,0.078 0.282,0.157 0.424,0.078 -0.314,-0.455 -0.424,-1.052 -0.911,-1.367 -0.031,-0.046 -0.11,-0.078 -0.11,-0.141 0.141,-0.157 0.361,0.016 0.518,0.079 0.582,0.518 1.021,1.539 1.885,1.382 -0.361,-0.801 -1.068,-1.916 -2.105,-1.916 m -1.995,-0.267 c -0.455,-0.142 -0.989,0.062 -1.366,0.267 v 0.11 c 0.518,0.518 0.879,1.225 1.586,1.429 -0.251,-0.471 -0.518,-1.021 -0.974,-1.32 1.084,0.016 1.241,1.556 2.404,1.509 l 0.078,-0.11 c -0.518,-0.676 -0.738,-1.713 -1.728,-1.885 m -3.691,0.267 -0.157,0.157 c 0.361,0.565 0.974,1.084 1.508,1.429 h 0.157 c -0.377,-0.408 -0.518,-1.099 -1.099,-1.209 -0.032,-0.047 -0.111,-0.079 -0.111,-0.158 1.084,-0.188 1.54,1.65 2.671,1.257 0.078,-0.345 -0.377,-0.518 -0.566,-0.832 -0.675,-0.534 -1.523,-1.1 -2.403,-0.644 m -1.209,0.078 c -0.488,-0.047 -0.927,0.047 -1.32,0.22 -0.189,0.22 0.075,0.353 0.259,0.523 0.302,0.237 0.731,1.095 1.39,0.907 -0.439,-0.33 -0.722,-0.959 -1.272,-1.132 0.094,-0.282 0.424,-0.078 0.597,-0.031 0.675,0.424 1.304,0.958 2.073,1.131 0.032,-0.094 0.189,-0.188 0.079,-0.298 -0.487,-0.487 -0.99,-1.398 -1.806,-1.32 m -3.362,0.409 c -0.173,0.109 -0.534,0.015 -0.518,0.345 v 0.11 c 0.581,0.361 1.083,0.958 1.728,1.21 -0.252,-0.487 -0.488,-1.069 -1.1,-1.21 0.22,-0.22 0.55,0.063 0.801,0.189 0.44,0.597 1.021,1.021 1.775,0.832 0.267,-0.11 0.14,-0.275 -0.047,-0.487 -0.66,-0.848 -1.54,-1.209 -2.639,-0.989 m -2.184,0.534 c -0.408,0.11 -0.864,0.204 -1.13,0.565 0.769,0.393 1.397,1.382 2.45,1.084 l 0.031,-0.031 c -0.565,-0.409 -1.052,-1.037 -1.838,-0.943 v -0.078 c 1.147,-0.362 1.917,0.644 3.017,0.612 l 0.11,-0.157 c -0.802,-0.534 -1.524,-1.492 -2.64,-1.052 m -2.45,0.895 c -0.44,0.126 -0.88,0.314 -1.162,0.723 0.706,0.251 1.303,0.785 2.136,0.754 -0.518,-0.236 -0.88,-0.896 -1.508,-0.912 0.188,-0.078 0.408,-0.157 0.612,-0.062 0.802,0.173 1.587,0.974 2.482,0.408 v -0.157 c -0.738,-0.518 -1.555,-1.084 -2.56,-0.754 m -3.236,1.257 c -0.235,0.141 -0.565,0.377 -0.613,0.675 0.786,-0.047 1.32,0.534 2.121,0.487 -0.471,-0.267 -0.927,-0.801 -1.555,-0.644 -0.031,-0.031 -0.094,-0.063 -0.079,-0.11 0.252,-0.157 0.566,-0.157 0.88,-0.157 0.754,0.173 1.382,0.613 2.262,0.503 0.079,-0.126 0.346,-0.126 0.252,-0.346 -0.833,-0.754 -2.247,-0.785 -3.268,-0.408 m -2.906,1.916 c -0.126,0.094 -0.078,0.252 -0.11,0.377 l 1.571,0.032 c 0.228,0.039 0.477,0.144 0.74,-0.027 -0.393,-0.094 -1.023,-0.602 -1.494,-0.303 -0.031,-0.047 0.136,-0.104 0.167,-0.183 1.068,-0.565 2.173,0.905 3.006,-0.351 -0.487,-0.205 -1.084,-0.189 -1.539,-0.456 -0.864,-0.11 -1.712,0.267 -2.341,0.911 m -1.696,1.131 c -0.267,0.22 -0.582,0.487 -0.754,0.786 0.816,0.204 1.822,0.282 2.67,0.078 l 0.047,-0.031 c -0.675,-0.079 -1.288,-0.487 -2.011,-0.236 -0.031,-0.031 0.133,-0.13 0.228,-0.177 0.801,-0.345 1.547,0.083 2.349,-0.153 0.125,-0.11 0.345,-0.22 0.377,-0.455 -0.833,-0.503 -2.09,-0.22 -2.906,0.188 m -2.451,1.916 c -0.207,0.185 -0.55,0.377 -0.455,0.723 0.754,0.298 1.775,0.094 2.56,-0.11 -0.597,0 -1.257,-0.487 -1.838,-0.157 l -0.08,-0.021 c 0.299,-0.44 0.96,-0.277 1.431,-0.387 0.597,0.063 1.1,-0.095 1.587,-0.299 0.157,-0.408 -0.377,-0.298 -0.566,-0.424 -1.021,-0.22 -1.885,0.173 -2.639,0.675 m -2.23,2.2 c -0.079,0.157 -0.158,0.377 -0.079,0.565 0.754,-0.188 1.539,-0.251 2.309,-0.377 -0.455,-0.251 -1.099,-0.361 -1.586,-0.047 -0.048,-0.283 0.473,-0.395 0.565,-0.408 0.88,-0.11 1.917,-0.016 2.482,-0.723 -1.115,-0.016 -2.859,-0.267 -3.691,0.99 m -1.54,1.916 c 0.016,0.236 -0.22,0.566 0.11,0.675 0.833,-0.141 1.822,0.048 2.419,-0.596 -0.487,0.188 -1.178,-0.409 -1.696,0.078 l -0.079,-0.078 c 0.487,-0.629 1.54,-0.173 2.152,-0.676 0.224,-0.155 0.377,-0.251 0.377,-0.502 -0.392,-0.158 -0.817,0 -1.209,0 -0.801,0.094 -1.587,0.314 -2.074,1.099 m -0.644,1.162 c -0.581,0.393 -1.209,0.99 -1.099,1.697 -0.079,0.317 0.785,-0.016 1.178,-0.031 0.487,-0.016 0.911,-0.205 1.272,-0.534 -0.408,0.062 -1.115,-0.158 -1.508,0.188 l -0.088,0.011 c 0.486,-0.833 1.58,-0.686 2.319,-1.095 0.157,-0.126 0.157,-0.33 0.22,-0.487 -0.739,-0.094 -1.556,0.11 -2.294,0.251 m -2.073,3.205 -0.299,0.833 c 0.77,-0.048 1.555,-0.142 2.105,-0.645 -0.44,0.095 -0.942,0.142 -1.351,0.158 0.613,-0.739 1.822,-0.409 2.372,-1.241 0.143,-0.257 0.143,-0.336 0.079,-0.425 -1.021,0.22 -2.356,0.205 -2.906,1.32 m -1.398,2.875 c 0.094,0.188 0.282,0.266 0.455,0.329 0.644,-0.11 1.273,-0.298 1.807,-0.707 -0.519,-0.125 -1.178,0.032 -1.65,0.299 l -0.047,-0.032 c 0.613,-0.738 1.744,-0.518 2.231,-1.445 0.015,-0.141 0.11,-0.251 0.078,-0.408 l -1.696,0.298 c -0.251,0.095 -0.267,0.142 -0.377,0.236 -0.409,0.377 -0.927,0.832 -0.801,1.43 m -0.754,1.837 c -0.184,0.874 0,0.99 0,0.99 0.754,-0.267 1.586,-0.471 2.12,-1.131 -0.502,0.236 -1.146,0.094 -1.555,0.566 -0.027,-0.221 0.039,-0.263 0.118,-0.326 0.612,-0.581 1.767,-0.57 1.846,-1.559 -0.896,0.235 -2.345,0.586 -2.529,1.46 m -0.566,2.309 c -0.031,0.346 -0.235,0.676 -0.11,1.053 0.629,-0.408 1.524,-0.393 1.917,-1.1 -0.409,0.267 -0.959,0.22 -1.351,0.566 l -0.032,-0.032 c 0.409,-0.848 2.152,-0.722 1.65,-1.963 -0.723,0.408 -1.854,0.471 -2.074,1.476 m -0.408,1.995 c -0.204,0.44 -0.252,1.021 -0.11,1.508 0.565,-0.581 1.429,-0.675 1.948,-1.351 -0.487,0.252 -1.053,0.299 -1.508,0.629 0.062,-0.99 1.382,-0.707 1.775,-1.54 0.031,-0.188 -0.016,-0.361 -0.142,-0.487 -0.66,0.393 -1.649,0.409 -1.963,1.241 m -0.377,4.179 c 0.471,-0.44 1.334,-0.909 1.758,-1.475 0,0 0.061,-0.167 -0.14,-0.096 -0.202,0.07 -0.819,0.175 -1.082,0.622 -0.105,0.157 -0.081,0.116 -0.128,0.053 -0.015,-1.052 1.43,-1.084 1.508,-1.995 -0.66,-0.219 -1.432,0.576 -1.618,0.896 -0.377,0.597 -0.534,1.335 -0.298,1.995 m 0.011,2.532 0.067,-0.145 c 0.503,-0.549 1.336,-0.801 1.571,-1.508 -0.377,0.346 -0.864,0.472 -1.241,0.817 l 0.089,-0.32 c 0.44,-0.566 1.199,-0.952 1.309,-1.753 0,-0.204 -0.126,-0.519 -0.377,-0.377 -0.487,0.565 -1.382,0.832 -1.476,1.633 -0.157,0.472 -0.244,1.022 0.058,1.653 m 0.209,2.369 c 0.518,-0.487 1.115,-1.084 1.429,-1.728 -0.345,0.33 -0.848,0.424 -1.084,0.864 -0.157,-0.142 -0.031,-0.346 0.032,-0.487 0.392,-0.597 1.256,-1.053 1.052,-1.854 -0.691,0.204 -1.429,0.896 -1.649,1.587 -0.063,0.502 -0.047,1.162 0.22,1.618 m 0.157,1.885 0.298,0.612 c 0.314,-0.581 0.88,-1.115 1.131,-1.743 -0.471,0.157 -0.659,0.612 -0.942,0.942 -0.126,-0.11 0.019,-0.391 0.066,-0.532 0.252,-0.691 0.97,-1.149 0.766,-1.981 -0.056,-0.147 -0.056,-0.318 -0.235,-0.189 -0.597,0.864 -1.508,1.697 -1.084,2.891 m 0.487,2.34 c 0.094,0.346 0.125,0.707 0.377,0.974 0.314,-0.817 1.068,-1.524 1.131,-2.482 -0.424,0.393 -0.613,0.927 -0.943,1.32 -0.094,-0.927 0.927,-1.618 0.644,-2.529 -0.063,-0.079 -0.173,-0.157 -0.267,-0.079 -0.628,0.801 -1.288,1.681 -0.942,2.796 m 0.911,2.796 0.188,0.189 c 0.346,-0.503 0.644,-1.068 0.943,-1.634 -0.424,0.094 -0.597,0.566 -0.801,0.833 -0.22,-0.377 0.078,-0.754 0.188,-1.084 0.22,-0.487 0.676,-0.817 0.456,-1.445 -0.063,-0.157 -0.11,-0.362 -0.299,-0.44 -0.628,1.021 -1.523,2.403 -0.675,3.581 m 0.666,1.564 c 0.204,0.205 0.292,0.51 0.606,0.651 0.283,-0.471 0.361,-1.084 0.676,-1.586 0.058,-0.129 -0.016,-0.173 -0.032,-0.252 -0.126,0.299 -0.55,0.629 -0.644,1.005 -0.235,-0.172 -0.012,-0.466 0.064,-0.816 0.251,-0.503 0.503,-1.236 0.079,-1.708 -0.472,0.77 -1.378,1.685 -0.749,2.706 m 1.062,2.583 c 0.188,0.141 0.377,0.487 0.597,0.299 l 0.125,-0.644 c 0,-0.55 0.613,-0.974 0.33,-1.508 -0.361,0.298 -0.377,0.785 -0.597,1.162 -0.173,0 -0.046,-0.345 -0.046,-0.486 0.016,-0.723 0.626,-1.277 0.092,-1.984 l -0.234,0.067 c -0.377,0.911 -0.911,2.12 -0.267,3.094 m 1.508,2.513 0.487,0.425 c 0.047,-0.817 0.204,-1.665 0.298,-2.498 -0.267,0.408 -0.377,0.895 -0.487,1.367 -0.173,0.015 -0.073,-0.211 -0.136,-0.305 0.031,-0.927 0.497,-1.863 -0.131,-2.68 -0.184,0.093 -0.2,0.429 -0.342,0.618 -0.487,0.927 -0.396,2.272 0.311,3.073 m 1.995,2.341 c 0.031,-0.691 0.063,-1.398 0.267,-2.026 l -0.157,-0.126 c -0.205,0.346 -0.362,0.77 -0.299,1.178 l -0.015,0.079 c -0.377,-0.503 0.015,-1.069 -0.126,-1.697 -0.079,-0.393 -0.063,-0.848 -0.503,-1.068 -0.173,1.194 -0.77,3.11 0.833,3.66 m 1.555,1.854 c -0.016,-0.676 0.141,-1.336 0.298,-1.964 l -0.11,-0.267 c -0.251,0.346 -0.487,0.817 -0.377,1.288 l -0.033,0.072 c -0.535,-0.801 0.19,-1.926 -0.532,-2.601 -0.165,-0.118 -0.178,-0.105 -0.236,-0.078 -0.204,0.565 -0.204,1.083 -0.298,1.696 -0.11,0.848 0.675,1.445 1.288,1.854 m 0.754,0.754 c 0.282,0.329 0.534,0.801 0.974,0.942 0.094,-0.707 0.157,-1.555 0,-2.309 -0.142,0.361 -0.362,0.832 -0.189,1.257 L -53.69,24.3 c -0.566,-0.769 0.267,-2.105 -0.864,-2.56 -0.283,0.864 -0.314,1.806 0.157,2.608 m 1.429,1.209 c 0.157,0.518 0.66,0.77 1.053,1.131 h 0.188 c -0.078,-0.832 0.189,-1.649 -0.22,-2.34 -0.078,0.424 -0.204,1.005 -0.047,1.46 -0.126,0.22 -0.267,-0.062 -0.33,-0.141 -0.157,-0.785 -0.126,-1.634 -0.612,-2.262 0.157,0.707 -0.142,1.382 -0.032,2.152 m 1.539,0.943 c 0.036,0.268 0,0.235 0.11,0.377 0.299,0.455 0.77,0.785 1.257,0.942 -0.251,-0.581 0.016,-1.382 -0.235,-1.963 -0.205,0.298 -0.276,0.806 -0.151,1.136 l -0.038,0.026 c -0.424,-0.456 -0.267,-1.21 -0.408,-1.807 -0.126,-0.235 -0.346,-0.455 -0.613,-0.486 0.141,0.644 0.063,1.131 0.078,1.775 m 2.53,2.293 c 0.204,0.141 0.408,0.33 0.675,0.346 l -0.22,-0.833 c -0.094,0.047 0.031,0.251 -0.11,0.298 -0.801,-0.628 -0.251,-1.806 -0.832,-2.529 -0.095,-0.015 -0.158,-0.094 -0.267,-0.078 l -0.189,0.236 c -0.094,1.021 0.016,2.026 0.943,2.56 m 1.476,0.723 c 0.424,0.439 0.99,0.722 1.571,0.863 l 0.078,-0.157 c -0.172,-0.596 -0.533,-1.209 -0.706,-1.837 -0.158,0.392 -0.079,0.895 0.062,1.272 l -0.062,0.078 c -0.88,-0.628 -0.33,-1.979 -1.288,-2.529 l -0.267,0.048 c 0.141,0.722 -0.048,1.696 0.612,2.262 m 3.359,1.771 0.552,0.066 c -0.188,-0.754 -0.549,-1.445 -0.942,-2.105 0.11,0.44 -0.11,1.163 0.346,1.54 l -0.079,0.078 c -0.644,-0.612 -0.848,-1.413 -1.21,-2.152 -0.125,-0.172 -0.329,-0.298 -0.518,-0.188 l -0.027,0.16 c 0.502,0.974 0.464,2.413 1.878,2.601 m 1.97,0.788 c 0.204,-0.031 0.672,-0.046 0.515,-0.298 l -0.83,-1.646 c 0.031,0.409 -0.05,0.971 0.264,1.27 l -0.078,0.062 c -0.66,-0.612 -0.704,-1.562 -1.473,-2.08 -0.126,0.314 0.012,0.62 0.106,0.918 0.393,0.722 0.695,1.476 1.496,1.774 m 0.703,-0.376 c 0.408,0.503 0.988,0.805 1.57,0.915 0,0 0.212,0.089 0.079,-0.271 -0.132,-0.36 -0.392,-1.1 -0.785,-1.508 -0.094,0.377 0.11,0.738 0.299,1.052 -0.299,0 -0.488,-0.408 -0.676,-0.644 -0.079,-0.392 -0.314,-0.816 -0.723,-0.974 h -0.188 c -0.079,0.519 0.251,0.959 0.424,1.43 m 2.791,1.217 c 0.394,0.131 0.712,0.228 1.011,0.055 -0.346,-0.644 -0.676,-1.335 -1.289,-1.838 0,0.519 0.425,0.849 0.644,1.273 -0.015,0.063 0.049,0.121 0.002,0.168 -0.534,-0.612 -0.913,-1.503 -1.698,-1.865 -0.047,0.927 0.686,1.673 1.33,2.207 m 1.764,0.244 c 0.299,0.078 0.739,0.377 0.974,0.047 -0.235,-0.581 -0.549,-1.115 -0.942,-1.618 -0.063,-0.079 -0.173,-0.031 -0.252,-0.047 0,0.503 0.236,0.911 0.519,1.288 -0.487,-0.079 -0.754,-0.723 -1.021,-1.131 -0.189,-0.11 -0.314,-0.377 -0.566,-0.377 0.252,0.691 0.487,1.587 1.288,1.838 m 3.095,0.345 c -0.361,-0.549 -0.891,-1.224 -1.378,-1.679 0.031,0.235 0.039,0.591 0.328,0.919 0.063,0.047 0.123,0.116 0.139,0.195 -0.173,0.078 -0.296,-0.129 -0.467,-0.287 -0.408,-0.44 -0.68,-0.954 -1.261,-1.111 0.11,0.534 0.487,1.052 0.785,1.555 0.519,0.361 1.288,0.723 1.854,0.408 m 2.105,0.11 c -0.016,-0.628 -0.801,-0.895 -1.21,-1.351 -0.141,0.487 0.66,0.692 0.754,1.132 -0.974,0 -1.382,-1.461 -2.372,-1.477 l -0.109,0.188 c 0.706,0.974 1.649,2.058 2.937,1.508 m 2.56,-0.078 0.126,-0.11 v -0.142 l -1.508,-1.021 -0.126,0.032 c 0.236,0.518 0.739,0.675 1.1,1.021 -0.974,-0.063 -1.634,-1.131 -2.608,-1.32 -0.235,-0.031 -0.188,0.267 -0.141,0.409 0.927,0.612 1.853,1.838 3.157,1.131 m 2.498,-0.11 c 0.283,-0.016 0.534,-0.11 0.754,-0.299 l -0.047,-0.157 c -0.613,-0.439 -1.21,-0.942 -1.917,-1.162 0.314,0.597 0.943,0.77 1.398,1.209 h -0.267 c -1.036,-0.314 -1.932,-1.209 -3.094,-1.021 0.675,1.084 1.932,1.383 3.173,1.43 m 3.204,-0.895 -0.345,-0.158 c -0.032,0.095 0.047,0.126 0.078,0.189 l -0.11,0.11 c -0.864,-0.33 -1.696,-0.707 -2.576,-0.974 -0.188,0 -0.408,-0.031 -0.565,0.11 0.282,0.487 0.927,0.723 1.398,1.021 0.691,0.173 1.571,0.188 2.12,-0.298 m 3.079,-0.99 c -0.707,-0.22 -1.649,0.173 -2.293,-0.33 -0.346,-0.047 -0.707,-0.079 -1.053,-0.126 -0.172,0.063 -0.408,0.173 -0.534,0.346 v 0.078 c 1.068,0.55 2.953,1.226 3.88,0.032 M -22.4,30.866 c 0.189,0.11 0.409,0.267 0.644,0.157 -0.22,-0.062 -0.392,-0.298 -0.644,-0.157 m 4.304,0.079 c 0.252,-0.22 0.519,-0.456 0.409,-0.801 -1.304,0.927 -2.749,-0.33 -4.116,0.157 -0.141,0.283 0.267,0.393 0.424,0.534 0.943,0.487 2.278,0.518 3.283,0.11 m 3.126,-1.885 c -1.052,0.456 -2.513,0.11 -3.691,0 -0.126,0.141 -0.393,0.141 -0.424,0.377 0.392,0.361 0.974,0.22 1.429,0.408 0.833,0.016 2.011,-0.078 2.686,-0.785 m 2.451,-1.932 c -1.037,1.178 -3.001,0.188 -4.069,1.131 0.613,0.22 1.461,0.22 2.184,0.157 0.706,-0.22 1.586,-0.534 1.885,-1.288 m 2.34,-1.649 c -0.675,0.015 -1.178,0.706 -1.963,0.565 -0.66,0.079 -1.571,-0.11 -1.854,0.597 l 0.99,0.157 c 1.052,-0.016 2.199,-0.267 2.827,-1.319 m 2.184,-2.074 c 0.062,-0.031 0.015,-0.11 0.031,-0.157 -0.503,-0.079 -0.518,0.628 -0.974,0.754 -0.848,0.377 -1.681,0.047 -2.529,0.424 -0.173,0.141 -0.283,0.33 -0.346,0.518 1.477,0.189 3.048,-0.125 3.818,-1.539 m 1.963,-2.639 v -0.047 c -0.251,0.141 -0.298,0.471 -0.502,0.691 -0.864,0.628 -2.09,0.424 -2.969,1.053 -0.142,0.157 -0.173,0.377 -0.158,0.596 0.613,0.032 1.383,-0.015 1.964,-0.298 0.707,-0.566 1.335,-1.241 1.665,-1.995 m -2.011,0.518 -0.062,0.126 c 0.22,-0.047 0.565,-0.047 0.816,-0.157 -0.219,-0.157 -0.518,-0.031 -0.754,0.031 m 3.551,-2.324 c 0.125,-0.205 0.078,-0.487 0.109,-0.723 -0.235,0.66 -0.911,1.131 -1.586,1.32 -0.565,0.235 -1.571,0.157 -1.618,0.973 0.361,0.173 0.832,0 1.178,0 0.161,-0.053 0.243,-0.043 0.306,-0.106 0.754,-0.11 1.328,-0.773 1.611,-1.464 m 1.398,-3.173 h -0.048 c -0.125,0.439 -0.329,0.848 -0.753,1.162 -0.597,0.33 -1.257,0.487 -1.917,0.691 -0.267,0.126 -0.094,0.566 -0.22,0.754 0.723,0 1.32,-0.283 1.916,-0.613 0.472,-0.612 0.959,-1.178 1.022,-1.994 m 0.675,-1.053 c 0.236,-0.377 0.377,-0.785 0.409,-1.241 -0.126,1.257 -1.618,1.147 -2.404,1.76 l -0.11,0.722 c 0.707,-0.393 1.681,-0.408 2.105,-1.241 M -3.44,14.31 c 0.314,-0.063 0.644,-0.126 0.864,-0.408 -0.33,0.031 -0.628,0.219 -0.864,0.408 m 2.262,-2.592 c 0.031,-0.251 0.11,-0.581 0.078,-0.911 -0.251,0.11 -0.581,0.283 -0.864,0.424 -0.408,0.157 -0.832,0.252 -1.13,0.629 0.439,-0.283 1.193,-0.157 1.617,-0.676 0.158,0.157 -0.109,0.33 -0.157,0.487 -0.722,0.66 -1.869,1.037 -2.026,2.121 1.068,-0.204 2.293,-0.896 2.482,-2.074 m 0.613,-2.45 c 0.031,-0.409 0.251,-0.927 -0.048,-1.288 -0.644,0.502 -1.351,1.005 -1.885,1.618 0.723,-0.016 1.383,-0.613 1.697,-1.194 0.079,-0.032 0.11,0.031 0.157,0.063 -0.188,0.817 -0.895,1.413 -1.587,1.822 -0.282,0.251 -0.706,0.518 -0.565,0.974 0.88,-0.362 1.979,-0.958 2.231,-1.995 M 0,5.906 C -0.063,5.733 -0.016,5.514 -0.188,5.388 -0.801,5.718 -1.414,6.173 -1.853,6.739 -1.319,6.55 -0.817,6.267 -0.346,5.906 -0.581,6.755 -1.586,7.241 -2.073,7.948 -2.278,8.184 -2.293,8.467 -2.152,8.734 -1.052,8.263 -0.125,7.1 0,5.906 M 0.063,2.78 C 0,2.702 0.063,2.403 -0.125,2.56 -0.613,2.985 -1.052,3.456 -1.477,3.88 V 3.99 C -0.989,3.77 -0.55,3.33 -0.157,2.969 -0.33,4.068 -1.775,4.728 -1.743,5.953 -1.555,6.142 -1.398,5.812 -1.21,5.765 -0.393,4.995 0.236,3.974 0.063,2.78 M 0.299,2.293 c 0.392,0.362 0.204,1.053 0.141,1.508 -0.016,0.534 -0.77,1.053 -0.22,1.54 0.188,0.816 0.079,1.79 -0.644,2.372 0.518,0.958 -0.094,1.916 -0.487,2.717 0.251,1.037 -0.047,2.026 -0.754,2.749 0.047,0.864 -0.393,1.602 -1.021,2.231 -0.047,1.036 -0.518,1.932 -1.272,2.639 -0.079,1.052 -0.754,2.01 -1.697,2.529 -0.267,0.942 -0.974,1.68 -1.775,2.34 -0.078,1.147 -1.162,1.697 -2.042,2.184 -0.314,1.005 -1.335,1.775 -2.372,1.963 -0.502,0.817 -1.351,1.335 -2.183,1.697 -0.142,0.015 -0.283,0.157 -0.236,0.329 -0.707,0.77 -1.728,0.99 -2.749,1.131 -0.628,1.053 -1.759,1.367 -2.937,1.367 -0.692,0.801 -1.854,1.1 -2.828,0.895 -0.691,0.707 -1.665,0.77 -2.639,0.801 -0.691,0.802 -1.979,0.377 -2.827,0.22 -0.77,0.802 -1.932,0.582 -2.828,0.189 -0.691,0.503 -1.727,0.345 -2.45,0 -0.581,0.487 -1.367,0.078 -1.916,-0.189 -0.503,0.236 -1.1,0.063 -1.556,-0.157 -0.707,0.236 -1.602,-0.031 -2.214,-0.487 l -0.912,0.048 c -0.471,-0.173 -0.926,-0.409 -1.319,-0.692 -0.691,0.377 -1.335,-0.282 -1.917,-0.597 -0.848,0.236 -1.492,-0.424 -2.12,-0.942 -0.675,0.11 -1.288,-0.204 -1.807,-0.597 -0.424,-0.173 -0.534,-0.942 -1.083,-0.691 -0.534,-0.267 -1.084,-0.613 -1.445,-1.163 -0.582,0 -1.021,-0.424 -1.383,-0.832 -0.207,-0.182 -0.261,-0.416 -0.555,-0.416 -0.131,0 -0.197,-0.027 -0.324,-0.071 -0.519,-0.283 -0.959,-0.785 -1.194,-1.288 -0.786,-0.204 -1.226,-0.99 -1.634,-1.618 -0.408,-0.016 -0.581,-0.408 -0.942,-0.597 -0.315,-0.377 -0.786,-0.77 -0.864,-1.288 -0.707,-0.298 -1.194,-1.084 -1.351,-1.806 -0.943,-0.597 -1.43,-1.587 -1.618,-2.608 -0.817,-0.503 -1.068,-1.382 -1.1,-2.293 -0.612,-0.503 -0.927,-1.289 -1.021,-2.074 -0.707,-0.408 -0.55,-1.288 -0.675,-1.916 -0.864,-0.66 -0.691,-1.917 -0.597,-2.906 -0.676,-0.597 -0.613,-1.555 -0.503,-2.372 -0.487,-0.707 -0.644,-1.791 -0.298,-2.608 -0.409,-0.738 -0.22,-1.681 0,-2.45 -0.393,-0.723 -0.267,-1.791 0.188,-2.451 -0.235,-0.801 -0.251,-1.9 0.299,-2.56 -0.11,-0.896 0.267,-1.775 0.801,-2.482 -0.267,-0.864 0.047,-1.791 0.754,-2.341 -0.205,-0.926 0.094,-1.869 0.864,-2.45 0,-0.99 0.612,-1.869 1.429,-2.372 -0.094,-1.005 0.628,-1.932 1.508,-2.419 0.047,-0.927 0.817,-1.696 1.618,-2.073 0.157,-0.849 0.943,-1.556 1.744,-1.807 0.251,-0.99 1.256,-1.539 2.105,-1.932 0.094,-0.283 0.251,-0.613 0.455,-0.786 0.503,-0.439 1.084,-0.832 1.807,-0.832 0.439,-0.864 1.382,-1.492 2.309,-1.696 0.801,-0.88 1.9,-1.179 3.016,-1.399 0.487,-0.879 1.68,-0.753 2.592,-0.973 0.565,-0.801 1.664,-0.801 2.638,-0.864 0.66,-0.582 1.681,-0.487 2.529,-0.377 0.629,-0.629 1.728,-0.566 2.53,-0.346 0.251,-0.267 0.549,-0.424 0.895,-0.455 0.644,-0.095 1.084,0.314 1.665,0.377 0.66,-0.55 1.728,-0.315 2.45,-0.032 0.849,-0.534 1.65,0.157 2.404,0.408 0.785,-0.392 1.806,-0.062 2.497,0.425 0.864,-0.205 1.697,0.11 2.341,0.675 0.958,-0.267 1.79,0.236 2.45,0.785 l 0.519,-0.11 c 0.722,0.095 1.304,0.613 1.806,1.132 0.99,-0.22 1.775,0.565 2.309,1.319 0.817,0.032 1.492,0.503 1.995,1.131 0.77,0.141 1.587,0.66 1.775,1.477 0.817,0.094 1.492,0.958 1.916,1.618 0.786,0.094 1.147,0.973 1.508,1.539 0.943,0.126 1.1,1.194 1.556,1.775 0.817,0.314 0.989,1.241 1.319,1.932 0.314,0.079 0.534,0.408 0.817,0.566 0.204,0.377 0.393,0.754 0.424,1.193 0.77,0.566 1.131,1.414 1.273,2.31 0.863,0.534 0.832,1.586 1.068,2.45 0.754,0.628 0.848,1.649 0.816,2.592 0.692,0.785 1.1,1.9 0.644,2.906 0.456,0.691 0.503,1.696 0.299,2.529 0.597,0.77 0.33,1.9 0.236,2.827" transform="translate(189.99,562.2186)"/></g><g clip-path="url(#b)" transform="translate(-564.14221,-593.24863) matrix(7.999982,0,0,-7.999982,-442.89568,5363.3659)"><path fill="#243f65" d="m 0,0 c -0.041,-0.213 -0.675,-2.378 -0.678,-2.376 -0.038,-0.107 -0.139,-0.365 -0.138,-0.366 -2.368,-6.194 -8.635,-10.633 -15.979,-10.633 -7.34,0 -13.605,4.436 -15.975,10.626 0.004,0.002 0.009,0.006 0.014,0.008 -0.457,1.016 -0.772,2.501 -0.818,2.741 -0.103,0.526 0.143,0.748 0.143,0.748 0.857,0.253 2.429,0.805 2.436,0.804 -0.124,-1.082 0.191,-2.152 0.502,-3.153 0.004,10e-4 0.009,0.003 0.014,0.005 1.912,-5.434 7.322,-9.362 13.684,-9.362 6.364,0 11.75,3.828 13.661,9.264 0.009,-0.004 0.679,2.164 0.555,3.246 0.007,10e-4 1.578,-0.551 2.436,-0.804 0,0 0.246,-0.222 0.143,-0.748 m -33.479,5.303 c 0.255,1.115 0.845,2.105 1.148,3.204 0.351,-1.539 -0.558,-2.984 0.191,-4.414 0.064,-0.094 0.067,-0.134 0.131,-0.244 0.167,2.092 1.976,2.987 1.912,4.825 v 0.68 c 0.877,-1.744 -0.352,-3.297 -0.049,-5.151 0.287,-1.35 0.819,-2.612 0.652,-4.229 -0.782,0.471 -0.119,1.968 -1.283,2.015 -0.798,-0.173 -1.681,-0.488 -2.348,-0.706 0.494,1.477 -0.657,2.575 -0.354,4.02 m 3.035,-5.816 c 0,0 -0.295,1.073 -0.282,1.514 0.013,0.423 0.209,0.635 0.411,-0.077 0.167,-0.591 0.231,-0.655 0.59,-1.155 z m 26.595,0.282 c 0.359,0.5 0.423,0.564 0.59,1.155 0.201,0.712 0.398,0.5 0.411,0.077 C -2.835,0.56 -3.13,-0.513 -3.13,-0.513 Z m -0.231,0.205 c -0.167,1.617 0.365,2.879 0.652,4.229 0.303,1.854 -0.926,3.407 -0.049,5.151 v -0.68 c -0.064,-1.838 1.745,-2.733 1.912,-4.825 0.064,0.11 0.067,0.15 0.13,0.244 0.75,1.43 -0.159,2.875 0.192,4.414 C -0.94,7.408 -0.35,6.418 -0.095,5.303 0.208,3.858 -0.943,2.76 -0.449,1.283 -1.116,1.501 -2,1.816 -2.797,1.989 -3.961,1.942 -3.299,0.445 -4.08,-0.026 M -0.223,1.8 C -0.287,3.135 0.591,4.408 0.049,5.758 -0.303,7.047 -1.068,8.177 -1.243,9.56 -1.865,8.115 -1.18,6.497 -1.403,4.926 L -1.463,4.76 c -0.59,1.367 -1.79,2.601 -1.822,4.203 l 0.08,1.162 C -4.911,8.507 -3.333,6.088 -3.667,4.093 -4.162,2.805 -4.401,1.407 -4.496,-0.053 c 0.185,-0.614 0.855,-0.548 1.301,-0.768 -0.012,-0.162 -0.122,-0.456 -0.127,-0.454 -1.799,-5.428 -7.158,-9.376 -13.473,-9.376 -6.29,0 -11.632,3.919 -13.452,9.315 0,-10e-4 -0.001,-10e-4 -0.002,-10e-4 -0.055,0.168 -0.117,0.334 -0.13,0.516 0.446,0.22 1.116,0.154 1.301,0.768 -0.095,1.46 -0.334,2.858 -0.829,4.146 -0.335,1.995 1.244,4.414 -0.462,6.032 L -30.29,8.963 C -30.321,7.361 -31.521,6.127 -32.112,4.76 l -0.059,0.166 c -0.224,1.571 0.462,3.189 -0.16,4.634 -0.175,-1.383 -0.941,-2.513 -1.292,-3.802 -0.542,-1.35 0.335,-2.623 0.271,-3.958 0.111,-0.838 -0.724,-0.508 -0.517,-1.89 0.173,-0.888 0.426,-1.823 0.779,-2.675 -10e-4,-10e-4 -0.003,-0.003 -0.004,-0.004 2.388,-6.353 8.792,-10.913 16.299,-10.913 7.453,0 13.816,4.494 16.245,10.775 0.002,-0.002 0.004,-0.003 0.006,-0.004 0.385,0.89 0.656,1.882 0.839,2.821 0.207,1.382 -0.628,1.052 -0.518,1.89" transform="translate(175.0022,561.4709)"/><path fill="#243f65" d="M 0,0 C 0,10.517 8.556,19.073 19.073,19.073 29.59,19.073 38.146,10.517 38.146,0 38.146,-10.517 29.59,-19.073 19.073,-19.073 8.556,-19.073 0,-10.517 0,0 m -0.628,0 c 0,-10.863 8.838,-19.701 19.701,-19.701 10.863,0 19.701,8.838 19.701,19.701 0,10.863 -8.838,19.701 -19.701,19.701 C 8.21,19.701 -0.628,10.863 -0.628,0" transform="translate(139.1346,564.4766)"/><path fill="#243f65" d="M 0,0 C 0,15.096 12.282,27.378 27.378,27.378 42.474,27.378 54.755,15.096 54.755,0 54.755,-15.096 42.474,-27.378 27.378,-27.378 12.282,-27.378 0,-15.096 0,0 m -0.942,0 c 0,-15.616 12.704,-28.32 28.32,-28.32 15.615,0 28.32,12.704 28.32,28.32 0,15.616 -12.705,28.32 -28.32,28.32 C 11.762,28.32 -0.942,15.616 -0.942,0" transform="translate(130.83,564.4766)"/><path fill="#243f65" d="m 0,0 -0.309,-1.503 1.314,-1.15 -1.645,0.037 -0.557,-1.403 -0.709,1.526 -1.658,0.283 1.208,0.906 -0.467,1.577 1.454,-0.965 z" transform="translate(145.3419,547.4449)"/><path fill="#243f65" d="m 0,0 0.309,-1.503 -1.314,-1.15 1.645,0.038 0.557,-1.403 0.709,1.525 1.658,0.283 -1.208,0.906 0.467,1.577 -1.454,-0.965 z" transform="translate(170.9853,547.5483)"/><path fill="#243f65" d="M 0,0 -0.11,-0.11 V 0.22 C -0.047,0.157 0.031,0.094 0,0" transform="translate(160.5058,564.025)"/><path fill="#243f65" d="m 0,0 c -0.32,0.6 -0.783,2.069 -0.811,3.098 0,0.032 -0.001,0.063 -0.001,0.094 0,1.168 0.57,1.967 0.576,1.975 0.001,0.001 0.456,0.604 0.456,0.604 l -0.539,0.541 c -0.369,0.369 -2.085,2.549 -2.231,2.725 -0.001,0 -0.454,0.544 -0.454,0.544 L -3.508,9.319 -3.632,9.255 C -4.242,8.938 -5.975,8.06 -6.655,7.801 -7.138,7.617 -8.345,7.498 -9.249,7.45 c -0.903,0.048 -2.11,0.167 -2.594,0.351 -0.68,0.259 -2.413,1.137 -3.023,1.454 0,0 -0.628,0.326 -0.628,0.326 l -0.453,-0.544 c -0.147,-0.176 -1.862,-2.356 -2.23,-2.723 0,-0.001 -0.542,-0.542 -0.542,-0.542 l 0.462,-0.611 c 0.001,-0.002 0.571,-0.801 0.571,-1.969 0,-0.031 0,-0.062 -0.001,-0.094 C -17.714,2.069 -18.177,0.6 -18.498,0 c -0.25,-0.469 -0.482,-1.485 -0.482,-2.606 0,-1.198 0.265,-2.515 1.055,-3.414 1.075,-1.224 2.639,-1.958 4.78,-2.244 10e-4,0 0.075,-0.009 0.075,-0.009 0.85,-0.113 2.271,-0.301 3.037,-1.364 0,0 0.061,-0.084 0.079,-0.11 0.008,-0.012 0.028,-0.041 0.047,-0.07 0.003,-0.006 0.032,-0.062 0.075,-0.147 0.156,0.025 0.309,0.036 0.46,0.037 l -0.437,0.568 c -0.86,1.117 -2.334,1.312 -3.216,1.428 0,0 -0.074,0.01 -0.074,0.01 -2.055,0.274 -3.549,0.97 -4.567,2.129 -0.789,0.898 -0.955,2.214 -0.955,3.159 0,0.966 0.18,2.005 0.428,2.47 0.329,0.617 0.822,2.13 0.851,3.252 l 0.002,0.108 c 0,1.068 -0.41,1.817 -0.587,2.089 l -0.307,0.476 0.396,0.404 c 0.51,0.519 1.768,2.178 2.066,2.54 l 0.362,0.44 0.507,-0.261 c 1.043,-0.537 2.362,-1.188 2.937,-1.407 0.407,-0.155 1.33,-0.29 2.469,-0.36 l 0.018,-0.002 0.232,-0.009 c 0,0 0.23,0.01 0.247,0.011 1.138,0.07 2.061,0.205 2.468,0.36 0.575,0.219 1.894,0.87 2.937,1.407 l 0.508,0.261 0.362,-0.44 C -2.428,8.344 -1.17,6.685 -0.66,6.166 L -0.263,5.762 -0.571,5.286 C -0.747,5.014 -1.157,4.265 -1.157,3.197 c 0,0 0.001,-0.108 0.001,-0.108 0.03,-1.122 0.522,-2.635 0.851,-3.252 0.248,-0.465 0.428,-1.504 0.428,-2.47 0,-0.945 -0.165,-2.261 -0.955,-3.159 -1.018,-1.159 -2.512,-1.855 -4.567,-2.129 0,0 -0.074,-0.01 -0.074,-0.01 -0.881,-0.116 -2.356,-0.311 -3.216,-1.428 l -0.442,-0.574 c 0.154,-0.008 0.306,-0.023 0.46,-0.041 0.046,0.09 0.077,0.151 0.08,0.157 0.02,0.029 0.039,0.058 0.048,0.07 0.012,0.018 0.079,0.11 0.079,0.11 0.765,1.063 2.187,1.251 3.036,1.364 0,0 0.074,0.009 0.074,0.009 2.142,0.286 3.706,1.02 4.782,2.244 0.79,0.899 1.054,2.216 1.054,3.414 C 0.482,-1.485 0.25,-0.469 0,0" transform="translate(167.6777,560.6405)"/><path fill="#243f65" d="M 0,0 -0.942,1.21 H -0.88 C -0.55,0.817 -0.157,0.44 0.063,0 Z m -0.99,-1.162 c -0.644,-0.205 -0.879,0.581 -1.351,0.895 l -0.267,0.723 c 0.315,0.298 0.644,0.471 1.1,0.345 l 0.974,-1.131 c 0.11,-0.424 -0.157,-0.66 -0.456,-0.832 m -4.901,-2.749 c -0.172,-0.095 -0.377,-0.142 -0.596,-0.126 v 0.236 c 1.319,1.083 2.748,2.026 3.989,3.236 0.142,-0.095 0.33,-0.236 0.377,-0.409 -1.303,-0.864 -2.544,-1.885 -3.77,-2.937 m 3.959,0.031 C -1.869,-4.1 -1.995,-4.367 -2.231,-4.477 -3,-4.288 -3.33,-3.44 -3.817,-2.906 c 0.204,0.188 0.487,0.298 0.754,0.188 0.408,-0.298 0.88,-0.722 1.131,-1.162 m -3.534,3.095 c -0.063,0.11 0.062,0.235 0.188,0.188 0.346,-0.408 0.77,-0.691 1.131,-1.099 -0.063,-0.142 -0.22,-0.22 -0.346,-0.268 z m -0.377,0.078 -0.644,0.299 c 0.172,0.267 0.455,0.455 0.706,0.644 0.205,-0.11 0.236,-0.362 0.267,-0.566 -0.031,-0.173 -0.204,-0.298 -0.329,-0.377 m -1.744,-0.691 c 0.11,0.817 0.424,1.602 1.178,2.073 0.503,0.315 1.178,0.503 1.728,0.425 -1.131,-0.44 -2.183,-1.461 -2.906,-2.498 m 5.765,2.765 -1.005,-0.88 c 0.015,-0.314 0.219,-0.581 0.251,-0.895 -0.346,-0.393 -0.77,-0.739 -1.194,-1.021 -0.471,0.628 -1.414,0.816 -1.257,1.727 0.377,0.315 0.739,0.613 1.179,0.754 v 0.079 c -1.131,0.471 -2.498,0.047 -3.315,-0.833 -0.518,-0.628 -0.754,-1.555 -0.534,-2.324 0.314,0.455 0.55,0.958 0.974,1.382 0.298,-0.063 0.55,-0.236 0.88,-0.22 0.487,-0.377 0.722,-0.927 1.083,-1.398 -0.644,-0.503 -1.366,-0.864 -1.916,-1.508 -0.063,-0.173 -0.063,-0.424 0.079,-0.565 1.005,-0.613 1.649,0.848 2.481,1.241 0.535,-0.503 0.864,-1.069 1.43,-1.508 0.251,-0.158 0.581,-0.032 0.801,0.125 0.385,0.573 0.157,1.044 -0.209,1.483 0.016,0.014 0.026,0.033 0.026,0.054 0,0.04 -0.033,0.073 -0.073,0.073 -0.018,0 -0.033,-0.008 -0.046,-0.018 -0.259,0.291 -0.562,0.57 -0.766,0.859 0.393,0.251 0.77,0.565 1.178,0.785 l 1.021,-0.267 c 0.298,0.267 0.613,0.565 0.927,0.801 0.455,0.958 -0.566,1.398 -0.927,2.074 z" transform="translate(162.4669,557.9792)"/><path fill="#243f65" d="m 0,0 c -0.04,0 -0.072,-0.032 -0.072,-0.072 0,-0.04 0.031,-0.072 0.071,-0.073 -0.11,-0.587 -0.319,-1.14 -0.681,-1.551 -0.463,-0.528 -1.047,-0.947 -1.76,-1.265 0.007,0.012 0.013,0.025 0.013,0.04 0,0.04 -0.032,0.072 -0.072,0.072 -0.04,0 -0.073,-0.032 -0.073,-0.072 0,-0.036 0.027,-0.065 0.061,-0.07 -0.656,-0.283 -1.418,-0.483 -2.298,-0.6 l -0.074,-0.01 c -0.938,-0.124 -2.648,-0.353 -3.683,-1.698 -0.601,0.781 -1.429,1.185 -2.202,1.411 10e-4,0.006 0.003,0.011 0.003,0.017 0,0.04 -0.032,0.073 -0.072,0.073 -0.033,0 -0.059,-0.022 -0.068,-0.051 -0.507,0.136 -0.982,0.201 -1.343,0.248 l -0.074,0.01 c -1.879,0.25 -3.229,0.87 -4.13,1.895 -0.592,0.674 -0.779,1.73 -0.779,2.693 0,0.938 0.177,1.785 0.329,2.103 h 0.393 c 0,-0.004 -0.001,-0.009 -0.002,-0.013 l 7.76,-0.079 h 8.483 c 0.015,0.015 0.04,0.024 0.065,0.033 C -0.111,2.81 -0.012,2.389 0.047,1.881 0.034,1.892 0.018,1.899 0,1.899 c -0.04,0 -0.072,-0.032 -0.072,-0.072 0,-0.04 0.032,-0.073 0.072,-0.073 0.024,0 0.044,0.013 0.057,0.03 C 0.083,1.537 0.098,1.27 0.098,0.997 0.098,0.667 0.075,0.327 0.023,-0.005 0.015,-0.002 0.008,0 0,0 m -16.652,9.3 c 0.097,0.099 0.404,0.471 0.755,0.905 V 6.252 l -0.096,-0.071 c 0.021,0.178 0.035,0.352 0.039,0.519 0.001,0.042 0.002,0.084 0.002,0.126 0,1.269 -0.5,2.165 -0.7,2.474 m 4.164,-2.955 c 0.243,-0.446 0.189,-1.139 0.186,-1.666 0.146,-0.199 0.44,-0.102 0.636,-0.07 0.245,0.097 0.001,0.231 -0.047,0.346 l 0.138,1.187 c 0.782,-0.22 1.334,-1.234 1.656,-1.929 -1.975,-0.07 -3.907,0.033 -5.833,-0.037 0.742,1.265 2.231,1.319 3.264,2.169 m -3.047,4.308 c 0.262,0.326 0.519,0.648 0.709,0.884 V 7.04 l -0.709,-0.522 z m 1.07,1.191 c 0.166,-0.084 0.416,-0.212 0.71,-0.359 V 7.783 l -0.384,-0.237 -0.326,-0.24 z m 1.071,-0.54 c 0.231,-0.114 0.473,-0.232 0.709,-0.345 V 8.447 l -0.709,-0.44 z m 1.07,-0.515 c 0.269,-0.125 0.515,-0.234 0.71,-0.311 V 9.11 l -0.71,-0.439 z m 1.071,-0.432 c 0.21,-0.056 0.455,-0.103 0.71,-0.143 V 8.309 l -0.71,0.55 z m 1.789,-3.124 0.702,-0.005 c 0.16,-0.561 1.037,-1.111 0.43,-1.701 -0.101,-0.494 0.434,-0.82 0.333,-1.314 -0.435,-0.037 -0.725,-0.037 -1.092,-0.016 -0.338,0.678 -0.841,1.192 -1.359,1.822 0.182,0.493 0.739,0.77 0.986,1.214 m -0.718,2.93 c 0.243,-0.031 0.485,-0.056 0.709,-0.076 V 8.897 C -9.707,8.712 -9.941,8.518 -10.182,8.326 Z m 1.07,-0.104 c 0.091,-0.007 0.177,-0.013 0.253,-0.017 0,0 0.135,-0.012 0.292,-0.012 V 9.522 C -8.755,9.416 -8.936,9.298 -9.112,9.171 Z m 0.906,-0.013 c 0.182,0.012 0.403,0.028 0.643,0.051 V 9.479 C -7.71,9.616 -7.874,9.722 -8.077,9.763 -8.121,9.745 -8.163,9.724 -8.206,9.704 Z m 1.004,0.087 c 0.271,0.03 0.549,0.068 0.809,0.114 v -1.68 l -0.72,0.556 -0.089,-0.01 z m 1.831,-5.927 c -0.489,0.052 -0.636,-0.03 -1.633,0.019 -0.16,0.071 -0.299,0.191 -0.404,0.389 -0.485,0.63 0.369,1.581 -0.411,2.064 0.017,0.214 -0.226,0.364 -0.078,0.594 0.422,-0.398 1.089,-0.617 1.134,-1.277 0.241,-0.727 1.152,-1.062 1.392,-1.789 m -0.661,6.114 c 0.162,0.037 0.31,0.08 0.433,0.127 0.035,0.013 0.073,0.029 0.111,0.044 V 9.005 L -5.538,8.934 C -5.681,8.804 -5.853,8.72 -6.032,8.657 Z M -4.495,5.981 C -4.301,5.716 -4.631,5.042 -4.027,5.153 L -3.962,5.07 C -4.175,4.973 -4.16,4.709 -4.145,4.478 -3.82,4.41 -3.314,4.407 -2.938,4.47 c 0.066,0.082 0.083,0.198 0.084,0.313 -0.066,0.066 -0.163,0.133 -0.13,0.232 0.05,0.098 0.148,0.081 0.246,0.08 0.112,-0.28 0.27,-0.731 0.644,-0.882 0,0 -1.362,-0.037 -2.536,0 -0.093,0.792 -1.011,1.115 -1.235,1.81 0.132,0.295 0.361,0.442 0.623,0.589 0.457,0.063 0.52,-0.366 0.747,-0.631 m -0.631,4.664 c 0.207,0.093 0.438,0.2 0.676,0.314 V 8.975 l -0.676,0.438 z m 1.037,0.489 c 0.186,0.09 0.371,0.181 0.544,0.268 V 8.389 L -4.089,8.741 Z M -3.324,5.38 C -3.439,5.215 -3.552,5.48 -3.715,5.497 L -3.907,6.092 C -3.63,6.091 -3.485,5.793 -3.241,5.692 -3.192,5.61 -3.258,5.462 -3.324,5.38 m 0.141,6.204 c 0.256,0.129 0.467,0.237 0.593,0.302 10e-4,-10e-4 0.002,-0.003 0.003,-0.004 V 7.705 l -0.045,0.056 -0.551,0.386 z m 0.957,-0.158 c 0.196,-0.249 0.445,-0.564 0.696,-0.878 V 6.652 L -1.843,6.793 -2.226,7.262 Z M -1.169,10.1 C -0.885,9.752 -0.63,9.45 -0.483,9.3 -0.664,9.02 -1.088,8.262 -1.169,7.182 Z M 0.057,3.297 c -0.345,0.647 -0.862,2.235 -0.893,3.412 -0.039,1.493 0.705,2.497 0.713,2.507 l 0.09,0.12 -0.106,0.107 c -0.009,0.009 -2.24,2.73 -2.274,2.771 l -0.089,0.107 -0.123,-0.064 c -0.022,-0.012 -2.244,-1.162 -3.097,-1.487 -0.715,-0.273 -2.369,-0.374 -2.846,-0.398 -0.476,0.024 -2.131,0.125 -2.846,0.398 -0.852,0.325 -3.074,1.475 -3.096,1.487 l -0.124,0.064 -0.089,-0.107 c -0.034,-0.041 -2.264,-2.762 -2.273,-2.771 l -0.107,-0.106 0.091,-0.121 c 0.007,-0.01 0.752,-1.014 0.713,-2.507 -0.031,-1.177 -0.548,-2.765 -0.894,-3.412 -0.386,-0.724 -0.831,-3.729 0.48,-5.221 0.958,-1.09 2.378,-1.748 4.343,-2.009 l 0.074,-0.01 c 0.907,-0.12 2.576,-0.344 3.517,-1.651 l 0.087,-0.12 0.076,-0.115 0.048,-0.093 0.048,0.093 0.077,0.115 0.086,0.12 c 0.941,1.307 2.61,1.531 3.517,1.651 l 0.075,0.01 c 1.964,0.261 3.385,0.919 4.343,2.009 1.311,1.492 0.866,4.497 0.479,5.221" transform="translate(166.9966,557.0112)"/><use xlink:href="#reuse-0" transform="translate(150.3206,559.8598)"/><use xlink:href="#reuse-0" transform="translate(151.1544,559.8598)"/><use xlink:href="#reuse-0" transform="translate(151.9882,559.8598)"/><use xlink:href="#reuse-0" transform="translate(152.822,559.8598)"/><use xlink:href="#reuse-0" transform="translate(153.6558,559.8598)"/><use xlink:href="#reuse-0" transform="translate(154.4896,559.8598)"/><use xlink:href="#reuse-1" transform="translate(155.3234,559.715)"/><use xlink:href="#reuse-1" transform="translate(156.1573,559.715)"/><use xlink:href="#reuse-1" transform="translate(156.9911,559.715)"/><use xlink:href="#reuse-1" transform="translate(157.8249,559.715)"/><use xlink:href="#reuse-1" transform="translate(158.6587,559.715)"/><use xlink:href="#reuse-1" transform="translate(159.4925,559.715)"/><use xlink:href="#reuse-1" transform="translate(160.3262,559.715)"/><use xlink:href="#reuse-1" transform="translate(161.16,559.715)"/><use xlink:href="#reuse-1" transform="translate(161.994,559.715)"/><use xlink:href="#reuse-0" transform="translate(162.8276,559.8598)"/><use xlink:href="#reuse-0" transform="translate(163.6614,559.8598)"/><use xlink:href="#reuse-0" transform="translate(164.4953,559.8598)"/><use xlink:href="#reuse-0" transform="translate(165.3291,559.8598)"/><use xlink:href="#reuse-0" transform="translate(166.1629,559.8598)"/><use xlink:href="#reuse-0" transform="translate(150.3206,558.9103)"/><use xlink:href="#reuse-0" transform="translate(151.1544,558.9103)"/><use xlink:href="#reuse-0" transform="translate(151.9882,558.9103)"/><use xlink:href="#reuse-0" transform="translate(152.822,558.9103)"/><use xlink:href="#reuse-0" transform="translate(153.6558,558.9103)"/><use xlink:href="#reuse-0" transform="translate(154.4896,558.9103)"/><use xlink:href="#reuse-1" transform="translate(155.3234,558.7654)"/><use xlink:href="#reuse-0" transform="translate(158.6587,558.9103)"/><use xlink:href="#reuse-1" transform="translate(159.4925,558.7654)"/><use xlink:href="#reuse-0" transform="translate(162.8276,558.9103)"/><use xlink:href="#reuse-0" transform="translate(163.6614,558.9103)"/><use xlink:href="#reuse-0" transform="translate(164.4953,558.9103)"/><use xlink:href="#reuse-0" transform="translate(165.3291,558.9103)"/><use xlink:href="#reuse-0" transform="translate(166.1629,558.9103)"/><use xlink:href="#reuse-0" transform="translate(150.3206,557.9607)"/><use xlink:href="#reuse-0" transform="translate(151.1544,557.9607)"/><use xlink:href="#reuse-0" transform="translate(151.9882,557.9607)"/><use xlink:href="#reuse-0" transform="translate(152.822,557.9607)"/><use xlink:href="#reuse-0" transform="translate(153.6558,557.9607)"/><use xlink:href="#reuse-0" transform="translate(154.4896,557.9607)"/><path fill="#243f65" d="m 0,0 c 0,-0.04 0.032,-0.072 0.072,-0.072 0.04,0 0.073,0.032 0.073,0.072 0,0.04 -0.033,0.072 -0.073,0.072 C 0.032,0.072 0,0.04 0,0" transform="translate(157.7525,557.8883)"/><use xlink:href="#reuse-0" transform="translate(158.6587,557.9607)"/><use xlink:href="#reuse-1" transform="translate(159.4925,557.8159)"/><use xlink:href="#reuse-0" transform="translate(162.8276,557.9607)"/><use xlink:href="#reuse-0" transform="translate(163.6614,557.9607)"/><use xlink:href="#reuse-0" transform="translate(164.4953,557.9607)"/><use xlink:href="#reuse-0" transform="translate(165.3291,557.9607)"/><use xlink:href="#reuse-0" transform="translate(166.1629,557.9607)"/><use xlink:href="#reuse-0" transform="translate(166.9966,557.9607)"/><use xlink:href="#reuse-0" transform="translate(150.3206,557.0112)"/><use xlink:href="#reuse-0" transform="translate(151.1544,557.0112)"/><use xlink:href="#reuse-0" transform="translate(151.9882,557.0112)"/><use xlink:href="#reuse-0" transform="translate(152.822,557.0112)"/><use xlink:href="#reuse-0" transform="translate(153.6558,557.0112)"/><use xlink:href="#reuse-0" transform="translate(154.4896,557.0112)"/><use xlink:href="#reuse-1" transform="translate(156.1573,556.8663)"/><use xlink:href="#reuse-0" transform="translate(158.6587,557.0112)"/><use xlink:href="#reuse-0" transform="translate(162.8276,557.0112)"/><use xlink:href="#reuse-0" transform="translate(163.6614,557.0112)"/><use xlink:href="#reuse-0" transform="translate(164.4953,557.0112)"/><use xlink:href="#reuse-0" transform="translate(165.3291,557.0112)"/><use xlink:href="#reuse-0" transform="translate(166.1629,557.0112)"/><use xlink:href="#reuse-0" transform="translate(150.3206,556.0616)"/><use xlink:href="#reuse-0" transform="translate(151.1544,556.0616)"/><use xlink:href="#reuse-0" transform="translate(151.9882,556.0616)"/><use xlink:href="#reuse-0" transform="translate(152.822,556.0616)"/><use xlink:href="#reuse-0" transform="translate(153.6558,556.0616)"/><use xlink:href="#reuse-0" transform="translate(154.4896,556.0616)"/><use xlink:href="#reuse-0" transform="translate(155.3234,556.0616)"/><use xlink:href="#reuse-1" transform="translate(156.1573,555.9167)"/><path fill="#243f65" d="m 0,0 c 0,0.04 -0.032,0.072 -0.072,0.072 -0.04,0 -0.073,-0.032 -0.073,-0.072 0,-0.04 0.033,-0.072 0.073,-0.072 C -0.032,-0.072 0,-0.04 0,0" transform="translate(157.0635,555.9892)"/><path fill="#243f65" d="m 0,0 c 0,-0.04 0.033,-0.072 0.072,-0.072 0.04,0 0.073,0.032 0.073,0.072 0,0.04 -0.033,0.072 -0.073,0.072 C 0.033,0.072 0,0.04 0,0" transform="translate(160.2538,555.9892)"/><use xlink:href="#reuse-0" transform="translate(161.16,556.0616)"/><use xlink:href="#reuse-0" transform="translate(161.994,556.0616)"/><use xlink:href="#reuse-0" transform="translate(162.8276,556.0616)"/><use xlink:href="#reuse-0" transform="translate(163.6614,556.0616)"/><use xlink:href="#reuse-0" transform="translate(164.4953,556.0616)"/><use xlink:href="#reuse-0" transform="translate(165.3291,556.0616)"/><use xlink:href="#reuse-0" transform="translate(166.1629,556.0616)"/><use xlink:href="#reuse-0" transform="translate(151.1544,555.1121)"/><use xlink:href="#reuse-0" transform="translate(151.9882,555.1121)"/><use xlink:href="#reuse-0" transform="translate(152.822,555.1121)"/><use xlink:href="#reuse-0" transform="translate(153.6558,555.1121)"/><use xlink:href="#reuse-0" transform="translate(154.4896,555.1121)"/><use xlink:href="#reuse-0" transform="translate(155.3234,555.1121)"/><use xlink:href="#reuse-1" transform="translate(156.1573,554.9672)"/><use xlink:href="#reuse-0" transform="translate(161.16,555.1121)"/><use xlink:href="#reuse-0" transform="translate(161.994,555.1121)"/><use xlink:href="#reuse-0" transform="translate(162.8276,555.1121)"/><use xlink:href="#reuse-0" transform="translate(163.6614,555.1121)"/><use xlink:href="#reuse-0" transform="translate(164.4953,555.1121)"/><use xlink:href="#reuse-0" transform="translate(165.3291,555.1121)"/><use xlink:href="#reuse-0" transform="translate(152.822,554.1625)"/><use xlink:href="#reuse-0" transform="translate(153.6558,554.1625)"/><use xlink:href="#reuse-0" transform="translate(154.4896,554.1625)"/><use xlink:href="#reuse-0" transform="translate(155.3234,554.1625)"/><use xlink:href="#reuse-0" transform="translate(157.8249,554.1625)"/><use xlink:href="#reuse-0" transform="translate(158.6587,554.1625)"/><use xlink:href="#reuse-0" transform="translate(161.16,554.1625)"/><use xlink:href="#reuse-0" transform="translate(161.994,554.1625)"/><use xlink:href="#reuse-0" transform="translate(162.8276,554.1625)"/><use xlink:href="#reuse-0" transform="translate(163.6614,554.1625)"/><use xlink:href="#reuse-0" transform="translate(156.9911,553.213)"/><use xlink:href="#reuse-0" transform="translate(157.8249,553.213)"/><use xlink:href="#reuse-0" transform="translate(158.6587,553.213)"/><use xlink:href="#reuse-0" transform="translate(159.4925,553.213)"/><use xlink:href="#reuse-0" transform="translate(160.3262,553.213)"/><path fill="#243f65" d="m 0,0 c -0.04,0 -0.072,-0.033 -0.072,-0.072 0,-0.04 0.032,-0.073 0.072,-0.073 0.04,0 0.072,0.033 0.072,0.073 C 0.072,-0.033 0.04,0 0,0" transform="translate(158.6587,552.2635)"/><path fill="#243f65" d="M 0,0 -0.141,0.833 C -0.157,0.581 -0.314,0.063 0,0" transform="translate(167.6216,572.9265)"/><path fill="#243f65" d="m 0,0 c 0,0 -0.268,0.179 -0.446,0.298 -0.179,0.119 -0.477,0.238 -0.477,0.238 0,0 0.328,0.149 0.506,0.268 C -0.238,0.923 0,1.101 0,1.101 0,1.101 0.357,0.833 0.566,0.744 0.774,0.655 1.161,0.566 1.161,0.566 c 0,0 -0.476,-0.09 -0.595,-0.179 C 0.446,0.298 0,0 0,0 m -1.504,0.049 c -0.266,0 -0.644,-0.173 -0.722,0.157 v 0.157 c 0.094,-0.047 0.173,-0.126 0.267,-0.126 0.063,0.315 -0.047,0.645 0.267,0.833 0.377,0.157 0.267,-0.283 0.345,-0.455 0,-0.205 0,-0.456 -0.157,-0.566 M -1.535,-1.035 C -1.661,-1.223 -1.77,-1.412 -1.88,-1.6 c -0.189,0.094 -0.173,0.33 -0.268,0.487 -0.031,0.282 0.189,0.455 0.299,0.675 0.141,-0.173 0.455,-0.314 0.314,-0.597 m -1.799,3.387 c 0.173,0.706 0.621,1.054 1.548,1.16 0.628,-0.015 1.335,-0.326 1.633,-0.923 V 2.448 C -0.774,2.203 -1.012,1.905 -1.601,1.474 -1.726,1.458 -1.756,1.458 -2.143,1.458 -2.394,1.836 -2.972,2.147 -3.334,2.352 M -4.786,1.259 c -0.629,0.063 -1.367,-0.158 -1.885,0.188 0.596,0.361 1.366,0.094 2.073,0.236 z m -1.21,-1.917 c -0.189,0.079 -0.079,0.267 -0.11,0.409 0.471,0.078 0.785,0.031 1.32,0.047 0,-0.173 0.157,-0.252 0.157,-0.424 -0.456,-0.126 -0.927,-0.048 -1.367,-0.032 m 1.131,0.943 C -4.959,-0.061 -5.509,0.19 -5.807,0.049 c -0.016,0.126 0.125,0.188 0.188,0.267 0.236,0.047 0.597,0.094 0.754,-0.031 M -7.567,0.74 c 0.189,0.424 0.896,0.11 1.32,0.252 h 1.429 L -4.865,0.693 C -5.807,0.709 -6.671,0.505 -7.567,0.74 m 0.566,-1.555 -1.43,1.1 0.189,0.188 c 0.534,-0.424 1.099,-0.801 1.618,-1.288 z m -2.184,0.267 c 0.236,0.251 0.597,0.314 0.943,0.22 0.047,-0.094 0.157,-0.078 0.22,-0.188 -0.33,-0.063 -0.786,-0.016 -1.163,-0.032 m -1.476,-0.22 c 0.989,0.896 2.089,1.697 3.204,2.372 l 0.032,-0.047 c -0.896,-0.848 -1.838,-1.649 -2.781,-2.325 z m -1.1,0.22 -0.189,0.189 c 0.425,0.078 0.786,0 1.21,0.078 -0.141,-0.487 -0.722,-0.173 -1.021,-0.267 m -1.759,0.566 0.141,0.188 1.398,-0.974 c -0.565,-0.047 -1.037,0.503 -1.539,0.786 m -2.231,-0.833 c 1.304,0.943 2.655,1.916 4.069,2.639 -1.131,-1.005 -2.357,-1.885 -3.613,-2.749 z m -2.482,1.241 c 0.88,-0.079 1.697,0.22 2.514,-0.251 l -2.514,-0.047 z m 0.377,0.644 1.383,-0.078 V 0.74 h -1.76 c -0.125,0.267 0.157,0.314 0.377,0.33 m -0.235,0.613 1.319,-0.047 c -0.361,-0.33 -0.942,-0.189 -1.398,-0.22 z m 2.073,0.141 c 0.77,-0.094 1.288,-0.801 1.964,-1.131 0.047,-0.094 -0.079,-0.094 -0.11,-0.141 -0.692,0.251 -1.241,0.816 -1.854,1.241 z m 0.03,0.99 0.377,0.298 V 2.814 Z m 2.798,-1.021 c 0.047,-0.094 -0.079,-0.126 -0.11,-0.189 -0.535,0.032 -1.257,-0.267 -1.728,0.11 0.549,0.079 1.225,0.157 1.838,0.079 m 2.906,-1.43 c -0.409,-0.549 -1.335,-0.235 -1.885,-0.267 l -0.267,0.189 c 0.675,0.031 1.413,0.11 2.152,0.078 m 0.11,0.409 -0.079,-0.079 h -1.995 c 0.11,0.157 0.33,0.016 0.456,0.11 z m 1.319,0.157 C -9.232,0.646 -9.499,1.274 -9.829,1.447 l -0.424,0.456 C -9.75,1.651 -9.216,1.322 -8.855,0.929 m 2.082,2.183 0.377,-0.298 H -6.773 Z M -18.845,0.583 c -0.833,-0.016 -1.807,-0.157 -2.561,0.11 l 0.267,0.157 2.341,-0.078 z M 0,1.369 c -0.119,0 -0.42,-0.409 -0.749,-0.44 -0.393,-0.236 -0.393,0.22 -0.566,0.408 0.22,0.314 0.55,0.408 0.832,0.597 0.22,0.188 0.582,0.094 0.707,0.377 0.032,0.518 -0.361,0.942 -0.785,1.21 C -1.456,4.055 -2.666,3.85 -3.467,3.253 -3.765,2.594 -4.551,2.735 -5.116,2.547 V 2.437 C -4.724,2.405 -4.362,2.484 -3.985,2.5 L -3.954,2.17 C -3.404,2.091 -2.949,1.777 -2.525,1.416 -2.556,1.133 -2.709,1.161 -3.012,1.039 -3.813,0.693 -3.479,1.885 -4.108,1.994 l -2.651,0.047 v 0.4 h 1.37 v 0.387 l -5.686,3.75 -5.911,-3.75 V 2.441 h 1.369 V 2.149 l -2.773,0.052 c -0.361,-0.173 -0.314,-0.597 -0.534,-0.864 -0.911,-0.188 -1.948,0.251 -2.749,-0.22 -0.094,-0.141 -0.251,-0.282 -0.141,-0.455 0.722,-0.629 1.948,-0.204 2.89,-0.377 0.189,-0.377 0.11,-0.848 0.314,-1.21 l 2.891,-0.11 11.545,-0.047 c 0.534,0.204 0.503,0.833 0.754,1.257 0.408,0.015 0.91,-0.218 1.098,-0.532 -0.089,-0.179 -0.238,-0.387 -0.422,-0.599 0.408,-0.44 0.669,-0.966 0.78,-1.485 0.178,0.536 0.335,1.029 0.806,1.438 -0.152,0.229 -0.271,0.378 -0.424,0.612 -0.047,0.11 0.11,0.094 0.157,0.142 0.173,0.031 0.283,0.22 0.298,0.377 0.378,0.015 0.937,-0.122 1.157,-0.515 0.178,0.179 0.242,0.185 0.383,0.326 C 0.931,0.332 1.591,0.363 2.157,0.615 1.434,0.74 0.655,0.833 0,1.369" transform="translate(169.2823,571.2016)"/><path fill="#243f65" d="m 0,0 c -0.017,-0.063 0.021,-0.127 0.084,-0.144 l 2.47,-0.655 c 0.063,-0.017 0.128,0.021 0.144,0.084 0.017,0.063 -0.02,0.127 -0.083,0.144 L 0.144,0.084 C 0.081,0.1 0.017,0.063 0,0" transform="translate(150.4161,575.5479)"/><path fill="#243f65" d="m 0,0 c -0.033,-0.056 -0.013,-0.128 0.043,-0.161 l 1.905,-1.101 c 0.057,-0.033 0.128,-0.014 0.161,0.043 0.033,0.056 0.013,0.128 -0.043,0.161 L 0.161,0.043 C 0.105,0.076 0.033,0.056 0,0" transform="translate(152.2436,576.8565)"/><path fill="#243f65" d="M 0,0 C -0.045,-0.047 -0.043,-0.122 0.004,-0.167 L 1.373,-1.476 C 1.42,-1.521 1.495,-1.52 1.54,-1.472 1.584,-1.425 1.583,-1.351 1.536,-1.306 L 0.167,0.004 C 0.12,0.049 0.045,0.047 0,0" transform="translate(154.1655,578.0398)"/><path fill="#243f65" d="m 0,0 c -0.058,-0.03 -0.081,-0.101 -0.051,-0.159 l 0.774,-1.518 c 0.029,-0.057 0.1,-0.081 0.158,-0.051 0.058,0.03 0.081,0.1 0.051,0.159 L 0.158,-0.051 C 0.129,0.006 0.058,0.03 0,0" transform="translate(155.9236,578.867)"/><path fill="#243f65" d="m 0,0 -1.131,-1.637 c -0.037,-0.054 -0.024,-0.127 0.03,-0.164 0.053,-0.037 0.127,-0.024 0.164,0.03 l 1.131,1.637 C 0.231,-0.08 0.218,-0.007 0.164,0.03 0.11,0.067 0.037,0.054 0,0" transform="translate(161.2975,578.8885)"/><path fill="#243f65" d="m 0,0 -1.816,-1.548 c -0.049,-0.042 -0.055,-0.116 -0.013,-0.166 0.042,-0.049 0.117,-0.055 0.166,-0.013 l 1.816,1.548 c 0.049,0.042 0.055,0.116 0.013,0.166 C 0.124,0.036 0.05,0.042 0,0" transform="translate(163.3717,577.8397)"/><path fill="#243f65" d="m 0,0 -2.024,-0.953 c -0.059,-0.027 -0.084,-0.097 -0.057,-0.156 0.028,-0.059 0.098,-0.084 0.157,-0.057 L 0.1,-0.213 c 0.059,0.028 0.085,0.098 0.057,0.156 C 0.129,0.002 0.059,0.028 0,0" transform="translate(164.559,576.5172)"/><path fill="#243f65" d="m 0,0 -2.411,-0.536 c -0.064,-0.014 -0.104,-0.077 -0.089,-0.14 0.014,-0.064 0.077,-0.104 0.14,-0.09 l 2.411,0.536 c 0.064,0.014 0.104,0.077 0.09,0.14 C 0.126,-0.026 0.063,0.014 0,0" transform="translate(165.7741,575.2159)"/><path fill="#243f65" d="m 0,0 c -0.004,-0.065 0.045,-0.121 0.11,-0.125 l 1.846,-0.119 c 0.064,-0.004 0.12,0.045 0.125,0.11 0.004,0.065 -0.046,0.121 -0.11,0.125 L 0.125,0.11 C 0.06,0.114 0.004,0.065 0,0" transform="translate(149.46,573.7988)"/><path fill="#243f65" d="m 0,0 v -1.578 c 0,-0.065 0.053,-0.117 0.118,-0.117 0.065,0 0.118,0.052 0.118,0.117 V 0 C 0.236,0.065 0.183,0.118 0.118,0.118 0.053,0.118 0,0.065 0,0" transform="translate(158.0916,579.1193)"/><path fill="#243f65" d="m 0,0 -1.102,-0.612 0.153,-0.275 c 0,0 0.573,0.319 0.865,0.481 -0.005,-0.411 -0.025,-2.123 -0.025,-2.123 l 1.297,0.814 -0.167,0.266 c 0,0 -0.521,-0.327 -0.809,-0.508 0.005,0.43 0.025,2.088 0.025,2.088 z" transform="translate(144.9359,557.6605)"/><path fill="#243f65" d="m 0,0 -0.387,-1.2 0.299,-0.096 c 0,0 0.202,0.624 0.304,0.942 0.277,-0.303 1.432,-1.568 1.432,-1.568 l 0.391,1.481 -0.304,0.08 c 0,0 -0.157,-0.594 -0.244,-0.923 -0.289,0.317 -1.408,1.542 -1.408,1.542 z" transform="translate(154.1693,550.5331)"/><path fill="#243f65" d="m 0,0 c 0,0 0.19,-0.585 0.295,-0.908 -0.415,0.109 -2.019,0.533 -2.019,0.533 l 0.395,-1.479 0.303,0.08 c 0,0 -0.169,0.635 -0.255,0.957 0.398,-0.105 2.053,-0.542 2.053,-0.542 L 0.299,0.097 Z" transform="translate(163.146,550.8498)"/><path fill="#243f65" d="M 0,0 C 0,0 0.456,-0.368 0.714,-0.575 0.32,-0.712 -1.147,-1.221 -1.147,-1.221 l 1.105,-0.991 0.21,0.234 c 0,0 -0.466,0.418 -0.708,0.635 0.377,0.131 1.892,0.657 1.892,0.657 L 0.197,0.245 Z" transform="translate(170.437,556.2262)"/><path fill="#243f65" d="M 0,0 0.198,-0.244 1.251,0.613 1.053,0.857 Z" transform="translate(145.7943,554.3398)"/><path fill="#243f65" d="M 0,0 0.292,-0.116 0.795,1.144 0.503,1.261 Z" transform="translate(152.6456,549.6035)"/><path fill="#243f65" d="m 0,0 -0.115,-0.113 1.021,-0.994 0.219,0.226 c 0,0 -0.614,0.597 -0.79,0.768 C 0.512,0.06 1.15,0.681 1.15,0.681 L 0.93,0.906 Z" transform="translate(146.8611,553.3513)"/><path fill="#243f65" d="m 0,0 c -0.099,-0.033 -0.174,-0.105 -0.211,-0.202 -0.12,-0.32 0.22,-0.591 0.423,-0.753 0.169,-0.135 0.23,-0.243 0.231,-0.299 0,-0.01 0.001,-0.034 -0.042,-0.071 -0.168,-0.144 -0.39,-0.014 -0.478,0.049 -0.101,0.072 -0.275,0.33 -0.361,0.476 l -0.271,-0.16 c 0.026,-0.044 0.261,-0.438 0.45,-0.572 0.238,-0.169 0.59,-0.267 0.865,-0.031 0.128,0.109 0.153,0.231 0.151,0.315 -0.003,0.174 -0.12,0.355 -0.349,0.538 -0.091,0.072 -0.365,0.291 -0.325,0.398 0.003,0.006 0.004,0.01 0.017,0.014 0.065,0.022 0.219,-0.012 0.388,-0.119 0.217,-0.138 0.322,-0.36 0.323,-0.362 l 0.286,0.131 C 1.091,-0.636 0.955,-0.342 0.656,-0.152 0.416,0 0.171,0.057 0,0" transform="translate(151.2165,551.7258)"/><path fill="#243f65" d="m 0,0 -0.055,-1.328 1.532,-0.047 0.01,0.315 c 0,0 -0.967,0.029 -1.215,0.037 0.008,0.2 0.027,0.66 0.035,0.856 0.241,-0.006 1.168,-0.029 1.168,-0.029 L 1.483,0.118 0.006,0.154 Z" transform="translate(156.8013,549.9185)"/><path fill="#243f65" d="M 0,0 1.008,-0.028 1.016,0.286 0.009,0.314 Z" transform="translate(156.9372,549.2105)"/><path fill="#243f65" d="m 0,0 -0.084,-0.129 1.229,-0.83 0.844,1.28 -0.262,0.173 c 0,0 -0.532,-0.808 -0.669,-1.015 -0.167,0.112 -0.548,0.369 -0.71,0.479 0.131,0.202 0.636,0.98 0.636,0.98 L 0.721,1.109 Z" transform="translate(170.8278,556.882)"/><path fill="#243f65" d="M 0,0 0.263,-0.172 0.815,0.671 0.552,0.844 Z" transform="translate(171.283,556.5829)"/><path fill="#243f65" d="M 0,0 0.856,-0.964 1.091,-0.756 0.235,0.209 Z" transform="translate(168.7083,554.0965)"/><path fill="#243f65" d="m 0,0 c 0,0 -0.302,-1.074 -0.356,-1.269 -0.202,0.003 -1.564,0.018 -1.564,0.018 l 0.689,-1.262 0.276,0.15 c 0,0 -0.28,0.512 -0.432,0.792 0.352,-0.004 1.268,-0.014 1.268,-0.014 0,0 0.229,0.815 0.334,1.189 C 0.42,-0.677 0.74,-1.115 0.74,-1.115 L 0.994,-0.93 0.087,0.311 Z" transform="translate(167.8655,553.4809)"/><path fill="#243f65" d="M 0,0 C 0,0 0.335,-0.823 0.34,-0.835 0.335,-0.856 0.284,-0.999 -0.185,-1.214 -0.61,-1.409 -0.762,-1.362 -0.78,-1.338 c -0.001,0.005 -0.003,0.011 -0.003,0.011 l -0.342,0.824 -0.29,-0.12 0.342,-0.825 -0.009,0.03 c 0.013,-0.065 0.064,-0.153 0.17,-0.207 0.186,-0.095 0.467,-0.054 0.858,0.126 0.406,0.186 0.633,0.372 0.693,0.568 0.039,0.124 -0.003,0.208 -0.017,0.231 l 0.011,-0.022 -0.342,0.84 z" transform="translate(165.32,551.6525)"/><path fill="#243f65" d="M 0,0 C 0.764,-0.069 1.426,-0.246 1.895,-0.948 2.748,-2.227 2.229,-3.573 1.11,-4.319 -0.104,-5.13 -1.564,-4.962 -2.334,-3.81 c -0.329,0.494 -0.318,1.112 -0.413,1.255 -0.099,0.148 -0.258,0.114 -0.444,0.069 l -0.099,0.148 1.4,0.934 0.091,-0.137 c -0.392,-0.54 -0.784,-1.468 -0.366,-2.093 0.534,-0.801 1.592,-0.405 2.603,0.27 0.359,0.239 0.911,0.655 1.159,1.114 0.276,0.518 0.077,1.011 -0.037,1.182 -0.285,0.427 -0.739,0.719 -1.6,0.804 z" transform="translate(138.7334,554.0891)"/><path fill="#243f65" d="M 0,0 C 0.583,0.226 2.145,0.872 1.738,1.925 1.331,2.977 -0.259,2.404 -0.843,2.178 -1.822,1.799 -2.914,1.115 -2.581,0.254 -2.248,-0.608 -0.979,-0.379 0,0 M -1.264,3.267 C 0.144,3.812 1.472,3.272 1.96,2.01 2.448,0.749 1.83,-0.544 0.421,-1.089 c -1.462,-0.566 -2.764,0.07 -3.223,1.257 -0.46,1.188 0.076,2.534 1.538,3.099" transform="translate(136.7374,554.9235)"/><path fill="#243f65" d="M 0,0 0.598,-3.766 0.42,-3.794 c -0.107,0.357 -0.16,0.549 -0.593,0.48 L -3.611,-3.86 c -0.468,-0.074 -0.44,-0.343 -0.415,-0.64 l -0.177,-0.028 -0.361,2.274 0.177,0.028 c 0.094,-0.453 0.133,-0.654 0.758,-0.554 l 3.352,0.532 c 0.341,0.054 0.375,0.206 0.306,0.643 -0.156,0.984 -0.804,1.255 -1.654,1.427 l -0.03,0.189 z" transform="translate(137.1473,562.8681)"/><path fill="#243f65" d="M 0,0 C 0.625,-0.032 2.315,-0.079 2.372,1.048 2.43,2.174 0.744,2.3 0.12,2.333 -0.929,2.386 -2.205,2.207 -2.253,1.285 -2.3,0.362 -1.048,0.054 0,0 M 0.179,3.499 C 1.688,3.421 2.679,2.386 2.609,1.036 2.54,-0.315 1.448,-1.243 -0.06,-1.166 c -1.565,0.08 -2.495,1.191 -2.43,2.463 0.065,1.272 1.104,2.282 2.669,2.202" transform="translate(134.7137,564.5292)"/><path fill="#243f65" d="M 0,0 C 0.223,0.835 0.162,1.208 -0.739,1.457 -1.439,1.65 -1.809,1.472 -1.95,0.963 -2.046,0.613 -1.974,0.579 -1.768,0.488 Z M 3.162,2.131 2.802,0.828 0.269,0.11 0.222,-0.061 1.58,-0.437 C 2.135,-0.59 2.194,-0.455 2.373,-0.053 L 2.546,-0.101 1.952,-2.25 1.779,-2.202 c 0.064,0.447 0.078,0.58 -0.483,0.735 l -3.064,0.846 c -0.596,0.165 -0.664,-0.028 -0.792,-0.383 l -0.174,0.048 0.566,2.048 C -2.045,1.537 -1.617,2.87 -0.453,2.548 0.4,2.312 0.434,1.598 0.457,1.222 l 2.328,0.733 c 0.15,0.054 0.183,0.148 0.204,0.224 z" transform="translate(135.3755,570.2126)"/><path fill="#243f65" d="m 0,0 -1.858,0.217 1.263,-1.358 z M 2.435,1 1.447,-0.896 1.288,-0.813 c 0.157,0.38 0.205,0.488 -0.005,0.598 -0.172,0.09 -0.742,0.149 -0.989,0.173 l -0.686,-1.316 c 0.374,-0.403 0.587,-0.633 0.689,-0.686 0.242,-0.127 0.407,0.144 0.524,0.336 L 0.98,-1.791 0.361,-2.978 0.202,-2.895 c 0.114,0.342 -0.061,0.537 -0.447,0.962 l -2.818,3.12 0.086,0.164 4.034,-0.444 C 1.876,0.815 2.142,0.795 2.276,1.083 Z" transform="translate(138.0956,575.1117)"/><path fill="#243f65" d="M 0,0 C 0.222,-0.183 0.359,-0.22 0.561,0.024 1.031,0.594 1.046,1.335 -0.28,2.429 -0.784,2.846 -2.062,3.704 -2.785,2.828 -3.053,2.503 -2.91,2.393 -2.784,2.298 Z m -0.652,-1.558 c 0.265,0.321 0.188,0.555 -0.017,0.725 l -2.735,2.256 c -0.338,0.279 -0.534,0.065 -0.72,-0.115 l -0.138,0.114 1.28,1.552 c 1.176,1.425 2.523,1.091 3.378,0.386 1.02,-0.842 1.432,-2.106 0.418,-3.424 l -1.327,-1.608 z" transform="translate(141.0213,577.7726)"/><path fill="#243f65" d="M 0,0 C 0.385,-0.493 1.457,-1.8 2.346,-1.106 3.235,-0.411 2.225,0.945 1.84,1.438 1.194,2.265 0.222,3.112 -0.505,2.544 -1.233,1.975 -0.647,0.827 0,0 M 2.76,2.157 C 3.69,0.967 3.558,-0.46 2.492,-1.293 1.426,-2.125 0.01,-1.909 -0.92,-0.719 -1.885,0.516 -1.655,1.947 -0.652,2.731 0.352,3.515 1.795,3.392 2.76,2.157" transform="translate(142.8512,582.2577)"/><path fill="#243f65" d="M 0,0 C -0.305,0.418 -0.991,1.026 -1.708,0.724 -2.024,0.591 -2.275,0.251 -2.094,-0.18 c 0.151,-0.357 0.328,-0.455 0.956,-0.518 L -0.04,-0.805 C 0.214,-0.831 0.838,-1.02 1.142,-1.743 1.388,-2.326 1.336,-3.292 0.218,-3.763 -0.36,-4.006 -0.728,-3.896 -0.917,-3.976 -1.044,-4.029 -1.025,-4.162 -1.004,-4.278 l -0.177,-0.074 -0.689,1.637 0.176,0.074 c 0.404,-0.618 1.072,-1.218 1.844,-0.893 0.73,0.307 0.484,0.976 0.447,1.062 -0.187,0.444 -0.54,0.483 -1.021,0.522 l -0.497,0.04 c -1.269,0.106 -1.509,0.676 -1.637,0.981 -0.17,0.404 -0.362,1.385 0.794,1.871 0.486,0.205 0.864,0.107 1.04,0.181 0.14,0.059 0.129,0.171 0.106,0.31 L -0.436,1.51 0.17,0.072 Z" transform="translate(149.7988,587.4871)"/><path fill="#243f65" d="m 0,0 c -0.345,-0.685 -0.753,-1.236 -1.579,-1.413 -1.502,-0.324 -2.563,0.655 -2.846,1.969 -0.307,1.427 0.386,2.724 1.74,3.015 0.581,0.125 1.152,-0.113 1.319,-0.077 0.175,0.038 0.201,0.198 0.227,0.388 L -0.964,3.919 -0.611,2.274 -0.772,2.239 C -1.129,2.802 -1.848,3.508 -2.583,3.35 -3.525,3.148 -3.545,2.018 -3.289,0.83 c 0.09,-0.422 0.274,-1.089 0.61,-1.487 0.379,-0.448 0.912,-0.444 1.111,-0.401 0.504,0.108 0.942,0.423 1.337,1.192 z" transform="translate(155.671,586.3998)"/><path fill="#243f65" d="m 0,0 -2.243,0.014 10e-4,0.179 c 0.35,0.041 0.594,0.069 0.597,0.507 l 0.01,1.654 -1.59,0.01 -0.01,-1.654 C -3.238,0.271 -2.994,0.241 -2.644,0.196 l -0.002,-0.18 -2.223,0.014 10e-4,0.179 c 0.35,0.049 0.562,0.083 0.564,0.508 l 0.021,3.48 c 0.003,0.468 -0.28,0.484 -0.557,0.514 l 10e-4,0.18 2.223,-0.014 -10e-4,-0.179 C -2.907,4.678 -3.211,4.665 -3.214,4.191 l -0.009,-1.489 1.59,-0.01 0.009,1.489 c 0.003,0.475 -0.301,0.491 -0.591,0.514 L -2.213,4.875 0.03,4.861 0.028,4.681 C -0.255,4.662 -0.552,4.642 -0.555,4.174 L -0.576,0.694 C -0.579,0.262 -0.348,0.232 0.001,0.18 Z" transform="translate(160.7794,585.5102)"/><path fill="#243f65" d="M 0,0 C -0.144,-0.609 -0.493,-2.263 0.605,-2.522 1.703,-2.781 2.129,-1.145 2.273,-0.536 2.514,0.485 2.567,1.773 1.668,1.985 0.769,2.198 0.241,1.022 0,0 M 3.409,-0.805 C 3.063,-2.274 1.866,-3.063 0.55,-2.753 c -1.316,0.311 -2.033,1.551 -1.687,3.021 0.36,1.526 1.621,2.241 2.86,1.948 C 2.962,1.924 3.77,0.721 3.409,-0.805" transform="translate(162.4789,587.5832)"/><path fill="#243f65" d="m 0,0 c -0.277,-0.561 -0.991,-2.093 0.02,-2.593 1.011,-0.5 1.796,0.997 2.073,1.557 0.466,0.942 0.808,2.184 -0.02,2.594 C 1.245,1.967 0.466,0.941 0,0 m 3.14,-1.553 c -0.67,-1.354 -2.013,-1.853 -3.225,-1.253 -1.213,0.6 -1.631,1.97 -0.962,3.324 0.695,1.405 2.084,1.817 3.226,1.253 C 3.32,1.206 3.835,-0.148 3.14,-1.553" transform="translate(167.5531,586.038)"/><path fill="#243f65" d="m 0,0 -2.991,2.365 0.111,0.141 c 0.321,-0.19 0.49,-0.295 0.762,0.049 L 0.04,5.285 C 0.335,5.657 0.131,5.836 -0.088,6.037 L 0.023,6.178 1.83,4.75 1.718,4.609 C 1.343,4.879 1.178,5 0.785,4.504 L -1.32,1.841 C -1.534,1.57 -1.456,1.435 -1.109,1.161 -0.328,0.543 0.332,0.782 1.075,1.232 l 0.15,-0.119 z" transform="translate(172.6146,579.9199)"/><path fill="#243f65" d="m 0,0 c -0.509,-0.365 -1.859,-1.381 -1.202,-2.298 0.658,-0.917 2.054,0.035 2.563,0.4 C 2.214,-1.286 3.1,-0.351 2.562,0.4 2.024,1.151 0.853,0.612 0,0 m 2.041,-2.847 c -1.227,-0.88 -2.648,-0.689 -3.435,0.41 -0.788,1.1 -0.514,2.506 0.714,3.386 1.274,0.913 2.693,0.624 3.435,-0.411 0.742,-1.034 0.56,-2.472 -0.714,-3.385" transform="translate(176.6095,579.0841)"/><path fill="#243f65" d="M 0,0 1.524,-3.416 0.204,-4.005 0.14,-3.86 c 0.623,0.437 0.965,0.784 0.502,1.82 -0.145,0.326 -0.219,0.422 -0.502,0.296 l -1.524,-0.679 c 0.321,-0.753 0.827,-0.636 1.39,-0.486 l 0.067,-0.15 -2.219,-0.991 -0.067,0.151 c 0.509,0.307 0.945,0.617 0.606,1.376 l -1.53,-0.683 c -0.433,-0.193 -0.339,-0.44 -0.171,-0.87 l -0.164,-0.074 -0.967,2.169 0.164,0.074 c 0.192,-0.326 0.295,-0.504 0.702,-0.323 l 3.179,1.419 c 0.433,0.193 0.337,0.446 0.23,0.738 z" transform="translate(181.1011,576.7686)"/><path fill="#243f65" d="m 0,0 -0.263,2.174 0.179,0.022 C 0.006,1.808 0.05,1.621 0.522,1.678 L 4.12,2.113 4.118,2.126 -0.392,3.242 -0.413,3.419 3.594,5.564 3.592,5.577 0.273,5.176 C -0.227,5.116 -0.384,4.977 -0.354,4.43 L -0.533,4.408 -0.718,5.94 -0.539,5.962 C -0.428,5.457 -0.31,5.385 0.104,5.435 l 3.391,0.41 C 3.866,5.89 3.952,6.02 3.931,6.489 L 4.11,6.511 4.31,4.854 1.099,3.136 4.627,2.234 4.826,0.583 4.648,0.562 C 4.575,0.925 4.535,1.133 3.921,1.059 L 0.766,0.677 C 0.195,0.608 0.19,0.462 0.178,0.021 Z" transform="translate(179.4588,564.0869)"/><path fill="#243f65" d="M 0,0 0.163,2.303 0.342,2.291 C 0.353,1.933 0.363,1.674 0.808,1.642 L 4.28,1.397 C 4.754,1.363 4.79,1.672 4.833,1.973 L 5.012,1.96 4.849,-0.343 4.67,-0.331 C 4.677,-0.02 4.693,0.296 4.205,0.331 L 0.733,0.577 C 0.274,0.609 0.234,0.347 0.179,-0.013 Z" transform="translate(179.1215,561.8131)"/><path fill="#243f65" d="m 0,0 c -0.042,-0.397 -0.036,-0.588 0.426,-0.697 l 3.317,-0.785 c 0.568,0.245 0.614,0.343 0.633,0.427 L 4.551,-1.097 4.231,-2.451 0.716,-3.972 0.713,-3.985 2.833,-4.487 c 0.42,-0.099 0.669,-0.077 0.834,0.433 l 0.175,-0.041 -0.326,-1.38 -0.175,0.041 c 0.046,0.477 -0.106,0.554 -0.442,0.633 l -4.122,0.975 0.043,0.18 4.469,1.96 0.003,0.013 -2.8,0.662 c -0.503,0.119 -0.668,0.016 -0.837,-0.446 l -0.175,0.041 0.345,1.457 z" transform="translate(179.3906,561.7869)"/><path fill="#243f65" d="m 0,0 -1.605,-3.452 -1.311,0.61 0.07,0.149 c 0.99,-0.293 1.35,0.056 1.726,0.864 0.153,0.329 0.177,0.449 -0.104,0.579 l -1.513,0.703 c -0.273,-0.571 -0.245,-0.955 0.522,-1.42 l -0.073,-0.156 -2.204,1.025 0.073,0.155 c 0.848,-0.307 1.185,-0.093 1.461,0.5 l -1.578,0.734 c -0.287,0.133 -0.418,0.056 -0.599,-0.333 -0.273,-0.586 -0.387,-1.276 0.423,-2.11 l -0.078,-0.168 -1.245,0.87 1.627,3.5 0.163,-0.076 C -4.364,1.615 -4.431,1.42 -4.027,1.232 l 3.156,-1.467 c 0.431,-0.2 0.56,0.045 0.708,0.311 z" transform="translate(182.5954,555.4609)"/><path fill="#243f65" d="M 0,0 C 0.48,-0.192 1.384,-0.344 1.832,0.293 2.029,0.573 2.061,0.994 1.679,1.263 1.361,1.486 1.16,1.475 0.594,1.195 L -0.393,0.704 c -0.229,-0.114 -0.859,-0.284 -1.5,0.167 -0.518,0.364 -0.987,1.21 -0.289,2.203 0.361,0.512 0.731,0.615 0.849,0.782 0.08,0.113 -0.007,0.215 -0.086,0.303 l 0.11,0.156 1.453,-1.021 -0.11,-0.157 c -0.67,0.31 -1.555,0.464 -2.037,-0.221 -0.455,-0.648 0.108,-1.084 0.185,-1.138 0.394,-0.277 0.714,-0.123 1.143,0.1 l 0.442,0.229 C 0.898,2.691 1.404,2.335 1.675,2.145 2.034,1.893 2.716,1.163 1.995,0.138 1.692,-0.294 1.319,-0.411 1.209,-0.568 1.122,-0.692 1.191,-0.781 1.284,-0.887 L 1.17,-1.049 -0.106,-0.151 Z" transform="translate(177.5592,549.4611)"/><path fill="#243f65" d="m 0,0 -3.262,1.025 0.053,0.168 c 1.007,-0.324 1.119,-0.058 1.256,0.378 l 0.849,2.704 c 0.055,0.175 0.152,0.484 -0.187,0.591 -0.122,0.038 -0.444,0.047 -0.768,0.048 L -2.002,5.097 0.431,5.174 0.579,5.128 -0.679,1.124 C -0.827,0.653 -0.808,0.439 0.053,0.169 Z" transform="translate(152.0542,539.0704)"/><path fill="#243f65" d="M 0,0 C 0.232,0.205 0.414,0.364 0.46,0.803 0.5,1.176 0.418,1.71 -0.253,1.781 -0.697,1.828 -1.027,1.567 -1.059,1.266 -1.13,0.585 -0.087,0.046 0,0 m -0.8,-2.899 c 0.807,-0.085 0.877,0.581 0.897,0.771 0.063,0.601 -0.493,0.978 -1.075,1.372 -0.307,-0.301 -0.521,-0.508 -0.578,-1.042 -0.055,-0.527 0.166,-1.039 0.756,-1.101 M 1.544,0.733 C 1.479,0.111 0.716,-0.075 0.204,-0.155 0.944,-0.61 1.471,-1.184 1.399,-1.865 1.303,-2.78 0.408,-3.263 -0.889,-3.127 c -0.979,0.103 -1.85,0.625 -1.765,1.43 0.084,0.798 0.866,1.004 1.49,1.094 -0.648,0.379 -1.181,0.887 -1.117,1.495 0.072,0.681 0.745,1.239 2.196,1.086 C 1.293,1.833 1.588,1.151 1.544,0.733" transform="translate(156.2054,541.5897)"/><path fill="#243f65" d="M 0,0 -0.863,-0.079 0.593,4.039 -1.286,3.867 C -1.523,3.846 -1.977,3.805 -2.12,3.163 l -0.227,-0.021 0.251,1.665 3.778,0.344 z" transform="translate(160.5333,538.5034)"/><path fill="#243f65" d="m 0,0 -0.017,-0.005 -1.19,-2.614 1.826,0.545 z M 2.419,-1.537 2.653,-2.32 2.103,-2.484 2.406,-3.5 1.139,-3.878 0.836,-2.862 -1.331,-3.509 -1.569,-2.712 c 0.478,1.234 1.276,2.77 1.827,3.857 l 0.699,0.209 0.912,-3.055 z" transform="translate(164.6876,543.4093)"/><path fill="#243f65" d="M 0,0 C 0.349,0.298 0.259,0.668 0.041,0.923 -0.189,1.192 -0.54,1.339 -0.889,1.041 -1.237,0.743 -1.148,0.373 -0.918,0.104 -0.7,-0.152 -0.349,-0.298 0,0 m -1.131,1.325 c 0.547,0.466 1.171,0.386 1.56,-0.07 0.378,-0.443 0.36,-1.072 -0.187,-1.539 -0.546,-0.466 -1.171,-0.386 -1.549,0.057 -0.389,0.456 -0.37,1.085 0.176,1.552" transform="translate(148.3117,576.0774)"/><path fill="#243f65" d="M 0,0 1.379,0.874 1.579,0.559 0.631,-0.042 0.881,-0.436 1.702,0.085 1.887,-0.207 1.065,-0.727 1.512,-1.432 1.081,-1.705 Z" transform="translate(148.5231,578.3983)"/><path fill="#243f65" d="M 0,0 1.475,0.698 1.635,0.361 0.621,-0.119 0.82,-0.541 1.699,-0.125 1.847,-0.437 0.968,-0.853 1.325,-1.607 0.863,-1.825 Z" transform="translate(150.3015,579.4818)"/><path fill="#243f65" d="M 0,0 0.48,0.175 1.172,-1.721 0.692,-1.897 Z" transform="translate(152.1596,580.3082)"/><path fill="#243f65" d="m 0,0 c -0.08,0.187 -0.331,0.282 -0.577,0.222 -0.445,-0.11 -0.531,-0.481 -0.447,-0.824 0.081,-0.327 0.33,-0.615 0.775,-0.505 0.303,0.075 0.429,0.298 0.403,0.565 l 0.479,0.119 c 0.071,-0.501 -0.24,-0.91 -0.793,-1.046 -0.698,-0.172 -1.22,0.179 -1.359,0.745 -0.144,0.582 0.155,1.136 0.852,1.308 0.496,0.122 0.975,-0.027 1.147,-0.466 z" transform="translate(154.8509,580.4025)"/><path fill="#243f65" d="m 0,0 0.506,0.068 0.271,-2 -0.506,-0.069 z" transform="translate(155.6636,581.23)"/><path fill="#243f65" d="M 0,0 0.601,0.02 0.284,0.751 H 0.277 Z m 0.007,1.239 0.523,0.018 0.936,-1.988 -0.53,-0.018 -0.19,0.443 -0.868,-0.029 -0.167,-0.456 -0.517,-0.017 z" transform="translate(157.3629,580.1603)"/><path fill="#243f65" d="M 0,0 0.508,-0.049 0.349,-1.687 1.475,-1.797 1.439,-2.168 -0.195,-2.009 Z" transform="translate(159.1293,581.4095)"/><path fill="#243f65" d="M 0,0 C -0.075,-0.258 0.127,-0.426 0.389,-0.502 0.561,-0.552 0.836,-0.585 0.893,-0.386 0.954,-0.177 0.63,-0.045 0.325,0.126 0.016,0.299 -0.286,0.507 -0.18,0.871 -0.065,1.267 0.421,1.332 0.824,1.215 1.289,1.08 1.666,0.779 1.535,0.331 L 1.061,0.469 C 1.113,0.707 0.94,0.822 0.706,0.89 0.55,0.935 0.352,0.931 0.305,0.768 0.261,0.619 0.362,0.569 0.884,0.282 1.036,0.199 1.51,-0.036 1.382,-0.476 1.278,-0.831 0.88,-1.004 0.274,-0.828 c -0.493,0.144 -0.894,0.49 -0.749,0.966 z" transform="translate(162.1069,579.5855)"/><path fill="#243f65" d="M 0,0 1.586,-0.706 1.435,-1.047 0.315,-0.549 0.139,-0.944 1.167,-1.401 1.027,-1.716 -0.001,-1.259 -0.202,-1.711 0.941,-2.22 0.789,-2.561 -0.821,-1.845 Z" transform="translate(164.3303,580.2993)"/><path fill="#243f65" d="M 0,0 0.511,-0.318 0.654,0.465 0.648,0.469 Z M 0.696,1.025 1.141,0.749 0.81,-1.424 l -0.45,0.28 0.089,0.475 -0.737,0.459 -0.392,-0.285 -0.439,0.273 z" transform="translate(166.2438,577.9735)"/><path fill="#243f65" d="m 0,0 0.394,-0.325 -1.047,-1.269 0.873,-0.72 -0.237,-0.288 -1.267,1.044 z" transform="translate(168.4068,578.025)"/></g></svg>