<?xml version="1.0" encoding="utf-8"?>
<!-- Generator: Adobe Illustrator 22.0.1, SVG Export Plug-In . SVG Version: 6.00 Build 0)  -->
<svg version="1.1" id="Layer_1" xmlns="http://www.w3.org/2000/svg" xmlns:xlink="http://www.w3.org/1999/xlink" x="0px" y="0px"
	 width="250.1px" height="250.1px" viewBox="0 0 250.1 250.1" style="enable-background:new 0 0 250.1 250.1;" xml:space="preserve"
	>
<path d="M4.13,125.05C4.13,58.38,58.38,4.13,125.05,4.13c66.67,0,120.92,54.24,120.92,120.92s-54.24,120.92-120.92,120.92
	C58.38,245.97,4.13,191.72,4.13,125.05 M36.66,36.66c-23.61,23.61-36.61,55-36.61,88.39s13,64.78,36.61,88.39
	c23.61,23.61,55,36.61,88.39,36.61s64.78-13,88.39-36.61c23.61-23.61,36.61-55,36.61-88.39s-13-64.78-36.61-88.39
	c-23.61-23.61-55-36.61-88.39-36.61S60.27,13.05,36.66,36.66"/>
<path d="M31.76,123.81c0-51,41.49-92.49,92.49-92.49c51,0,92.49,41.49,92.49,92.49s-41.49,92.49-92.49,92.49
	C73.25,216.31,31.76,174.82,31.76,123.81 M29.72,123.81c0,52.13,42.41,94.53,94.53,94.53c52.13,0,94.53-42.41,94.53-94.53
	c0-52.13-42.41-94.53-94.53-94.53C72.12,29.28,29.72,71.69,29.72,123.81"/>
<path d="M42.22,121.67c0-0.59-0.15-1.13-0.68-1.13c-0.29,0-0.68,0.02-1.32,0.17l-1.44,0.34c-0.15,0.02-0.26,0.02-0.32-0.07
	l-0.21-0.49c-0.06-0.1-0.03-0.2,0.18-0.29l7.14-2.92c0.21-0.07,0.35-0.15,0.56-0.15c0.18,0,0.26,0.17,0.26,0.37
	c0,0.2-0.09,4.04-0.09,7.2v1.03c0,1.27,0.03,5.49,0.03,5.76c0.03,1.27,0.15,1.45,1.62,1.45h1.06c0.21,0,0.29,0.07,0.29,0.2v0.64
	c0,0.12-0.09,0.17-0.32,0.17c-0.21,0-4.2-0.07-4.71-0.07c-0.85,0-5,0.07-5.14,0.07c-0.18,0-0.24-0.05-0.24-0.17v-0.66
	c0-0.15,0.18-0.17,0.41-0.17h0.76c1.62,0,2.06-0.07,2.12-1.32c0.06-1.03,0.03-3.72,0.03-4.61V121.67z M57.1,118.26
	c-1.85,0-2.7,1.45-2.7,2.96c0,1.3,0.85,1.94,3.38,3.14c1.06-0.61,2-1.69,2-3.21C59.77,119.51,58.8,118.21,57.1,118.26 M56.63,134.24
	c-4.29,0-5.85-1.84-5.85-3.43c0-2.16,1.59-3.48,3.73-4.58c-2.41-1.45-3.85-2.28-3.85-4.39c0-1.98,2.23-4.7,6.73-4.7
	c3.09,0,5.29,1.62,5.29,3.36c0,1.86-0.85,2.96-3.76,4.36c2.62,1.15,4.18,2.47,4.18,4.9C63.1,131.79,60.74,134.24,56.63,134.24
	 M56.6,133.28c1.85,0,2.88-1.03,2.88-2.82c0-1.42-1.03-2.3-3.94-3.65c-1,0.66-1.94,1.86-1.94,3.46
	C53.6,132.35,55.42,133.28,56.6,133.28"/>
<path d="M189.14,117.75c1.71-0.05,2.68,1.25,2.68,2.89c0,1.52-0.94,2.6-2,3.21c-2.53-1.2-3.38-1.84-3.38-3.14
	C186.43,119.2,187.29,117.75,189.14,117.75 M188.67,133.73c4.12,0,6.47-2.45,6.47-4.48c0-2.43-1.56-3.75-4.18-4.9
	c2.91-1.4,3.76-2.5,3.76-4.36c0-1.74-2.21-3.36-5.29-3.36c-4.5,0-6.73,2.72-6.73,4.7c0,2.11,1.44,2.94,3.85,4.39
	c-2.15,1.1-3.73,2.42-3.73,4.58C182.82,131.89,184.38,133.73,188.67,133.73 M188.64,132.77c-1.18,0-3-0.93-3-3.01
	c0-1.59,0.94-2.79,1.94-3.46c2.91,1.35,3.94,2.23,3.94,3.65C191.52,131.74,190.49,132.77,188.64,132.77 M203.37,116.62
	c-1.68,0-2.97,0.44-4.23,1.35c-1.12,0.78-2.12,2.7-2.12,4.48c0,1.79,1.38,4.36,4.88,4.36c1.76,0,2.79-0.42,3.23-0.71h0.21
	c-0.62,3.41-3.38,6.05-5.85,6.84c-0.21,0.07-0.38,0.25-0.38,0.42c0,0.29,0.23,0.37,0.47,0.37c0.21,0,0.62-0.05,0.91-0.12
	c1.76-0.42,3.03-0.96,4.7-2.13c3.15-2.21,4.76-5.88,4.76-9.19c0-0.76-0.29-2.33-1.65-3.85
	C207.13,117.14,205.78,116.62,203.37,116.62 M203.46,117.53c1.82,0,2.26,2.01,2.26,4.29c0,1.13,0.03,2.65-0.44,3.09
	c-0.38,0.32-0.97,0.49-1.65,0.49c-1.59,0-2.79-1.79-2.79-4.22C200.84,118.93,201.72,117.53,203.46,117.53"/>
<path d="M132.5,71.16c-1.29,0.39-2.34,0.86-3.35,1.31c-0.74,0.33-1.45,0.63-2.18,0.89c0.83-0.8,1.34-1.9,1.34-3.11
	c0-0.82-0.24-1.59-0.65-2.26c2.14,0.41,2.96,1.19,3.87,2.06c0.38,0.36,0.78,0.75,1.29,1.13C132.71,71.14,132.61,71.13,132.5,71.16
	 M114.93,71.42c-0.05-0.01-0.09-0.01-0.13-0.01c0.96-0.98,2.25-2.28,4.52-3.05c-0.29,0.57-0.45,1.21-0.45,1.89
	c0,1.25,0.55,2.39,1.43,3.2c-0.74-0.23-1.45-0.53-2.2-0.85C117.14,72.19,116.14,71.77,114.93,71.42 M135.49,70.94
	c-1.44-0.59-2.15-1.28-2.91-2c-0.31-0.3-0.62-0.59-0.96-0.87c1.02,0.36,3.88,0.91,3.95,0.63c0.07-0.27-3.37-1.5-4.69-1.98
	c-2.42-0.87-4.7-1.7-7.95-1.58c-2.25,0.08-3.84,0.57-5.52,1.09c-0.92,0.28-3.38,1.45-3.38,1.45c0.02,0.08,2.75-0.18,3.69-0.47
	c1.23-0.38,2.33-0.72,3.66-0.91c-0.02,0.01-0.03,0.02-0.05,0.02c-4.26,0.59-6.34,2.69-7.65,4.02c-0.36,0.37-0.9,0.92-1.08,0.93h0
	c-0.41-0.02-0.8,0.28-0.84,0.68c-0.04,0.4,0.2,0.77,0.61,0.83c0.73,0.11,1.31-0.3,1.91-0.87c0,0.22,0.14,0.42,0.36,0.48
	c1.16,0.34,2.13,0.75,3.06,1.14c1.73,0.73,3.37,1.42,5.76,1.43c2.54,0.01,4.27-0.76,6.1-1.57c0.99-0.44,2.01-0.89,3.24-1.26
	c0.27-0.08,0.42-0.37,0.34-0.64c-0.02-0.06-0.05-0.11-0.08-0.15c0.5,0.35,1.09,0.69,1.85,1.01c0.39,0.16,0.84-0.03,1-0.42
	C136.07,71.55,135.88,71.1,135.49,70.94 M127.29,70.25c0,1.9-1.66,3.45-3.7,3.45c-2.04,0-3.7-1.55-3.7-3.45
	c0-0.88,0.36-1.68,0.94-2.29c0.85-0.16,1.8-0.26,2.89-0.26c0.95,0,1.76,0.04,2.47,0.1C126.86,68.42,127.29,69.29,127.29,70.25
	 M123.72,67.31c-1.41,0-2.55,1.14-2.55,2.55c0,1.41,1.14,2.55,2.55,2.55c1.41,0,2.55-1.15,2.55-2.55
	C126.27,68.46,125.12,67.31,123.72,67.31 M117.15,62.24c-1.05,0.26-2.14,0.53-3.43,0.75c-0.56,0.09-0.93,0.62-0.83,1.18
	c0.09,0.56,0.62,0.93,1.18,0.83c1.36-0.23,2.49-0.51,3.58-0.78c1.92-0.47,3.58-0.88,5.94-0.86c2.43,0.02,4.13,0.48,6.1,1.01
	c1.11,0.3,2.27,0.61,3.67,0.88c0.55,0.11,1.09-0.26,1.2-0.81c0.11-0.55-0.26-1.09-0.81-1.2c-1.33-0.25-2.44-0.56-3.52-0.85
	c-2.02-0.55-3.92-1.06-6.62-1.08C120.98,61.29,119.12,61.75,117.15,62.24 M99.76,191.63H66.12v-1.82h33.63V191.63z M73.22,188.49
	c0,0-0.05-0.18-0.05-0.19c0.14-0.85,0.31-1.94,0.81-2.7c0.58-0.87,1.01-1.26,1.61-1.79c0,0,0.31-0.29,0.6-0.56
	c0.32,0.38,0.73,0.85,0.73,0.85c1.19,1.33,2.12,2.39,2.12,4.22c0,0.1-0.03,0.17-0.13,0.34l-0.21,0.39h-5.42
	c0.01-0.05,0.02-0.1,0.02-0.15C73.3,188.76,73.25,188.62,73.22,188.49 M72.31,172.58h21.01c1.35,0,1.54,0.76,1.54,1.06
	c0,0.29-0.19,1.09-1.54,1.09H72.31c-1.35,0-1.56-0.76-1.56-1.12C70.74,173.24,70.96,172.58,72.31,172.58 M73.37,77.27
	c0-1.31,1.28-1.51,2.05-1.51h15.5c0.63,0,2.11,0.15,2.11,1.5c0,0.01,0.93,86.73,1.01,94.46c-0.08-0.01-0.16-0.02-0.25-0.02H71.97
	C72.04,167.34,73.37,77.27,73.37,77.27 M73.33,73.66c0-0.57,1.05-1.02,2.35-1.02h15.53c1.3,0,2.35,0.46,2.35,1.02
	c0,0.57-1.05,1.02-2.35,1.02H75.68C74.38,74.68,73.33,74.22,73.33,73.66 M82.82,70.97c-3.88,0.03-7.07,0.05-7.76,0.05
	c0.55-1.13,3.3-6.76,4.01-8.21C79.74,64.28,82.33,69.91,82.82,70.97 M90.86,70.92c-0.71,0-3.35,0.02-6.56,0.04
	c0.35-0.99,2.21-6.31,2.8-8C87.82,64.49,89.99,69.06,90.86,70.92 M69.71,56.57h27.22v2.18H69.71V56.57z M81.09,176.02l-0.29-0.49
	h5.45c-0.88,1.99-1.41,2.83-2.61,4.08C82.54,178.43,81.93,177.44,81.09,176.02 M86.59,189.06l-0.03-0.13
	c-0.06-0.31-0.09-0.6-0.09-0.89c0-1.97,1.39-3.41,3.01-5.03c0.32,0.38,0.72,0.84,0.72,0.84c1.19,1.34,2.12,2.39,2.12,4.22
	c0,0.21-0.05,0.34-0.14,0.56l-0.16,0.42H86.59z M100.68,189.06h-0.72l-0.01-0.1c-0.05-0.39-0.03-0.69-0.01-1.05l0.03-0.74
	c0-4.52-1.82-7.19-4.12-10.56l-0.92-1.35c0.73-0.4,0.97-1.16,0.97-1.67c0-0.19-0.04-0.83-0.53-1.32c-0.09-0.09-0.2-0.17-0.31-0.25
	l-1.02-94.77c0-0.85-0.39-1.53-1.06-1.97c1.1-0.29,1.83-0.95,1.83-1.76c0-0.49-0.26-0.92-0.71-1.25c0-0.87,0.01-5.1,0.01-7.85
	c0-1.6,0-2.89-0.01-3.18c0.03-0.27,0.95-0.94,1.89-1.37l-0.05-0.22h2.44v-4.08h-0.51H68.26v4.08h2.3l-0.02,0.29l0.48,0.09
	c0.28,0.08,0.94,1.1,1.41,2.15c0,0.2,0.1,8.64,0.12,10.1c-0.45,0.33-0.72,0.77-0.72,1.26c0,0.76,0.64,1.39,1.62,1.7
	c-0.7,0.43-1.11,1.13-1.11,2.03l-1.4,94.57c-0.9,0.29-1.25,1.02-1.25,1.72c0,0.73,0.37,1.55,1.33,1.85
	c-1.21,0.73-2.1,2.28-2.63,3.22c-0.93,1.63-2.66,4.66-2.87,9.55l0.08,0.64l0.05,0.24h-0.95v3.32h36.5v-3.32H100.68z M84.52,161.75
	c0,3.51-0.6,5.91-1.07,6.47c-0.47-0.55-1.07-2.96-1.07-6.47V83.9c0-3.51,0.6-5.91,1.07-6.47c0.47,0.55,1.07,2.96,1.07,6.47V161.75z
	 M83.45,76.24c-1.71,0-2.17,4.81-2.17,7.66v77.85c0,2.84,0.46,7.66,2.17,7.66c1.71,0,2.17-4.81,2.17-7.66V83.9
	C85.62,81.05,85.16,76.24,83.45,76.24 M90.72,76.5c-0.45,0-1.02,0-1.02,7.66v78.36c0,7.66,0.57,7.66,1.02,7.66
	c0.45,0,1.02,0,1.02-7.66V84.15C91.75,76.5,91.18,76.5,90.72,76.5 M75.66,76.5c-0.45,0-1.02,0-1.02,7.66v78.36
	c0,7.66,0.57,7.66,1.02,7.66s1.02,0,1.02-7.66V84.15C76.69,76.5,76.12,76.5,75.66,76.5z M78.22,77.52v91.38
	c0,0.28,0.23,0.51,0.51,0.51c0.28,0,0.51-0.23,0.51-0.51V77.52c0-0.28-0.23-0.51-0.51-0.51C78.45,77.01,78.22,77.24,78.22,77.52
	 M87.41,77.26v91.38c0,0.28,0.23,0.51,0.51,0.51c0.28,0,0.51-0.23,0.51-0.51V77.26c0-0.28-0.23-0.51-0.51-0.51
	C87.63,76.75,87.41,76.98,87.41,77.26 M80.57,69.57c-0.01-0.07-0.03-0.2-1.19-3l-0.46-1.11l-0.48,1.1l-1.56,3.55l0.74,0.04
	c2.55,0.15,2.65,0.03,2.82-0.15l0.16-0.18L80.57,69.57z M89.06,69.19c-0.02-0.1-0.03-0.22-1.34-2.73l-0.49-0.94l-0.43,0.97
	l-1.43,3.24l0.74,0.04c2.55,0.15,2.65,0.03,2.82-0.15l0.16-0.18L89.06,69.19z M183.51,191.63h-33.63v-1.82h33.63V191.63z
	 M156.97,188.49c0,0-0.05-0.18-0.05-0.19c0.14-0.85,0.31-1.94,0.81-2.7c0.58-0.87,1.01-1.26,1.61-1.79c0,0,0.31-0.29,0.6-0.56
	c0.32,0.38,0.73,0.85,0.73,0.85c1.19,1.33,2.12,2.39,2.12,4.22c0,0.1-0.03,0.17-0.13,0.34l-0.21,0.39h-5.42
	c0.01-0.05,0.02-0.1,0.02-0.15C157.06,188.76,157.01,188.62,156.97,188.49 M156.07,172.58h21.01c1.35,0,1.54,0.76,1.54,1.06
	c0,0.29-0.19,1.09-1.54,1.09h-21.01c-1.35,0-1.56-0.76-1.56-1.12C154.5,173.24,154.72,172.58,156.07,172.58 M157.13,77.27
	c0-1.31,1.28-1.51,2.05-1.51h15.5c0.63,0,2.11,0.15,2.11,1.5c0,0.01,0.93,86.73,1.01,94.46c-0.08-0.01-0.16-0.02-0.25-0.02h-21.82
	C155.79,167.34,157.13,77.27,157.13,77.27 M157.09,73.66c0-0.57,1.05-1.02,2.35-1.02h15.53c1.3,0,2.35,0.46,2.35,1.02
	c0,0.57-1.05,1.02-2.35,1.02h-15.53C158.14,74.68,157.09,74.22,157.09,73.66 M166.57,70.97c-3.88,0.03-7.07,0.05-7.76,0.05
	c0.56-1.13,3.3-6.76,4.01-8.21C163.5,64.28,166.08,69.91,166.57,70.97 M174.62,70.92c-0.71,0-3.34,0.02-6.55,0.04
	c0.35-0.99,2.21-6.31,2.8-8C171.58,64.49,173.74,69.06,174.62,70.92 M153.47,56.57h27.22v2.18h-27.22V56.57z M164.85,176.02
	l-0.29-0.49h5.45c-0.88,1.99-1.41,2.83-2.61,4.08C166.3,178.43,165.69,177.44,164.85,176.02 M170.34,189.06l-0.03-0.13
	c-0.06-0.31-0.09-0.6-0.09-0.89c0-1.97,1.39-3.41,3.01-5.03c0.32,0.38,0.72,0.84,0.72,0.84c1.19,1.34,2.12,2.39,2.12,4.22
	c0,0.21-0.05,0.34-0.14,0.56l-0.16,0.42H170.34z M184.44,189.06h-0.72l-0.01-0.1c-0.05-0.39-0.03-0.69-0.01-1.05l0.03-0.74
	c0-4.52-1.82-7.19-4.12-10.56l-0.92-1.35c0.73-0.4,0.97-1.16,0.97-1.67c0-0.19-0.04-0.83-0.53-1.32c-0.09-0.09-0.2-0.17-0.31-0.25
	l-1.02-94.77c0-0.85-0.39-1.53-1.06-1.97c1.1-0.29,1.83-0.95,1.83-1.76c0-0.49-0.26-0.92-0.71-1.25c0-0.87,0.01-5.1,0.01-7.85
	c0-1.6,0-2.89-0.01-3.18c0.03-0.27,0.95-0.94,1.89-1.37l-0.05-0.22h2.44v-4.08h-0.51h-29.61v4.08h2.3l-0.02,0.29l0.48,0.09
	c0.28,0.08,0.94,1.1,1.41,2.15c0,0.2,0.1,8.64,0.12,10.1c-0.45,0.33-0.72,0.77-0.72,1.26c0,0.76,0.64,1.39,1.62,1.7
	c-0.7,0.43-1.11,1.13-1.11,2.03l-1.4,94.57c-0.9,0.29-1.26,1.02-1.26,1.72c0,0.73,0.37,1.55,1.33,1.85
	c-1.21,0.73-2.1,2.28-2.63,3.22c-0.93,1.63-2.66,4.66-2.87,9.55l0.08,0.64l0.05,0.24h-0.95v3.32h36.5v-3.32H184.44z M168.26,161.75
	c0,3.51-0.6,5.91-1.07,6.47c-0.47-0.55-1.07-2.96-1.07-6.47V83.9c0-3.51,0.6-5.91,1.07-6.47c0.47,0.55,1.07,2.96,1.07,6.47V161.75z
	 M167.2,76.24c-1.71,0-2.17,4.81-2.17,7.66v77.85c0,2.84,0.46,7.66,2.17,7.66c1.71,0,2.17-4.81,2.17-7.66V83.9
	C169.37,81.05,168.91,76.24,167.2,76.24 M174.48,76.5c-0.46,0-1.02,0-1.02,7.66v78.36c0,7.66,0.57,7.66,1.02,7.66
	c0.46,0,1.02,0,1.02-7.66V84.15C175.5,76.5,174.94,76.5,174.48,76.5 M159.42,76.5c-0.46,0-1.02,0-1.02,7.66v78.36
	c0,7.66,0.57,7.66,1.02,7.66c0.46,0,1.02,0,1.02-7.66V84.15C160.44,76.5,159.88,76.5,159.42,76.5 M161.98,77.52v91.38
	c0,0.28,0.23,0.51,0.51,0.51c0.28,0,0.51-0.23,0.51-0.51V77.52c0-0.28-0.23-0.51-0.51-0.51C162.2,77.01,161.98,77.24,161.98,77.52
	 M171.16,77.26v91.38c0,0.28,0.23,0.51,0.51,0.51c0.28,0,0.51-0.23,0.51-0.51V77.26c0-0.28-0.23-0.51-0.51-0.51
	C171.39,76.75,171.16,76.98,171.16,77.26 M164.33,69.57c-0.01-0.07-0.03-0.2-1.19-3l-0.46-1.11l-0.48,1.1l-1.56,3.55l0.73,0.04
	c2.55,0.15,2.66,0.03,2.83-0.15l0.16-0.18L164.33,69.57z M172.82,69.19c-0.02-0.1-0.03-0.22-1.34-2.73l-0.49-0.94l-0.43,0.97
	l-1.43,3.24l0.73,0.04c2.55,0.15,2.66,0.03,2.83-0.15l0.16-0.18L172.82,69.19z M142.94,130.34l8.22,3.43l0.47-0.84l-8.31-3.54
	L142.94,130.34z M105.51,168.59l0.09,1.02l4.55-0.39l-0.09-1.02L105.51,168.59z M106.39,170.78l0.09,1.02l4.55-0.39l-0.09-1.02
	L106.39,170.78z M107.78,172.97l0.09,1.02l4.55-0.39l-0.09-1.02L107.78,172.97z M109.18,175.16l0.09,1.02l4.55-0.39l-0.09-1.02
	L109.18,175.16z M135.65,167.36l3.54,0.68l0.19-1l-3.54-0.68L135.65,167.36z M136.28,169.44l3.54,0.68l0.19-1l-3.54-0.68
	L136.28,169.44z M137.42,171.39l3.54,0.68l0.19-1l-3.54-0.68L137.42,171.39z M138.39,173.63l3.54,0.68l0.19-1l-3.54-0.68
	L138.39,173.63z M125.38,167.81l0.51,0.89c2.63-1.5,2.87-1.27,2.98-1.17c0.16,0.15,0.44,0.41,1,0.39l-0.04-1.02
	c-0.14,0.01-0.15-0.01-0.26-0.11C128.95,166.21,128.34,166.12,125.38,167.81 M126.76,170.41l0.51,0.89c2.63-1.5,2.87-1.27,2.98-1.17
	c0.16,0.15,0.44,0.41,1,0.39l-0.04-1.02c-0.14,0.01-0.15-0.01-0.26-0.11C130.33,168.81,129.71,168.72,126.76,170.41 M127.46,172.89
	l0.51,0.89c2.63-1.5,2.87-1.27,2.98-1.17c0.16,0.15,0.44,0.41,1,0.39l-0.04-1.02c-0.14,0-0.15-0.01-0.26-0.11
	C131.04,171.28,130.42,171.19,127.46,172.89 M128.83,174.96l0.51,0.89c2.63-1.5,2.87-1.27,2.98-1.17c0.16,0.15,0.44,0.41,1,0.39
	l-0.04-1.02c-0.14,0-0.15-0.01-0.26-0.11C132.4,173.35,131.79,173.26,128.83,174.96 M115.45,167.92c1.43,0.17,3.15,0.5,3.43,0.72
	l0.68-0.76c-0.56-0.51-2.98-0.85-4-0.97L115.45,167.92z M116.83,170.11c1.43,0.17,3.15,0.5,3.43,0.72l0.68-0.76
	c-0.56-0.51-2.98-0.85-4-0.97L116.83,170.11z M118.22,172.3c1.43,0.17,3.15,0.5,3.43,0.72l0.68-0.76c-0.56-0.51-2.98-0.85-4-0.97
	L118.22,172.3z M119.61,174.48c1.43,0.17,3.15,0.5,3.43,0.72l0.68-0.76c-0.56-0.51-2.98-0.85-4-0.97L119.61,174.48z M71.49,139.45
	l-2.94,4.94c-0.14,0.24-0.07,0.56,0.18,0.7c0.24,0.15,0.56,0.07,0.7-0.18l2.59-4.34c0.14-0.24,0.07-0.56-0.18-0.7
	C71.6,139.73,71.64,139.21,71.49,139.45 M177.9,140.73c-0.24,0.15-0.32,0.46-0.17,0.7l2.1,3.48c0.15,0.24,0.46,0.32,0.7,0.17
	c0.24-0.15,0.32-0.46,0.17-0.7l-2.1-3.48C178.46,140.66,178.14,140.59,177.9,140.73 M149.8,107.39c-1.56,1.1-3.66,0.85-4.28,0.36
	c-0.34-0.27-1.36-1.88-0.91-2.51c0.1-0.15,0.13-0.19,0.63,0c0.39,0.14,1.12,0.42,1.58-0.31l0.28-0.34c0.18-0.19,0.4-0.42,0.37-0.78
	c-0.03-0.44-0.4-0.79-1.27-1.47c-0.63-0.49-1.9-0.56-2.15-0.56l-0.06,0l-0.06,0.02c-0.51,0.11-3.08,0.71-3.75,1.23
	c-2.17,1.67-12.07,5.3-16.58,5.51c-2.57,0.12-8.57,0.39-15.9-3.51c-0.09-0.07-2-1.67-2-1.67l-0.03-0.02
	c-1.35-0.88-3.75-2.28-4.71-1.84c-0.42,0.2-0.69,0.56-0.74,1.03c-0.01,0.06-0.01,0.12-0.01,0.17c0,0.67,0.4,1.37,0.82,1.69
	c0.34,0.26,0.8,0.28,1.25,0.3c0.16,0.01,0.39,0.03,0.53,0.06c-0.11,0.25-0.52,0.78-1.22,1.19c-0.35,0.2-1.01,0.51-1.57,0.27
	c-0.74-0.31-1.63-1.22-1.92-2.37c-0.25-1,0.02-2,0.77-2.91c0.58-0.7,0.82-0.68,1.15-0.64c0.51,0.06,1.03,0.05,1.7-0.69
	c0.5-0.55,0.66-1.01,0.66-1.4c0-0.42-0.19-0.76-0.34-1.02c-0.1-0.17-0.19-0.33-0.19-0.45v-0.01c0-0.37-0.2-0.76-0.51-1.35
	c-0.57-1.11-1.52-2.95-1.52-5.72v-0.02c0-2.54,0.97-4.33,1.48-5.2c0.97,1.07,2.84,3.63,2.84,7.45c0,0.5-0.03,1.02-0.1,1.56
	c-0.05,0.38-0.21,1-0.37,1.65c-0.34,1.33-0.59,2.39-0.59,3.15c0,0.42,0.08,0.75,0.25,0.98c0.17,0.22,0.41,0.35,0.69,0.36
	c0.25,0.01,1.46,0.34,2.8,0.7c2.73,1.48,8.02,3.33,8.27,3.41l0.17-0.48c-0.05-0.02-2.99-1.05-5.62-2.17
	c4.61,1.23,10.74,2.72,14.98,2.75c4.02,0.03,8.19-1.43,11.88-2.71c1.21-0.42,2.39-0.83,3.5-1.16c-2.69,1.42-6.92,3.45-9.67,3.73
	l0.05,0.51c3.63-0.38,9.52-3.56,11.64-4.76c0.6-0.12,1.16-0.2,1.68-0.21c0.06,0,0.12,0.01,0.18,0.01c0.12,0.05,0.25,0.06,0.38,0.02
	c0,0,0,0,0.01,0c1.01,0.06,1.92,0.33,2.72,0.71c0.04,0.03,0.09,0.05,0.14,0.06c2.21,1.12,3.55,3.1,3.65,3.72
	C150.95,104.81,151.21,106.39,149.8,107.39 M143.58,102.92c0.17-0.04,0.33-0.08,0.49-0.12c0.48,0.02,1.23,0.14,1.5,0.35
	c0.51,0.39,0.72,0.59,0.82,0.7c-0.01,0.01-0.03,0.03-0.03,0.03s-0.4,0.49-0.4,0.5c-0.08,0-0.24-0.06-0.36-0.11
	c-0.37-0.14-1.02-0.37-1.56,0.09L143.58,102.92z M151.97,133.38c-0.05-0.07-0.09-0.13-0.13-0.18l-0.2-0.27l-0.33,0.08l-32.86,7.96
	c-2.49-1.26-18.48-9.35-20.46-10.35c1.46-0.38,6.33-1.66,9.15-2.4l14.33,7.98l0.2-0.05c8.31-2.27,20.92-5.68,21.64-5.77l0.15-0.36
	l0.17,0.09c0.03-0.06,0.68-1.4,0.73-2.33c0.06-1.03-0.44-2.16-0.6-2.74l-1.08-0.57l-3.71-16.94c0.43-0.67,0.91-1.33,1.39-1.94
	l6.98,26.22c0.07,0.27,0.35,0.43,0.63,0.36c0.27-0.07,0.43-0.35,0.36-0.62l-7.17-26.91c0.63-0.69,1.11-1.07,1.45-1.29L151.97,133.38
	z M152.37,136.49c-0.06,0.49-0.42,1.69-0.77,2.78c-1.28,0.35-2.51,0.68-3.69,1c0.2-0.6,0.4-1.5,0.33-2.52
	c-0.04-0.6-0.69-1.57-1.39-2.53c2.49-0.6,4.15-1,4.32-1.05C151.99,135.34,152.37,136.21,152.37,136.49L152.37,136.49z M147.3,140.43
	c-0.5,0.14-0.99,0.27-1.47,0.4c-0.05-0.01-0.11-0.01-0.16,0c-0.08,0.02-0.14,0.05-0.2,0.1c-0.28,0.08-0.56,0.15-0.83,0.22
	c0.2-0.6,0.4-1.5,0.33-2.51c-0.05-0.62-0.72-1.62-1.45-2.61c1-0.24,1.93-0.47,2.79-0.68c0.02,0.03,0.04,0.05,0.06,0.09
	c0.39,0.54,1.31,1.79,1.35,2.35C147.81,138.93,147.51,139.91,147.3,140.43 M144.04,141.32c-1.07,0.29-2.08,0.56-3.06,0.83
	c-0.05-0.01-0.09-0.01-0.14-0.01c-0.09,0.02-0.16,0.05-0.22,0.11c-4.18,1.13-7.63,2.06-10.46,2.83c0.23-0.58,0.53-1.61,0.44-2.82
	c-0.05-0.62-0.72-1.62-1.45-2.61l-0.08-0.11c4.49-1.09,9.69-2.35,13.93-3.37c0.03,0.05,0.07,0.1,0.12,0.17
	c0.39,0.53,1.31,1.79,1.35,2.35C144.55,139.81,144.25,140.79,144.04,141.32 M144.92,169.99l-6.06-7.87l-0.07,0.06l-2.07-17.74
	c1.19-0.32,2.46-0.66,3.81-1.03L144.92,169.99z M143.83,177.2c-2.13,0.11-3.37-0.25-4.69-0.63c-1.13-0.33-2.3-0.67-4.04-0.72
	c-3.11-0.1-6.37,2.22-7.76,3.21c0,0-0.06,0.04-0.13,0.09l-1.61-3.51l-0.93,0.43l1.32,2.87c-0.38-0.18-0.81-0.39-1.21-0.58
	c-2.14-1.03-3.7-1.76-4.31-1.84c-1.19-0.14-6.63,1.21-9,2.05c-1.89,0.67-3.24,0.26-3.67,0.09c-0.15-0.32-5.52-11.73-6.25-13.28
	c1.3,0.23,3.57,0.6,4.66,0.63c1.05,0.03,3.11-0.69,4.77-1.27c0.77-0.27,1.65-0.57,1.87-0.59c1.82-0.14,6.27,1.15,7.34,1.47
	c0.14,0.37,0.75,1.96,0.75,1.96l0.95-0.37c0,0-0.39-1.02-0.63-1.64c0.56-0.53,2.82-2.43,6.22-2.39c4.3,0.05,4.64,0.31,4.84,0.47
	c0.32,0.25,0.64,0.42,2.05,0.49c1.9,0.09,3.1-0.16,3.82-0.42c0.08,0.04,0.17,0.06,0.27,0.05c0.11-0.01,0.21-0.07,0.29-0.14
	c1.02,1.33,8.98,11.67,9.48,12.32C147.74,176.35,146.5,177.05,143.83,177.2 M149.73,181.26c-13.87,0.21-17.45,0.61-18.44,0.95
	c-0.24-0.72-0.71-1.66-1.59-2.29c-0.33-0.23-0.69-0.41-1.09-0.52c1.52-1.04,4.09-2.62,6.45-2.54c1.62,0.05,2.67,0.36,3.79,0.68
	c1.34,0.39,2.73,0.79,5.03,0.67c2.29-0.12,3.67-0.63,4.47-1.1C148.74,178.3,149.48,180.52,149.73,181.26 M124.61,183.27
	c-0.22,0-0.37,0-0.5,0c0.03-0.08,0.06-0.16,0.06-0.26c0-0.03,0-0.05-0.01-0.08l0.08,0.03c0.26-0.63,1.2-2.32,2.34-2.57
	c0.05-0.01,0.1-0.02,0.15-0.03c0.15,0.05,0.23,0.05,0.32,0.03c0.09-0.01,0.17-0.05,0.28-0.11c0.69-0.03,1.28,0.12,1.77,0.46
	c1.05,0.74,1.35,2.18,1.41,2.51C129.31,183.25,126.32,183.23,124.61,183.27 M105.53,183.2c1.65-1.18,1.97-2.58,2.02-3.54
	c0.68,0.24,2.22,0.59,4.24-0.13c2.57-0.91,7.68-2.1,8.54-2c0.49,0.06,2.59,1.07,3.99,1.74c0.44,0.21,0.8,0.39,1.1,0.53
	c-1.1,0.72-1.82,2.08-2.05,2.58L105.53,183.2z M104.5,183.25l-0.11-0.3l0.16,0.3L104.5,183.25z M99.29,169.39
	c0.75-0.67,1.28-2.01,1.58-3.03l5.71,12.14l-0.05,0.53c0.02,0.87,0.06,2.48-2.22,3.73L99.29,169.39z M104.41,142.03l3.64,2
	c-0.01,0.03-0.02,0.05-0.03,0.07l-3.42,20.73c-1.71-0.23-3.82-0.62-3.85-0.62l-0.98-0.18l0.39,0.83c-0.19,1.16-0.86,2.96-1.44,3.71
	L104.41,142.03z M113.17,147.01c0.01-0.06,0-0.12-0.01-0.17l4.05,2.23c0,0.03,0.01,0.06,0.03,0.1l0.05,0.15l-1.05,14.24
	c-1.31-0.28-2.62-0.48-3.47-0.41c-0.27,0.02-0.73,0.17-1.51,0.43L113.17,147.01z M110.18,163.95c-1.43,0.5-3.17,1.07-3.94,1.05
	c-0.17-0.01-0.39-0.02-0.62-0.04l3.37-20.41l3.52,1.93c-0.18,0.06-0.32,0.22-0.34,0.42L110.18,163.95
	C110.18,163.94,110.18,163.95,110.18,163.95 M124.62,147.7l0,14.87c-2,0.57-3.35,1.64-3.92,2.16c-0.17-0.05-1.71-0.53-3.45-0.94
	l1.07-14.44C119.13,149.16,120.86,148.71,124.62,147.7 M129.52,145.24c-1.42,0.38-2.69,0.72-3.81,1.02c0.22-0.59,0.51-1.6,0.43-2.78
	c-0.04-0.62-0.72-1.62-1.45-2.61l-0.17-0.24c1.21-0.29,2.57-0.62,4.01-0.97c0.05,0.07,0.11,0.15,0.2,0.28
	c0.39,0.54,1.31,1.79,1.35,2.35C130.18,143.72,129.68,144.91,129.52,145.24 M132.35,162.54c-0.59-0.19-1.79-0.33-4.86-0.36
	c-0.66-0.01-1.28,0.05-1.85,0.15l0-14.9c1.52-0.41,3.33-0.89,5.48-1.47L132.35,162.54z M133.41,163.04l-1.29-17.36
	c1.11-0.3,2.31-0.62,3.6-0.97l2.11,18.07c-0.59,0.21-1.65,0.45-3.41,0.36C133.93,163.12,133.62,163.08,133.41,163.04 M119.73,144.57
	c-0.07-1.14-0.38-2.03-0.63-2.62c0.56-0.14,2.39-0.58,4.9-1.19c0.03,0.07,0.11,0.18,0.28,0.41c0.39,0.53,1.31,1.79,1.35,2.35
	c0.1,1.38-0.36,2.53-0.54,2.91c-3.27,0.88-5.21,1.39-6.3,1.66c0.44-0.92,0.95-2.16,0.95-3.31
	C119.74,144.72,119.73,144.64,119.73,144.57 M97.46,136.69c0.19-0.43,0.57-1.42,0.57-2.67c0-0.14,0-0.28-0.02-0.43
	c-0.04-0.6-0.68-1.55-1.37-2.51l21.15,10.7l0.02,0.03c0.01,0.01,0.71,1.16,0.82,2.82c0.06,0.97-0.46,2.21-0.87,3.07
	C115.53,146.5,97.85,136.9,97.46,136.69 M96.8,136.17l0.71-2.28c0.02,0.89-0.18,1.67-0.36,2.17L96.8,136.17z M105.16,109.17
	c0-0.01,0-0.02,0-0.03c0.18,0,0.32,0.01,0.38,0.02c0.17,0.06,0.37,0.08,0.53,0.08c0.26,0.01,0.66,0.03,1.17,0.09l-4.94,19.09
	l-3.47,0.91L105.16,109.17z M123.2,112.41c-4.94-0.94-5.3-1.07-8.7-2.25l-1.36-0.47c-3.72-1.29-6.11-1.41-7.01-1.45
	c0,0-0.16-0.01-0.22-0.02c-0.17,0-0.56-0.03-1.5-0.11c0.98-0.74,2.3-1.74,2.86-2.17c7.55,4,13.72,3.72,16.37,3.6
	c1.71-0.08,4.11-0.61,6.58-1.34c0.05,0.52,0.17,1.64,0.34,2.71C129.74,111.6,127.33,113.2,123.2,112.41 M132.09,114.47
	c-0.33,0.35-2.43,2.35-7.77,1.99c-3.06-0.21-4.62-1.3-5.39-2.19c-0.96-1.11-6.4-1.76-7.3-1.73c-0.11,0-0.29,0.01-0.45,0.12
	c-0.25,0.08-1.25,0.16-2.29,0.22c0.39-0.88,0.97-2.26,1.17-3.04c0.81,0.2,1.72,0.46,2.75,0.81l1.36,0.47
	c3.39,1.19,3.83,1.34,8.84,2.29c3.96,0.75,6.52-0.5,7.76-1.38c0.09,0.41,0.19,0.77,0.3,1.03C131.2,113.4,131.59,113.9,132.09,114.47
	 M137.92,107.32c-1.3,2.06-2.34,4.25-2.35,5.37c-0.08,0.11-0.13,0.25-0.1,0.4l0.45,2.61c0.04,0.44,0.07,0.86,0.09,1.22
	c-1.67-1.54-3.72-3.57-4.01-4.25c-0.38-0.92-0.69-3.67-0.79-4.77c3.64-1.14,7.27-2.63,9.01-3.69c-0.11,0.12-0.21,0.24-0.32,0.37
	c-0.56,0.67-1.13,1.45-1.67,2.27C138.03,106.92,137.91,107.11,137.92,107.32 M138.19,122.92
	C138.19,122.92,138.19,122.92,138.19,122.92l-1.26-7.34c-0.08-0.97-0.2-2.03-0.34-2.81c-0.1-0.56,0.58-2.19,1.63-3.99l3.35,15.3
	L138.19,122.92z M133.39,115.84c1.26,1.26,2.61,2.46,2.86,2.69l0.17,0.15l0.67,3.87l-3.03-1.04L133.39,115.84z M115.11,121.72
	l-2.39,0.35l1.36-8.27c0.63,0.1,1.3,0.22,1.91,0.36L115.11,121.72z M130,116.86c1.13-0.39,1.88-0.87,2.34-1.24l0.65,5.51l-2.74-0.94
	L130,116.86z M127.36,117.43c0.6-0.07,1.15-0.16,1.64-0.28l0.2,2.68l-0.39-0.13C128.46,119.13,127.99,118.39,127.36,117.43
	 M120.63,118.38l0.12-1.67c0.32,0.13,0.66,0.25,1.03,0.35C121.44,117.43,121.03,117.88,120.63,118.38 M115.89,122.79
	c0.69-0.54,1.9-1,2.9-1.28c-0.06,0.22-0.09,0.43-0.09,0.63c0,1.94,2.18,2.62,3.34,2.7l0.08-1.02c-0.02,0-2.4-0.21-2.4-1.68
	c0-1.3,2.09-3.68,3.23-4.82c0.4,0.07,0.83,0.12,1.3,0.15c0.7,0.05,1.34,0.05,1.94,0.03c0.94,1.42,1.87,2.89,2.35,3.69
	c-0.03,0.22-0.04,0.48-0.04,0.78c0,1.51-1.86,1.85-1.94,1.86l0.17,1.01c0.93-0.15,2.64-0.91,2.77-2.68
	c0.05-0.01,0.08-0.29,0.07-0.61c1.06,0.79,1.91,1.74,2.55,2.28c0.87,0.73-1.97,2.98-8.03,2.88
	C117.61,126.61,114.79,123.58,115.89,122.79 M119.55,119.87c-0.1,0.15-0.19,0.31-0.27,0.46c-0.53,0.12-1.93,0.47-3.11,1.1l0.81-7.01
	c0.59,0.17,1.03,0.35,1.18,0.52c0.37,0.42,0.89,0.88,1.6,1.29l-0.25,3.41C119.51,119.72,119.53,119.8,119.55,119.87 M108.58,122.67
	l1.9-8.88c0.69-0.07,1.01-0.15,1.18-0.23c0.24-0.02,0.76,0.02,1.41,0.09l-1.41,8.56L108.58,122.67z M108.23,124.29l0.06,0.03
	c0.21,0.48,0.69,1.54,0.68,2.09c0,0.09-0.02,0.19-0.04,0.29l-1.29,0.34L108.23,124.29z M107.29,123.8l-0.76,3.53l-0.58,0.15
	l-0.14,0.01l0.04,0.02l-2.41,0.63l4.83-18.66c0.25,0.04,0.51,0.08,0.79,0.14c-0.22,0.86-1.1,2.85-1.44,3.59l-0.35,0.75l0.83-0.03
	c0.51-0.02,0.94-0.04,1.31-0.06l-1.92,8.95l-1.64,0.24L107.29,123.8z M121.39,129.92c-0.29-0.15-9.99-5.15-12.23-6.31
	c1.41-0.21,3.83-0.56,5.37-0.77c-0.18,0.32-0.26,0.68-0.2,1.07c0.45,2.92,9.18,4.14,9.55,4.19c2.88,0.39,7.21-0.86,8.88-2.15
	c0.5-0.39,0.76-0.77,0.81-1.17c0.11-0.9-1.04-2.13-2.25-3.15c3.41,1.17,8.75,3.01,10.52,3.62
	C138.89,125.92,121.72,129.85,121.39,129.92 M109.35,124.86l11.9,6.14l0.11-0.02c0.02,0.03,0.04,0.06,0.06,0.11
	c0.26,0.41,0.97,1.51,0.96,2.04c-0.01,0.59-0.36,1.52-0.53,1.92c-0.13,0.03-0.22,0.06-0.25,0.07c-0.28-0.16-8.76-4.88-12.31-6.86
	c0.19-0.48,0.44-1.25,0.45-1.84C109.74,125.97,109.56,125.39,109.35,124.86 M122.15,130.8l4.03-0.92l0.06,0.16
	c0.26,0.49,0.85,1.65,0.85,2.23c-0.01,0.57-0.36,1.21-0.54,1.51c-1.43,0.39-2.83,0.77-3.77,1.02c0.17-0.48,0.37-1.14,0.38-1.66
	C123.16,132.5,122.69,131.64,122.15,130.8 M126.7,129.8l-0.02-0.04l1.2-0.27l0.01,0.03c0.26,0.49,0.85,1.65,0.85,2.24
	c0,0.5-0.07,1.08-0.12,1.46c-0.45,0.12-0.91,0.25-1.38,0.37c0.18-0.37,0.36-0.85,0.37-1.32C127.61,131.57,127.01,130.42,126.7,129.8
	 M128.39,129.37l7.62-1.74c0.28,0.57,0.67,1.41,0.67,1.88c0,0.55-0.08,1.19-0.13,1.56c-1.21,0.32-2.63,0.71-4.31,1.16
	c0,0-1.35,0.37-3.09,0.84c0.05-0.38,0.09-0.86,0.1-1.31C129.25,131.08,128.71,130,128.39,129.37 M136.52,127.51l1.54-0.35
	c0.29,0.57,0.69,1.44,0.68,1.91c0,0.49-0.07,1.06-0.12,1.44c-0.47,0.12-0.99,0.26-1.55,0.41c0.05-0.39,0.1-0.92,0.11-1.41
	C137.19,128.97,136.83,128.14,136.52,127.51 M138.57,127.04l4.69-1.07c0.15,0.53,0.35,1.32,0.34,1.81c0,0.47-0.28,1.18-0.48,1.64
	c-0.51,0.06-1.57,0.32-3.96,0.95c0.04-0.37,0.09-0.85,0.09-1.29C139.26,128.52,138.89,127.67,138.57,127.04 M102.33,103.66
	c-0.22-0.01-0.6-0.03-0.69-0.09c-0.2-0.15-0.42-0.57-0.42-0.87c0-0.02,0-0.04,0-0.06c0.01-0.13,0.07-0.17,0.14-0.21
	c0.27-0.06,1.15,0.3,2.19,0.85l-0.21,0.58C103.02,103.7,102.61,103.67,102.33,103.66 M102.99,107.9l1.47-4.12
	c0.21,0.12,0.41,0.25,0.62,0.39c0.02,0.01,0.22,0.18,0.49,0.41l-0.57,1.78c0,0.01,0,0.01,0,0.02L102.99,107.9z M101.18,97.73
	c0.22,0.38,0.3,0.6-0.22,1.17c-0.29,0.32-0.45,0.38-0.65,0.38L101.18,97.73z M109.25,87.32l-4.13,11.46
	c-0.48-0.12-0.79-0.19-0.99-0.2c-0.03-0.07-0.05-0.16-0.05-0.3c0-0.13,0.02-0.3,0.04-0.47L109.25,87.32z M125.11,99.54
	c3.12,0.07,5.16,1.47,6.04,2.22c-2.17,0.61-4.39,1.04-6.53,1.03c-2.1-0.02-4.75-0.42-7.44-0.97
	C118.06,100.85,120.2,99.42,125.11,99.54 M139.43,84.48l6.78,14.05c-0.56-0.17-1.16-0.28-1.79-0.33L139.43,84.48z M151.49,107.08
	c-0.01-0.02-0.02-0.03-0.03-0.04c0.69-1.24,0.45-2.65,0.32-3.44c-0.17-1.01-1.7-3.24-4.17-4.5l-9.4-19.5
	c-0.12-0.25-0.43-0.36-0.68-0.24c-0.06,0.03-0.1,0.07-0.14,0.11c-0.1-0.03-0.21-0.04-0.32,0c-0.26,0.1-0.4,0.39-0.31,0.65
	l6.58,18.09c-0.38,0.02-0.77,0.07-1.18,0.15l-5.71-18.05c-0.09-0.27-0.37-0.42-0.64-0.33c-0.27,0.09-0.42,0.37-0.33,0.64l5.68,17.95
	c-0.47,0.11-0.96,0.24-1.47,0.39l-4.63-18.37c-0.07-0.27-0.35-0.44-0.62-0.37c-0.27,0.07-0.44,0.35-0.37,0.62l4.65,18.42
	c-0.46,0.15-0.92,0.3-1.4,0.47l-3.91-18.74c-0.06-0.28-0.33-0.45-0.6-0.4c-0.28,0.06-0.45,0.33-0.4,0.6l3.94,18.87
	c-0.06,0.02-0.12,0.04-0.19,0.07c-0.53,0.19-1.08,0.37-1.63,0.56l-3.16-19.3c-0.05-0.28-0.31-0.47-0.59-0.42
	c-0.28,0.05-0.47,0.31-0.42,0.59l3.18,19.46c-0.42,0.14-0.83,0.28-1.25,0.4c-0.12-0.12-0.33-0.32-0.61-0.56l-2.23-19.19
	c-0.03-0.28-0.29-0.48-0.57-0.45c-0.28,0.03-0.48,0.29-0.45,0.57l2.12,18.28c-0.51-0.31-1.13-0.63-1.86-0.89l-1.16-17.23
	c-0.02-0.28-0.26-0.49-0.54-0.48c-0.28,0.02-0.49,0.26-0.48,0.54l1.13,16.84c-0.6-0.15-1.26-0.26-1.97-0.31l-0.19-16.44
	c0-0.28-0.23-0.51-0.52-0.51c-0.28,0-0.51,0.23-0.5,0.52l0.19,16.4c-0.94-0.01-1.79,0.04-2.55,0.13l1.34-16.37
	c0.02-0.28-0.19-0.53-0.47-0.55c-0.28-0.02-0.53,0.19-0.55,0.47l-1.36,16.62c-0.89,0.17-1.65,0.4-2.28,0.68l2.36-17.44
	c0.04-0.28-0.16-0.54-0.44-0.57c-0.28-0.04-0.54,0.16-0.57,0.44l-2.47,18.17c-0.77,0.49-1.28,1.02-1.6,1.47l3.04-19.75
	c0.04-0.28-0.15-0.54-0.43-0.58c-0.28-0.04-0.54,0.15-0.58,0.43l-3.03,19.7c-0.61-0.14-1.21-0.28-1.8-0.43l4.17-19.35
	c0.06-0.28-0.12-0.55-0.39-0.61c-0.28-0.06-0.55,0.12-0.61,0.39l-4.17,19.32c-0.44-0.11-0.86-0.22-1.28-0.33l4.78-19.01
	c0.07-0.27-0.1-0.55-0.37-0.62c-0.27-0.07-0.55,0.1-0.62,0.37l-4.78,19c-0.61-0.16-1.2-0.32-1.74-0.47l5.84-18.77
	c0.08-0.27-0.07-0.56-0.34-0.64c-0.27-0.08-0.56,0.07-0.64,0.34l-5.85,18.8c-0.44-0.12-0.84-0.23-1.18-0.32l6.72-18.67
	c0.08-0.22-0.01-0.45-0.19-0.58c-0.05-0.07-0.11-0.14-0.19-0.17c-0.25-0.12-0.56-0.02-0.68,0.23l-6.73,13.79
	c0-0.02,0.01-0.04,0.01-0.06c0.08-0.59,0.11-1.15,0.11-1.69c0-0.53-0.04-1.02-0.1-1.51c0.03-0.03,0.06-0.06,0.09-0.1l5.87-10.47
	c0.14-0.25,0.05-0.56-0.2-0.69c-0.25-0.14-0.56-0.05-0.69,0.2l-5.35,9.54c-0.13-0.49-0.28-0.96-0.45-1.39l5.03-8.4
	c0.14-0.24,0.07-0.56-0.18-0.7c-0.24-0.14-0.56-0.07-0.7,0.18l-4.66,7.79c-0.17-0.33-0.34-0.64-0.52-0.92l4.89-7.35
	c0.16-0.23,0.09-0.55-0.14-0.71c-0.23-0.16-0.55-0.09-0.71,0.14l-4.66,7c-0.5-0.66-0.93-1.1-1.14-1.29c0,0-0.01,0.01-0.01,0.01
	c-0.02-0.02-0.37-0.41-0.39-0.43c0,0-0.65,1.02-0.66,1.04c-0.53,0.91-1.67,2.91-1.67,5.81c0,0.22,0.02,0.43,0.03,0.64l-5.29,7.96
	c-0.15,0.23-0.09,0.55,0.14,0.71c0.23,0.15,0.55,0.09,0.71-0.14L99,91.85c0.12,0.65,0.28,1.23,0.46,1.75l-5.93,9.91
	c-0.14,0.24-0.15,0.57,0.09,0.71c0.24,0.14,0.36,0.55,0.5,0.31l5.81-9.73c0.18,0.39,0.36,0.74,0.51,1.03
	c0.11,0.2,0.22,0.43,0.3,0.61l-1.67,2.98c-0.29,0.14-0.62,0.4-0.99,0.85c-0.95,1.15-1.15,2.27-1.08,3.14
	c-0.01,0.01-0.02,0.02-0.02,0.03l-3.19,5.79c-0.14,0.25-0.05,0.56,0.2,0.69c0.25,0.14-0.07,1.21,0.06,0.96l3.33-6.06
	c0.35,0.77,0.88,1.4,1.43,1.82l-5.02,10.47c-0.12,0.25-0.01,0.56,0.24,0.68c0.25,0.12-0.1,1.45,0.02,1.2l5.65-11.83
	c0.78,0.29,1.73,0.11,2.66-0.52l-8.46,23.66c-0.09,0.27,0.04,0.56,0.31,0.65c0.26,0.09,0.16,1.07,0.26,0.8l8.09-22.61l0.32,0
	c0.41-0.01,0.84-0.02,1.24-0.02l-6.43,20.51l-1.25,0.33l-1.3,0.34l0.63,0.32c0.07,0.16,0.21,0.39,0.39,0.64
	c0.18,0.25,0.48,0.66,0.75,1.07l-1.29,4.17l-0.06,0.02l-0.86,0.15l0.74,0.41l-1.57,5.06c-0.08,0.27,0.07,0.56,0.34,0.64
	c0.27,0.08,0.56-0.07,0.64-0.34l1.52-4.85l3.1,1.7c-0.01,0.03-0.03,0.05-0.04,0.08l-5.02,19.05c-0.07,0.27,0.09,0.55,0.36,0.62
	c0.27,0.07-0.38,3.51-0.31,3.23l5.91-22.48l3.12,1.71c0,0.01-0.01,0.01-0.01,0.02l-5.89,27.52c-0.06,0.28,0.12,0.55,0.39,0.6
	c0.11,0.02,0.21,0,0.31-0.04l5.44,14.47l0.32-0.12l0.02,0.33c0,0,17.58-0.8,18.87-0.86c-0.01,0.05-0.03,0.09-0.03,0.14
	c0,0.09,0.02,0.19,0.08,0.29c0.21,0.39,0.73,0.45,1.66,0.43c2.15-0.05,6.35,0,6.39,0l0.07,0l0.07-0.02c0.12-0.03,0.76-0.24,0.91-0.8
	c0.02-0.07,0.03-0.15,0.03-0.24c0-0.06-0.03-0.14-0.05-0.22c2.25-0.38,12.14-0.66,18.37-0.75l0.7-0.01l-1.93-5.79
	c0.07-0.07,0.11-0.13,0.13-0.15l0.21-0.31l-3.75-4.87c0.19-0.1,0.3-0.31,0.26-0.53l-4.54-27.46c1.24-0.33,2.53-0.69,3.9-1.06
	l5.77,27.17c0.06,0.28,0.33,0.45,0.61,0.39c0.28-0.06,0.45-0.33,0.39-0.61l-5.78-27.23c1.08-0.29,2.21-0.6,3.38-0.92l5.12,19.19
	c0.07,0.27,0.35,0.43,0.62,0.36c0.27-0.07,0.43-0.35,0.36-0.62l-5.12-19.2c0.47-0.13,0.94-0.26,1.43-0.39l0.26-0.07l0.09-0.26
	c0.02-0.07,0.45-1.34,0.71-2.36l1.79,5.76c0.08,0.27,0.37,0.42,0.64,0.33c0.27-0.08,0.42-0.37,0.34-0.64l-10.61-34.16
	c0.49,0.21,1.13,0.32,1.8,0.32c0,0.02,0,0.03,0.01,0.05l8.06,22.18c0.1,0.26,0.39,0.4,0.65,0.31c0.26-0.1,0.4-0.39,0.31-0.65
	l-7.99-21.98c0.74-0.14,1.49-0.4,2.12-0.85c0.14-0.1,0.27-0.2,0.38-0.31l4.69,9.37c0.12,0.25,0.43,0.36,0.68,0.23
	c0.25-0.12,0.36-0.43,0.23-0.68L151.49,107.08z M139.48,78.81c-0.14-0.25-0.45-0.34-0.69-0.2c-0.25,0.14-0.34,0.45-0.2,0.69
	l16.99,30.56c0.14,0.25,0.45,0.34,0.69,0.2c0.25-0.14,0.34-0.45,0.2-0.69L139.48,78.81z M156.57,104.29l-15.83-26.26
	c-0.15-0.24-0.46-0.32-0.7-0.17c-0.24,0.14-0.32,0.46-0.17,0.7l15.83,26.26c0.14,0.24,0.46,0.32,0.7,0.17
	C156.64,104.84,156.72,104.53,156.57,104.29 M71.54,131.21l-5.01,7.54c-0.16,0.24-0.09,0.55,0.14,0.71
	c0.23,0.16,0.55,0.09,0.71-0.14l5.01-7.54c0.16-0.23,0.09-0.55-0.14-0.71C72.01,130.92,71.69,130.98,71.54,131.21"/>
<path d="M16.77,163.34l-1.3-4.33l8.4-7.23l-0.01-0.04l-9.68,2.97l-0.93-3.1l14.28-4.3l1.27,4.22l-8.42,7.39l0.01,0.04l9.73-3.05
	l0.94,3.12L16.77,163.34z M10.72,137.12l0.56,3.5l8.48-1.37c1.94-0.31,3.66-0.11,3.95,1.68c0.29,1.79-1.28,2.52-3.22,2.84
	l-8.48,1.37l0.56,3.5l9.13-1.47c4.03-0.65,5.47-3.27,4.92-6.7c-0.55-3.42-2.74-5.47-6.77-4.82L10.72,137.12z M25.18,133.89
	l-0.03-3.47l-11.45,0.17v-0.04l11.43-3.33l-0.03-3.26l-11.48-3.3v-0.04l11.45-0.04l-0.03-3.47l-14.92,0.12l0.04,5.37l9.94,2.87
	l0,0.04l-9.89,2.9l0.05,5.58L25.18,133.89z M25.37,116.13l1.27-9.5l-2.79-0.37l-0.8,5.99l-3.35-0.45l0.73-5.46l-2.79-0.37
	l-0.73,5.46l-3.05-0.41l0.77-5.78l-2.8-0.37l-1.24,9.3L25.37,116.13z M26.76,105.62l0.82-3.15l-9.89-2.46l0.01-0.04l11.04-1.93
	l1.11-4.26l-14.43-3.76l-0.82,3.13l9.82,2.5l-0.01,0.04l-10.93,1.8l-1.14,4.37L26.76,105.62z"/>
<path d="M27.25,66.13l-2.5,4.43l4.89,2.76l1.85-3.28c0.63-1.11,0.45-1.75-0.71-2.4l0.46-0.81l4.32,2.44l-0.46,0.81
	c-1.17-0.66-1.71-0.62-2.59,0.94L30.83,74l3.91,2.21c0.93,0.53,1.22,0.48,1.55-0.11l1.91-3.38c0.74-1.32,0.71-2.16-0.9-3.58
	l0.43-0.77l3.27,2.17l-6.88,12.19l-0.85-0.48l0.47-0.83c0.66-1.17,0.39-1.86-0.67-2.46l-8.67-4.9c-1.17-0.66-1.79-0.53-2.58,0.86
	l-0.11,0.2l-0.85-0.48l6.3-11.15l3.26,1.58l-0.43,0.77C28.4,65.21,27.77,65.2,27.25,66.13 M47.12,55.42l-0.57,0.73
	c0.74,2.55,1.1,3.42,0.14,4.65l-1.82,2.33c-0.56,0.71-0.89,0.78-1.62,0.21l-8.11-6.32c-0.93-0.72-1.06-1.48-0.32-2.43l0.42-0.53
	l-0.77-0.6l-4.84,6.22l0.77,0.6l0.27-0.35c0.64-0.82,1.38-1.25,2.55-0.34l7.87,6.14c0.96,0.75,1.15,1.45,0.23,2.63l-0.24,0.31
	l0.77,0.6l7.66-9.83L47.12,55.42z M57.23,50.77c-2.42,2.21-6.26,1.35-9.47-2.17c-2.54-2.78-2.76-5.89-0.58-7.88
	c2.61-2.38,6.51-0.87,9.22,2.1C58.72,45.36,59.62,48.6,57.23,50.77 M46.87,39.56c-3.83,3.5-4.19,8.62-0.86,12.27
	c2.83,3.1,7.6,3.71,11.55,0.1c4.11-3.75,3.78-8.83,0.79-12.11C55.2,36.37,50.45,36.28,46.87,39.56 M60.69,32.94l16.06,4.73
	l1.09-0.68l-7.06-11.34c-0.5-0.8-0.28-1.33,0.95-2.09l0.2-0.12l-0.51-0.83l-5.09,3.17l0.51,0.83l0.2-0.12
	c1.58-0.98,2.05-0.89,3,0.63l3.98,6.4l-13.67-4.01l-4.07,2.53l0.51,0.83c0.61-0.38,1.24-0.56,1.87-0.52l6.05,9.73
	c0.54,0.87,0.54,1.52-0.67,2.27l-0.12,0.07l0.51,0.83l4.78-2.97l-0.51-0.83c-1.58,0.98-2.22,0.79-3.02-0.5L60.69,32.94z
	 M94.69,14.91l0.4-0.12c1.38-0.41,2.06,0.22,2.56,1.92l1.73,5.81c0.78,2.63-0.14,4.83-3.06,5.7c-2.03,0.6-4.33,0.2-5.2-2.72
	L89,18.38c-0.35-1.17,0.16-1.82,1.1-2.1l0.38-0.11l-0.28-0.93l-6.98,2.08l0.28,0.93l0.38-0.11c1.25-0.37,1.69-0.03,2.04,1.16
	l2.12,7.13c1.09,3.66,4.19,4.77,8.2,3.57c2.65-0.79,5.96-2.87,4.37-8.2l-1.77-5.96c-0.34-1.15-0.32-2.07,1.46-2.6l0.15-0.05
	l-0.28-0.93l-5.77,1.72L94.69,14.91z M106.79,14.38l12.44,11.21l1.27-0.14l-1.46-13.27c-0.1-0.94,0.32-1.32,1.76-1.47l0.23-0.03
	l-0.11-0.97l-5.96,0.66l0.11,0.97l0.23-0.03c1.85-0.2,2.23,0.08,2.43,1.87l0.82,7.49l-10.59-9.53l-4.76,0.52l0.11,0.97
	c0.72-0.08,1.36,0.03,1.91,0.34l1.25,11.39c0.11,1.02-0.17,1.6-1.58,1.76l-0.14,0.02l0.11,0.97l5.59-0.62l-0.11-0.97
	c-1.85,0.2-2.34-0.25-2.51-1.76L106.79,14.38z M124.23,10.91l0.3,0.01c1.3,0.04,1.7,0.62,1.67,1.92l-0.27,9.98
	c-0.03,1.1-0.51,1.71-1.74,1.68l-0.32-0.01l-0.03,0.97l7.39,0.2l0.03-0.97l-0.35-0.01c-1.42-0.04-1.8-0.65-1.76-1.87l0.27-9.88
	c0.04-1.3,0.56-1.86,1.82-1.82l0.4,0.01l0.03-0.97l-7.39-0.2L124.23,10.91z M140.1,27.04l1.45,0.23l6.71-11.33
	c1.07-1.83,1.68-2.41,3.04-2.19l0.16,0.03l0.15-0.96l-5.83-0.93l-0.15,0.96l0.46,0.07c1.31,0.21,1.75,0.86,1.29,1.65l-4.95,8.41
	l-2.29-8.81c-0.41-1.56,0-2.2,1.93-1.89l0.39,0.06l0.15-0.96l-7.97-1.28l-0.15,0.96l0.16,0.03c1.31,0.21,1.58,0.56,2.06,2.45
	L140.1,27.04z M163.36,18.01c1.02,0.33,1.14,0.95,0.83,2.63l0.84,0.27l0.9-3.51l-12.19-3.96l-0.3,0.93l0.22,0.07
	c1.53,0.49,1.78,1.08,1.36,2.36l-3.07,9.47c-0.38,1.16-1,1.57-2.28,1.15l-0.91-0.29l-0.3,0.93l13.31,4.32l1.48-3.64l-0.84-0.27
	c-1.07,1.86-1.89,2.06-3.33,1.6l-3.69-1.2c-0.64-0.21-0.75-0.48-0.42-1.5l1.39-4.27l3.25,1.06c1.7,0.55,1.85,1.07,1.44,2.36
	l0.88,0.29l1.53-4.72l-0.88-0.29c-0.41,1.26-1,1.57-2.21,1.17l-3.58-1.16l1.73-5.34L163.36,18.01 M174.95,22.18l1.07,0.56
	c2,1.04,3.23,2.75,2.01,5.1c-1.24,2.37-3.1,2.44-5.6,1.13l-0.8-0.42L174.95,22.18z M171.15,29.49l1.63,0.85
	c0.68,1.9,0.67,4.85,1.12,6.5c0.43,1.55,1.27,2.49,3.83,3.83c0.62,0.32,0.82,0.43,1.29,0.64l0.45-0.86
	c-1.23-0.81-1.67-1.38-2.04-2.72c-0.65-2.33-0.46-4.46-1.18-6.39c2.21,0.45,4.03-0.29,4.91-1.97c0.5-0.95,0.63-1.95,0.33-3.04
	c-0.45-1.64-1.88-2.92-4.92-4.51c-0.74-0.39-2.26-1.09-3.46-1.61c-0.88-0.37-1.69-0.74-2.75-1.21l-0.45,0.86l0.43,0.23
	c1.38,0.72,1.33,1.48,0.77,2.54l-4.55,8.74c-0.67,1.28-1.38,1.34-2.64,0.68l-0.33-0.17l-0.45,0.86l7.22,3.76l0.45-0.86l-0.62-0.32
	c-1.17-0.61-1.37-1.34-0.79-2.46L171.15,29.49z M180.4,42.25l0.49,0.36c0.26-0.15,0.46-0.15,0.63-0.03c0.34,0.25,1.23,1.9,2.72,3.01
	c2.22,1.64,5.2,1.3,6.74-0.79c0.71-0.96,1.05-2.05,0.89-3.44c-0.43-3.8-3.28-6.43-1.92-8.28c0.58-0.78,1.81-0.8,2.86-0.03
	c1.44,1.07,1.85,3.01,1.06,4.94l0.75,0.55l2.05-3.51l-0.39-0.29c-0.3,0.06-0.44,0.01-0.57-0.08c-0.28-0.21-1.02-1.56-2.46-2.62
	c-2.22-1.65-4.79-1.46-6.21,0.46c-2.94,3.97,3.14,8.31,0.93,11.3c-0.83,1.12-2.39,1.28-3.62,0.36c-1.48-1.09-1.82-2.93-0.97-5.37
	l-0.73-0.54L180.4,42.25z M199.8,38.92l0.22,0.21c0.96,0.89,0.87,1.59-0.01,2.54l-6.79,7.32c-0.75,0.8-1.51,0.95-2.42,0.11
	l-0.24-0.22l-0.66,0.71l5.42,5.03l0.66-0.71l-0.26-0.24c-1.04-0.96-0.92-1.67-0.09-2.57l6.72-7.25c0.88-0.95,1.65-1.02,2.57-0.17
	l0.29,0.27l0.66-0.71l-5.42-5.03L199.8,38.92z M213.49,53.65l1.75,2.11c1.14,1.38,1.07,1.8-0.66,3.81l0.61,0.73l3.32-3.3l-0.48-0.57
	c-0.53-0.05-0.64-0.11-1.04-0.59l-7.07-8.51c-0.21-0.25-0.31-0.41-0.37-0.57c-0.05-0.14-0.03-0.31-0.01-0.56l-0.48-0.57l-3.86,2.66
	l0.61,0.73c2.32-1.35,2.73-1.33,3.87,0.05l1.75,2.11l-8.75,7.27c-1.02,0.85-1.77,0.8-2.58-0.18l-0.51-0.61l-0.75,0.62l5.35,6.44
	l0.75-0.62l-0.36-0.43c-1.05-1.27-0.85-1.92,0.15-2.75L213.49,53.65z M217.27,73.41l7.67,0.12c1.61,0.03,2.04,0.23,2.81,1.35
	l0.84-0.49l-2.77-4.74l-0.84,0.49l0.14,0.24c0.82,1.4-0.11,1.74-1.3,1.73l-5.28-0.03l2.67-5.87c0.34-0.76,0.95-0.9,1.63,0.26
	l0.14,0.24l0.84-0.49l-3.83-6.54l-0.84,0.49l0.08,0.14c0.59,1,0.53,1.36,0.06,2.42l-3.64,7.92l-3,1.75
	c-0.97,0.57-1.74,0.59-2.44-0.62l-0.29-0.5l-0.84,0.49l4,6.84l0.84-0.49l-0.18-0.3c-0.85-1.45-0.46-2.07,0.57-2.68L217.27,73.41z"/>
<path d="M233.66,89.09l0.99,3.41l-11.49,3.33l1.53,5.27l-2.83,0.82l-2.51-8.68L233.66,89.09z M238.56,110.66l-0.61-3.49l-8.46,1.48
	c-1.94,0.34-3.66,0.16-3.97-1.62c-0.31-1.78,1.25-2.54,3.18-2.88l8.46-1.48l-0.61-3.49l-9.11,1.6c-4.02,0.71-5.42,3.35-4.82,6.77
	c0.6,3.42,2.82,5.43,6.84,4.72L238.56,110.66z M224.22,114.82l0.05,3.47l11.45-0.24v0.04l-11.41,3.41l0.05,3.26l11.5,3.23v0.04
	l-11.45,0.11l0.05,3.47l14.92-0.22L239.3,126l-9.96-2.81l0-0.04l9.87-2.97l-0.08-5.58L224.22,114.82z M224.1,133.3l-1.28,9.5
	l2.79,0.38l0.8-5.99l3.35,0.45l-0.73,5.46l2.79,0.37l0.73-5.46l3.05,0.41l-0.78,5.78l2.8,0.38l1.25-9.3L224.1,133.3z M222.56,144.53
	l-0.85,3.15l9.87,2.54l-0.01,0.04l-11.05,1.84l-1.14,4.25l14.4,3.88l0.84-3.13l-9.79-2.58l0.01-0.04l10.95-1.71l1.17-4.36
	L222.56,144.53z"/>
<path d="M28.24,182.2c-1.25,0.84-1.42,1.48-0.39,3l-0.8,0.54l-3.1-4.62l0.8-0.54l0.08,0.12c0.78,1.16,1.42,1.15,2.26,0.58l9.4-6.31
	c0.03-0.63-0.18-1.24-0.57-1.83l0.8-0.54l2.64,3.93l-3.51,13.64l6.19-4.15c1.48-0.99,1.55-1.45,0.52-2.98l-0.13-0.19l0.8-0.54
	l3.3,4.93l-0.8,0.54l-0.13-0.19c-0.79-1.18-1.32-1.39-2.1-0.86l-10.96,7.35l-0.7-1.05L35.99,177L28.24,182.2z M42.22,203.84
	c-2.24-2.34-1.49-6.15,1.91-9.41c2.69-2.58,5.75-2.88,7.77-0.77c2.42,2.52,1.02,6.41-1.84,9.16
	C47.61,205.17,44.43,206.15,42.22,203.84 M53.05,193.32c-3.55-3.7-8.62-3.92-12.15-0.54c-2.99,2.87-3.47,7.6,0.19,11.42
	c3.8,3.96,8.81,3.52,11.98,0.48C56.4,201.48,56.38,196.79,53.05,193.32 M62.68,203.61l0.96,0.71c1.8,1.32,2.74,3.18,1.2,5.28
	c-1.56,2.13-3.4,1.91-5.64,0.27l-0.72-0.53L62.68,203.61z M57.86,210.17l1.47,1.07c0.38,1.96-0.07,4.84,0.12,6.52
	c0.19,1.57,0.87,2.63,3.17,4.31c0.56,0.41,0.74,0.54,1.16,0.82l0.57-0.78c-1.08-0.97-1.42-1.59-1.59-2.97
	c-0.28-2.38,0.22-4.42-0.2-6.42c2.09,0.77,3.98,0.32,5.09-1.19c0.63-0.86,0.9-1.82,0.77-2.92c-0.2-1.67-1.4-3.14-4.13-5.14
	c-0.67-0.49-2.04-1.41-3.14-2.09c-0.8-0.5-1.54-0.97-2.51-1.59l-0.57,0.78l0.39,0.29c1.24,0.91,1.08,1.64,0.37,2.6l-5.76,7.86
	c-0.85,1.15-1.55,1.1-2.68,0.27l-0.3-0.22l-0.57,0.77l6.49,4.76l0.57-0.78l-0.56-0.41c-1.06-0.77-1.14-1.51-0.4-2.53L57.86,210.17z
	 M79.01,214.64l2.4,1.26c1.57,0.82,1.66,1.24,0.84,3.73l0.83,0.44l1.78-4.28l-0.65-0.34c-0.5,0.16-0.62,0.15-1.17-0.14l-9.68-5.09
	c-0.28-0.15-0.44-0.26-0.56-0.38c-0.1-0.11-0.14-0.27-0.23-0.51l-0.65-0.34l-2.51,3.89l0.83,0.44c1.6-2.11,1.99-2.25,3.55-1.42
	l2.4,1.26l-5.23,9.96c-0.61,1.16-1.31,1.4-2.43,0.81l-0.69-0.36l-0.45,0.85l7.32,3.85l0.45-0.85l-0.49-0.26
	c-1.44-0.76-1.51-1.43-0.91-2.57L79.01,214.64z M92.32,233.95l-0.29,0.92l7.02,2.19l0.29-0.92L99,236.03
	c-1.27-0.4-1.52-1.07-1.14-2.29l2.9-9.33c0.4-1.27,1.06-1.56,2.18-1.21l0.39,0.12l0.29-0.92l-7.02-2.19l-0.29,0.92l0.2,0.06
	c1.27,0.4,1.61,1.02,1.2,2.34l-1.13,3.63l-7.24-2.25l1.15-3.7c0.41-1.32,1.11-1.54,2.25-1.19l0.31,0.09l0.29-0.92l-7.04-2.19
	L86,217.93l0.35,0.11c1.16,0.36,1.48,1.05,1.11,2.23l-2.92,9.37c-0.37,1.18-1.04,1.56-2.16,1.21l-0.37-0.12l-0.29,0.92l7.04,2.19
	l0.29-0.92l-0.33-0.1c-1.23-0.38-1.53-1.04-1.14-2.29l1.32-4.24l7.24,2.25l-1.31,4.19c-0.4,1.27-1.05,1.66-2.21,1.3L92.32,233.95z
	 M122.8,235.34c-1.11,2.16-2.96,3.33-5.06,3.17c-3.28-0.25-5.56-3.5-5.25-7.46c0.3-3.89,2.78-6.37,6.05-6.11
	c2.2,0.17,3.72,1.67,4.26,4.17l0.89,0.07l0.13-4.32l-0.57-0.04c-0.15,0.16-0.29,0.22-0.48,0.21c-0.46-0.04-1.94-1.17-4.32-1.35
	c-4.9-0.38-9.05,2.86-9.4,7.39c-0.35,4.45,3.03,8.23,7.72,8.59c1.72,0.13,2.9-0.22,3.98-0.14c0.53,0.04,0.98,0.13,1.34,0.28
	c0.65-1.24,1.35-3.09,1.63-4.38L122.8,235.34z M133.94,232.15l-4.03,0.29l1.51-5.9L133.94,232.15z M134.57,233.47l1.28,2.78
	c0.55,1.17,0.39,1.85-1.01,1.95l-0.8,0.06l0.07,0.96l7.45-0.54l-0.07-0.96c-1.2-0.01-1.74-0.47-2.45-2.05l-5.48-12.17l-3.39,0.24
	l0.3,0.69l-3.07,12.02c-0.45,1.76-0.98,2.35-2.08,2.42l-0.34,0.03l0.07,0.96l6.08-0.44l-0.07-0.96l-0.3,0.02
	c-2.2,0.16-2.27-0.43-1.94-1.71l0.76-2.95L134.57,233.47z M145.83,222.8l1.16-0.28c2.17-0.53,4.2-0.05,4.81,2.49
	c0.62,2.56-0.73,3.83-3.43,4.49l-0.87,0.21L145.83,222.8z M147.75,230.71l1.76-0.43c1.75,0.97,3.66,3.17,5.06,4.1
	c1.32,0.87,2.57,1.03,5.34,0.35c0.67-0.16,0.89-0.22,1.38-0.36l-0.23-0.94c-1.44,0.2-2.14,0.06-3.29-0.7
	c-2-1.32-3.24-3.02-5.03-3.98c1.93-1.1,2.81-2.84,2.37-4.66c-0.25-1.03-0.81-1.86-1.73-2.47c-1.41-0.93-3.31-0.95-6.59-0.15
	c-0.8,0.2-2.39,0.66-3.62,1.06c-0.9,0.29-1.74,0.55-2.84,0.89l0.23,0.94l0.47-0.11c1.5-0.36,1.95,0.24,2.23,1.39l2.3,9.47
	c0.34,1.39-0.15,1.89-1.52,2.22l-0.36,0.09l0.23,0.94l7.82-1.9l-0.23-0.93l-0.67,0.16c-1.27,0.31-1.89-0.1-2.19-1.32L147.75,230.71z
	 M170.09,229.64c-2.98,1.26-6.28-0.8-8.12-5.14c-1.45-3.43-0.64-6.4,2.05-7.54c3.22-1.36,6.35,1.33,7.9,4.98
	C173.26,225.08,173.04,228.39,170.09,229.64 M164.12,215.77c-4.72,2-6.74,6.66-4.83,11.16c1.62,3.82,5.87,5.95,10.73,3.89
	c5.06-2.14,6.43-6.98,4.71-11.03C172.93,215.54,168.54,213.9,164.12,215.77 M190.28,214.39l-0.78,0.49
	c-0.17,2.62-0.13,3.55-1.44,4.37l-2.47,1.55c-0.76,0.48-1.09,0.42-1.58-0.35l-5.4-8.61c-0.62-0.98-0.49-1.73,0.52-2.37l0.56-0.35
	l-0.51-0.82l-6.6,4.14l0.51,0.82l0.37-0.23c0.88-0.55,1.71-0.69,2.48,0.54l5.25,8.36c0.64,1.02,0.57,1.74-0.67,2.52l-0.33,0.21
	l0.51,0.82l10.43-6.55L190.28,214.39z M184.61,205.82l0.23-0.19c1.01-0.8,1.69-0.61,2.48,0.4l6.1,7.75
	c0.67,0.85,0.69,1.62-0.26,2.38l-0.25,0.2l0.6,0.76l5.74-4.52l-0.59-0.76l-0.27,0.21c-1.1,0.87-1.78,0.64-2.52-0.31l-6.05-7.67
	c-0.79-1.01-0.75-1.77,0.23-2.53l0.31-0.24l-0.6-0.76l-5.74,4.52L184.61,205.82z M196.57,198.61l16.55,0.41l0.86-0.92l-9.64-9.02
	c-0.68-0.64-0.6-1.2,0.37-2.24l0.16-0.17l-0.7-0.66l-4.05,4.33l0.7,0.66l0.16-0.17c1.26-1.34,1.73-1.37,3.02-0.16l5.44,5.09
	l-14.08-0.33l-3.24,3.46l0.7,0.66c0.49-0.52,1.04-0.86,1.65-0.97l8.27,7.74c0.74,0.69,0.9,1.31-0.06,2.34l-0.09,0.1l0.7,0.66
	l3.8-4.06l-0.7-0.66c-1.26,1.34-1.91,1.32-3.01,0.3L196.57,198.61z M215.8,183.33l-2.25,3.37l-3.73-4.81L215.8,183.33z
	 M217.22,183.64l2.98,0.69c1.26,0.29,1.7,0.83,0.92,2l-0.45,0.67l0.8,0.53l4.15-6.21l-0.8-0.53c-0.75,0.94-1.44,1.09-3.12,0.68
	l-12.98-3.13l-1.89,2.83l0.74,0.19l7.61,9.8c1.12,1.44,1.25,2.22,0.64,3.13l-0.19,0.29l0.8,0.53l3.38-5.07l-0.8-0.53l-0.17,0.25
	c-1.22,1.84-1.73,1.53-2.55,0.48l-1.87-2.41L217.22,183.64z"/>
</svg>
