<?xml version="1.0" encoding="utf-8"?>
<!-- Generator: Adobe Illustrator 22.0.1, SVG Export Plug-In . SVG Version: 6.00 Build 0)  -->
<svg version="1.1" id="Layer_1" xmlns="http://www.w3.org/2000/svg" xmlns:xlink="http://www.w3.org/1999/xlink" x="0px" y="0px"
	 width="250.1px" height="250.1px" viewBox="0 0 250.1 250.1" enable-background="new 0 0 250.1 250.1" xml:space="preserve">
<path fill="#FFFFFF" d="M125.05,2.25c-32.8,0-63.63,12.77-86.83,35.97C15.03,61.41,2.25,92.25,2.25,125.05
	c0,32.8,12.77,63.63,35.97,86.82c23.18,23.2,54.02,35.97,86.83,35.97c67.71,0,122.8-55.08,122.8-122.79
	C247.84,57.34,192.76,2.25,125.05,2.25z"/>
<path fill="#B6862C" d="M39.28,210.81c-22.91-22.9-35.53-53.37-35.53-85.76c0-32.4,12.62-62.87,35.53-85.78
	C62.19,16.37,92.65,3.75,125.05,3.75c66.88,0,121.3,54.42,121.3,121.31c0,66.88-54.41,121.29-121.3,121.29
	C92.65,246.34,62.19,233.73,39.28,210.81 M36.66,36.66c-23.61,23.61-36.61,55-36.61,88.39c0,33.38,13,64.77,36.61,88.38
	c23.61,23.6,55,36.61,88.38,36.61s64.78-13.01,88.39-36.61c23.61-23.61,36.62-55,36.62-88.38c0-33.39-13-64.78-36.62-88.4
	c-23.61-23.61-55-36.61-88.39-36.61S60.27,13.05,36.66,36.66 M28.6,125.05c0-53.18,43.27-96.45,96.44-96.45s96.44,43.27,96.44,96.45
	c0,53.18-43.27,96.44-96.44,96.44S28.6,178.23,28.6,125.05 M25.83,125.05c0,54.71,44.51,99.22,99.22,99.22
	c54.71,0,99.22-44.52,99.22-99.22c0-54.71-44.51-99.23-99.22-99.23C70.34,25.83,25.83,70.34,25.83,125.05 M32.02,125.05
	c0-51.3,41.73-93.04,93.03-93.04c51.29,0,93.03,41.74,93.03,93.04c0,51.3-41.74,93.03-93.03,93.03
	C73.75,218.08,32.02,176.35,32.02,125.05 M30.65,125.05c0,52.05,42.35,94.4,94.4,94.4c52.05,0,94.39-42.35,94.39-94.4
	c0-52.06-42.35-94.4-94.39-94.4C73,30.65,30.65,73,30.65,125.05"/>
<path fill="#B6862C" d="M59.33,219.13c-0.41,0.55-0.29,0.89,0.25,1.28l0.76,0.57l-0.46,0.61l-8.22-6.1l2.46-3.71l0.55,0.4
	c-1.58,3.19-0.98,3.83,1.61,5.77c0.83,0.62,1.06,0.7,1.42,0.22l2.46-3.3l-0.5-0.37c-1.2-0.89-2.14-0.78-3.24,0.52l-0.62-0.46
	l3.37-4.53l0.62,0.46c-0.91,1.23-1,2.38,0.08,3.19l0.76,0.56l2.72-3.66c0.29-0.38,0.29-0.73-0.58-1.37l-0.69-0.52l0.46-0.62
	l4.77,3.54l-0.46,0.62l-0.76-0.57c-0.54-0.4-0.89-0.42-1.3,0.13L59.33,219.13z M45.65,209.2l-0.66-0.68
	c-0.47-0.48-0.54-0.82-0.04-1.31l6.56-6.35c0.49-0.47,0.83-0.4,1.3,0.08l0.66,0.68l0.56-0.54l-7.13-7.37l-3.53,2.96l0.48,0.5
	c3.15-2.02,3.86-1.5,6.11,0.82c0.72,0.74,0.84,0.96,0.4,1.38l-6.71,6.49c-0.49,0.47-0.83,0.4-1.3-0.08l-0.66-0.69l-0.56,0.54
	l3.96,4.09L45.65,209.2z M30.63,182.1c2.12-1.44,6.43-2.07,8.67,1.23c2.02,2.95,0.74,6.68-2,8.55c-2.12,1.44-6.42,2.07-8.67-1.23
	C26.61,187.7,27.88,183.97,30.63,182.1 M31.87,183.92c-1.44,0.98-4.6,3.36-2.61,6.29c1.75,2.58,4.73,1.25,6.79-0.15
	c1.44-0.98,4.6-3.36,2.61-6.29C36.91,181.2,33.93,182.52,31.87,183.92 M21.17,177.84l-2.56-5.71c-0.78-1.74-1.06-4.2,1.05-5.15
	c1.76-0.79,3.38,0.31,4.44,2.4l0.03-0.02c-0.47-1.37-0.1-2.49,1.04-3.37l1.27-1c0.97-0.78,1.06-1.06,0.93-1.34
	c-0.19-0.41-0.78-0.31-1.88,0.11l-0.28-0.63c1.88-0.84,3.04-0.55,3.62,0.74c0.42,0.93,0.23,1.95-1.91,3.14
	c-2.04,1.12-2.75,1.99-1.89,3.9l0.4,0.88l4.05-1.81c0.63-0.29,0.68-0.63,0.41-1.25l-0.39-0.86l0.71-0.32l2.33,5.19l-0.71,0.32
	l-0.39-0.87c-0.27-0.6-0.57-0.8-1.19-0.51l-8.33,3.73c-0.63,0.29-0.68,0.63-0.4,1.25l0.38,0.86L21.17,177.84z M24.67,172.13
	c-0.18-0.44-0.34-0.85-0.51-1.23c-1.05-2.34-2.05-2.76-3.65-2.04c-0.71,0.32-1.19,0.63-1.38,1.24c-0.19,0.62,0.06,1.39,0.76,2.96
	c0.37,0.82,0.59,0.94,1.33,0.62L24.67,172.13z M25.76,155.99l-1.54-5.49l-0.75,0.21l0.26,0.91c0.18,0.65,0.08,0.98-0.58,1.16
	l-8.78,2.47c-0.66,0.19-0.92-0.04-1.11-0.68L13,153.66l-0.75,0.21l1.54,5.49l0.75-0.21l-0.26-0.91c-0.18-0.65-0.08-0.98,0.59-1.17
	l8.78-2.47c0.66-0.18,0.92,0.05,1.11,0.69l0.25,0.92L25.76,155.99z M10.32,145.51l-0.7-5.69c-0.3-2.44,0.09-3.97,1.04-5
	c1.07-1.16,2.54-1.88,4.51-2.12c1.65-0.21,3.5,0.15,4.67,1.09c1.33,1.05,1.84,2.25,2.13,4.64l0.68,5.56l-0.77,0.09l-0.12-0.94
	c-0.08-0.67-0.31-0.94-0.99-0.85l-9.06,1.11c-0.68,0.09-0.83,0.39-0.75,1.06l0.12,0.94L10.32,145.51z M20.76,140.42
	c0.6-0.08,0.64-0.33,0.51-1.35c-0.29-2.34-0.66-3.13-1.62-3.69c-1.12-0.66-2.48-0.7-4.37-0.47c-4.21,0.51-5.25,1.94-4.84,5.26
	c0.17,1.35,0.35,1.46,0.95,1.39L20.76,140.42z M20.16,125.86c0.03-0.93-0.42-1.49-1.25-1.86l-10.34-4.71l0.04-0.69L20,114.64
	c0.65-0.23,0.77-0.53,0.82-1.48l0.77,0.04l-0.27,5.26l-0.77-0.04l0.02-0.43c0.05-1.03-0.09-1.35-0.38-1.37
	c-0.15-0.01-0.4,0.05-0.86,0.19l-2.07,0.71l-0.24,4.64l1.33,0.54c0.48,0.19,0.78,0.3,0.97,0.31c0.81,0.04,1-0.67,1.07-1.7l0.77,0.04
	l-0.24,4.54L20.16,125.86z M16.39,117.82l-5.12,1.77l4.92,2.22L16.39,117.82z M24.9,97.01l1.69-5.44l-0.74-0.23l-0.28,0.91
	c-0.2,0.64-0.47,0.87-1.12,0.66l-8.71-2.69c-0.66-0.21-0.75-0.54-0.56-1.18l0.28-0.9l-0.74-0.23l-1.68,5.44l0.74,0.23l0.28-0.9
	c0.2-0.64,0.46-0.87,1.13-0.66l8.71,2.69c0.65,0.21,0.75,0.54,0.56,1.18l-0.28,0.9L24.9,97.01z M21.96,72.7
	c0.85-1.62,1.63-1.42,3.06-0.73l5.46,2.67l-0.02,0.03l-11.3,2l-1.56,3.18l0.69,0.34l0.11-0.23c0.41-0.83,0.66-1.19,1.28-1.31
	l7.43,3.64c1.25,0.61,1.58,1.29,0.95,2.68l0.7,0.34l2.14-4.37l-0.69-0.34c-0.87,1.62-1.48,1.52-2.73,0.9l-6.71-3.29l0.02-0.03
	l12.83-2.21l0.3-0.62l-8.32-4.07c-0.82-0.4-1.3-0.75-1.62-1.15c-0.32-0.4-0.19-1.02,0.12-1.81L23.4,68l-2.13,4.36L21.96,72.7z
	 M39.25,66.31l3.56-4.88l-0.62-0.46l-0.66,0.9c-0.4,0.54-0.72,0.67-1.28,0.26L33,56.86c-0.63-0.46-0.73-0.75-0.35-1.27
	c1.05-1.43,2.65-1.24,5-0.02l0.4-0.55l-4.04-2.61l-6.06,8.31l3.72,3.05l0.4-0.56c-1.88-1.86-2.56-3.33-1.51-4.77
	c0.38-0.53,0.69-0.52,1.32-0.06l7.25,5.29c0.56,0.4,0.54,0.75,0.14,1.29l-0.66,0.9L39.25,66.31z M40.17,46.39l0.68-0.67
	c0.48-0.47,0.82-0.54,1.3-0.04l6.38,6.52c0.48,0.49,0.4,0.83-0.07,1.3l-0.68,0.66l0.54,0.56l7.57-7.4l-2.98-3.52l-0.49,0.48
	c1.77,3.11,1.85,3.54-1.02,6.34c-0.74,0.72-0.96,0.84-1.38,0.41l-3.25-3.32l0.68-0.66c0.96-0.94,2.09-0.67,3.16,0.42l0.56-0.54
	L47.2,42.9l-0.55,0.54c1.12,1.29,1.08,2.24,0.01,3.29l-0.44,0.43l-2.88-2.94c-0.42-0.43-0.3-0.65,0.44-1.37
	c2.42-2.37,3.15-2.86,6.06-0.8l0.49-0.48l-3.28-3l-7.43,7.27L40.17,46.39z M54.41,32.4l5.16-3.56c1.58-1.08,3.94-1.8,5.25,0.1
	c1.1,1.59,0.31,3.38-1.56,4.8l0.02,0.03c1.27-0.71,2.42-0.54,3.5,0.41l1.21,1.07c0.94,0.82,1.23,0.85,1.48,0.67
	c0.37-0.25,0.17-0.83-0.44-1.83l0.57-0.39c1.17,1.7,1.09,2.89-0.08,3.69c-0.84,0.58-1.88,0.58-3.43-1.31
	c-1.48-1.81-2.45-2.35-4.18-1.15l-0.79,0.55l2.52,3.65c0.39,0.57,0.74,0.56,1.29,0.18l0.78-0.54l0.44,0.64l-4.69,3.23L61.02,42
	l0.78-0.54c0.55-0.38,0.69-0.7,0.3-1.27l-5.18-7.51c-0.39-0.57-0.74-0.56-1.29-0.18l-0.78,0.54L54.41,32.4z M60.67,34.81
	c0.4-0.26,0.77-0.49,1.11-0.72c2.11-1.46,2.34-2.52,1.35-3.96c-0.44-0.63-0.83-1.06-1.47-1.13c-0.64-0.08-1.36,0.31-2.77,1.28
	c-0.73,0.51-0.82,0.75-0.36,1.42L60.67,34.81z M79.17,18.92c1.68-0.7,2.17-0.06,2.82,1.39l2.5,5.54l-0.04,0.02l-9.98-5.68
	l-3.23,1.46l0.32,0.71l0.24-0.11c0.85-0.38,1.27-0.5,1.82-0.2l3.4,7.55c0.57,1.27,0.39,2-0.99,2.67l0.32,0.71l4.44-2l-0.32-0.71
	c-1.71,0.69-2.1,0.23-2.68-1.04l-3.07-6.81l0.03-0.01l11.29,6.48l0.63-0.28l-3.81-8.44c-0.38-0.83-0.52-1.41-0.51-1.92
	c0.02-0.52,0.5-0.9,1.24-1.31l-0.32-0.71l-4.42,2L79.17,18.92z M93.56,24.96c0.9-0.24,1.3-0.83,1.41-1.73l1.49-11.26l0.67-0.17
	l7.1,9.75c0.41,0.56,0.73,0.58,1.65,0.35l0.19,0.75l-5.11,1.27l-0.19-0.75l0.42-0.1c1-0.25,1.27-0.47,1.19-0.75
	c-0.03-0.15-0.15-0.37-0.43-0.76l-1.27-1.78l-4.51,1.12l-0.12,1.43c-0.05,0.5-0.06,0.83-0.02,1.01c0.2,0.78,0.94,0.76,1.94,0.53
	l0.18,0.75l-4.41,1.1L93.56,24.96z M100.16,19.01l-3.19-4.38l-0.69,5.35L100.16,19.01z M113.75,21.68l6.02-0.48l-0.06-0.77
	l-1.11,0.09c-0.67,0.06-0.98-0.11-1.03-0.8l-0.71-8.94c-0.06-0.77,0.09-1.04,0.75-1.1c1.76-0.14,2.66,1.21,3.27,3.78l0.68-0.05
	l-0.65-4.77l-10.25,0.81l0.11,4.81l0.68-0.05c0.19-2.64,0.87-4.11,2.63-4.25c0.65-0.05,0.84,0.19,0.9,0.96l0.71,8.94
	c0.06,0.69-0.22,0.9-0.89,0.95l-1.11,0.09L113.75,21.68z M128.7,21.14l5.69,0.35l0.05-0.77l-0.94-0.06
	c-0.67-0.04-0.95-0.25-0.91-0.94l0.56-9.1c0.04-0.69,0.35-0.86,1.01-0.82l0.95,0.06l0.04-0.77l-5.69-0.35l-0.04,0.77l0.94,0.06
	c0.67,0.04,0.96,0.25,0.91,0.94l-0.56,9.1c-0.05,0.69-0.35,0.86-1.02,0.82l-0.95-0.06L128.7,21.14z M154.22,18.64
	c-0.54,2.51-3.24,5.92-7.13,5.08c-3.5-0.76-5.14-4.33-4.44-7.58c0.54-2.51,3.24-5.92,7.14-5.08
	C153.28,11.82,154.92,15.4,154.22,18.64 M152.07,18.18c0.37-1.7,1.02-5.61-2.45-6.36c-3.04-0.66-4.29,2.35-4.82,4.78
	c-0.37,1.7-1.02,5.61,2.45,6.36C150.29,23.62,151.54,20.62,152.07,18.18 M171.42,19.13c1.66,0.75,1.51,1.55,0.9,3.01l-2.35,5.6
	l-0.04-0.02l-2.64-11.17l-3.27-1.37l-0.3,0.71l0.24,0.1c0.86,0.36,1.23,0.59,1.38,1.2l-3.2,7.63c-0.54,1.29-1.2,1.64-2.63,1.1
	l-0.31,0.71l4.49,1.89l0.3-0.71c-1.66-0.78-1.6-1.38-1.06-2.67l2.9-6.89l0.03,0.02l2.94,12.68l0.63,0.27l3.59-8.54
	c0.35-0.84,0.68-1.34,1.06-1.68c0.39-0.35,1.01-0.25,1.81,0.01l0.29-0.71l-4.47-1.88L171.42,19.13z M176.81,33.79
	c0.79,0.49,1.49,0.38,2.23-0.15l9.26-6.58l0.58,0.38l-2.29,11.84c-0.13,0.67,0.07,0.93,0.87,1.45l-0.42,0.65l-4.42-2.88l0.43-0.65
	l0.36,0.23c0.87,0.56,1.21,0.6,1.37,0.36c0.09-0.13,0.16-0.37,0.26-0.84l0.43-2.14l-3.89-2.54l-1.13,0.88
	c-0.41,0.31-0.65,0.52-0.75,0.68c-0.44,0.68,0.08,1.2,0.94,1.78l-0.42,0.65l-3.81-2.48L176.81,33.79z M185.66,34.56l1.04-5.32
	l-4.39,3.14L185.66,34.56z M199.47,36.45l0.7,0.64c0.49,0.46,0.58,0.79,0.12,1.3l-6.18,6.71c-0.46,0.51-0.81,0.45-1.31,0l-0.69-0.64
	l-0.52,0.57l7.55,6.95l3.35-3.16l-0.5-0.47c-3.03,2.2-3.77,1.73-6.15-0.46c-0.76-0.7-0.89-0.91-0.48-1.36l6.32-6.87
	c0.47-0.5,0.81-0.44,1.3,0.01l0.7,0.64l0.53-0.57l-4.19-3.86L199.47,36.45z M224.55,66.17c0.9,1.58,0.33,2.14-1.02,2.97l-4.46,2.75
	c-1.76,1.08-3.68,0.48-4.66-1.1c-0.59-0.96-0.8-1.73-0.63-2.66c0.17-0.97,0.79-1.51,1.96-2.24l5.51-3.39
	c0.58-0.36,0.9-0.21,1.25,0.36l0.5,0.81l0.65-0.4l-3-4.88l-0.66,0.4l0.52,0.84c0.35,0.57,0.34,0.92-0.25,1.28l-6.31,3.89
	c-2.16,1.33-1.88,3.83-0.54,6.03c1.66,2.7,3.89,3.17,6.63,1.48l3.92-2.42c1.35-0.83,2.12-1.1,3.09,0.38l0.66-0.4l-2.52-4.09
	L224.55,66.17z M233.68,85.46c0.6,1.72-0.07,2.17-1.55,2.73l-5.67,2.17l-0.02-0.03l6.25-9.63l-1.26-3.31l-0.73,0.28l0.1,0.24
	c0.33,0.87,0.42,1.29,0.09,1.83l-7.73,2.95c-1.31,0.5-2.02,0.27-2.61-1.14l-0.73,0.27l1.74,4.55l0.72-0.28
	c-0.59-1.74-0.1-2.12,1.2-2.61l6.98-2.66l0.01,0.03l-7.14,10.89l0.25,0.64l8.65-3.31c0.85-0.33,1.43-0.44,1.94-0.39
	c0.52,0.04,0.87,0.55,1.24,1.31l0.72-0.27l-1.73-4.54L233.68,85.46z M226.11,100.51l1.18,5.57l0.76-0.15l-0.2-0.93
	c-0.13-0.66-0.01-0.98,0.66-1.12l8.92-1.9c0.67-0.15,0.92,0.1,1.06,0.75l0.2,0.93l0.75-0.16l-1.19-5.57l-0.76,0.16l0.2,0.93
	c0.14,0.65,0.01,0.98-0.65,1.13l-8.92,1.9c-0.67,0.15-0.92-0.1-1.06-0.76l-0.2-0.93L226.11,100.51z M240,111.32
	c0.08,1.26,0.04,1.35-1.1,1.88l-10.32,4.89l0.04,0.69l10.46,3.32c1.27,0.4,1.64,0.67,1.72,1.89l0.77-0.05l-0.29-4.6l-0.77,0.05
	c0.04,0.65,0.04,1.76-0.77,1.81c-0.34,0.02-0.64-0.03-1.44-0.27l-6.96-2.13l7.62-3.57c0.24-0.12,0.55-0.25,0.77-0.27
	c0.33-0.02,0.5,0.23,0.53,0.83l0.06,0.87l0.77-0.05l-0.34-5.34L240,111.32z M240.58,131.8l-0.1,0.94c-0.07,0.67-0.29,0.94-0.98,0.87
	l-9.07-0.97c-0.68-0.08-0.84-0.38-0.77-1.05l0.1-0.94l-0.77-0.08l-1.13,10.53l4.54,0.81l0.07-0.68c-3.35-1.28-3.68-1.56-3.25-5.54
	c0.11-1.03,0.2-1.26,0.8-1.2l4.62,0.5l-0.1,0.94c-0.14,1.34-1.19,1.85-2.71,1.69l-0.08,0.77l5.62,0.6l0.08-0.77
	c-1.68-0.28-2.26-1.04-2.1-2.52l0.07-0.62l4.09,0.43c0.6,0.07,0.64,0.32,0.54,1.34c-0.36,3.37-0.6,4.21-4.17,4.47l-0.07,0.69
	l4.44,0.23l1.1-10.33L240.58,131.8z M238.49,151.68l-1.73,6.02c-0.53,1.84-1.9,3.89-4.12,3.26c-1.86-0.54-2.39-2.43-1.84-4.7
	l-0.03-0.01c-0.53,1.35-1.54,1.96-2.96,1.91l-1.62-0.05c-1.24-0.04-1.49,0.13-1.57,0.43c-0.13,0.43,0.4,0.74,1.5,1.13l-0.19,0.66
	c-1.98-0.57-2.67-1.54-2.29-2.89c0.29-0.98,1.08-1.65,3.49-1.17c2.29,0.46,3.38,0.26,3.96-1.77l0.27-0.92l-4.27-1.23
	c-0.67-0.19-0.93,0.04-1.12,0.69l-0.26,0.91l-0.74-0.21l1.57-5.48l0.75,0.21l-0.27,0.91c-0.18,0.65-0.08,0.98,0.58,1.17l8.77,2.51
	c0.67,0.19,0.93-0.04,1.11-0.69l0.26-0.91L238.49,151.68z M232.13,153.79c-0.15,0.46-0.28,0.87-0.4,1.26
	c-0.71,2.47-0.21,3.43,1.47,3.92c0.75,0.21,1.32,0.29,1.86-0.06c0.55-0.35,0.86-1.1,1.33-2.75c0.25-0.86,0.15-1.1-0.63-1.32
	L232.13,153.79z M228.2,176.93c1.16-0.48,1.92-1.22,2.45-2.34c0.96-2.01,0.47-3.95-1.61-4.94c-1.74-0.83-3.09-0.16-4.42,1.44
	l-1.86,2.2c-0.79,0.94-1.59,1.07-2.49,0.64c-1.45-0.69-1.79-2.09-1.05-3.64c0.92-1.94,2.99-2.84,5.71-2.1l0.23-0.62l-4.43-2.04
	l-0.24,0.52l0.78,1.23c-1.15,0.5-2.13,1.4-2.74,2.67c-1.16,2.44-0.34,4.51,1.51,5.4c1.64,0.78,3.2,0.49,4.53-1.05l1.82-2.1
	c1.1-1.27,1.98-1.35,2.75-0.98c0.92,0.43,1.52,1.56,0.8,3.09c-0.94,1.99-3.19,2.29-5.12,1.92l-0.3,0.62l4.11,1.73l0.26-0.55
	L228.2,176.93z M213.38,179.91l-3.14,4.75l0.65,0.43l0.52-0.79c0.37-0.56,0.69-0.7,1.27-0.32l7.6,5.03
	c0.58,0.38,0.58,0.73,0.21,1.29l-0.52,0.79l0.65,0.42l3.14-4.75l-0.64-0.43l-0.53,0.79c-0.37,0.56-0.69,0.7-1.26,0.32l-7.61-5.03
	c-0.58-0.38-0.58-0.73-0.21-1.29l0.52-0.79L213.38,179.91z M204.8,191.76l-4.02,4.52l0.58,0.51l0.74-0.84
	c0.44-0.5,0.79-0.59,1.29-0.13l6.71,5.96c0.58,0.51,0.65,0.81,0.23,1.29c-1.18,1.33-2.76,0.99-4.98-0.45l-0.46,0.52l3.77,2.98
	l6.82-7.68l-3.41-3.39l-0.46,0.51c1.69,2.03,2.22,3.56,1.05,4.88c-0.44,0.49-0.75,0.45-1.33-0.06l-6.7-5.96
	c-0.52-0.46-0.47-0.81-0.02-1.31l0.74-0.84L204.8,191.76z M196.58,215.86c-1.05,0.84-1.48,0.97-1.83,0.54
	c-0.27-0.33-0.37-0.7-0.48-1.36l-0.66-3.96l5.1,1.75c0.42,0.15,0.54,0.24,0.65,0.38c0.13,0.17,0.07,0.35-0.28,0.64l-0.85,0.67
	l0.49,0.6l4.28-3.46l-0.48-0.61l-0.33,0.26c-0.6,0.49-0.93,0.47-1.91,0.13l-6.26-2.13l-1.96-2.42c-0.58-0.71-0.63-0.87,0.13-1.48
	l0.75-0.61l-0.49-0.6l-4.57,3.69l0.49,0.61l0.75-0.61c0.77-0.62,0.9-0.52,1.47,0.18l2.06,2.54l0.94,5.52
	c0.21,1.25,0.17,1.92-0.81,2.79l0.49,0.6l3.77-3.05L196.58,215.86z M92.45,233.2l-0.03-0.01l-0.45-9.88l-4.22-1.27l-0.22,0.74
	l0.94,0.28c0.64,0.19,0.87,0.46,0.67,1.12l-2.07,6.86c-0.7,2.3-1.18,2.46-2.68,2.15l-0.23,0.75l4.6,1.39l0.23-0.75
	c-1.73-0.57-1.67-1.38-1.21-2.9l2.42-8.01l0.04,0.01l0.57,12.25l0.5,0.16l7.12-9.93l0.04,0.01l-2.87,9.5
	c-0.2,0.65-0.54,0.75-1.18,0.56l-0.91-0.28l-0.22,0.75l5.49,1.66l0.23-0.74l-0.94-0.29c-0.64-0.19-0.87-0.46-0.67-1.11l2.64-8.74
	c0.19-0.65,0.54-0.75,1.17-0.56l0.94,0.29l0.23-0.75l-4.19-1.27L92.45,233.2z M107.11,239.74l5.65,0.74l0.1-0.77l-0.94-0.12
	c-0.66-0.09-0.93-0.31-0.84-1l1.17-9.05c0.09-0.68,0.4-0.83,1.07-0.75l0.94,0.12l0.1-0.77l-5.65-0.73l-0.1,0.77l0.94,0.12
	c0.67,0.09,0.93,0.31,0.85,1l-1.18,9.04c-0.09,0.67-0.4,0.83-1.07,0.75l-0.94-0.12L107.11,239.74z M120.44,240.39
	c0.94-0.03,1.46-0.52,1.77-1.37l4-10.63l0.69-0.01l4.72,11.1c0.26,0.64,0.58,0.73,1.52,0.72l0.01,0.78l-5.26,0.08l-0.01-0.78h0.43
	c1.03-0.02,1.35-0.18,1.33-0.48c0-0.15-0.07-0.39-0.25-0.83l-0.84-2.02l-4.64,0.08l-0.44,1.36c-0.17,0.48-0.25,0.8-0.25,0.99
	c0.02,0.81,0.74,0.96,1.77,0.96l0.01,0.77l-4.54,0.08L120.44,240.39z M128.21,236.08l-2.11-4.99l-1.88,5.05L128.21,236.08z
	 M147.99,235.63l-0.03,0.01l-5.1-8.47l-4.32,0.88l0.16,0.76l0.95-0.19c0.66-0.14,0.99-0.01,1.13,0.67l1.44,7
	c0.48,2.37,0.13,2.73-1.33,3.18l0.15,0.76l4.7-0.97l-0.15-0.75c-1.8,0.31-2.13-0.42-2.45-1.98l-1.69-8.19l0.04-0.02l6.34,10.51
	l0.51-0.11l1.53-12.12l0.04-0.01l2,9.71c0.13,0.68-0.11,0.92-0.77,1.06l-0.93,0.18l0.16,0.76l5.61-1.15l-0.15-0.75l-0.96,0.19
	c-0.65,0.14-0.99,0.01-1.13-0.67l-1.83-8.93c-0.14-0.67,0.12-0.92,0.77-1.06l0.96-0.19l-0.15-0.75l-4.29,0.88L147.99,235.63z
	 M164,234.41l5.31-2.04l-0.27-0.73l-0.88,0.34c-0.63,0.23-0.97,0.17-1.22-0.47l-3.27-8.52c-0.25-0.65-0.04-0.93,0.58-1.17l0.88-0.33
	l-0.28-0.73l-5.32,2.04l0.28,0.73l0.89-0.34c0.63-0.25,0.96-0.17,1.22,0.47l3.27,8.51c0.25,0.65,0.04,0.93-0.59,1.17l-0.88,0.33
	L164,234.41z M77.16,223.88c0.46-1.09-0.03-2.33-1.14-2.8c-1.12-0.47-2.36,0.05-2.8,1.15c-0.46,1.1,0.03,2.34,1.14,2.79
	C75.47,225.49,76.71,224.97,77.16,223.88 M182.03,219.57c-0.5-1.08-1.74-1.56-2.83-1.06c-1.12,0.51-1.56,1.77-1.06,2.84
	c0.5,1.09,1.74,1.56,2.83,1.06C182.07,221.9,182.53,220.64,182.03,219.57"/>
<path fill="#B6862C" d="M84.85,189.1c-0.04-0.01-1.56-0.67-3.95-2.15c0.28-1.24,0.69-5.52,0.37-9.74c-0.38-4.99-1.85-9.9-2.05-9.89
	c-0.26,0.02-0.89,5.1-0.5,10.09c0.31,3.92,1.23,7.78,1.75,9.27c-1.25-0.8-2.72-1.81-4.32-3.05c0.34-0.93,1.09-5.4,1.03-9.87
	c-0.08-5.01-1.23-10-1.43-10c-0.26,0-1.2,5.03-1.13,10.04c0.07,4.16,0.83,8.31,1.24,9.6c-1.3-1.02-2.67-2.18-4.1-3.51
	c0.4-1.13,1.27-5.41,1.37-9.7c0.12-5.02-0.84-10.05-1.05-10.06c-0.26,0-1.4,4.98-1.52,9.99c-0.09,3.92,0.44,7.87,0.8,9.39
	c-1.21-1.15-2.44-2.41-3.69-3.8c0.4-0.87,1.52-5.29,1.81-9.77c0.32-5-0.43-10.07-0.64-10.08c-0.26-0.02-1.6,4.92-1.92,9.92
	c-0.26,4.09,0.16,8.23,0.46,9.6c-0.52-0.59-1.04-1.19-1.56-1.83c-0.75-0.91-1.52-1.89-2.28-2.94c0.52-1.07,1.87-5.23,2.45-9.49
	c0.68-4.97,0.3-10.08,0.1-10.11c-0.27-0.04-1.96,4.79-2.63,9.75c-0.53,3.83-0.45,7.73-0.27,9.35c-1-1.4-2.01-2.9-3-4.54
	c0.62-1.32,1.97-5.2,2.66-9.19c0.85-4.94,0.63-10.06,0.43-10.1c-0.26-0.05-2.11,4.73-2.95,9.66c-0.59,3.44-0.69,6.97-0.61,8.81
	c-1.01-1.72-2-3.56-2.95-5.54c0.66-1.13,2.34-5.04,3.31-9.11c1.17-4.88,1.28-10,1.08-10.06c-0.26-0.05-2.41,4.59-3.57,9.46
	c-0.84,3.52-1.17,7.17-1.18,8.94c-0.75-1.61-1.48-3.3-2.16-5.08c0.67-1.28,2.12-4.82,2.97-8.51c1.07-4.64,1.13-9.51,0.94-9.55
	c-0.24-0.06-2.25,4.37-3.31,9.01c-0.69,2.99-0.98,6.06-1.04,7.88c-0.68-1.87-1.33-3.82-1.92-5.88c0.63-1.09,2.16-4.52,3.08-8.09
	c1.12-4.36,1.31-8.98,1.13-9.02c-0.23-0.06-2.24,4.08-3.36,8.45c-0.73,2.86-1.09,5.8-1.18,7.52c-0.55-2.01-1.04-4.1-1.48-6.29
	c0.63-1.11,2.05-4.25,2.92-7.53c1.09-4.12,1.29-8.47,1.13-8.52c-0.21-0.05-2.14,3.85-3.23,7.96c-0.63,2.37-0.98,4.83-1.12,6.48
	c-0.42-2.27-0.76-4.63-1.03-7.1c0.54-0.98,1.83-4.05,2.58-7.25c0.91-3.9,0.98-8,0.83-8.04c-0.21-0.04-1.91,3.67-2.82,7.58
	c-0.44,1.91-0.7,3.86-0.82,5.37c-0.16-1.83-0.29-3.7-0.36-5.63c0.25-1.54,0.5-3.69,0.5-5.85c0-4.01-0.87-8.02-1.02-8.02
	c-0.21,0-1.02,4.01-1.02,8.02c0,2.58,0.33,5.14,0.63,6.66c0.1,2.08,0.24,4.11,0.43,6.08c-0.35-1.46-1.14-4.08-2.29-6.54
	c-1.69-3.63-4.16-6.91-4.31-6.84c-0.19,0.09,0.76,4.07,2.46,7.7c1.6,3.44,3.85,6.57,4.25,6.82c0.27,2.41,0.6,4.72,0.99,6.94
	c-0.55-1.42-1.86-4.2-3.55-6.73c-2.36-3.54-5.49-6.58-5.63-6.48c-0.19,0.12,1.46,4.14,3.83,7.68c2.18,3.27,4.97,6.13,5.54,6.45
	c0.43,2.29,0.93,4.5,1.49,6.61c-0.69-1.4-2.38-4.29-4.47-6.87c-2.84-3.5-6.43-6.39-6.58-6.28c-0.19,0.15,1.95,4.23,4.79,7.73
	c2.63,3.24,5.87,5.98,6.48,6.25c0.57,2.08,1.19,4.06,1.86,5.95c-0.99-1.56-2.76-4-4.81-6.17c-3.27-3.46-7.28-6.22-7.42-6.09
	c-0.18,0.17,2.38,4.3,5.65,7.76c2.81,2.98,6.12,5.46,7.12,5.99c0.63,1.67,1.29,3.27,1.98,4.8c-1.19-1.51-3.39-3.95-5.89-6.06
	c-3.82-3.24-8.35-5.65-8.48-5.5c-0.17,0.2,3,4.22,6.82,7.46c3.28,2.78,7.04,4.98,8.15,5.43c0.82,1.72,1.66,3.35,2.52,4.88
	c-1.29-1.37-3.78-3.69-6.55-5.63c-4.1-2.87-8.83-4.86-8.94-4.69c-0.15,0.21,3.37,3.92,7.48,6.8c3.58,2.5,7.6,4.38,8.67,4.67
	c0.9,1.55,1.83,2.99,2.75,4.34c-1.27-1.15-4.25-3.46-7.5-5.27c-4.38-2.43-9.29-3.91-9.39-3.74c-0.13,0.23,3.77,3.55,8.15,5.98
	c4.02,2.23,8.45,3.7,9.25,3.75c1.03,1.45,2.05,2.79,3.06,4.02c0.03,0.05,0.07,0.08,0.11,0.13c-1.59-1.05-4.48-2.71-7.56-3.96
	c-4.64-1.87-9.69-2.75-9.77-2.56c-0.1,0.25,4.17,3.06,8.81,4.94c3.9,1.58,8.08,2.5,9.37,2.59c1.12,1.31,2.23,2.5,3.34,3.61
	c-1.65-0.89-4.77-2.31-8.02-3.27c-4.81-1.42-9.92-1.81-9.98-1.62c-0.07,0.25,4.44,2.65,9.25,4.07c4.09,1.21,8.39,1.71,9.62,1.68
	c1.09,1.05,2.15,2,3.18,2.88c-1.84-0.63-4.46-1.37-7.13-1.82c-4.94-0.83-10.06-0.59-10.1-0.39c-0.04,0.26,4.73,2.09,9.67,2.92
	c3.63,0.6,7.36,0.66,9.1,0.56c1.21,0.95,2.35,1.79,3.4,2.5c-1.89-0.51-4.7-1.1-7.53-1.35c-4.99-0.45-10.08,0.17-10.1,0.38
	c-0.02,0.26,4.88,1.72,9.87,2.17c3.84,0.34,7.73,0.1,9.34-0.17c2.69,1.7,4.43,2.45,4.47,2.47L84.85,189.1z"/>
<path fill="#B6862C" d="M165.18,189.1c0.04-0.01,1.56-0.67,3.94-2.15c-0.27-1.24-0.69-5.52-0.36-9.74c0.38-4.99,1.84-9.9,2.05-9.89
	c0.26,0.02,0.89,5.1,0.5,10.09c-0.3,3.92-1.23,7.78-1.74,9.27c1.25-0.8,2.71-1.81,4.31-3.05c-0.33-0.93-1.1-5.4-1.02-9.87
	c0.07-5.01,1.23-10,1.42-10c0.27,0,1.21,5.03,1.13,10.04c-0.06,4.16-0.82,8.31-1.23,9.6c1.29-1.02,2.66-2.18,4.08-3.51
	c-0.4-1.13-1.26-5.41-1.36-9.7c-0.12-5.02,0.83-10.05,1.04-10.06c0.26,0,1.4,4.98,1.52,9.99c0.09,3.92-0.44,7.87-0.8,9.39
	c1.2-1.15,2.44-2.41,3.69-3.8c-0.4-0.87-1.52-5.29-1.81-9.77c-0.32-5,0.43-10.07,0.63-10.08c0.26-0.02,1.6,4.92,1.92,9.92
	c0.27,4.09-0.16,8.23-0.46,9.6c0.52-0.59,1.04-1.19,1.56-1.83c0.75-0.91,1.52-1.89,2.28-2.94c-0.52-1.07-1.87-5.23-2.44-9.49
	c-0.68-4.97-0.3-10.08-0.1-10.11c0.26-0.04,1.94,4.79,2.63,9.75c0.52,3.83,0.45,7.73,0.27,9.35c1.01-1.4,2.02-2.9,3-4.54
	c-0.62-1.32-1.98-5.2-2.66-9.19c-0.85-4.94-0.63-10.06-0.43-10.1c0.25-0.05,2.11,4.73,2.95,9.66c0.6,3.44,0.69,6.97,0.61,8.81
	c1.01-1.72,2-3.56,2.95-5.54c-0.66-1.13-2.34-5.04-3.31-9.11c-1.17-4.88-1.28-10-1.08-10.06c0.25-0.05,2.41,4.59,3.57,9.46
	c0.83,3.52,1.16,7.17,1.17,8.94c0.75-1.61,1.48-3.3,2.17-5.08c-0.67-1.28-2.12-4.82-2.97-8.51c-1.06-4.64-1.13-9.51-0.94-9.55
	c0.25-0.06,2.25,4.37,3.32,9.01c0.68,2.99,0.97,6.06,1.03,7.88c0.69-1.87,1.33-3.82,1.92-5.88c-0.63-1.09-2.16-4.52-3.09-8.09
	c-1.11-4.36-1.3-8.98-1.12-9.02c0.23-0.06,2.24,4.08,3.36,8.45c0.74,2.86,1.09,5.8,1.18,7.52c0.55-2.01,1.04-4.1,1.48-6.29
	c-0.64-1.11-2.05-4.25-2.92-7.53c-1.09-4.12-1.3-8.47-1.13-8.52c0.21-0.05,2.15,3.85,3.23,7.96c0.63,2.37,0.98,4.83,1.13,6.48
	c0.41-2.27,0.76-4.63,1.03-7.1c-0.54-0.98-1.83-4.05-2.58-7.25c-0.91-3.9-0.98-8-0.83-8.04c0.21-0.04,1.91,3.67,2.82,7.58
	c0.44,1.91,0.7,3.86,0.82,5.37c0.16-1.83,0.29-3.7,0.36-5.63c-0.25-1.54-0.5-3.69-0.5-5.85c0-4.01,0.87-8.02,1.02-8.02
	c0.21,0,1.02,4.01,1.02,8.02c0,2.58-0.33,5.14-0.63,6.66c-0.1,2.08-0.24,4.11-0.43,6.08c0.35-1.46,1.14-4.08,2.28-6.54
	c1.69-3.63,4.17-6.91,4.31-6.84c0.19,0.09-0.76,4.07-2.46,7.7c-1.6,3.44-3.85,6.57-4.26,6.82c-0.26,2.41-0.59,4.72-0.99,6.94
	c0.55-1.42,1.86-4.2,3.56-6.73c2.37-3.54,5.49-6.58,5.63-6.48c0.19,0.12-1.46,4.14-3.83,7.68c-2.18,3.27-4.97,6.13-5.54,6.45
	c-0.44,2.29-0.94,4.5-1.49,6.61c0.68-1.4,2.38-4.29,4.46-6.87c2.84-3.5,6.44-6.39,6.58-6.28c0.18,0.15-1.95,4.23-4.79,7.73
	c-2.63,3.24-5.86,5.98-6.47,6.25c-0.57,2.08-1.2,4.06-1.87,5.95c0.99-1.56,2.76-4,4.81-6.17c3.27-3.46,7.28-6.22,7.42-6.09
	c0.19,0.17-2.38,4.3-5.65,7.76c-2.8,2.98-6.12,5.46-7.12,5.99c-0.63,1.67-1.29,3.27-1.97,4.8c1.19-1.51,3.39-3.95,5.88-6.06
	c3.82-3.24,8.35-5.65,8.47-5.5c0.17,0.2-2.99,4.22-6.81,7.46c-3.28,2.78-7.04,4.98-8.15,5.43c-0.81,1.72-1.66,3.35-2.52,4.88
	c1.29-1.37,3.79-3.69,6.55-5.63c4.1-2.87,8.83-4.86,8.95-4.69c0.15,0.21-3.38,3.92-7.48,6.8c-3.58,2.5-7.6,4.38-8.67,4.67
	c-0.9,1.55-1.83,2.99-2.75,4.34c1.27-1.15,4.24-3.46,7.5-5.27c4.38-2.43,9.29-3.91,9.39-3.74c0.13,0.23-3.77,3.55-8.15,5.98
	c-4.03,2.23-8.45,3.7-9.25,3.75c-1.03,1.45-2.05,2.79-3.05,4.02c-0.04,0.05-0.08,0.08-0.12,0.13c1.59-1.05,4.48-2.71,7.56-3.96
	c4.65-1.87,9.7-2.75,9.78-2.56c0.1,0.25-4.17,3.06-8.82,4.94c-3.9,1.58-8.08,2.5-9.37,2.59c-1.11,1.31-2.23,2.5-3.34,3.61
	c1.65-0.89,4.77-2.31,8.02-3.27c4.81-1.42,9.92-1.81,9.97-1.62c0.08,0.25-4.44,2.65-9.25,4.07c-4.09,1.21-8.39,1.71-9.62,1.68
	c-1.09,1.05-2.15,2-3.18,2.88c1.84-0.63,4.46-1.37,7.12-1.82c4.94-0.83,10.07-0.59,10.1-0.39c0.05,0.26-4.73,2.09-9.67,2.92
	c-3.63,0.6-7.36,0.66-9.1,0.56c-1.21,0.95-2.35,1.79-3.4,2.5c1.88-0.51,4.7-1.1,7.54-1.35c4.99-0.45,10.08,0.17,10.1,0.38
	c0.02,0.26-4.88,1.72-9.87,2.17c-3.85,0.34-7.73,0.1-9.34-0.17c-2.69,1.7-4.43,2.45-4.47,2.47L165.18,189.1z"/>
<path fill="#B6862C" d="M159.93,162.86c-0.22,0.12-0.44,0.22-0.67,0.33c-0.08,0.03-0.16,0.06-0.25,0.1
	c-4.74,2.08-10,2.23-14.85,0.41c-4.94-1.85-8.86-5.52-11.04-10.31c-2.18-4.8-2.37-10.15-0.51-15.1c0.8-2.14,1.94-4.1,3.37-5.79
	c0.01,0,0.01-0.01,0.02-0.01c0.12-0.14,0.23-0.27,0.35-0.4c0.04-0.05,0.08-0.08,0.12-0.12c1.79-1.97,3.97-3.58,6.46-4.72
	c4.8-2.19,10.16-2.37,15.1-0.51c4.93,1.85,8.85,5.51,11.04,10.31c2.18,4.8,2.37,10.16,0.52,15.1
	C167.82,156.85,164.41,160.63,159.93,162.86 M126.26,121.36v72.46c29.64-8.58,53.29-36.5,61.87-72.46H126.26z M157.13,129.82
	c1.66,1.11,3.21,2.53,4.59,4.2c0.44-1.4,0.42-2.67-0.09-3.77c-0.15-0.37-0.38-0.71-0.65-1.02l0.02-0.02
	c-1.04-0.63-2.13-1.17-3.3-1.62c-0.58-0.21-1.16-0.4-1.75-0.56c0.36,0.33,0.65,0.72,0.85,1.15
	C157.04,128.69,157.14,129.24,157.13,129.82 M146.22,160.9c2.06,0.1,4.18-0.1,6.3-0.59c-1.26-1.48-2.55-3.29-3.78-5.34
	c-2.85,0.65-5.62,0.86-8.17,0.62C142.2,157.79,144.14,159.59,146.22,160.9 M146.03,143.26c-0.3-0.02-0.56,0.05-1.13-0.36
	c-0.39-0.28-0.74-0.65-1.06-1.04c0.43,1.4,0.95,2.84,1.53,4.3c1.71-0.4,3.46-1,5.19-1.78c-0.08-0.04-0.17-0.1-0.27-0.19
	c-0.39-0.34-0.05-0.38-0.73-0.44c-0.67-0.06-0.84,0.06-1.54,0.13c-0.7,0.07-0.86-0.21-1.23-0.43
	C146.45,143.23,146.32,143.29,146.03,143.26 M149.28,133.06c-0.2,0-0.25-0.2-0.33-0.44c-0.31,0.26-0.64,0.52-1,0.76
	c0.26,0.33,0.44,0.68,0.44,0.68s0.04,0.44,0.35,0.54c0.31,0.11,0.3-0.35,0.3-0.35s-0.13-0.16,0.29-0.41
	c0.25-0.15,0.83-0.22,1.25-0.25c-0.15-0.19-0.31-0.38-0.46-0.57C149.86,132.95,149.58,133.05,149.28,133.06 M157.2,158.73
	c1.08-0.5,2.1-1.06,3.08-1.67c-0.12-0.34-0.08-0.82-0.08-0.82l-0.21-2.02c0,0-0.21-0.93-0.34-1.35c-0.13-0.43-1-2.09-1-2.09
	l-0.01-0.02c-1.27,0.82-2.62,1.57-4.06,2.22c-1.62,0.74-3.27,1.32-4.91,1.76c1.27,2.07,2.58,3.87,3.86,5.32
	C154.76,159.71,156,159.27,157.2,158.73 M161.33,135.03c-1.3-1.63-2.78-3.04-4.36-4.15c-0.43,1.64-1.7,3.41-3.6,5.01
	c1,1.54,1.99,3.23,2.92,5.06C158.63,139.13,160.4,137.07,161.33,135.03 M166.14,151.78c0.36-2.44,0.22-5.03-0.39-7.61
	c-0.59,0.83-1.27,1.65-2.02,2.43c-0.13,0.19-0.22,0.35-0.21,0.4c0.02,0.2,0.18,0.54,0.33,0.87c0.17,0.34,0.21,1.07,0.21,1.07
	s-0.4,1.05-0.74,1.94c-0.34,0.89-1.18,3.08-1.18,3.08s-0.14,1.16-0.09,1.82C163.6,154.6,164.98,153.25,166.14,151.78 M164.47,144.37
	c0.35-0.44,0.68-0.9,0.98-1.35c-0.32-1.1-0.73-2.2-1.22-3.27c-0.65-1.4-1.42-2.71-2.29-3.9c-1.05,2.06-2.88,4.12-5.23,5.94
	c0.27,0.54,0.53,1.1,0.79,1.66c0.17-0.04,0.32-0.08,0.43-0.1c0.47-0.13,1.55,0.09,2.15,0.1c0.62,0.01,1.29,0.47,1.76,0.68
	C162.3,144.32,164.14,144.31,164.47,144.37 M139.89,154.61c2.56,0.35,5.42,0.21,8.36-0.45c-0.94-1.62-1.85-3.37-2.68-5.21
	c-0.26-0.58-0.52-1.16-0.76-1.74c-3.01,0.62-5.85,0.63-8.15,0.02c0.35,1.42,0.84,2.84,1.48,4.24
	C138.66,152.58,139.24,153.63,139.89,154.61 M136.45,146.22c2.19,0.7,5,0.73,8.02,0.13c-0.75-1.9-1.38-3.76-1.88-5.52
	c-2.19,0.35-4.19,0.26-5.72-0.32c-0.26-0.1-0.5-0.21-0.73-0.33C135.94,142.11,136.04,144.15,136.45,146.22 M166.08,141.99
	c1.01-1.79,1.62-3.63,1.73-5.43c-1.27-2.46-3.03-4.57-5.17-6.23c0.46,1.32,0.38,2.85-0.21,4.43c-0.02,0.04-0.04,0.07-0.05,0.1
	c1.02,1.37,1.92,2.87,2.67,4.5C165.45,140.23,165.79,141.11,166.08,141.99 M146.41,148.57c0.86,1.89,1.8,3.69,2.78,5.36
	c1.67-0.44,3.36-1.02,5.02-1.77c1.35-0.62,2.62-1.31,3.81-2.07c-0.32,0.03-0.94,0.06-1.34,0.04c-0.54-0.04-1.82-0.52-2.15-0.72
	c-0.32-0.2-0.35-0.6-0.55-0.85c-0.2-0.25-0.31-0.82-0.55-1.33c-0.25-0.51-0.02-0.92,0.16-1.08c0.18-0.17,0.32-0.75,0.52-0.97
	c0,0,0.13-0.14,0.28-0.31c-0.21,0.07-0.4,0.13-0.76,0.13c-0.65-0.01-0.65-0.54-1.11-0.41c-0.27,0.08-0.46,0.18-0.68,0.2
	c-0.27,0.13-0.53,0.27-0.81,0.39c-1.77,0.8-3.55,1.42-5.3,1.84C145.94,147.52,146.16,148.05,146.41,148.57 M167.2,150.31
	c1.35-2.07,2.27-4.31,2.67-6.61c-0.16-1.9-0.6-3.79-1.35-5.6c-0.34,1.7-1.05,3.4-2.09,5.06
	C167.09,145.56,167.35,147.98,167.2,150.31 M142.34,139.94c-0.12-0.47-0.23-0.93-0.33-1.38c-0.04-0.04-0.09-0.1-0.14-0.18
	c-0.29-0.43-0.65-0.85-1.19-0.98c-0.54-0.13-0.96-0.04-1.48,0.12c-0.53,0.15-0.65,1.04-1.07,1.13c-0.29,0.08-1.18-0.03-1.75,0.62
	c0.24,0.15,0.5,0.29,0.81,0.39C138.53,140.17,140.35,140.24,142.34,139.94 M150.32,131.21c0.62,0.12,1.43,0.48,1.43,0.48
	c0.17,0.4,0.67,0.33-0.07,0.69c-0.38,0.19-0.42,0.44-0.4,0.61c0.1,0.12,0.2,0.25,0.3,0.38l0.55-0.21l0.48-0.7
	c0,0,0.46,1.32,0.31,2.59c1.78-1.56,2.95-3.25,3.23-4.72c-1.61-1.01-3.3-1.73-5.02-2.12c0.16,0.53,0.13,1.13-0.1,1.75
	C150.87,130.38,150.63,130.79,150.32,131.21 M155.48,144.11c0.18-0.08,0.37-0.17,0.52-0.22c0.15-0.07,0.37-0.14,0.6-0.21
	c-0.2-0.46-0.42-0.9-0.64-1.35c-0.87,0.62-1.81,1.2-2.79,1.75c0.24,0.21,0.55,0.38,1.12,0.29
	C154.7,144.29,155.14,144.19,155.48,144.11 M153.06,142.01c-0.29-0.11-0.61-0.45-0.88-0.73c-0.26-0.29-0.63-0.19-1.1-0.06
	c-0.45,0.13-0.85,0.25-0.87,0.59c-0.04,0.34,0.1,0.75,0.64,1.05c0.46,0.26,0.83,0.71,1.32,0.73c1.2-0.63,2.33-1.33,3.37-2.08
	c-0.92-1.81-1.9-3.51-2.9-5.04c-0.23,0.18-0.49,0.36-0.74,0.54c0.01,0.03,0.02,0.07,0.04,0.11c0.24,0.52,0.31,0.49,0.38,0.93
	c0.07,0.44-0.08,0.62-0.07,1.33c0.03,0.7-0.17,0.77,0,1.04c0.12,0.2,0.36,0.42,0.48,0.58c0.12,0.16,0.33,0.3,0.44,0.65
	C153.32,142,153.34,142.1,153.06,142.01 M144.16,130.54c-0.58,0.26-1.18,0.4-1.7,0.42c-0.19,0.82-0.25,1.84-0.19,3.02
	c0.45,0.07,0.84,0.12,1.08,0.05c0.59-0.17,1.58-0.53,2.32-0.81c0.6-0.23,1.04-0.5,1.48-0.42c0.46-0.29,0.88-0.6,1.26-0.92
	c-0.25-0.23-0.35-0.42-0.56-0.38c-0.28,0.04-0.66,0.19-1.02,0.4s-0.56,0.43-0.9,0.5c-0.34,0.07-0.88-0.13-0.95-0.3
	c-0.08-0.17,0.35-0.17,0.8-0.49c0.46-0.31,0.85-0.41,1.29-0.59c0.2-0.08,0.47-0.25,0.75-0.39c-0.7-0.62-1.37-1.08-2.01-1.38
	C145.49,129.73,144.92,130.2,144.16,130.54 M147.89,161.83c2.52,1.23,5.18,1.75,7.73,1.44c-0.78-0.56-1.59-1.3-2.41-2.19
	C151.44,161.53,149.65,161.78,147.89,161.83 M157.58,159.55c-1.1,0.5-2.23,0.91-3.37,1.25c0.96,0.98,1.88,1.74,2.73,2.22
	c0.58-0.14,1.15-0.33,1.7-0.56c0.08-0.04,0.17-0.07,0.25-0.11c0.04-0.02,0.09-0.05,0.13-0.06c0.59-0.27,1.14-0.6,1.66-0.96
	c0.2-0.97,0.24-2.17,0.12-3.54C159.78,158.45,158.71,159.04,157.58,159.55 M140.42,160.74c1.25,0.85,2.62,1.57,4.07,2.12
	c2.35,0.88,4.81,1.27,7.24,1.19c-1.96-0.35-3.92-1.12-5.76-2.24C144.03,161.7,142.16,161.34,140.42,160.74 M166.11,155.58
	c-0.3,0.82-0.67,1.58-1.08,2.3c1.59-1.74,2.85-3.79,3.7-6.06c0.57-1.5,0.93-3.05,1.1-4.61c-0.68,1.73-1.64,3.4-2.83,4.95
	C166.82,153.34,166.52,154.49,166.11,155.58 M165.77,153.63c-1,1.1-2.13,2.12-3.36,3.04c0.34,0.54,0.82,1.23,0.82,1.23l-0.38,0.6
	l-0.83,0.01c0,0-0.12-0.08-0.28-0.19c0.04,0.8,0.04,1.54-0.03,2.21c1.54-1.35,2.73-3.12,3.54-5.26
	C165.46,154.73,165.62,154.19,165.77,153.63 M139.35,155.43c-1.87-0.3-3.57-0.86-5.03-1.67c0.9,1.78,2.08,3.39,3.46,4.77
	c1.97,1.15,4.23,1.88,6.62,2.21C142.52,159.34,140.79,157.55,139.35,155.43 M150.37,127.1c1.98,0.31,3.94,1.03,5.79,2.12
	c-0.04-0.23-0.1-0.46-0.19-0.67c-0.78-1.71-3.39-2.38-6.63-1.99c0.05,0.02,0.11,0.03,0.17,0.05
	C149.85,126.74,150.13,126.91,150.37,127.1 M139.32,134.26c0.22-0.25,0.48-0.43,0.86-0.48c0.37-0.04,0.77,0,1.17,0.05
	c-0.04-1.15,0.01-2.18,0.2-3.03c-0.23-0.1-0.41-0.24-0.53-0.41c-0.96,0.77-1.78,1.69-2.46,2.72c0.01,0.17,0.04,0.32,0.1,0.46
	C138.79,133.85,139.02,134.08,139.32,134.26 M143.78,129.71c1.07-0.48,1.54-1.21,1.43-1.44c-0.11-0.23-0.96-0.37-2.03,0.13
	c-0.79,0.36-1.28,0.86-1.41,1.2c-0.02,0.08-0.04,0.17-0.02,0.23v0c0.03,0.07,0.12,0.12,0.19,0.13
	C142.28,130.11,142.99,130.08,143.78,129.71 M149.42,130.88c0.35-0.42,0.6-0.84,0.76-1.24c0.19-0.51,0.2-0.96,0.03-1.33
	c-0.06-0.12-0.12-0.21-0.21-0.31c-1.31-0.19-2.63-0.18-3.91,0.06c0.03,0.1,0.04,0.21,0.04,0.32
	C147.15,128.85,148.27,129.71,149.42,130.88 M135.47,138.46c0.39-2.06,1.13-3.96,2.18-5.61c0.02-0.32,0.09-0.65,0.23-0.99
	c-1.26,1.16-2.19,2.4-2.63,3.58c-0.19,0.51-0.29,0.99-0.29,1.45c0,0.4,0.09,0.78,0.24,1.13
	C135.28,138.16,135.37,138.32,135.47,138.46 M132.81,143.36c0.49,1.06,1.37,1.9,2.64,2.48c-0.31-1.85-0.39-3.69-0.24-5.44
	c-0.06-0.05-0.12-0.12-0.19-0.25c-0.16-0.27-0.03-0.5,0.04-0.74c0-0.01,0.01-0.02,0.01-0.04c-0.29-0.3-0.52-0.63-0.69-1
	c-0.17-0.37-0.27-0.78-0.31-1.2c-0.22,0.47-0.42,0.94-0.61,1.44c-0.46,1.23-0.78,2.49-0.98,3.76h0.03
	C132.56,142.72,132.67,143.04,132.81,143.36 M137.33,151.86c-0.75-1.63-1.3-3.29-1.66-4.94c-1.52-0.57-2.68-1.48-3.38-2.62
	c-0.13,2.69,0.31,5.4,1.35,7.95v-0.01c1.39,1.03,3.12,1.74,5.04,2.15C138.18,153.59,137.73,152.74,137.33,151.86 M137.29,137.06
	c0.46-0.73,0.19-0.97,0.92-1.37c0.25-0.15,0.43-0.4,0.62-0.69c-0.38-0.23-0.68-0.51-0.88-0.87c-0.64,1.18-1.12,2.48-1.44,3.86
	C136.8,137.7,136.95,137.6,137.29,137.06"/>
<path fill="#B6862C" d="M95.46,120.2c-11.4,0-20.77,1.51-21.99,3.44c0-0.01,0-0.03,0-0.04c0-2.52,9.84-4.56,21.99-4.56
	c10.45,0,19.19,1.52,21.42,3.55v-3.55c0-2.14-9.9-3.88-22.12-3.88s-22.12,1.73-22.12,3.88v4.33c0,1.67,6.07,3.1,14.56,3.64
	l6.04,32.73c0,1.04,0.84,1.88,1.88,1.88c1.04,0,1.88-0.84,1.88-1.88l6.25-32.79c8-0.59,13.63-1.97,13.63-3.58v-0.26
	C114.44,121.44,105.77,120.2,95.46,120.2 M109.1,114.08c3.9-5.02-3.33-10.79-10.23-14.39c-0.62-0.41-7.16-4.1-8.11-5.8
	c-3.15-5.63,0.49-9.94,0.49-9.94s-5.37,2.08-6.58,6.41c-0.13,0.45-0.17,1.03-0.01,1.59c-0.83-1.28-1.04-2.6-1.08-3.38
	c-0.46-3.54,1.73-6,2.08-6.96c-6.39,0.93-9.53,6.4-10.57,9.39c-1.46,4.17-1,8.38,0.5,11.87c1.49,3.48,2.3,4.96,2.96,6.31
	c1.22,2.45,0.92,4.36,0.55,5.21c8.18-1.12,9.78-1.27,15.54-1.27c0.72,0,1.42,0.01,2.12,0.02c0.13-0.29,0.24-0.66,0.29-1.17
	c0.18-1.91-0.47-4.31-1.71-5.99c-1.38-1.88-2.69-3.17-4.04-4.43c-0.3-0.28-0.59-0.54-0.88-0.81c0.53,0.33,1.06,0.67,1.58,1.03
	c3.13,2.17,5.83,3.45,7.79,6.38c1,1.5,1.59,3.34,1.73,5.12C104.63,113.4,106.54,113.78,109.1,114.08 M123.3,193.66
	c-37.46-10.83-65.37-52.57-65.37-102.4c0-5.65,0.67-11.15,1.94-16.4h63.43V193.66z M101.65,121.9c1.89,0.14,0.97,0.56,0.06,0.77
	c-1.13,0.27-1.92,0.52-2.77,0.75c-0.44,0.12-1.73,0.37-2.74,0.72l-0.86,0.21c-0.1,5.13-0.51,29.47-0.57,32.71
	c-0.56-2.9-4.28-24.76-5.52-31.24c-2.4-0.02-3.84-0.15-5.92-0.34c-1.83-0.17-4.09-0.6-5.41-0.85c-1.37-0.26-2.21-0.58-2.42-0.72
	c-0.2-0.13,0.18-0.53,2.53-0.98c2.62-0.51,3.24-0.65,5.73-0.92c1.94-0.21,4.8-0.44,7.45-0.54c2.02-0.06,3.67,0.02,5.74,0.09
	C98.9,121.66,99.77,121.77,101.65,121.9"/>
<path fill="#B6862C" d="M150.33,190.26c-0.64,0-1.91,0.16-3.03-0.48c-1.12-0.64-1.01-1.88,0.79-2.08c1.87-0.21,1.98-0.02,3.28-0.02
	c1.27,0,2.81,0.06,4.07-0.19c1.54-0.31,3.48-0.66,5.32-4.32l7.02,17.39c0,0-0.36,3.17-5.49,3.73c-0.5,0.05-1.91,0.31-3.03,0.64
	c-1.11,0.31-2.98,1.6-2.98,1.6L150.33,190.26z M99.88,190.26c0.63,0,1.91,0.16,3.03-0.48c1.12-0.64,1-1.88-0.8-2.08
	c-1.86-0.21-1.98-0.02-3.28-0.02c-1.28,0-2.81,0.06-4.07-0.19c-1.54-0.31-3.48-0.66-5.32-4.32l-7.02,17.39c0,0,0.36,3.17,5.48,3.73
	c0.5,0.05,1.91,0.31,3.03,0.64c1.12,0.31,2.99,1.6,2.99,1.6L99.88,190.26z M145.82,208.24c0.62-0.94,0.81-2.1,0.55-3.34
	c-0.26-1.21-0.88-2.18-1.79-2.77c-0.92-0.6-2.08-0.78-3.33-0.51c-0.79,0.17-1.47,0.57-2.02,0.94c-0.04-0.31-0.31-2.64-0.34-2.87
	c0.51,0.02,1.46,0,2.31-0.19c2.69-0.57,2.99-2.68,2.93-2.94c-0.04-0.17-0.17-0.27-0.34-0.23c0,0-0.29,0.15-0.29,0.15l-0.4,0.25
	c-0.28,0.17-0.8,0.4-1.63,0.58c-1.05,0.23-1.92,0.28-2.47,0.29h-0.62l-0.63,0.02l-0.29,0.06l0.02,0.12
	c0.33,1.75,0.55,3.78,0.73,5.71c-0.17,0.3-0.29,0.64-0.29,0.88c0,0.05,0,0.09,0.01,0.12c0.05,0.23,0.17,0.43,0.35,0.54
	c0.14,0.1,0.3,0.12,0.44,0.09c0.21-0.05,0.39-0.16,0.5-0.35c0.08-0.13,0.17-0.34,0.17-0.64c0-0.1-0.02-0.21-0.04-0.33
	c0.39-0.52,1-0.91,1.69-1.06c2.28-0.48,2.98,1.94,3.14,2.69c0.14,0.69,0.3,2-0.31,2.93c-0.31,0.48-0.79,0.79-1.42,0.93
	c-1.35,0.29-2.36-0.13-2.45-0.52c-0.04-0.15,0.06-0.26,0.23-0.44c0.25-0.26,0.59-0.61,0.44-1.33c-0.15-0.69-0.88-1-1.47-0.88
	c-0.77,0.17-1.13,1.03-0.98,1.73c0.42,1.99,2.13,2.86,4.57,2.35C144.11,209.92,145.18,209.23,145.82,208.24 M133.51,210.46
	c0.78-0.88,1.16-2.07,1.08-3.36c-0.14-2.24-1.81-3.78-3.99-3.64c-1.21,0.08-2.14,0.69-2.78,1.75c0-0.16-0.01-0.33-0.01-0.48
	c0-3.28,1.03-5.13,2.93-5.25c0.36-0.03,0.62,0.02,0.74,0.13c0.06,0.06,0.09,0.13,0.09,0.23c0.01,0.14-0.04,0.21-0.1,0.33
	c-0.09,0.16-0.2,0.35-0.18,0.72c0.02,0.31,0.16,0.6,0.4,0.81c0.25,0.22,0.57,0.33,0.92,0.31c0.35-0.02,0.66-0.18,0.89-0.44
	c0.24-0.27,0.37-0.65,0.35-1.02c-0.04-0.56-0.26-1.03-0.67-1.39c-0.6-0.53-1.58-0.81-2.63-0.74c-1.21,0.08-2.35,0.64-3.2,1.62
	c-0.89,1.01-1.91,2.9-1.71,6.18c0.12,1.89,0.85,3.6,1.96,4.59c0.84,0.73,1.85,1.08,3.01,1
	C131.77,211.77,132.78,211.29,133.51,210.46 M122.64,204.61c0.17-1.88-0.32-3.69-1.27-4.82c-0.72-0.85-1.68-1.33-2.83-1.44
	c-2.46-0.21-4.4,1.52-4.63,4.11c-0.19,2.24,1.25,3.99,3.42,4.18c1.21,0.1,2.21-0.35,3-1.32c-0.42,3.54-1.73,5.4-3.71,5.23
	c-0.81-0.07-0.79-0.36-0.78-0.48l0.12-0.21c0.12-0.19,0.29-0.46,0.32-0.79c0.03-0.31-0.07-0.62-0.28-0.86
	c-0.21-0.26-0.52-0.41-0.87-0.44c-0.73-0.06-1.37,0.51-1.43,1.26c-0.06,0.56,0.1,1.06,0.45,1.47c0.52,0.61,1.46,1.03,2.5,1.11
	c1.2,0.11,2.41-0.29,3.4-1.13C121.08,209.62,122.36,207.89,122.64,204.61 M107.84,208.77c-0.12-0.2-0.08-0.54,0.05-1.1l2.36-10.51
	l-0.78-0.17l-0.04,0.02c-1.4,0.75-3,0.65-4.1,0.43l-0.12-0.02l-0.23,1.03l1.69,0.38c0.9,0.2,0.98,0.32,0.79,1.18l-1.71,7.58
	c-0.08,0.33-0.16,0.5-0.3,0.59c-0.25,0.15-0.74,0.09-1.51-0.09l-0.99-0.22l-0.23,1.03l7.19,1.62l0.23-1.03l-1.36-0.31
	C108.27,209.06,107.96,208.95,107.84,208.77 M155.29,209.88c-9.45,3.37-19.63,5.21-30.24,5.21c-10.61,0-20.79-1.84-30.24-5.21
	l6.5-18.24c7.42,2.65,15.41,4.09,23.74,4.09s16.32-1.44,23.74-4.09L155.29,209.88z M118.53,199.42c-0.51-0.04-0.96,0.1-1.35,0.42
	c-0.56,0.47-0.93,1.32-1.02,2.33c-0.17,2.06,0.42,3.06,1.86,3.19c1.33,0.11,2.29-1,2.45-2.82
	C120.61,200.95,119.72,199.51,118.53,199.42 M130.09,204.83c-1.33,0.08-2.12,1.32-2,3.14c0.06,0.91,0.44,1.77,1.04,2.31
	c0.41,0.36,0.87,0.53,1.33,0.5c1.46-0.09,2.04-1.6,1.94-3.07C132.27,205.66,131.54,204.74,130.09,204.83"/>
<path fill="#B6862C" d="M180.58,84.88h-3.21l-0.15,24.21c-6.12,0.8-11.46-2.59-17.54-0.56c-1.13,0.09-1.48,1.6-2.71,1.13
	c-1.19-1.04-2.77-1.22-4.25-1.6c-6.03-1.37-10.42,2.58-16.5,1.37l-0.49-0.43V85.44h-3.06v27.51h47.91V84.88z M152.32,80.92
	c-5.68-1.88-9.08,3.06-14.66,1.7v25.24h4.4c4.34-1.32,9.68-2.35,14.08-0.47V82.19L152.32,80.92z M172.98,82.05
	c-4.6-1.23-10.62-2.6-14.92,0l0.1,25.43c1.29-0.71,2.87-0.89,4.4-1.13c4.79-0.8,8.54,1.5,13.14,1.5V82.05H172.98z M189.58,75.08
	c2.62,14.18,2.77,30.28-0.84,43.85h-62.49V75.08H189.58z"/>
<path fill="#B6862C" d="M177.07,66.58c0.03,0.22,0.05,0.37,0.05,0.67c0,0.38-0.04,0.81-0.07,1.19c0.14-0.01,0.27-0.02,0.4-0.02
	c0.17,0,0.46,0.03,0.69,0.06c0.26,0.05,0.51,0.07,0.77,0.07c0.35,0,1.24-0.04,1.88-0.66c0.36-0.37,0.62-0.92,0.62-1.58
	c0-1.17-0.83-1.68-1.29-1.92c-0.15-0.08-0.87-0.4-1.02-0.49c-0.58-0.35-0.7-0.71-0.7-0.99c0-0.44,0.35-0.9,1.02-0.9
	c1.06,0,1.09,1,1.11,1.42h0.52c-0.02-0.75-0.01-0.96,0.07-1.86c-0.12,0.01-0.24,0.02-0.37,0.02c-0.18,0-1-0.06-1.17-0.06
	c-1.48,0-2.43,0.65-2.43,1.97c0,0.68,0.21,1.36,1.23,1.88c0.21,0.1,0.43,0.19,0.64,0.3c0.64,0.33,1.04,0.73,1.04,1.24
	c0,0.36-0.27,1.02-1.14,1.02c-0.9,0-1.25-0.65-1.3-1.35L177.07,66.58z M173.8,65.57h-1.46c0.15-0.55,0.19-0.65,0.45-1.46
	c0.13-0.41,0.26-0.83,0.39-1.24L173.8,65.57z M170.31,68.44c0.43-0.02,0.85-0.04,1.29-0.04c0.36,0,0.68,0.02,1.11,0.04v-0.45
	c-0.54,0-0.83-0.01-0.83-0.4c0-0.13,0.07-0.42,0.1-0.55l0.22-0.91h1.74l0.2,0.88c0.07,0.36,0.08,0.44,0.08,0.55
	c0,0.39-0.34,0.42-0.65,0.44v0.45c0.52-0.02,1.04-0.04,1.57-0.04c0.45,0,0.92,0.02,1.37,0.04v-0.43c-0.54-0.06-0.59-0.25-0.83-1.01
	c-0.25-0.78-0.43-1.57-0.63-2.36c-0.39-1.72-0.44-1.91-0.64-3.05c-0.22,0.01-0.46,0.02-0.67,0.02c-0.26,0-0.52-0.01-0.79-0.02
	c-0.65,2.61-1.54,5.12-1.69,5.46c-0.15,0.35-0.4,0.88-0.95,0.95V68.44z M166.12,63.43c0.01-1.22,0.56-1.21,1.39-1.21
	c0.02,1.17,0.04,2.16,0.04,3.22c0,0.29,0,1.25-0.01,1.71c-0.01,0.55-0.04,0.83-0.75,0.84v0.45c0.58-0.02,1.04-0.03,1.52-0.03
	c0.52,0,1.05,0.01,1.57,0.03V68c-0.76,0-0.78-0.15-0.78-0.99c0-0.85,0.02-3.32,0.05-4.79c0.79,0.01,1.07,0.01,1.29,0.37
	c0.15,0.25,0.15,0.56,0.16,0.86h0.53c0-0.24-0.01-0.48-0.01-0.72c0-0.38,0.02-0.63,0.04-1.09c-0.82,0.05-1.2,0.06-2.1,0.06
	c-2.38,0-2.41,0-3.47-0.06c0.01,0.33,0.02,0.65,0.02,0.96c0,0.28-0.02,0.55-0.02,0.84H166.12z M161.45,62.07
	c0.71,0.06,0.71,0.1,0.74,1.25v2.96l-0.01,0.82c-0.02,0.63-0.03,0.88-0.74,0.9v0.44c0.79-0.03,1.59-0.05,2.4-0.05
	c0.78,0,1.5,0.02,2.34,0.05c0.06-0.72,0.09-0.88,0.21-1.64l-0.48-0.09c-0.13,0.78-0.41,1.24-1.32,1.24c-0.88,0-0.88-0.28-0.89-1.08
	v-3.84c0.01-0.83,0.01-0.93,0.74-0.98v-0.42c-0.53,0.02-1,0.05-1.5,0.05c-0.5,0-1-0.02-1.49-0.05V62.07z M154.45,62.05
	c0.7,0.05,0.75,0.15,0.78,0.94v3.15c0.01,1.11,0.02,1.49,0.38,1.87c0.35,0.35,1.02,0.52,2.02,0.52c2.36,0,2.36-1.06,2.37-2.07v-3.11
	c0.03-1.17,0.1-1.25,0.8-1.31v-0.44c-0.37,0.02-0.74,0.05-1.11,0.05c-0.38,0-0.77-0.03-1.16-0.05v0.44
	c0.75,0.07,0.81,0.12,0.81,1.04v3.44c-0.01,0.7-0.06,1.29-1.3,1.29c-1.28,0-1.28-0.76-1.28-1.8v-2.9c0.01-0.87,0.04-1,0.79-1.06
	v-0.44c-0.54,0.02-1.07,0.05-1.61,0.05c-0.49,0-0.94-0.03-1.5-0.05V62.05z M153.37,66.64c-0.16,0.44-0.45,1.19-1.37,1.19
	c-0.55,0-1.09-0.22-1.42-0.67c-0.39-0.54-0.54-1.4-0.54-2.35c0-0.54,0.02-1.17,0.3-1.74c0.27-0.57,0.76-0.95,1.5-0.95
	c1.06,0,1.33,0.77,1.49,1.29l0.46-0.04c-0.03-0.36-0.03-1.19,0.04-1.73c-0.65-0.01-1.29-0.1-2.02-0.1c-0.82,0-1.6,0.15-2.21,0.61
	c-0.63,0.47-1.27,1.44-1.27,2.83c0,0.98,0.28,1.96,0.96,2.65c0.71,0.71,1.62,0.89,2.52,0.89c0.75,0,1.23-0.09,1.74-0.19
	c0.11-0.81,0.14-1.02,0.27-1.6L153.37,66.64z M145.29,65.57h-1.46c0.15-0.55,0.18-0.65,0.45-1.46c0.13-0.41,0.26-0.83,0.4-1.24
	L145.29,65.57z M141.79,68.44c0.43-0.02,0.86-0.04,1.29-0.04c0.37,0,0.68,0.02,1.11,0.04v-0.45c-0.54,0-0.83-0.01-0.83-0.4
	c0-0.13,0.07-0.42,0.1-0.55l0.22-0.91h1.74l0.2,0.88c0.07,0.36,0.08,0.44,0.08,0.55c0,0.39-0.34,0.42-0.65,0.44v0.45
	c0.53-0.02,1.04-0.04,1.57-0.04c0.45,0,0.92,0.02,1.37,0.04v-0.43c-0.53-0.06-0.59-0.25-0.83-1.01c-0.25-0.78-0.43-1.57-0.63-2.36
	c-0.39-1.72-0.44-1.91-0.64-3.05c-0.22,0.01-0.46,0.02-0.67,0.02c-0.26,0-0.52-0.01-0.79-0.02c-0.65,2.61-1.54,5.12-1.68,5.46
	c-0.15,0.35-0.4,0.88-0.96,0.95V68.44z M137.37,62.08c0.68,0.05,0.71,0.17,0.72,0.96v3.1c-0.02,1.71-0.04,1.82-0.73,1.86v0.44
	c0.48-0.02,0.98-0.05,1.47-0.05c0.49,0,0.99,0.03,1.49,0.05v-0.43c-0.69-0.02-0.7-0.22-0.71-1v-1.72h0.51
	c0.74,0.03,0.84,0.09,0.88,0.86h0.5c-0.03-0.46-0.05-0.86-0.05-1.27c0-0.33,0.01-0.65,0.03-0.97h-0.47
	c-0.03,0.58-0.14,0.88-0.86,0.87h-0.55c0.01-1.35,0.02-1.85,0.03-2.55c0.5-0.03,0.56-0.03,0.72-0.03c0.86,0,1.25,0.26,1.3,1.19h0.5
	c-0.01-0.27-0.02-0.54-0.02-0.81c0-0.33,0.01-0.58,0.03-0.94c-1.9,0.04-2.61,0.05-3.28,0.05c-0.66,0-1.06-0.02-1.51-0.05V62.08z
	 M132.44,65.57h-1.46c0.15-0.55,0.18-0.65,0.45-1.46c0.13-0.41,0.25-0.83,0.4-1.24L132.44,65.57z M128.95,68.44
	c0.44-0.02,0.86-0.04,1.29-0.04c0.36,0,0.68,0.02,1.1,0.04v-0.45c-0.54,0-0.83-0.01-0.83-0.4c0-0.13,0.06-0.42,0.09-0.55l0.23-0.91
	h1.74l0.2,0.88c0.07,0.36,0.08,0.44,0.08,0.55c0,0.39-0.34,0.42-0.64,0.44v0.45c0.52-0.02,1.04-0.04,1.57-0.04
	c0.45,0,0.91,0.02,1.37,0.04v-0.43c-0.53-0.06-0.59-0.25-0.83-1.01c-0.25-0.78-0.44-1.57-0.63-2.36c-0.4-1.72-0.44-1.91-0.65-3.05
	c-0.22,0.01-0.44,0.02-0.67,0.02c-0.26,0-0.52-0.01-0.79-0.02c-0.64,2.61-1.53,5.12-1.68,5.46c-0.14,0.35-0.39,0.88-0.95,0.95V68.44
	z M125.72,62.09c0.48,0,0.67,0.08,0.71,0.48c0.01,0.08,0.03,0.52,0.03,0.99v3.11c0,1.12-0.03,1.28-0.74,1.34v0.43
	c0.53-0.02,1-0.04,1.47-0.04c0.51,0,1.02,0.02,1.52,0.04v-0.45c-0.72-0.02-0.72-0.17-0.72-1.28V63.2c0-1.04,0.08-1.1,0.72-1.12
	v-0.43c-0.49,0.02-1,0.04-1.49,0.04c-0.5,0-1-0.02-1.5-0.04V62.09z M120.36,63.43c0.01-1.22,0.56-1.21,1.38-1.21
	c0.02,1.17,0.04,2.16,0.04,3.22c0,0.29,0,1.25-0.01,1.71c-0.01,0.55-0.04,0.83-0.75,0.84v0.45c0.58-0.02,1.04-0.03,1.52-0.03
	c0.52,0,1.05,0.01,1.57,0.03V68c-0.76,0-0.79-0.15-0.79-0.99c0-0.85,0.04-3.32,0.05-4.79c0.79,0.01,1.07,0.01,1.29,0.37
	c0.16,0.25,0.16,0.56,0.17,0.86h0.53c0-0.24-0.01-0.48-0.01-0.72c0-0.38,0.02-0.63,0.05-1.09c-0.83,0.05-1.21,0.06-2.1,0.06
	c-2.38,0-2.42,0-3.47-0.06c0.01,0.33,0.03,0.65,0.03,0.96c0,0.28-0.02,0.55-0.03,0.84H120.36z M117.45,62.07
	c0.68,0.06,0.72,0.07,0.74,0.98c0.01,0.38,0.01,2.02,0.02,2.36l0.02,0.54c-0.09-0.24-0.71-1.2-0.94-1.56l-1.77-2.75
	c-0.38,0.01-0.75,0.03-1.12,0.03c-0.38,0-0.69-0.02-1.11-0.03v0.42c0.65,0.05,0.74,0.06,0.74,1.27c0,2.83,0,3.98-0.11,4.34
	c-0.11,0.33-0.41,0.34-0.63,0.34v0.44c0.34-0.01,0.68-0.02,1.03-0.02c0.33,0,0.59,0.01,1.05,0.02v-0.43c-0.36,0-0.61-0.01-0.68-0.38
	c-0.04-0.21-0.04-1.21-0.04-1.5l-0.01-2.67c0-0.32,0-0.33-0.02-0.51c0.48,0.76,1.28,1.96,1.77,2.71c0.49,0.77,1.27,2.02,1.76,2.79
	h0.67v-4.23c0-0.54-0.01-1.12,0.01-1.48c0.03-0.61,0.25-0.63,0.72-0.66v-0.44c-0.37,0.02-0.74,0.03-1.11,0.03
	c-0.33,0-0.61-0.01-0.99-0.03V62.07z M107.27,62.07c0.39,0.04,0.58,0.06,0.67,0.3c0.08,0.2,0.08,1.38,0.08,1.69v1.18
	c0,0.46,0,2.12-0.1,2.43c-0.12,0.33-0.44,0.33-0.65,0.35v0.42c0.81-0.04,1.25-0.07,2.66-0.07c1.09,0,1.47,0.03,2.27,0.07
	c0.06-0.7,0.09-0.87,0.19-1.61l-0.47-0.03c-0.25,0.92-0.72,1.11-1.3,1.11c-0.4,0-0.77-0.05-0.92-0.21
	c-0.13-0.15-0.14-0.35-0.15-1.11v-1.46c0.18,0,0.36-0.01,0.55-0.01c0.9,0,0.93,0.19,0.97,0.88h0.48c-0.02-0.36-0.03-0.71-0.03-1.07
	c0-0.38,0.02-0.7,0.04-1.13h-0.48c-0.05,0.71-0.13,0.86-1.05,0.86c-0.17,0-0.32-0.01-0.48-0.01c-0.01-1.17-0.01-1.48,0.02-2.45
	c0.19-0.01,0.47-0.02,0.95-0.02c0.42,0,1.04,0,1.13,1.19h0.48c0-0.22-0.01-0.44-0.01-0.66c0-0.4,0.02-0.69,0.04-1.08
	c-0.55,0.04-0.9,0.06-1.92,0.06c-1.26,0-1.62,0-2.96-0.06V62.07z M103.46,62.09c0.48,0,0.67,0.08,0.71,0.48
	c0.01,0.08,0.03,0.52,0.03,0.99v3.11c0,1.12-0.03,1.28-0.74,1.34v0.43c0.53-0.02,1-0.04,1.47-0.04c0.51,0,1.01,0.02,1.51,0.04v-0.45
	c-0.71-0.02-0.71-0.17-0.72-1.28V63.2c0-1.04,0.08-1.1,0.72-1.12v-0.43c-0.49,0.02-0.99,0.04-1.5,0.04c-0.5,0-1-0.02-1.49-0.04
	V62.09z M102.22,66.64c-0.15,0.44-0.44,1.19-1.37,1.19c-0.55,0-1.08-0.22-1.41-0.67c-0.39-0.54-0.54-1.4-0.54-2.35
	c0-0.54,0.02-1.17,0.3-1.74c0.27-0.57,0.76-0.95,1.5-0.95c1.06,0,1.33,0.77,1.48,1.29l0.47-0.04c-0.03-0.36-0.03-1.19,0.03-1.73
	c-0.65-0.01-1.29-0.1-2.02-0.1c-0.81,0-1.6,0.15-2.21,0.61c-0.63,0.47-1.27,1.44-1.27,2.83c0,0.98,0.28,1.96,0.96,2.65
	c0.71,0.71,1.62,0.89,2.52,0.89c0.75,0,1.23-0.09,1.74-0.19c0.11-0.81,0.15-1.02,0.27-1.6L102.22,66.64z M91.99,66.58
	c0.02,0.22,0.04,0.37,0.04,0.67c0,0.38-0.04,0.81-0.07,1.19c0.14-0.01,0.27-0.02,0.41-0.02c0.17,0,0.45,0.03,0.68,0.06
	c0.26,0.05,0.51,0.07,0.77,0.07c0.35,0,1.24-0.04,1.88-0.66c0.37-0.37,0.63-0.92,0.63-1.58c0-1.17-0.83-1.68-1.29-1.92
	c-0.15-0.08-0.88-0.4-1.02-0.49c-0.59-0.35-0.71-0.71-0.71-0.99c0-0.44,0.35-0.9,1.02-0.9c1.06,0,1.09,1,1.1,1.42h0.53
	c-0.02-0.75-0.01-0.96,0.06-1.86c-0.12,0.01-0.23,0.02-0.36,0.02c-0.18,0-1-0.06-1.16-0.06c-1.49,0-2.44,0.65-2.44,1.97
	c0,0.68,0.21,1.36,1.23,1.88c0.21,0.1,0.44,0.19,0.65,0.3c0.63,0.33,1.03,0.73,1.03,1.24c0,0.36-0.26,1.02-1.14,1.02
	c-0.9,0-1.24-0.65-1.31-1.35L91.99,66.58z M84.97,66.58c0.03,0.22,0.05,0.37,0.05,0.67c0,0.38-0.04,0.81-0.07,1.19
	c0.13-0.01,0.27-0.02,0.4-0.02c0.17,0,0.45,0.03,0.68,0.06c0.26,0.05,0.51,0.07,0.77,0.07c0.36,0,1.24-0.04,1.88-0.66
	c0.37-0.37,0.62-0.92,0.62-1.58c0-1.17-0.83-1.68-1.29-1.92c-0.15-0.08-0.88-0.4-1.02-0.49c-0.59-0.35-0.7-0.71-0.7-0.99
	c0-0.44,0.35-0.9,1.02-0.9c1.06,0,1.09,1,1.11,1.42h0.52c-0.02-0.75-0.01-0.96,0.06-1.86c-0.12,0.01-0.24,0.02-0.37,0.02
	c-0.18,0-1-0.06-1.16-0.06c-1.48,0-2.44,0.65-2.44,1.97c0,0.68,0.21,1.36,1.23,1.88c0.21,0.1,0.43,0.19,0.64,0.3
	c0.64,0.33,1.03,0.73,1.03,1.24c0,0.36-0.26,1.02-1.15,1.02c-0.89,0-1.24-0.65-1.3-1.35L84.97,66.58z M78.78,62.07
	c0.4,0.04,0.58,0.06,0.67,0.3c0.08,0.2,0.08,1.38,0.08,1.69v1.18c0,0.46,0,2.12-0.1,2.43c-0.12,0.33-0.43,0.33-0.65,0.35v0.42
	c0.81-0.04,1.25-0.07,2.65-0.07c1.09,0,1.46,0.03,2.26,0.07c0.07-0.7,0.09-0.87,0.19-1.61l-0.47-0.03c-0.25,0.92-0.72,1.11-1.3,1.11
	c-0.4,0-0.77-0.05-0.92-0.21c-0.13-0.15-0.15-0.35-0.15-1.11v-1.46c0.18,0,0.37-0.01,0.55-0.01c0.89,0,0.92,0.19,0.97,0.88h0.48
	c-0.02-0.36-0.03-0.71-0.03-1.07c0-0.38,0.02-0.7,0.04-1.13h-0.48c-0.06,0.71-0.13,0.86-1.05,0.86c-0.16,0-0.32-0.01-0.48-0.01
	c-0.01-1.17-0.01-1.48,0.02-2.45c0.19-0.01,0.47-0.02,0.95-0.02c0.42,0,1.04,0,1.13,1.19h0.48c0-0.22-0.01-0.44-0.01-0.66
	c0-0.4,0.02-0.69,0.04-1.08c-0.56,0.04-0.9,0.06-1.92,0.06c-1.26,0-1.62,0-2.97-0.06V62.07z M72.58,62.08
	c0.7,0.03,0.72,0.17,0.74,0.94v3.45c0,1.46-0.12,1.49-0.74,1.52v0.44c0.5-0.02,0.93-0.03,1.4-0.03c0.5,0,1.01,0.02,1.52,0.03v-0.43
	c-0.47-0.03-0.69-0.04-0.69-0.77l0.03-5.02c0.16-0.03,0.26-0.05,0.46-0.05c0.76,0,1.13,0.32,1.13,1.42c0,0.96-0.22,1.19-0.34,1.31
	c-0.16,0.17-0.44,0.32-0.82,0.32c-0.09,0-0.17-0.01-0.26-0.02l0.12,0.54c0.41,0.02,1.13,0.05,1.84-0.33
	c0.88-0.46,1.17-1.17,1.17-1.88c0-1.38-0.96-1.92-2.32-1.92c-0.65,0-1.15,0.06-1.83,0.06c-0.47,0-0.95-0.02-1.42-0.04V62.08z
	 M67.31,66.58c0.03,0.22,0.05,0.37,0.05,0.67c0,0.38-0.04,0.81-0.07,1.19c0.13-0.01,0.27-0.02,0.4-0.02c0.17,0,0.45,0.03,0.68,0.06
	c0.26,0.05,0.51,0.07,0.77,0.07c0.35,0,1.24-0.04,1.87-0.66c0.37-0.37,0.63-0.92,0.63-1.58c0-1.17-0.83-1.68-1.29-1.92
	c-0.15-0.08-0.87-0.4-1.02-0.49c-0.59-0.35-0.7-0.71-0.7-0.99c0-0.44,0.35-0.9,1.02-0.9c1.06,0,1.09,1,1.11,1.42h0.52
	c-0.02-0.75-0.01-0.96,0.07-1.86c-0.13,0.01-0.24,0.02-0.37,0.02c-0.18,0-1-0.06-1.17-0.06c-1.48,0-2.44,0.65-2.44,1.97
	c0,0.68,0.21,1.36,1.23,1.88c0.21,0.1,0.43,0.19,0.64,0.3c0.64,0.33,1.03,0.73,1.03,1.24c0,0.36-0.26,1.02-1.14,1.02
	c-0.9,0-1.25-0.65-1.3-1.35L67.31,66.58z M188.53,72.62H60.51c1.64-5.87,4.03-11.42,7.05-16.53h113.92
	C184.51,61.2,186.89,66.74,188.53,72.62"/>
</svg>
