<svg xmlns="http://www.w3.org/2000/svg" width="247" height="247" viewBox="0 0 247 247">
 <g transform="matrix(1.3333 0 0 -1.3333 -60.812 305.81)">
  <path d="m138.14 228.48c-50.66 0-91.875-41.214-91.875-91.875 0-50.659 41.215-91.875 91.875-91.875 50.66 0 91.875 41.215 91.875 91.875 0 50.66-41.215 91.875-91.875 91.875zm0-1.9284c49.596 0 89.946-40.349 89.946-89.946 0-49.596-40.35-89.946-89.946-89.946-49.596 0-89.947 40.35-89.947 89.946 0 49.597 40.351 89.946 89.947 89.946zm-0.23788-4.5803c-4.7046-0.0114-7.3736-3.1649-7.3642-7.3789 0.012-4.2147 2.6952-7.3551 7.4005-7.3437 4.7046 0.0114 7.3733 3.1642 7.3633 7.3789-0.01 4.2134-2.695 7.3551-7.3995 7.3437zm10.123-0.42386-0.33772-1.624 1.5564-0.32304-2.2368-10.787-1.5555 0.32304-0.33674-1.625 5.0609-1.0494 0.33674 1.624-1.5564 0.32402 1.9607 9.4552 5.1598-12.627 2.2231-0.46008 2.5735 12.41 1.5564-0.32205 0.33674 1.625-5.0599 1.0494-0.33773-1.624 1.5565-0.32304-1.9617-9.4562-5.1598 12.626zm-23.488-0.84773c-0.71249-5e-3 -1.5483-0.0685-2.4717-0.24472-3.7837-0.72039-4.6307-2.8365-4.2886-4.6341 0.38358-2.0141 1.9643-3.1486 5.7941-3.2108 2.798-0.0488 3.8486-0.54907 4.1026-1.8756 0.24993-1.3151-0.15448-2.5539-2.8075-3.0591-2.1692-0.41432-3.7306-0.0803-3.7306-0.0803l-0.26234 1.3851-1.9549-0.37296 0.44833-2.3572s2.2362-0.88786 5.8107-0.20557c3.34 0.63686 4.9703 2.3314 4.451 5.0619-0.4738 2.4752-2.3912 3.25-6.0486 3.3155-2.514 0.0515-3.6041 0.48478-3.848 1.7698-0.24458 1.2777 0.54134 2.2313 2.643 2.6323 1.817 0.3475 2.9494 0.17523 2.9494 0.17523l0.29074-1.5212 1.9539 0.37198-0.49239 2.5823s-0.97178 0.27738-2.5393 0.26723zm13.369-0.38666c3.4763 9e-3 5.2614-2.495 5.2674-5.6913 9e-3 -3.197-1.7644-5.7058-5.24-5.7158-3.4756-8e-3 -5.2591 2.4953-5.2665 5.6923-8e-3 3.195 1.7634 5.7048 5.2391 5.7148zm-24.166-2.1203-4.9219-1.5672 0.50413-1.58 1.5134 0.4826 3.341-10.486-1.5134-0.48259 0.50316-1.579 4.9199 1.5682-0.50218 1.578-1.5144-0.4826-3.341 10.487 1.5134 0.48162zm58.145-3.0336-0.78606-1.4615 1.3969-0.75375-3.0649-5.6825c-1.8765-3.4836-1.4162-6.5242 2.2064-8.4782 3.6246-1.9547 6.419-0.66766 8.2981 2.8153l3.063 5.6815 1.3998-0.75278 0.78704 1.4595-4.548 2.4531-0.78801-1.4615 1.3988-0.75375-3.063-5.6825c-1.2757-2.3663-3.1212-3.7235-5.7589-2.2994-2.6376 1.4234-2.5206 3.7081-1.2442 6.075l3.0659 5.6806 1.3969-0.75277 0.78703 1.4605zm-68.583-1.6289c-1.1223 8e-3 -2.3456-0.30026-3.6552-0.96226l-5.9654-3.015 0.74886-1.4791 1.4174 0.71558 4.9669-9.8262-1.4174-0.71459 0.74984-1.4811 5.9634 3.016c4.1913 2.1177 4.9397 5.6636 2.9837 9.5335-1.3411 2.6546-3.323 4.1966-5.7921 4.2132zm-0.47379-1.7943c1.9117 6e-3 3.4071-1.3054 4.4374-3.3429 1.4348-2.8354 1.1998-5.5626-1.903-7.1303l-2.7732-1.4008-4.966 9.8262 2.7722 1.4008c0.87283 0.44093 1.6845 0.64479 2.4326 0.64705zm84.629-5.2812-1.0719-1.2657 1.2138-1.0269-7.1156-8.4126-1.2158 1.0259-1.0719-1.2667 3.9469-3.339 1.0719 1.2667-1.2129 1.0278 6.2375 7.3731-1.4928-13.562 1.7326-1.4664 8.1885 9.6794 1.2148-1.0269 1.0719 1.2667-3.9469 3.34-1.0729-1.2677 1.2158-1.0278-6.2405-7.3731 1.4938 13.562zm-102.4-3.2216-3.1158-2.5354 1.0464-1.2872 1.2334 1.0024 3.3008-11.513-1.1923-0.97205 1.0464-1.2872 4.0076 3.2627-1.0464 1.2863-1.1943-0.97107-0.83892 2.8359 4.7212 3.8422 2.6058-1.3988-1.1854-0.96422 1.0484-1.2863 4.0057 3.2617-1.0464 1.2863-1.1943-0.97008zm53.083-0.28192c-36.583 0-66.347-29.763-66.347-66.346 0-36.583 29.764-66.345 66.347-66.345 36.583 0 66.346 29.762 66.346 66.345 0 36.583-29.763 66.346-66.346 66.346zm0-1.9294c35.52 0 64.416-28.897 64.416-64.416 0-35.52-28.896-64.416-64.416-64.416-35.519 0-64.417 28.896-64.417 64.416 0 35.519 28.898 64.416 64.417 64.416zm-52.071-0.39352 5.3732-2.8809-3.6503-2.9719zm51.279-5.2919 0.20067-0.63041c0.48449-1.5203-0.3112-3.3539-0.7048-4.1251-0.13165 0.28668-0.26552 0.52275-0.29759 0.57754l-1.2873 2.0028 0.0548-1.4126c0.0314-0.8126-0.85457-1.5888-0.85457-1.5888-0.73308-0.52592-0.90941-1.7922-0.93681-2.6783-0.28 0.48917-0.45676 1.2068-0.5149 1.7013l-0.13607 1.1306-0.57951-0.97987c-0.81126-1.3726-1.0389-2.6289-0.67739-3.7335 0.50387-1.541 1.9674-2.1826 2.0302-2.2094l0.0411-0.0176v-0.55014l0.0989-0.091c0.0107-0.0114 1.1401-1.0588 1.529-1.7992l0.15369-0.73907h0.0861c-0.36945-0.32138-0.54554-0.67842-0.55014-0.68915-0.0274-0.0474-0.68722-1.1738-0.58832-3.0228 0.0407-0.73124 0.25906-1.8151 0.64901-3.2186l-2.7233-1.068v-0.0186l-8e-3 0.0137-2.4247-1.3842-0.70187-0.47476c-2.1217-1.6366-3.3727-2.8877-3.5632-3.5573-0.27354-0.62234-0.50689-1.8058 0.24081-2.5079-0.94045 0.0849-2.2333 0.44505-3.3968 1.6299-2.5574 2.6022-1.8524 6.7567-1.8256 6.8523 0.0301 0.13165 0.0698 0.22745 0.11258 0.33772l0.11159 0.28779c0.90216 2.5982 1.0924 4.9352 0.56776 6.9453-0.57537 2.2093-2.5328 3.7443-4.7574 3.7443h-0.0206c-0.18043 0.022-4.1581 0.0936-4.9493-3.1922 0-0.55065-0.13364-1.4376-0.44638-1.6896-1.4328 0.13432-1.8959-0.62552-2.3102-2.1712-0.48382-1.799-1.6033-5.9653 2.2192-7.3907-0.0241-7e-3 -0.054-0.013-0.0881-0.0176l-1.0474-0.17523c-0.79857-0.13432-1.3842-0.80047-1.4243-1.6191-0.0461-0.98235 0.22222-2.8492 2.5471-4.3267 2.1825-1.3886 4.0877-2.0144 5.1803-2.2857-1.805-0.45175-4.6637-0.85292-7.606-5e-3 -0.10387 0.0299-0.20224 0.0637-0.30248 0.0959-1.4402 2.476-2.0175 5.1216-1.7101 7.8635 0.0742 0.66559 0.11257 1.2604 0.11257 1.765 0 0.041-7e-3 0.0805-0.0166 0.11943 0.0755 0.17515 0.12923 0.36253 0.15565 0.55895l0.0274 0.25647c4e-3 0.0775 0.0869 1.9125-1.2804 3.0786-1.0478 0.89547-2.6217 1.1279-4.6733 0.68622-5.8954-1.267-6.1556-7.0763-6.1582-7.1518 0-0.11293 0.01653-2.79 1.4693-4.1358 0.54396-0.50521 1.2084-0.75963 1.9128-0.75963 0.0842 0 0.16898 3e-3 0.25451 0.0108 0.0797-0.0137 1.7461-0.14155 2.8603 2.5422 0.11416-0.58902 0.2842-1.2206 0.50707-1.8844 0.0301-0.0922 0.0874-0.17199 0.16347-0.23005l-8e-3 -0.0382c-0.52525-2.4599 1.7548-4.2715 1.8658-4.3571 1.4951-1.0962 2.9802-1.9809 4.453-2.6567-0.87229-0.44459-1.9829-1.0224-3.1844-1.6778l0.0499 0.0558-1.853-0.63629c-6.1841-2.1217-6.3377-13.772-6.3403-14.256-0.38425-12.992 4.4148-16.958 7.3104-18.166 0.64287-0.26664 1.3486-0.40429 2.0723-0.40429 0.20048 0 0.4015 0.0109 0.60398 0.0323 1.2096 0.12764 2.8198 0.52068 3.6298 1.6661 0.48716 0.68764 0.61442 1.5366 0.37785 2.5216-0.40363 1.6934-0.33459 2.7016-0.20361 3.2509 0.11494 0.49452 0.52696 0.83942 0.84773 1.0406 1.7395 1.0826 1.821 2.8272 1.6299 3.5603-0.2653 1.4575-1.2455 2.3661-2.7605 2.5579-0.23122 0.0294-0.43692 0.15168-0.56189 0.33478-0.11093 0.16172-0.14498 0.35164-0.0989 0.53742 0.0588 0.24458 0.16588 0.51255 0.31423 0.79388 0.3769 0.70636 0.43737 1.4968 0.16739 2.1644-0.99152 2.4589-4.5953 6.6937-5.0404 7.2106l0.29465 0.19872c1.8885 1.2724 3.9764 2.2082 7.1753 3.2186 1.6614 0.42854 15.754 4.1958 17.666 9.0793l0.53937-0.79388-0.63628-0.77627c-0.15838-0.23122-3.8822-5.6948-3.941-8.442-3e-3 -0.16351-1e-5 -0.33675 8e-3 -0.5149h-10.01c-0.5326 0-0.96519-0.4313-0.96519-0.96324l6.7e-4 -23.672c-0.016-0.39828-0.33227-9.8192 4.8788-17.636 0.33613-0.4718 8.3361-11.585 17.631-12.489 0.0314 0 0.16272 0.0019 0.1948 0.0059 9.1999 0.89814 17.201 12.012 17.554 12.507 5.1957 7.7926 4.8785 17.215 4.8632 17.572v23.711c0 0.53194-0.43161 0.96324-0.96421 0.96324h-8.3696l-0.97791 6.6203-1.3205 2.2975c4.8232-3.1944 13.219-5.4388 14.454-5.7559 3.2297-1.0191 5.3184-1.9537 7.2096-3.2294l0.3201-0.21634c-0.0345-0.0361-0.0661-0.0714-0.1018-0.10767-0.1664-0.19313-4.0993-4.7634-5.1304-7.3202-0.26864-0.66626-0.20817-1.4544 0.16739-2.1634 0.10158-0.19113 0.23969-0.48417 0.31521-0.79291 0.0461-0.18711 0.0114-0.37735-0.0989-0.5384-0.12497-0.18377-0.33102-0.3047-0.56091-0.33478-0.87742-0.10959-2.4038-0.58805-2.7546-2.5207-0.19847-0.7705-0.11647-2.5129 1.623-3.5975 0.3221-0.20047 0.73047-0.54338 0.84674-1.0406 0.13098-0.54864 0.201-1.5582-0.20263-3.2509-0.23657-0.98569-0.10993-1.833 0.37589-2.5207 0.80994-1.1454 2.4222-1.5385 3.6317-1.6661 0.20315-0.0227 0.40639-0.0333 0.60888-0.0333 0.72038 0 1.4249 0.13698 2.0664 0.40428 2.8949 1.2089 7.695 5.1777 7.3114 18.155-4e-3 0.49518-0.15691 12.144-6.3403 14.267l-0.44345 0.1527c-1.6796 0.94555-3.3345 1.8104-4.5049 2.4061 1.4123 0.57093 2.891 1.373 4.4354 2.505 0.0935 0.0738 2.1577 1.72 1.9049 3.9968 0.0592 0.0545 0.10633 0.12443 0.13313 0.20459 0.22781 0.67668 0.53253 1.8168 0.67544 2.6283 1.1133-2.5789 2.7272-2.4508 2.7272-2.4384 0.0942-7e-3 0.18548-0.0118 0.27703-0.0118 0.77117 0 1.436 0.25509 1.9813 0.75962 1.4521 1.3466 1.469 4.0238 1.4684 4.1535-1e-3 0.0588-0.26121 5.8685-6.1573 7.1362-2.0482 0.44439-3.6218 0.21127-4.6723-0.68621-1.3679-1.1668-1.2844-3.0011-1.2804-3.0786l0.0274-0.25941c0.0298-0.22083 0.0954-0.43008 0.18698-0.62356-0.0287-0.061-0.045-0.12762-0.046-0.19774l-3e-3 -0.19382c0-0.49719 0.0377-1.0917 0.11257-1.764 0.30828-2.7593-0.27744-5.4228-1.7415-7.9183-0.13909-0.0466-0.27956-0.093-0.42582-0.13508-2.9497-0.85203-5.8108-0.44449-7.6031 4e-3 1.0826 0.26865 2.9888 0.89606 5.1774 2.2867 2.3262 1.4809 2.5923 3.3458 2.5442 4.3248-0.0374 0.82196-0.62346 1.4884-1.4214 1.6201l-1.0513 0.17523c-0.0334 7e-3 -0.0633 0.0126-0.0881 0.0186 3.8238 1.4214 2.7039 5.592 2.2221 7.3917-0.41566 1.5437-0.87769 2.299-2.3699 2.1927-0.25127 0.22721-0.38696 1.1138-0.40233 1.7894-0.72172 2.9404-4.2198 3.0718-4.8299 3.0718h-0.11355c-2.2333 0-4.1922-1.5373-4.7682-3.7472-0.52459-2.0101-0.33391-4.3464 0.57559-6.958l0.10376-0.27605c0.0434-0.11026 0.0824-0.20516 0.13117-0.3896 8e-3 -0.0414 0.72223-4.1865-1.8452-6.7994-0.4631-0.47046-0.98911-0.8427-1.6534-1.1688-0.11026-0.0555-0.32403-0.0766-0.53252-0.0812 0.0187-0.0267-1.1606-0.0297-3.2382 3.5348-0.70635 1.2122-1.443 2.2131-2.1614 2.9455-0.0966 0.11629-1.9328 2.2453-5.7412 2.0009 0.15867 0.71367 0.25232 1.3006 0.27704 1.7454 0.0989 1.8491-0.56156 2.976-0.5756 2.9974-0.0146 0.0287-0.23688 0.47784-0.7097 0.82424l0.0323 0.10376c0.31875 1.0117 1.8429 2.3794 1.8589 2.3934l0.10181 0.09v0.64412l0.092 0.0685c0.11427 0.0842 2.8196 2.0946 2.7066 4.501l-0.0265 0.55112-1.6455-0.69013c0.0368 0.24859 0.11116 0.57268 0.2555 0.94758 0.41967 1.0772 0.17335 2.3222-0.0812 2.8535l-0.2966 0.6216-0.37394-0.57658s-0.87631-1.3458-1.1189-1.7033l-0.3524-0.29955c-0.20783 4.8636-2.3488 5.3717-2.4443 5.3918zm-62.009-0.48945-2.457-3.293 6.2199-10.869-12.188 2.8731-2.457-3.292 1.3284-0.99261 0.95149 1.2726 8.8287-6.589-0.95051-1.2735 1.3293-0.99359 3.0914 4.1427-1.3303 0.99359-0.95051-1.2745-7.2341 5.3986 11.351-2.6577 1.0278 1.3773-5.7775 10.127 7.2331-5.4006-0.94855-1.2745 1.3274-0.99162 3.0933 4.1407-1.3303 0.99358-0.95149-1.2736-8.8267 6.589 0.94953 1.2735zm125.09-0.0744-1.2452-1.0954 1.0474-1.1933-8.2736-7.2742-1.0513 1.1933-1.2442-1.0954 3.4115-3.8843 1.2461 1.0973-1.0504 1.1943 8.2776 7.2722 1.0484-1.1933 1.2471 1.0964zm-61.963-0.7978c0.53862-0.61013 1.2274-1.977 1.2207-4.9855l-2e-3 -0.83598 1.6749 1.436c0.15838 0.2212 0.46398 0.68171 0.72928 1.0827 0.0581-0.44106 0.0515-0.98656-0.14096-1.4811-0.42034-1.0846-0.33586-1.8314-0.33185-1.8628l0.0607-0.50609 1.5927 0.66761c-0.28335-1.5383-1.8564-2.8748-2.2573-3.1922l-7.1283-0.16445c-0.26196 0.13165-1.1918 0.66538-1.532 1.7072-0.20716 0.63351-0.15997 1.3481 0.13607 2.134 0.21986-0.70301 0.61686-1.5118 1.3205-1.7444l0.55209-0.18209-0.047 0.5805c-0.0742 0.90415 0.0224 2.4922 0.62454 2.9259 0.0341 0.0287 0.61007 0.52439 0.93484 1.2334l0.0196-0.0303c0.15638-0.27199 0.42252-0.80899 0.46596-1.0836l0.12823-0.79781 0.77529 0.87416c0.0635 0.0996 1.3397 2.1607 1.204 4.2249zm66.834-4.4148-1.3881-0.90744 0.835-1.2804-7.7431-11.319 0.93974-1.437 13.472 2.5393 0.84186-1.2902 1.3881 0.90645-2.8222 4.3277-1.39-0.90647 0.84088-1.2882-10.575-2.1174 6.1896 8.8355 0.84577-1.2961 1.39 0.90744zm-45.854-4.9131h0.0225c0.0181 1e-3 3.3235 0.0751 3.8882-2.1663 0-0.2947 0.0348-1.7999 0.72438-2.4267 0.23857-0.21718 0.53925-0.32188 0.85066-0.2878 0.57738 0.0595 0.8188 0.0813 1.2178-1.4116 0.72439-2.6944 1.0105-5.312-1.7708-6.2248l-0.13313-0.044-0.094-0.1067c-0.0802-0.0922-0.4714-0.58271-0.28094-1.114 0.0896-0.24592 0.32856-0.56136 0.97009-0.66762l1.0504-0.1762c0.31742-0.0528 0.55012-0.3211 0.56482-0.6539 0.0455-0.92554-0.27809-2.2668-2.0704-3.4075-3.1174-1.9834-5.6671-2.32-5.6551-2.32l-3.8167-0.19186 2.2848-0.87123 1.4703-0.53643c1.7769-0.53929 5.307-1.2876 8.9785-0.22906 2.8201 0.8126 4.4392 2.4186 5.3487 3.7785 4e-3 -0.0234 9e-3 -0.0464 0.0147-0.0705l0.0323-0.1576c0.39027-1.8237-1.4617-3.3079-1.4664-3.3126-5.1222-3.753-9.3569-3.7081-13.106-3.664l-1.0464 9e-3c-0.56936 1e-3 -1.1632 0.049-1.7659 0.14194-3.9949 0.62348-7.4401 3.338-9.2144 7.2654l-1.0181 2.2515c-0.48248 1.0044-2.348 4.2889-6.0682 4.3845-0.0849 0.0114-1.2726 0.15956-2.8182 0.15956-0.11828 0-0.23861-6.2e-4 -0.36023-2e-3l0.72438 0.28388c5.6635 2.248 8.2428-0.67708 8.3745-0.83011 0.6863-0.70368 1.3729-1.6361 2.0351-2.7762 2.2768-3.9046 3.7337-4.1101 4.2562-4.0399 0.15771 1e-3 0.53741 0.0244 0.85751 0.18011 0.76115 0.37423 1.3917 0.82378 1.9324 1.3724 2.9363 2.9885 2.1593 7.512 2.0958 7.8067-0.0448 0.18578-0.0971 0.32458-0.15858 0.48162l-0.0969 0.24864c-0.83333 2.4017-1.017 4.5369-0.54525 6.3472 0.46644 1.7843 1.9806 2.9778 3.7922 2.9778zm-42.822-1.6103c0.0748 1e-3 0.0532-6.7e-4 0.0666-6.7e-4 1.7923 0 3.3059-1.1929 3.7717-2.9758 0.47247-1.8103 0.28917-3.946-0.49336-6.2414l-0.14879-0.35535c-0.0615-0.15637-0.11538-0.29463-0.14879-0.44833l-0.0382-0.13607c-0.0354-0.19112-0.81182-4.7152 2.1252-7.7029 2.5087-2.5568 5.5594-1.8883 5.6884-1.8609l0.1439 0.0568c0.0682 0.0394 0.14056 0.0794 0.2134 0.11551-0.65422-0.95428-4.2077-5.7774-10.012-6.8934-4.2087-0.80726-8.6658 0.48533-13.237 3.8353-0.0194 0.0154-1.8716 1.498-1.482 3.3224l0.0333 0.15858c5e-3 0.0227 9e-3 0.0448 0.0147 0.0695 0.90282-1.3512 2.5233-2.9639 5.3487-3.7786 3.6721-1.0572 7.2008-0.31037 8.997 0.23493l3.7365 1.4018-3.7815 0.1899c-0.0247 3e-3 -2.5729 0.33953-5.6903 2.3229-1.7916 1.1387-2.1164 2.482-2.0723 3.4075 0.0167 0.33146 0.24967 0.60112 0.56776 0.65391l1.0474 0.17522c0.64287 0.10692 0.88352 0.42266 0.97107 0.66858 0.19112 0.53127-0.20076 1.0195-0.28095 1.113l-0.092 0.10572-0.13411 0.044c-2.7813 0.91418-2.4962 3.5324-1.7718 6.2268 0.40096 1.4916 0.64171 1.4677 1.2178 1.4116 0.32344-0.0334 0.61209 0.0693 0.85066 0.28583 0.68898 0.62683 0.72508 2.1329 0.70971 2.3053 0.54262 2.2153 3.4911 2.2887 3.8794 2.2887zm56.624-6.1896c0.51702 9e-3 1.0989-0.0563 1.7434-0.19382 5.0988-1.0973 5.3361-5.96 5.3428-6.1485 0-0.64687-0.2049-2.514-1.1385-3.3821-0.39561-0.36687-0.88414-0.52746-1.5584-0.47868-0.0187-0.0127-1.3414-0.0573-2.1634 2.9191-0.79991 2.9069-3.1223 3.237-4.084 3.245-0.10446 3.9e-4 -0.20596 0.0166-0.30248 0.0451-7e-3 2e-3 -0.0138 5e-3 -0.0206 7e-3 -0.39912 0.12636-0.70845 0.47586-0.76745 0.90744l-0.0196 0.18795c-4e-3 0.12229-0.0122 1.4441 0.928 2.2407 0.49577 0.41974 1.1783 0.63667 2.04 0.65096zm41.103-1.7884-1.529-0.64411 0.61768-1.4634-10.148-4.2778-0.61671 1.4644-1.529-0.64509 4.4471-10.553 3.1217 1.3156-0.77235 1.8315-1.5927-0.66957-2.2867 5.4241 4.4491 1.8746 2.2583-5.3604 1.528 0.64509-2.2573 5.3595 4.1701 1.7571 2.2485-5.3321-1.5946-0.67055 0.77333-1.8325 3.1227 1.3146zm-111.42-0.25451c0.90349 0 1.6169-0.21655 2.1301-0.65292 0.94024-0.79523 0.93133-2.1171 0.92799-2.2388l-0.0196-0.18599c-0.0748-0.54463-0.54318-0.95891-1.0905-0.96225-0.96096-7e-3 -3.2824-0.33447-4.0849-3.2441-0.81327-2.9504-2.1318-2.9137-2.2387-2.9191-0.59943-0.0434-1.0831 0.11083-1.4801 0.47771-1.124 1.0398-1.142 3.3601-1.1434 3.3654 0.0027 0.0514 0.22787 5.0641 5.3467 6.1661 0.60611 0.12897 1.1579 0.19382 1.6524 0.19382zm33.21-3.2421c1.6955 0.0278 3.0786-0.14406 3.1325-0.14782 0.91118-0.0245 1.6876-0.2697 2.3484-0.62747l-0.29465-0.14194c-10.921-4.1589-11.928-3.1606-12.006-3.0316-0.11828 0.19246 0.33163 1.155 1.9421 2.6058 0.0935 0.0835 0.18937 0.15316 0.29562 0.21732l1.2295 0.73906 0.18306 0.0421c1.0232 0.23957 2.1524 0.3279 3.1697 0.34458zm-76.113-2.6499s-1.5367-1.4831-2.5324-4.3218c-1.2744-3.6313 0.12987-5.4265 1.856-6.032 1.9333-0.67895 3.7065 0.11994 5.6825 3.3978 1.4434 2.3957 2.4056 3.0539 3.6807 2.6068 1.2623-0.44439 2.1291-1.4142 1.2363-3.9616-0.73108-2.0823-1.8031-3.2646-1.8031-3.2646l-1.3274 0.46595-0.65978-1.8775 2.2622-0.7929s1.8878 1.4881 3.0933 4.9209c1.1254 3.2056 0.4778 5.4674-2.1438 6.3883-2.377 0.83199-4.009-0.43831-5.9008-3.5671-1.3031-2.1471-2.2258-2.8734-3.4614-2.4404-1.2263 0.43036-1.6562 1.5888-0.94855 3.6063 0.61146 1.7455 1.3274 2.6381 1.3274 2.6381l1.4615-0.51392 0.6588 1.8785zm80.137-0.27507-0.20557-10.167c-0.68686-0.56958-2.4444-1.9896-3.7648-2.7311-0.96563-0.54396-1.4027-0.36695-1.531-0.14977l-5.566 8.1924c0.0197 0.0764 0.0295 0.15345 0.0323 0.23102zm-11.614-0.1576c-0.2566-0.54702-0.27507-1.0049-0.0519-1.3695 0.22253-0.36153 0.65068-0.64901 1.6651-0.64901 0.57527 0 1.3454 0.0948 2.367 0.31716l-4.3336-1.8521c-7e-3 -3e-3 -0.73109-0.4285-1.4889 6e-3 -0.60478 0.35084-0.11182 1.4455-0.0744 1.5564 9e-3 0.026 0.21764 0.55447 1.9167 1.9911zm91.547-7.8704-1.621-0.34653 0.33087-1.5535-10.77-2.2955-0.33087 1.5535-1.6211-0.34653 1.0758-5.0521 1.6211 0.34555-0.32989 1.5535 4.1036 0.87709 0.65292-3.06-5.012-4.5724 0.57755-2.7076 1.6211 0.34653-0.33087 1.5535 3.6366 3.3096c0.83131-2.0302 2.5519-3.2978 4.8788-2.8026 2.4231 0.51724 3.8048 2.467 3.1178 5.6913zm-76.64-1.3685c-0.11566-0.0679-0.22473-0.13754-0.31716-0.20949l-0.75865-0.7518c-1.0258-0.99303-1.836-1.9604-1.8834-2.0185l-3.4183-4.5333c-0.0261-0.0287-2.6808-2.9585-3.8275-3.7257-1.0171-0.67628-2.0298-0.46304-2.1066-0.44833-0.0769 0.0114-1.8836 0.29552-1.8061 2.2769 0.0896 2.2393 1.6295 4.2731 1.6876 4.36 0.41016 0.77813 1.1103 1.9756 1.6328 2.6381l1.1659-1.714c0.0214-0.0461 0.22611-0.45764 0.76941-0.63139 0.15971-0.0521 0.32958-0.0764 0.51001-0.0764 0.45709 0 0.97898 0.16365 1.5604 0.49043 1.0695 0.60152 2.386 1.6031 3.2676 2.3073v-7e-3l1.0044 0.63237c0.012 8e-3 1.1305 0.70691 2.5197 1.4106zm3.2039-0.12433c0.37928-7e-3 0.71931-0.0633 0.98085-0.17228-1.4636 0.0319-3.0286-1.2169-3.2715-1.4223-1.9429-2.13-4.8794-6.016-6.3619-8.0123h-0.0235l2e-3 -0.0293c-0.54961-0.74035-0.90951-1.2328-0.91332-1.2393-1.3913-1.5417-2.5755-2.0947-2.6156-2.1134-0.4317-0.23122-0.84599-0.43401-1.2403-0.61377-1.1888-0.54129-2.53-0.4937-3.6787 0.13313-1.116 0.61146-1.8571 1.6767-2.0342 2.923-0.0748 0.5326-0.10853 1.0158-0.0998 1.4341 0.0528 2.4599 3.7352 7.863 3.7472 7.8831l0.43169 0.52469 0.53546-0.78801c-0.77549-0.87676-1.6994-2.5957-1.8707-2.9338-0.0708-0.0922-1.7365-2.282-1.8354-4.822-0.0889-2.2474 1.661-3.0972 2.5598-3.2255 0.024-7e-3 0.2702-0.0607 0.64509-0.0607 0.53996 0 1.3474 0.11306 2.1487 0.64901 1.2423 0.82864 3.8898 3.7494 4.0282 3.9058l3.4291 4.547c8e-3 0.01 0.81467 0.97206 1.807 1.9324l0.71851 0.71949c0.63151 0.487 1.8984 0.80038 2.9112 0.78116zm72.559-2.3503 0.85556-4.0076c0.41433-1.9446-0.3205-2.96-1.9323-3.3028-1.416-0.30273-2.6966 0.282-3.1109 2.228l-0.85458 4.0047zm-164.35-1.2941-1.7777-11.223 1.6406-0.25941 0.24864 1.5702 10.888-1.7238-0.24864-1.5721 1.6397-0.25843 1.7924 11.323-3.3488 0.52958-0.31227-1.9656 1.7101-0.27115-0.92212-5.8186-4.7721 0.75376 0.91038 5.753-1.6387 0.25745-0.91038-5.7491-4.4765 0.70775 0.90646 5.7207 1.7092-0.27116 0.30933 1.9676zm118.83-0.98086c4.194-3.0847 4.3176-12.498 4.3189-12.612 0.37891-12.837-4.5453-16.295-6.679-17.186-0.66025-0.27666-1.4074-0.3784-2.1712-0.29954-0.81728 0.0869-2.2797 0.36288-2.8985 1.2383-0.3114 0.44171-0.38304 0.99293-0.21731 1.6886 0.36286 1.5156 0.43144 2.7698 0.20557 3.7247-0.15571 0.66358-0.60819 1.2438-1.3059 1.6788-1.519 0.94559-1.1837 2.4065-1.161 2.5021 0.1831 1.0091 0.81495 1.5879 1.8795 1.7209 0.52124 0.0655 0.98605 0.34863 1.2794 0.77431 0.27732 0.40697 0.3659 0.89141 0.24962 1.3665-0.0815 0.33012-0.21878 0.67732-0.40723 1.0288-0.23188 0.43838-0.2761 0.91146-0.1204 1.297 0.96697 2.3977 4.9143 6.9862 4.9317 7.007 2.4752 2.5167 2.4988 4.6989 2.0958 6.0702zm-71.298-1.4703c-0.4043-1.3699-0.38393-3.5454 2.0753-6.0447 0.0408-0.0448 3.9879-4.6334 4.9542-7.0304 0.15638-0.38693 0.11184-0.85862-0.12138-1.299-0.18979-0.35752-0.32605-0.70374-0.40624-1.0278-0.11628-0.47514-0.0281-0.95891 0.25059-1.3665 0.2927-0.42502 0.75782-0.70785 1.2804-0.77334 1.0632-0.13499 1.6952-0.71392 1.8863-1.7591 5e-3 -0.0147 0.3702-1.5082-1.1688-2.4658-0.69834-0.43503-1.1502-1.0176-1.3058-1.6778-0.22588-0.95561-0.1573-2.2098 0.20556-3.7247 0.16573-0.69566 0.0941-1.2479-0.21731-1.6896-0.61948-0.87542-2.0826-1.1514-2.8985-1.2383-0.75246-0.0789-1.5096 0.0235-2.1712 0.29954-2.1358 0.89012-7.0586 4.347-6.679 17.198 0 0.10425 0.1233 9.5134 4.316 12.599zm15.003-5.4397h9.3475c0.38645-1.1781 1.2033-2.1651 2.3278-2.7791 0.76316-0.41833 1.5959-0.62943 2.4326-0.62943 0.71571 0 1.4326 0.15424 2.1095 0.46498 0.41031 0.18711 0.84173 0.39763 1.2647 0.62551 0.0508 0.0226 1.1568 0.53339 2.55 1.9598v-21.388h-20.032zm21.316 0h19.949l6.6e-4 -12.525-9.697 9.5736-10.253-10.136zm73.571-3.4252-2.3973-0.0646s-1.2328-2.0622-1.1326-5.6982c0.0915-3.3954 1.5018-5.2777 4.2778-5.2009 2.518 0.0695 3.589 1.836 4.2406 5.4319 0.45241 2.4719 1.0543 3.4778 2.3621 3.5133 1.2978 0.0354 2.1131-0.89028 2.1712-3.0287 0.0501-1.8471-0.29955-2.9386-0.29955-2.9386l-1.5476-0.0402 0.0548-1.9881 2.6264 0.0734s0.90674 1.9331 0.82521 4.9376c-0.10558 3.8472-2.0556 5.0229-3.8833 4.9728-2.0476-0.0561-3.4207-1.4319-4.0977-5.1989-0.49317-2.7519-1.1584-3.7085-2.507-3.7472-1.3372-0.0367-2.4932 0.56201-2.5667 3.2578-0.0595 2.2086 0.52078 3.6924 0.52078 3.6924l1.4047 0.0392zm-63.318-2.4815 0.52762-1.622h1.7062l-1.3802-1.0034 0.52763-1.622-1.3812 1.0024-1.3793-1.0024 0.52764 1.622-1.3802 1.0034h1.7062zm-25.303-0.60006-0.62552-0.46694 0.29661-0.39743-2.7448-0.8722 2.1379-3.0111 1.7571 2.3435 2.4727-3.3116-4.2739-5.7256 0.62551-0.46595 4.1358 5.5386 4.1349-5.5386 0.62454 0.46595-4.2729 5.7246 2.4727 3.3116 1.7571-2.3425 2.1379 3.0111-2.7448 0.8722 0.2966 0.39743-0.62649 0.46694-0.45813-0.61377-0.6725 0.2134-0.58146-0.81543 0.4033-0.53741-2.4717-3.3116-2.4717 3.3116 0.40331 0.53741-0.58147 0.81543-0.6725-0.2134zm-56.826-0.0421-1.6573-0.10964 0.10572-1.5878-10.999-0.73026-0.10572 1.5878-1.6553-0.11062 0.27213-4.1035 11.797-4.2161-11.135-5.7442 0.27213-4.1016 1.6583 0.11062-0.10572 1.5868 10.997 0.73124 0.10572-1.5868 1.6573 0.10964-0.34261 5.1608-1.6583-0.11061 0.1067-1.5868-9.0127-0.60007 10.36 5.3614-0.11453 1.716-10.977 3.941 9.0127 0.59908 0.10572-1.5858 1.6563 0.11062zm82.121-5.4818 8.954-9.7156h-18.274zm59.91-3.7042-0.54329-5.1343 1.6494-0.17522 0.16641 1.578 10.949-1.1541-0.16739-1.5799 1.6485-0.17424 0.54329 5.1363-1.6494 0.17425-0.16642-1.578-10.947 1.1541 0.16543 1.5809zm-91.474-7.2977h20.035v-12.254l-10.107 9.9779-8.2032-8.1092c-1.6783 4.95-1.7353 9.3961-1.7248 10.385zm21.319 0h19.952c0.0158-1.231-0.0482-9.475-4.5264-16.192-0.0742-0.10545-7.422-10.312-15.425-11.596v4.0634l6.6e-4 -1e-3 8e-3 10.195-9e-3 9e-3zm80.441-0.85751-0.46498-1.9333 1.6827-0.40624-0.7841-3.2588-10.718 2.5784 0.371 1.5467-1.6152 0.38764-1.2099-5.0286 1.6142-0.38764 0.37394 1.5457 10.718-2.5794-0.78312-3.2578-1.6837 0.40625-0.46596-1.9372 3.2989-0.79291 2.9641 12.323zm-150.72-1.6436-1.5809-0.50218 0.46791-1.4664-10.421-9.002 1.2178-3.8246 1.579 0.50315-0.48162 1.5134 11.915-1.1414 0.46596-1.4664 1.579 0.50512-1.5662 4.919-1.5799-0.50315 0.46791-1.4654-2.9455 0.25745-1.8452 5.7961 2.2534 1.9108 0.46302-1.4556 1.579 0.50512zm75.571-1.1287-0.62552-0.46694 0.29759-0.39841-2.7458-0.87122 2.1379-3.0111 1.7571 2.3425 2.4727-3.3116-4.2729-5.7236 0.62454-0.46791 4.1349 5.5396 4.1358-5.5396 0.62552 0.46791-4.2739 5.7246 2.4727 3.3116 1.7571-2.3435 2.1379 3.0111-2.7458 0.87221 0.29661 0.39742-0.62453 0.46694-0.45911-0.61475-0.67153 0.2134-0.58244-0.81444 0.4033-0.5384-2.4707-3.3096-2.4717 3.3096 0.4033 0.5384-0.58146 0.81444-0.6725-0.2134zm-16.679-1.5829 0.52762-1.623h1.7043l-1.3793-1.0024 0.52763-1.622-1.3802 1.0024-1.3793-1.0024 0.52567 1.622-1.3793 1.0024h1.7062zm-62.991-4.3267 1.4302-4.4824-6.0731 0.53938zm33.254-1.255c-0.19791-6e-3 -0.38926-0.10803-0.50805-0.28094-0.1557-0.22521-0.15104-0.52869 0.01468-0.74788 0.8126-1.0886 2.8145-4.0574 3.3243-5.984l-6.2698-0.70285c-0.25795-0.0287-0.47338-0.20917-0.54623-0.4591-0.07217-0.24859 0.01226-0.51697 0.2134-0.67935l8.5145-6.8748 0.20166-0.19186-1.8824-2.689 0.42973-0.37981c9.9932-8.8478 22.857-13.821 36.222-14.003 0.25528-0.0033 0.50734-0.0049 0.76061-0.0049 13.703 0 26.852 4.9973 37.094 14.116l0.417 0.371-1.626 2.4561 8.7416 7.0921c0.20114 0.16239 0.2849 0.43077 0.21339 0.67936-0.0728 0.24993-0.28894 0.43037-0.54622 0.4591l-6.2708 0.70383c0.50854 1.9259 2.5104 4.8954 3.3224 5.984 0.16573 0.22119 0.17137 0.52263 0.0156 0.74984-0.15838 0.2272-0.4445 0.33408-0.70579 0.25255-6.7334-1.9192-12.556-7.5259-14.519-9.5795l-0.0519 6e-3 -0.13607-0.20361c-0.29153-0.30994-0.4781-0.52005-0.51882-0.56678-0.18109-0.20449-0.21134-0.50117-0.0763-0.73907l1.9725-3.48c-7.9106-5.7696-17.408-8.8933-27.32-8.8933-0.21251 0-0.42605 0.0016-0.63922 0.0029-9.5719 0.12964-18.783 3.2005-26.468 8.7239l2.1262 3.7541c0.13566 0.23723 0.10604 0.53489-0.0744 0.74004-0.28669 0.32745-7.1007 8.0289-15.227 10.343-0.06499 0.02-0.13177 0.0285-0.19774 0.0264zm29.727-0.55894 10.116-10.977v-5.4574c-7.1939 1.1421-13.778 9.3138-15.18 11.154zm-28.068-1.3205c5.3715-2.1222 10.013-6.4632 11.895-8.3813l-5.0276-0.58539-7e-3 -0.0254-0.0245 0.0225-2.8163-4.0233-7.4445 6.0506 5.4202 0.6079c0.34548 0.0394 0.59845 0.34463 0.56971 0.69012-0.13231 1.6426-1.5289 4.0552-2.5647 5.6443zm78.009-0.10963c-1.0358-1.5885-2.4311-4.0005-2.5647-5.6424-0.0287-0.34483 0.22422-0.65137 0.56971-0.69013l5.4221-0.60887-7.3985-5.9762-0.0597-0.05678-2.9034 4.3874-0.0108-0.0108-0.046 0.16739-4.4393 0.51588c2.1162 2.0891 6.4656 5.9539 11.431 7.9144zm26.877-1.0112-2.0567-4.7359 1.5202-0.65978 0.63237 1.4566 3.9205-1.7023 4.3874-6.7955-0.57363-1.3205 1.5202-0.66076 2.0567 4.7379-1.5192 0.65978-0.56482-1.3-3.2049 4.8544 5.7344 0.97106-0.56776-1.3107 1.5202-0.65978 2.0576 4.7349-1.5212 0.66174-0.56776-1.3108-7.9653-1.439-3.9215 1.7023 0.63237 1.4566zm-131.32-5.9341c-0.79205-0.0204-1.6798-0.2973-2.6841-0.83598l-7.1851-3.8471-0.74984 1.3979-1.4615-0.78214 2.4404-4.5538 1.4605 0.78508-0.75082 1.3998 7.1841 3.849c1.8584 0.99571 2.9954 0.87945 3.9156-0.83597 0.70702-1.3218 0.37335-2.2599-0.29758-3.0845l1.3039-1.3519c1.1554 1.2089 1.7295 2.8415 0.45714 5.2185-0.95778 1.7853-2.1206 2.6801-3.6327 2.6411zm97.274-3.6121 3.801-5.7432c-10.132-8.8364-23.14-13.602-36.566-13.418-12.865 0.17508-25.256 4.8952-34.957 13.303l3.9352 5.6189c8.5764-7.6456 19.596-11.932 31.114-12.087 0.21986-2e-3 0.43832-0.0029 0.65684-0.0029 11.889 0 23.207 4.3589 32.016 12.329zm-2.1076-4.0977-1.1463-0.79291 0.30347-0.43953 0.29072 0.20165 0.0314-1.2589-1.1727 0.46596 0.29268 0.20263-0.30443 0.43953-1.1443-0.79389 0.30346-0.43855 0.2917 0.20068 1.7591-0.67544 0.43561-0.62552-0.31129-0.21536 0.30444-0.43855 1.1453 0.79487-0.30443 0.43952-0.30933-0.21634-0.43366 0.62356-0.0186 1.8863 0.29171 0.20263zm-59.78-0.29269-0.29955-0.4405 0.31129-0.21046-1.2961-1.9098-0.31129 0.21242-0.29856-0.43952 1.1463-0.7792 0.29758 0.43855-0.30933 0.21046 0.40722 0.60202 0.48749 0.04405-0.0245-1.8785 0.66272-0.45029 0.29856 0.43953-0.31129 0.21144 0.0147 1.7366 1.3528 0.12432 0.23983-0.1625 0.29954 0.43757-1.1473 0.78018-0.29758-0.43855 0.21046-0.1439-1.4028-0.13607 0.50609 0.74494 0.31129-0.21144 0.29856 0.43953zm56.614-1.8795-2.6391-1.6064 0.46791-0.77039 0.54525 0.33283-0.18991 0.31227 0.50218 0.30737 1.205-1.9832-0.32205-0.19676 0.278-0.45617 1.1903 0.72634-0.278 0.45617-0.32206-0.19774-1.207 1.9823 0.50218 0.3064 0.19089-0.31325 0.54524 0.33087zm-53.555-0.17914-0.26821-0.46204 0.32695-0.19088-1.1639-2.0067-0.32695 0.18991-0.26822-0.46204 1.205-0.69893 0.2692 0.46106-0.32695 0.19088 0.98673 1.7023 0.0587-2.9269 0.70285-0.4082 1.4321 2.4698 0.32695-0.18991 0.2692 0.46302-1.207 0.69893-0.26724-0.46302 0.32695-0.18893-0.98673-1.7043-0.0597 2.9289zm50.185-1.9891c-0.21123-0.0077-0.44986-0.07707-0.71655-0.21536l-1.6074-0.83598 0.24668-0.47379 0.33576 0.17424 1.069-2.0567-0.33479-0.17424 0.24767-0.47379 1.2344 0.64412-0.2457 0.47281-0.33478-0.17522-0.33087 0.63726 0.53546 0.27899 1.2168-0.77724 0.69893 0.36415-0.2457 0.47281-0.33772-0.1762-0.74788 0.47379c0.31809 0.3054 0.49593 0.73347 0.21927 1.2647-0.19734 0.38066-0.49929 0.59029-0.90254 0.57559zm-45.936-0.48749c-0.67269 0.01659-1.2222-0.37521-1.5349-1.0337-0.43571-0.91752-0.18048-1.8594 0.86534-2.3552 1.0458-0.49718 1.9372-0.10014 2.3728 0.81738 0.43504 0.91552 0.18111 1.8597-0.86338 2.3562-0.29414 0.13983-0.57667 0.20887-0.8399 0.21536zm45.847-0.08223c0.18097 0.0039 0.31471-0.09615 0.42289-0.30248 0.17174-0.33146 0.083-0.55905-0.31129-0.76354l-0.70579-0.36806-0.49337 0.94757 0.70579 0.36807c0.14785 0.07643 0.27319 0.1161 0.38177 0.11845zm-45.793-0.4777c0.17216 8.69e-4 0.3583-0.04209 0.55601-0.13607 0.70435-0.33413 0.81469-0.96133 0.51197-1.5995-0.30406-0.63752-0.85994-0.9479-1.5643-0.61377-0.70368 0.33346-0.81407 0.96066-0.51001 1.5995 0.21711 0.45822 0.56635 0.74755 1.0063 0.74984zm43.067-0.23885-2.7047-1.1972 0.21438-0.48553 0.34458 0.15173 0.93386-2.1125-0.34359-0.15173 0.21535-0.48651 2.7272 1.205-0.36317 0.81934-0.58049-0.25647 0.14683-0.33283-1.2207-0.53937-0.37295 0.84185 1.1982 0.53154-0.21438 0.48553-1.2001-0.53056-0.34457 0.7841 1.1992 0.53056 0.14683-0.33478 0.57951 0.25745zm-40.657-0.30542-0.1899-0.49924 0.33282-0.12628-0.18697-2.9749 0.57364-0.21634 1.5085 2.1066-0.26527-2.5774 0.57461-0.21634 1.8266 2.3543 0.33576-0.12628 0.18795 0.49826-1.3019 0.49141-0.18893-0.49826 0.33772-0.12726-1.1042-1.4889 0.232 2.3885-0.64901 0.2457-1.4057-1.9441 0.15663 1.8472 0.33772-0.12726 0.18795 0.49826zm37.019-1.3342c-0.16824-0.0018-0.36421-0.03925-0.59125-0.12138l-1.8374-0.66076 0.17913-0.49924 0.35437 0.12726 0.7792-2.1673-0.3524-0.12824 0.17913-0.49826 1.8364 0.65978c0.83199 0.30005 1.0459 0.83076 0.86143 1.346-0.14902 0.41566-0.48331 0.56109-0.87023 0.52567 0.19112 0.14167 0.40375 0.45785 0.2594 0.85947-0.11911 0.33046-0.36785 0.56161-0.7978 0.55699zm-31.95-0.52077-0.1488-0.51196 0.36318-0.10474-0.64706-2.226-0.36317 0.10376-0.14977-0.51196 2.6156-0.75865 0.25059 0.86339-0.61279 0.17718-0.1018-0.35142-1.0269 0.29856 0.64608 2.226 0.36317-0.10572 0.14879 0.51294zm31.811-0.04405c0.17492 6.69e-4 0.29499-0.08778 0.36023-0.27018 0.0969-0.26597-0.0243-0.45442-0.35045-0.5707l-0.88687-0.31814-0.2829 0.7841 0.88785 0.31912c0.10191 0.03696 0.19263 0.05549 0.27214 0.0558zm-2.7292-0.31912-1.3372-0.38667 0.14879-0.51196 0.36317 0.10572 0.64412-2.225-0.3622-0.10474 0.14684-0.51294 1.3372 0.38764-0.14879 0.51099-0.36122-0.10278-0.64411 2.2241 0.36121 0.10474zm-26.094-0.48651-0.11356-0.52077 0.37003-0.08027-0.49337-2.2681-0.37003 0.08027-0.11159-0.52077 2.925-0.63628 0.1899 0.88003-0.62355 0.13509-0.0764-0.3573-1.3098 0.28388 0.19675 0.90548 1.2863-0.27996 0.11355 0.52273-1.2872 0.27996 0.18403 0.8399 1.2853-0.27996-0.0773-0.35828 0.62258-0.13509 0.19284 0.87807zm23.054-0.34751-1.347-0.31814 0.12138-0.5149 0.36611 0.08516 0.5286-2.2436-0.36611-0.08419 0.12138-0.51588 2.6313 0.61964-0.20458 0.87024-0.61671-0.14586 0.0832-0.35436-1.0327-0.24277-0.5286 2.2417 0.36512 0.08614zm6.307-0.11649c0.21192-5.49e-4 0.33427-0.11216 0.40135-0.30052 0.0996-0.27198 0.0264-0.48853-0.43267-0.65292l-0.88786-0.31912-0.31717 0.88003 0.88884 0.32108c0.13637 0.04887 0.25119 0.07171 0.34751 0.07146zm-25.918-0.29171-0.0783-0.52763 0.37198-0.05482-0.33771-2.2867-0.37394 0.05384-0.0773-0.52763 1.6896-0.24864c1.122-0.16706 1.7565 0.4837 1.8961 1.4253 0.139 0.9389-0.2771 1.749-1.4018 1.9147zm15.685-0.27605c-0.1477-6.3e-5 -0.311-0.0089-0.48358-0.0323-0.87809-0.12096-1.1939-0.59696-1.1257-1.0915 0.0682-0.49852 0.46874-0.82113 1.3802-0.88394 0.55398-0.03675 0.78685-0.17776 0.82227-0.43169 0.0448-0.3348-0.15292-0.48804-0.5893-0.54818-0.45241-0.06215-0.74494 0.02545-0.74494 0.02545l-0.047 0.34555-0.63237-0.08614 0.0881-0.64118s0.49882-0.29859 1.4077-0.17229c0.7411 0.10158 1.2497 0.46126 1.1541 1.1629-0.0802 0.58272-0.54532 0.84987-1.4194 0.91135-0.49585 0.03675-0.74471 0.12829-0.78214 0.40428-0.0381 0.27399 0.18201 0.42326 0.56091 0.47672 0.31542 0.0421 0.57853 0.0186 0.57853 0.0186l0.0519-0.37492 0.63139 0.0881-0.10377 0.75082s-0.30381 0.0785-0.7469 0.07831zm-10.461-0.30346c-1.0303-0.0031-1.6454-0.67039-1.7219-1.622-0.0815-1.0151 0.49397-1.8072 1.6514-1.9 0.44707-0.03475 1.0318-0.0025 1.4067 0.28682l0.12823 1.6083-1.3264 0.10474-0.0421-0.53154 0.69405-0.05482-0.0626-0.77431c-0.16105-0.07952-0.44898-0.13142-0.75571-0.1067-0.77852 0.06081-1.1052 0.6116-1.0484 1.3166 0.0575 0.70635 0.46761 1.1967 1.2461 1.1345 0.43704-0.03542 0.73417-0.14292 0.73417-0.14292l-0.0284-0.3524 0.63334-0.05188 0.0568 0.70872s-0.51649 0.30289-1.3538 0.36904c-0.0723 0.0058-0.14275 8e-3 -0.21144 0.0078zm8.1718-0.0088-1.39-0.10964 0.0421-0.53252 0.37688 0.02937 0.18109-2.3141-0.37784-0.02839 0.0411-0.53448 1.392 0.10964-0.0421 0.53252-0.37688-0.02937-0.18109 2.3141 0.37785 0.02936zm-12.471-0.08712 0.68816-0.1018c0.72106-0.10692 0.93042-0.69267 0.84088-1.2941-0.0882-0.60144-0.45848-1.1022-1.1815-0.99456l-0.6862 0.10181zm6.4226-0.10964-2e-3 -0.53252 0.37688-0.0029-0.0127-2.3112-0.37688 1e-3 -2e-3 -0.53252 2.9817-0.01468 5e-3 0.89569-0.6353 0.0039-2e-3 -0.36415-1.3342 0.0059 4e-3 0.9231 1.3117-0.0069 3e-3 0.5335-1.3117 0.0059 5e-3 0.85752 1.3108-0.0069-2e-3 -0.36415 0.63629-0.0039 5e-3 0.89667zm-15.898-18.514-4.5117-2.3582 0.89765-1.7503 2.3748 1.2412-2.4042-9.2711-1.3724 0.35338-0.41702-1.6034 4.6703-1.2109 0.41603 1.6054-1.3724 0.35534 3.1795 12.261zm33.383-0.32793c-0.49814 0.0031-1.0271-0.05174-1.5809-0.16739-2.953-0.6168-4.5833-2.5383-4.0761-4.962 0.2673-1.2911 1.407-2.3494 2.41-2.5579-1.1808-0.79857-1.8451-2.2636-1.529-3.7805 0.59141-2.8361 3.0916-3.7637 6.2023-3.1149 3.1108 0.64688 5.0317 2.4979 4.4403 5.334-0.31809 1.517-1.5106 2.5932-2.9112 2.8545 0.83332 0.59275 1.4544 2.018 1.1864 3.3077-0.41266 1.9699-1.9831 3.0729-4.1417 3.0865zm-25.839-1.0376c-2.9034-0.03574-4.5605-2.0806-4.8524-4.3953-0.3221-2.5461 1.0443-5.185 4.5313-5.6267 1.3285-0.1684 2.7342 0.28863 3.5074 1.4781-0.72573-3.1883-2.8047-5.0696-5.8039-4.1153l0.14977 1.1776-1.9735 0.24864-0.29465-2.3347c4.3691-2.536 10.001-0.50325 10.213 7.9242 0.0655 2.669-1.1087 5.1532-4.5362 5.5876-0.3269 0.04122-0.64036 0.05949-0.94072 0.0558zm13.118-0.54622c-0.11849 0.0013-0.23896-7.35e-4 -0.36121-0.0059-3.9127-0.16439-5.6193-3.5369-5.4476-7.5972 0.17107-4.063 2.1572-7.2774 6.0692-7.1117 3.9113 0.16372 5.6183 3.5359 5.4486 7.5963-0.16703 3.9361-2.0357 7.0762-5.7089 7.1186zm12.466-0.10278c1.3289-0.01258 2.2216-0.70896 2.4502-1.8041 0.28133-1.3506-0.60265-2.5458-2.4698-2.9367-1.8691-0.38626-3.1569 0.35473-3.4369 1.7033-0.28334 1.3499 0.59997 2.5445 2.4698 2.9328 0.35034 0.07343 0.68007 0.10765 0.98673 0.10474zm-25.444-1.02c0.18872 0.0046 0.38599-0.0052 0.59224-0.03132 2.2186-0.28134 2.9759-2.0784 2.7654-3.7551-0.21184-1.6713-1.3928-3.2037-3.6121-2.923-2.1972 0.27933-2.9798 2.0609-2.7674 3.7335 0.19259 1.5171 1.1977 2.9313 3.0219 2.9759zm12.925-0.53839c2.4271-0.054 3.5074-2.5691 3.6337-5.5464 0.12897-3.0727-0.79805-5.7423-3.3909-5.8499-2.5955-0.11026-3.7438 2.4688-3.8735 5.5455-0.13031 3.074 0.79635 5.7397 3.3919 5.8479 0.0811 0.0035 0.16055 0.0047 0.23885 0.0029zm13.949-4.3855c1.5546-0.0094 2.4919-0.82398 2.7438-2.0234 0.30673-1.4769-0.57385-2.8346-2.8339-3.3057-2.2574-0.47046-3.6092 0.42092-3.9166 1.8971-0.3074 1.4782 0.57257 2.835 2.832 3.3048 0.42364 0.08871 0.81593 0.12943 1.1747 0.12726z" fill="#450084"/>
 </g>
</svg>