<?xml version="1.0" encoding="UTF-8" standalone="no"?>
<svg xmlns:rdf="http://www.w3.org/1999/02/22-rdf-syntax-ns#" xmlns="http://www.w3.org/2000/svg" xml:space="preserve" height="62.258" viewBox="0 0 282.99374 62.2575" width="282.99" version="1.1" xmlns:cc="http://creativecommons.org/ns#" xmlns:dc="http://purl.org/dc/elements/1.1/"><g transform="matrix(1.25 0 0 -1.25 -.075 87.601)"><g><path d="m63.277 1.7559c-0.081 0.82-0.101 0.8515-1.236 0.8828l-3.549 0.1015c-1.115 0.02-1.156-0.0225-1.236-0.8437h-0.285v1.916l4.836 2.1191-4.836 2.2403v1.8671h0.285c0.08-0.8712 0.18-0.9442 1.529-0.873l2.088 0.1113c0.973 0.0513 1.571 0.1324 1.875 0.1836 0.385 0.07 0.487 0.2718 0.529 0.7791h0.284v-2.4021h-0.284c-0.06 0.6687-0.144 0.8819-0.529 0.9219-0.304 0.0412-0.861 0.0512-1.771 0.0312l-2.627-0.0722v-0.0391l5.088-2.2207v-0.3028l-5.292-2.3027v-0.041l3.895-0.0391c1.135-0.0112 1.155 0.0193 1.236 0.8106h0.284v-2.8281h-0.284zm-61.25 0.1406v2.2519h0.2832l0.0293-0.2832c0.05-0.4462 0.182-0.5282 0.7207-0.3457 0.4263 0.1413 0.9939 0.3246 1.2989 0.4571v1.875c-0.5275 0.2125-1.1578 0.4554-1.459 0.5566-0.3863 0.1225-0.4876 0.103-0.5488-0.2832l-0.0411-0.2852h-0.2832v2.6661h0.2832c0.06-0.5875 0.1327-0.7293 1.0352-1.0743 1.0138-0.385 2.2716-0.8308 3.5078-1.2871l1.8848-0.6992-0.1231-0.4043-5.2695-2.0488c-0.9125-0.3538-0.9564-0.467-1.0352-1.0957h-0.2832zm10.174 0.3887v32.807c0 12.046 20.596 17.097 20.596 17.097s20.594-5.051 20.594-17.097v-32.807l-41.19 0.0002zm-7.3748 1.8027l2.2304 0.7891v0.0312l-2.2304 0.791v-1.6113zm-2.7989 4.7988v2.4843c0 2.373 1.0961 4.299 3.5899 4.299 0.8912 0 1.6399-0.385 2.1074-0.852 0.65-0.67 0.8906-1.704 0.8906-2.839v-3.0102h-0.2832c-0.0587 0.7512-0.1408 0.83-1.2382 0.83h-3.5469c-1.095 0-1.1764-0.0796-1.2364-0.9121h-0.2832zm61.25 1.9613c-0.06 0.588-0.131 0.731-1.035 1.076-1.012 0.385-2.27 0.831-3.508 1.287l-1.884 0.699 0.121 0.406 5.271 2.047c0.914 0.355 0.954 0.467 1.035 1.096h0.284v-2.25h-0.284l-0.029 0.283c-0.052 0.446-0.186 0.527-0.721 0.346-0.427-0.143-0.995-0.326-1.298-0.457v-1.877c0.527-0.213 1.156-0.455 1.459-0.557 0.383-0.121 0.488-0.102 0.546 0.283l0.043 0.286h0.284v-2.668h-0.284zm-59.709 0.086h4.0742c0.265 0 0.4455 0 0.498 0.062 0.05 0.06 0.0899 0.325 0.0899 0.66 0 1.622-0.748 2.715-2.918 2.715-1.685 0-2.8691-0.871-2.8691-2.553 0-0.781 0.1925-0.884 1.125-0.884zm57.196 2.722v1.612l-2.233-0.791v-0.03l2.233-0.791zm-3.793 4.323v2.859h0.285c0.06-0.791 0.141-0.873 1.236-0.873h3.549c1.094 0 1.176 0.082 1.236 0.873h0.284v-2.859h-0.284c-0.06 0.768-0.142 0.851-1.236 0.851h-3.549c-1.095 0-1.176-0.083-1.236-0.851h-0.285zm-51.58 0.728c-0.6262 0-1.1328 0.507-1.1328 1.115 0 0.609 0.5066 1.106 1.1328 1.106 0.62 0 1.1387-0.497 1.1387-1.106 0-0.608-0.5187-1.115-1.1387-1.115zm58.007 2.82c-0.07 0.295-0.223 0.458-0.468 0.702-0.2 0.192-0.566 0.456-1.123 0.841-0.455 0.325-1.165 0.719-1.45 0.881-0.303-0.821-0.902-1.347-1.755-1.347-0.597 0-1.024 0.272-1.288 0.667-0.262 0.405-0.343 0.934-0.343 1.674v2.727h0.285c0.06-0.77 0.141-0.852 1.236-0.852h3.549c1.094 0 1.176 0.082 1.236 0.893h0.284v-2.859h-0.284c-0.06 0.771-0.142 0.851-1.236 0.851h-1.359v-0.324c0-0.304 0.101-0.426 0.384-0.588 0.529-0.294 1.175-0.628 1.643-0.953 0.567-0.395 0.85-0.741 0.932-1.846l0.021-0.424-0.264-0.043zm-61.371 1.721v2.402h0.2832c0.06-0.67 0.1431-0.881 0.5293-0.921 0.3038-0.042 0.8597-0.05 1.7735-0.032l2.625 0.071v0.041l-5.0899 2.22v0.305l5.2911 2.301v0.039l-3.8926 0.041c-1.135 0.011-1.1576-0.019-1.2364-0.811h-0.2832v2.828h0.2832c0.0788-0.821 0.1014-0.85 1.2364-0.88l3.5469-0.102c1.1187-0.02 1.157 0.02 1.2382 0.84h0.2832v-1.916l-4.834-2.117 4.834-2.241v-1.865h-0.2832c-0.0812 0.871-0.1812 0.943-1.5312 0.871l-2.086-0.111c-0.975-0.05-1.5712-0.132-1.875-0.184-0.3862-0.071-0.4893-0.273-0.5293-0.779h-0.2832zm56.746 0.572c0.488 0 0.974 0.142 1.299 0.547 0.204 0.264 0.264 0.547 0.264 0.953v0.385h-2.615c-0.324 0-0.364-0.02-0.364-0.508 0-0.648 0.363-1.377 1.416-1.377zm1.588 4.153c-1.972-0.134-3.416 1.222-3.535 2.97-0.162 2.378 1.649 3.671 3.309 3.784 1.841 0.126 3.416-1.089 3.551-3.081 0.132-1.921-1.171-3.525-3.325-3.673zm-0.465 1.33c0.236-0.01 0.485-0.007 0.749 0.011 1.901 0.13 2.727 0.999 2.656 2.051-0.098 1.436-1.57 2.15-3.399 2.024-1.792-0.122-2.767-1.031-2.693-2.104 0.08-1.185 1.039-1.915 2.687-1.982zm-57.617 2.986l-0.2832 0.002 0.0312 2.252 0.2813-0.004 0.0273-0.285c0.045-0.446 0.1749-0.527 0.7149-0.354 0.4275 0.137 0.9984 0.312 1.3047 0.438l0.0254 1.877c-0.5263 0.22-1.1507 0.471-1.4532 0.576-0.3837 0.126-0.4857 0.108-0.5507-0.275l-0.045-0.286-0.2832 0.006 0.0352 2.666 0.2851-0.004c0.0525-0.588 0.1221-0.733 1.0196-1.089 1.0075-0.398 2.2588-0.86 3.4863-1.332l1.8809-0.727-0.1289-0.404-5.2989-1.975c-0.9187-0.344-0.9588-0.454-1.0488-1.082zm2.543 2.156l2.2402 0.76v0.031l-2.2187 0.821-0.0215-1.612zm57.09 0.479l-0.107 0.31c0.458 0.23 0.777 0.438 0.943 0.637 0.221 0.246 0.088 1.469 0.022 1.932-0.047 0.322-0.114 0.649-0.256 0.802-0.147 0.153-0.435 0.174-1.018 0.09l-3.494-0.496c-1.085-0.154-1.153-0.245-1.098-1.056l-0.283-0.039-0.41 2.89 0.281 0.041c0.175-0.795 0.266-0.865 1.35-0.711l3.513 0.498c1.084 0.154 1.152 0.247 1.092 1.098l0.285 0.041 0.774-5.443c-0.289-0.123-1.281-0.489-1.594-0.594zm-53.291 2.629l-0.2695 0.082c0.1912 0.821 0.1387 0.924-0.9063 1.25l-3.0019 0.937c-0.6575 0.205-1.2245 0.362-1.7207 0.41-0.5488 0.044-1.0652-0.073-1.5665-0.627l-0.23432 0.202c0.26252 0.427 0.58652 0.75 0.91402 0.988 0.8963 0.656 1.7636 0.479 2.8223 0.15l3.125-0.974c1.0463-0.328 1.1487-0.274 1.4199 0.396l0.2696-0.086-0.8516-2.728zm47.553 3.402c-0.19 0.323-0.583 0.94-0.852 1.77-0.615 1.89-0.037 4.016 2.16 4.73 1.927 0.626 3.677-0.394 4.375-2.543 0.238-0.734 0.259-1.58 0.278-2.232-0.22-0.01-0.53-0.109-0.877-0.223l-0.664-0.217c-0.676-0.219-0.702-0.268-0.615-0.795l-0.29-0.093-0.871 2.679 0.289 0.094c0.41-0.996 0.481-1.016 1.137-0.805l0.807 0.266c0.386 0.125 0.527 0.255 0.545 0.463 0.016 0.175-0.003 0.371-0.104 0.68-0.57 1.755-2.31 1.893-3.795 1.41-1.755-0.57-2.473-1.805-2.039-3.135 0.256-0.79 0.77-1.519 2.067-1.375l0.06-0.322c-0.756-0.162-1.276-0.264-1.611-0.352zm-48.635 0.486c-0.6639 0.036-1.3041 0.254-1.8282 0.592-1.5475 1-2.0857 2.916-1.0019 4.594 1.045 1.617 3.0476 2.122 4.8613 0.949 1.6617-1.072 2.0067-3.02 1.0567-4.492-0.8086-1.252-1.9816-1.702-3.0879-1.643zm1.2148 0.856c0.5925 0.027 1.0695 0.291 1.3611 0.742 0.736 1.141 0.199 2.491-1.574 3.635-1.6025 1.034-2.783 0.83-3.3555-0.055-0.78-1.209-0.0275-2.66 1.5137-3.656 0.7544-0.486 1.4622-0.694 2.0547-0.666zm3.4781 2.963l-0.179 0.219c0.551 0.54 0.561 0.653-0.139 1.492l-2.2714 2.722c-0.7013 0.839-0.8141 0.851-1.4766 0.377l-0.1836 0.219 2.1956 1.83 0.181-0.219c-0.5509-0.54-0.561-0.654 0.139-1.494l0.869-1.041 0.248 0.207c0.235 0.195 0.263 0.352 0.205 0.672-0.111 0.594-0.271 1.305-0.322 1.871-0.06 0.688 0.024 1.125 0.82 1.895l0.313 0.289 0.201-0.176c-0.18-0.244-0.205-0.464-0.236-0.807-0.02-0.28 0.011-0.726 0.074-1.4 0.044-0.557 0.191-1.355 0.25-1.676 0.825 0.291 1.612 0.17 2.156-0.484 0.384-0.458 0.448-0.96 0.313-1.416-0.144-0.461-0.496-0.862-1.061-1.334l-2.096-1.746zm1.28 1.646c0.083 0.004 0.186 0.076 0.373 0.233 0.497 0.415 0.821 1.162 0.148 1.972-0.312 0.373-0.732 0.655-1.25 0.645-0.334-0.015-0.589-0.148-0.9-0.408l-0.293-0.246 1.674-2.008c0.104-0.124 0.165-0.191 0.248-0.188zm40.111 1.53c-0.286-0.037-0.582 0.034-0.82 0.224-0.474 0.376-0.549 1.096-0.164 1.58 0.391 0.493 1.103 0.572 1.578 0.194 0.476-0.379 0.549-1.084 0.158-1.577-0.192-0.241-0.466-0.385-0.752-0.421zm-4.603 0.587l-2.43 1.506 0.148 0.242c0.704-0.366 0.817-0.338 1.393 0.592l1.867 3.02c0.578 0.932 0.552 1.043-0.086 1.512l0.147 0.238 2.431-1.504-0.148-0.24c-0.688 0.353-0.8 0.325-1.377-0.606l-1.869-3.017c-0.578-0.932-0.55-1.045 0.074-1.502l-0.15-0.241zm-32.358 0.053l-0.139 0.246c0.64 0.434 0.671 0.547 0.129 1.498l-1.754 3.084c-0.54 0.953-0.653 0.982-1.439 0.606l-0.141 0.248 4.303 2.443c0.21-0.207 0.915-0.995 1.121-1.275l-0.232-0.203c-0.394 0.337-0.715 0.553-0.957 0.634-0.312 0.115-0.737-0.08-1.18-0.33-0.369-0.211-0.681-0.399-0.779-0.595-0.094-0.204 0.012-0.473 0.301-0.985l0.822-1.445 0.758 0.432c0.76 0.43 0.756 0.475 0.449 1.222l0.283 0.162 1.063-1.871-0.284-0.158c-0.475 0.629-0.52 0.669-1.279 0.24l-0.756-0.431 1.059-1.869c0.181-0.317 0.199-0.308 0.533-0.118l0.441 0.25c0.547 0.312 0.801 0.526 0.866 0.76 0.056 0.209 0.02 0.514-0.131 0.986l0.273 0.133c0.258-0.576 0.593-1.247 0.656-1.398l-3.986-2.266zm29.174 1.881l-4.074 2.088 0.127 0.252c0.715-0.296 0.822-0.261 1.322 0.713l1.615 3.156c0.501 0.975 0.465 1.085-0.281 1.537l0.127 0.252 4.402-2.256c-0.055-0.289-0.33-1.311-0.451-1.637l-0.297 0.084c0.07 0.513 0.072 0.899 0.006 1.149-0.074 0.321-0.471 0.573-0.922 0.803-0.377 0.193-0.707 0.352-0.926 0.326-0.221-0.035-0.387-0.267-0.656-0.791l-0.756-1.481 0.776-0.396c0.773-0.398 0.808-0.373 1.267 0.295l0.287-0.149-0.976-1.91-0.291 0.147c0.267 0.741 0.276 0.805-0.5 1.201l-0.778 0.396-0.978-1.912c-0.168-0.324-0.149-0.333 0.195-0.51l0.451-0.23c0.559-0.286 0.875-0.382 1.108-0.307 0.204 0.067 0.442 0.264 0.756 0.651l0.259-0.157c-0.34-0.531-0.72-1.179-0.812-1.314zm-24.522 0.789l-0.105 0.264c0.781 0.399 0.81 0.519 0.242 1.744l-0.883 1.898c-0.407 0.885-0.705 1.408-0.865 1.67-0.209 0.332-0.434 0.353-0.92 0.201l-0.107 0.264 2.23 0.895 0.108-0.266c-0.599-0.306-0.766-0.458-0.662-0.832 0.076-0.298 0.273-0.818 0.63-1.658l1.045-2.41 0.037 0.015 0.168 5.549 0.284 0.111 4.099-4.054 0.039 0.015-1.41 3.627c-0.41 1.058-0.448 1.065-1.211 0.846l-0.103 0.266 2.623 1.05 0.103-0.265c-0.731-0.379-0.752-0.41-0.359-1.475l1.228-3.33c0.394-1.041 0.448-1.067 1.241-0.836l0.105-0.262-1.779-0.714-3.764 3.703-0.281-5.321-1.733-0.695zm18.694 2.193c-0.503 0.045-1.029 0.186-1.559 0.393l-2.804 1.096 0.103 0.263c0.72-0.216 0.827-0.17 1.225 0.85l1.293 3.305c0.397 1.02 0.353 1.124-0.401 1.484l0.106 0.264 2.312-0.903c2.21-0.865 3.603-2.586 2.696-4.91-0.325-0.83-0.957-1.387-1.561-1.652-0.429-0.181-0.908-0.234-1.41-0.19zm-0.737 0.592c1.037-0.099 1.929 0.423 2.565 1.92 0.657 1.55 0.318 2.982-1.232 3.641-0.72 0.304-0.887 0.167-1.252-0.692l-1.592-3.752c-0.103-0.243-0.175-0.411-0.139-0.48 0.036-0.073 0.264-0.212 0.57-0.342 0.374-0.158 0.735-0.262 1.08-0.295zm-6.792 3.569c-0.434 0.04-0.832 0.337-0.975 0.779-0.196 0.596 0.127 1.237 0.703 1.426 0.578 0.191 1.21-0.136 1.406-0.735 0.194-0.586-0.118-1.232-0.697-1.422-0.144-0.047-0.293-0.062-0.437-0.048z" transform="matrix(.8 0 0 -.8 .06 70.081)" fill="#922247"/><path d="m18.832 12.059c-1.032 0-2.055 0.567-2.055 1.718 0 0.64 0.4 1.186 0.952 1.369v0.016c-0.722 0.24-1.202 0.791-1.202 1.582 0 1.248 1.264 1.822 2.305 1.822 1.039 0 2.303-0.574 2.303-1.822 0-0.791-0.479-1.342-1.199-1.582v-0.016c0.551-0.183 0.951-0.729 0.951-1.369 0-1.151-1.025-1.718-2.055-1.718zm10.545 0.07c-1.74 0-2.484 1.638-2.484 3.162s0.736 3.164 2.484 3.164c1.749 0 2.486-1.64 2.486-3.164s-0.744-3.162-2.486-3.162zm-15.795 0.178l-0.252 1.345h0.639v4.737h1.523v-6.082h-1.91zm8.354 0.054v1.457h2.447l-2.672 4.571h1.891l3.365-6.028h-5.031zm-3.104 0.785c0.368 0 0.662 0.305 0.662 0.68 0 0.376-0.294 0.68-0.662 0.68-0.367 0-0.666-0.304-0.666-0.68 0-0.375 0.299-0.68 0.666-0.68zm10.545 0.327c0.786 0 0.975 1.244 0.975 1.81 0 0.569-0.189 1.826-0.975 1.826-0.784 0-0.969-1.257-0.969-1.826 0-0.566 0.185-1.81 0.969-1.81zm-10.545 2.32c0.399 0 0.719 0.337 0.719 0.752 0 0.409-0.32 0.734-0.719 0.734-0.4 0-0.723-0.325-0.723-0.734 0-0.415 0.323-0.752 0.723-0.752zm5.627 4.131c-0.38 0.152-2.105 2.611-2.105 2.611-2.907 5.514-2.096 9.233-2.096 9.233-1.925 0.897-1.926 2.976-1.926 2.435 0-3.1 1.024-2.88 0.982-4.838-0.041-1.955-2.136-1.787-2.136-1.787-0.822 0.011-1.069 0.514-1.069 0.514s0.415-0.088 0.582 0.135c0 0 0.62 0.452-0.494 3.113-0.227 0.535-1.22 2.405-0.021 3.758 0.847 0.956 2.201 0.601 2.201 0.601 0.085 0.513 0.125 0.768 0.125 0.768h-0.981c-0.897 0.044-0.939 1.027-0.939 1.027v4.147l0.684 0.681h2.263c0.044-1.025-1.281-1.451-1.281-1.451v-1.795h2.094c1.11-0.085 1.711-2.222 1.711-2.222l0.81 0.085c0.043 0.128-1.154 2.307-1.154 2.307l2.437 2.309v0.683h2.649c0.13-0.642-1.154-1.197-1.154-1.197l-1.664-1.795c-0.213-0.231-0.063-0.467 0.224-0.562 0.315-0.104 0.571-0.177 0.93-0.313 0.359-0.137 1.879-1.091 1.236-2.93-0.629-1.806-2.732-1.067-2.732-1.281 0-0.212 1.109-2.777 1.109-2.777l-0.898-1.326 1.07 0.685 2.82-0.513c0.298 2.393 1.41 1.794 1.41 1.794v-1.794s-0.042-1.182-1.113-1.54c-1.281-0.426-2.178-0.17-2.564-0.255-0.383-0.087-0.272-0.426-0.272-0.426l1.684 0.041 1.496-1.24 0.812-0.086c1.495-0.255 0.942-1.411 0.942-1.411h-2.139c-0.811 0-2.906 1.54-2.906 1.54s-0.3-1.71 1.281-2.307c1.581-0.598 1.24-1.068 1.24-1.068l-1.494 0.513s-0.171-0.171 0.084-0.556c0.137-0.208 1.326-0.643 1.326-0.643 0.939-0.341 0.641-1.109 0.641-1.109l-1.666 0.17c-0.385-0.342-0.343-0.384-0.898-0.469-0.555-0.086-1.411 0.682-1.325 0.426 0.084-0.257 0.169-1.027 0.254-1.795 0.01-0.087-0.016-0.112-0.07-0.09zm16.693 0c-0.054-0.022-0.081 0.003-0.072 0.09 0.085 0.768 0.172 1.538 0.256 1.795 0.087 0.256-0.769-0.512-1.324-0.426-0.557 0.085-0.514 0.127-0.897 0.469l-1.668-0.17s-0.3 0.768 0.639 1.109c0 0 1.191 0.435 1.33 0.643 0.256 0.385 0.082 0.556 0.082 0.556l-1.494-0.513s-0.342 0.47 1.24 1.068c1.58 0.597 1.281 2.307 1.281 2.307s-2.095-1.54-2.904-1.54h-2.139s-0.556 1.156 0.94 1.411l0.812 0.086 1.496 1.24 1.684-0.041s0.112 0.339-0.273 0.426c-0.385 0.085-1.284-0.171-2.565 0.255-1.07 0.358-1.111 1.54-1.111 1.54v1.794s1.111 0.599 1.41-1.794l2.82 0.513 1.071-0.685-0.899 1.326s1.112 2.565 1.112 2.777c0 0.214-2.105-0.525-2.735 1.281-0.644 1.839 0.878 2.793 1.24 2.93 0.355 0.136 0.611 0.209 0.928 0.313 0.289 0.095 0.437 0.331 0.223 0.562l-1.666 1.795s-1.28 0.555-1.153 1.197h2.649v-0.683l2.437-2.309s-1.198-2.179-1.154-2.307l0.813-0.085s0.597 2.137 1.707 2.222h2.095v1.795s-1.324 0.426-1.283 1.451h2.266l0.683-0.681v-4.147s-0.04-0.983-0.939-1.027h-0.983s0.042-0.255 0.127-0.768c0 0 1.351 0.355 2.2-0.601 1.198-1.353 0.207-3.223-0.018-3.758-1.116-2.661-0.496-3.113-0.496-3.113 0.167-0.223 0.582-0.135 0.582-0.135s-0.247-0.503-1.068-0.514c0 0-2.097-0.168-2.137 1.787-0.041 1.958 0.98 1.738 0.98 4.838 0 0.541 0.001-1.538-1.922-2.435 0 0 0.81-3.719-2.095-9.233 0 0-1.726-2.459-2.108-2.611zm-8.371 1.17c-0.23 0-0.418 0.186-0.418 0.416 0 0.155 0.087 0.289 0.209 0.361v0.008l0.004 8.303-2.744 2.785v0.885h0.412l0.004-0.706 2.561-2.611 2.558 2.611 0.004 0.706h0.412v-0.885l-2.742-2.785 0.002-8.303 0.002-0.008c0.122-0.072 0.207-0.206 0.207-0.361 0-0.23-0.188-0.416-0.418-0.416-0.01 0-0.015 0.01-0.025 0.011-0.01-0.001-0.018-0.011-0.028-0.011zm-4.39 12.806s-0.525-0.077-0.498 0.42c0.02 0.393 0.418 0.496 0.418 0.496v3.215s-0.053 1.674 1.361 3.088c1.471 1.469 3.11 1.311 3.133 1.309h0.007c0.023 0.002 1.664 0.16 3.133-1.309 1.413-1.414 1.36-3.088 1.36-3.088v-3.215s0.397-0.103 0.416-0.496c0.027-0.497-0.494-0.42-0.494-0.42h-1.047c0.05 1.1-0.629 0.969-0.629 0.969-0.734 0.025-0.576-0.969-0.576-0.969h-2.163-2.171s0.157 0.994-0.575 0.969c0 0-0.682 0.131-0.63-0.969h-1.045z" transform="matrix(.8 0 0 -.8 .06 70.081)" fill="#fff"/><path d="m25.891 21.959l-0.932 0.406h1.176l-0.244-0.406zm13.83 0l-0.242 0.406h1.173l-0.931-0.406z" transform="matrix(.8 0 0 -.8 .06 70.081)" fill="#922247"/><path d="m32.844 2.2852v2.6836l2.955-2.6836h-2.955zm5.908 0l-5.906 5.3691v2.6857l8.859-8.0548h-2.953zm5.908 0l-11.816 10.74v2.684l14.769-13.424-2.953 0.0002zm5.908 0l-17.722 16.111h2.953l17.59-16.111-2.821 0.0002zm2.821 2.6836l-14.637 13.427h2.953l11.684-10.74v-2.6872zm0.002 5.3712l-8.731 8.056h2.953l5.778-5.371v-2.685zm-0.002 5.371l-2.821 2.685h2.821v-2.685z" transform="matrix(.8 0 0 -.8 .06 70.081)" fill="#febd18"/><path d="m126.4 1.3359c-8.03 0-18.01 6.0069-18.01 19.109 0 8.423 6.36 17.545 18.09 17.545 8.85 0 17.86-6.471 17.86-18.715 0-10.062-7.05-17.939-17.94-17.939zm67.6 0c-8.02 0-18.01 6.0069-18.01 19.109 0 8.423 6.35 17.545 18.08 17.545 8.86 0 17.86-6.471 17.86-18.715 0-10.062-7.04-17.939-17.93-17.939zm69.83 0l-1.88 0.4707-11.2 27.373c-2.19 5.378-3.49 5.69-6.82 6.082v1.793h13.25v-1.793l-1.74-0.158c-2.19-0.158-2.88-0.935-1.97-3.586 0.76-2.339 2.04-6.004 2.57-7.254h10.52l2.57 6.32c1.51 3.665 0.84 4.286-1.28 4.52l-1.44 0.158v1.793h15.28v-1.793c-3.32-0.234-4.76-0.547-6.58-5.147l-11.28-28.779zm-185.25 0.9375v1.793c4.84 0.315 5.303 0.6214 5.303 6.4726v18.17c0 5.849-0.385 6.238-5.684 6.553v1.793h27.633c0.44-1.483 1.58-7.488 1.96-9.278l-1.96-0.238c-0.77 2.496-1.67 4.292-2.59 5.227-1.2 1.403-3.629 1.949-6.58 1.949-2.794 0-4.387-0.079-5.439-0.625-1.068-0.546-1.448-2.105-1.448-5.145v-18.406c0-5.8512 0.464-6.1576 5.678-6.4726v-1.793h-16.873zm64.782 0v1.793c3.4 0.3913 3.94 0.4666 5.9 3.9004 3.48 5.9252 5.6 9.5112 7.19 12.4 0.99 1.714 1.14 2.182 1.14 3.664v4.758c0 5.694-0.38 6.081-5.83 6.473v1.793h17.78v-1.793c-5.59-0.392-6.06-0.779-6.06-6.473v-5.615c0-1.171 0.08-1.715 1.22-3.82 2.5-4.524 4.77-8.269 6.81-11.309 2.04-3.0426 2.34-3.5873 6.43-3.9786v-1.793h-13.32v1.793l2.19 0.3145c2.05 0.2312 2.2 0.5428 1.21 2.7265-1.21 2.5738-3.55 7.7986-5.89 11.934-1.82-3.042-6.66-11.62-7.04-12.398-0.76-1.5629-0.68-2.0309 1.06-2.2621l2.35-0.3145v-1.793h-15.14zm71.59 0v1.793c4.85 0.315 5.3 0.6214 5.3 6.4726v18.17c0 5.849-0.38 6.238-5.67 6.553v1.793h27.62c0.45-1.483 1.59-7.488 1.97-9.278l-1.97-0.238c-0.76 2.496-1.67 4.292-2.58 5.227-1.21 1.403-3.63 1.949-6.57 1.949-2.81 0-4.4-0.079-5.45-0.625-1.07-0.546-1.45-2.105-1.45-5.145v-18.406c0-5.8512 0.46-6.1576 5.68-6.4726v-1.793h-16.88zm-89.23 1.4024c7.56 0 11.81 8.2692 11.81 17.158 0 10.919-4.62 14.816-10.44 14.816-7.5 0-11.88-6.941-11.88-17.08 0-9.5109 4.38-14.894 10.51-14.894zm67.6 0c7.56 0 11.8 8.2692 11.8 17.158 0 10.919-4.61 14.816-10.44 14.816-7.49 0-11.88-6.941-11.88-17.08 0-9.5109 4.39-14.894 10.52-14.894zm67.79 6.084h0.15l4.39 11.855h-8.78l4.24-11.855zm15.34 34.023c-1.66 0-2.92 0.451-3.8 1.35-1.17 1.06-1.76 2.657-1.76 4.777 0 2.079 0.59 3.669 1.76 4.774 0.88 0.898 2.14 1.351 3.8 1.351 1.65 0 2.91-0.453 3.78-1.351 1.18-1.105 1.76-2.695 1.76-4.774 0-2.12-0.58-3.717-1.76-4.777-0.87-0.899-2.13-1.35-3.78-1.35zm-122.52 0.014c-1.48 0-2.6 0.343-3.37 1.029-0.76 0.686-1.14 1.549-1.14 2.584 0 1.138 0.39 1.974 1.17 2.506 0.46 0.316 1.31 0.616 2.53 0.889l1.26 0.275c0.73 0.154 1.27 0.335 1.61 0.539 0.33 0.213 0.5 0.508 0.5 0.889 0 0.655-0.34 1.103-1.03 1.342-0.36 0.125-0.84 0.191-1.42 0.191-0.97 0-1.66-0.241-2.06-0.717-0.22-0.262-0.37-0.655-0.44-1.185h-2.31c0 1.205 0.44 2.151 1.31 2.84 0.87 0.686 2.07 1.033 3.6 1.033 1.49 0 2.64-0.351 3.46-1.047 0.82-0.703 1.23-1.581 1.23-2.639 0-1.03-0.35-1.818-1.04-2.363-0.44-0.349-1.11-0.632-2-0.842l-2.03-0.478c-0.79-0.18-1.3-0.341-1.54-0.479-0.38-0.201-0.56-0.512-0.56-0.926 0-0.45 0.18-0.802 0.57-1.05 0.38-0.253 0.89-0.379 1.53-0.379 0.58 0 1.05 0.097 1.44 0.291 0.58 0.293 0.89 0.789 0.93 1.484h2.33c-0.04-1.23-0.5-2.168-1.37-2.816-0.88-0.645-1.93-0.971-3.16-0.971zm108.35 0.039c-1.7 0-3.06 0.566-4.09 1.695-1.03 1.131-1.55 2.632-1.55 4.506 0 1.858 0.51 3.313 1.53 4.381 0.98 1.061 2.24 1.594 3.77 1.594 0.94 0 1.72-0.196 2.36-0.588 0.37-0.224 0.79-0.61 1.25-1.156l0.25 1.445h1.6v-6.213h-4.82v1.932h2.68c-0.12 0.755-0.44 1.362-0.96 1.83-0.52 0.466-1.19 0.697-2 0.697-0.82 0-1.56-0.294-2.21-0.883-0.65-0.591-0.98-1.599-0.98-3.017 0-1.412 0.31-2.47 0.91-3.17 0.59-0.707 1.36-1.055 2.29-1.055 0.49 0 0.93 0.085 1.33 0.256 0.71 0.317 1.16 0.869 1.34 1.656h2.38c-0.13-1.111-0.64-2.043-1.53-2.791-0.9-0.745-2.08-1.119-3.55-1.119zm-58.65 0.08c-1.44 0-2.63 0.473-3.56 1.43-1.07 1.093-1.61 2.653-1.61 4.672 0 1.87 0.47 3.341 1.41 4.414 0.94 1.068 2.24 1.603 3.89 1.603 1.33 0 2.42-0.399 3.27-1.187 0.86-0.79 1.39-1.817 1.59-3.077h-2.4c-0.16 0.595-0.36 1.042-0.6 1.342-0.44 0.554-1.07 0.832-1.9 0.832-0.81 0-1.47-0.321-2-0.968-0.52-0.65-0.79-1.622-0.79-2.918 0-1.3 0.25-2.304 0.75-3.014 0.5-0.714 1.18-1.063 2.04-1.063 0.84 0 1.48 0.253 1.91 0.754 0.25 0.283 0.44 0.702 0.59 1.258h2.43c-0.04-0.724-0.3-1.445-0.79-2.16-0.89-1.28-2.3-1.918-4.23-1.918zm33.55 0c-1.44 0-2.62 0.473-3.56 1.43-1.07 1.093-1.6 2.653-1.6 4.672 0 1.87 0.47 3.341 1.41 4.414 0.94 1.068 2.24 1.603 3.88 1.603 1.33 0 2.43-0.399 3.28-1.187 0.85-0.79 1.38-1.817 1.59-3.077h-2.4c-0.16 0.595-0.36 1.042-0.6 1.342-0.44 0.554-1.07 0.832-1.9 0.832-0.81 0-1.48-0.321-2-0.968-0.53-0.65-0.79-1.622-0.79-2.918 0-1.3 0.25-2.304 0.74-3.014 0.5-0.714 1.18-1.063 2.04-1.063 0.85 0 1.49 0.253 1.92 0.754 0.24 0.283 0.44 0.702 0.59 1.258h2.42c-0.04-0.724-0.3-1.445-0.79-2.16-0.89-1.28-2.3-1.918-4.23-1.918zm-158.98 0.217v7.117c0 1.231 0.186 2.194 0.569 2.875 0.716 1.255 2.075 1.887 4.078 1.887 2.002 0 3.358-0.632 4.072-1.887 0.38-0.681 0.568-1.644 0.568-2.875v-7.117h-2.457v7.113c0 0.794-0.092 1.378-0.281 1.74-0.291 0.65-0.924 0.973-1.902 0.973-0.98 0-1.619-0.323-1.91-0.973-0.188-0.362-0.282-0.946-0.282-1.74v-7.113h-2.455zm13.676 0v11.58h2.254v-8.215l4.713 8.215h2.42v-11.58h-2.256v8.076l-4.592-8.076h-2.539zm13.667 0v11.58h2.41v-11.58h-2.41zm5.85 0l3.91 11.58h2.3l3.94-11.58h-2.51l-2.54 8.791-2.51-8.791h-2.59zm13.08 0v11.58h8.78v-2.08h-6.41v-2.979h5.62v-2.011h-5.62v-2.455h6.12v-2.055h-8.49zm12.54 0v11.58h2.37v-4.539h2.36c0.67 0 1.13 0.121 1.37 0.369 0.25 0.245 0.38 0.736 0.39 1.478l0.01 1.075c0.01 0.338 0.04 0.67 0.11 0.996 0.03 0.159 0.08 0.365 0.15 0.621h2.67v-0.293c-0.23-0.14-0.38-0.356-0.44-0.656-0.05-0.19-0.07-0.549-0.07-1.08v-0.774c0-0.812-0.11-1.415-0.33-1.812s-0.6-0.701-1.14-0.916c0.64-0.219 1.1-0.595 1.38-1.125 0.27-0.533 0.42-1.076 0.42-1.623 0-0.452-0.08-0.863-0.22-1.219-0.14-0.355-0.34-0.677-0.58-0.971-0.3-0.355-0.66-0.625-1.08-0.812-0.43-0.182-1.04-0.28-1.83-0.299h-5.54zm25.51 0v11.58h2.41v-11.58h-2.41zm6.1 0v2.055h3.49v9.525h2.43v-9.525h3.46v-2.055h-9.38zm10.94 0l4.01 7.238v4.342h2.42v-4.342l3.87-7.238h-2.74l-2.3 5.045-2.41-5.045h-2.85zm32.49 0v11.58h2.41v-5.168h4.5v5.168h2.4v-11.58h-2.4v4.418h-4.5v-4.418h-2.41zm13.81 0v11.58h2.4v-11.58h-2.4zm22.07 0l-4.13 11.58h2.53l0.78-2.381h4.26l0.77 2.381h2.62l-4.09-11.58h-2.74zm28.52 1.701c0.96 0 1.71 0.353 2.28 1.061 0.56 0.712 0.84 1.714 0.84 3.015s-0.28 2.306-0.84 3.014c-0.57 0.707-1.32 1.06-2.28 1.06s-1.73-0.353-2.3-1.06c-0.57-0.708-0.85-1.713-0.85-3.014 0-1.305 0.28-2.314 0.85-3.017 0.57-0.707 1.34-1.059 2.3-1.059zm-137.07 0.312h2.67c0.49 0 0.87 0.071 1.12 0.206 0.44 0.238 0.66 0.711 0.66 1.414 0 0.648-0.23 1.083-0.69 1.3-0.26 0.125-0.65 0.192-1.16 0.192h-2.6v-3.112zm109.89 0.637l1.46 4.557h-2.96l1.5-4.557z" transform="matrix(.8 0 0 -.8 .06 70.081)"/></g></g></svg>
