<svg xmlns="http://www.w3.org/2000/svg" height="245.75" width="247" viewBox="0 0 247 245.75">
 <g transform="matrix(1.3333 0 0 -1.3333 -286.07 1009.3)">
  <g transform="translate(.22329)">
   <path d="m307.44 756.08-12.079-0.83203 0.10693-1.4912 5.0991 0.35302 0.6753-9.4951 1.856 0.12744-0.67382 9.4951 5.1211 0.35156zm6.293-0.43359-1.3623-10.929 10.77-1.3037 0.18896 1.5029-8.9224 1.0796 0.43213 3.4746 5.398-0.65332 0.17724 1.4414-5.3965 0.65186 0.38086 3.0498 8.8359-1.0693 0.1831 1.4634zm-26.742-1.979-1.9336-0.47607-3.2227-12.139 1.7856 0.43799 0.72363 2.9707 7.333 1.8018 2.0537-2.2881 1.9966 0.48926zm-0.70019-1.4707 4.3052-4.749-5.8418-1.4341zm-8.9019-1.1807-11.227-4.4678 0.56689-1.3857 4.7402 1.8867 3.6196-8.8257 1.7256 0.68848-3.6182 8.8242 4.7593 1.894zm64.608-1.6318-3.7412-7.5557c-0.91153-1.8419-0.59441-2.6109 1.1968-3.4717l5.9575-2.8638c1.81-0.8695 2.5923-0.60433 3.4936 1.2173l3.7427 7.5571-1.6553 0.79541-4.2158-8.5166-7.3198 3.5171 4.2158 8.5166zm-81.977-6.7588c-0.55884 0.0605-1.1699-0.20418-1.9321-0.73096l-4.8794-3.3647c-1.6332-1.126-1.8079-1.9239-0.61523-3.6021l0.55957-0.78662c1.1927-1.6781 2.0128-1.7896 3.6445-0.66357l5.7495 3.9653 1.9263-2.7085-6.8144-4.7022-1.0298 1.4517-1.1851-1.3125 0.17431-0.24317c1.1811-1.6608 2.013-1.7895 3.6636-0.65185l5.3408 3.6841c1.6506 1.1391 1.7934 1.9413 0.61377 3.602l-0.72217 1.0137c-1.155 1.626-1.9765 1.8142-3.6445 0.66358l-5.7656-3.9785-1.79 2.5181 6.4761 4.4678 0.93164-1.3125 1.0532 1.2744-0.13623 0.19189c-0.55286 0.77749-1.0598 1.1641-1.6186 1.2246zm100.52-3.4102-7.0342-8.5576 1.3316-1.0606 4.1426 5.042c0.5188 0.63039 1.0052 1.257 1.4385 1.9541-0.10868-0.70865 0.0241-1.2249 0.0864-1.6597l1.7886-11.285 0.8086-0.64453 7.0342 8.5576-1.3301 1.0606-3.8584-4.6948c-0.50431-0.61301-1.0764-1.3091-1.5967-2.2119 0.0159 0.72893-0.0214 1.3634-0.10693 1.8706l-1.7944 10.904zm15.668-14.14-8.5605-7.0781 1.1968-1.4062 8.562 7.0781zm-139.29-1.2422-1.0064-1.3638 4.96-3.5493c0.64778-0.46374 1.3857-0.99232 2.3291-1.456-0.74199-0.0232-1.3824-0.0921-1.8911-0.20215l-10.961-2.3364-0.68701-0.9331 9.0425-6.4717 1.0049 1.3638-5.3262 3.8115c-0.66518 0.47678-1.3277 0.9256-2.0566 1.3154 0.7246-0.0696 1.241 0.0859 1.6772 0.16846l11.347 2.3525 0.61084 0.8291zm144.51-4.7593-6.2417-10.938 0.82617-1.3022 12.577 0.94775-0.97412 1.5381-10.402-0.917 5.2822 8.9898zm-155.83-13.73c-0.75521-0.0698-1.2302-0.6251-1.7022-1.7754l-2.8945-7.0635c-0.74633-1.8202-0.45964-2.6025 1.4678-3.3691l5.4639-2.1753c1.9274-0.76661 2.6844-0.40219 3.4307 1.4194l2.8975 7.0635c0.75503 1.8405 0.43201 2.5892-1.4766 3.3486l-5.4639 2.1753c-0.71572 0.28477-1.2695 0.41833-1.7227 0.37647zm-0.0117-1.6421 7.5132-2.9898-3.4658-8.4492-7.5117 2.9898zm165.87-1.9702-10.436-3.9448 3.8906-9.9814 1.4355 0.54345-3.2212 8.2676 3.3149 1.2554 1.9497-5.0024 1.374 0.52148-1.9482 4.9995 2.9136 1.1016 3.189-8.1885 1.396 0.52735zm-172.62-16.302c-1.0162-0.12608-1.4336-0.81025-1.6597-2.2178l-1.1323-7.04c-0.31158-1.939 0.1467-2.6358 2.2002-2.9561l5.8198-0.9082c2.0535-0.32027 2.7075 0.20406 3.0205 2.1431l1.1294 7.04c0.31592 1.9593-0.167 2.6401-2.2002 2.9561l-3.5728 0.5581-0.99903-6.2168 1.4136-0.21973 0.70752 4.4033 3.2314-0.50391-1.3696-8.5137-8.001 1.2466 1.3682 8.5166 1.626-0.25489-0.0732 1.8706c-0.0855 0.013-0.19282 0.028-0.27832 0.0425-0.48657 0.0757-0.89175 0.0962-1.2305 0.0542zm178.45-1.3608-11.07-1.5308 0.26074-1.8193 4.311 0.59766 0.45703-3.2124-3.6768-5.0361 0.38525-2.7041 3.5991 5.584 0.22852-1.6055c0.22607-1.584 0.92929-2.2199 2.4741-2.0054l2.4668 0.33985c1.5448 0.21448 2.0425 1.0162 1.8179 2.6016zm-1.1777-2.0156 0.89062-6.2563c0.11449-0.80285-0.0451-1.2128-0.96826-1.3403l-1.6084-0.22265c-0.94342-0.13043-1.1907 0.22255-1.3052 1.0254l-0.89356 6.2564zm-51.646-0.71484c-0.0301-0.0921-0.13377-0.23056-0.22559-0.36035 0.0292 0.0427 0.0935 0.0886 0.12012 0.13769 0.0928 0.1681 0.1475 0.35744 0.10547 0.22266zm-0.22559-0.36035c-0.0502-0.0733-0.1162-0.153-0.20654-0.23584 0.0259 0.0234 0.0893 0.0546 0.10547 0.0747 0.0457 0.0569 0.06 0.10306 0.10107 0.16113zm-0.20654-0.23584c-0.14326-0.12941-0.36003-0.27268-0.58154-0.41602 1e-3 -6.9e-4 -1.8e-4 -8e-3 1e-3 -9e-3 0.0884 0.0536 0.33136 0.19333 0.49512 0.32666 0.0493 0.0403 0.0476 0.0638 0.085 0.0982zm-0.58154-0.41602c-0.043 0.0198-0.0324 0.16318-0.0352 0.25196 4e-3 -0.0556 0.016-0.22547-3e-3 -0.27832 0.0138 9e-3 0.0237 0.0171 0.0381 0.0264zm-0.0381-0.0264c-0.0872-0.0568-0.18472-0.12951-0.2373-0.16993-9e-3 -7e-3 -0.0291-0.0353-0.0396-0.0439 0.0881 0.0689 0.16568 0.13532 0.27685 0.20801 4.3e-4 1e-3 -4e-4 5e-3 0 6e-3zm-0.27685-0.21387c-0.0612-0.0479-0.13666-0.0987-0.1919-0.14502-0.0521 7e-3 -0.11743 0.24373-0.13623 0.29883-0.1 0.28694-0.19267 0.59265-0.26367 0.80713-0.0681 0.20578 0.0745-0.26305 0.19482-0.61231 0.11888-0.34925 0.18691-0.46812 0.12891-0.54492-0.058-0.0783-0.77581-1.027-0.58887-0.77051 0.17877 0.24529 0.62951 0.77698 0.85694 0.9668zm0.27978 0.49219c-1.8e-4 3e-3 1.4e-4 0.0111 0 0.0132-0.0188 0.2768-0.0294 0.37548-0.0381 0.55518-4e-3 0.0942 0.0134-0.24789 0.0352-0.54932 4.1e-4 -6e-3 3e-3 -0.0123 3e-3 -0.019zm0.6416-0.71631c0.071 0.20433-0.0115-0.0316-0.13037-0.38233-0.11883-0.34925-0.13718-0.48663-0.22998-0.51123s-1.2374-0.3272-0.9331-0.2417c0.28915 0.0826 0.95725 0.21889 1.2554 0.22998-0.0754 1.3e-4 -0.16383 7e-3 -0.23438 4e-3 -0.0347 0.0391 0.0603 0.26573 0.0791 0.32373 0.0942 0.28694 0.11796 0.36267 0.19336 0.57715zm-0.0381-0.90528c0.11362-1.8e-4 0.2189 4e-3 0.35303-7e-3 1e-3 5.5e-4 3e-3 4e-3 4e-3 4e-3 -0.10392 0.01-0.22478 0.0136-0.2915 0.0147-0.0134 2e-4 -0.0503-0.0111-0.0659-0.0117zm0.35742-3e-3c0.0162-1e-3 0.0287 1.4e-4 0.0454-1e-3 -0.0199 0.0425 0.071 0.14525 0.12305 0.2168-0.0319-0.0468-0.12188-0.18582-0.16846-0.21534zm0.16846 0.21534c2e-3 3e-3 9e-3 0.01 0.0103 0.0117 0.15506 0.23042 0.20764 0.3136 0.30908 0.45997 0.0536 0.0783-0.1424-0.20193-0.30761-0.45264-4e-3 -6e-3 -7e-3 -0.0126-0.0117-0.019zm-0.12305-0.2168c7.8e-4 -2e-3 -6e-3 -7e-3 -4e-3 -9e-3 0.10145-0.013 0.37875-0.0557 0.59033-0.0513 0.0666 8.7e-4 0.0811 0.0209 0.1333 0.0249-0.19106-0.0142-0.45435 0.01-0.71924 0.0352zm0.71924-0.0352c0.0323 2e-3 0.0979-0.0114 0.12158-6e-3 0.0659 0.0154 0.102 0.0415 0.16553 0.0601-0.0792-0.0239-0.17459-0.0456-0.28711-0.0542zm0.28711 0.0542c0.0529 0.016 0.13697 0.012 0.19189 0.0352 0.17535 0.0754 0.33275 0.19103 0.21826 0.11133-0.0815-0.0558-0.25301-0.10051-0.41015-0.14649zm-119.04-12.331-1.5352-0.1084 0.62842-8.833-3.5449-0.24463-0.37793 5.3438-1.4692-0.10107 0.37939-5.3438-3.1128-0.21387-0.62109 8.748-1.4912-0.10108 0.75146-10.581 11.15 0.76757zm164.28-0.94776c-2.052 0.14057-2.6778-0.41396-2.8184-2.3936l-0.45557-6.4087c-0.14057-1.9796 0.40304-2.5958 2.4551-2.7363l1.2539-0.0864c2.01-0.13768 2.6749 0.37173 2.8169 2.373l0.49219 6.9185 3.1113-0.21387-0.55225-7.771-1.6201 0.11133 0.34131-1.6055 0.23731-0.0176c1.9231-0.13186 2.4946 0.57791 2.625 2.4097l0.41601 5.8535c0.13912 1.9593-0.37985 2.5929-2.4551 2.7363l-0.97266 0.0674c-2.0738 0.14346-2.6778-0.4152-2.8169-2.373l-0.48925-6.8994-3.3501 0.23291 0.58008 8.1738 1.7944-0.12305-0.29004 1.73zm-162.9-14.64-2.8814-5.9751-0.42627 1.5659c-0.42026 1.5463-1.1969 2.0934-2.7026 1.6948l-2.4082-0.63428c-1.5057-0.39853-1.9012-1.2545-1.481-2.8008l2.3335-8.5737 10.796 2.8491-0.48193 1.7725-4.2056-1.1089-0.85254 3.1318 3.0278 5.439zm158.12-3.1538-0.45117-1.7812 10.846-2.6631 0.44971 1.7798zm-163.49-1.3872c0.47973-0.0245 0.68252-0.35208 0.84229-0.93897l1.6582-6.1025-3.7866-0.99902-1.6582 6.1025c-0.21303 0.78401-0.10455 1.2096 0.79394 1.4473l1.5688 0.41308c0.23006 0.0609 0.42163 0.0858 0.58154 0.0776zm171.15-7.752-1.8325-4.7036-9.019 3.4116-0.6665-1.7124 9.0176-3.4116-1.8398-4.7212 1.415-0.53613 4.3403 11.137zm-105.46-5.9209v-0.47315h1.4018v-3.0059h0.51123v3.0059h1.4092v0.47315zm4.3652-1e-3v-3.4761h0.51123v1.5762h2.4199v-1.5762h0.51123v3.4761h-0.51123v-1.4224h-2.4199v1.4224zm5.2192 0v-3.4761h2.978v0.479h-2.4668v1.1045h1.4912v0.4585h-1.4912v0.96826h2.4434v0.46582zm6.7778 0v-2.6543c0-0.64634 0.17292-0.82178 0.72071-0.82178h1.8179c0.55214 0 0.71338 0.18269 0.71338 0.82178v2.6543h-0.50538v-2.9927h-2.2354v2.9927zm5.0332 0v-3.4761h0.46875v2.0493c0 0.25505-6e-3 0.50375-0.0366 0.76026 0.10144-0.19564 0.2207-0.29693 0.31055-0.39112l2.3613-2.4184h0.28418v3.4761h-0.47022v-1.9058c0-0.2507 5.4e-4 -0.53376 0.0483-0.85693-0.12463 0.18115-0.24432 0.33075-0.35156 0.43798l-2.2939 2.3247zm5.1621 0v-3.4761h0.51123v3.4761zm2.9619 0c-0.54635 0-0.71924-0.17545-0.71924-0.82178v-1.8325c0-0.64634 0.17289-0.82178 0.71924-0.82178h2.1226c0.55359 0 0.71338 0.18269 0.71338 0.82178v1.8325c0 0.64054-0.15979 0.82178-0.71338 0.82178zm4.5732 0v-3.4761h0.46875v2.0493c0 0.25505-5e-3 0.50375-0.0351 0.76026 0.10144-0.19564 0.21923-0.29693 0.30908-0.39112l2.3599-2.4184h0.28711v3.4761h-0.47168v-1.9058c0-0.2507 5.4e-4 -0.53376 0.0483-0.85693-0.12463 0.18115-0.24286 0.33075-0.3501 0.43798l-2.2954 2.3247zm-4.7812-0.47168h2.5386v-2.5195h-2.5386zm-84.642-0.0527c-0.45502-0.0131-0.98911-0.21163-1.6641-0.58008l-5.1533-2.8154c-1.7999-0.98254-2.027-1.7649-1.0503-3.501l3.7485-6.6636c0.9666-1.7173 1.7643-1.9888 3.583-0.99609l5.1533 2.814c1.8187 0.99414 2.0052 1.8042 1.04 3.5215l-3.7485 6.6636c-0.61047 1.0851-1.1503 1.579-1.9087 1.5571zm0.17578-1.648 4.4839-7.9717-7.084-3.8686-4.4839 7.9688zm143.44-6.1157-0.9873-1.5557 4.1704-2.5679 2.3364-7.9556 1.2041 1.8999-2.0083 6.0938 6.542 1.0547 1.2275 1.9365-8.3511-1.4502zm-137.68-13.802c-0.30722-0.0109-0.5654-0.14621-0.69873-0.25635-0.73474-0.60721-0.39678-1.3792-0.10839-1.7183 0.40722-0.47823 1.0793-0.5784 1.5952-0.15235 0.57967 0.47968 0.58476 1.1928 0.20508 1.6392-0.32897 0.38549-0.68594 0.49867-0.99317 0.4878zm134.08-3.3882c-0.29944-0.0103-0.58079-0.13706-0.78223-0.35009-0.69706-0.73618-0.28147-1.4483-0.0278-1.6816 0.70286-0.64489 1.4388-0.22063 1.7446 0.10253 0.43186 0.45649 0.45313 1.127-0.041 1.5791-0.27607 0.25433-0.59412 0.36042-0.89356 0.35009zm-123.85-7.1221c-0.30071-0.0634-0.53148-0.2409-0.64307-0.37207-0.61735-0.7246-0.14862-1.4269 0.19629-1.7124 0.48403-0.39997 1.1648-0.38413 1.5982 0.12598 0.48547 0.56953 0.36424 1.2726-0.0879 1.6465-0.39128 0.3239-0.76277 0.37542-1.0635 0.31201zm113.1-2.8433c-0.2969 0.0409-0.59656-0.037-0.8335-0.2124-0.81444-0.60576-0.53095-1.3784-0.32227-1.6509 0.57677-0.75503 1.3779-0.46149 1.7373-0.19629 0.50576 0.37534 0.64307 1.0311 0.2373 1.5615-0.22752 0.29708-0.52194 0.45711-0.81884 0.49805zm-101-5.6235c-0.55091 0.0603-0.94009-0.29653-1.0781-0.51416-0.50867-0.8014 0.0539-1.4337 0.43506-1.6685 0.53765-0.33041 1.208-0.22243 1.5644 0.34131 0.40142 0.63184 0.18353 1.3114-0.31934 1.6201-0.21629 0.13332-0.41841 0.2011-0.60205 0.22119zm88.386-2.313c-0.14535-0.0138-0.28852-0.056-0.41895-0.12451-0.90139-0.47244-0.74384-1.2777-0.58008-1.5806 0.4507-0.83473 1.286-0.67012 1.6831-0.46289 0.55794 0.29274 0.79932 0.92039 0.4834 1.5059-0.26629 0.49345-0.73144 0.70361-1.1675 0.66211zm-71.682-0.49951-0.36475-1.0503 2.2939-0.77783-3.0688-8.7773 1.6172-0.54785 3.6665 10.491zm55.668-0.8042c-0.31633-0.0158-0.68474-0.0877-1.1191-0.20215l-6.3193-1.667c-1.7361-0.45794-2.2157-1.0041-1.7564-2.6953l0.26367-0.96826c0.34201-1.2579 1.039-1.7591 2.2969-1.604-1.3448-0.57532-1.735-1.3644-1.3872-2.6426l0.30176-1.1133c0.4478-1.6492 1.1446-2.1507 3.0908-1.6362l6.4644 1.7065c1.9462 0.51446 2.3169 1.2966 1.8691 2.9458l-0.30322 1.1133c-0.3478 1.2782-1.1085 1.7619-2.5664 1.5982 1.1695 0.48548 1.5402 1.2675 1.1982 2.5254l-0.26514 0.96826c-0.34455 1.2684-0.81908 1.7189-1.7681 1.6714zm-0.64013-1.6582c0.46668-2.8e-4 0.64457-0.28482 0.81738-0.91845l0.22266-0.82471c0.23621-0.86662 0.11478-1.1642-0.78516-1.4019l-5.3555-1.4121c-0.92023-0.24346-1.1597-0.0202-1.3901 0.82617l-0.22412 0.8247c-0.21883 0.80285-0.13507 1.1555 0.78516 1.3989l5.3555 1.415c0.23006 0.0605 0.41866 0.0924 0.57422 0.0923zm-42.412-0.68261c-0.9492-0.0506-1.3744-0.54718-1.582-1.8428l-0.1582-0.9917c-0.20579-1.2854 0.22259-2.0224 1.437-2.3833-1.468 0.0116-2.1512-0.55026-2.3613-1.8574l-0.18164-1.1396c-0.271-1.6854 0.15774-2.4218 2.1475-2.7334l6.6108-1.0312c1.9897-0.31012 2.6514 0.25554 2.9224 1.9424l0.18164 1.1382c0.21014 1.3072-0.2832 2.054-1.6831 2.4888 1.2695-0.0246 1.93 0.54124 2.1372 1.8267l0.1582 0.99024c0.27824 1.7289-0.2565 2.2222-2.0317 2.499l-6.4614 1.0093c-0.44418 0.0692-0.81886 0.10182-1.1352 0.085zm24.584-0.95655c-0.23766 6e-3 -0.49939 9e-3 -0.75879-9e-3 -4.862-0.3362-7.5496-2.8322-7.2568-6.9609l0.10254-1.4473c0.1855-2.6187 1.061-3.3276 3.6753-3.148l4.4297 0.30469c2.4201 0.16666 3.5303 1.0559 3.3955 2.9297l-0.104 1.4897c-0.15941 2.2346-1.433 2.7471-4.7168 2.521-1.6637-0.11449-3.2958-0.37676-4.916-0.81006 0.16665 2.2578 2.3846 3.4368 6.7061 3.7339 0.19419 0.0145 0.43202 0.0307 0.69287 0.0278zm-23.771-0.63281c0.15531 0.0194 0.34459 0.0102 0.58008-0.0264l5.477-0.854c0.94197-0.14781 1.0678-0.44881 0.93018-1.314l-0.13623-0.84229c-0.14202-0.884-0.37469-1.1073-1.2949-0.96387l-5.477 0.85401c-0.94197 0.14637-1.0678 0.44734-0.93018 1.3125l0.13623 0.84228c0.0989 0.61627 0.24891 0.93342 0.71484 0.9917zm42.995-2.1035c0.45772 9e-3 0.65449-0.25056 0.83057-0.89942l0.31348-1.1543c0.23622-0.86515 0.0872-1.148-0.79102-1.3799l-5.773-1.5249c-0.87965-0.23187-1.151-0.0595-1.3857 0.80566l-0.31494 1.1543c-0.23042 0.84632-0.0886 1.148 0.79101 1.3799l5.7759 1.5249c0.21955 0.058 0.40114 0.0908 0.55371 0.0937zm-43.919-2.3892c0.1523 0.0143 0.33641 1e-3 0.56103-0.0337l5.9062-0.92138c0.8985-0.13913 1.0751-0.40507 0.93311-1.2891l-0.19043-1.1807c-0.14202-0.884-0.39349-1.0839-1.292-0.94482l-5.9048 0.92285c-0.89849 0.14057-1.0751 0.40508-0.9331 1.2905l0.19042 1.1792c0.10434 0.64887 0.2726 0.93426 0.7295 0.97706zm24.942-0.60645c1.0451-0.0986 1.3938-0.53915 1.4634-1.5293l0.0527-0.70312c0.0956-1.3622-0.35515-1.7356-2.042-1.8516l-3.3911-0.23438c-2.2912-0.15796-2.3723 0.0729-2.5708 2.8828-0.013 0.16956-7e-3 0.38389 0.0176 0.66358 1.4724 0.35795 3.1914 0.62698 5.1782 0.76465 0.51844 0.0355 0.94362 0.0402 1.292 7e-3z" fill-rule="evenodd"/>
   <path d="m296.8 723.33c-0.34346-0.18839-0.66807-0.32752-0.66807-0.32752s-0.24057 1.2941-0.24057 2.0231c0 0.72894 0.64054 2.8332 0.64054 2.8332s-1.7231-1.9825-2.4854-2.7926c-0.76227-0.80864-2.2854-1.1738-2.2854-1.1738s-0.36085 1.3362-0.28114 2.6303c0.0797 1.2956 1.4434 3.3592 1.4434 3.3592s-2.8056-1.6187-5.4518-2.5491c-2.6462-0.93037-4.7722-0.1623-4.7722-0.1623s0.44055 0.6072 1.3231 1.4579c0.88255 0.84923 3.4085 2.5897 5.7344 3.5606 2.3245 0.97095 4.4432 0.6246 5.8938 0.20288 1.8042-0.52605 3.4476-2.2665 3.0868-3.8853-0.36085-1.6187-0.16086-1.8622 0.12028-2.3477 0.28114-0.48548 1.397-0.25941 2.3651 0.36374 1.4434 0.93183 2.2056 2.4694 2.4056 3.1578 0.20144 0.68691 0.28114 2.994 0.24057 3.7635-0.0391 0.76807 0.18114 2.3477 0.18114 2.3477-0.20433 0.20578-0.28259 1.0883-0.46084 1.5782 0 0 0.35505-0.10289 1.0695-0.23187-0.20288 0.20578-0.36954 0.87531-0.54924 1.3651 0 0 0.17825-0.0913 0.89415-0.22028 0.71444-0.12897 1.0608 0.029 2.8346 0.0812 1.7738 0.0507 2.0071-0.39853 2.1825-0.59417 0.14492-0.15941 0.2565-0.28259 1.7883-0.46374 1.5332-0.17969 1.6216-1.3014 1.6216-1.8158 0-0.51591-0.0985-1.4796-0.0985-1.4796s-0.38693 0.42171-0.66807 0.57678c-0.28114 0.15506-1.3405 0.20578-2.1318 0.15506-0.79125-0.0522-1.0217-0.69561-0.99559-1.3535 0.0246-0.65648 0.63764-1.6752 1.0463-2.1767 0.60431-0.74198 1.6521-2.4506 2.0347-3.8693 0.1681-0.62315 1.1767-1.242 1.4796-1.3014 0.30433-0.0623 1.1898-0.20433 1.3767 0.11739 0.28114 0.48547 0.48112 0.72894 0.12028 2.3477-0.36085 1.6187 1.2825 3.3592 3.0868 3.8853 1.4506 0.42172 3.5693 0.76807 5.8953-0.20288 2.3245-0.97096 4.8504-2.7114 5.733-3.5606 0.8811-0.85067 1.3231-1.4579 1.3231-1.4579s-2.126-0.76807-4.7722 0.1623c-2.6462 0.93038-5.4518 2.5491-5.4518 2.5491s1.3637-2.0636 1.4434-3.3592c0.0797-1.2941-0.28114-2.6303-0.28114-2.6303s-1.5231 0.3652-2.2854 1.1738c-0.76227 0.8101-2.4853 2.7926-2.4853 2.7926s0.64053-2.1042 0.64053-2.8332c0-0.72893-0.23911-2.0231-0.23911-2.0231s-0.92313 0.40433-1.3246 0.76807m-15.927-0.28839c-0.30868-0.51156-0.87241-0.84342-1.7376-0.57242-0.92313 0.28983-0.95501 1.7579-0.95501 1.7579s-0.41592-0.61591-0.81734-0.97965c-0.16521-0.15072-0.42026-0.30868-0.66228-0.44055m16.602 0.23476c0.30867-0.51156 0.87385-0.84342 1.739-0.57242 0.92313 0.28983 0.95501 1.7579 0.95501 1.7579s0.41591-0.61591 0.81589-0.97965c0.16665-0.15072 0.42171-0.30868 0.66227-0.44055m-16.151-1.142c0-1.0304-0.62315-1.8666-1.3927-1.8666-0.76807 0-1.3912 0.83618-1.3912 1.8666m3.4838-10.369s-0.62315-0.90429-0.79995-2.3665c-0.16955-1.4115-9e-3 -2.4114 0.24202-3.2201m8.1937 30.247s-0.46084-0.32752-0.99559-0.12898c-0.59996 0.22462-0.65358 0.77241-0.65358 0.77241s0.45359 0.32462 0.98834 0.12463c0.59851-0.22462 0.66083-0.76806 0.66083-0.76806zm3.3099-14.292c0-1.0304 0.6246-1.8666 1.3927-1.8666 0.76952 0 1.3912 0.83618 1.3912 1.8666m-5.1301-2.0723c0.19853-0.75648 0.73618-1.2956 1.3579-1.2956 0.7927 0 1.4332 0.87675 1.4332 1.9593m-5.0446-2.2201c0.19129-0.72315 0.71444-1.2405 1.3202-1.2405 0.76807 0 1.3912 0.83473 1.3912 1.8666m-7.4807 10.731c0.40143-1.1333 1.3231-2.8332 1.9651-3.3998 0.64054-0.56663 0.84197-0.52605 1.1231-0.40432 0.2797 0.12028 0.60141 0.72894 0.2797 1.1738m-30.373-4.7504s2.8462 1.9231 3.3273 2.3274 2.1013 1.71 2.1013 1.71 0.69706-0.3652 1.1622-0.61156c0.48837-0.25795 1.2275-0.64488 1.2275-0.64488s-0.84198-0.85792-1.9245-1.7086c-0.71155-0.55794-2.4868-1.213-3.449-1.2941-0.96226-0.0812-2.4448 0.22172-2.4448 0.22172zm6.2938-3.0346s0.16086 2.2854 0.64198 3.2172c0.48113 0.93038 1.4898 2.3491 1.4898 2.3491s0.60431-0.32027 1.4898-0.67677c0.88545-0.35505 1.5608-0.59417 1.5608-0.59417s-1.0724-2.0694-1.613-2.5752c-1.6042-1.4984-3.5693-1.7202-3.5693-1.7202zm5.7025 4.1026s-0.51011-1.5332-0.63039-2.5448 0.36084-3.3186 0.36084-3.3186 1.6535 0.82313 2.7477 2.3477c0.79995 1.1144 1.1478 2.5201 1.1478 2.5201s-2.2346 0.59417-1.7984 0.46954c0.43621-0.12463-1.8274 0.52605-1.8274 0.52605zm4.2562-1.1391s-0.32606-1.7492-0.28693-2.6795c0.0406-0.93182 0.81299-3.1172 0.81299-3.1172s1.8332 1.5332 2.2868 2.468c0.32172 0.66807 0.8898 2.5796 0.8898 2.5796s-1.0014 0.171-1.7941 0.33476c-0.93617 0.19274-1.9086 0.41446-1.9086 0.41446zm-16.619-0.67532s-2.2274-1.868-3.1795-2.6462c-0.95211-0.77966-3.4375-2.7897-3.4375-2.7897s2.1825-0.58547 4.5026 0.32896c2.3201 0.91444 3.3099 1.7303 3.9867 2.5114 0.69706 0.80284 0.9782 1.1159 0.9782 1.1159s-1.155 0.59127-1.5477 0.79125c-0.39273 0.19854-1.3028 0.68836-1.3028 0.68836zm3.4853-1.7839s-1.2043-1.7694-1.5274-2.7143c-0.54345-1.5869-0.43041-2.7592-0.43041-2.7592s1.681-0.21013 3.2012 0.88256c1.7738 1.2738 2.723 2.9534 2.723 2.9534s-1.0449 0.36954-1.9912 0.76517c-0.94631 0.39563-1.9752 0.87241-1.9752 0.87241zm4.6142-1.8434s-0.86807-1.6593-0.90864-2.6477c-0.0377-0.98979 0.60141-2.3259 0.60141-2.3259s1.5274 0.7217 2.2491 1.4709c0.72169 0.74923 1.7057 2.51 1.7057 2.51s-1.2376 0.30867-2.0057 0.51301c-0.79705 0.21303-1.6419 0.47968-1.6419 0.47968zm4.3896-1.1695s-0.63474-1.5854-0.54344-2.5317c0.0898-0.94631 0.90284-2.1868 0.90284-2.1868s1.4318 0.77531 2.0549 1.5303c0.62315 0.75648 1.4086 2.4259 1.4086 2.4259s-1.3057 0.24201-2.1404 0.40287c-0.82313 0.15796-1.6825 0.3594-1.6825 0.3594zm4.491-0.87676s-0.53185-1.5579-0.36519-2.4738c0.16665-0.91589 1.0956-2.0955 1.0956-2.0955s1.4028 0.79125 1.981 1.5405c0.57678 0.75068 1.1825 2.4288 1.1825 2.4288s-1.2463 0.19129-2.1013 0.31302c-0.85647 0.12318-1.7926 0.28694-1.7926 0.28694zm-32.234-5.5634s4.22 2.339 4.933 2.8317c0.71299 0.49272 3.1128 2.081 3.1128 2.081s1.0318-0.44345 1.7216-0.74343c0.72459-0.31448 1.8216-0.78546 1.8216-0.78546s-1.2492-1.0449-2.8534-2.0781c-1.0536-0.67967-3.6838-1.4782-5.1098-1.5767-1.4274-0.0985-3.6258 0.271-3.6258 0.271zm8.5125-0.0739s3.1636 2.0129 3.6983 2.4361c0.53475 0.42316 2.3346 1.7897 2.3346 1.7897s0.77531-0.38114 1.2927-0.63909c0.54344-0.271 1.3651-0.67532 1.3651-0.67532s-0.93617-0.8985-2.1404-1.7883c-0.78981-0.58402-2.7622-1.2709-3.8331-1.355-1.068-0.0855-2.7172 0.23187-2.7172 0.23187zm68.07 12.057s-2.8476 1.9231-3.3288 2.3274-2.1013 1.71-2.1013 1.71-0.69561-0.3652-1.1622-0.61156c-0.48837-0.25795-1.2275-0.64488-1.2275-0.64488s0.84198-0.85792 1.9245-1.7086c0.71155-0.55794 2.4854-1.213 3.4491-1.2941 0.96225-0.0812 2.4462 0.22172 2.4462 0.22172zm-6.2952-3.0346s-0.16086 2.2854-0.64199 3.2172c-0.48113 0.93038-1.4898 2.3491-1.4898 2.3491s-0.60431-0.32027-1.4898-0.67677c-0.88401-0.35505-1.5608-0.59417-1.5608-0.59417s1.0709-2.0694 1.6129-2.5752c1.6042-1.4984 3.5693-1.7202 3.5693-1.7202zm-5.7025 4.1026s0.51011-1.5332 0.63039-2.5448c0.12029-1.0115-0.36084-3.3186-0.36084-3.3186s-1.6535 0.82313-2.7462 2.3477c-0.8014 1.1144-1.1478 2.5201-1.1478 2.5201s2.2332 0.59417 1.797 0.46954c-0.43476-0.12463 1.8274 0.52605 1.8274 0.52605zm-4.2562-1.1391s0.32606-1.7492 0.28694-2.6795c-0.0406-0.93182-0.813-3.1172-0.813-3.1172s-1.8332 1.5332-2.2854 2.468c-0.32317 0.66807-0.89125 2.5796-0.89125 2.5796s1.0028 0.171 1.7941 0.33476c0.93618 0.19274 1.9086 0.41446 1.9086 0.41446zm16.621-0.67532s2.226-1.868 3.1781-2.6462c0.95356-0.77966 3.4375-2.7897 3.4375-2.7897s-2.181-0.58547-4.5026 0.32896c-2.3201 0.91444-3.3099 1.7303-3.9867 2.5114-0.69706 0.80284-0.9782 1.1159-0.9782 1.1159s1.155 0.59127 1.5477 0.79125c0.39272 0.19854 1.3043 0.68836 1.3043 0.68836zm-3.4867-1.7839s1.2028-1.7694 1.5274-2.7143c0.54489-1.5869 0.4304-2.7592 0.4304-2.7592s-1.6796-0.21013-3.2012 0.88256c-1.7738 1.2738-2.7216 2.9534-2.7216 2.9534s1.0434 0.36954 1.9897 0.76517 1.9752 0.87241 1.9752 0.87241zm-4.6156-1.8434s0.87096-1.6593 0.90864-2.6477c0.0406-0.98979-0.59852-2.3259-0.59852-2.3259s-1.5289 0.7217-2.2506 1.4709c-0.72169 0.74923-1.7057 2.51-1.7057 2.51s1.2376 0.30867 2.0057 0.51301c0.79705 0.21303 1.6405 0.47968 1.6405 0.47968zm-4.3881-1.1695s0.63329-1.5854 0.54344-2.5317c-0.0899-0.94631-0.90284-2.1868-0.90284-2.1868s-1.4318 0.77531-2.0549 1.5303c-0.6217 0.75648-1.4086 2.4259-1.4086 2.4259s1.3057 0.24201 2.139 0.40287c0.82458 0.15796 1.684 0.3594 1.684 0.3594zm-4.491-0.87676s0.53185-1.5579 0.3652-2.4738c-0.16666-0.91589-1.0956-2.0955-1.0956-2.0955s-1.4043 0.79125-1.981 1.5405c-0.57822 0.75068-1.1825 2.4288-1.1825 2.4288s1.2463 0.19129 2.1013 0.31302c0.85647 0.12318 1.7926 0.28694 1.7926 0.28694zm32.234-5.5634s-4.22 2.339-4.9316 2.8317c-0.71444 0.49272-3.1143 2.081-3.1143 2.081s-1.0318-0.44345-1.7231-0.74343c-0.72314-0.31448-1.8202-0.78546-1.8202-0.78546s1.2492-1.0449 2.8534-2.0781c1.055-0.67967 3.6838-1.4782 5.1113-1.5767 1.426-0.0985 3.6244 0.271 3.6244 0.271zm-8.5111-0.0739s-3.165 2.0129-3.6998 2.4361c-0.53475 0.42316-2.3346 1.7897-2.3346 1.7897s-0.77386-0.38114-1.2912-0.63909c-0.54344-0.271-1.3666-0.67532-1.3666-0.67532s0.93762-0.8985 2.1404-1.7883c0.78981-0.58402 2.7636-1.2709 3.8331-1.355 1.0695-0.0855 2.7187 0.23187 2.7187 0.23187zm-45.683-4.4664c0.58112-0.28259 0.71444-0.47534 0.31302-1.0724s-0.91299-1.3651-1.1579-1.91c-0.24491-0.5449-0.80429-0.58692-0.77096 0.10579 0.0333 0.69271 0.13187 1.6318 0.49272 2.2259 0.3623 0.59417 0.54055 0.93183 1.1231 0.65069zm1.7767-0.70431c0.55793-0.2536 0.70575-0.42751 0.44489-0.9637-0.26085-0.5362-0.59126-1.2246-0.72024-1.7129-0.13043-0.48982-0.61735-0.52605-0.69706 0.0956-0.0783 0.62315-0.14057 1.4666 0.0855 1.9999s0.33041 0.83618 0.8869 0.58112zm1.9042-0.22172c0.55069-0.12173 0.7159-0.24636 0.57968-0.75648-0.13623-0.50866-0.30578-1.1622-0.33332-1.6071-0.0275-0.44635-0.46084-0.56228-0.64633-0.0391-0.1855 0.52461-0.39708 1.2448-0.29274 1.7448 0.10579 0.50142 0.14347 0.78111 0.69271 0.65793zm1.968-1.4202s-0.66517-0.0536-1.5811-0.0884m-1.0478-0.0261c-0.37968-6e-3 -0.77966-4e-3 -1.1724 4e-3m-1.1043 0.058c-0.23912 0.0188-0.48403 0.0435-0.69851 0.0739-0.16521 0.0246-0.33331 0.0536-0.50142 0.087m10.092 27.332c0.54054-1.2217 1.3622-2.6346 1.9709-3.1737 0.75067-0.66227 0.84342-0.52605 1.1231-0.40432 0.28114 0.12173 0.55504 0.67242 0.28114 1.1738m-5.0417 1.9477c0.54054-1.2246 1.3651-2.6448 1.9767-3.1853 0.75068-0.66228 0.84198-0.52606 1.1231-0.40433 0.27969 0.12174 0.58837 0.70721 0.26665 1.1536m-4.9866 2.0825c0.52315-1.297 1.4637-2.9781 2.1419-3.5766 0.75068-0.66373 0.84198-0.52606 1.1231-0.40578 0.27969 0.12174 0.62315 0.73329 0.30288 1.1782m5.9489-21.522c-0.58113-0.28114-0.7159-0.47388-0.31303-1.0724 0.40143-0.59706 0.91299-1.3637 1.1579-1.91 0.24346-0.54489 0.8043-0.58547 0.77096 0.10724-0.0348 0.69126-0.13187 1.6318-0.49417 2.226-0.36229 0.59416-0.54054 0.93182-1.1217 0.64923zm-1.7767-0.70285c-0.55794-0.25506-0.70576-0.42751-0.4449-0.96371 0.2594-0.5362 0.58982-1.2246 0.72024-1.7144 0.13043-0.48983 0.61735-0.52461 0.69561 0.0971 0.0797 0.6217 0.14057 1.4666-0.0855 1.9999-0.22463 0.5333-0.32897 0.83618-0.88545 0.58113zm-1.9057-0.22173c-0.54924-0.12173-0.71445-0.24636-0.57822-0.75647 0.13622-0.50867 0.30577-1.1622 0.33331-1.6086 0.0261-0.44634 0.45939-0.56083 0.64489-0.0377 0.18694 0.52461 0.39852 1.2434 0.29418 1.7448-0.10579 0.50142-0.14347 0.78111-0.69416 0.65793zm12.873 1.4216 0.27824-1.4811 2.0158 1.0956zm-4.8127 1.242 0.57677-1.3912 1.7434 1.4985zm2.8897-3.7403-0.029-1.5057 2.1984 0.64633zm-14.524-1.8709 3.0534 1.184m-3.0259 0.67098 2.852-0.15507m1.4492-0.12318 0.73183 0.26086m1.3492 0.47533 0.56663 0.24926m1.4347 0.74198 3.4491 1.5303m-5.3533-2.9042 0.90719 0.15217m1.2666 0.271 7.9169 1.2883m-12.318-1.9564 0.91299-0.0449m1.3753-0.0667 1.1144-0.0913m1.1753-0.0739 5.6185-0.33476m-10.711 24.261s0.74198-1.5724 0.92023-2.3491c0.22318-0.96371 0.24926-1.7724 0-1.9883-0.24201-0.20868-0.52605-0.0826-0.72604 0.11738m-1.4405 3.8722s0.54924-1.7637 0.62314-2.552c0.0928-0.97965 0.0131-1.7767-0.2652-1.952-0.27099-0.16956-0.53619-4e-3 -0.7101 0.22027m-0.88979 3.7809s0.28259-1.5811 0.2507-2.3651c-0.0391-0.9753-0.22607-1.7477-0.52605-1.8781-0.29273-0.12753-0.53765 0.0725-0.67967 0.31882m-0.41591 4.036s0.10289-1.7868-0.0333-2.552c-0.16956-0.95211-0.45939-1.684-0.77821-1.768-0.30868-0.0841-0.52461 0.14926-0.63475 0.41156m-1.1492 4.5548s-0.40432-1.9448-0.74053-2.6288c-0.41737-0.85067-0.89415-1.4564-1.2275-1.4463-0.32462 0.0102-0.47533 0.29274-0.51301 0.57243m1.1391 3.6085s-0.55359-1.4753-0.97965-2.0984m3.5563 0.75068c-0.0594-0.5333-0.18404-1.3246-0.33621-1.7912-0.29563-0.91009-0.68401-1.5854-1.013-1.6231-0.31883-0.0362-0.50432 0.22462-0.57823 0.49707m-1.1753-6.5068c-0.22317-0.41157-0.54489-0.66953-0.89414-0.67532-0.34781-6e-3 -0.84053 0.31737-0.95501 0.74343-0.16956 0.62025-0.25071 1.3057-0.75503 1.355-0.2594 0.0246-1.1506-0.87966-1.8129-0.7159-0.81589 0.19999-0.93617 1.2492-1.0652 1.8506-0.13042 0.60286-0.20723 2.8824-0.22607 4.091m13.898-6.6488c0.22462-0.41157 0.54634-0.66953 0.89559-0.67532 0.34781-6e-3 0.83908 0.31737 0.95502 0.74343 0.1681 0.62025 0.2507 1.3057 0.75502 1.355 0.2594 0.0246 1.1492-0.87966 1.8115-0.7159 0.81589 0.19999 0.93617 1.2492 1.0666 1.8506 0.13042 0.60286 0.20578 2.8824 0.22607 4.091m-12.135-10.838c-0.23042-0.40722-0.55649-0.65938-0.90574-0.65938-0.3478 0-0.66228 0.24926-0.89125 0.65213m5.0388 7e-3c-0.23042-0.40722-0.55648-0.65938-0.90719-0.65938-0.34635 0-0.66082 0.24926-0.88979 0.65213m5.0388 7e-3c-0.23187-0.40722-0.55794-0.65938-0.90719-0.65938-0.34781 0-0.66228 0.24926-0.8898 0.65213m-3.4027 1.6158c-0.23042-0.40867-0.55649-0.66083-0.90574-0.66083-0.34781 0-0.66228 0.24926-0.89125 0.65214m-0.98834 0.85067c-0.23042-0.40722-0.55649-0.65938-0.90719-0.65938-0.34636 0-0.66083 0.24926-0.8898 0.65213m8.498-0.83473c-0.23042-0.40867-0.55794-0.66083-0.90719-0.66083-0.3478 0-0.66228 0.24926-0.89125 0.65214m4.5838 0.85067c-0.23042-0.40722-0.55794-0.65938-0.90719-0.65938-0.34635 0-0.66083 0.24926-0.8898 0.65213m-5.5822 1.1144c-0.23187-0.40722-0.55794-0.65937-0.90719-0.65937-0.34636 0-0.66083 0.24925-0.8898 0.65213m7.0691 7e-3c-0.23042-0.40722-0.55649-0.65937-0.90574-0.65937-0.34781 0-0.66228 0.24925-0.89125 0.65213m-2.6766-5.1388c-0.23042-0.40722-0.55649-0.65937-0.90719-0.65937-0.34636 0-0.66083 0.24925-0.8898 0.65213m5.4721 7e-3c-0.23042-0.40722-0.55649-0.65937-0.90719-0.65937-0.34636 0-0.66083 0.24925-0.8898 0.65213m-0.0406-3.8432c-0.23042-0.40722-0.55648-0.65937-0.90719-0.65937-0.34635 0-0.66082 0.24781-0.88979 0.65213m0.3449 13.141c-0.23042-0.40867-0.55649-0.66083-0.90719-0.66083-0.34635 0-0.66227 0.24926-0.8898 0.65359m-0.69271 1.3593c-0.23187-0.40722-0.55793-0.65938-0.90718-0.65938-0.34781 0-0.66228 0.24926-0.89125 0.65213m5.3953-1.3448c0.23042-0.40867 0.55793-0.66083 0.90719-0.66083 0.34635 0 0.66082 0.24926 0.88979 0.65359m0.69271 1.3593c0.23187-0.40722 0.55794-0.65938 0.90719-0.65938 0.34636 0 0.66228 0.24926 0.8898 0.65213m-8.3111-1.4086c-0.19853-0.75648-0.73473-1.2956-1.3564-1.2956-0.7927 0-1.4347 0.87675-1.4347 1.9593m5.046-2.2201c-0.19129-0.72315-0.71589-1.2405-1.3216-1.2405-0.76807 0-1.3912 0.83473-1.3912 1.8666m3.5578-9.9849c-0.23042-0.40722-0.55794-0.65938-0.90719-0.65938-0.34636 0-0.66228 0.24926-0.8898 0.65213m4.336 7e-3c-0.23042-0.40722-0.55649-0.65938-0.90719-0.65938-0.34636 0-0.66083 0.24926-0.8898 0.65213m-3.7374 1.1405s-0.70576-1.097-0.75503-2.2419c-0.0507-1.1448 0.10579-1.6318 0.2623-2.2013m4.7577 11.814c-0.23042-0.40722-0.55648-0.65938-0.90719-0.65938-0.34635 0-0.66082 0.24926-0.88979 0.65213m6.0286-5.8779s0.6246-0.90429 0.8014-2.3665c0.16955-1.4115 9e-3 -2.4114-0.24347-3.2201m-2.3071 4.1012s0.70431-1.097 0.75503-2.2419c0.0493-1.1448-0.10579-1.6318-0.2623-2.2013m3.2737 6.1822s0.60721-1.0883 0.65648-2.5477c0.0493-1.4593-0.40287-2.6288-0.40287-2.6288m-17.134-2.8534c-1.6463 0.47823-1.3101 0.37678-2.5419 1.0362-1.6376 0.87676-5.0548 1.7926-5.0548 1.7926m5.9706-1.3506c-0.40722-0.11448-0.86516 0.39418-0.95646 0.84922-0.0928 0.45505-0.0159 1.4941-0.0159 1.4941s0.87241-0.3507 1.2159-0.95936c0.34346-0.6101 0.16376-1.268-0.24346-1.384zm-2.2506 0.92893c-0.40722-0.11449-0.86516 0.39418-0.95646 0.84922-0.0928 0.45504-0.0159 1.4941-0.0159 1.4941s0.8724-0.35215 1.2159-0.95936c0.34491-0.61011 0.16376-1.268-0.24346-1.384zm-2.1042 0.81299c-0.36809-0.21158-0.93472 0.16956-1.1333 0.58837-0.19709 0.41736-0.37244 1.4434-0.37244 1.4434s0.93183-0.12608 1.4115-0.6333c0.47968-0.50576 0.46229-1.1883 0.0942-1.3985zm-1.6955-0.40722c-0.12753-0.40722-0.8014-0.51881-1.2289-0.3507-0.42751 0.1681-1.2506 0.7956-1.2506 0.7956s0.77096 0.54924 1.4651 0.51011c0.69416-0.0391 1.142-0.54779 1.0144-0.95501zm1.6984-1.5724c-9e-3 -0.35795-0.5275-0.60721-0.91298-0.57098-0.38404 0.0362-1.1927 0.34925-1.1927 0.34925s0.49707 0.62315 1.0666 0.75503c0.57098 0.13042 1.0492-0.17535 1.0391-0.5333zm2.1303-0.72025c0.0275-0.3565-0.46374-0.65793-0.84922-0.66227-0.38693-6e-3 -1.2231 0.22027-1.2231 0.22027s0.42896 0.67242 0.98255 0.86227c0.55358 0.19129 1.0622-0.0623 1.0898-0.42027zm2.0013-0.8753c0.0638-0.35216-0.39272-0.70286-0.77676-0.74923-0.38403-0.0449-1.239 0.0913-1.239 0.0913s0.35795 0.713 0.88835 0.96081 1.0622 0.0493 1.1275-0.30288zm6.4126 9.4414c-0.23042-0.40723-0.55649-0.65938-0.90719-0.65938-0.34635 0-0.66083 0.24781-0.8898 0.65213m14.15 7e-3c-0.23187-0.40723-0.55794-0.65938-0.90719-0.65938-0.3478 0-0.66228 0.24781-0.89125 0.65213m-12.521-1.0492s-0.60721-1.0883-0.65648-2.5477c-0.0493-1.4593 0.40287-2.6288 0.40287-2.6288m8.285 8.6908c-0.23042-0.40722-0.55648-0.65938-0.90719-0.65938-0.34635 0-0.66082 0.24926-0.88979 0.65213m-24.798-91.898c0 0.25361 0 1.2651-1.0724 1.6434-1.0738 0.37969-2.9839-0.33186-4.7722-1.2173l0.81155 3.5404-2.4433 1.5028c2.2361 1.1057 4.7939 1.9752 6.1344 1.5014 1.3419-0.47533 1.3419-1.739 1.3419-2.0549zm1e-3 5.1258c0-0.71155 0.96516-0.94776 1.9332-0.55359 0.82893 0.33766 1.3101 0.8869 1.7912 1.2362m47.535-5.8083c0 0.25361 0 1.2651 1.0738 1.6434 1.0724 0.37969 2.9824-0.33186 4.7707-1.2173l-0.81299 3.5404 2.4448 1.5028c-2.2361 1.1057-4.7939 1.9752-6.1344 1.5014-1.342-0.47533-1.342-1.739-1.342-2.0549zm-1e-3 5.1258c0-0.71155-0.96515-0.94776-1.9332-0.55359-0.82893 0.33766-1.3101 0.8869-1.7926 1.2362m-43.822-2.6317 0.071 4.9779c0.0203 1.0898 0.64344 2.5882 1.4506 2.5882h40.795c0.8072 0 1.4289-1.4985 1.4506-2.5882l0.0725-4.9779m-47.567-3.081c0-0.71155 0.9695-0.94922 1.9376-0.55359 0.9695 0.39418 1.6825 1.0782 1.981 1.3927 0.29853 0.31737 0.33476 1.0738-0.0377 1.7057-0.37244 0.6333-6e-3 1.2275 1.1115 1.2275h41.308c1.1173 0 1.484-0.59416 1.1115-1.2275-0.37244-0.63184-0.33476-1.3883-0.0377-1.7057 0.29853-0.31447 1.0115-0.99848 1.981-1.3927 0.96806-0.39563 1.9376-0.15796 1.9376 0.55359m10.877 55.272c0.0928 0.0246 0.11159 0.16086 0.23042 0.51011 0.11883 0.3507 0.20144 0.58692 0.13043 0.38259-0.0754-0.21448-0.1-0.28984-0.19419-0.57678-0.0188-0.058-0.11304-0.28404-0.0783-0.32317 0.1768 6e-3 0.36375 7e-3 0.58692-0.0116 0.0478 0.0261 0.15651 0.19274 0.1826 0.23042 0.15506 0.23042 0.20868 0.31447 0.31012 0.46084 0.0536 0.0783-0.14202-0.20288-0.30723-0.45359-0.0478-0.0725-0.1739-0.20289-0.14057-0.24492 0.10145-0.013 0.37969-0.0551 0.59127-0.0507 0.30578 4e-3 0.43621 0.0406 0.61156 0.11449 0.17535 0.0754 0.33331 0.19129 0.21882 0.11159-0.11448-0.0783-0.34635-0.15362-0.57532-0.20724-0.22897-0.0536-0.90864 0.0536-1.1782 0.058-0.2681 4e-3 -1.0173-0.15506-1.3216-0.24201-0.30433-0.0855 0.84052 0.21737 0.93327 0.24201zm-33.766-35.048c0.73184 0 1.3246-0.59996 1.3246-1.339 0-0.74054-0.59271-1.3405-1.3246-1.3405-0.73329 0-1.326 0.59996-1.326 1.3405 0 0.73908 0.59271 1.339 1.326 1.339zm0.88545-2.5071 2.2549-2.4694c-0.80285-0.70721-1.8463-1.1463-2.9868-1.1825m1.1927 4.4287h3.4172c-0.0812-1.0202-0.48112-1.9506-1.0927-2.6926m-0.20578 6.3112-2.3491-2.4897m-1.1941 4.0055v-3.3041m-3.1027 2.1578c0.84488 0.76227 1.9593 1.2246 3.181 1.2246 2.6361 0 4.7751-2.1593 4.7751-4.8214 0-0.0783-3e-3 -0.15652-6e-3 -0.23332m-6.1561-0.0783h-3.3505m4.5403-1.0507-0.41012-3.4215c-0.93182 0.12173-1.7825 0.51446-2.4665 1.097l2.226 2.5187m-0.42316 1.8289-2.4694 2.3361c-0.66953-0.82894-1.0362-1.8448-1.0362-2.9969 0-1.0854 0.3623-2.0868 0.96226-2.8926m-1.4202-0.11159c-2.3825 0.271-4.2403 2.3129-4.2403 4.7924 0 1.0362 0.32317 1.9955 0.87386 2.781m4.2157-8.8009c-0.10144-6e-3 -0.21013-9e-3 -0.31302-9e-3 -3.2969 0-5.9706 2.6998-5.9706 6.0286 0 1.013 0.24781 1.9665 0.68402 2.8042m2.397-6.5373 1.5028 1.3999m-3.3114 1.6332h3.465m28.498 4.9388c3.2969 0 5.9692-2.6984 5.9692-6.0272 0-3.3302-2.6723-6.0286-5.9692-6.0286s-5.9692 2.6984-5.9692 6.0286c0 3.3288 2.6723 6.0272 5.9692 6.0272zm0-4.6881c0.73329 0 1.326-0.59996 1.326-1.339 0-0.74054-0.59271-1.3405-1.326-1.3405s-1.326 0.59996-1.326 1.3405c0 0.73908 0.59271 1.339 1.326 1.339zm0.88545-2.5071 2.2564-2.4694c-0.80285-0.70721-1.8477-1.1463-2.9882-1.1825m1.1941 4.4287h3.4172c-0.0812-1.0202-0.48113-1.9506-1.0927-2.6926m-0.20578 6.3112-2.3491-2.4897m-1.1941 4.0055v-3.3038m-3.1027 2.1578c0.84488 0.76227 1.9578 1.2246 3.1795 1.2246 2.6375 0 4.7751-2.1593 4.7751-4.8214 0-0.0783-1e-3 -0.15652-4e-3 -0.23332m-6.1576-0.0783h-3.3505m4.5403-1.0507-0.40867-3.4215c-0.93327 0.12173-1.7825 0.51446-2.468 1.097l2.226 2.5187m-0.42316 1.8289-2.4694 2.3361c-0.66807-0.82894-1.0347-1.8448-1.0347-2.9969 0-1.0854 0.36085-2.0868 0.96226-2.8926m-3.7737 0.94776 1.5014 1.3999m-10.667 1.6332h10.822m1.5506-5.32c-0.10289-6e-3 -0.21448-9e-3 -0.31882-9e-3 -3.0781 0-5.6098 2.3506-5.9344 5.3707m5.404-4.1345c-2.168 0.24636-3.9056 1.9593-4.2012 4.1331m-19.338-1e-3 -5.1605 11.044 5.2374-0.54345 2.6955-6.6112m-7.6242 7.2329c-1.1564 2.0999-3.7751 6.3779-4.4678 8.2459-0.69271 1.8665-1.4637 6.8445 0.15361 7.4662 2.0723 0.79705 3.6201-1.1666 4.7765-3.4998 1.155-2.3346 2.0462-6.3445 2.31-7.5444 0.46229-2.0999 1.155-5.2127 1.155-5.2127m-3.0795 2.8013s-2.7897 5.3388-3.01 5.9359c-0.22318 0.59706-0.61736 2.1404 0.0478 2.3897 0.66517 0.24926 1.1594-0.37389 1.5289-1.1202s0.57822-2.0767 0.66227-2.4607c0.14782-0.67242 0.77097-4.7446 0.77097-4.7446m-3.6215 13.612s4.6504-2.1361 6.2677-2.2129c1.6173-0.0783 4.362 0.69561 4.362 0.69561s3.2418-1.6883 5.1663-1.6115c1.926 0.0783 3.536 0.56084 3.536 0.56084s1.0709-2.3477 1.5173-3.6722c0.4478-1.3246 1.1028-4.4171 1.1028-4.4171m-11.322 9.14s1.0956-1.6941 1.797-3.4346c0.69995-1.7405 1.4376-4.5388 1.4376-4.5388m6.2445 6.6952c1.3941-0.37389 2.4172-0.66518 3.6534-0.66518 1.2347 0 4.0693 0.66518 4.0693 0.66518s0.98254-1.3724 1.5187-3.1128c0.53475-1.7405 0.86516-4.4374 0.86516-4.4374m-1.2782 7.4662c0.86517-0.20723 1.6883-0.49852 3.865-0.53909 2.1767-0.042 3.694 0.45649 3.694 0.45649s0.78256-1.5796 1.0304-3.0708c0.24636-1.4912 0.16376-4.6041 0.16376-4.6041m-0.12318 7.3836s3.2882-0.37389 4.8475-0.0826c1.5579 0.29129 3.494 1.0391 3.494 1.0391s0.57098-0.91443 0.52895-3.4447c-0.0406-2.5317-0.73474-5.7214-1.1057-7.0097-0.36954-1.2898-1.0289-2.6969-1.0289-2.6969h0.90574l3e-3 -1.2753-3.6186-0.0783m-2.5491 0.89559c1.0709 0.45795 0.87096 0.49852 1.852 0.58258 0.98255 0.0826 1.6898-0.0841 2.3839-0.37389m-33.231-0.1c1.0883 0.42606 0.89125 0.47244 1.8752 0.52606 0.98545 0.0536 1.6854-0.13478 2.3665-0.44635m-0.66952-1.4289 2.2172-0.14347v-1.239m1.8057 2.4593c1.0883 0.42606 0.8898 0.47388 1.8767 0.5275 0.984 0.0522 1.684-0.13477 2.3665-0.4478m-0.66663-1.3173 2.2172 0.0246v-1.239m1.3535 2.3187c1.0898 0.42606 0.89125 0.47244 1.8752 0.5275 0.9869 0.0522 1.6854-0.13477 2.3665-0.44634m-0.66518-1.2463 2.2172 0.0246v-1.239m1.3217 2.4564c1.0869 0.42461 0.8898 0.47243 1.8752 0.52605 0.98545 0.0536 1.684-0.13477 2.3665-0.4478m-0.67532-1.1724 2.2172 0.0246v-1.239m-5.5547-2.0955h4.633v-1.239m1.3448 1.239h5.0606m-28.968 0h4.6316l-0.013-1.239m1.3579 1.239h4.6316l-0.0131-1.239m1.3579 1.239h4.633l-0.013-1.239m-21.383 1.239h3.4664m31.04 3.807-0.84777-2.2564s0.54054 0.15651 0.46229-0.5449c-0.0768-0.69995-2.2332-5.0765-2.2332-5.0765m2.7448-4.2345c1.1376 0.16956 2.5216 0.21303 4.5432-0.0855m3.7896-0.0855c1.3898 0.171 2.1477 0.29853 3.9157 0.042m-7.7053 2.4622c2.0216-0.29854 2.3998-0.25651 3.7896-0.0855m-59.193 9.9428c-0.0145 0.30288-0.15071 0.58837-0.48548 1.0101-0.6159 0.77821-1.1941 1.3231-2.31 1.0898-1.1173-0.23332-4.6606-1.0507-5.8924-1.2057-1.2318-0.15651-2.0796 0.0391-3.5433 0.23332-1.4637 0.19419-1.9636 0.15506-3.0042-0.0783-0.33187-0.0739-0.6188-0.13333-0.85212-0.1797m16.419-8.9212s0.0696-1.0883 0.72315-2.0216c0.65503-0.93328 1.0014-1.3999 1.1941-1.6332 0.19275-0.23332 0.11594-0.54489-0.0377-1.3231-0.15506-0.77676-0.3478-2.0607-0.50141-2.839-0.15507-0.77821-0.49997-1.2057-0.0391-1.284 0.46229-0.0768 0.77097-0.0377 1.0796 0 0.30723 0.0391 0.65358 0.85646 0.88545 1.6724 0.23042 0.81734 0.15362 1.0115 0.49997 2.0622 0.34636 1.0492 0.50142 1.3217 0.23187 1.9825-0.271 0.66227 0.30723 1.9071 0.6159 2.6071 0.30723 0.6985 0.84633 2.4882 0.73184 3.7722-0.11593 1.2825 0 1.9448 0.15361 2.7607 0.15362 0.81734 0.26955 1.1275-0.34635 1.9057s-1.1941 1.3231-2.31 1.0883c-1.1173-0.23332-4.6606-1.0492-5.8924-1.2057-1.2332-0.15507-2.0796 0.0391-3.5432 0.23476-1.4637 0.19419-1.9636 0.15507-3.0042-0.0783-0.49852-0.11159-0.8898-0.1884-1.1622-0.23622m28.684-37.97 1.568 2.6085c0.11738 0.17825 0.41881 0.18115 0.6246 0.0971 0.22172-0.0913 0.40287-0.31303 0.25505-0.62605l-1.3231-2.1433m-0.66228-1.1028-1.6419-2.6592c-0.1768-0.28404-0.48838-0.30868-0.70286-0.1855-0.21882 0.12463-0.34635 0.40867-0.171 0.70575l1.2231 2.0767m-14.595 2.1419v-0.84343m0-1.2622c0.30288 0 0.54924-0.39418 0.54924-0.8811 0-0.48693-0.24636-0.88255-0.54924-0.88255s-0.54924 0.39562-0.54924 0.88255c0 0.48692 0.24636 0.8811 0.54924 0.8811zm6.0011-2.3332c-2.2897 0.75212-4.2012 1.4898-4.2012 1.4898s1.6637-2.3013 4.507-3.3331c2.8448-1.0333 4.3649-1.4912 4.3649-1.4912l1.2144 0.99559v1.2622s-2.1709-0.0739-4.8084 0.73039m3.5809-2.952-0.11449 1.3608 1.3086 0.81734m-7.3546 4.7258c-0.25796 0.62026-0.37534 0.91299-0.46229 1.1405-0.30288 0.80285-1.826 4.4939-2.0086 4.9011-0.11883 0.26375-0.19564 0.56808 0.0754 0.68981 0.36085 0.16086 0.5362 0.12608 0.68256-0.23042 0.41592-0.99704 1.7825-4.4418 2.0868-5.2084 0.0913-0.23042 0.32317-0.77387 0.60866-1.4376m0.50576-1.1709c0.56663-1.3188 0.96805-2.3404 1.0912-2.6708 0.22752-0.613-0.49418-0.89559-0.7985-0.28259-0.16956 0.34346-0.63909 1.5419-1.226 2.9346m-4.6186-1.9129c0.28694 0 0.52026-0.23477 0.52026-0.52461 0-0.29129-0.23332-0.52605-0.52026-0.52605s-0.52026 0.23476-0.52026 0.52605c0 0.28984 0.23332 0.52461 0.52026 0.52461zm26.746 1.9434s-1.1564-1.8651-1.926-2.4114c-0.76951-0.54344-1.3869-0.46519-1.3869-0.46519s0.42461-0.42896 0.69416-0.89559c0.26955-0.46664 0.46084-1.1666 0.46084-1.1666s-3.9664-1.0492-5.275-1.0492h-4.236l4.236 5.9504m2.0419 1.3217s6.5083 6.6503 7.2778 7.5444c0.77097 0.8956 1.3492 1.6332 2.6187 1.6332h2.5752c1.2318 0 1.0782-1.2434-0.0681-1.2434h-1.7361c-0.50431 0-0.51446-0.013-2.3114-1.8289-0.9811-0.99125-5.7764-6.1054-5.7764-6.1054m1.7724-0.0391 6.5257 6.6155h2.552c1.539 0 1.2535 1.3579 0.18694 1.3579h-2.9491c-0.48692 0-0.49562 4e-3 -2.3114-1.8289-0.9811-0.99125-5.7764-6.1054-5.7764-6.1054m-8.6821 4.3794c1.3072 0 2.7824-0.26375 3.6027-0.45505 0.55649-0.12897 0.56808-0.99414-0.16086-0.84342-0.81444 0.21593-2.1245 0.43186-3.4317 0.43186-1.3057 0-2.6172-0.21593-3.4302-0.43186-0.72894-0.15072-0.71879 0.71445-0.16086 0.84342 0.82024 0.1913 2.2752 0.45505 3.5809 0.45505zm-3.8172-0.47678s-0.59851 0.65068-0.94196 0.86661c-0.34201 0.21738-0.75068 0.54054-0.75068 0.54054m1.7782 0.52026 0.7072-1.6245m0.47243 1.5593 0.42896-1.4072m-3.7534 5.5605 0.54054-0.19564m-0.11883-3.4056c-0.30288 0.18404-0.57098 0.74488-0.43766 1.126 0.13478 0.38114-0.31592 0.74923-0.57097 0.87241m-0.47389 0.6246-0.38983 0.13622m-0.0609-1.0202-0.35215 0.17245m0.24346-0.92023 0.63184-0.33187m-1.1506-0.41446 0.64054-0.28114m-0.43765-0.0246 0.0362-0.54054s0.15796-0.63909 0.38838-0.8101c0.23187-0.17245 0.76661-0.40577 0.76661-0.40577l1.4796-0.51301m0.11014 3.4809 0.93617-0.73329 0.81444-0.23332m-1.3622 2.4767 0.32752-0.40577m0.2565-0.63765 0.41302-0.41736m-1.0825 2.9302s0.64488-0.38114 0.73039-0.49127m0.27969-0.68257 0.58402-0.713m0.31157-0.56518 0.38983-0.67532m0.0232 2.4158 0.22028-0.59851m1.2622 0.0406c0.19274 0.11739 0.38548 0.23477 0.59706 0.27245m-0.0565 0.74053c0.11449-0.19564 0.38403-0.97385 0.6159-1.0695m-1.5984-1.4985c0.13477-0.13622 0.50141-0.66083 0.50141-0.89415m-0.0406-0.72024v-1.4767m0.84777 0s0.15506 1.1666 0.1739 1.342c0.0188 0.1739 0.32752 0.97095 0.11593 1.4579-0.21303 0.48548-0.30867 0.60286-0.30867 0.60286m0.92458-3.4027 0.21158 1.6129m0.65503-1.7492s0.25071 1.3419 0.40432 1.5941 0.30723 0.50577 0.69271 0.69996 0.57822 0.38838 0.57822 0.38838m-1.2521 0.31157c0.058 0.0971 0.36664 0.64199 0.36664 0.64199m-1.2912-0.17535c0.23042 0.5246 0.55939 0.50576 0.65503 0.85502 0.0971 0.3507 0.13478 0.72024 0.13478 0.8753m-1.0391-0.25215c0.0188 0.34925 0.21158 0.79705 0.21158 0.79705m1.6753-0.89415c0.058 0.25216 0.42316 0.7188 0.49997 0.75792m0.50141-0.89414c0.0377 0.11593 0.40433 0.54344 0.57678 0.68111 0.1739 0.13623 0.59706 0.058 0.7898 0.19419m0.78981-1.2057c0.13477 0.271 0.7898 0.87386 0.7898 0.87386m-3.9679-4.2577 0.94342 0.68112m0.50142 0.97095c0.40432 0.37099 0.67387 0.99269 0.57822 1.2448m0.46229-1.5158c0.40287 0.36954 0.30723 0.19419 0.78836 0.6217m0.77096-0.058c0.24926 0.21303 0.69271 0.79706 0.65358 1.0492m-4.178-4.2389 0.90574 1.3028m0.5188-0.58402c0.28984 0.21448 0.38549 0.68111 0.32752 0.95356m0.50142-1.3811c0.21158 0.0203 0.442 0.0782 0.57677 0.33186 0.13478 0.25216 0.21303 0.33041 0.57823 0.34925 0.36519 0.0188 0.82893 0.27245 0.63619 0.5449m-0.57823 0.54344 0.40433 0.23332m-3.6867-3.4795 0.54779-3.0346m-8.3429-0.0304c0.49852 1.7984 0.85212 3.1418 0.85212 3.1418m-2.1187-7.6068c0.30433 1.055 0.62315 2.1999 0.92313 3.2752m9.9965-5.8576s0.21158-0.93327 0.36519-1.7897c0.15361-0.85502-3.8505-1.3985-6.3924-1.3985-2.5419 0-6.6242 0.69995-6.0851 1.9434 0.11449 0.2652 0.32897 0.93038 0.59707 1.8173m1.1115-0.33911-0.74053-2.5375m2.3709 8.143-0.98689-3.3722m2.0665 7.0604-0.73328-2.5013m1.5477 2.6245-0.5246-2.6158m-0.22462-1.184-1.739-8.727m3.3157 12.527-0.33911-2.6216m-0.47533-3.8548-0.8072-6.2141m2.2361 8.8139-0.49417-8.9371m0.713 12.854-0.12898-2.2042m0.96226 2.368 0.0116-0.63765m0.79415-0.68401 0.0942-1.4927m0.99559 0.0406-0.25361 1.5521m-1.6216-2.7346 0.0203-4.2461m0.0188-1.7941 9e-3 -2.8984m0.94632 8.94 0.21882-2.5723m0.31013-3.4722 0.22027-2.61m1.6738 0.28694-0.37969 2.3259m-0.784 4.8866-0.1913 1.1463m-20.207 1.1478h29.737c0.68402 0 0.79416-1.1347 0-1.1347h-29.737zm52.159 64.45c0.058 0.0768-0.0101 0.19564-0.12898 0.54489-0.12028 0.34926-0.2623 0.81734-0.19419 0.61156 0.071-0.21448 0.16231-0.51881 0.2623-0.80575 0.0188-0.0551 0.0841-0.29273 0.13623-0.29998 0.13477 0.11304 0.28114 0.23042 0.46953 0.3536 0.0217 0.0507 6e-3 0.25071 3e-3 0.29708-0.0188 0.2768-0.029 0.37534-0.0377 0.55504-4e-3 0.0942 0.013-0.24781 0.0348-0.54924 6e-3 -0.087-0.013-0.2681 0.0391-0.27969 0.0884 0.0536 0.33186 0.19274 0.49562 0.32607 0.23767 0.19419 0.32027 0.30432 0.41157 0.47243 0.0928 0.1681 0.14782 0.35795 0.10579 0.22317-0.0435-0.13332-0.1797-0.33766-0.32752-0.5217-0.14781-0.18405-0.74922-0.52316-0.96225-0.68692-0.21448-0.1623-0.70865-0.75502-0.8956-1.0115-0.18694-0.2565 0.5304 0.69271 0.58837 0.77097zm3.8012-30.114c0.42316 0.54489 0.92458 3.0723 0.8869 3.6548-0.0391 0.58402 0 4.862 0 4.862s-0.46374-0.73908-0.69416-0.50576c-0.23042 0.23331-0.15361 0.50576-0.15361 0.50576s-0.46229-0.31157-0.77097-0.31157c-0.30723 0-0.38403 0.27244 0.0391 0.58402 0.42461 0.31157 1.3086 1.439 1.4246 1.9839 0.11593 0.54344-0.42317-0.0391-0.57823 0.11593-0.15361 0.15507-0.19129 0.58403-0.19129 0.58403s-0.57823-0.38984-0.65503-0.15652c-0.0783 0.23477-0.38548 0.0783 0.38548 0.77821 0.76952 0.69996 1.0391 1.3231 1.1159 1.8274 0.0783 0.50577 0.0783 0.81734 0.0783 0.81734s-0.38548-0.77821-0.57823-0.58402c-0.19274 0.19564-0.0768 1.0507-0.0768 1.0507s-0.77097-0.69995-0.84778-0.34925c-0.0768 0.34925-0.11593 0.46664 0.57823 1.1651 0.69271 0.70141 0.76952 0.93472 0.80864 1.3231 0.0377 0.38838 0.0768 0.50576 0.0768 0.50576s-0.5391 0-0.5391 0.27245c0 0.27244 0.0768 0.46663 0.0768 0.46663s-0.38548-0.46663-0.57822-0.27244-0.0377 0.46663 0.50141 1.2448c0.5391 0.77676 0.65503 1.1275 0.73184 1.4782 0.0768 0.34926 0.23912 0.65359 0.23912 0.65359s0.33766-1.0043 0.60865-1.355c0.26955-0.34925 0.65359-0.97095 0.88401-1.2057 0.23186-0.23187 0-0.69996-0.30723-0.46664-0.30723 0.23477-0.50142 0.38983-0.50142 0.38983s0.271-0.69995 0.271-0.9724-0.46229-0.46664-0.46229-0.46664 0.19129-0.69995 0.46229-1.0115c0.2681-0.31157 0.65358-0.73908 0.80864-0.89414 0.15362-0.15652 0.11449-0.66083-0.27099-0.50577-0.38404 0.15506-0.69126 0.46664-0.69126 0.46664s0.3449-0.81589 0.15361-1.0115c-0.19274-0.19419-0.42461-0.11594-0.42461-0.11594s-0.0768-0.69995 0.19274-1.1275c0.26955-0.42896 0.46084-0.9753 0.73184-1.2057 0.50141-0.42896 0.15361-1.0115-0.30868-0.70141-0.45504 0.30723 0.0768-0.42751-0.30723-0.46663-0.38548-0.0377-0.46229-0.11594-0.46229-0.11594s0.26955-1.0507 0.5391-1.3216c0.26955-0.2739 0.65503-0.66228 0.84777-0.81734s-0.0391-0.5449-0.42461-0.38983c-0.38403 0.15651-0.38403 0.23477-0.38403 0.23477s0.34635-0.93328-0.0768-0.73909l-0.42461 0.19419v-2.8781c0-0.50576 0.19274-1.8665 0.19274-2.6839 0-0.81589 0.26955-1.6332 0.26955-1.6332m2.6955-2.2984c0.44055 0.56663 0.96081 3.1969 0.92168 3.8027-0.0406 0.60721 0 5.0562 0 5.0562s-0.48113-0.76952-0.72024-0.52605c-0.24057 0.24346-0.16086 0.52605-0.16086 0.52605s-0.48113-0.32317-0.8014-0.32317-0.39997 0.28259 0.0406 0.60576c0.44055 0.32317 1.3608 1.497 1.4811 2.0636 0.12028 0.56518-0.44055-0.0406-0.59996 0.12173-0.16086 0.16086-0.19999 0.60576-0.19999 0.60576s-0.60141-0.40432-0.68111-0.16231c-0.0797 0.24346-0.39998 0.0811 0.39997 0.81009 0.8014 0.72749 1.0811 1.3753 1.1622 1.8999 0.0797 0.52606 0.0797 0.84922 0.0797 0.84922s-0.40142-0.80864-0.60141-0.60576c-0.0913 0.0927-0.12028 0.33477-0.11883 0.56519-0.12028 0.12028-0.16086 0.2507-0.17101 0.35215-0.24346-0.1884-0.61735-0.43186-0.67097-0.18985l-0.0116 0.0507c-0.0377-7e-3 -0.0739-0.0101-0.10869-0.0101-0.32027 0-0.39997 0.28259 0.0406 0.60721 0.44055 0.32317 1.3608 1.4956 1.4811 2.0622s-0.44055-0.0406-0.59996 0.12173c-0.16086 0.16086-0.19999 0.60721-0.19999 0.60721s-0.60141-0.40577-0.68111-0.16231c-0.0797 0.24201-0.39998 0.0811 0.39997 0.80864 0.10289 0.0942 0.19854 0.1855 0.28404 0.2768 0.0928 0.14781 0.21158 0.32172 0.3565 0.53185 0.171 0.24781 0.30143 0.45214 0.40142 0.62894 0.0594 0.16376 0.0971 0.31737 0.12029 0.46374 0.0797 0.52605 0.0797 0.84922 0.0797 0.84922s-0.40142-0.80864-0.60141-0.60721c-0.19999 0.20289-0.0797 1.0927-0.0797 1.0927s-0.8014-0.72749-0.88111-0.36375c-0.0797 0.36375-0.12028 0.48548 0.60141 1.213 0.72025 0.72894 0.79995 0.97095 0.84053 1.3753 0.0406 0.40432 0.0797 0.52605 0.0797 0.52605s-0.38693 0-0.51735 0.16231c-0.0594-0.0174-0.11594-9e-3 -0.16231 0.0391-0.0884 0.0898-0.13333 0.18404-0.15651 0.26809-0.0884-0.0435-0.17825-0.0522-0.24492 0.016-0.0232 0.0232-0.0406 0.0478-0.0551 0.0724-0.15797-0.0768-0.35071-0.15361-0.50577-0.15361-0.32027 0-0.39997 0.28259 0.0406 0.60576 0.44055 0.32462 1.3608 1.497 1.4811 2.0636s-0.44055-0.0406-0.59996 0.12173c-0.16086 0.16086-0.19999 0.60576-0.19999 0.60576s-0.60141-0.40433-0.68111-0.16086c-0.0797 0.24201-0.39998 0.0811 0.39997 0.80864 0.8014 0.72749 1.0811 1.3753 1.1622 1.9013 0.0797 0.52605 0.0797 0.84922 0.0797 0.84922s-0.40142-0.80864-0.60141-0.60721c-0.19999 0.20289-0.0797 1.0927-0.0797 1.0927s-0.8014-0.72894-0.88111-0.3652c-0.0797 0.3652-0.12028 0.48693 0.60141 1.2144 0.72025 0.72749 0.79995 0.97095 0.84053 1.3753 0.0406 0.40433 0.0797 0.52461 0.0797 0.52461s-0.56083 0-0.56083 0.28404c0 0.28259 0.0797 0.48547 0.0797 0.48547s-0.39998-0.48547-0.59997-0.28259c-0.19998 0.20144-0.0406 0.48403 0.52026 1.2927 0.56083 0.81009 0.68112 1.1738 0.76082 1.5376 0.0812 0.36374 0.25071 0.68112 0.25071 0.68112s0.3507-1.0449 0.63184-1.4086c0.2797-0.36375 0.67967-1.0115 0.92024-1.2535 0.24056-0.24347 0-0.72894-0.32027-0.48548-0.32027 0.24201-0.52026 0.40432-0.52026 0.40432s0.27969-0.72749 0.27969-1.0115c0-0.28259-0.48113-0.48548-0.48113-0.48548s0.20144-0.72749 0.48113-1.0521c0.28114-0.32317 0.68112-0.76807 0.84053-0.93038 0.16086-0.16086 0.12028-0.68691-0.27969-0.5246-0.39998 0.16086-0.72025 0.48402-0.72025 0.48402s0.36085-0.84922 0.15941-1.0506c-0.19999-0.20289-0.44055-0.12173-0.44055-0.12173s-0.0797-0.72749 0.19999-1.1724c0.28114-0.4449 0.47968-1.013 0.76082-1.2536 0.52171-0.44635 0.16086-1.0521-0.31882-0.72894-0.47388 0.31882 0.0797-0.4449-0.32172-0.48547-0.39997-0.0406-0.48113-0.12173-0.48113-0.12173s0.0609-0.23622 0.15506-0.51881c0.029-0.0478 0.058-0.0913 0.087-0.12753 0.2797-0.36374 0.67967-1.0115 0.92024-1.2535 0.0435-0.0449 0.0725-0.0971 0.0855-0.15217 0.0754-0.0696 0.14202-0.12898 0.19419-0.17245 0.20144-0.16086-0.0391-0.56518-0.44055-0.40432-0.31158 0.12608-0.38114 0.20433-0.39563 0.23187 0.0391-0.10869 0.31737-0.91589-0.0623-0.76662-0.12752-0.18984-0.42316-0.31447-0.42316-0.31447s0.20144-0.72749 0.48113-1.0507c0.28114-0.32462 0.68112-0.76952 0.84053-0.93038 0.16086-0.16231 0.12028-0.68836-0.27969-0.52605-0.39998 0.16231-0.72025 0.48548-0.72025 0.48548s0.36085-0.84923 0.15941-1.0521c-0.19999-0.20144-0.44055-0.12173-0.44055-0.12173s-0.0565-0.51881 0.0942-0.94777c0.27969-0.36664 0.67097-0.99704 0.90719-1.2362 0.10144-0.10145 0.11738-0.24781 0.0782-0.36375 0.33766-0.42316 0-0.90139-0.43765-0.60721-0.47388 0.32027 0.0797-0.44489-0.32172-0.48547-0.0681-6e-3 -0.12608-0.0145-0.1768-0.0232-0.0985-0.0623-0.18405-0.0971-0.18405-0.0971s0.20144-0.72894 0.48113-1.0521c0.28114-0.32317 0.68112-0.76807 0.84053-0.93038 0.0797-0.0797 0.11014-0.24781 0.0725-0.37823 0.0116-0.1797-0.20144-0.39418-0.51301-0.2681-0.31158 0.12608-0.38114 0.20288-0.39563 0.23042 0.0391-0.11014 0.32752-0.94487-0.0841-0.75648-0.1884-0.0985-0.36085-0.0406-0.36085-0.0406s-0.0797-0.72894 0.19999-1.1724c0.28114-0.44635 0.47968-1.0144 0.76082-1.255 0.52171-0.44489 0.16086-1.0506-0.31882-0.72749-0.47388 0.31883 0.0797-0.44489-0.32172-0.48547-0.39997-0.0406-0.48113-0.12173-0.48113-0.12173s0.28114-1.0912 0.56084-1.3753c0.28114-0.28259 0.68111-0.68691 0.8811-0.84922 0.20144-0.16086-0.0391-0.56518-0.44055-0.40432-0.31158 0.12608-0.38114 0.20288-0.39563 0.23042 0.0391-0.10869 0.32752-0.94487-0.0841-0.75648l-0.44055 0.20289v-2.994c0-0.52461 0.19998-1.9405 0.19998-2.7897s0.2797-1.6984 0.2797-1.6984m2.7245 7.3169c0.42316 0.5449 0.92313 3.0723 0.88545 3.6563-0.0391 0.58257 0 4.8606 0 4.8606s-0.46229-0.73908-0.69416-0.50431c-0.23042 0.23187-0.15361 0.50431-0.15361 0.50431s-0.46229-0.31012-0.76952-0.31012c-0.30867 0-0.38548 0.27245 0.0391 0.58257 0.42316 0.31157 1.3086 1.439 1.4246 1.9839 0.11448 0.5449-0.42316-0.0391-0.57823 0.11594-0.15361 0.15651-0.19274 0.58402-0.19274 0.58402s-0.57677-0.38838-0.65358-0.15506c-0.0768 0.23331-0.38548 0.0768 0.38403 0.77676 0.77097 0.69995 1.0405 1.3231 1.1173 1.8289 0.0768 0.50431 0.0768 0.81589 0.0768 0.81589s-0.38548-0.77821-0.57677-0.58257c-0.0898 0.0898-0.11739 0.32171-0.11739 0.54489-0.11303 0.11448-0.15216 0.23911-0.16231 0.33621-0.23476-0.18115-0.59416-0.41592-0.64488-0.18115l-0.0116 0.0493c-0.0362-7e-3 -0.071-0.0116-0.10434-0.0116-0.30867 0-0.38548 0.27245 0.0391 0.58402 0.42316 0.31157 1.3086 1.439 1.4246 1.9839 0.11448 0.54345-0.42316-0.0391-0.57823 0.11594-0.15361 0.15651-0.19274 0.58402-0.19274 0.58402s-0.57677-0.38983-0.65358-0.15651c-0.0768 0.23331-0.38548 0.0782 0.38403 0.77821 0.1 0.0913 0.18985 0.1797 0.2739 0.26665 0.0884 0.14202 0.20288 0.30867 0.34346 0.51156 0.16375 0.23767 0.28838 0.43475 0.38548 0.60431 0.0565 0.15651 0.0928 0.30578 0.11448 0.44635 0.0768 0.50431 0.0768 0.81589 0.0768 0.81589s-0.38548-0.77821-0.57677-0.58402c-0.19419 0.19564-0.0768 1.0506-0.0768 1.0506s-0.77097-0.69995-0.84777-0.34925c-0.0768 0.34925-0.11594 0.46664 0.57677 1.1666 0.69416 0.69996 0.77097 0.93328 0.80865 1.3217 0.0391 0.38983 0.0768 0.50576 0.0768 0.50576s-0.53764 0-0.53764 0.27245 0.0768 0.46664 0.0768 0.46664-0.38548-0.46664-0.57822-0.27245-0.0391 0.46664 0.50142 1.2448c0.53764 0.77821 0.65358 1.1275 0.73038 1.4782 0.0768 0.34925 0.24057 0.65358 0.24057 0.65358s0.33766-1.0043 0.60721-1.3535c0.26954-0.3507 0.65503-0.9724 0.88545-1.2057 0.23187-0.23332 0-0.69996-0.30723-0.46664-0.30868 0.23332-0.50142 0.38838-0.50142 0.38838s0.26955-0.69995 0.26955-0.9724c0-0.27244-0.46229-0.46663-0.46229-0.46663s0.19274-0.69996 0.46229-1.0115c0.26955-0.31158 0.65503-0.73909 0.80865-0.89415 0.15506-0.15506 0.11593-0.66083-0.26955-0.50577-0.38404 0.15507-0.69271 0.46664-0.69271 0.46664s0.34635-0.81589 0.15361-1.0101c-0.19274-0.19564-0.42316-0.11738-0.42316-0.11738s-0.0551-0.49852 0.0899-0.91154c0.26955-0.3536 0.64489-0.95936 0.87241-1.1883 0.0971-0.0985 0.11303-0.23912 0.0754-0.3507 0.32462-0.40722 0-0.86661-0.42171-0.58257-0.45504 0.30577 0.0768-0.42896-0.30867-0.46664-0.0652-7e-3 -0.12173-0.0145-0.17101-0.0232-0.0927-0.0594-0.17535-0.0942-0.17535-0.0942s0.19274-0.69996 0.46229-1.0115c0.26955-0.31013 0.65503-0.73764 0.80865-0.89415 0.0768-0.0768 0.10579-0.23912 0.0696-0.3652 0.0116-0.171-0.19419-0.37678-0.49273-0.2565-0.29998 0.12173-0.36664 0.19419-0.38113 0.22172 0.0377-0.10579 0.31447-0.91008-0.0812-0.72749-0.18114-0.0942-0.34635-0.0391-0.34635-0.0391s-0.0768-0.69996 0.19274-1.1275c0.26955-0.42751 0.46084-0.9753 0.73184-1.2057 0.49997-0.42751 0.15361-1.0115-0.30868-0.69995-0.45504 0.30577 0.0768-0.42751-0.30867-0.46664-0.38404-0.0391-0.46084-0.11738-0.46084-0.11738s0.26954-1.0492 0.53909-1.3217 0.65358-0.66083 0.84633-0.81734c0.19274-0.15506-0.0377-0.54489-0.42317-0.38838-0.29998 0.12173-0.36664 0.19564-0.38113 0.22172 0.0377-0.10579 0.31447-0.90863-0.0812-0.72749l-0.42316 0.19419v-2.8781c0-0.50432 0.19274-1.8666 0.19274-2.6824 0-0.81734 0.26955-1.6347 0.26955-1.6347m-85.303-9.2168s-0.5391-0.89414-0.92313-1.2057c-0.38549-0.31157-0.69416-0.31157-1.155-0.34925-0.46229-0.0391-0.46229 0.0768-0.96371-0.42896-0.49997-0.50431-1.1159-1.0883-1.4637-1.2057-0.34635-0.11593-0.57677-0.34925-1.1159 0.31158-0.53909 0.66082-0.92458 0.54489-0.50141 1.2448 0.42461 0.69996 0.69416 0.81589 0.80864 1.555 0.11594 0.73908 0.23187 0.89559 0.15361 1.284-0.0768 0.38839-0.0377 0.58258 0.38549 1.1666 0.42461 0.58402 0.69416 1.0101 0.92458 1.1666 0.23187 0.15506 0.61735 0.74198 1.5796 0.46664 0.21447-0.0609 0.32751-0.0971 0.57387-0.17825 0.542-0.18405 0.58402-0.43041 0.58402-0.43041s0.0362-0.24636 0.0362-0.75213c0-0.50576 0.23042-1.1666 0.96226-1.3999s1.0782-0.27244 1.1159 0.11594c0.0391 0.38983-0.0377 1.0115-0.38403 1.3608-0.34636 0.3507-0.65503 0.81734-0.65503 0.81734m-2.8114 4.1606s-0.11593-1.0883 0.19274-1.7883c0.30723-0.69995 0.46229-0.6217 0.80865-1.2057 0.34635-0.58257 0.24926-0.68401 0.6159-1.1275 0.57822-0.69996 1.5405-0.15506 1.1564 0.69995-0.38548 0.85502-0.50142 0.85502-1.0405 1.2057-0.53909 0.34926-1.0391 0.62315-1.1941 1.1275-0.15362 0.50576-0.5391 1.0883-0.5391 1.0883zm-3.1954 0.50577s-0.11593-1.0883 0.19129-1.7883c0.30868-0.69996 0.46229-0.6217 0.8101-1.2057 0.3449-0.58402 0.24926-0.68402 0.6159-1.1275 0.57678-0.7014 1.5405-0.15506 1.155 0.69996s-0.50142 0.85502-1.0405 1.2057c-0.5391 0.3507-1.0391 0.6217-1.1927 1.1275-0.15506 0.50577-0.5391 1.0883-0.5391 1.0883zm9.2414-3.0708 2.2245 0.37244v-2.0231l-2.2245-0.48837zm-3.1926-1.5289 3.1549-0.6101m-5.5518 4.0461 7.814-1.497m-2.2506-0.41737-5.2171 1.0463m-3.6621 1.5043 2.8433-0.54634m0.0362-0.80575-2.5245 0.49272m4.0056-8.2183s0.0391-0.42751 0.11593-0.89414c0.0768-0.46664 0.19274-1.0507 0.77097-1.0898 0.57822-0.0391 1.0391-0.23332 1.3086 0.23477 0.26955 0.46519 0.69416 1.2825 0.88545 2.2926 0.19274 1.013 0.30868 4.007 0.30868 4.007m-1.1941-6.1837s0.23187-0.9724 0.57822-1.2448c0.34636-0.27244 0.88545-0.23331 1.6564-0.31157 0.76952-0.0768 1.0767 0.0391 1.3854-0.46664 0.30867-0.50431 0.38548-1.9448 0.30867-2.6824-0.0768-0.73909-0.15361-2.1013-0.30867-2.7998-0.15362-0.7014-0.49997-1.4405-0.49997-1.9071 0-0.46664 0.26955-0.50432 0.88545-0.50432s0.92458 0 1.0782 0.73764c0.15362 0.73908 0.19274 2.8013 0.26955 3.3056 0.0768 0.50722 0.42316 0.69996 0.42316 1.0898 0 0.38838 0.15507 1.0883 0.34781 1.8666 0.19274 0.77676 0.57677 2.0999 0.57677 2.0999m-1.5405-8.1285s0.57822-0.11593 0.96371 0c0.38403 0.11739 0.57677 0.19564 0.57677 0.77822 0 0.58257-0.15361 1.9839 0 2.4114 0.15362 0.42751 0.26955 1.9448 0.26955 2.4882 0 0.54489 0.0391 0.89559 0.0391 0.89559m-0.77097 0s2.4651-0.0391 3.1969 0.0783c0.73184 0.11593 2.3882 0.31012 3.3882 0.58257 1.0014 0.27244 2.7346 1.2448 2.7346 1.2448m5.4301 7.972s0.30868-1.1666 0.42316-1.7506c0.11594-0.58257 0.19274-1.4376 0.23187-2.0216 0.0391-0.58402 0-0.77821 0-1.5941 0-0.81734-0.0768-1.8289-0.0768-1.8289m-0.42461-2.139s-0.15361 0.77822 0 1.284c0.15507 0.50577-0.0377 0.85502 0.38549 0.85502 0.42461 0 0.50141-0.58257 0.42461-0.89415-0.0783-0.31157-0.8101-1.2448-0.8101-1.2448zm-4.6982-5.8721s-0.57677-0.0768-0.76952-0.0391c-0.19274 0.0391-0.19274 0.31157-0.0768 0.81733 0.11448 0.50577 0.38548 2.0216 0.42316 2.5665 0.0391 0.54489 0.11593 2.9172 0.11593 2.9172m-25.84 13.573s-0.11594-1.0898 0.19129-1.7898c0.30867-0.69995 0.46229-0.6217 0.81009-1.2043 0.34491-0.58402 0.24926-0.68401 0.61591-1.1289 0.57677-0.69996 1.5405-0.15506 1.155 0.69995-0.38548 0.85647-0.50141 0.85647-1.0405 1.2057-0.5391 0.35071-1.0391 0.62315-1.1927 1.1275-0.15506 0.50576-0.53909 1.0898-0.53909 1.0898zm-3.1969 0.50576s-0.11594-1.0898 0.19274-1.7897c0.30723-0.69996 0.46229-0.6217 0.80864-1.2057 0.34636-0.58257 0.24926-0.68402 0.61591-1.1275 0.57822-0.69995 1.5405-0.15506 1.155 0.69996-0.38549 0.85502-0.49997 0.85502-1.0391 1.2057-0.53909 0.34925-1.0405 0.6217-1.1941 1.1275-0.15361 0.50577-0.53909 1.0898-0.53909 1.0898zm4.7026-9.6066s0.0333-0.42751 0.11159-0.89414c0.0768-0.46664 0.19129-1.0507 0.76951-1.0898 0.0812-4e-3 0.15941-0.013 0.23622-0.0232m1.9897-1.0333c0.33041-0.0971 0.75792-0.0928 1.3173-0.14927 0.77097-0.0768 1.0782 0.0406 1.3854-0.46664 0.30868-0.50431 0.38549-1.9434 0.30868-2.6824-0.0768-0.73909-0.15361-2.1013-0.30868-2.8013-0.15361-0.69995-0.49996-1.4376-0.49996-1.9057 0-0.46664 0.26954-0.50577 0.88545-0.50577 0.6159 0 0.92458 0 1.0796 0.74054 0.15361 0.73763 0.19274 2.7998 0.26955 3.3056 0.0768 0.50432 0.42316 0.69996 0.42316 1.0883s0.15361 1.0898 0.34635 1.8666c0.0507 0.20288 0.11304 0.44345 0.1797 0.68691m-1.1376-6.7141s0.57243-0.11739 0.95791 0c0.38549 0.11593 0.57823 0.19274 0.57823 0.77676s-0.15507 1.9839 0 2.4114c0.15361 0.42751 0.2681 1.9448 0.2681 2.4897 0 0.171 4e-3 0.32171 0.0101 0.44924m9.469-4.8838s-0.58257-0.0768-0.77386-0.0391c-0.19274 0.0391-0.19274 0.31157-0.0783 0.81734 0.11594 0.50576 0.38549 2.0231 0.42317 2.5665 0.0116 0.14492 0.0232 0.41592 0.0377 0.73908m1.2738 0.19564c-0.0203-0.19854-0.0841-0.45794-0.15507-0.81734-0.15361-0.77821-0.34635-2.0622-0.50141-2.839-0.15362-0.77821-0.49997-1.2057-0.0377-1.284 0.46229-0.0783 0.76951-0.0391 1.0782 0s0.65503 0.85501 0.88545 1.6724 0.15361 1.0115 0.50142 2.0607c0.29563 0.89705 0.45069 1.2275 0.32172 1.7158m-17.171 5.1881c-0.32606-0.13622-0.80864 0.0188-0.73038 0.21303 0.0768 0.19564 0.15361 0.33042 0.38403 0.62315 0.23187 0.29129 0.67387 0.1739 0.84777 0.0188 0.1739-0.15506 0.28839-0.29129 0.28839-0.29129s-0.46229-0.4275-0.78981-0.56373zm-5.8924 1.497c-0.32606-0.13622-0.80864 0.0203-0.73183 0.21448 0.0768 0.19419 0.15506 0.33041 0.38548 0.6217 0.23187 0.29273 0.67387 0.17535 0.84777 0.0203 0.1739-0.15652 0.28839-0.29274 0.28839-0.29274s-0.46229-0.42751-0.78981-0.56373zm4.1794-4.1606c-0.25071-0.19564-0.61735 0.19419-0.32752 0.46664 0.28839 0.271 0.57823-0.27245 0.32752-0.46664zm-6.2199 1.3217c-0.2507-0.19419-0.6159 0.19419-0.32751 0.46664 0.28839 0.27244 0.57822-0.27245 0.32751-0.46664zm2.9071-7.6995c1.2332-0.5449 1.4637-0.46809 2.3114-0.15651 0.84633 0.31012 1.3086 0.54489 2.3883 0.0783m12.091 0.15506c0.83618-0.36954 1.2115-0.45214 1.6303-0.37099m11.002-0.40722c0.83472-0.36809 1.2101-0.45214 1.6289-0.37099m21.4 0.13767c1.2332-0.54344 1.4651-0.46663 2.3114-0.15506 0.84633 0.31158 1.3101 0.54489 2.3868 0.0783m-27.659 9.1733 6.6329-0.22897m-6.6242-0.46664 6.8561-0.23332m8.0488 1.4782c3.2954 0 5.9692-2.6984 5.9692-6.0286 0-3.3288-2.6738-6.0286-5.9692-6.0286-3.2969 0-5.9706 2.6998-5.9706 6.0286 0 3.3302 2.6737 6.0286 5.9706 6.0286zm-44.428 7.1677 1.5926 0.32027 0.26375-0.0493m0.0652-0.80575-1.6579 0.31737m1.6854-5.8619s-0.5391-0.89415-0.92458-1.2057c-0.38548-0.31012-0.69271-0.31012-1.155-0.34925-0.46229-0.0391-0.46229 0.0768-0.96225-0.42896-0.50142-0.50431-1.1173-1.0883-1.4637-1.2057-0.34635-0.11593-0.57822-0.34925-1.1173 0.31158-0.5391 0.66082-0.92458 0.54489-0.49997 1.2448 0.42316 0.69995 0.69271 0.81733 0.80865 1.555 0.11593 0.73908 0.23042 0.89559 0.15361 1.284-0.0768 0.38983-0.0377 0.58402 0.38548 1.1666 0.42316 0.58402 0.69271 1.0115 0.92458 1.1666 0.23042 0.15651 0.6159 0.74198 1.5782 0.46809 0.21593-0.0623 0.32897-0.0986 0.57388-0.18115 0.54344-0.1826 0.58402-0.42751 0.58402-0.42751s0.0362-0.24781 0.0362-0.75358c0-0.50576 0.23042-1.1666 0.96226-1.3999 0.73183-0.23331 1.0796-0.27244 1.1173 0.11739 0.0391 0.38838-0.0377 1.0101-0.38549 1.3608-0.34635 0.34925-0.65358 0.81589-0.65358 0.81589m-24.86 37.885s-0.52605 2.8984 0.0507 5.0113c0.57678 2.1129 2.1723 4.6664 2.4607 5.7228 0.28839 1.0565 0.72894 2.5868 0.72894 2.5868s0.3565-5.3982-0.23766-7.401c-0.59417-2.0042-3.0027-5.9199-3.0027-5.9199zm22.848-71.952s-2.1651 2.0419-2.9665 4.0838c-0.8014 2.0419-1.042 5.0258-1.4419 6.046-0.40143 1.0217-0.96226 2.5129-0.96226 2.5129s3.5273-4.162 4.2476-6.1242c0.72169-1.9636 1.1231-6.5184 1.1231-6.5184zm8.8081-7.4647s-2.8578 2.1042-4.107 4.4012c-1.2492 2.2984-1.9752 5.788-2.5998 6.9372-0.6246 1.1492-1.5072 2.8317-1.5072 2.8317s4.7808-4.4142 5.9243-6.6315c1.142-2.2158 2.2897-7.5386 2.2897-7.5386zm-15.058 14.141s-2.1288 2.0781-2.8926 4.1331c-0.76517 2.0549-0.95357 5.0432-1.3347 6.0706-0.38259 1.0275-0.91733 2.5288-0.91733 2.5288s3.452-4.2215 4.1374-6.1967c0.68692-1.9752 1.0072-6.5358 1.0072-6.5358zm-6.4923 8.4908s-1.8535 2.3172-2.3564 4.4476c-0.50431 2.1317-0.31882 5.12-0.56953 6.1851-0.25215 1.0652-0.59561 2.6187-0.59561 2.6187s2.9013-4.6012 3.336-6.6445c0.4362-2.0419 0.1855-6.6068 0.1855-6.6068zm22.213-26.903s-2.4796 2.5216-4.9606 3.4578c-2.4781 0.93328-6.104 1.2144-7.3445 1.6811-1.239 0.46808-3.052 1.1217-3.052 1.1217s5.0562-4.1113 7.4401-4.9533c2.3839-0.84053 7.9169-1.3072 7.9169-1.3072zm-9.011 7.0213s-2.3288 3.1491-4.9069 4.5519c-2.5796 1.4028-6.5184 2.2593-7.8082 2.9607-1.2883 0.70141-3.1781 1.6941-3.1781 1.6941s4.9084-5.2837 7.3966-6.5692c2.4897-1.2869 8.4966-2.6375 8.4966-2.6375zm-9.6023 9.3791s-1.7955 2.823-3.9099 4.1708c-2.1158 1.3492-5.4243 2.31-6.4822 2.9839-1.0579 0.67387-2.61 1.6318-2.61 1.6318s3.8679-4.7968 5.9127-6.0402c2.0462-1.2405 7.0894-2.7462 7.0894-2.7462zm-6.2793 7.6575s-1.4304 3.0158-3.3621 4.607c-1.9318 1.5898-5.0968 2.9389-6.0634 3.7345-0.96516 0.79561-2.3868 1.9318-2.3868 1.9318s3.2418-5.2229 5.1171-6.701 6.6952-3.5722 6.6952-3.5722zm-5.0403 8.2343s-0.98835 3.1839-2.6752 5.0214c-1.6868 1.8376-4.6301 3.6056-5.4736 4.5244-0.84343 0.92024-2.0883 2.239-2.0883 2.239s2.4665-5.6141 4.1142-7.3329c1.6477-1.7202 6.1228-4.4519 6.1228-4.4519zm-3.8215 8.8429s-0.52605 3.2868-1.9361 5.3359c-1.4086 2.0506-4.0722 4.2026-4.7765 5.2287-0.70575 1.0246-1.7521 2.5013-1.7521 2.5013s1.6463-5.8967 3.0346-7.8227c1.3869-1.9274 5.4301-5.2432 5.4301-5.2432zm-2.5274 9.2777s-0.0551 3.3259-1.1593 5.5489c-1.1043 2.2216-3.436 4.7171-3.9882 5.8272-0.55213 1.1115-1.3796 2.7158-1.3796 2.7158s0.79415-6.0634 1.8941-8.1604 4.633-5.9315 4.633-5.9315zm-0.91878 9.5298s0.38548 3.2012-0.33041 5.4823c-0.7159 2.281-2.5143 4.9852-2.8723 6.1257-0.35795 1.1405-0.89995 2.7911-0.89995 2.7911s-0.071-5.9286 0.65793-8.0893c0.72749-2.1593 3.4447-6.3098 3.4447-6.3098zm0.21448 10.218s0.81299 3.1143 0.41157 5.4765c-0.40143 2.3607-1.8187 5.2982-2.0187 6.4793-0.20144 1.1811-0.51591 2.8926-0.51591 2.8926s-0.86806-5.8605-0.43911-8.1038c0.43041-2.2433 2.5622-6.7445 2.5622-6.7445zm1.3492 8.8226s1.3782 2.8998 1.4231 5.2968c0.0464 2.397-0.7956 5.5576-0.77387 6.7561 0.0232 1.1985 0.0333 2.9418 0.0333 2.9418s-1.9434-5.5852-1.9405-7.872c4e-3 -2.2868 1.2579-7.1227 1.2579-7.1227zm7.4865-41.905s-1.4144 2.5984-1.5318 4.7823c-0.11883 2.1839 0.59417 5.0939 0.53475 6.1866-0.0594 1.0927-0.12173 2.6824-0.12173 2.6824s2.0404-5.0272 2.1071-7.1126c0.0667-2.0854-0.98834-6.5387-0.98834-6.5387zm-3.9026 10.799s-0.93327 2.7984-0.66228 4.9692c0.271 2.1709 1.4883 4.9171 1.6231 6.0025 0.13622 1.0854 0.35505 2.6622 0.35505 2.6622s1.1202-5.2982 0.81589-7.3633c-0.30288-2.0651-2.1318-6.2706-2.1318-6.2706zm-1.8477 10.824s-0.42316 2.9143 0.22897 5.0069c0.65069 2.0926 2.3375 4.5896 2.6622 5.6359 0.32607 1.0449 0.82169 2.5593 0.82169 2.5593s0.16376-5.4069-0.50142-7.3894c-0.66517-1.981-3.2114-5.8127-3.2114-5.8127zm0.1826 11.136s0.1 2.9418 1.113 4.891c1.013 1.9492 3.1143 4.1215 3.6215 5.0953 0.50577 0.97675 1.2622 2.3824 1.2622 2.3824s-0.79705-5.3518-1.8042-7.1908c-1.0057-1.839-4.1925-5.1779-4.1925-5.1779zm2.6506 10.951s0.46808 2.9085 1.7173 4.7243c1.2506 1.8158 3.6085 3.723 4.2331 4.6316 0.6246 0.90719 1.5521 2.2144 1.5521 2.2144s-1.4622-5.2185-2.6926-6.9256c-1.2289-1.7057-4.8098-4.6446-4.8098-4.6446zm34.988-92.659s3.9519-1.6303 9.2675-0.72459c5.3142 0.90574 9.5429 2.3984 12.638 2.0607 3.0969-0.33911 6.33-0.82169 8.3183-1.8796 4.0447-2.1506 6.6822-4.4823 7.5981-5.4388 0.91734-0.95791 0.92893-1.013 0.92893-1.013s-2.0752 2.3883-4.5475 4.0186c-1.2332 0.81444-2.0462 1.3767-3.0375 1.8999-0.9637 0.4449-2.0115 0.7159-4.1287 0.6246-4.2302-0.1826-10.446-3.2143-13.104-3.3954-2.6564-0.18115-8.0401 0.42896-9.8892 1.2448-1.8492 0.81444-4.0447 2.6027-4.0447 2.6027zm40.324-6.5952c-2.4042 2.5129-7.5473 6.4387-17.967 8.1662-5.5605 0.92168-9.5632 2.7114-16.618 6.359-6.888 3.5621-12.604 7.9575-17.526 12.299-2.7679 2.4404-5.0692 4.6475-7.4676 7.2807-12.682 12.222-20.265 28.882-20.265 47.688 0 7.2546 1.1695 14.24 3.3346 20.786m129.19-0.42606s0.5246 2.8984-0.0507 5.0113c-0.57678 2.1129-2.1723 4.6664-2.4607 5.7228-0.28839 1.0565-0.72894 2.5868-0.72894 2.5868s-0.3565-5.3982 0.23767-7.401c0.59416-2.0042 3.0027-5.9199 3.0027-5.9199zm-22.848-71.952s2.1651 2.0419 2.9665 4.0838 1.042 5.0258 1.4419 6.046c0.40142 1.0217 0.96226 2.5129 0.96226 2.5129s-3.5273-4.162-4.249-6.1242c-0.72024-1.9636-1.1217-6.5184-1.1217-6.5184zm-8.8081-7.4647s2.8578 2.1042 4.107 4.4012c1.2492 2.2984 1.9738 5.788 2.5998 6.9372 0.6246 1.1492 1.5072 2.8317 1.5072 2.8317s-4.7823-4.4142-5.9243-6.6315c-1.142-2.2158-2.2897-7.5386-2.2897-7.5386zm15.058 14.141s2.1274 2.0781 2.8926 4.1331 0.95211 5.0432 1.3362 6.0706c0.38258 1.0275 0.91588 2.5288 0.91588 2.5288s-3.452-4.2215-4.1374-6.1967c-0.68691-1.9752-1.0072-6.5358-1.0072-6.5358zm6.4923 8.4908s1.8535 2.3172 2.3564 4.4476c0.50432 2.1317 0.31737 5.12 0.56953 6.1851s0.59562 2.6187 0.59562 2.6187-2.9013-4.6012-3.336-6.6445c-0.43621-2.0419-0.1855-6.6068-0.1855-6.6068zm-22.213-26.903s2.4796 2.5216 4.9591 3.4578c2.4796 0.93328 6.1054 1.2144 7.3445 1.6811 1.2405 0.46808 3.052 1.1217 3.052 1.1217s-5.0548-4.1113-7.4387-4.9533c-2.3854-0.84053-7.9169-1.3072-7.9169-1.3072zm9.011 7.0213s2.3274 3.1491 4.9069 4.5519c2.5781 1.4028 6.5184 2.2593 7.8068 2.9607 1.2898 0.70141 3.1781 1.6941 3.1781 1.6941s-4.9084-5.2837-7.3952-6.5692c-2.4882-1.2869-8.4966-2.6375-8.4966-2.6375zm9.6023 9.3791s1.7941 2.823 3.9099 4.1708c2.1158 1.3492 5.4257 2.31 6.4822 2.9839 1.0579 0.67387 2.6085 1.6318 2.6085 1.6318s-3.8664-4.7968-5.9112-6.0402c-2.0448-1.2405-7.0894-2.7462-7.0894-2.7462zm6.2793 7.6575s1.4304 3.0158 3.3621 4.607c1.9318 1.5898 5.0968 2.9389 6.0634 3.7345 0.96516 0.79561 2.3854 1.9318 2.3854 1.9318s-3.2404-5.2229-5.1156-6.701c-1.8767-1.4782-6.6952-3.5722-6.6952-3.5722zm5.0403 8.2343s0.98689 3.1839 2.6752 5.0214c1.6868 1.8376 4.6301 3.6056 5.4736 4.5244 0.84342 0.92024 2.0883 2.239 2.0883 2.239s-2.468-5.6141-4.1142-7.3329c-1.6477-1.7202-6.1228-4.4519-6.1228-4.4519zm3.8215 8.8429s0.52605 3.2868 1.9347 5.3359c1.41 2.0506 4.0736 4.2026 4.778 5.2287 0.70431 1.0246 1.7506 2.5013 1.7506 2.5013s-1.6463-5.8967-3.0331-7.8227c-1.3869-1.9274-5.4301-5.2432-5.4301-5.2432zm2.5274 9.2777s0.0551 3.3259 1.1594 5.5489c1.1043 2.2216 3.436 4.7171 3.9882 5.8272 0.55214 1.1115 1.3782 2.7158 1.3782 2.7158s-0.79126-6.0634-1.8926-8.1604c-1.0999-2.097-4.633-5.9315-4.633-5.9315zm0.91734 9.5298s-0.38404 3.2012 0.33186 5.4823c0.71445 2.281 2.5129 4.9852 2.8723 6.1257 0.35795 1.1405 0.89994 2.7911 0.89994 2.7911s0.071-5.9286-0.65793-8.0893c-0.72749-2.1593-3.4462-6.3098-3.4462-6.3098zm-0.21303 10.218s-0.813 3.1143-0.41157 5.4765c0.40142 2.3607 1.8187 5.2982 2.0187 6.4793 0.20144 1.1811 0.51591 2.8926 0.51591 2.8926s0.86806-5.8605 0.4391-8.1038c-0.43041-2.2433-2.5622-6.7445-2.5622-6.7445zm-1.3477 8.8226s-1.3796 2.8998-1.426 5.2968c-0.0464 2.397 0.79705 5.5576 0.77386 6.7561-0.0232 1.1985-0.0319 2.9418-0.0319 2.9418s1.9434-5.5852 1.9405-7.872c-4e-3 -2.2868-1.2564-7.1227-1.2564-7.1227zm-7.4879-41.905s1.413 2.5984 1.5318 4.7823c0.11884 2.1839-0.59416 5.0939-0.53475 6.1866 0.0594 1.0927 0.12174 2.6824 0.12174 2.6824s-2.0405-5.0272-2.1071-7.1126c-0.0681-2.0854 0.98835-6.5387 0.98835-6.5387zm3.9026 10.799s0.93182 2.7984 0.66227 4.9692c-0.27099 2.1709-1.4898 4.9171-1.6231 6.0025-0.13623 1.0854-0.3565 2.6622-0.3565 2.6622s-1.1188-5.2982-0.81589-7.3633c0.30433-2.0651 2.1332-6.2706 2.1332-6.2706zm1.8477 10.824s0.42172 2.9143-0.22897 5.0069c-0.65213 2.0926-2.3375 4.5896-2.6636 5.6359-0.32461 1.0449-0.82023 2.5593-0.82023 2.5593s-0.16376-5.4069 0.50141-7.3894c0.66518-1.981 3.2114-5.8127 3.2114-5.8127zm-0.18259 11.136s-0.10145 2.9418-1.113 4.891c-1.013 1.9492-3.1143 4.1215-3.6215 5.0953-0.50577 0.97675-1.2622 2.3824-1.2622 2.3824s0.79705-5.3518 1.8042-7.1908c1.0057-1.839 4.1925-5.1779 4.1925-5.1779zm-2.6506 10.951s-0.46953 2.9085-1.7187 4.7243c-1.2478 1.8158-3.607 3.723-4.2316 4.6316-0.62459 0.90719-1.5521 2.2144-1.5521 2.2144s1.4622-5.2185 2.6911-6.9256c1.2304-1.7057 4.8113-4.6446 4.8113-4.6446zm-34.989-92.659s-3.9505-1.6303-9.2661-0.72459c-5.3142 0.90574-9.5429 2.3984-12.64 2.0607-3.0955-0.33911-6.3286-0.82169-8.3169-1.8796-4.0447-2.1506-6.6822-4.4823-7.5995-5.4388-0.91588-0.95791-0.92747-1.013-0.92747-1.013s2.0752 2.3883 4.5475 4.0186c1.2333 0.81444 2.0462 1.3767 3.0375 1.8999 0.96226 0.4449 2.01 0.7159 4.1302 0.6246 4.2287-0.1826 10.444-3.2143 13.102-3.3954 2.6564-0.18115 8.0401 0.42896 9.8892 1.2448 1.8492 0.81444 4.0432 2.6027 4.0432 2.6027zm-40.322-6.5952c2.4042 2.5129 7.5474 6.4387 17.966 8.1662 5.562 0.92168 9.5646 2.7114 16.618 6.359 6.8894 3.5621 12.604 7.9575 17.528 12.299 2.7679 2.4404 5.0692 4.6475 7.4676 7.2807 12.682 12.222 20.265 28.882 20.265 47.688 0 7.2546-1.1695 14.24-3.3346 20.786m-120.85-13.927 3.4664 0.23477 0.76951-0.70141 16.868 0.15651s-1.0014-2.2564-1.7724-2.8781c-0.76952-0.6217-1.0014-0.69996-1.6941-0.69996s-1.926 0.54489-2.0796 0.93327c0 0-1.0782-1.0898-2.3114-1.0898-1.2318 0-1.9245 0.62315-2.1564 0.85647 0 0-0.6159-0.6217-1.5405-0.77822-0.92313-0.15506-2.8491 0.46664-3.5418 0.15652-0.69415-0.31158-1.0796-0.46809-1.0796-0.46809s-1.8477 2.0231-2.6187 2.568c-0.76952 0.54345-2.31 1.71-2.31 1.71zm-0.0768-6.3779c0.69271 0.31158 1.5405 0.38983 2.7723-0.15506 1.2333-0.54489 1.4637-0.46664 2.31-0.15651 0.84777 0.31157 1.3101 0.54489 2.3882 0.0783m11.246-0.54489c0.69271 0.31158 1.5405 0.38983 2.7723-0.15506 1.2318-0.54345 1.4637-0.46664 2.3114-0.15506 0.84632 0.31012 1.3086 0.54489 2.3868 0.0783m-14.864-1.0898c0.69271 0.31157 1.539 0.38838 2.7723-0.15507 1.2318-0.54489 1.4637-0.46663 2.3114-0.15651 0.84632 0.31158 1.3086 0.54489 2.3868 0.0783m-12.401-4.7446c0.69271 0.31158 1.5405 0.38838 2.7737-0.15506 1.2318-0.54489 1.4622-0.46664 2.31-0.15651 0.84632 0.31157 1.3086 0.54489 2.3868 0.0783m3.8519 1.0883c0.69271 0.31157 1.5405 0.38983 2.7723-0.15506 1.2332-0.5449 1.4637-0.46664 2.31-0.15651 0.84777 0.31157 1.3101 0.54489 2.3882 0.0783m5.0837 6.4561c0.69271 0.31158 1.5405 0.38983 2.7723-0.15506 1.2333-0.54489 1.4637-0.46664 2.3114-0.15651 0.84777 0.31157 1.3086 0.54489 2.3882 0.0783m-6.3938-4.278c0.69271 0.31157 1.5405 0.38983 2.7737-0.15507 1.2318-0.54489 1.4622-0.46663 2.31-0.15651 0.84778 0.31158 1.3101 0.54489 2.3868 0.0783m-11.553-2.4882c0.69416 0.31012 1.5405 0.38838 2.7737-0.15651 1.2318-0.54345 1.4622-0.46664 2.31-0.15507 0.84778 0.31158 1.3086 0.54345 2.3883 0.0783m-6.859 20.171s-0.86661-0.57967-2.0883 0.0855c-1.2217 0.66518-1.3738 1.3666-1.3738 1.91 0 0-0.62894-0.20144-1.1564 0.23332-0.52461 0.4362-0.38404 1.1666-0.38404 1.1666s-0.6217-0.7072-1.8897-0.33331c-1.2695 0.37534-1.3448 1.1898-1.4216 1.6564 0 0-1.0101-0.54489-2.081-0.23332-1.0695 0.31158-1.3086 1.0883-1.3854 1.4782 0 0-0.84777-0.46664-1.6173-0.54489-0.77096-0.0783-1.1564 0.0782-1.1564 0.0782m0.75212-1.0463-3.8186-0.17535s-0.58547-1.0159-0.58547-1.5086c0-0.49127 0.38983-1.9434 0.38983-1.9434l3.9157 0.23332s-0.19419 0.94921-0.19419 1.5028 0.29273 1.8912 0.29273 1.8912zm-4.3649-9.9182s-0.57243 1.1304-0.46808 2.8027c0.0768 1.2434 0.38403 2.0738 0.99993 2.0216 0.92458-0.0783 3.3288-0.18115 3.3288-0.18115s-0.0174-1.0043-0.0985-1.7637c-0.0811-0.76082 0.20289-2.7404 0.20289-2.7404s-1.1521 0.20723-2.0086 0.13767c-0.85502-0.0681-1.9564-0.2768-1.9564-0.2768zm5.1475 0.0899s-0.071 1.468 0.23767 2.6332c0.30722 1.1651 0.84487 1.8752 0.84487 1.8752l2.6187 0.21158s-0.30577-1.4637-0.30577-2.4752c0-0.76082 0.53909-2.3346 0.53909-2.3346zm6.2431-1.1695 1.1478 3.3607-2.1158-0.4507s-0.19129-0.36374-0.25506-0.78256c-0.0638-0.42026 0-0.7101-0.15941-0.90284s1.9245 0.48258 1.9245 0.48258m-13.567 8.782-3.4708-0.33476s-0.53185-0.95066-0.53185-1.397c0-0.4478 0.35505-1.7506 0.35505-1.7506l3.5592 0.39128s-0.17825 0.85502-0.17825 1.3593c0 0.50286 0.26665 1.7318 0.26665 1.7318zm9.9776-3.9838c-0.59272 0.2681-2.5419 1.0043-2.5419 1.0043s1.4405 0.19999 1.9492 0.46809c0.50867 0.26665 0.67677 0.39997 0.67677 0.39997s0.50867-2.139-0.084-1.8723zm-5.7924 5.6025c-0.59271 0.26665-2.5419 1.0028-2.5419 1.0028s1.4405 0.20144 1.9492 0.46809c0.50866 0.2681 0.67822 0.40142 0.67822 0.40142s0.50721-2.1404-0.0855-1.8723zm-5.4576-0.22462c-0.56373 0.2536-2.4143 0.95356-2.4143 0.95356s1.368 0.18984 1.8506 0.4449c0.48258 0.2536 0.64343 0.38113 0.64343 0.38113s0.48403-2.0332-0.0797-1.7796zm-2.3201-10.804s-0.5391 1.0623-0.442 2.6332c0.0725 1.1709 0.36084 1.9506 0.94052 1.9013 0.86951-0.0725 3.1288-0.16956 3.1288-0.16956s-0.0159-0.94341-0.0927-1.6593c-0.0768-0.71445 0.19129-2.5752 0.19129-2.5752s-1.084 0.19564-1.8883 0.13043c-0.8043-0.0652-1.8376-0.26086-1.8376-0.26086zm74.31-3.736h-30.039m15.753-4e-3c0.28549 2.7129 2.5491 4.8258 5.3127 4.8258 2.7592 0 5.0316-2.1086 5.3214-4.8171m-71.522-4e-3h-4.2374m25.11 0h-4.8519m44.594 4.0403-21.039 19.178m22.377-17.915-12.008 17.995m13.617-17.07-6.1242 17.07m7.9415-16.686-1.7361 16.686m3.6012-16.608 2.3028 16.608m-0.47678-17.067 6.7981 17.026m-5.2489-18.087 13.012 18.087m-84.366-7.0923-1.4927 0.37969m8.2763-2.4201-1.3956 0.3536m14.545-3.5983-7.5459 1.8463m-5.9532 3.9128c-0.0768 0.54345 0.23042 1.1999 0.69271 1.555 0.46229 0.35649 1.3101 0.31157 1.3101 0.31157s0.48693 1.426 2.5288 1.5796c2.0419 0.15506 2.8621-1.268 2.8621-1.268s0.30433 0.84053 1.1695 1.0449c0.86371 0.20578 1.4492-0.2681 1.4492-0.2681s0.21303 0.98544 1.6173 1.0898c1.4043 0.10289 1.926-1.0898 1.926-1.0898s1.2217 0.99704 2.9433 0.57677c1.7535-0.42751 2.1404-2.0549 2.1404-2.0549s0.92313 0.23477 1.3086 0c0.38548-0.23332 0.92458-0.46664 1.4637-0.38838 0.53909 0.0783 1.0782 0 1.3086-0.46664 0.23187-0.46664 0.30867-0.93327 0.30867-0.93327s1.3086 0.31157 1.8492 0c0.5391-0.31158 1.2318-0.85647 1.3086-1.1666 0.0768-0.31158 0.23187-0.69996 0.23187-0.69996m-3.1838-15.851c-0.0768 0.29419-0.12898 0.60286-0.12898 0.92313 0 1.9752 1.5869 3.578 3.5432 3.578 1.9564 0 3.5433-1.6028 3.5433-3.578 0-0.50141-0.10145-0.9782-0.28549-1.41m9.2197-0.92458c0.69416 0.31157 1.5405 0.38983 2.7723-0.15506 1.2332-0.5449 1.4637-0.46664 2.3114-0.15507 0.84632 0.31013 1.3086 0.54345 2.3868 0.0768m2.3883 1.1666c0.69271 0.31158 1.5405 0.38983 2.7737-0.15506 1.2318-0.54489 1.4622-0.46664 2.31-0.15506 0.84777 0.31012 1.3101 0.54344 2.3868 0.0768m-29.114 5.1345v3.2665l2.0028 0.0783 0.15362-4.5896m-16.635 7.856c0.15362-0.54489 0.30723-1.7115 0.15362-2.0231l2.2332 0.0783s-0.46229 0.93327-0.38549 1.3231c0.0768 0.38839 0.15507 0.69996 0.15507 0.69996zm6.7329 3.1897s-0.0768 0.77676-0.0768 1.1666c0 0.38838 0.15362 0.85502 0.15362 0.85502l-4.2374-1.1666s1.6956-0.31157 2.3114-0.38838c0.6159-0.0783 1.8492-0.46663 1.8492-0.46663zm0.78546-3.0723c-0.74778 0.14781-1.4347 0.58257-1.4347 0.58257s-0.92457-0.38838-1.3086-0.23332c-0.38548 0.15506-0.92458 1.0115-0.92458 1.0115s2.7723 0.0768 4.0824 0.0768c1.3086 0 4.5432-0.23187 4.5432-0.23187s-1.2318-0.93472-1.8477-1.0115c-0.6159-0.0783-1.6173 0.23332-1.6173 0.23332s-0.33766-0.47823-1.0782-0.47533zm-4.1592-2.4506h8.5792s0-0.6217-0.26954-0.9724c-0.271-0.35071-0.84778-0.58402-1.2333-0.6217-0.38548-0.0391-0.96226 0.27099-0.96226 0.27099s-0.80864-0.58257-1.1941-0.54344c-0.38549 0.0377-1.2318 0.93328-1.2318 0.93328s-0.61735-0.23332-1.2332-0.31158c-0.61591-0.0783-1.7332 0.27245-2.0404 0.50577zm4.2519 3.8882 0.16666 4.7461 0.1-4.7461m0.12753-5.6388 0.0812-4.3939m-0.16086 8.5951 0.042-2.4897m-0.49417-3e-3 0.0826 2.4912m-0.29273-8.5937 0.16086 4.8185m6.3996 3.2708s2.8897 0.31013 4.391 0.34926c1.5028 0.0391 4.6982 0.0391 4.6982 0.0391s-0.0391-0.50576-0.0768-0.77821c-0.0391-0.27244-0.26954-0.6217-0.65503-0.73908-0.38403-0.11594-1.0014-0.19419-1.3086-0.19419-0.30868 0-0.69416 0.38838-0.69416 0.38838s-0.42316-0.6217-1.2695-0.66083c-0.84778-0.0391-1.6956 0.38983-1.8115 0.77821 0 0-0.61591-0.34925-1.1927-0.31157-0.57822 0.0391-2.081 1.1289-2.081 1.1289zm4.6229-1.5564 0.11448-6.5329m-0.83183 0 0.20579 6.6489m-4.4186 5.4069h9.3965s-0.69271-0.42751-1.0014-0.77821c-0.30722-0.34926-0.88545-0.69996-1.5014-0.77677-0.6159-0.0782-1.5014 0.6217-1.5405 0.77677 0 0-0.23042-0.50577-1.2709-0.50577-0.9637 0-1.155 0.3507-1.3086 0.62315 0 0-0.61735-0.50576-1.2332-0.46664-0.61591 0.0391-1.5405 1.1275-1.5405 1.1275zm4.8504-1.2043 0.0391-2.3738m-0.28549 3.5737 0.13333 4.6707 0.0855-4.6272m-0.32027-3.6592 0.0623 2.4129m22.619-11.279-21.402 5.3837m21.83-3.6505-19.01 10.204m-9.0893 4.8838-10.37 5.5822m14.747-3.2273v-3.3056s-2.5419-0.0391-2.7737-0.0391c-0.23042 0-0.65359 1.0883-0.65359 1.6724 0 0.58257 0.61591 1.555 0.61591 1.555zm-0.45794-18.774c0.85067 0.0188 1.681 0.0522 2.4607 0.10579 3.3882 0.23332 11.399 0.77821 11.399 0.77821s-4.3142-2.0999-5.546-2.723c-1.2318-0.62169-2.2332-1.1666-3.6969-1.1666-1.4637 0-2.0028 0.5449-2.0028 0.5449s-0.84632-0.69996-1.4637-0.69996c-0.6159 0-0.92458 0.54489-0.92458 0.54489s-1.2318-0.54489-2.0781-0.23332c-0.84778 0.31013-1.3101 0.69996-1.3101 0.69996s-1.0014-0.85647-1.926-0.69996c-0.92313 0.15507-1.3086 0.69996-1.3086 0.69996s-0.5391-0.69996-1.6941-0.69996c-1.1564 0-2.081 0.69996-2.081 0.69996s-1.2318-0.77821-1.8477-0.69996c-0.61591 0.0768-4.236 3.1114-4.236 3.1114s6.5474-0.38983 8.7038-0.31157c0.33331 0.0116 0.72169 0.0188 1.155 0.0217m80.596 6.8358s-1.9564 1.5434-2.497 1.9318c-0.53764 0.38838-1.5405 1.1666-1.6941 1.555-0.15362 0.38983-1.0014 0.46663-1.5405 0.77821-0.5391 0.31157-1.8477 1.0898-2.6955 1.5564-0.84777 0.46664-2.0796 1.0883-3.3128 1.7883-1.2318 0.69996-2.31 1.1666-2.6955 1.8666-0.38403 0.69996-0.46229 1.3999-1.3086 1.5564-0.84777 0.15507-1.6173 0.31013-2.0028 0.6217-0.38549 0.31158-0.84778 0.5449-1.3101 0.5449-0.46085 0 0.0783-0.93328-0.69271-1.8666-0.76952-0.93328-1.155-2.1013-1.6941-2.723s-1.6941-1.0883-2.1564-2.2549c-0.46229-1.1666-0.61591-2.1781-1.6173-3.1114-1.0014-0.93328-1.155-1.1666-1.6956-2.0231-0.53909-0.85502-1.4637-2.8781-1.6941-3.4998s0-1.1666-0.5391-1.2448c-0.5391-0.0783-2.0796-0.0783-2.4651-0.6217-0.38403-0.54489-1.3869-1.0898-1.9245-1.7115-0.53909-0.6217-1.0014-0.93328-1.0014-1.3999 0-0.46664 0.92313-0.85647 3.1578-0.69996 2.2332 0.15506 3.6201 0.23332 4.1592 0 0.53909-0.23332 0.0768-0.69996-1.3101-0.77821-1.3854-0.0783-2.31-0.54489-3.1578-1.0115-0.84632-0.46664-0.76951-0.46664 1.5405-1.0115 2.3114-0.54345 2.0028-0.31013 2.7723-0.54345 0.77097-0.23331 1.5405 0.0768 2.2346-0.31157 0.69271-0.38838 1.3086-0.15506 2.6187-0.15506h3.2346c0.53909 0 1.4637 0.0768 1.4637 0.0768m15.063 14.825 2.181 0.57967m-35.861-9.7559 3.8998 1.0637m-5.1663 1.9578 18.367 15.571m0.72459 0.60431 6.8938 5.8822m-24.645-23.513 9.011 4.9084m15.324 8.3198 7.6865 4.1592m-16.963-23.085c0.0377 0.3507 0.0956 1.3231 0.0768 1.6332-0.0188 0.31157-0.0768 1.0507-0.49997 1.3231-0.42461 0.27245-0.7898 0.6217-0.84777 1.2246-0.058 0.60286-0.058 1.0695-0.0956 1.284-0.0391 0.21303-0.21592 0.37679-0.46228 0.58257-0.19709 0.16521-0.3652 0.25361-0.48258 0.2623-0.34636 0.0304-0.34636 0.26231-0.34636 0.52606 0 0.14057 0.10579 0.30143 0.26086 0.32027 0.15361 0.0188 0.38403 0.0391 0.66372 0.0971 0.26375 0.0551 0.62315 0.26665 0.82748 0.33042 0.30868 0.0971 0.48258-0.087 0.65504-0.30143 0.1739-0.21303 0.1681-0.29419 0.36229-0.39708 0.22462-0.11883 0.16666-0.41157 0.0594-0.46664-0.10144-0.0507-0.39998-0.11159-0.39563-0.21593 9e-3 -0.13767 0.24346-0.33041 0.47388-0.48547 0.23187-0.15507 0.30868-0.21448 0.86662-0.19419 0.55938 0.0188 0.94486-0.11739 1.2144-0.0391 0.26955 0.0783 0.94342 0.23911 1.4057 0.21448 0.36519-0.0203 0.65358-0.29274 0.76952-0.46664 0.11593-0.17535 0.5159 0.41737 0.38548 0.23332-0.0971-0.13622-0.38548-0.0391-0.38548-0.23332 0-0.19564 0.058-0.73908 0-0.91443s-0.13478-0.60286-0.34636-0.87531-0.38113-0.31157-0.30433-0.64199c0.0768-0.33041 0.30868-0.50431 0.19274-0.99124-0.11593-0.48548-0.0913-0.34346-0.18694-0.96661-0.0826-0.52895-0.0623-0.56952-0.1-0.74488-0.0159-0.0638-0.15362-0.27244-0.40578-0.25215-0.22317 0.0174-0.34055 0.13912-0.34055 0.26085 0 0.23911 0.0913 0.44345 0.0913 0.92893 0 0.48692 0.11159 0.65648-0.13767 1.1825-0.25071 0.5246-0.34635 0.89415-0.36664 0.9724-0.0188 0.0768-0.0594-0.0782-0.57967-0.17535-0.52026-0.0971-0.69851-0.13622-0.87241-0.17535-0.17246-0.0391-0.15362-0.11594-0.15362-0.31158 0-0.19419-0.058-0.36809-0.0768-0.81589-0.0188-0.44779-0.0768-0.8753-0.0971-1.1275-0.0188-0.25361-0.0565-0.50866-0.11738-0.63039-0.0971-0.1942-0.27535-0.22608-0.42896-0.22608-0.18115 0-0.29998 0.0522-0.27535 0.27245z" fill="none" stroke="#000" stroke-linecap="round" stroke-linejoin="round" stroke-miterlimit="3.864" stroke-width=".41012"/>
   <path d="m343.42 697.87c1.5926 1.6941 3.2288 3.4548 7.6227 3.4548 5.2432 0 9.4704-4.2432 12.267-12.847 4.278-13.157 4.1258-37.145-16.098-58.74-11.607-12.393-40.058-30.542-40.058-30.542s-28.456 18.148-40.064 30.542c-20.223 21.594-20.376 45.583-16.098 58.74 2.7969 8.6038 7.0242 12.847 12.266 12.847 4.3954 0 6.0315-1.7608 7.6242-3.4548z" fill="none" stroke="#000" stroke-linecap="round" stroke-linejoin="round" stroke-miterlimit="3.864" stroke-width="1.2347"/>
  </g>
 </g>
</svg>