<?xml version="1.0" encoding="UTF-8" standalone="no"?>
<svg xmlns:rdf="http://www.w3.org/1999/02/22-rdf-syntax-ns#" xmlns="http://www.w3.org/2000/svg" xml:space="preserve" height="96.9" viewBox="0 0 226.12688 96.937815" width="226" version="1.1" xmlns:cc="http://creativecommons.org/ns#" xmlns:dc="http://purl.org/dc/elements/1.1/"><defs><clipPath id="a" clipPathUnits="userSpaceOnUse"><path d="m0.06 310h724v-310h-724v310z"/></clipPath></defs><g transform="matrix(1.25 0 0 -1.25 -339 242)"><g style="" transform="matrix(.25 0 0 .25 271 116)"><g fill="#003da5"><path d="m112 164c5.56 15.8 8.38 24.9 8.38 30.2 0 8.04-6.43 16.9-11.6 24l-0.582 0.801c-2.02 2.79-3.96 5.49-5.45 7.6-1.5-2.1-3.43-4.8-5.45-7.6l-0.58-0.8c-5.17-7.12-11.6-16-11.6-24 0-5.29 2.82-14.3 8.38-30.2 3.33-9.48 4.77-31.3 5.39-46.9 0.328-3.04 0.497-6.06 0.497-9h-0.172c0.091-1.49 0.129-2.76 0.129-3.74h-0.072c0.008-0.347 0.014-0.679 0.02-0.992l7.02-0.001c0.005 0.315 0.011 0.644 0.018 0.993h-0.063c0 0.978 0.038 2.25 0.128 3.74h-0.172c0 2.8 0.152 5.66 0.448 8.55 0.582 15.6 1.98 37.8 5.34 47.4"/><path d="m69 156c3.06 0 6.52-0.566 10-2.27-6.18 9.14-14.2 15.4-23.7 15.4-11.7 0-21.3-9.54-21.3-21.3 0-10.7 7.79-16.2 16.3-19.4-0.922 2.32-1.42 4.82-1.42 7.39 0 11.1 9.02 20.1 20.1 20.1"/><path d="m131 265c0.672 0.672 1.04 1.56 1.04 2.51 0 0.949-0.37 1.84-1.04 2.51-0.673 0.673-1.56 1.04-2.51 1.04h-21.9v-14.2h16.3l8.15 8.15"/><path d="m83.3 257h16.3v14.2h-21.9c-0.935 0-1.85-0.379-2.51-1.04-0.679-0.678-1.05-1.57-1.05-2.52 0-0.949 0.37-1.84 1.04-2.51l8.16-8.16"/><path d="m136 111c0 6 3.56 11.5 8.98 13.9 3.44 2.41 5.57 6.39 5.57 10.7 0 7.16-5.83 13-13 13-19.3 0-22.8-32.4-23.5-42.1-0.033-1.41-0.058-2.65-0.076-3.69l9.76-0.001-0.001-7.11-16.9 0.002v-3.42c0-11.8 9.62-21.4 21.4-21.4h3.56v-3.55c0-4.34-2.23-8.47-6.27-11.6-2.64-2.07-5.77-3.49-8.92-4.09-1.49-12.1-10.9-18.8-11.3-19.1l-2.03-1.42-2.04 1.42c-0.433 0.302-9.84 7-11.3 19.1-3.15 0.603-6.28 2.02-8.92 4.09-4.05 3.17-6.28 7.3-6.28 11.6v3.55l3.56 0.005c11.8 0 21.4 9.62 21.4 21.4v3.42l-16.8 0.002 0.001 7.11 9.76-0.001c-0.022 1.12-0.053 2.48-0.092 4.03-0.682 10.1-4.36 41.7-23.4 41.7-7.17 0-13-5.83-13-13 0-4.28 2.13-8.26 5.58-10.7 5.41-2.47 8.97-7.91 8.97-13.9 0-8.43-6.86-15.3-15.3-15.3h-35.7c17.6-48.3 74-76.1 83.6-80.5 5.3 2.44 24.8 11.9 44.1 27.9 19.7 16.3 32.9 33.9 39.6 52.6h-35.8c-8.43 0-15.3 6.86-15.3 15.3"/><path d="m14.2 125c0-7.82 1.08-15.2 2.99-22.3h38c4.51 0 8.18 3.67 8.18 8.18 0 2.58-1.24 4.97-3.23 6.5-0.695 0.338-1.36 0.713-2.01 1.12-20.8 4.5-31.3 14.2-31.3 28.9 0 15.7 12.7 28.4 28.4 28.4 12.7 0 24.4-8.53 33-24 0.452-0.816 0.892-1.65 1.32-2.49-0.662 4.79-1.47 8.89-2.45 11.7-5.95 17-8.78 26.2-8.78 32.5 0 10.4 7.18 20.3 13 28.2l0.576 0.796c4.35 6 8.26 11.6 8.3 11.6l2.91 4.13 2.91-4.13c0.039-0.056 3.96-5.62 8.3-11.6l0.578-0.798c5.77-7.95 13-17.9 13-28.2 0-6.35-2.83-15.5-8.78-32.5-0.995-2.84-1.81-7.03-2.47-11.9 0.465 0.922 0.944 1.83 1.44 2.72 8.57 15.5 20.3 24 33 24 15.7 0 28.4-12.7 28.4-28.4 0-14.7-10.5-24.4-31.3-28.9-0.645-0.413-1.32-0.79-2.02-1.13-1.99-1.52-3.22-3.91-3.22-6.49 0-4.51 3.67-8.18 8.18-8.18h38.1c1.95 7.28 2.93 14.7 2.93 22.3v124h-178v-124"/></g><g style=""><g style="" clip-path="url(#a)" fill="#003da5"><path d="m103 40.4c2.51 2.49 6.44 7.53 6.44 14.7v3.55h3.56c3.86 0 8.52 2.47 10.5 5.75-8.82 1.41-16.3 6.87-20.5 14.4-4.1-7.6-11.6-13-20.4-14.4 1.9-3.3 6.6-5.8 10.5-5.8h3.56v-3.55c0-7.14 3.94-12.2 6.45-14.7"/><path d="m199 125c0-31.5-16.4-61.8-47.5-87.5-24-18.9-47-28.8-47-29.2l-1.39-0.592-1.39 0.592c-1 0.43-24.1 10.3-47.4 29.5-31.1 25.8-47.5 56-47.5 87.2v132h66.1l-3.13 3.13c-2.02 2.01-3.13 4.69-3.13 7.54s1.11 5.53 3.13 7.54c1.98 1.98 4.72 3.12 7.54 3.12h21.9v7.11h-10.7v7.11h10.7v10.7h7.11v-10.7h10.7v-7.11h-10.7v-7.11h21.9c2.85 0 5.52-1.11 7.54-3.13s3.12-4.69 3.12-7.54-1.11-5.53-3.12-7.54l-3.13-3.13h66.1v-132zm-53.1 139c1.15 5.65-0.466 11.8-4.84 16.1-3.36 3.36-7.82 5.21-12.6 5.21h-4.16v14.2h-10.7v10.7h-21.3v-10.7h-10.7v-14.2h-4.16c-4.75 0-9.21-1.85-12.6-5.21-3.35-3.35-5.2-7.82-5.2-12.6 0-1.2 0.121-2.4 0.351-3.55h-60.5v-139c0-33.4 17.3-65.5 50.1-92.7 24-19.9 47.8-30.1 48.8-30.5l4.1-1.8 4.18 1.78c1 0.423 24.8 10.7 48.9 30.6 32.8 27.1 50.1 59.3 50.1 93v139h-60.2"/></g></g><path d="m172 148c0 11.7-9.54 21.3-21.3 21.3-9.49 0-17.6-6.29-23.7-15.4 3.48 1.71 6.94 2.28 10 2.28 11.1 0 20.1-9.02 20.1-20.1 0-2.57-0.497-5.07-1.42-7.39 8.54 3.13 16.3 8.64 16.3 19.4" fill="#003da5"/><path d="m421 211h-6.48c-0.773 0-1.34-0.634-1.34-1.34v-29.1h-0.072l-29.3 31.2h-1.76c-0.701 0-1.34-0.567-1.34-1.27v-47.4c0-0.706 0.634-1.34 1.34-1.34h6.41c0.774 0 1.34 0.634 1.34 1.34v30.3h0.072l29.5-32.4h1.69c0.702 0 1.34 0.567 1.34 1.27v47.5c0 0.707-0.634 1.34-1.34 1.34zm47.8-7.12v5.77c0 0.707-0.567 1.34-1.34 1.34h-30.8c-0.778 0-1.34-0.634-1.34-1.34v-5.77c0-0.706 0.562-1.34 1.34-1.34h10.8v-39.6c0-0.706 0.634-1.34 1.34-1.34h6.55c0.706 0 1.34 0.634 1.34 1.34v39.6h10.8c0.773 0 1.34 0.634 1.34 1.34zm101-33.8c-8.89 0-16.2 7.26-16.2 16.2 0 8.89 7.26 16.3 16.2 16.3 8.89 0 16.2-7.41 16.2-16.3s-7.34-16.2-16.2-16.2zm0 41.6c-14.1 0-25.3-11.3-25.3-25.5 0-14.1 11.2-25.3 25.3-25.3s25.4 11.2 25.4 25.3-11.3 25.5-25.4 25.5zm-35.4-41.6h-18v39.6c0 0.707-0.634 1.34-1.34 1.34h-6.48c-0.774 0-1.34-0.634-1.34-1.34v-46.7c0-0.706 0.562-1.34 1.34-1.34h25.8c0.778 0 1.34 0.634 1.34 1.34v5.78c0 0.706-0.562 1.34-1.34 1.34zm174 20.7c-5.72 2.32-8.32 4.58-8.32 7.9 0 2.26 2.19 4.94 6.21 4.94 3.88 0 9.24-3.53 9.8-3.88 0.846-0.562 1.9 0 2.47 0.85l2.68 4.02c0.495 0.706 0.284 1.9-0.422 2.32-1.41 1.06-6.9 4.72-14.1 4.72-11.2 0-15.9-7.26-15.9-13.5 0-8.32 6.62-12.6 13.2-15.2 5.93-2.4 8.96-4.87 8.96-8.46 0-3.03-2.75-5.43-6.42-5.43-4.59 0-10.3 4.16-10.6 4.37-0.634 0.495-1.83 0.495-2.39-0.495l-2.54-4.37c-0.634-1.13-0.284-1.48 0.351-2.11 1.41-1.34 6.62-5.5 15.5-5.5 9.94 0 16.2 6.69 16.2 14 0 9.1-7.89 13.2-14.7 15.9zm-61.3 20.2h-6.69c-0.773 0-1.34-0.634-1.34-1.34v-28.9c0-5.92-4.16-10.6-10.3-10.6s-10.2 4.72-10.2 10.7v28.8c0 0.707-0.567 1.34-1.34 1.34h-6.69c-0.706 0-1.34-0.634-1.34-1.34v-29.3c0-10.7 8.53-19.4 19.6-19.4s19.7 8.67 19.7 19.4v29.3c0 0.707-0.634 1.34-1.34 1.34zm27 0h-6.55c-0.701 0-1.34-0.634-1.34-1.34v-46.7c0-0.706 0.634-1.34 1.34-1.34h6.55c0.706 0 1.34 0.634 1.34 1.34v46.7c0 0.707-0.634 1.34-1.34 1.34zm-313 0h-6.55c-0.701 0-1.34-0.634-1.34-1.34v-46.7c0-0.706 0.634-1.34 1.34-1.34h6.55c0.706 0 1.34 0.634 1.34 1.34v46.7c0 0.707-0.634 1.34-1.34 1.34zm-75-36.1c0 9.1-7.89 13.2-14.7 15.9-5.72 2.32-8.33 4.58-8.33 7.9 0 2.26 2.19 4.94 6.21 4.94 3.88 0 9.24-3.53 9.8-3.88 0.845-0.562 1.9 0 2.47 0.85l2.68 4.02c0.495 0.706 0.283 1.9-0.423 2.32-1.41 1.06-6.9 4.72-14.1 4.72-11.2 0-15.9-7.26-15.9-13.5 0-8.32 6.62-12.6 13.2-15.2 5.93-2.4 8.96-4.87 8.96-8.46 0-3.03-2.75-5.43-6.42-5.43-4.59 0-10.3 4.16-10.7 4.37-0.634 0.495-1.83 0.495-2.39-0.495l-2.54-4.37c-0.634-1.13-0.283-1.48 0.351-2.11 1.41-1.34 6.62-5.5 15.5-5.5 9.94 0 16.2 6.69 16.2 14zm24.5 3.6 6.91 15.5h0.212l7.05-15.5h-14.2zm8.74 32.4c-0.212 0.422-0.49 0.778-1.2 0.778h-0.706c-0.634 0-0.985-0.356-1.2-0.778l-21.9-47.4c-0.422-0.917 0.145-1.84 1.2-1.84h6.14c1.13 0 1.76 0.706 2.05 1.41l3.45 7.61h21.1l3.45-7.61c0.495-0.99 0.99-1.41 2.05-1.41h6.14c1.06 0 1.62 0.918 1.2 1.84l-21.7 47.4zm272-76.3h-24.6c-0.619 0-1.07-0.504-1.07-1.07v-4.62c0-0.567 0.452-1.07 1.07-1.07h8.63v-31.6c0-0.567 0.509-1.08 1.07-1.08h5.24c0.562 0 1.07 0.509 1.07 1.08v31.6h8.63c0.62 0 1.07 0.505 1.07 1.07v4.62c0 0.562-0.452 1.07-1.07 1.07zm42.9 0h-5.81c-0.452 0-0.735-0.278-0.904-0.504l-9.02-13-9.02 13c-0.173 0.226-0.452 0.504-0.903 0.504h-5.76c-0.903 0-1.36-0.898-0.903-1.63l12.9-18.8v-17.9c0-0.567 0.451-1.08 1.07-1.08h5.19c0.562 0 1.07 0.509 1.07 1.08v18l13 18.8c0.451 0.735 0 1.63-0.903 1.63zm-299 0h-5.18c-0.624 0-1.07-0.504-1.07-1.07v-23.3h-0.058l-23.5 24.9h-1.41c-0.567 0-1.07-0.451-1.07-1.02v-38c0-0.567 0.505-1.08 1.07-1.08h5.13c0.619 0 1.07 0.509 1.07 1.08v24.2h0.057l23.6-25.9h1.36c0.562 0 1.07 0.451 1.07 1.01v38c0 0.567-0.509 1.07-1.07 1.07zm216 0h-5.25c-0.562 0-1.07-0.504-1.07-1.07v-37.3c0-0.567 0.504-1.08 1.07-1.08h5.25c0.562 0 1.07 0.509 1.07 1.08v37.3c0 0.567-0.505 1.07-1.07 1.07zm-266 0h-5.36c-0.62 0-1.07-0.504-1.07-1.07v-23.1c0-4.74-3.33-8.52-8.24-8.52s-8.19 3.78-8.19 8.58v23.1c0 0.567-0.447 1.07-1.07 1.07h-5.35c-0.562 0-1.07-0.504-1.07-1.07v-23.5c0-8.58 6.82-15.5 15.7-15.5 8.92 0 15.7 6.93 15.7 15.5v23.5c0 0.567-0.51 1.07-1.07 1.07zm125 0h-5.76c-0.509 0-0.845-0.336-0.96-0.619l-10.8-24.3h-0.399l-10.8 24.3c-0.116 0.283-0.452 0.619-0.961 0.619h-5.76c-0.846 0-1.3-0.73-0.956-1.46l17.4-38c0.173-0.337 0.451-0.62 0.96-0.62h0.562c0.51 0 0.793 0.283 0.961 0.62l17.5 38c0.342 0.735-0.11 1.46-0.956 1.46zm70-18h-9.2v11.2h9.2c2.99 0 5.59-2.48 5.59-5.48 0-3.16-2.59-5.76-5.59-5.76zm12.9 5.87c0 6.72-5.52 12.1-12.3 12.1h-16.1c-0.619 0-1.07-0.504-1.07-1.07v-37.3c0-0.567 0.452-1.08 1.07-1.08h5.18c0.562 0 1.07 0.509 1.07 1.08v14.4h6.26l7.51-15c0.11-0.226 0.394-0.509 0.903-0.509h5.92c0.956 0 1.35 0.903 0.956 1.64l-7.72 14.3c4.9 1.97 8.34 6.2 8.34 11.4zm-45.7 12.1h-23c-0.62 0-1.07-0.504-1.07-1.07v-37.3c0-0.562 0.451-1.07 1.07-1.07h23c0.62 0 1.07 0.509 1.07 1.07v4.62c0 0.566-0.452 1.07-1.07 1.07h-16.7v9.88h13.9c0.562 0 1.07 0.451 1.07 1.07v4.67c0 0.567-0.509 1.07-1.07 1.07h-13.9v9.26h16.7c0.62 0 1.07 0.505 1.07 1.07v4.62c0 0.562-0.452 1.07-1.07 1.07zm-86.9 0h-5.24c-0.562 0-1.07-0.504-1.07-1.07v-37.3c0-0.567 0.509-1.08 1.07-1.08h5.24c0.567 0 1.07 0.509 1.07 1.08v37.3c0 0.567-0.505 1.07-1.07 1.07zm158-17c-4.57 1.86-6.66 3.66-6.66 6.32 0 1.81 1.75 3.95 4.97 3.95 3.1 0 7.39-2.82 7.84-3.1 0.677-0.452 1.52 0 1.97 0.673l2.14 3.22c0.394 0.562 0.226 1.52-0.336 1.86-1.13 0.846-5.52 3.78-11.3 3.78-8.97 0-12.7-5.8-12.7-10.8 0-6.66 5.3-10 10.6-12.2 4.74-1.92 7.17-3.89 7.17-6.77 0-2.43-2.2-4.35-5.14-4.35-3.67 0-8.24 3.33-8.52 3.5-0.504 0.398-1.46 0.398-1.91-0.394l-2.03-3.5c-0.504-0.903-0.226-1.18 0.284-1.69 1.13-1.07 5.3-4.4 12.4-4.4 7.96 0 13 5.35 13 11.2 0 7.28-6.31 10.6-11.8 12.8" fill="#003da5"/></g></g></svg>
