<?xml version="1.0" encoding="utf-8"?>
<!DOCTYPE svg PUBLIC "-//W3C//DTD SVG 1.1//EN" "http://www.w3.org/Graphics/SVG/1.1/DTD/svg11.dtd">
<svg version="1.1" id="Layer_1" xmlns="http://www.w3.org/2000/svg" width="252.5px" height="255.07px">
<path fill="#0E0F17" d="M11.452,98.108l4.655-0.297l0.054,0.861c-1.868,0.723-4.341,2.265-4.814,4.374l12.53,2.545c1.546,0.313,2.144-0.14,2.466-1.728l0.728,0.148l-1.604,7.897l-0.726-0.146c0.324-1.589-0.052-2.24-1.597-2.554l-12.53-2.543c-0.185,2.259,1.188,4.331,2.737,5.863l-0.388,0.772l-4.193-1.977L11.452,98.108z"/>
<path fill="#0E0F17" d="M27.877,97.669c0.595-1.507,0.344-2.214-1.122-2.792l-10.093-3.99c-1.466-0.581-2.132-0.239-2.731,1.268l-0.689-0.273l4.993-12.625l4.434,0.231l0.016,0.757c-2.373,0.682-4.786,2.245-5.729,4.633c-0.736,1.862-0.108,2.111,1.44,2.723l4.082,1.617l0.167-0.418c0.829-2.094,0.838-3.157-0.998-4.706l0.324-0.817l6.053,2.395l-0.326,0.815c-2.338-0.271-3.244,0.605-4.054,2.658l-0.181,0.459l4.416,1.748c1.214,0.48,2.083,0.678,2.67-0.81c1.028-2.596,0.48-5.498-0.78-7.886l0.517-0.449l3.273,3.112l-4.993,12.623L27.877,97.669z"/>
<path fill="#0E0F17" d="M43.251,63.728c1.317,0.865,2.039,0.667,2.93-0.689l0.62,0.407l-4.422,6.737l-0.619-0.405c0.889-1.357,0.784-2.098-0.531-2.963l-9.866-6.472l-0.024,0.039l9.437,12.25l-0.446,0.678l-14.644-3.494l-0.026,0.036l7.664,5.027c3.015,1.977,3.499,2.055,4.768,0.487l0.622,0.409l-3.127,4.762l-0.62-0.409c0.766-1.866,0.746-2.283-2.286-4.271l-7.248-4.756c-1.41-0.927-2.102-0.571-2.928,0.69l-0.624-0.408l3.622-5.514l10.614,2.657l-6.612-8.757l3.519-5.364l0.619,0.406c-0.794,1.417-0.895,2.024,0.535,2.963L43.251,63.728z"/>
<path fill="#0E0F17" d="M49.555,49.75c2.266-2.284,4.8-5.449,1.86-8.365c-1.584-1.569-4.436-1.701-7.983,1.88l-5.707,5.757l0.527,0.523c1.138-1.151,1.889-1.203,3.009-0.093l7.706,7.64c1.118,1.11,1.076,1.857-0.066,3.008l0.527,0.525l5.675-5.724l-0.527-0.525c-1.14,1.153-1.888,1.203-3.01,0.092l-3.37-3.344L49.555,49.75z M44.067,47.039c-1.102-1.096-1.581-1.572-0.302-2.865c1.492-1.503,3.177-1.701,4.923,0.026c1.884,1.87,1.703,3.462-0.185,5.365l-0.935,0.943L44.067,47.039z"/>
<path fill="#0E0F17" d="M62.875,46.64c1.317-0.941,1.49-1.672,0.573-2.955l-6.296-8.836c-0.915-1.285-1.661-1.361-2.982-0.42l-0.428-0.605l6.562-4.678l0.431,0.605c-1.319,0.941-1.49,1.672-0.575,2.955l6.298,8.836c0.785,1.099,1.143,1.563,2.5,0.598c2.254-1.609,3.104-4.453,3.332-7.078l0.591-0.143l1.462,4.458l-11.038,7.867L62.875,46.64z"/>
<path fill="#0E0F17" d="M77.106,36.835c1.462-0.698,1.758-1.387,1.078-2.81l-4.673-9.796c-0.676-1.422-1.396-1.626-2.862-0.928l-0.317-0.672l12.252-5.844l3.091,3.189l-0.503,0.564c-2.206-1.118-5.035-1.612-7.35-0.509c-1.812,0.863-1.52,1.473-0.802,2.977l1.89,3.961l0.406-0.194c2.033-0.967,2.761-1.739,2.474-4.122l0.794-0.376l2.799,5.872l-0.792,0.377c-1.528-1.791-2.787-1.762-4.778-0.813l-0.449,0.212l2.045,4.287c0.563,1.181,1.065,1.916,2.505,1.226c2.518-1.2,4.098-3.698,4.798-6.303l0.686,0.02l0.277,4.507l-12.252,5.845L77.106,36.835z"/>
<path fill="#0E0F17" d="M109.742,20.234c0.491,4.046,1.949,5.05,4.355,4.717c3.236-0.449,3.964-2.572,3.513-5.828l-1.084-7.83c-0.215-1.56-0.838-1.973-2.447-1.75l-0.101-0.737l5.488-0.759l0.101,0.735c-1.604,0.222-2.095,0.792-1.878,2.352l1.106,8.007c0.537,3.88-0.873,6.166-5.223,6.769c-4.44,0.613-6.923-1.089-7.4-4.547l-1.174-8.474c-0.217-1.561-0.843-1.973-2.447-1.751l-0.101-0.736l7.983-1.105l0.101,0.737c-1.605,0.222-2.096,0.791-1.88,2.35L109.742,20.234z"/>
<path fill="#0E0F17" d="M139.097,20.23l0.521-7.501c0.131-1.91,0.024-2.999-2.184-3.354l0.048-0.742l5.908,0.408l-0.05,0.741c-2.158,0.212-2.419,1.053-2.559,3.029l-0.862,12.509l-2.045-0.142l-8.145-13.402l-0.597,8.625c-0.169,2.446,0.066,2.936,2.391,3.593l-0.051,0.742l-6.354-0.439l0.05-0.741c2.178-0.189,2.628-0.833,2.773-2.899l0.716-10.333c-0.579-0.831-1.48-1.456-2.456-1.725l0.05-0.742l5.707,0.393L139.097,20.23z"/>
<path fill="#0E0F17" d="M151.229,13.593c0.359-1.535-0.078-2.146-1.655-2.513l0.167-0.723l7.853,1.827l-0.171,0.723c-1.576-0.367-2.238-0.013-2.598,1.523l-2.458,10.567c-0.354,1.536,0.079,2.146,1.659,2.515l-0.169,0.723l-7.851-1.827l0.169-0.725c1.577,0.369,2.238,0.013,2.597-1.521L151.229,13.593z"/>
<path fill="#0E0F17" d="M169.421,16.11l-0.27,0.691c-1.53-0.478-1.812-0.251-2.001,0.23c-0.114,0.294-0.12,0.678-0.122,0.992l-0.313,10.3l5.835-6.805c0.328-0.404,0.729-0.805,0.915-1.287c0.419-1.069-0.247-1.764-1.146-2.191l0.27-0.691l5.158,2.022l-0.271,0.691c-1.415-0.216-2.091-0.287-4.128,2.203l-8.526,10.03l-1.76-0.689l0.384-13.512c0.038-1.509,0.298-3.221-1.274-4.03l0.273-0.691L169.421,16.11z"/>
<path fill="#0E0F17" d="M174.361,35.272c1.381,0.849,2.119,0.721,2.945-0.622l5.683-9.243c0.823-1.344,0.602-2.061-0.777-2.91l0.388-0.635l11.566,7.111l-0.995,4.328l-0.748-0.115c-0.26-2.458-1.384-5.105-3.569-6.449c-1.707-1.048-2.062-0.472-2.932,0.947l-2.301,3.741l0.384,0.235c1.919,1.177,2.965,1.372,4.807-0.165l0.748,0.459l-3.406,5.541l-0.748-0.458c0.673-2.256-0.034-3.299-1.915-4.454l-0.424-0.259l-2.485,4.047c-0.685,1.114-1.028,1.932,0.333,2.769c2.379,1.462,5.333,1.427,7.901,0.602l0.354,0.585l-3.632,2.685l-11.564-7.107L174.361,35.272z"/>
<path fill="#0E0F17" d="M202.885,49.484c0.217-0.806,0.479-1.633,0.283-2.452c1.868,1.153,4.273,1.756,5.938-0.079c1.604-1.765,1.299-4.477-1.166-6.716l-7.169-6.509l-0.499,0.55c1.2,1.091,1.283,1.835,0.226,3.002l-7.296,8.032c-1.058,1.167-1.81,1.155-3.009,0.066l-0.5,0.55l5.966,5.417l0.501-0.55c-1.202-1.089-1.285-1.835-0.228-3l3.393-3.733c0.698,0.634,1.183,1.409,0.229,4.466l-0.907,2.976c-0.19,0.679-0.444,1.36-0.555,2.052l4.116,3.738l0.499-0.55c-1.342-1.402-0.97-2.949-0.558-4.644L202.885,49.484z M200.036,43.278l3.254-3.583c0.864-0.949,1.295-1.32,2.393-0.323c1.784,1.621,2.206,3.099,0.678,4.781c-1.606,1.767-3.256,1.912-6.007-0.586L200.036,43.278z"/>
<path fill="#0E0F17" d="M220.781,61.455l-0.753-0.499c0.753-1.975,1.221-5.171-0.166-6.975c-0.947-1.231-2.379-1.722-3.664-0.735c-1.462,1.127-0.674,2.963-0.151,4.38l0.469,1.314c0.974,2.743,1.604,5.668-1.037,7.7c-2.441,1.881-5.703,1.15-7.501-1.188c-0.59-0.766-1.006-1.639-1.336-2.55c-0.156-0.419-0.229-0.704-0.504-1.06c-0.235-0.303-0.395-0.436-1.792-1.151l3.229-4.33l0.766,0.519c-0.887,2.356-1.534,5.611,0.125,7.771c0.989,1.283,2.918,1.905,4.287,0.849c1.462-1.126,0.814-2.898,0.294-4.314c-1.062-2.963-2.459-6.63,0.575-8.964c2.265-1.744,5.149-1.095,6.839,1.1c0.563,0.733,0.863,1.381,1.152,2.238c0.103,0.32,0.193,0.621,0.4,0.888c0.342,0.446,1.164,0.776,1.713,0.865L220.781,61.455z"/>
<path fill="#0E0F17" d="M226.769,68.349c1.375-0.77,1.534-1.501,0.744-2.916l0.647-0.365l3.931,7.038l-0.649,0.363c-0.792-1.415-1.498-1.666-2.871-0.896l-9.476,5.288c-1.378,0.768-1.534,1.501-0.744,2.918l-0.649,0.363l-3.928-7.038l0.646-0.363c0.793,1.415,1.496,1.666,2.876,0.898L226.769,68.349z"/>
<path fill="#0E0F17" d="M239.619,90.144l-3.78,2.73l-0.505-0.698c1.196-1.608,2.465-4.232,1.743-6.268l-11.961,4.525c-1.474,0.558-1.735,1.261-1.162,2.776l-0.693,0.264l-2.858-7.536l0.696-0.264c0.573,1.516,1.238,1.868,2.713,1.308l11.957-4.529c-1.05-2.009-3.313-3.028-5.442-3.498l-0.084-0.858l4.601-0.564L239.619,90.144z"/>
<path fill="#0E0F17" d="M242.56,102.581l-0.731,0.136c-0.3-1.112-0.577-1.379-1.086-1.285c-0.4,0.075-0.636,0.279-0.909,0.536l-4.365,3.84l4.633,1.767c0.423,0.173,1.01,0.363,1.472,0.276c1.042-0.196,0.897-1.222,0.841-2.012l0.729-0.139l1.113,5.953l-0.729,0.136c-0.477-1.559-1.181-2.001-2.599-2.629l-0.572-0.236l-5.842-2.342l-4.938,0.923c-1.434,0.29-1.944,0.867-1.631,2.547l-0.728,0.138l-1.49-7.967l0.73-0.136c0.424,1.409,0.603,2.131,2.44,1.788l4.228-0.79l6.093-5.513c0.923-0.813,1.205-1.279,1.179-2.513l0.731-0.136L242.56,102.581z"/>
<path fill="none" stroke="#0E0F17" stroke-width="2.5" d="M124.964,253.82c68.52,0,126.285-62.878,126.285-130.423c0-67.549-56.183-122.147-124.701-122.147C58.031,1.25,2.298,60.252,1.265,124.947C0.187,192.483,56.446,253.82,124.964,253.82z"/>
<path fill="none" stroke="#0E0F17" stroke-width="1.929" d="M125.26,224.995c52.877,0,97.461-48.525,97.461-100.656c0-52.128-43.363-94.264-96.239-94.264c-52.879,0-95.888,45.534-96.687,95.465C28.961,177.66,72.381,224.995,125.26,224.995z"/>
<path fill="#0E0F17" d="M236.668,130.706c-1.086,0-1.988-0.901-1.988-1.989c0-1.086,0.902-1.989,1.988-1.989c1.088,0,1.989,0.903,1.989,1.989C238.658,129.805,237.756,130.706,236.668,130.706"/>
<path fill="#0E0F17" d="M16.186,130.706c-1.084,0-1.989-0.901-1.989-1.989c0-1.086,0.905-1.989,1.989-1.989c1.088,0,1.989,0.903,1.989,1.989C18.175,129.805,17.274,130.706,16.186,130.706"/>
<path fill="#0E0F17" d="M13.467,145.479c0.37,2.156,3.046,3.011,5.671,2.559c2.877-0.489,4.681-2.148,4.321-4.256c-0.356-2.089-2.902-2.964-5.675-2.491C14.923,141.779,13.117,143.438,13.467,145.479 M22.963,143.924c0.171,1.005-0.834,1.928-4.191,2.499c-1.768,0.306-4.515,0.63-4.806-1.076c-0.171-1.011,0.949-1.886,4.215-2.447C21.33,142.363,22.78,142.85,22.963,143.924"/>
<path fill="#0E0F17" d="M21.804,152.791l-0.605,0.146l-0.243-1.018l-4.402,1.05c-0.682,0.162-0.782,0.42-0.657,0.938L15.494,154l-0.669-2.817l0.396-0.097c0.119,0.493,0.205,0.744,1.233,0.501l4.185-0.999l-0.197-0.833l0.605-0.143l0.189,0.805c1.18-0.282,2.053-0.159,2.536-0.011c0.771,0.22,1.188,0.605,1.335,1.223c0.119,0.493-0.095,1.131-0.865,1.315c-0.501,0.116-0.929-0.074-1.012-0.422c-0.13-0.55,0.732-0.859,0.652-1.192c-0.039-0.167-0.292-0.147-0.485-0.093c-0.854,0.273-0.205,0.05-1.834,0.557L21.804,152.791z"/>
<path fill="#0E0F17" d="M28.404,163.085l-2.329,1.348l-0.239-0.289c0.788-0.757,1.685-1.961,1.414-2.83l-7.088,2.445c-0.873,0.3-1.07,0.62-0.847,1.265l-0.412,0.144l-1.108-3.216l0.411-0.143c0.223,0.647,0.575,0.776,1.448,0.477l7.088-2.445c-0.46-0.847-1.675-1.213-2.852-1.34l0.012-0.373l2.648-0.423L28.404,163.085z"/>
<path fill="#0E0F17" d="M25.927,168.044c0.71,0.258,1.305,0.485,1.575,1.112c0.273,0.666-0.223,1.549-1.163,1.942l-3.163,1.331c-0.714,0.313-0.662,0.63-0.555,0.896l-0.375,0.156l-1.011-2.398l0.376-0.159c0.135,0.313,0.282,0.531,1.241,0.157l2.773-1.167c0.173-0.07,0.778-0.462,0.557-0.989c-0.125-0.295-0.523-0.458-0.816-0.644l-3.344,1.406c-0.712,0.312-0.664,0.631-0.555,0.895l-0.376,0.159l-1.009-2.399l0.374-0.161c0.135,0.316,0.279,0.533,1.243,0.157l5.458-2.299c0.646-0.279,1.038-0.568,0.911-1.111l0.376-0.157l1.537,1.568L25.927,168.044z"/>
<path fill="#0E0F17" d="M28.197,178.383c1.679-0.803,2.578-2.257,1.989-3.441c-0.314-0.629-0.925-1.003-1.8-1.069c-0.778-0.057-1.643,0.129-2.413,0.511c-1.726,0.858-2.317,2.429-1.733,3.6c0.414,0.834,1.16,1.176,2.286,1.274l0.143-0.329c-0.629-0.087-1.243-0.338-1.484-0.82c-0.442-0.894,0.487-2.046,1.589-2.593L28.197,178.383z M27.272,175.243c0.772-0.372,2.063-0.737,2.427-0.008c0.334,0.674-0.376,1.23-1.534,1.804L27.272,175.243z"/>
<path fill="#0E0F17" d="M38.25,187.992l-0.386-0.263c0.842-1.032,1.574-2.436,0.989-3.349c-0.776-1.217-3.097-0.116-4.398,0.716c-2.692,1.72-3.189,3.391-2.618,4.289c0.507,0.793,1.597,0.805,2.687,0.696l-0.076,0.342c-1.695,0.315-3.067,0.131-3.807-1.029c-1.02-1.593,0.109-3.896,2.245-5.261c2.314-1.477,5.271-1.798,6.332-0.141c0.183,0.287,0.244,0.575,0.282,0.834c0.04,0.258,0.058,0.48,0.159,0.642c0.133,0.207,0.39,0.315,0.629,0.42l0.111,0.053L38.25,187.992z"/>
<path fill="#0E0F17" d="M35.157,195.821c0.875,1.185,2.667,1.08,4.293-0.119c1.178-0.868,2.087-2.481,1.165-3.736c-0.694-0.938-2.45-1.385-4.286-0.032C34.821,193.048,34.375,194.757,35.157,195.821 M40.148,192.201c0.569,0.772-0.925,1.969-1.701,2.544c-0.754,0.553-2.313,1.534-2.857,0.792c-0.557-0.758,0.796-1.944,1.583-2.521C37.962,192.435,39.585,191.438,40.148,192.201"/>
<path fill="#0E0F17" d="M40.536,200.42c-0.591,0.507-0.44,0.805-0.255,1.02l-0.312,0.268l-1.695-1.973l0.31-0.268c0.223,0.26,0.448,0.44,1.23-0.231l2.031-1.745c0.525-0.465,0.809-0.858,0.521-1.337l0.312-0.268l1.94,1.023l-0.949,0.82c0.712-0.026,1.494,0.018,1.902,0.49c0.36,0.419,0.262,1.054-0.044,1.672c0.716,0,1.488,0.008,1.898,0.484c0.549,0.642,0.197,1.671-0.822,2.548l-2.25,1.937c-0.591,0.509-0.44,0.802-0.258,1.02l-0.31,0.268l-1.697-1.976l0.312-0.265c0.221,0.257,0.448,0.44,1.229-0.233l2.063-1.771c0.638-0.549,0.69-1.02,0.455-1.293c-0.205-0.237-0.704-0.27-1.072-0.231l-2.63,2.262c-0.593,0.509-0.44,0.803-0.255,1.02l-0.312,0.266l-1.695-1.973l0.31-0.266c0.221,0.26,0.449,0.438,1.231-0.23l2.061-1.774c0.43-0.369,0.831-0.853,0.503-1.232c-0.215-0.253-0.736-0.332-1.118-0.289L40.536,200.42z"/>
<path fill="#0E0F17" d="M47.924,208.557c-0.545,0.557-0.368,0.84-0.163,1.037l-0.284,0.294l-1.87-1.813l0.284-0.293c0.246,0.239,0.485,0.396,1.203-0.34l1.866-1.927c0.48-0.511,0.728-0.927,0.396-1.377l0.288-0.296l2.027,0.845l-0.875,0.9c0.708-0.088,1.49-0.118,1.942,0.316c0.396,0.382,0.354,1.027,0.106,1.667c0.71-0.063,1.482-0.125,1.933,0.312c0.607,0.589,0.354,1.645-0.585,2.609l-2.065,2.134c-0.543,0.563-0.364,0.843-0.161,1.04l-0.284,0.296l-1.87-1.813l0.284-0.295c0.245,0.239,0.486,0.397,1.202-0.343l1.893-1.95c0.587-0.609,0.595-1.078,0.335-1.329c-0.225-0.217-0.726-0.205-1.085-0.137l-2.417,2.498c-0.541,0.557-0.362,0.838-0.161,1.037l-0.286,0.294l-1.866-1.813l0.284-0.293c0.245,0.237,0.484,0.397,1.205-0.34l1.888-1.953c0.396-0.41,0.752-0.927,0.39-1.276c-0.237-0.233-0.762-0.266-1.142-0.189L47.924,208.557z"/>
<path fill="#0E0F17" d="M55.469,217.346c1.134,0.941,2.847,0.406,4.136-1.148c0.933-1.128,1.426-2.915,0.225-3.907c-0.898-0.746-2.707-0.754-4.163,1.004C54.47,214.737,54.452,216.503,55.469,217.346 M59.438,212.63c0.74,0.611-0.424,2.136-1.038,2.876c-0.599,0.724-1.872,2.051-2.582,1.462c-0.724-0.6,0.306-2.079,0.927-2.831C57.37,213.385,58.707,212.025,59.438,212.63"/>
<path fill="#0E0F17" d="M61.751,220.446c-0.455,0.634-0.24,0.886-0.008,1.052l-0.241,0.332l-2.111-1.526l0.243-0.331c0.277,0.198,0.539,0.325,1.14-0.51l1.575-2.167c0.41-0.569,0.587-1.028,0.193-1.424l0.241-0.332l2.13,0.547l-0.712,0.981c0.664-0.104,1.456-0.277,1.958,0.082c0.692,0.503,0.487,1.674-0.008,2.357l-1.958,2.706c-0.448,0.634-0.241,0.883-0.012,1.052l-0.237,0.33l-2.112-1.526l0.241-0.334c0.278,0.205,0.539,0.328,1.145-0.507l1.299-1.795c0.764-1.059,0.807-1.501,0.374-1.816c-0.283-0.203-0.73-0.12-1.126,0.051L61.751,220.446z"/>
<path fill="#0E0F17" d="M70.971,220.59l-0.215,0.35c-0.15-0.08-0.43-0.097-0.575,0.141c-0.117,0.189-0.187,0.503-0.251,0.712l-0.746,2.594l1.884-1.629l0.07-0.297c0.159-0.569,0.248-0.983-0.081-1.338l0.213-0.348l2.122,1.303l-0.213,0.351c-0.187-0.085-0.392-0.146-0.571,0.145c-0.098,0.159-0.163,0.412-0.211,0.583l-0.802,2.715l1.711-1.551c0.187-0.177,0.414-0.365,0.553-0.591c0.264-0.422,0.183-0.767-0.101-0.941l0.215-0.352l1.53,0.943l-0.215,0.348c-0.5-0.091-1.001,0.36-1.456,0.778l-3.574,3.224l-0.535-0.328l1.065-3.742l-2.942,2.586l-0.519-0.317l1.372-4.983c0.132-0.448,0.301-0.978,0.018-1.261l0.213-0.35L70.971,220.59z"/>
<path fill="#0E0F17" d="M79.496,229.011c0.881-1.635,0.752-3.342-0.418-3.951c-0.623-0.325-1.341-0.266-2.085,0.195c-0.661,0.414-1.254,1.071-1.649,1.834c-0.891,1.709-0.444,3.322,0.718,3.929c0.826,0.429,1.626,0.27,2.594-0.313l-0.072-0.352c-0.565,0.3-1.207,0.46-1.685,0.209c-0.885-0.46-0.813-1.938-0.243-3.028L79.496,229.011z M76.899,227.021c0.404-0.756,1.233-1.812,1.958-1.436c0.666,0.348,0.417,1.214-0.181,2.362L76.899,227.021z"/>
<path fill="#0E0F17" d="M85.935,230.696c0.243-0.557,0.479-1.104,0.283-1.722c-0.159-0.488-0.698-0.842-1.08-1.011c-1.48-0.652-2.377-0.011-2.638,0.581c-0.181,0.412-0.039,0.818,0.239,0.943c0.342,0.148,0.738-0.21,1.023-0.573c0.324-0.404,0.624-0.807,1.05-0.62c0.609,0.27,0.161,1.185-0.095,1.766l-0.141,0.324c-1.012-0.201-3.041-0.549-3.787,1.143c-0.471,1.06-0.108,1.77,0.607,2.085c0.571,0.253,1.13,0.211,1.788-0.076c-0.014,0.526,0.175,0.942,0.539,1.105c0.366,0.161,0.897,0.021,1.287-0.3l0.034-0.241c-0.086,0.004-0.179,0.006-0.249-0.026c-0.306-0.135-0.121-0.5,0.004-0.806L85.935,230.696z M83.477,232.872c-0.342,0.237-0.806,0.438-1.126,0.296c-0.408-0.182-0.424-0.692-0.183-1.237c0.507-1.146,1.43-1.214,2.174-1.013L83.477,232.872z"/>
<path fill="#0E0F17" d="M92.096,227.137l-3.052,8.074c-0.273,0.726,0,0.917,0.265,1.018l-0.146,0.384l-2.443-0.927l0.147-0.382c0.317,0.122,0.613,0.179,0.977-0.786l2.095-5.543c0.237-0.659,0.302-1.144-0.183-1.426l0.145-0.38L92.096,227.137z"/>
<path fill="#0E0F17" d="M92.88,231.782l0.191-0.589c1.207,0.227,1.681-0.62,2.325-1.672l0.344,0.111l-0.716,2.195l1.255,0.41l-0.191,0.592l-1.277-0.416l-1.255,3.853c-0.153,0.463-0.177,0.941,0.284,1.09c0.243,0.08,0.581-0.07,0.843-0.224l0.119,0.343c-0.545,0.504-1.309,0.768-1.862,0.589c-0.967-0.318-0.935-1.446-0.706-2.162l1.281-3.913L92.88,231.782z"/>
<path fill="#0E0F17" d="M99.484,234.091c0.634-0.406,1.172-0.744,1.836-0.573c0.702,0.181,1.094,1.116,0.837,2.1l-0.859,3.322c-0.187,0.756,0.097,0.912,0.372,0.98l-0.103,0.398l-2.52-0.655l0.103-0.395c0.332,0.085,0.595,0.099,0.878-0.893l0.756-2.912c0.046-0.179,0.104-0.9-0.446-1.043c-0.312-0.081-0.682,0.137-1.008,0.257l-0.913,3.514c-0.185,0.758,0.098,0.912,0.374,0.983l-0.105,0.397l-2.52-0.653l0.103-0.398c0.332,0.087,0.593,0.101,0.881-0.889l1.486-5.737c0.167-0.68,0.175-1.168-0.333-1.394l0.103-0.397l2.18-0.268L99.484,234.091z"/>
<path fill="#0E0F17" d="M114.896,235.315l-0.38,0.123c-0.326-1.106-1.094-2.576-2.047-2.699c-0.649-0.084-1.238,0.33-1.361,1.273c-0.139,1.071,0.634,1.466,1.203,1.806l0.523,0.319c1.094,0.674,2.127,1.568,1.874,3.505c-0.231,1.792-1.468,2.896-2.701,2.737c-0.408-0.053-0.786-0.222-1.15-0.442c-0.169-0.101-0.276-0.182-0.467-0.205c-0.157-0.022-0.245-0.006-0.889,0.308l-0.219-3.103l0.39-0.123c0.392,1.317,1.118,2.888,2.256,3.036c0.68,0.089,1.464-0.49,1.594-1.496c0.141-1.075-0.571-1.5-1.142-1.84c-1.178-0.724-2.667-1.582-2.379-3.807c0.215-1.665,1.309-2.641,2.467-2.491c0.388,0.052,0.67,0.181,1.004,0.398c0.125,0.08,0.237,0.162,0.38,0.181c0.235,0.032,0.591-0.189,0.79-0.389L114.896,235.315z"/>
<path fill="#0E0F17" d="M119.219,236.424l-0.024,0.408c-0.211,0.012-0.418,0.133-0.436,0.475c-0.014,0.265,0.062,0.545,0.126,0.788l0.692,2.512l0.836-2.107c0.099-0.248,0.219-0.543,0.237-0.821c0.022-0.405-0.097-0.665-0.593-0.8l0.022-0.408l1.985,0.114l-0.024,0.408c-0.658,0.188-0.843,0.784-1.134,1.535l-1.675,4.321c-0.446,1.138-0.957,2.375-2.035,2.314c-0.4-0.022-0.796-0.376-0.764-0.983c0.028-0.484,0.354-0.839,0.696-0.818c0.444,0.025,0.559,0.708,0.804,0.72c0.324,0.018,0.742-0.976,0.856-1.325l-1.403-5.08c-0.133-0.494-0.241-0.925-0.686-0.989l0.024-0.408L119.219,236.424z"/>
<path fill="#0E0F17" d="M127.731,238.433l-0.367,0.188c-0.453-0.75-1.145-1.683-1.897-1.677c-0.34,0.004-0.728,0.298-0.726,0.824c0.008,0.809,0.959,0.877,1.369,0.966c0.857,0.19,1.848,0.604,1.86,2.068c0.007,0.729-0.209,1.362-0.555,1.776c-0.406,0.479-0.935,0.653-1.764,0.488c-0.189-0.038-0.372-0.129-0.563-0.127c-0.304,0.002-0.607,0.083-0.871,0.273l-0.495-2.28l0.342-0.15c0.509,0.883,1.23,1.838,2.095,1.834c0.344-0.004,0.74-0.245,0.734-0.801c-0.004-0.778-0.662-0.983-1.102-1.113c-0.865-0.24-1.973-0.602-1.985-2.12c-0.01-1.24,0.732-2.144,1.599-2.149c0.388-0.006,0.847,0.253,1.142,0.251c0.246-0.002,0.501-0.175,0.7-0.399L127.731,238.433z"/>
<path fill="#0E0F17" d="M129.827,237.047l-0.042-0.617c1.204-0.241,1.329-1.201,1.532-2.422l0.362-0.021l0.156,2.303l1.317-0.089l0.04,0.621l-1.335,0.087l0.271,4.044c0.034,0.486,0.185,0.938,0.669,0.907c0.256-0.017,0.516-0.286,0.698-0.523l0.237,0.275c-0.315,0.67-0.929,1.201-1.504,1.241c-1.016,0.064-1.412-0.991-1.462-1.741l-0.275-4.108L129.827,237.047z"/>
<path fill="#0E0F17" d="M139.769,238.649c-0.21-1.85-1.289-3.173-2.599-3.006c-0.697,0.09-1.253,0.545-1.599,1.349c-0.313,0.718-0.418,1.597-0.31,2.449c0.243,1.911,1.53,2.982,2.831,2.815c0.923-0.118,1.49-0.71,1.951-1.739l-0.262-0.247c-0.292,0.571-0.722,1.063-1.261,1.134c-0.991,0.125-1.773-1.128-1.929-2.349L139.769,238.649z M136.5,238.497c-0.101-0.853-0.021-2.194,0.789-2.297c0.744-0.095,1.037,0.758,1.2,2.041L136.5,238.497z"/>
<path fill="#0E0F17" d="M144.55,239.779c0.165,0.761,0.501,0.767,0.778,0.704l0.089,0.402l-2.544,0.559l-0.087-0.397c0.334-0.072,0.6-0.188,0.379-1.192l-0.577-2.618c-0.161-0.68-0.377-1.118-0.932-1.093l-0.088-0.397l1.821-1.227l0.27,1.227c0.315-0.638,0.724-1.31,1.335-1.446c0.539-0.116,1.054,0.27,1.448,0.831c0.34-0.63,0.714-1.308,1.329-1.44c0.824-0.183,1.563,0.613,1.854,1.929l0.642,2.897c0.164,0.761,0.498,0.769,0.777,0.708l0.087,0.4l-2.544,0.561l-0.088-0.4c0.335-0.074,0.603-0.187,0.38-1.192l-0.585-2.656c-0.182-0.824-0.573-1.088-0.924-1.011c-0.306,0.065-0.57,0.49-0.712,0.832l0.748,3.391c0.169,0.76,0.501,0.766,0.776,0.708l0.091,0.397l-2.544,0.562l-0.084-0.402c0.329-0.072,0.597-0.183,0.378-1.19l-0.588-2.654c-0.12-0.555-0.355-1.137-0.849-1.029c-0.325,0.072-0.643,0.492-0.786,0.851L144.55,239.779z"/>
<path fill="#0E0F17" d="M162.019,236.285c2.043-0.776,2.361-3.57,1.414-6.062c-1.036-2.723-3.015-4.175-5.011-3.416c-1.981,0.756-2.348,3.422-1.35,6.051C158.108,235.57,160.083,237.021,162.019,236.285 M158.659,227.271c0.951-0.361,2.052,0.444,3.26,3.63c0.64,1.677,1.488,4.304-0.126,4.921c-0.96,0.364-2.035-0.567-3.216-3.664C157.441,229.174,157.637,227.658,158.659,227.271"/>
<path fill="#0E0F17" d="M167.576,226.69l0.257,0.565l-0.948,0.435l1.886,4.116c0.292,0.635,0.563,0.686,1.048,0.462l0.171,0.374l-2.637,1.207l-0.169-0.374c0.457-0.207,0.688-0.344,0.248-1.304l-1.792-3.911l-0.778,0.358l-0.258-0.565l0.753-0.346c-0.507-1.104-0.554-1.982-0.501-2.485c0.063-0.796,0.359-1.287,0.941-1.549c0.458-0.209,1.124-0.122,1.453,0.596c0.216,0.471,0.108,0.923-0.219,1.076c-0.509,0.23-0.983-0.554-1.295-0.408c-0.155,0.07-0.085,0.315,0.006,0.49c0.433,0.788,0.089,0.191,0.9,1.691L167.576,226.69z"/>
<path fill="#0E0F17" d="M178.202,222.219l-1.406-2.359c-0.475-0.792-0.826-0.919-1.415-0.569l-0.224-0.376l2.922-1.741l0.224,0.374c-0.588,0.35-0.642,0.722-0.172,1.515l3.265,5.461c0.472,0.795,0.824,0.921,1.411,0.569l0.224,0.376l-2.92,1.743l-0.226-0.373c0.591-0.349,0.644-0.725,0.171-1.515l-1.536-2.572l-2.186,1.306l1.534,2.569c0.475,0.795,0.826,0.923,1.413,0.571l0.224,0.374l-2.922,1.745l-0.222-0.376c0.588-0.35,0.644-0.722,0.169-1.512l-3.26-5.466c-0.475-0.79-0.826-0.921-1.415-0.569l-0.224-0.372l2.924-1.743l0.222,0.374c-0.585,0.348-0.644,0.718-0.169,1.515l1.407,2.356L178.202,222.219z"/>
<path fill="#0E0F17" d="M180.459,215.227c0.368-0.252,0.941-0.036,1.285,0.467c0.35,0.511,0.336,1.111-0.032,1.363c-0.362,0.249-0.938,0.048-1.285-0.465C180.083,216.093,180.097,215.474,180.459,215.227 M185.028,224.097l-0.234-0.336c0.279-0.193,0.486-0.4-0.093-1.249l-1.515-2.208c-0.396-0.579-0.766-0.898-1.272-0.663l-0.231-0.34l1.23-1.818l3.043,4.442c0.45,0.638,0.752,0.526,0.985,0.364l0.233,0.338L185.028,224.097z"/>
<path fill="#0E0F17" d="M189.764,221.023c-0.207,0.391-0.448,0.919-0.032,1.469c0.733,0.967,2.015,0.06,2.489-0.3c1.766-1.34,1.752-2.538,1.096-3.4c-0.475-0.63-1.052-0.744-1.59-0.602c-0.548,0.153-1.978,1.072-2.259,1.154c-0.125,0.026-0.277,0.026-0.396-0.131c-0.112-0.146-0.048-0.346-0.014-0.471c0.207-0.072,0.398-0.169,0.565-0.295c0.794-0.604,1.355-1.907,0.384-3.189c-0.535-0.704-1.15-0.917-1.822-0.97c-0.012-0.11-0.02-0.201,0.055-0.257c0.106-0.081,0.433-0.032,0.611-0.167c0.251-0.191,0.266-0.632,0-0.978c-0.264-0.348-0.688-0.454-0.931-0.271c-0.408,0.312-0.366,1.136-0.182,1.741c-0.306,0.087-0.595,0.207-0.845,0.396c-0.798,0.604-1.318,1.959-0.354,3.231c0.575,0.758,1.281,0.951,1.975,0.889l-0.028,0.104c-0.145,0.438-0.386,0.987,0.038,1.545C188.917,221.038,189.316,221.016,189.764,221.023 M191.695,220.141c0.76-0.412,0.908-0.357,1.14-0.054c0.511,0.674-0.382,1.384-0.708,1.629c-0.38,0.289-1.077,0.72-1.629-0.006c-0.215-0.284-0.261-0.598-0.232-0.885L191.695,220.141z M189.366,217.997c-0.547,0.415-1.352-0.333-1.813-0.944c-0.465-0.607-0.833-1.521-0.318-1.911c0.529-0.401,1.374,0.38,1.822,0.97C189.527,216.732,189.88,217.607,189.366,217.997"/>
<path fill="#0E0F17" d="M192.47,211.591c0.028-0.759,0.059-1.39,0.577-1.836c0.552-0.471,1.545-0.26,2.204,0.511l2.234,2.604c0.513,0.586,0.803,0.443,1.018,0.256l0.27,0.312l-1.979,1.695l-0.266-0.31c0.26-0.226,0.42-0.431-0.229-1.23l-1.956-2.285c-0.123-0.141-0.678-0.601-1.112-0.229c-0.245,0.209-0.279,0.637-0.364,0.973l2.361,2.758c0.513,0.585,0.802,0.438,1.02,0.255l0.265,0.308l-1.977,1.695l-0.266-0.312c0.26-0.22,0.421-0.427-0.229-1.229l-3.857-4.497c-0.46-0.524-0.856-0.814-1.337-0.522l-0.266-0.312l1.027-1.942L192.47,211.591z"/>
<path fill="#0E0F17" d="M201.636,206.286c-1.271-1.357-2.93-1.774-3.881-0.856c-0.507,0.486-0.68,1.186-0.475,2.036c0.181,0.763,0.621,1.53,1.217,2.148c1.339,1.385,3.012,1.476,3.953,0.564c0.672-0.649,0.771-1.46,0.525-2.562l-0.356-0.042c0.106,0.633,0.055,1.286-0.336,1.665c-0.716,0.691-2.097,0.152-2.948-0.727L201.636,206.286z M198.927,208.116c-0.591-0.624-1.331-1.744-0.741-2.313c0.539-0.519,1.284-0.01,2.182,0.92L198.927,208.116z"/>
<path fill="#0E0F17" d="M205.992,204.528c0.55,0.475,0.809,0.39,1.088,0.093l0.3,0.279l-1.85,1.98l-0.298-0.279c0.29-0.315,0.396-0.541-0.338-1.223l-1.931-1.802c-0.511-0.477-0.943-0.71-1.386-0.372l-0.301-0.279l0.806-2.043l1.11,1.035c-0.199-0.638-0.537-1.707-0.143-2.132c0.261-0.279,0.828-0.112,1.194,0.229c0.338,0.318,0.463,0.782,0.229,1.032c-0.201,0.217-0.654,0.221-0.799,0.374c-0.15,0.16,0.059,0.849,0.165,1.1L205.992,204.528z"/>
<path fill="#0E0F17" d="M212.65,198.17c0.417-0.545,0.33-0.909-0.404-1.472l-5.051-3.867c-0.734-0.562-1.11-0.549-1.524-0.006l-0.344-0.266l3.482-4.551l2.321,1.027l-0.043,0.338c-1.297-0.193-2.674-0.002-3.334,0.856c-0.513,0.674-0.197,0.915,0.577,1.509l2.043,1.564l0.117-0.151c0.579-0.754,0.653-1.225-0.209-2.288l0.225-0.298l3.03,2.32l-0.225,0.294c-1.219-0.605-1.75-0.406-2.318,0.336l-0.127,0.165l2.212,1.691c0.607,0.466,1.052,0.731,1.462,0.198c0.714-0.937,0.621-2.334,0.12-3.655l0.3-0.089l1.519,2.058l-3.485,4.549L212.65,198.17z"/>
<path fill="#0E0F17" d="M215.425,185.216c-0.551,0.088-1.072,0.297-1.344,0.703c-0.488,0.734-0.374,2.319,1.693,3.696c1.505,1.004,3.113,1.133,3.863,0.01c0.283-0.428,0.321-0.963,0.091-1.538l0.714,0.477c0.19-0.573,0.504-1.094,0.951-1.858l-0.338-0.225c-0.391,0.438-0.831,0.289-1.424-0.104l-6.861-4.577l-0.563,2.147l0.342,0.229c0.37-0.463,0.845-0.317,1.473,0.101L215.425,185.216z M219.103,187.667c0.203,0.433,0.346,0.814,0.113,1.162c-0.481,0.72-2.06-0.004-2.828-0.517c-1.637-1.092-1.659-1.94-1.468-2.225c0.181-0.268,0.702-0.458,1.088-0.486L219.103,187.667z"/>
<path fill="#0E0F17" d="M223.634,181.172c0.237,0.718,0.394,1.447,0.056,2.033c-0.458,0.788-1.394,0.693-2.343,0.143l-2.053-1.192c-0.607-0.351-1.08-0.481-1.436-0.051l-0.354-0.209l0.33-2.168l4.179,2.426c0.444,0.257,0.873,0.198,1.073-0.147c0.189-0.317,0.039-0.824-0.104-1.212l-2.165-1.259c-0.609-0.351-1.08-0.483-1.438-0.055l-0.352-0.205l0.328-2.17l4.327,2.512c0.605,0.35,1.08,0.48,1.418,0.03l0.352,0.207l-1.031,1.771L223.634,181.172z"/>
<path fill="#0E0F17" d="M227.183,172.898c0.742,0.959,0.995,2.011,0.563,2.87c-0.565,1.12-2.24,1.339-3.797,0.555c-1.782-0.896-2.629-2.645-1.991-3.909c0.284-0.559,1.114-1.418,2.128-0.907c0.471,0.239,0.653,0.702,0.484,1.032c-0.235,0.468-0.686,0.306-1.23,0.126c-0.446-0.143-0.863-0.139-1.027,0.193c-0.349,0.688,0.91,1.502,1.631,1.866c1.156,0.581,2.888,1.104,3.4,0.086c0.281-0.563-0.103-1.202-0.491-1.813L227.183,172.898z"/>
<path fill="#0E0F17" d="M227.362,165.864c-0.555-0.243-1.102-0.471-1.721-0.273c-0.489,0.161-0.839,0.702-1.006,1.086c-0.646,1.48,0.002,2.375,0.596,2.633c0.41,0.179,0.818,0.036,0.938-0.244c0.149-0.337-0.211-0.733-0.577-1.017c-0.406-0.324-0.809-0.624-0.623-1.05c0.268-0.611,1.183-0.171,1.766,0.082l0.325,0.143c-0.199,1.014-0.534,3.045,1.163,3.78c1.063,0.465,1.768,0.099,2.079-0.615c0.251-0.575,0.205-1.134-0.085-1.787c0.529,0.012,0.941-0.182,1.103-0.547c0.158-0.366,0.016-0.897-0.306-1.283l-0.243-0.034c0.006,0.082,0.008,0.179-0.022,0.249c-0.133,0.304-0.499,0.125-0.809,0L227.362,165.864z M229.552,168.31c0.239,0.344,0.442,0.805,0.302,1.126c-0.18,0.41-0.69,0.427-1.235,0.189c-1.148-0.501-1.223-1.424-1.027-2.17L229.552,168.31z"/>
<path fill="#0E0F17" d="M226.875,163.182l-0.579-0.221c0.281-1.192-0.541-1.707-1.564-2.399l0.124-0.338l2.164,0.818l0.469-1.234l0.579,0.219l-0.473,1.253l3.789,1.43c0.458,0.174,0.931,0.224,1.102-0.229c0.093-0.241-0.044-0.588-0.185-0.855l0.35-0.1c0.479,0.564,0.706,1.343,0.503,1.886c-0.36,0.951-1.488,0.871-2.188,0.604l-3.854-1.454L226.875,163.182z"/>
<path fill="#0E0F17" d="M225.106,155.987c0.143-0.425,0.726-0.602,1.303-0.411c0.592,0.197,0.943,0.685,0.805,1.108c-0.139,0.414-0.716,0.604-1.306,0.408C225.333,156.904,224.969,156.401,225.106,155.987 M234.111,160.284l-0.389-0.131c0.107-0.325,0.147-0.611-0.828-0.933l-2.544-0.845c-0.665-0.22-1.156-0.254-1.415,0.241l-0.389-0.129l-0.123-2.191l5.112,1.695c0.744,0.232,0.919-0.039,1.008-0.311l0.388,0.127L234.111,160.284z"/>
<path fill="#0E0F17" d="M236.45,153.229c0.39-1.421-0.803-2.763-2.747-3.3c-1.414-0.388-3.244-0.103-3.658,1.4c-0.308,1.128,0.427,2.778,2.629,3.384C234.481,155.211,236.097,154.503,236.45,153.229 M230.519,151.549c0.254-0.923,2.117-0.488,3.049-0.235c0.904,0.247,2.638,0.864,2.393,1.752c-0.249,0.908-2.022,0.579-2.962,0.319C232.055,153.125,230.268,152.466,230.519,151.549"/>
<path fill="#0E0F17" d="M236.693,146.224c0.764,0.157,0.904-0.143,0.961-0.422l0.402,0.08l-0.522,2.552l-0.402-0.082c0.068-0.336,0.074-0.626-0.934-0.835l-2.624-0.536c-0.686-0.14-1.179-0.113-1.378,0.405l-0.401-0.08l-0.381-2.164l1.193,0.246c-0.37-0.563-0.855-1.217-0.732-1.82c0.173-0.837,1.325-1.134,2.151-0.965l3.272,0.669c0.764,0.149,0.904-0.143,0.961-0.422l0.4,0.082l-0.523,2.553l-0.399-0.083c0.068-0.336,0.074-0.627-0.936-0.832l-2.172-0.447c-1.279-0.261-1.701-0.114-1.806,0.406c-0.072,0.345,0.189,0.718,0.505,1.006L236.693,146.224z"/>
<path fill="#0E0F17" d="M58.749,182.666l1.056,1.287c0.728,0.891,1.673,0.661,2.272,0.166c0.7-0.57,0.842-1.449,0.219-2.208l-1.51-1.84l-4.31,3.533l0.453,0.552L58.749,182.666z M60.742,181.029l0.923,1.126c0.372,0.452,0.487,0.951-0.058,1.397c-0.583,0.48-1.05,0.3-1.456-0.195l-0.905-1.102L60.742,181.029z"/>
<polygon fill="#0E0F17" points="64.949,192.998 62.204,190.215 66.171,186.3 68.88,189.044 68.405,189.513 66.193,187.278 64.981,188.479 67.018,190.54 66.543,191.011 64.506,188.947 63.181,190.255 65.421,192.529 "/>
<path fill="#0E0F17" d="M70.617,194.916l1.323,1.112c0.662,0.547,0.386,1.018,0.091,1.369c-0.133,0.161-0.658,0.822-0.801,1.15l0.674,0.565l0.083-0.097c-0.086-0.241-0.04-0.356,0.155-0.6l0.611-0.802c0.475-0.616,0.334-0.917,0.185-1.213c0.396,0.059,0.895,0.08,1.424-0.551c0.758-0.907,0.292-1.708-0.376-2.265l-1.876-1.57l-3.577,4.275l0.551,0.458L70.617,194.916z M72.244,192.968l1.37,1.144c0.271,0.228,0.686,0.666,0.128,1.325c-0.525,0.636-1.038,0.387-1.442,0.051l-1.273-1.065L72.244,192.968z"/>
<path fill="#0E0F17" d="M80.517,200.462c0.458-0.729,0.05-1.339-0.442-1.673c-0.376-0.255-1.074-0.575-1.552,0.123c-0.268,0.394-0.093,0.699,0.121,0.937l1.043,1.158c0.471,0.525,0.651,1.175,0.153,1.907c-0.746,1.09-1.915,0.731-2.66,0.221c-0.813-0.551-0.954-1.023-1.022-1.344c-0.132-0.604,0.059-1.039,0.35-1.47l0.557,0.378c-0.571,0.833-0.091,1.519,0.47,1.898c0.427,0.294,1.221,0.668,1.673,0.006c0.33-0.479,0.221-0.78-0.374-1.449l-0.748-0.829c-0.237-0.263-0.738-0.917-0.191-1.719c0.488-0.72,1.416-1.118,2.473-0.398c1.53,1.046,1.026,2.113,0.704,2.634L80.517,200.462z"/>
<polygon fill="#0E0F17" points="86.523,208.576 83.093,206.698 85.773,201.81 89.158,203.666 88.836,204.247 86.079,202.738 85.261,204.236 87.803,205.63 87.479,206.216 84.939,204.822 84.04,206.455 86.843,207.991 "/>
<polygon fill="#0E0F17" points="96.15,206.863 96.89,207.177 92.933,211.555 92.232,211.255 92.635,205.367 93.367,205.681 92.9,210.644 92.915,210.649 "/>
<polygon fill="#0E0F17" points="102.814,215.033 99.078,213.879 100.725,208.557 104.407,209.692 104.211,210.328 101.211,209.404 100.707,211.035 103.476,211.891 103.279,212.529 100.51,211.675 99.96,213.455 103.011,214.396 "/>
<path fill="#0E0F17" d="M108.73,214.014l1.702,0.332c0.838,0.163,0.822,0.708,0.736,1.156c-0.042,0.205-0.181,1.039-0.145,1.396l0.861,0.167l0.026-0.121c-0.191-0.171-0.208-0.291-0.157-0.599l0.153-1c0.119-0.768-0.153-0.961-0.424-1.15c0.372-0.141,0.821-0.361,0.979-1.17c0.225-1.158-0.569-1.635-1.424-1.802l-2.401-0.471l-1.068,5.472l0.704,0.139L108.73,214.014z M109.215,211.521l1.751,0.342c0.348,0.07,0.919,0.253,0.756,1.098c-0.157,0.809-0.728,0.841-1.241,0.74l-1.631-0.317L109.215,211.521z"/>
<path fill="#0E0F17" d="M119.646,216.32l0.384,1.663l0.778,0.064l-1.444-5.715l-0.806-0.068l-2.454,5.389l0.736,0.061l0.688-1.572L119.646,216.32z M117.803,215.496l1.052-2.373h0.014l0.575,2.512L117.803,215.496z"/>
<polygon fill="#0E0F17" points="128.845,212.504 129.54,212.485 129.688,218.056 128.885,218.078 126.072,213.647 126.056,213.647 126.179,218.152 125.485,218.168 125.336,212.596 126.185,212.574 128.952,217.002 128.966,217.002 "/>
<polygon fill="#0E0F17" points="133.47,212.168 137.732,211.591 137.822,212.252 136.044,212.491 136.704,217.354 135.995,217.45 135.336,212.59 133.559,212.831 "/>
<rect x="139.927" y="213.072" transform="matrix(-0.2186 -0.9758 0.9758 -0.2186 -34.3637 399.3429)" fill="#0E0F17" width="5.576" height="0.717"/>
<path fill="#0E0F17" d="M150.879,212.383l0.991,1.39l0.746-0.235l-3.512-4.735l-0.773,0.243l-0.214,5.918l0.702-0.226l0.036-1.715L150.879,212.383z M148.866,212.32l0.068-2.592l0.013-0.008l1.487,2.104L148.866,212.32z"/>
<polygon fill="#0E0F17" points="162.621,203.061 163.336,202.694 164.155,208.538 163.479,208.882 159.22,204.8 159.928,204.438 163.439,207.977 163.452,207.971 "/>
<rect x="168.332" y="199.983" transform="matrix(0.8523 -0.5231 0.5231 0.8523 -81.1493 118.1985)" fill="#0E0F17" width="0.715" height="5.574"/>
<polygon fill="#0E0F17" points="174.194,195.638 174.754,195.229 178.048,199.727 177.397,200.203 172.567,198.16 172.554,198.168 175.215,201.8 174.654,202.212 171.362,197.713 172.045,197.213 176.842,199.28 176.854,199.273 "/>
<path fill="#0E0F17" d="M182.09,191.227c-0.798-0.6-1.498-0.22-1.876,0.12c-0.716,0.638-0.799,1.709,0.177,2.804c0.871,0.98,1.874,1.441,2.855,0.568c0.344-0.312,0.79-1.018,0.11-2.147l0.517-0.462c1.179,1.77,0.03,2.915-0.267,3.181c-0.896,0.801-2.325,0.972-3.753-0.631c-1.138-1.281-1.232-2.787-0.084-3.815c1.02-0.904,2.142-0.707,2.837-0.08L182.09,191.227z"/>
<rect x="186.491" y="185.318" transform="matrix(0.6968 -0.7172 0.7172 0.6968 -78.2684 191.0451)" fill="#0E0F17" width="0.718" height="5.574"/>
<polygon fill="#0E0F17" points="187.904,182.879 190.661,179.581 191.173,180.012 190.021,181.385 193.786,184.534 193.328,185.083 189.563,181.934 188.415,183.312 "/>
<polygon fill="#0E0F17" points="51.661,93.946 51.359,94.599 46.292,92.286 46.587,91.638 "/>
<polygon fill="#0E0F17" points="50.601,83.904 50.94,83.298 55.799,86.034 55.405,86.733 50.162,86.871 50.152,86.885 54.078,89.093 53.738,89.696 48.879,86.963 49.295,86.224 54.518,86.124 54.524,86.111 "/>
<path fill="#0E0F17" d="M57.14,76.964c-0.913-0.4-1.506,0.132-1.8,0.545c-0.555,0.788-0.388,1.847,0.814,2.692c1.07,0.758,2.15,0.976,2.906-0.097c0.266-0.381,0.541-1.174-0.38-2.12l0.396-0.568c1.555,1.454,0.696,2.833,0.467,3.161c-0.692,0.984-2.043,1.472-3.797,0.24c-1.403-0.988-1.838-2.431-0.953-3.692c0.786-1.116,1.924-1.18,2.745-0.729L57.14,76.964z"/>
<path fill="#0E0F17" d="M64.46,69.762c-0.909-0.791-2.61-1.468-3.909,0.022c-1.295,1.493-0.384,3.084,0.523,3.874c0.909,0.79,2.612,1.468,3.909-0.023C66.278,72.14,65.371,70.55,64.46,69.762 M63.978,70.318c0.989,0.861,1.254,2.01,0.5,2.878c-0.754,0.869-1.931,0.767-2.922-0.094c-0.989-0.861-1.255-2.01-0.5-2.878C61.81,69.354,62.984,69.457,63.978,70.318"/>
<path fill="#0E0F17" d="M68.443,66.283l1.265-1.187c0.625-0.584,1.056-0.255,1.369,0.078c0.143,0.155,0.74,0.756,1.048,0.936l0.64-0.602l-0.084-0.09c-0.253,0.055-0.358-0.004-0.575-0.228l-0.724-0.704c-0.551-0.548-0.869-0.442-1.18-0.332c0.104-0.383,0.187-0.876-0.376-1.478c-0.809-0.86-1.659-0.497-2.294,0.099l-1.786,1.674l3.813,4.067l0.525-0.491L68.443,66.283z M66.706,64.432l1.303-1.222c0.259-0.243,0.742-0.599,1.333,0.029c0.561,0.6,0.255,1.079-0.128,1.437l-1.208,1.137L66.706,64.432z"/>
<path fill="#0E0F17" d="M75.297,60.363l1.323-1.012c0.915-0.7,0.714-1.652,0.239-2.27c-0.545-0.715-1.418-0.886-2.198-0.289l-1.892,1.446l3.388,4.427l0.569-0.435L75.297,60.363z M73.73,58.317l1.152-0.884c0.469-0.358,0.969-0.458,1.4,0.104c0.457,0.599,0.263,1.06-0.246,1.449l-1.132,0.868L73.73,58.317z"/>
<path fill="#0E0F17" d="M85.496,52.914c-0.627-1.026-2.049-2.183-3.732-1.149c-1.685,1.036-1.295,2.828-0.664,3.853c0.627,1.025,2.051,2.185,3.736,1.149C86.52,55.729,86.127,53.939,85.496,52.914 M84.869,53.301c0.688,1.118,0.597,2.293-0.384,2.895c-0.979,0.603-2.071,0.153-2.757-0.965c-0.686-1.116-0.595-2.294,0.386-2.897C83.093,51.731,84.181,52.183,84.869,53.301"/>
<path fill="#0E0F17" d="M90.353,50.804l1.564-0.745c0.772-0.367,1.084,0.078,1.279,0.494c0.093,0.188,0.473,0.943,0.714,1.207l0.794-0.376L94.65,51.27c-0.257-0.025-0.34-0.111-0.481-0.391l-0.472-0.892c-0.36-0.688-0.696-0.684-1.024-0.672c0.217-0.336,0.447-0.781,0.095-1.522c-0.507-1.067-1.43-0.98-2.216-0.605l-2.212,1.05l2.393,5.035l0.647-0.309L90.353,50.804z M89.265,48.511l1.608-0.767c0.318-0.152,0.889-0.346,1.261,0.435c0.352,0.743-0.086,1.106-0.559,1.33l-1.498,0.713L89.265,48.511z"/>
<path fill="#0E0F17" d="M100.832,47.292l1.036,1.354l0.736-0.26l-3.664-4.619l-0.762,0.271l-0.026,5.92l0.696-0.246l-0.018-1.715L100.832,47.292z M98.816,47.296L98.8,44.699l0.012-0.004l1.552,2.053L98.816,47.296z"/>
<polygon fill="#0E0F17" points="104.704,41.971 108.881,40.959 109.04,41.608 107.294,42.028 108.451,46.797 107.753,46.966 106.601,42.197 104.859,42.62 "/>
<polygon fill="#0E0F17" points="118.087,45.113 114.214,45.636 113.468,40.113 117.291,39.596 117.377,40.26 114.266,40.679 114.496,42.372 117.365,41.983 117.456,42.646 114.582,43.033 114.833,44.88 117.999,44.454 "/>
<path fill="#0E0F17" d="M122.39,44.771l2.116-0.054c1.739-0.045,2.214-1.672,2.182-2.922c-0.04-1.608-0.917-2.688-2.296-2.652l-2.146,0.056L122.39,44.771z M122.978,39.825l1.335-0.035c0.971-0.025,1.603,0.667,1.639,2.071c0.036,1.405-0.549,2.187-1.478,2.212l-1.388,0.036L122.978,39.825z"/>
<path fill="#0E0F17" d="M140.891,45.927l0.496-3.256c0.024-0.161,0.143-0.856,0.226-1.372l-0.017-0.002l-2.18,4.405l-0.699-0.107l-0.769-4.845l-0.016-0.002c-0.077,0.507-0.167,1.207-0.191,1.367l-0.501,3.254l-0.686-0.104l0.845-5.51l1.014,0.154l0.784,4.887l0.014,0.002l2.198-4.431l1.005,0.155l-0.838,5.508L140.891,45.927z"/>
<path fill="#0E0F17" d="M149.268,46.179l0.089,1.701l0.758,0.202l-0.422-5.879l-0.784-0.21l-3.356,4.875l0.712,0.19l0.951-1.428L149.268,46.179z M147.601,45.045l1.452-2.154l0.014,0.004l0.121,2.572L147.601,45.045z"/>
<polygon fill="#0E0F17" points="156.131,50.161 155.463,49.907 156.254,47.809 155.564,43.987 156.34,44.279 156.819,47.325 159.186,45.356 159.972,45.652 156.925,48.062 "/>
<path fill="#0E0F17" d="M168.515,56.13l-0.604-0.348l1.942-3.354l-1.048-0.607l0.277-0.469c0.759,0.367,1.099,0.467,1.728-0.199l0.44,0.255L168.515,56.13z"/>
<path fill="#0E0F17" d="M174.992,56.077c1.029-1.45,2.136-0.884,2.594-0.558c0.732,0.521,0.97,1.439,0.381,2.27c-0.569,0.796-1.306,0.778-2.188,0.684l-0.619-0.059c-0.816-0.076-1.188,0.183-1.333,0.338l2.296,1.631l-0.372,0.525l-2.894-2.055c0.686-0.902,1.434-1.114,2.246-1.06l0.801,0.055c0.647,0.047,1.102,0.095,1.517-0.485c0.251-0.355,0.352-0.96-0.266-1.399c-0.803-0.568-1.392,0.192-1.631,0.488L174.992,56.077z"/>
<path fill="#0E0F17" d="M179.804,63.064l0.587,0.492l-0.488,0.585c-0.678,0.809-1.233,0.503-1.361,0.43l0.229-0.276c0.26,0.175,0.569-0.067,0.803-0.35l-0.298-0.251L179.804,63.064z"/>
<path fill="#0E0F17" d="M188.65,72.833l-0.463-0.519l2.9-2.568l-0.803-0.906l0.406-0.361c0.604,0.587,0.896,0.792,1.705,0.354l0.336,0.381L188.65,72.833z"/>
<path fill="#0E0F17" d="M195.553,76.434c-0.275-0.383-0.275-0.92,0.145-1.227c0.282-0.206,0.789-0.367,1.199,0.191c0.448,0.614,0.181,1.065-0.091,1.261C196.408,76.954,195.887,76.886,195.553,76.434 M197.222,77.19c0.515-0.377,0.871-1.195,0.191-2.123c-0.73-1-1.679-0.719-2.138-0.385c-0.412,0.303-0.561,0.731-0.446,1.193c-0.509-0.303-1.05-0.318-1.589,0.077c-0.213,0.155-0.691,0.502-0.733,1.192c-0.03,0.535,0.229,1.021,0.399,1.254c0.723,0.988,1.718,0.919,2.424,0.4c0.333-0.243,0.733-0.719,0.572-1.469C196.138,77.443,196.591,77.652,197.222,77.19 M195.086,76.787c0.347,0.478,0.368,1.062-0.225,1.497c-0.689,0.504-1.171,0.152-1.446-0.229c-0.532-0.727-0.129-1.279,0.222-1.536C194.043,76.222,194.653,76.2,195.086,76.787"/>
<path fill="#0E0F17" d="M199.917,83.033c-0.244-0.409-0.193-0.943,0.257-1.21c0.298-0.179,0.818-0.29,1.173,0.305c0.388,0.654,0.08,1.078-0.205,1.249C200.713,83.629,200.201,83.513,199.917,83.033 M201.501,83.941c0.549-0.326,0.979-1.104,0.393-2.092c-0.636-1.067-1.604-0.875-2.094-0.585c-0.437,0.262-0.625,0.674-0.555,1.146c-0.479-0.35-1.014-0.418-1.591-0.077c-0.226,0.134-0.732,0.437-0.843,1.118c-0.082,0.53,0.131,1.041,0.279,1.287c0.624,1.053,1.623,1.077,2.377,0.628c0.353-0.21,0.799-0.646,0.708-1.409C200.398,84.091,200.83,84.342,201.501,83.941 M199.413,83.34c0.3,0.507,0.27,1.093-0.366,1.47c-0.734,0.435-1.177,0.039-1.416-0.367c-0.46-0.774-0.006-1.285,0.366-1.507C198.429,82.678,199.039,82.713,199.413,83.34"/>
<path fill="#0E0F17" d="M203.631,90.026c-0.201-0.428-0.101-0.958,0.368-1.178c0.321-0.15,0.851-0.21,1.144,0.416c0.324,0.688-0.023,1.079-0.325,1.221C204.37,90.696,203.871,90.532,203.631,90.026 M205.125,91.082c0.575-0.271,1.078-1.004,0.591-2.044c-0.53-1.122-1.514-1.026-2.026-0.785c-0.467,0.218-0.692,0.612-0.666,1.088c-0.442-0.396-0.972-0.513-1.574-0.229c-0.237,0.114-0.772,0.363-0.947,1.034c-0.131,0.52,0.03,1.045,0.154,1.306c0.52,1.108,1.513,1.227,2.305,0.854c0.374-0.175,0.858-0.568,0.841-1.334C204.011,91.127,204.417,91.417,205.125,91.082 M203.1,90.285c0.252,0.531,0.163,1.112-0.503,1.425c-0.773,0.364-1.178-0.072-1.377-0.5c-0.382-0.813,0.12-1.279,0.511-1.464C202.185,89.531,202.789,89.622,203.1,90.285"/>
<path fill="none" stroke="#0E0F17" stroke-width="0.99" stroke-linecap="round" d="M76.61,101.501c0.48-0.481,22.098-15.178,22.609-15.563 M71.548,101.756c0.483-0.482,24.276-17.39,24.787-17.773"/>
<path fill="none" stroke="#0E0F17" stroke-width="1.237" stroke-linecap="round" d="M97.294,79.789c4.237,2.437,26.263,15.244,35.742,20.623 M98.45,80.238c1.199,0.225,73.881,14.808,76.019,14.985 M95.918,79.355c0.983-0.13,76.091,15.592,78.263,15.776 M95.796,79.485c-0.513,0.383-33.371,24.16-33.854,24.642"/>
<path fill="none" stroke="#0E0F17" stroke-width="0.99" stroke-linecap="round" d="M131.628,100.155c1.536,0,58.411,3.717,59.947,3.717 M62.326,104.385c1.408,0,69.171-3.717,70.583-3.717 M71.422,101.823c2.58,0,49.372-3.301,50.918-3.301 M96.327,83.874c4.231,2.433,16.502,8.982,25.983,14.362"/>
<path fill="none" stroke="#0E0F17" stroke-width="1.237" stroke-linecap="round" d="M174.469,95.153c0.245,0.03,17.235,8.463,18.902,9.231"/>
<path fill="none" stroke="#0E0F17" stroke-width="0.99" d="M64.12,109.377c1.41,0,65.449-1.806,68.277-2.046 M63.609,106.818c1.408,0,65.447-3.091,68.275-3.332"/>
<path fill="none" stroke="#0E0F17" stroke-width="2.97" stroke-miterlimit="1" d="M64.247,112.71c1.412,0,65.196-0.658,68.02-0.896"/>
<path fill="none" stroke="#0E0F17" stroke-width="0.99" d="M132.01,107.331c1.408,0.082,57.016,0.873,59.823,1.281 M132.847,103.855c1.405,0.084,56.579,1.779,59.389,2.185"/>
<path fill="none" stroke="#0E0F17" stroke-width="2.97" d="M131.116,111.845c3.135,0.032,57.971,0.778,60.333,1.122"/>
<line fill="none" stroke="#0E0F17" stroke-width="1.237" x1="64.44" y1="108.482" x2="64.44" y2="140.569"/>
<line fill="none" stroke="#0E0F17" stroke-width="1.237" stroke-linecap="round" x1="191.705" y1="109.17" x2="191.705" y2="132.309"/>
<path fill="none" stroke="#0E0F17" stroke-width="0.99" stroke-linecap="round" d="M193.372,104.424c-0.095,0.13-1.313,4.64-1.54,4.954"/>
<line fill="none" stroke="#0E0F17" stroke-width="1.485" stroke-linecap="round" stroke-miterlimit="1" x1="68.092" y1="114.439" x2="68.092" y2="137.688"/>
<path fill="none" stroke="#0E0F17" stroke-width="1.485" stroke-linecap="round" d="M80.195,114.848v26.107 M76.162,114.104v25.697 M72.127,114.345v24.497"/>
<line fill="none" stroke="#0E0F17" stroke-width="1.535" stroke-linecap="round" x1="84.615" y1="114.834" x2="84.615" y2="141.914"/>
<line fill="none" stroke="#0E0F17" stroke-width="1.559" stroke-linecap="round" x1="89.037" y1="114.925" x2="89.037" y2="142.685"/>
<line fill="none" stroke="#0E0F17" stroke-width="1.609" stroke-linecap="round" x1="93.453" y1="114.779" x2="93.453" y2="143.455"/>
<line fill="none" stroke="#0E0F17" stroke-width="1.683" stroke-linecap="round" x1="98.45" y1="114.705" x2="98.45" y2="144.221"/>
<line fill="none" stroke="#0E0F17" stroke-width="1.708" stroke-linecap="round" x1="104.022" y1="115.053" x2="104.022" y2="145.719"/>
<line fill="none" stroke="#0E0F17" stroke-width="1.732" stroke-linecap="round" x1="109.211" y1="114.862" x2="109.211" y2="146.685"/>
<line fill="none" stroke="#0E0F17" stroke-width="1.856" stroke-linecap="round" x1="115.167" y1="114.477" x2="115.167" y2="148.221"/>
<path fill="none" stroke="#0E0F17" stroke-width="2.104" stroke-linecap="round" d="M129,113.514v35.666 M121.701,114.285v35.666"/>
<line fill="none" stroke="#0E0F17" stroke-width="1.856" stroke-linecap="round" x1="135.342" y1="113.323" x2="135.342" y2="147.068"/>
<line fill="none" stroke="#0E0F17" stroke-width="1.732" stroke-linecap="round" x1="141.299" y1="113.514" x2="141.299" y2="145.339"/>
<line fill="none" stroke="#0E0F17" stroke-width="1.708" stroke-linecap="round" x1="146.487" y1="113.323" x2="146.487" y2="143.992"/>
<line fill="none" stroke="#0E0F17" stroke-width="1.683" stroke-linecap="round" x1="151.292" y1="112.747" x2="151.292" y2="142.265"/>
<line fill="none" stroke="#0E0F17" stroke-width="1.609" stroke-linecap="round" x1="156.285" y1="114.32" x2="156.285" y2="140.691"/>
<line fill="none" stroke="#0E0F17" stroke-width="1.559" stroke-linecap="round" x1="161.282" y1="114.009" x2="161.282" y2="139.079"/>
<line fill="none" stroke="#0E0F17" stroke-width="1.535" stroke-linecap="round" x1="165.892" y1="113.966" x2="165.892" y2="137.971"/>
<path fill="none" stroke="#0E0F17" stroke-width="1.485" stroke-linecap="round" d="M187.991,113.502v17.246 M183.957,114.847v17.246 M179.92,114.653v18.783 M175.694,114.464v20.318 M170.889,114.26v21.881"/>
<path fill="none" stroke="#0E0F17" stroke-width="1.237" stroke-linecap="round" d="M191.705,132.309c-1.921,0.384-64.816,22.868-66.738,23.25 M64.056,140.188c0.961,0,59.949,14.989,60.911,15.371"/>
<line fill="none" stroke="#0E0F17" stroke-width="0.99" stroke-linecap="round" x1="63.983" y1="139.707" x2="58.218" y2="146.24"/>
<path fill="none" stroke="#0E0F17" stroke-width="1.237" stroke-linecap="round" d="M61.053,144.465c0.961,0,62.57,18.971,63.527,19.353 M62.326,142.494c0.961,0,62.065,17.099,63.026,17.484"/>
<path fill="none" stroke="#0E0F17" stroke-width="1.485" stroke-linecap="round" d="M58.713,146.216c0.963,0,65.773,21.642,66.732,22.023"/>
<path fill="none" stroke="#0E0F17" stroke-width="1.237" stroke-linecap="round" d="M194.14,136.344c-1.923,0.383-67.251,27.284-69.174,27.669 M192.986,134.229c-1.925,0.387-65.554,25.294-67.477,25.678"/>
<path fill="none" stroke="#0E0F17" stroke-width="1.485" stroke-linecap="round" d="M195.483,138.166c-1.92,0.387-68.111,29.689-70.038,30.073"/>
<path fill="none" stroke="#0E0F17" stroke-width="0.99" stroke-linecap="round" d="M192.048,131.633c-0.093,0.131,4.048,6.314,3.82,6.634"/>
<path fill="none" stroke="#0E0F17" stroke-width="1.98" d="M133.965,100.19c0,0-0.947,1.68-1.023,1.855c-0.29,0.641-1.475,1.411-1.122,2.401c0.647,1.835,1.586,2.549,0.446,4.614c-0.67,1.216,1.156,2.626,0.963,2.817"/>
<path fill="none" stroke="#0E0F17" stroke-width="0.99" stroke-linecap="round" d="M64.76,109.635c-3.073-4.868-2.176-3.971-3.204-5.509"/>
<path fill="none" stroke="#0E0F17" stroke-width="1.732" stroke-linecap="round" stroke-linejoin="round" d="M80.963,168.913c-0.288,0-2.111-2.113-2.304-2.307c-0.577-0.479-3.362-2.403-4.901-3.457c0,0,3.055,2.17,2.978,2.112c-1.826-1.442-3.746-2.593-5.859-3.745c-0.533-0.293-1.537-0.577-2.017-0.864c-0.386-0.195-0.865-0.387-1.249-0.482c-0.961-0.288-1.729-0.577-2.69-0.96c-0.191,0-0.768-0.192-1.824-0.77l-1.541-0.385c0,0.193,1.444,2.114,1.541,2.21c0.384,0.481,1.16,1.05,1.536,1.537c0.961,1.25,1.249,1.538,2.017,2.309c0.863,0.957,1.442,1.534,2.113,1.918c0.187,0.108,2.017,1.154,2.21,1.251c0.097,0,1.418,0.577,1.418,0.577c1.464,0.575,2.906,1.056,5.5,1.824c0.865,0.289,1.826,0.192,2.691,0.384c0.575,0.192,1.056,0.386,1.633,0.289"/>
<path fill="none" stroke="#0E0F17" stroke-width="1.485" stroke-linecap="round" stroke-linejoin="round" d="M78.466,161.226c2.21,0.289,7.328,3.313,10.282,7.11c0.672,0.864,2.305,2.019,3.556,4.036 M79.333,168.454c-0.867-0.094-1.729,0.193-2.596-0.094c-0.768-0.29-1.631-0.385-2.399-0.575c-0.197-0.099-0.386-0.193-0.579-0.29c-0.669-0.097-1.25-0.382-1.824-0.577h-0.386c-0.863-0.287-4.706-2.017-5.186-2.787"/>
<path fill="none" stroke="#0E0F17" stroke-width="1.98" stroke-linecap="round" stroke-linejoin="round" d="M104.598,177.848c-0.708-0.972-3.943-10.146-13.161-11.433 M91.342,166.415c0,4.919,8.806,11.831,13.256,11.049"/>
<path fill="none" stroke="#0E0F17" stroke-width="1.732" stroke-linecap="round" stroke-linejoin="round" d="M72.799,171.795c-3.455,0,13.835-2.977,16.813,3.171"/>
<path fill="none" stroke="#0E0F17" stroke-width="1.732" stroke-linecap="round" d="M84.905,180.06c1.227,1.325,14.316,4.898,20.847,1.181 M84.809,179.864c0.768-0.287,9.992-5.188,18.06,0.964 M72.51,171.795c2.978,2.497,10.185,5.859,17.103,4.227"/>
<path fill="none" stroke="#0E0F17" stroke-width="1.485" stroke-linecap="round" d="M104.984,171.121c3.459,0.384,11.048,3.748,14.41,10.666"/>
<path fill="none" stroke="#0E0F17" stroke-width="1.732" stroke-linecap="round" d="M105.175,171.604c-0.865,4.227,9.321,10.953,14.507,11.143"/>
<path fill="none" stroke="#0E0F17" stroke-width="1.485" stroke-linecap="round" d="M137.649,189.854c0.191,0.29,0.382,0.48,0.672,0.674c0.191,0.097,0.287,0.191,0.48,0.29h0.191c0.099,0.192,0.287,0.192,0.384,0.382 M132.701,186.731c1.263-0.245,6.696,2.301,9.075,4.854 M141.776,191.586c-1.056,0.207-2.204,0.64-2.496,0.961 M139.28,192.547c-0.959-0.267-5.562-4.53-7.718-7.122 M124.58,186.591c-0.382-1.156-6.722,3.075-9.703,4.9 M114.302,191.681c0.961,0.484,2.592,0.386,2.785,0.771 M117.377,192.736c0.481,0,5.957-4.416,8.165-5.954 M128.232,188.512c1.426,0,3.364-1.456,3.364-2.882s-1.168-3.268-2.596-3.268c-1.426,0-3.36,1.265-3.36,2.69S126.806,188.512,128.232,188.512z M128.52,189.279c2.306,0.191,3.649-1.538,3.938-3.553c0.393-2.749-0.289-3.556-3.792-3.761c-3.509-0.209-3.29,2.039-3.33,3.328C125.254,188.033,126.221,189.089,128.52,189.279z M99.796,186.396c5.013,1.416,12.009,1.828,16.811-1.821 M99.347,186.43c4.673-4.868,10.376-5.827,17.165-2.24"/>
<path fill="none" stroke="#0E0F17" stroke-width="1.732" stroke-linecap="round" stroke-linejoin="round" d="M78.466,161.226c-1.15,4.166,10.376,13.869,13.5,12.1"/>
<path fill="none" stroke="#0E0F17" stroke-width="1.98" stroke-linecap="round" stroke-linejoin="round" d="M82.695,169.329c1.023,0.642,1.355,2.001,2.562,2.434c3.298,1.187,5.122,3.461,8.07,4.739c0.513,0.387,1.154,0.64,1.667,1.023c0.511,0.258,1.15,0.258,1.792,0.387c0.771,0.257,1.537,0.515,2.305,0.642c1.281,0.384,2.562,0.639,3.845,1.023c0.64,0.255,1.152,0.513,1.792,0.642c1.023,0.255,2.053,0.255,3.075,0.513c0.386,0.124,0.642,0.382,1.025,0.382c0.384,0,0.642,0,1.028,0.129c1.277,0.642,2.56,0.77,3.841,1.28c0.766,0.385,1.663,0.64,2.56,0.771c1.922,0.513,3.587,0.896,5.508,1.152c1.154,0.131,2.305,0,3.461,0.256"/>
<path fill="none" stroke="#0E0F17" stroke-width="1.732" stroke-linecap="round" d="M133.549,184.314c0.257-0.125,0.639,0,0.896-0.125c1.409-0.643,2.946-1.027,4.484-1.538h0.511c2.817-1.025,5.508-1.922,8.456-2.307c0.255-0.128,0.511-0.386,0.768-0.386c0.385,0,0.767,0,1.152-0.127c0.258-0.129,0.642-0.255,0.896-0.384c1.154-0.258,1.795-0.895,2.947-1.021c0.642-0.131,2.05-1.025,2.817-1.285c0.366-0.12,2.819-1.407,3.332-1.534c0.258-0.129,7.558-3.845,7.813-3.974c2.588,0,13.451-4.611,8.84-3.072 M147.639,181.113c1.227,1.329,15.629,1.92,19.982-1.154"/>
<path fill="none" stroke="#0E0F17" stroke-width="1.485" stroke-linecap="round" d="M135.919,183.547c-0.642-0.896-4.954,2.242-1.28,2.242c1.152,0.255,5.269,1.548,6.531,1.793c2.305,0.449,12.757-0.175,15.753-1.92 M157.248,185.471c-0.129,0-0.384-0.257-0.513-0.257c-0.771-0.129-1.538-0.385-2.178-0.769c-0.256,0-0.511-0.131-0.769-0.131c-0.129,0-0.386-0.255-0.513-0.255c-0.898,0-1.667-0.256-2.563-0.383c-0.513-0.13-1.023-0.13-1.535-0.257c-0.128,0-0.384-0.258-0.513-0.258c-1.538-0.129-8.455-1.278-11.914,0.385 M152.765,170.865c-1.287,3.588-8.327,9.094-15.373,11.529 M153.021,170.353c-8.378,0-15.621,6.982-18.189,13.067"/>
<path fill="none" stroke="#0E0F17" stroke-width="1.732" stroke-linecap="round" d="M147.639,181.113c1.227,1.329,15.629,1.92,19.982-1.154"/>
<path fill="none" stroke="#0E0F17" stroke-width="1.485" stroke-linecap="round" d="M147.897,180.345c-0.258-0.642,14.729-3.843,19.918-0.737"/>
<path fill="none" stroke="#0E0F17" stroke-width="1.732" stroke-linecap="round" d="M159.552,176.12c3.103,3.36,20.306-1.227,21.327-4.038"/>
<path fill="none" stroke="#0E0F17" stroke-width="1.485" stroke-linecap="round" d="M161.73,174.709c-0.569,0.299,7.724-5.551,19.472-2.82"/>
<path fill="none" stroke="#0E0F17" stroke-width="1.485" stroke-linecap="round" stroke-linejoin="round" d="M178.255,166.542c-0.898,0.226,9.773-10.183,15.818-8.614 M163.268,173.938c1.41-2.214,13.021-13.089,15.864-12.354"/>
<path fill="none" stroke="#0E0F17" stroke-width="1.485" stroke-linecap="round" d="M164.804,172.02c1.699,1.836,12.61-5.476,14.147-9.702"/>
<path fill="none" stroke="#0E0F17" stroke-width="1.485" stroke-linecap="round" stroke-linejoin="round" d="M150.969,178.427c0.961-2.564,11.539-13.423,15.372-12.428"/>
<path fill="none" stroke="#0E0F17" stroke-width="1.485" stroke-linecap="round" d="M175.541,168.352c4.251,0.336,18.7-6.767,18.533-10.424 M151.478,177.59c1.543,1.152,14.228-5.662,14.863-11.591"/>
<path fill="none" stroke="#0E0F17" stroke-width="1.361" stroke-linecap="round" d="M178.126,165.999c-0.382,0.382-0.896,0.769-1.28,1.281"/>
<path fill="none" stroke="#0E0F17" stroke-width="1.98" stroke-linecap="round" stroke-linejoin="round" d="M105.464,176.021c0.384,0.674,0.672,1.346,1.15,2.018c0.386,0.482,0.676,1.347,1.44,1.441 M92.397,173.717c0.382,0.095,0.768,0.288,1.152,0.479c0.29,0.193,0.48,0.387,0.674,0.577c0.957,0.481,1.92,0.865,2.592,1.633"/>
<path fill="none" stroke="#0E0F17" stroke-width="1.732" stroke-linecap="round" d="M147.639,181.113c1.227,1.329,15.629,1.92,19.982-1.154 M147.639,181.113c1.227,1.329,15.629,1.92,19.982-1.154"/>
<path fill="none" stroke="#0E0F17" stroke-width="1.485" stroke-linecap="round" d="M119.297,190.048c-0.384,0.19-0.768,0.48-1.15,0.771h-0.195c-0.193,0.285-0.575,0.285-0.766,0.576 M118.624,181.497c0.853,1.333,2.69,2.979,4.036,2.787 M114.015,185.82c0.959-0.285,3.073-1.246,4.133-1.151c0.094,0,1.438-0.095,1.534-0.095c0.867,0,1.826,0.19,2.69,0.19"/>
<path fill="none" stroke="#0E0F17" stroke-width="1.485" stroke-linecap="round" stroke-linejoin="round" d="M152.013,176.711c-0.066,0.191-0.193,0.385-0.324,0.514c-0.448,0.319-0.768,0.768-1.278,0.961c0,0,0,0.129-0.064,0.129h-0.129c-0.577,0.315-1.281,0.511-1.92,0.895c0,0-0.193-0.064-0.129,0.064c-0.258,0.066-3.618,0.479-2.385-0.336"/>
</svg>
