<?xml version="1.0" encoding="UTF-8" standalone="no"?>
<svg xmlns:rdf="http://www.w3.org/1999/02/22-rdf-syntax-ns#" xmlns="http://www.w3.org/2000/svg" xml:space="preserve" version="1.1" xmlns:cc="http://creativecommons.org/ns#" xmlns:dc="http://purl.org/dc/elements/1.1/" viewBox="0 0 375 122.66"><g fill="#ba0c2f" transform="matrix(1.25,0,0,-1.25,-307.5,450.09)"><path d="m421.25 304.74c0-7.93-3.42-13.05-8.7-13.05-5.98 0-10.31 6.25-10.31 14.86 0 7.76 3.71 13.18 9.03 13.18h0.03c6.05 0 9.95-5.88 9.95-14.99zm-9 17.63h-0.03c-11.84 0-18.03-8.39-18.03-16.68 0-9.51 7.48-16.68 17.4-16.68 10.26 0 17.7 7.18 17.7 17.07 0 9.28-7.33 16.28-17.04 16.28m-51.62-19.39"/><path d="m360.63 302.97v-12.16l-1.27-0.28c-2.98-0.67-6.69-1.51-10.14-1.51-11.85 0-19.51 6.43-19.51 16.38 0 11.66 10.1 16.98 19.49 16.98 4.24 0 10.37-1.68 10.37-1.68v-7.61s-2.94 6.64-10.14 6.64c-4.83 0-9.19-3.29-10.86-8.18-0.56-1.71-0.85-3.55-0.85-5.32 0-10.08 6.02-14.59 11.99-14.59 0.89 0 2.09 0.14 2.78 0.55 0.69 0.43 1.05 1.27 1.05 2.49v7.19c0 4.15-2.99 5.37-2.99 5.37h12.25s-2.17-0.54-2.17-4.25"/><path d="m493 302.97v-12.16l-1.27-0.28c-2.98-0.67-6.69-1.51-10.14-1.51-11.85 0-19.51 6.43-19.51 16.38 0 11.66 10.1 16.98 19.49 16.98 4.24 0 10.37-1.68 10.37-1.68v-7.61s-2.94 6.64-10.14 6.64c-4.83 0-9.19-3.29-10.86-8.18-0.55-1.71-0.85-3.55-0.85-5.32 0-10.08 6.02-14.59 11.99-14.59 0.89 0 2.09 0.14 2.78 0.55 0.69 0.43 1.05 1.27 1.05 2.49v7.19c0 4.15-2.99 5.37-2.99 5.37h12.25s-2.17-0.54-2.17-4.25"/><path d="m380.99 292.51c-2.09 0-3.23 0.06-4.04 0.44-0.86 0.36-1.01 1.49-1.01 3.72v7.88h3.92c3.54 0 5.97-0.2 6.68-1.92v6.98c-0.68-1.71-2.99-2.02-6.68-2.02h-3.92v9.95c0 1.39 0 1.39 1.76 1.39h4.73c2.9 0 4.32-0.48 5.51-1.94s1.95-3.65 1.95-3.65v8.3h-23.8c0.75-0.5 2.7-2.28 2.7-7.21l-0.01-17.28c0-6.11-2.98-7.38-2.98-7.38h24.67v8.93s-1.32-2.63-2.95-4.47c-1.62-1.83-5.91-1.72-6.52-1.72"/><path d="m455.81 296.93c-1.41 2.31-3.54 5.77-4.6 7.72 2.27 0.95 5.72 3.14 5.72 7.77v0.01c0.02 0.23 0.03 0.46 0.03 0.7 0 2.79-1.2 5.15-3.39 6.66-2.02 1.36-4.49 1.86-9.11 1.86h-12.57c0.75-0.5 2.7-2.28 2.7-7.21l-0.01-17.28c0-6.11-2.98-7.38-2.98-7.38h12.9s-2.98 1.27-2.98 7.38v6.05h0.67c1.45 0 2.29-0.51 3.08-1.86 0.49-0.87 0.96-1.74 1.42-2.58 0.9-1.66 2.06-3.87 2.91-5.17 2-3.06 3.93-4.39 10.07-4.19 0 0 1.05 0.04 1.84 0.11 0 0-2.1 1.53-5.7 7.44zm-6.3 15.51c0-2.45-0.72-4.21-2.27-5.54-0.93-0.82-2.49-1.21-4.78-1.21h-0.93v11.47c0 0.91 0.09 1.35 0.32 1.56 0.38 0.31 1.09 0.46 2.12 0.46 2.68 0 5.54-1.77 5.54-6.73"/><path d="m511.34 289.77s-2.98 1.27-2.98 7.38l-0.01 17.28c0 4.94 1.95 6.71 2.7 7.21h-12.33c0.75-0.5 2.7-2.28 2.7-7.21l-0.01-17.28c0-6.11-2.98-7.38-2.98-7.38h12.91"/><path d="m523.88 302.11c1.93 4.66 4.1 9.88 4.1 9.88s1.88-5.19 3.58-9.88h-7.68zm22.12-12.34c-2.73 1.69-3.47 3.31-5.04 7.4-2.65 6.84-6.31 16.57-9.2 24.29l-0.07 0.19h-3.39l-10.14-24.64c-1.11-2.75-3.1-6.07-5.39-7.24h8.92c-1.91 0.8-1.48 3.3-0.69 5.28 0.15 0.41 0.77 1.94 1.58 3.92h10.11c0.81-2.25 1.43-3.95 1.51-4.2 0.64-1.8 0.58-3.14-1-5h12.8"/></g><path style="" d="m111.24 31.778v-8.75c0-0.8-0.2625-1.0375-2.2-1.1125v-1.1625h8.975v1.1625c-1.275 0.075-2.0375 0.2625-2.0375 1.1125v8.8875c0 3.025 1.3875 4.325 4.1875 4.325 1.125 0 2.0125-0.3125 2.6625-0.9625 0.8125-0.8 1.2-1.9125 1.2-3.8875v-5.5625c0-2.4875-0.55-3.675-3.0375-3.9125v-1.1625h7.0625v1.1625c-2.325 0.2875-2.4375 1.425-2.4375 3.9125v6.0125c0 3.9625-2.175 6.375-6.825 6.375-4.7875 0-7.5625-1.8125-7.5625-6.425m26.088-6.125"/><path style="" d="m137.31 25.665h-0.1625v7.05c0 2.5125 0.3125 3.675 2.825 3.9125v1.1625h-6.9625v-1.1625c2.325-0.2625 2.6125-1.375 2.6125-3.9125v-8.3375c0-1.375-0.5-2.4125-2.6125-2.4625v-1.1625h6.175l8.975 11.162h0.1625v-6.0875c0-2.4875-0.55-3.675-3.0375-3.9125v-1.1625h6.9875v1.1625c-2.325 0.2875-2.4375 1.425-2.4375 3.9125v12.112h-2.6375l-9.8875-12.275"/><path style="" d="m157.35 36.615c1.9375-0.075 2.25-0.3125 2.25-1.1125v-12.488c0-0.8-0.3125-1.0375-2.25-1.1125v-1.1625h9.2375v1.1625c-1.9375 0.075-2.25 0.3125-2.25 1.1125v12.488c0 0.8 0.3125 1.0375 2.25 1.1125v1.1625h-9.2375v-1.1625"/><path style="" d="m173.89 23.59c-0.41-1.088-0.89-1.375-2.54-1.688v-1.1625h9.7v1.1625c-2.275 0.125-2.5875 0.6-2.275 1.475l3.6875 10.512h0.2625l3.0875-8.825c0.7875-2.25 0.7875-2.8-1.675-3.1625v-1.1625h6.6125v1.1625c-1.775 0.3625-2.0125 0.9875-2.85 3.1375l-4.9125 12.9h-3.7125l-5.3875-14.35"/><path style="" d="m194.78 36.615c1.9375-0.075 2.2-0.3125 2.2-1.1125v-12.488c0-0.8-0.2625-1.0375-2.2-1.1125v-1.1625h15.275l0.2375 6.1125-1.4125 0.05c-1.025-2.925-2.0125-4.925-5.2-4.925h-1.9625v6.575h0.3875c1.675 0 2.25-0.2375 3.1625-2.5375h1.175v6.4h-1.175c-0.91-2.299-1.48-2.612-3.16-2.612h-0.3875v6.7125h1.7c3.8125 0 4.8625-2.05 6.0625-5.3625l1.4125 0.05-0.2625 6.575h-15.85v-1.1625"/><path style="" d="m225.25 28.665c2.6875 0 3.2375-0.85 3.2375-3.45 0-2.125-0.7375-3.2375-3.425-3.2375h-0.8625v6.6875h1.05zm-1.05 6.8375c0 0.85 0.7625 1.0375 2.0375 1.1125v1.1625h-8.975v-1.1625c1.9375-0.075 2.2-0.3125 2.2-1.1125v-12.488c0-0.8-0.2625-1.0375-2.2-1.1125v-1.1625h9.2875c5.225 0 6.775 2 6.775 4.1375 0 2.075-1.175 3.675-5.15 4.275v0.075c3.6625 0.025 4.675 1.45 4.8875 3.425l0.2125 1.8625c0.1875 1.7375 0.45 1.9875 2.3 2.1v1.1625c-1.025 0.075-1.8875 0.1-2.6625 0.1-3.825 0-4.4-0.9875-4.55-3.025l-0.1625-2c-0.1-2.4875-0.65-3-3.35-3h-0.65v5.65"/><path style="" d="m241.2 32.14h1.4125c1.3375 2.85 3.1375 4.7625 5.3125 4.7625 1.9375 0 2.775-1.2625 2.775-2.4875 0-1.6625-0.9375-2.325-3.7625-3.1625-2.9-0.85-5.625-2.15-5.625-5.3375 0-3.2875 2.4125-5.5875 6.15-5.5875 1.3375 0 2.8 0.3875 3.5875 0.825l0.7-0.9375h1.3375v5.3875h-1.4125c-1.25-2.4625-2.725-3.9875-4.525-3.9875-1.4125 0-2.35 0.9625-2.35 2.275 0 1.6625 1.025 2.2 4 3.1125 2.4125 0.725 5.1 1.9375 5.1 5.15 0 3.1875-1.9375 6.0375-6.4625 6.0375-1.4125 0-3.1625-0.2625-4.1875-0.825l-0.7125 0.9375h-1.3375v-6.1625"/><path style="" d="m259.52 36.615c1.9375-0.075 2.25-0.3125 2.25-1.1125v-12.488c0-0.8-0.3125-1.0375-2.25-1.1125v-1.1625h9.2375v1.1625c-1.9375 0.075-2.25 0.3125-2.25 1.1125v12.488c0 0.8 0.3125 1.0375 2.25 1.1125v1.1625h-9.2375v-1.1625"/><path style="" d="m278.3 36.615c2.175-0.05 2.5875-0.3125 2.5875-1.1125v-13.512h-0.2125c-1.9125 0-3.0375 1.8375-4.3375 4.925l-1.3625-0.05 0.125-6.1125h16.3l0.125 6.1125-1.3625 0.05c-1.28-3.187-2.44-4.925-4.34-4.925h-0.2125v13.512c0 0.8 0.4125 1.0625 2.5875 1.1125v1.1625h-9.9125v-1.1625"/><path style="" d="m309.82 24.84c1.2-2 1.05-2.6875-1.025-2.925v-1.1625h6.35v1.1625c-1.5625 0.2375-2.0875 0.9125-3.2125 2.6625l-3.5625 5.5625v5.3625c0 0.8 0.3125 1.0375 2.25 1.1125v1.1625h-9.2375v-1.1625c1.9375-0.075 2.25-0.3125 2.25-1.1125v-4.7875l-4.34-7.226c-0.625-1.0375-1.05-1.4-2.6375-1.575v-1.1625h9.4125v1.1625c-2.225 0.1-2.2 0.575-1.625 1.6l2.925 5.3125 2.4375-3.9875"/><path style="" d="m340.32 29.265c0-5.5375-1.075-7.6375-3.85-7.6375s-3.6375 2.1-3.6375 7.6375c0 5.5625 1.075 7.6375 3.85 7.6375s3.6375-2.075 3.6375-7.6375zm-12.55 0.05c0-5.4625 3.475-8.9875 8.8125-8.9875 5.4625 0 8.8125 3.425 8.8125 8.8875 0 5.4875-3.475 8.9875-8.8125 8.9875-5.4625 0-8.8125-3.3875-8.8125-8.8875"/><path style="" d="m350.21 36.615c1.9375-0.075 2.2-0.3125 2.2-1.1125v-12.488c0-0.8-0.2625-1.0375-2.2-1.1125v-1.1625h15.275v6.1125l-1.4125 0.05c-1.1-3.1125-2.3-4.925-5.4875-4.925h-1.4375v6.7875h0.45c1.675 0 2.25-0.1875 3.1125-2.325h1.175v6.1875h-1.175c-0.9-2.298-1.42-2.611-3.1-2.611h-0.45v5.4875c0 0.85 0.025 1.0875 2.35 1.1625v1.1125h-9.2875v-1.1625"/><path fill="#fff" d="m84.425-0.01v89.912c0 17.15-21.45 29.225-42.212 32.738-20.751-3.51-42.213-15.58-42.213-32.725v-89.912h84.438"/><path style="" d="m56.738 21.115c-4.063-3.525-9.276-5.475-14.663-5.475-5.3875 0-10.6 1.9375-14.662 5.475-3.7 3.2125-6.275 7.625-7.25 12.4h43.838c-0.975-4.7875-3.55-9.1875-7.25-12.4m-18.375 16.838h-17.412"/><path style="" d="m38.375 37.952h-17.412c-0.7625 0.1-1.35 0.75-1.3875 1.5375v35.462c0 0.8125 0.45 1.5625 1.175 1.9375 0.125 0.0625 0.2 0.1875 0.2 0.325v9.1375l2.75-2.6h14.712v-6.5375c0-0.1375 0.075-0.2625 0.2-0.325 0.725-0.375 1.175-1.1125 1.175-1.925v-35.4c0-0.8125-0.6-1.5-1.4-1.6"/><path style="" d="m63.175 37.952h-17.412c-0.7625 0.1-1.35 0.75-1.3875 1.5375v35.462c0 0.8125 0.45 1.5625 1.175 1.9375 0.125 0.0625 0.2 0.1875 0.2 0.325v9.1375l2.75-2.6h14.712v-6.5375c0-0.1375 0.075-0.2625 0.2-0.325 0.725-0.375 1.175-1.1125 1.175-1.925v-35.4c0-0.8125-0.6-1.5-1.4-1.6"/><path fill="#ba0c2f" d="m15.512 108.28c6.975 4.9 16.675 8.7125 26.7 10.512 10.025-1.7875 19.725-5.6 26.7-10.512 5.3375-3.7625 11.7-10 11.7-18.362v-2.0375h-10.075v7.225c0 0.2-0.1625 0.375-0.375 0.375h-6.6c-0.2 0-0.375-0.1625-0.375-0.375v-7.225h-17.462v7.225c0 0.2-0.1625 0.375-0.375 0.375h-6.6c-0.2 0-0.375-0.1625-0.375-0.375v-7.225h-17.462v7.225c0 0.2-0.1625 0.375-0.375 0.375h-6.6c-0.2 0-0.375-0.1625-0.375-0.375v-7.225h-9.8v2.0375c0 8.375 6.3625 14.612 11.7 18.362m-1.85-31.075"/><path style="" d="m13.612 77.202c0-0.1375 0.075-0.2625 0.2-0.325 0.725-0.375 1.175-1.1125 1.175-1.925v-35.4c0-0.8-0.6-1.4875-1.3875-1.6-0.1875-0.025-0.325-0.1875-0.325-0.3625v-3.7c0-0.2 0.1625-0.375 0.375-0.375h2.6625c1.025-5.9 4.0875-11.312 8.625-15.262 4.75-4.125 10.838-6.4 17.15-6.4 6.3 0 12.388 2.275 17.15 6.4 4.5375 3.95 7.6 9.3625 8.625 15.262h2.6625c0.2 0 0.375 0.1625 0.375 0.375v3.7c0 0.1875-0.1375 0.3375-0.325 0.3625-0.775 0.1-1.3625 0.75-1.4 1.5375v35.462c0 0.8125 0.45 1.5625 1.175 1.9375 0.125 0.0625 0.2 0.1875 0.2 0.325v9.1375l2.75-2.6h7.325v-79.938h-76.812v79.938h9.8v-6.5375"/><g fill="#fff" transform="matrix(1.25,0,0,-1.25,-307.5,450.09)"><path style="" d="m270.41 273.3v5.66l-2.99-0.21v-0.39h0.07c0.5 0 0.8-0.08 0.97-0.24 0.14-0.14 0.2-0.33 0.2-0.64v-4.18c0-0.39-0.38-0.47-1.18-0.5v-0.4h4.13v0.4c-0.81 0.03-1.19 0.12-1.19 0.5m3.43 3.24"/><path style="" d="m273.85 276.54c0.19 0.79 0.4 1.01 1.34 1.01h2.37l-0.04-0.06-3.51-4.83v-0.36h1.37l1.33 2.68 1.85 3.27v0.69h-5.01l-0.06-2.4h0.37"/><path style="" d="m282.86 272.66c-0.87 0-1.4 0.71-1.4 1.37 0 0.43 0.15 0.79 0.46 1.14l0.02 0.02 0.02-0.01c0.1-0.05 0.22-0.09 0.35-0.12 1.25-0.41 1.69-0.77 1.69-1.36 0-0.63-0.45-1.03-1.15-1.03zm-0.16 6.01c0.77 0 1.26-0.44 1.26-1.13 0-0.48-0.15-0.85-0.5-1.24l-0.02-0.02-0.02 0.01c-0.86 0.32-1.71 0.69-1.71 1.46 0 0.6 0.49 0.92 0.98 0.92zm1.19-2.55 0.09 0.03c0.86 0.32 1.3 0.79 1.3 1.39 0 0.76-0.76 1.57-2.43 1.57-1.55 0-2.55-0.8-2.55-2.04 0-0.65 0.37-1.19 1.09-1.61l0.07-0.04-0.07-0.03c-0.85-0.34-1.29-0.84-1.29-1.5 0-1.06 1.01-1.67 2.77-1.67 1.49 0 2.62 0.88 2.62 2.06 0 0.78-0.49 1.37-1.51 1.8l-0.09 0.04"/><path style="" d="m290.14 276.35c-0.6 0-1.06-0.09-1.55-0.31l-0.06-0.03v0.06l0.08 1.54h3.61l0.1 1.33h-4.32l-0.14-3.26 0.32-0.26c0.47 0.26 0.86 0.41 1.44 0.41 0.88 0 1.38-0.55 1.38-1.52 0-1.08-0.46-1.62-1.37-1.62-0.31 0-0.77 0.11-0.92 0.23l-0.05 0.04 0.05 0.03c0.24 0.12 0.49 0.44 0.49 0.8 0 0.43-0.26 0.87-0.84 0.87-0.56 0-0.93-0.36-0.93-0.9 0-0.94 0.97-1.51 2.59-1.51 1.79 0 2.61 1.12 2.61 2.16 0 1.44-1.29 1.95-2.5 1.95"/></g><path style="" d="m80.675 109.72h0.75l0.8125 1.3125 0.825-1.3125h0.725v3.1125h-0.6625v-2.1l-0.8625 1.3625h-0.0625l-0.8625-1.3625v2.1h-0.6625v-3.1125zm-2.3 0.625h-0.925v-0.625h2.5625v0.625h-0.925v2.4875h-0.7125v-2.4875"/></svg>
