<?xml version="1.0" encoding="utf-8"?>
<!-- Generator: Adobe Illustrator 22.0.1, SVG Export Plug-In . SVG Version: 6.00 Build 0)  -->
<svg version="1.1" id="Layer_1" xmlns="http://www.w3.org/2000/svg" xmlns:xlink="http://www.w3.org/1999/xlink" x="0px" y="0px"
	 width="250.3px" height="250.2px" viewBox="0 0 250.3 250.2" enable-background="new 0 0 250.3 250.2" xml:space="preserve">
<path fill="#E1810D" d="M7.28,125.1C7.28,60.12,60.16,7.23,125.15,7.23c65,0,117.87,52.89,117.87,117.87
	c0,64.99-52.87,117.88-117.87,117.88C60.16,242.98,7.28,190.09,7.28,125.1 M4.56,125.1c0,66.49,54.1,120.59,120.59,120.59
	c66.5,0,120.6-54.1,120.6-120.59c0-66.5-54.1-120.6-120.6-120.6C58.65,4.5,4.56,58.6,4.56,125.1z M93.31,225.53l6.46,1.84l0.17-0.57
	l-1.31-0.52c-0.76-0.32-0.87-0.46-0.56-1.58l2.62-9.18c-1.67-0.02-3.18-0.12-4.9-0.3l-0.16,0.56l1.68,0.52
	c0.85,0.27,0.94,0.51,0.58,1.76l-1.73,6.09c-0.33,1.13-0.5,1.18-1.31,1.06l-1.39-0.23L93.31,225.53 M113.63,217.52
	c-0.17,1.72,1.25,2.62,2.62,3.55c0.78-0.41,1.52-1.17,1.68-2.78c0.18-1.79-0.88-2.76-1.86-2.86
	C114.52,215.28,113.73,216.51,113.63,217.52 M117.65,226.72c0.19-1.97-1.49-3.24-2.92-4.29c-1.41,0.74-2.24,1.91-2.39,3.42
	c-0.22,2.15,1.06,3.43,2.5,3.57C116.25,229.56,117.45,228.69,117.65,226.72z M110.46,225.75c0.13-1.31,0.73-1.98,1.24-2.43
	c0.28-0.26,1.44-0.86,2.43-1.3c-1.41-0.97-2.5-2.11-2.33-3.76c0.21-2.02,2.02-3.81,4.47-3.57c2.2,0.22,3.6,1.91,3.41,3.8
	c-0.06,0.64-0.34,1.31-0.82,1.81c-0.17,0.18-0.88,0.6-2.06,1.2c1.57,1.15,3,2.28,2.76,4.68c-0.3,2.93-3.01,4.2-5.06,3.99
	C112.01,229.91,110.2,228.33,110.46,225.75z M136.72,219.89l0.2-1.82l-6.34,1.08l-0.46,6.05c2.41-0.21,5.42,0,5.68,3.06
	c0.34,4.09-4.76,5.44-5.86,5.66l0.16,0.62c1.92-0.19,4.32-1.11,5.84-2.51c1.3-1.2,1.96-2.78,1.84-4.24
	c-0.33-3.83-3.84-4.57-6.73-4.36l0.32-2.64L136.72,219.89 M148.82,227.77l6.51-1.7l-0.15-0.57l-1.4,0.21
	c-0.81,0.1-0.98,0.04-1.28-1.08l-2.41-9.24c-1.44,0.83-2.79,1.51-4.36,2.21l0.15,0.58l1.72-0.41c0.87-0.2,1.06-0.04,1.39,1.21
	l1.6,6.14c0.3,1.14,0.18,1.27-0.59,1.57l-1.31,0.5L148.82,227.77 M37.76,182.69l8.76-6.41c1.66-0.13,3.61,1.34,4.63,2.77
	c1.05,1.44,1.59,4.09-1.28,6.18l-6.8,4.83c-0.56,0.41-1.22,0.61-1.72-0.08l-0.33,0.23c0.39,0.53,0.85,1.02,1.3,1.65
	c0.41,0.57,0.73,1.16,1.14,1.75l0.33-0.25c-0.5-0.69-0.15-1.33,0.41-1.74l6.79-4.99c2.94-2.13,3.31-5.23,1.36-7.93
	c-1.24-1.7-3.1-2.44-4.87-3.08l0.89-0.65c0.22-0.16,0.43-0.2,0.62-0.17l0.13-0.1c-0.34-0.45-0.73-0.84-1.06-1.3
	c-0.33-0.46-0.58-0.96-0.91-1.41l-0.33,0.23c0.45,0.62,0.44,1.29-0.33,1.84l-9.88,7.07c-0.56,0.41-1.22,0.62-1.66,0l-0.33,0.23
	c0.33,0.46,0.79,0.95,1.24,1.57c0.39,0.55,0.71,1.15,1.12,1.71l0.33-0.23C36.8,183.67,37.19,183.1,37.76,182.69 M29.15,171.3
	l12.51-5.1c1.06-0.44,1.45-0.3,2.15,0.65l0.37-0.15c-0.21-0.52-0.54-1.08-0.86-1.87c-0.24-0.6-0.4-1.24-0.68-1.93l-0.37,0.15
	c0.21,1.31,0.03,1.68-2.15,2.57l-7.91,3.24l6.67-15.17l-0.19-0.46l-12.5,5.09c-1.06,0.43-1.45,0.29-2.18-0.71l-0.37,0.15
	c0.25,0.6,0.57,1.16,0.81,1.77c0.24,0.59,0.41,1.24,0.74,2.05l0.37-0.15c-0.28-1.47-0.09-1.84,3.54-3.31l6.85-2.79L30.37,168
	c-0.42,0.97-0.96,1.89-1.41,2.84L29.15,171.3 M21.01,144.59l-0.39,0.08c0.14,0.66,0.36,1.3,0.51,2.05c0.14,0.65,0.19,1.33,0.33,2.01
	l0.4-0.08c-0.18-0.85,0.41-1.22,1.09-1.37l11.88-2.57c0.67-0.14,1.39,0.08,1.51,0.69l0.4-0.07c-0.09-0.44-0.31-1.1-0.45-1.75
	c-0.15-0.73-0.2-1.41-0.3-1.88l-0.39,0.09c0.13,0.66-0.42,1.13-1.11,1.27l-11.93,2.35C21.88,145.56,21.18,145.45,21.01,144.59
	 M34.81,128.27l-0.02-0.6l-14.43-5.6c-0.86-0.33-1.18-0.56-1.29-1.36l-0.4,0.02c0.02,0.68,0.12,1.33,0.14,1.98
	c0.02,0.65-0.05,1.3-0.03,1.95l0.4,0c0.09-0.77,0.27-0.97,0.96-1c0.13,0,0.83,0.03,1.49,0.25l10.32,3.78l-11.24,4.35
	c-0.5,0.2-0.75,0.27-0.89,0.29c-0.22,0-0.37-0.61-0.43-0.82l-0.39,0.01c0.01,0.69,0.12,1.39,0.14,2.08c0.02,0.7-0.05,1.39-0.03,2.09
	l0.4-0.01c0.07-0.63,0.14-0.77,1.02-1.16L34.81,128.27 M23.62,102.57l-2.67-0.45l-0.08,0.39c0.2,0.15,0.31,0.31,0.23,0.8l-1.52,8.79
	l0.39,0.07c0.25-1.14,0.44-1.2,7.29-0.02l6.13,1.06c0.98,0.16,1.23,0.56,1.12,1.47l0.31,0.05l1.22-7.12
	c0.25-1.41,0.42-2.16,0.71-2.91l-2.34-0.74l-0.13,0.34c0.81,0.54,1.35,1.29,1.1,2.7l-0.79,4.59l-6.69-1.15l0.67-3.87
	c0.22-1.24,0.57-1.62,1.44-1.72l0.07-0.39c-0.49-0.07-1.01-0.11-1.52-0.2c-0.5-0.09-1.01-0.23-1.47-0.32l-0.07,0.39
	c0.79,0.39,1.01,0.86,0.79,2.11l-0.66,3.86l-2.24-0.39c-1.3-0.23-3.08-0.59-4.03-0.89l0.6-3.43c0.32-1.87,1.03-2.58,2.06-2.63
	L23.62,102.57 M32.33,92.73c0.13-0.25,0.35-0.54,0.49-0.93c0.88-2.31,0.06-4.34-2.06-5.14c-2.06-0.78-4.16-0.1-5.07,2.29
	c-0.32,0.85-0.34,1.03,0.34,1.29c0.96,0.37,2.06,0.88,2.96,1.22L32.33,92.73 M31.46,94.31c-1.89-0.71-3.83-1.35-5.34-1.93
	c-1.09-0.41-1.72-0.39-2.07,0.54l-0.38-0.14c0.38-1,0.94-2.85,1.35-3.97c1.1-2.89,3.22-5.18,6.47-3.96
	c1.95,0.75,2.67,3.01,2.45,4.99l7.14-2.59c0.69-0.25,1-0.55,1.36-1l0.38,0.14c-0.21,0.55-0.49,1.07-0.7,1.6
	c-0.21,0.55-0.33,1.13-0.54,1.67l-0.39-0.14c-0.01-0.08-0.04-0.21-0.08-0.22c-0.06-0.03-0.26,0-0.4,0.04l-5.71,1.94
	c-0.8,0.27-1.53,0.74-2.02,1.71l4.78,1.81c0.65,0.25,1.36,0.2,1.63-0.51l0.37,0.14c-0.2,0.52-0.52,1.12-0.79,1.83
	c-0.24,0.64-0.39,1.29-0.59,1.82l-0.38-0.14c0.27-0.72-0.23-1.22-0.89-1.47L31.46,94.31z M38.69,67.59l0.21-0.35L36.71,66
	c-0.57,1.02-1.47,1.79-2.07,2.78c-1.54,2.5-1.75,5.38,1.02,7.08c4.93,3.02,6.94-5.03,11-2.55c1.68,1.04,1.61,2.82,0.69,4.33
	c-0.79,1.27-2.29,2.46-3.93,2.06l-0.21,0.34l2.04,1.14c1.07-0.96,2-2.02,2.72-3.18c1.45-2.35,1.25-4.96-1.24-6.47
	c-4.56-2.8-6.89,5.05-11,2.53c-1.74-1.06-1.62-3.04-0.67-4.59C35.8,68.26,37.2,67.22,38.69,67.59 M45.62,55.13l-0.31-0.26
	c-0.44,0.52-0.8,1.08-1.3,1.67c-0.43,0.5-0.93,0.96-1.38,1.5l0.31,0.26c0.56-0.66,1.22-0.44,1.75,0.01l9.35,7.77
	c0.53,0.44,0.79,1.15,0.39,1.62l0.31,0.27c0.29-0.35,0.66-0.92,1.08-1.43c0.5-0.59,1-1.04,1.3-1.41l-0.31-0.27
	c-0.43,0.52-1.16,0.37-1.69-0.08l-9.2-7.93C45.39,56.39,45.05,55.79,45.62,55.13 M54.11,47.26l2.4-2.03l8.37,9.8
	c0.54,0.64,0.44,1.01-0.31,2.02l0.26,0.32c0.62-0.52,1.17-1.11,1.79-1.64c0.62-0.52,1.29-0.96,1.91-1.49l-0.26-0.3
	c-1.08,0.53-1.48,0.58-2.01-0.06l-8.26-9.89l2.4-2.03c1.11-0.94,1.73-0.97,2.81-0.33l0.31-0.25l-1.77-2.22l-0.08,0.07
	c-0.19,0.33-0.51,0.78-0.84,1.06c-1.41,1.18-2.75,2.43-4.16,3.63c-1.4,1.17-2.86,2.29-4.28,3.48c-0.33,0.27-0.82,0.52-1.18,0.65
	l-0.08,0.07l1.91,2.12l0.31-0.26C52.87,48.8,53,48.19,54.11,47.26 M77.95,39.31l2.6,4.82c0.33,0.61,0.39,1.31-0.37,1.72l0.19,0.35
	c0.58-0.31,1.12-0.71,1.72-1.03c0.67-0.35,1.3-0.59,1.84-0.88l-0.2-0.35c-0.71,0.38-1.27-0.06-1.6-0.67l-2.8-5.2l0.26-3.94
	c0.12-1.58,0.62-4.71,1.42-5.59l-0.19-0.35c-0.52,0.27-0.99,0.64-1.5,0.91c-0.51,0.28-1.06,0.47-1.58,0.75l0.19,0.36
	c0.34-0.14,0.71-0.23,0.93,0.16c0.08,0.13,0.13,0.56,0.07,1.21l-0.4,6.28l-5.46-3.27c-0.35-0.22-0.59-0.47-0.65-0.59
	c-0.19-0.36-0.03-0.68,0.37-1.02l-0.19-0.35c-0.62,0.33-1.18,0.73-1.79,1.06c-0.62,0.33-1.27,0.57-1.87,0.91l0.19,0.36
	c0.7-0.07,1.47,0.09,2.3,0.59L77.95,39.31 M110.3,35.19c4.14-0.69,5.36-4.21,4.69-8.26c-0.66-4.04-2.93-6.99-7.07-6.3
	c-4.14,0.68-5.36,4.18-4.7,8.25C103.89,32.91,106.17,35.86,110.3,35.19 M107.8,19.92c4.61-0.75,8.56,2.15,9.3,6.67
	c0.74,4.54-2.08,8.54-6.68,9.31c-4.6,0.75-8.55-2.16-9.29-6.68C100.38,24.68,103.2,20.68,107.8,19.92z M128.3,26.06l0.29-6.39
	l3.72,0.16c1.14,0.06,1.5,0.64,1.54,1.53l0.4,0.03l0.1-2.32c-0.76-0.04-1.75,0.01-3.05-0.04l-5.94-0.27l-0.02,0.41
	c0.8,0.08,1,0.2,1.03,0.4c0.13,0.69,0.29,2.51,0.13,6.13l-0.31,6.95c-0.04,0.69-0.35,1.33-1.12,1.29l-0.02,0.41
	c0.56,0.02,1.24-0.04,1.91-0.01c0.77,0.03,1.43,0.15,1.99,0.18l0.02-0.41c-0.76-0.04-1.02-0.7-0.98-1.39l0.26-5.92l2.98,0.13
	c1.25,0.06,1.66,0.37,1.92,1.31l0.4,0.02c-0.04-0.59-0.06-1.11-0.04-1.63c0.02-0.51,0.09-1.02,0.13-1.58l-0.4-0.02
	c-0.29,0.93-0.73,1.21-1.98,1.15L128.3,26.06 M155.87,24.26l2.97,1.03l-4.17,12.21c-0.27,0.78-0.65,0.89-1.9,0.76l-0.14,0.38
	c0.76,0.26,1.56,0.44,2.32,0.7c0.75,0.26,1.49,0.62,2.25,0.89l0.14-0.39c-1-0.66-1.25-0.98-0.98-1.77l4.3-12.15l2.97,1.03
	c1.37,0.49,1.71,1,1.7,2.27l0.38,0.13l1.02-2.66l-0.1-0.04c-0.39,0-0.94-0.04-1.35-0.19c-1.74-0.6-3.5-1.12-5.23-1.71
	c-1.74-0.62-3.45-1.29-5.18-1.9c-0.41-0.14-0.87-0.44-1.17-0.69l-0.11-0.04l-0.85,2.71l0.38,0.13
	C153.91,23.97,154.5,23.78,155.87,24.26 M172.95,38.94l8.72,5.46l-3.16,5.05c-0.37,0.59-0.97,0.98-1.43,0.7l-0.21,0.34
	c0.28,0.18,0.91,0.46,1.56,0.87c0.56,0.35,1.09,0.79,1.37,0.97l0.22-0.34c-0.46-0.29-0.4-1.03-0.02-1.61l4.35-6.95
	c2.74-4.32,2.99-4.48,3.75-3.91l0.21-0.34c-0.47-0.29-1.09-0.59-1.66-0.93c-0.65-0.4-1.18-0.84-1.65-1.15l-0.21,0.36
	c0.65,0.4,0.51,1.08,0.14,1.66l-2.76,4.5l-8.72-5.47l2.84-4.44c0.37-0.59,0.92-1,1.57-0.61l0.22-0.35c-0.48-0.29-1.1-0.57-1.74-0.97
	c-0.57-0.37-1.09-0.79-1.57-1.1l-0.21,0.35c0.84,0.41,0.81,0.71-1.89,5.05l-4.35,6.96c-0.37,0.58-1,0.96-1.45,0.68l-0.21,0.34
	c0.29,0.19,0.9,0.46,1.47,0.81c0.65,0.4,1.17,0.84,1.45,1.01l0.22-0.34c-0.46-0.29-0.35-0.98,0.01-1.58L172.95,38.94 M201.14,54.11
	l1.9-1.93l-0.29-0.28c-0.23,0.08-0.42,0.09-0.77-0.25l-6.38-6.25l-0.29,0.29c0.81,0.85,0.74,1.04-4.11,6.02l-4.36,4.45
	c-0.68,0.71-1.15,0.69-1.83,0.08l-0.22,0.23l5.17,5.04c1.02,1,1.54,1.57,1.99,2.23l1.95-1.52l-0.21-0.29
	c-0.92,0.35-1.82,0.37-2.84-0.62l-3.34-3.26l4.75-4.86l2.81,2.74c0.9,0.87,1,1.38,0.6,2.14l0.29,0.29c0.33-0.37,0.65-0.77,1.01-1.14
	c0.36-0.37,0.76-0.7,1.1-1.02l-0.29-0.27c-0.77,0.43-1.28,0.34-2.18-0.53l-2.81-2.74l1.59-1.63c0.92-0.96,2.22-2.22,3-2.82
	l2.51,2.43c1.34,1.33,1.54,2.33,0.98,3.2L201.14,54.11 M211.02,76.15c-0.41,0.23-0.7,0.54,0.1,1.99c1.26,2.31,3.22,2.18,5.09,1.16
	c1.76-0.95,3.06-2.51,1.63-5.13c-0.56-1.02-0.8-1.2-1.67-0.73c-0.42,0.24-1.36,0.66-2.54,1.3L211.02,76.15 M215.2,71.78
	c0.62-0.33,1.04-0.9,0.66-1.6l0.35-0.19c0.41,0.74,0.74,1.54,1.15,2.29c0.41,0.75,0.89,1.45,1.31,2.2c1.14,2.08,1.33,4.99-1.55,6.56
	c-2.51,1.37-5.11-0.15-6.34-2.38c-0.36-0.68-0.61-1.31-0.87-1.87l-4.51,2.4c-0.61,0.34-1.04,0.89-0.68,1.57l-0.35,0.18
	c-0.27-0.48-0.51-1.12-0.87-1.78c-0.33-0.6-0.73-1.14-1-1.63l0.35-0.19c0.37,0.67,1.08,0.61,1.69,0.27L215.2,71.78z M215.92,93.39
	l1.67,5.38l6.19-4.71L215.92,93.39 M214.93,93.33l-2.1-0.1c-0.45-0.02-0.98,0.15-1.2,0.21c-0.38,0.12-0.54,0.6-0.57,1.19l-0.39,0.13
	c-0.16-0.54-0.25-1.12-0.42-1.66c-0.17-0.56-0.43-1.08-0.64-1.74l0.39-0.12c0.67,0.94,1.23,0.94,2.29,1.04l14.64,1.12l0.11,0.36
	l-11.57,8.7c-0.91,0.68-1.2,1.09-1.27,2.24l-0.39,0.13c-0.2-0.64-0.31-1.32-0.51-1.95c-0.21-0.65-0.49-1.26-0.69-1.91l0.39-0.12
	c0.28,0.21,0.71,0.6,0.96,0.52c0.34-0.11,0.58-0.32,0.85-0.52l1.99-1.53L214.93,93.33z M216.41,123.71l2.32,0.58l0.13-0.3
	c-1.74-0.93-2.56-2.38-2.8-5.05c-0.33-3.73,3.37-7.12,6.75-7.42c4.71-0.41,7.6,2.12,7.95,6.12c0.15,1.67-0.29,4.01-1.95,4.95
	l0.04,0.4l2.37-0.45c-0.03-0.11-0.13-0.21-0.14-0.31c-0.03-0.44,0.58-2.64,0.4-4.65c-0.47-5.34-4.05-8.6-8.85-8.17
	s-7.75,4.26-7.27,9.6C215.49,120.46,215.88,122.34,216.41,123.71 M230.39,137.28l0.4,0.04c0.07-0.68,0.04-1.35,0.12-2.11
	c0.06-0.67,0.21-1.33,0.28-2.02l-0.4-0.04c-0.08,0.89-0.75,1.06-1.44,1l-12.11-1.04c-0.69-0.07-1.31-0.48-1.24-1.11l-0.4-0.04
	c-0.04,0.44-0.01,1.12-0.08,1.79c-0.07,0.75-0.22,1.41-0.27,1.89l0.41,0.04c0.06-0.67,0.75-0.97,1.44-0.9l12.08,1.26
	C229.85,136.1,230.47,136.4,230.39,137.28 M221.12,149.8l6.17,1.67l-0.98,3.59c-0.3,1.1-0.94,1.32-1.83,1.17l-0.1,0.4l2.23,0.6
	c0.2-0.74,0.37-1.72,0.71-2.97l1.56-5.75l-0.39-0.1c-0.25,0.77-0.42,0.93-0.62,0.92c-0.69-0.02-2.5-0.25-6.01-1.2l-6.71-1.82
	c-0.67-0.18-1.22-0.64-1.02-1.38l-0.39-0.11c-0.14,0.54-0.23,1.23-0.41,1.87c-0.2,0.73-0.46,1.35-0.62,1.89l0.39,0.1
	c0.2-0.73,0.91-0.85,1.58-0.66l5.71,1.55l-0.78,2.87c-0.33,1.21-0.72,1.54-1.68,1.59l-0.1,0.39c0.58,0.09,1.08,0.18,1.58,0.32
	c0.49,0.13,0.98,0.31,1.52,0.48l0.11-0.39c-0.85-0.48-1.02-0.97-0.69-2.18L221.12,149.8 M220.78,170.69l0.37,0.18
	c0.27-0.62,0.47-1.27,0.78-1.95c0.29-0.61,0.64-1.2,0.93-1.83l-0.37-0.17c-0.36,0.79-1.06,0.75-1.69,0.46l-11.11-4.91
	c-0.64-0.29-1.08-0.89-0.82-1.46l-0.37-0.17c-0.18,0.41-0.38,1.06-0.66,1.67c-0.32,0.69-0.67,1.27-0.87,1.7l0.36,0.16
	c0.28-0.6,1.02-0.66,1.65-0.38l11.03,5.13C220.65,169.41,221.15,169.9,220.78,170.69 M195.5,183.25l1.39,1.96l0.3-0.15
	c-0.73-1.84-0.4-3.47,1.15-5.64c2.16-3.05,7.19-3.23,9.95-1.27c3.86,2.74,4.41,6.54,2.08,9.81c-0.97,1.37-2.83,2.86-4.68,2.49
	l-0.24,0.33l2.1,1.2c0.05-0.11,0.04-0.26,0.09-0.33c0.26-0.37,2.15-1.64,3.32-3.28c3.1-4.38,2.49-9.18-1.43-11.96
	c-3.94-2.8-8.68-1.79-11.77,2.59C196.91,180.17,195.99,181.86,195.5,183.25 M1.36,125.1C1.36,56.84,56.89,1.32,125.15,1.32
	s123.8,55.52,123.8,123.79c0,68.26-55.54,123.79-123.8,123.79S1.36,193.36,1.36,125.1 M0.15,125.1c0,68.94,56.07,125,125,125
	c68.93,0,125-56.07,125-125c0-68.93-56.07-125-125-125C56.22,0.1,0.15,56.17,0.15,125.1z M185.03,139.69
	c-0.03,0.37-0.13,0.62-0.3,0.75c-0.24,0.2-0.58,0.29-1.02,0.25c-1.56-0.13-3.8-1.68-5.7-3.94c-3.23-3.84-4.88-8.63-5.5-10.81
	c2.05,0.98,6.48,3.41,9.72,7.24c1.6,1.91,2.82,4.63,2.82,6.25C185.04,139.53,185.03,139.61,185.03,139.69 M187.11,149.23
	c4.97-2.18,10.39-2.38,12.73-2.37c-1.58,1.77-5.41,5.62-10.34,7.79c-2.88,1.27-5.75,1.7-7.3,1.09c-0.45-0.16-0.74-0.41-0.88-0.72
	c-0.1-0.22-0.08-0.52,0.06-0.89C182.01,152.56,184.57,150.35,187.11,149.23z M180.08,153.05c-0.04,0.2-0.09,0.35-0.16,0.49
	c0,0,0,0,0,0.01c-0.07,0.13-0.15,0.23-0.25,0.3c-1.18,0.79-4.17-0.88-6.73-4.67c-3.03-4.46-4.22-9.76-4.63-12.09
	c2.02,1.24,6.5,4.3,9.53,8.77c1.36,2,2.31,4.72,2.31,6.5C180.14,152.61,180.12,152.85,180.08,153.05z M180.33,163.04
	c5.53-0.62,10.93,0.85,13.21,1.58c-2.07,1.24-7,3.88-12.53,4.49c-3.21,0.36-6.15-0.1-7.49-1.18c-0.39-0.3-0.6-0.65-0.64-0.99
	C172.71,165.53,176.68,163.45,180.33,163.04z M171.56,165.6c-0.32,0.15-0.71,0.13-1.18-0.02c-1.62-0.59-3.55-2.85-4.92-5.77
	c-2.36-5.04-2.7-10.62-2.73-13.02c1.83,1.57,5.91,5.39,8.27,10.43c0.89,1.9,1.37,4.2,1.37,5.92
	C172.36,164.39,172.11,165.34,171.56,165.6z M169.77,176.15c5.71,1.51,10.47,5.03,12.39,6.61c-2.47,0.42-8.35,1.15-14.04-0.36
	c-4.77-1.26-7.55-3.72-7.15-5.24C161.35,175.71,166.04,175.17,169.77,176.15z M160.1,175.52c-0.37,0.08-0.78-0.02-1.21-0.31
	c-1.53-0.97-3-3.73-3.73-7.04c-0.47-2.13-0.64-4.26-0.64-6.23c0-3.39,0.49-6.27,0.82-7.81c1.5,1.99,4.85,6.86,6.13,12.62
	c0.24,1.09,0.35,2.27,0.35,3.39c0,1.93-0.34,3.74-0.95,4.72C160.63,175.24,160.37,175.46,160.1,175.52z M156.12,185.66
	c5.34,2.85,9.24,7.5,10.76,9.5c-2.52-0.15-8.54-0.81-13.88-3.66c-3.06-1.64-5.38-3.83-5.91-5.6c-0.07-0.24-0.11-0.45-0.11-0.66
	c0-0.24,0.05-0.44,0.15-0.64C147.87,183.25,152.65,183.81,156.12,185.66z M145.57,182.08c-1.32-1.29-2.19-4.36-2.22-7.83
	c0,0,0-0.14,0-0.22c0-5.96,2.17-11.5,3.18-13.77c1.07,2.29,3.37,7.89,3.43,13.93c0,0.04,0,0.08,0,0.12c0,3.04-1.04,6.54-2.33,7.84
	c-0.31,0.33-0.62,0.48-0.9,0.49C146.34,182.65,145.95,182.46,145.57,182.08z M129.53,194h-8.74c0.82-1.44,2.7-4.76,3.38-5.97
	c0.33,0,0.66,0.02,0.98,0.02c0.33,0,0.65-0.02,0.97-0.02C126.82,189.24,128.71,192.56,129.53,194z M125.16,202.61
	c-0.7-1.17-3.44-5.77-4.41-7.39h8.83C128.61,196.84,125.86,201.43,125.16,202.61z M112.9,121.56h7.13l4.47,65.26
	c-0.07,0-0.14,0-0.21,0C123.07,179.82,113.66,125.9,112.9,121.56z M120.71,116.85h9.68c1.38,0.85,3.94,2.45,5.59,3.49h-21.47
	C116.36,119.3,119.19,117.7,120.71,116.85z M114.57,112.15h21.4c-1.67,1.05-4.16,2.62-5.54,3.49h-9.76
	C119.16,114.77,116.41,113.2,114.57,112.15z M108.17,91.63l33.94,0.01c-0.72,3.12-4.05,17.51-4.47,19.32h-24.93
	C112.3,109.19,108.87,94.64,108.17,91.63z M112.14,73.57l3.07,16.85l-7,0C108.8,87.82,111.03,78.27,112.14,73.57z M119.78,71.2
	c-0.64,2.85-2.96,13.13-3.78,16.79c-0.68-3.68-2.55-13.97-3.07-16.79H119.78z M122.25,65.31l2.76,4.67h-10.64
	C116.57,68.67,120.44,66.39,122.25,65.31z M120.77,60.46h8.74c-1.13,1.91-3.7,6.27-4.36,7.38
	C124.49,66.73,121.91,62.38,120.77,60.46z M125.15,51.99c0.68,1.14,3.36,5.57,4.38,7.26h-8.75
	C121.78,57.57,124.46,53.13,125.15,51.99z M136.07,69.99l-10.77-0.01l2.91-4.96C129.85,66.07,133.87,68.61,136.07,69.99z
	 M129.75,73.32c0.77,3.46,3.18,14.21,3.82,17.1l-7.68,0C126.55,87.49,128.97,76.77,129.75,73.32z M124.38,90.42h-7.69
	c0.66-2.93,3.07-13.65,3.84-17.09C121.31,76.77,123.72,87.49,124.38,90.42z M121.29,71.2h7.7c-0.66,2.95-3.08,13.65-3.85,17.08
	C124.37,84.84,121.95,74.11,121.29,71.2z M134.26,87.96c-0.81-3.64-3.09-13.9-3.74-16.76h6.83
	C136.82,74.07,134.94,84.3,134.26,87.96z M142.1,90.42h-7.06l3.11-16.92C139.26,78.22,141.52,87.9,142.1,90.42z M121.25,121.56h7.93
	l-4.01,57.11L121.25,121.56z M126,186.82c-0.07,0-0.13,0-0.19,0l4.58-65.26h7.02C136.63,126.02,127.22,179.83,126,186.82z
	 M103.61,182.64c-0.29-0.01-0.59-0.16-0.91-0.48c-1.29-1.31-2.33-4.81-2.33-7.85c0-0.04,0-0.09,0-0.12
	c0.05-6.04,2.36-11.64,3.43-13.93c1.02,2.28,3.19,7.82,3.19,13.77c0,0.08,0,0.22,0,0.22c-0.03,3.47-0.91,6.54-2.22,7.83
	C104.39,182.46,104,182.65,103.61,182.64z M97.34,191.5L97.34,191.5c-5.33,2.85-11.36,3.51-13.88,3.66c1.53-2,5.43-6.65,10.76-9.5
	c3.47-1.85,8.27-2.42,8.99-1.05c0.1,0.19,0.15,0.4,0.15,0.64C103.36,186.82,101.2,189.44,97.34,191.5z M90.24,175.52
	c-0.27-0.06-0.53-0.28-0.76-0.65c-0.62-0.97-0.96-2.78-0.96-4.72c0-1.13,0.12-2.3,0.36-3.39c1.28-5.76,4.62-10.64,6.12-12.62
	c0.33,1.53,0.82,4.41,0.82,7.81c0,1.97-0.17,4.11-0.64,6.23c-0.73,3.3-2.2,6.07-3.73,7.04C91.02,175.5,90.61,175.6,90.24,175.52z
	 M89.12,178.41c-0.91,1.56-3.62,3.13-6.9,4c-5.69,1.51-11.57,0.78-14.04,0.36c1.93-1.58,6.69-5.1,12.4-6.61
	c2.89-0.76,6.54-0.64,8.13,0.29c0.38,0.23,0.6,0.47,0.67,0.72C89.47,177.55,89.38,177.96,89.12,178.41z M78.79,165.6
	c-0.55-0.25-0.81-1.21-0.81-2.47c0-1.72,0.48-4.02,1.38-5.92c2.36-5.03,6.43-8.86,8.26-10.43c-0.02,2.4-0.36,7.98-2.73,13.02
	c-1.37,2.93-3.3,5.19-4.92,5.77C79.5,165.73,79.1,165.75,78.79,165.6z M76.84,167.94c-1.35,1.08-4.29,1.54-7.5,1.18
	c-5.53-0.62-10.47-3.26-12.54-4.49c2.29-0.73,7.69-2.2,13.22-1.58c2.83,0.32,6.01,1.68,7.11,3.04c0.26,0.32,0.37,0.62,0.35,0.87
	C77.43,167.29,77.22,167.63,76.84,167.94z M70.69,153.85c-0.21-0.14-0.35-0.4-0.42-0.79c-0.04-0.2-0.06-0.44-0.06-0.69
	c0-1.78,0.94-4.49,2.31-6.5c3.03-4.47,7.5-7.54,9.53-8.77c-0.41,2.33-1.6,7.63-4.62,12.09C74.85,152.97,71.86,154.64,70.69,153.85z
	 M69.02,155.03c-0.58,1.31-4,1.47-8.18-0.37c-4.94-2.17-8.75-6.02-10.34-7.79c2.35-0.02,7.77,0.19,12.73,2.37
	c2.54,1.12,5.11,3.32,5.73,4.91C69.09,154.5,69.12,154.81,69.02,155.03z M65.32,139.69c-0.01-0.08-0.01-0.16-0.01-0.25
	c0-1.62,1.21-4.35,2.81-6.25c3.23-3.84,7.66-6.26,9.72-7.24c-0.63,2.18-2.27,6.97-5.5,10.81c-1.9,2.26-4.15,3.81-5.71,3.94
	c-0.44,0.04-0.78-0.05-1.02-0.25C65.45,140.3,65.35,140.05,65.32,139.69z M63.59,141c-0.19,0.25-0.51,0.4-0.95,0.45
	c-1.55,0.2-4.07-0.83-6.41-2.65c-3.97-3.07-6.57-7.39-7.65-9.41c2.22,0.54,7.06,1.97,11.03,5.03c2.07,1.6,3.91,4.19,4.11,5.77
	c0.01,0.09,0.02,0.18,0.02,0.25C63.74,140.69,63.69,140.87,63.59,141z M61.66,125.17c-0.03,0.23-0.12,0.52-0.32,0.66
	c-0.23,0.16-0.54,0.21-0.94,0.15c-1.43-0.24-3.39-1.85-4.99-4.09c-2.68-3.76-3.84-8.26-4.27-10.37c1.87,1.08,5.73,3.66,8.41,7.42
	c1.27,1.77,2.16,4.19,2.16,5.73C61.7,124.84,61.68,125.01,61.66,125.17z M63.29,110.3c-0.97,0.33-3.4-2.29-4.46-5.34
	c-1-2.91-1.25-5.95-1.25-8.26c0-1.06,0.06-1.94,0.11-2.6c1.45,1.56,4.34,5,5.82,9.24c0.55,1.6,0.78,3.07,0.78,4.22
	C64.28,109.06,63.9,110.09,63.29,110.3z M65.36,109.87c0.44-1.35,2.57-3.37,4.66-4.41c4.02-2.04,8.5-2.5,10.62-2.61
	c-1.35,1.65-4.39,4.98-8.4,7.01c-2.4,1.21-4.82,1.71-6.16,1.25c-0.37-0.12-0.62-0.31-0.73-0.54c-0.04-0.08-0.06-0.18-0.06-0.27
	C65.28,110.15,65.33,109.99,65.36,109.87z M66.13,89.52c-0.04-0.51-0.06-1.02-0.06-1.52c0-3.76,1.01-7.21,1.61-8.94
	c0.98,1.84,2.8,5.78,3.14,10.12c0.02,0.26,0.03,0.54,0.03,0.82c0,2.09-0.56,4.38-1.35,5.3c-0.12,0.15-0.33,0.34-0.54,0.36
	C67.85,95.74,66.42,93.24,66.13,89.52z M75.97,92.07c4.1-1.46,8.45-1.41,10.53-1.27c-1.51,1.43-4.83,4.22-8.92,5.69
	c-3.51,1.25-6.37,0.96-6.75-0.08c-0.07-0.18,0.02-0.44,0.11-0.63C71.52,94.53,73.82,92.84,75.97,92.07z M79.77,79.21
	c2.92-3.12,6.76-5.03,8.66-5.84c-0.68,1.95-2.3,5.92-5.22,9.05c-1.75,1.89-3.78,3.15-5.13,3.19c-0.36,0.02-0.64-0.07-0.82-0.25
	c-0.15-0.13-0.21-0.38-0.21-0.69C77.04,83.43,78.1,81.01,79.77,79.21z M63.6,124.9c0.13-1.47,1.78-3.92,3.65-5.48
	c3.57-2.93,7.97-4.4,10.05-4.98c-0.97,1.93-3.26,5.96-6.83,8.91c-2.12,1.74-4.44,2.79-5.88,2.64c-0.4-0.04-0.68-0.17-0.86-0.38
	c-0.11-0.13-0.14-0.35-0.14-0.54C63.59,125.02,63.59,124.96,63.6,124.9z M186.62,140.2c0.2-1.58,2.04-4.16,4.11-5.77
	c3.96-3.06,8.81-4.49,11.03-5.03c-1.08,2.01-3.69,6.34-7.65,9.41c-2.34,1.81-4.86,2.85-6.42,2.65c-0.44-0.05-0.75-0.2-0.94-0.44
	c-0.1-0.14-0.15-0.32-0.15-0.56C186.61,140.38,186.61,140.29,186.62,140.2z M186.61,125.62c-0.18,0.21-0.46,0.34-0.86,0.38
	c-1.45,0.15-3.76-0.9-5.89-2.64c-3.57-2.95-5.85-6.98-6.81-8.91c2.08,0.58,6.48,2.04,10.05,4.98c1.88,1.56,3.52,4.01,3.66,5.48
	c0,0.06,0.01,0.12,0.01,0.18C186.75,125.27,186.72,125.49,186.61,125.62z M186.85,103.34c1.47-4.24,4.36-7.68,5.81-9.24
	c0.06,0.66,0.11,1.54,0.11,2.6c0,2.31-0.25,5.35-1.25,8.27c-1.06,3.04-3.49,5.67-4.45,5.34c-0.62-0.21-1-1.24-1-2.73
	C186.05,106.42,186.29,104.94,186.85,103.34z M185,110.57c-0.12,0.23-0.37,0.42-0.73,0.54c-1.35,0.45-3.77-0.05-6.17-1.25h0
	c-4.01-2.02-7.04-5.36-8.39-7.01c2.11,0.12,6.58,0.57,10.62,2.61c2.06,1.02,4.15,3.02,4.63,4.36c0.02,0.07,0.04,0.13,0.05,0.19
	c0.02,0.1,0.05,0.19,0.05,0.29C185.06,110.4,185.04,110.49,185,110.57z M180.85,95.31c-0.79-0.92-1.35-3.21-1.35-5.3
	c0-0.29,0.01-0.56,0.02-0.82c0.34-4.34,2.16-8.28,3.15-10.12c0.6,1.73,1.6,5.18,1.6,8.94c0,0.5-0.02,1-0.06,1.52
	c-0.29,3.71-1.72,6.22-2.83,6.14C181.18,95.65,180.98,95.46,180.85,95.31z M179.51,96.4c-0.38,1.04-3.25,1.33-6.75,0.08
	c-4.09-1.46-7.4-4.26-8.92-5.69c2.08-0.14,6.43-0.18,10.53,1.27c2.15,0.77,4.46,2.47,5.03,3.7C179.5,95.95,179.58,96.22,179.51,96.4
	z M173.09,85.36c-0.19,0.17-0.46,0.26-0.83,0.25c-1.35-0.04-3.37-1.29-5.13-3.19c-2.92-3.13-4.55-7.1-5.23-9.05
	c1.89,0.81,5.74,2.72,8.66,5.84c1.67,1.8,2.73,4.22,2.73,5.46C173.31,84.98,173.23,85.23,173.09,85.36z M190.81,118.94
	c2.67-3.76,6.53-6.34,8.41-7.42c-0.44,2.11-1.6,6.61-4.28,10.37c-1.6,2.24-3.56,3.85-4.99,4.09c-0.4,0.06-0.71,0.02-0.94-0.14
	c-0.19-0.15-0.28-0.44-0.32-0.66c-0.02-0.15-0.04-0.33-0.04-0.51C188.65,123.13,189.54,120.7,190.81,118.94z M187.55,142.66
	c1.88,0.23,4.69-0.87,7.31-2.9c5.54-4.3,8.45-10.72,8.56-10.99l0.46-1.02l-1.12,0.18c-0.29,0.05-7.23,1.26-12.77,5.54
	c-1.04,0.79-2.11,1.91-2.97,3.1c0.61-3.27,0.96-6.62,1.04-10.04c0.08,0.08,0.14,0.19,0.25,0.27c0.48,0.34,1.12,0.46,1.83,0.34
	c1.76-0.29,3.98-2.04,5.78-4.57c3.8-5.35,4.67-11.88,4.7-12.15l0.15-1.12l-1.01,0.5c-0.25,0.13-6.13,3.07-9.94,8.41
	c-0.71,0.98-1.37,2.28-1.81,3.57c-0.18-3.56-0.66-7.02-1.41-10.39c0.02,0.01,0.05,0.02,0.07,0.02c2.15,0.74,4.94-3.04,5.99-6.07
	c2.1-6.05,1.11-12.44,1.07-12.69l-0.18-1.12l-0.83,0.77c-0.2,0.17-4.91,4.57-7.01,10.63c-0.33,0.93-0.55,1.85-0.69,2.72
	c-0.99-3.04-2.2-5.97-3.63-8.8c2.02,0.05,3.71-2.97,4.04-7.24c0.48-6.23-1.99-11.99-2.1-12.24l-0.45-1.05l-0.62,0.97
	c-0.14,0.23-3.46,5.56-3.94,11.8c-0.06,0.77-0.03,1.63,0.07,2.5c-1.28-2.02-2.65-3.96-4.13-5.8c0.91-1.76-0.88-5.34-2.8-7.4
	c-4.21-4.52-10.07-6.55-10.32-6.63l-1.06-0.36l0.29,1.09c0.06,0.25,1.68,6.25,5.88,10.76c2,2.14,4.29,3.51,5.98,3.57
	c0.42,0.01,0.8-0.07,1.13-0.21c1.45,1.79,2.78,3.67,4.01,5.6c-0.85-0.53-1.75-0.98-2.58-1.28c-5.89-2.12-12.11-1.27-12.38-1.23
	l-1.14,0.16l0.77,0.86c0.18,0.19,4.42,4.78,10.31,6.89c3.64,1.31,6.79,1.2,7.95-0.21c1.48,2.95,2.75,6.03,3.75,9.23
	c-0.98-0.93-2.14-1.74-3.19-2.27c-5.73-2.89-12.17-2.76-12.44-2.76l-1.12,0.03l0.64,0.93c0.15,0.23,3.88,5.48,9.6,8.37
	c2.73,1.37,5.44,1.88,7.1,1.33c0.31-0.1,0.58-0.25,0.8-0.42c0.72,3.27,1.18,6.62,1.35,10.07c-0.8-1.3-1.89-2.55-2.94-3.41
	c-5.07-4.18-11.52-5.51-11.79-5.56l-1.1-0.22l0.42,1.06c0.11,0.26,2.64,6.34,7.7,10.5c2.4,1.97,4.99,3.09,6.78,2.92
	c0.37-0.03,0.7-0.13,0.98-0.26c-0.1,3.4-0.47,6.75-1.11,10c-0.58-1.63-1.57-3.34-2.58-4.53c-4.52-5.36-11.05-8-11.33-8.12
	l-1.04-0.41l0.23,1.11c0.06,0.29,1.55,7.17,6.06,12.54c2.14,2.53,4.64,4.2,6.54,4.37c0.34,0.02,0.66,0,0.96-0.07
	c-0.89,3.14-2.01,6.18-3.37,9.1c-0.34-1.96-1.29-4.18-2.36-5.75c-4.16-6.16-10.75-9.65-11.03-9.81l-1-0.51l0.12,1.12
	c0.03,0.31,0.83,7.73,4.99,13.88v0c2.28,3.35,5.05,5.38,7.08,5.36c-1.61,2.85-3.43,5.56-5.45,8.12c0.06-2.12-0.57-4.76-1.47-6.66
	c-3.23-6.88-9.34-11.48-9.6-11.67l-0.91-0.67l-0.06,1.14c0,0.06-0.02,0.42-0.02,1.02c0,2.32,0.28,8.31,2.87,13.81
	c1.52,3.24,3.67,5.7,5.61,6.39c0.2,0.08,0.4,0.12,0.59,0.15c-2.47,2.7-5.19,5.17-8.11,7.38c0.72-2.2,0.72-5.41,0.2-7.75
	c-1.74-7.79-6.94-13.86-7.17-14.12l-0.73-0.87l-0.3,1.1c-0.08,0.22-1.16,4.19-1.16,9.27c0,2.06,0.18,4.28,0.68,6.56
	c0.82,3.66,2.45,6.64,4.26,7.8c0.29,0.19,0.58,0.3,0.87,0.39c-3.09,2.03-6.36,3.81-9.79,5.28c1.21-2.03,1.89-5.26,1.87-7.74
	c-0.07-8.12-3.95-15.3-4.12-15.61l-0.55-0.98l-0.52,0.99c-0.16,0.31-3.93,7.56-3.86,15.68c0.03,3.85,1.02,7.17,2.58,8.7
	c0.2,0.19,0.41,0.35,0.62,0.48c-5.71,1.99-11.78,3.14-18.1,3.36c1.13-6.38,11.56-66.11,11.56-66.11s-5.76-3.61-7.06-4.42
	c1.29-0.81,6.92-4.36,6.92-4.36l4.84-20.86l-4.88-20.87c0,0-8.7-5.5-9.56-6.03c0.41-0.78,2.24-4.3,2.24-4.3l-6.15-10.2l-0.52,0.86
	L119,59.85c0,0,2.12,3.64,2.59,4.46c-0.93,0.55-9.89,5.84-9.89,5.84l-4.9,20.94l4.91,20.83c0,0,6.15,3.5,7.61,4.33
	c-1.47,0.84-7.8,4.4-7.8,4.4s10.43,59.74,11.55,66.14c-6.31-0.21-12.37-1.37-18.06-3.35c0.22-0.13,0.43-0.29,0.63-0.48
	c1.56-1.52,2.55-4.85,2.58-8.7c0.07-8.12-3.69-15.37-3.85-15.68l-0.53-0.99l-0.54,0.98c-0.17,0.31-4.05,7.49-4.12,15.61
	c-0.03,2.49,0.67,5.74,1.89,7.76c-3.45-1.47-6.73-3.25-9.83-5.29c0.3-0.09,0.6-0.2,0.89-0.4c1.81-1.16,3.44-4.15,4.26-7.8
	c0.5-2.27,0.68-4.5,0.68-6.56c0-5.08-1.1-9.05-1.17-9.27l-0.3-1.1l-0.73,0.87c-0.23,0.25-5.43,6.33-7.17,14.12
	c-0.52,2.36-0.52,5.6,0.21,7.8c-2.93-2.24-5.67-4.71-8.16-7.43c0.21-0.03,0.41-0.08,0.63-0.16c1.93-0.69,4.09-3.15,5.61-6.39
	c2.58-5.5,2.86-11.48,2.86-13.81c0-0.6-0.02-0.96-0.02-1.02l-0.06-1.14l-0.91,0.67c-0.26,0.19-6.36,4.79-9.6,11.67
	c-0.91,1.91-1.54,4.59-1.47,6.7c-2.03-2.56-3.86-5.29-5.48-8.16c2.03,0.04,4.82-1.99,7.12-5.36v0c4.16-6.15,4.97-13.57,5-13.88
	l0.12-1.12l-1,0.51c-0.28,0.16-6.87,3.65-11.03,9.81c-1.07,1.57-2.03,3.82-2.37,5.79c-1.37-2.93-2.5-5.99-3.39-9.16
	c0.3,0.07,0.64,0.1,0.99,0.07c1.9-0.16,4.4-1.84,6.54-4.37c4.51-5.37,6-12.25,6.06-12.54l0.23-1.11l-1.05,0.41
	c-0.27,0.12-6.81,2.76-11.32,8.12c-1.02,1.21-2.03,2.94-2.6,4.59c-0.64-3.28-1.02-6.65-1.12-10.08c0.29,0.15,0.63,0.25,1.01,0.29
	c1.78,0.17,4.38-0.94,6.78-2.92c5.06-4.17,7.6-10.24,7.7-10.5l0.42-1.06l-1.11,0.22c-0.27,0.05-6.73,1.38-11.79,5.56
	c-1.06,0.87-2.18,2.15-2.97,3.47c0.17-3.46,0.63-6.85,1.35-10.14c0.24,0.18,0.51,0.32,0.83,0.43c1.66,0.55,4.38,0.03,7.1-1.33
	c5.72-2.89,9.45-8.15,9.6-8.37l0.65-0.93l-1.13-0.03c-0.27,0-6.72-0.13-12.44,2.76c-1.07,0.53-2.25,1.38-3.23,2.31
	c1-3.22,2.28-6.32,3.78-9.29c1.14,1.43,4.3,1.57,7.96,0.24c5.89-2.11,10.13-6.71,10.31-6.89l0.77-0.86l-1.14-0.16
	c-0.26-0.04-6.47-0.89-12.37,1.23c-0.84,0.31-1.77,0.77-2.64,1.32c1.24-1.96,2.59-3.86,4.04-5.66c0.33,0.15,0.72,0.23,1.16,0.22
	c1.69-0.06,3.98-1.43,5.98-3.57c4.21-4.51,5.82-10.51,5.89-10.76l0.29-1.09l-1.07,0.36c-0.25,0.08-6.12,2.11-10.32,6.63
	c-1.91,2.05-3.69,5.61-2.81,7.38h-0.01c-1.48,1.83-2.84,3.76-4.11,5.76c0.09-0.84,0.12-1.69,0.06-2.43
	c-0.48-6.24-3.8-11.56-3.94-11.8l-0.62-0.97l-0.45,1.05c-0.11,0.25-2.58,6.01-2.09,12.24c0.33,4.26,2,7.26,4.01,7.24
	c-1.42,2.81-2.62,5.71-3.6,8.74c-0.15-0.85-0.37-1.74-0.69-2.65c-2.1-6.06-6.81-10.45-7.01-10.63l-0.83-0.77l-0.18,1.12
	c-0.04,0.25-1.03,6.64,1.07,12.69c1.05,3.04,3.85,6.81,6,6.07c0.01,0,0.02-0.01,0.03-0.01c-0.75,3.34-1.22,6.79-1.41,10.31
	c-0.44-1.27-1.1-2.55-1.78-3.51c-3.8-5.34-9.69-8.28-9.94-8.41l-1.01-0.5l0.14,1.12c0.04,0.27,0.89,6.81,4.7,12.15
	c1.81,2.53,4.02,4.28,5.78,4.57c0.72,0.12,1.35,0,1.84-0.35c0.08-0.06,0.13-0.15,0.21-0.23c0.08,3.39,0.42,6.71,1.02,9.95
	c-0.85-1.17-1.91-2.27-2.93-3.05c-5.54-4.28-12.48-5.5-12.77-5.54l-1.11-0.18l0.46,1.02c0.12,0.27,3.03,6.69,8.57,10.99
	c2.62,2.03,5.42,3.13,7.31,2.9c0.72-0.1,1.29-0.39,1.68-0.85c0.85,3.05,1.91,6.01,3.17,8.85c-1.21-1.04-2.64-1.97-3.94-2.52
	c-6.79-3-14.23-2.45-14.54-2.44l-1.13,0.1l0.69,0.89c0.19,0.24,4.82,6.11,11.61,9.09c4.59,2.02,8.75,1.92,9.76-0.21
	c1.49,2.7,3.2,5.28,5.06,7.72c-1.58-0.74-3.44-1.27-5.01-1.44c-7.56-0.85-14.66,1.95-14.96,2.06l-1.05,0.42l0.93,0.64
	c0.27,0.18,6.58,4.5,14.14,5.34c3.57,0.39,6.77-0.15,8.39-1.43c0.52-0.42,0.87-0.93,1.01-1.47c2.35,2.59,4.92,4.96,7.66,7.12
	c-1.97-0.21-4.24-0.01-6,0.45c-7.7,2.04-13.59,7.46-13.84,7.69l-0.82,0.77l1.1,0.27c0.33,0.08,8.13,1.9,15.84-0.14
	c3.63-0.95,6.56-2.7,7.64-4.56c0.26-0.45,0.4-0.89,0.44-1.33c2.91,1.93,6,3.6,9.22,5.01c-2.08,0.21-4.44,0.97-6.18,1.91
	c-7.16,3.83-11.72,10.6-11.92,10.89l-0.63,0.94l1.12,0c0.35,0,8.51-0.04,15.68-3.86c4.08-2.19,6.67-5.12,6.67-7.35
	c0-0.23-0.04-0.46-0.1-0.67c5.77,2.01,11.92,3.2,18.31,3.45c-1.01,1.78-3.77,6.68-3.77,6.68l6.14,10.29l6.15-10.29
	c0,0-2.78-4.9-3.8-6.68c6.42-0.25,12.58-1.46,18.37-3.48c-0.06,0.24-0.1,0.47-0.1,0.72c0,0.32,0.05,0.66,0.16,1
	c0.64,2.1,3.13,4.51,6.5,6.33c7.17,3.82,15.33,3.86,15.68,3.86l1.13,0l-0.62-0.94c-0.19-0.29-4.75-7.06-11.92-10.89
	c-1.76-0.94-4.13-1.7-6.22-1.91c3.23-1.43,6.33-3.1,9.25-5.03c0.17,2.25,3.42,4.69,8.08,5.92c7.71,2.04,15.51,0.22,15.84,0.14
	l1.09-0.27l-0.82-0.77c-0.24-0.23-6.13-5.66-13.84-7.69c-1.79-0.48-4.08-0.66-6.05-0.44c2.77-2.17,5.35-4.55,7.71-7.16
	c0.14,0.55,0.48,1.07,1.02,1.5c1.61,1.28,4.82,1.82,8.39,1.43c7.56-0.85,13.87-5.16,14.13-5.34l0.93-0.64l-1.05-0.42
	c-0.29-0.12-7.4-2.92-14.96-2.06c-1.59,0.17-3.47,0.69-5.05,1.44c1.87-2.44,3.58-5.03,5.09-7.76c0.27,0.6,0.79,1.08,1.53,1.36
	c1.87,0.73,5.03,0.3,8.24-1.12c6.79-2.98,11.42-8.85,11.61-9.09l0.69-0.89l-1.13-0.1c-0.32-0.01-7.76-0.56-14.55,2.44
	c-1.32,0.57-2.78,1.52-3.99,2.57c1.28-2.86,2.35-5.85,3.2-8.92C186.23,142.25,186.81,142.56,187.55,142.66z M69.52,209.26h3.03
	v-3.04h-3.03V209.26z M177.75,209.26h3.03v-3.04h-3.03V209.26z"/>
</svg>
