<svg xmlns="http://www.w3.org/2000/svg" height="250" width="250" viewBox="0 0 250.01009 250.00445"><g transform="matrix(2.2661 0 0 2.2661 -1.7999 -1.0845)"><path fill="#AE9142" d="m55.916 0.9619c-30.175 0-54.722 24.549-54.722 54.722 0 30.174 24.549 54.72 54.722 54.72 30.174 0 54.721-24.548 54.721-54.72 0-30.175-24.549-54.722-54.721-54.722z"/><path fill="#ded5ae" d="m55.916 15.837c-21.942 0-39.794 17.851-39.794 39.795 0 21.941 17.851 39.792 39.794 39.792 21.942 0 39.794-17.851 39.794-39.792 0-21.944-17.851-39.795-39.794-39.795z"/><g><path d="m55.846 19.576c-6.8977 0-12.776 4.4557-15.006 10.693l1.7891-0.08594c1.0102-2.1344 2.2844-3.9315 4.2266-5.3926l0.10938-0.08203c-1.0368 1.6394-1.3984 3.4393-1.3984 5.5371l2.041 0.03125c0-4.7144 3.542-8.752 8.1738-8.752h0.0098c4.6303 0 8.1738 4.0375 8.1738 8.752l2.0391-0.03125c0-2.0978-0.35776-3.8977-1.3945-5.5371l0.10742 0.08203c1.9422 1.4611 3.2168 3.2582 4.2285 5.3926l1.8887 0.03711c-2.245-6.211-8.107-10.644-14.989-10.644zm-11.867 0.967c-9.447 3.451-17.071 10.864-20.883 20.285l0.125-0.02734c2.6052-2.7201 5.979-4.6747 9.7617-5.5039l4.9102-6.168c1.2244-3.3934 3.349-6.3412 6.0762-8.5488l0.0098-0.03711zm23.713 0.10938 0.0098 0.03516c2.7288 2.2076 4.8514 5.1567 6.0742 8.5469l4.912 6.172c3.7859 0.82765 7.1561 2.7834 9.7598 5.502l0.13086 0.02734c-3.815-9.42-11.438-16.835-20.888-20.283zm-35.479 18.914c-7.2652 1.5916-12.709 8.1664-12.709 16.037 0 9.058 7.2139 16.4 16.113 16.4 0.58485 0 1.1632-0.03009 1.7324-0.09375l-1.1035-2.4375c-0.4832 0.05253-0.76445 0.08008-1.2617 0.08008-4.488 0-8.366-2.1324-10.863-5.4414l-0.10352-0.14844c1.509 0.97886 3.3008 1.5449 5.2227 1.5449 0.36925 0 0.62909 0.0052 0.98438-0.03516 1.049 1.1753 2.5069 1.8574 4.1875 1.8574 0.26115 0 0.51816-0.01932 0.77148-0.05273l-0.876-2.191c-1.545-0.24989-2.6799-0.75141-3.3555-2.125-0.60205 0.15916-1.2342 0.24414-1.8848 0.24414-4.1283 0-7.4707-3.4028-7.4707-7.6016 0-4.2003 3.3424-7.6055 7.4707-7.6055 1.0321 0 2.0118 0.21248 2.9062 0.59766l0.16211-2.4531c-0.91323-0.28968-1.8875-0.44531-2.8945-0.44531-1.9219 0-3.7136 0.56802-5.2227 1.5469l0.06836-0.10352c1.9453-2.5912 4.7603-4.4659 8.002-5.1758l0.125-2.3984zm47.32 0 0.125 2.3984c3.2401 0.70828 6.0563 2.5846 8 5.1758l0.06836 0.10352c-1.5106-0.97727-3.3008-1.5469-5.2227-1.5469-1.0086 0-1.9813 0.15563-2.8945 0.44531l0.16406 2.4531c0.893-0.384 1.874-0.595 2.905-0.595 4.1283 0 7.4727 3.4028 7.4727 7.6016 0 4.1987-3.3443 7.6035-7.4727 7.6035-0.65052 0-1.2812-0.08339-1.8848-0.24414-0.67554 1.3752-1.812 1.8751-3.3555 2.125l-0.875 2.1934c0.25177 0.03342 0.51034 0.05273 0.77148 0.05273 1.6816 0 3.138-0.68601 4.1855-1.8594 0.35639 0.04062 0.61595 0.03711 0.98438 0.03711 1.9219 0 3.7121-0.56997 5.2227-1.5488l-0.102 0.152c-2.4989 3.309-6.3753 5.4395-10.863 5.4395-0.49727 0-0.77891-0.02755-1.2637-0.08008v0.002l-1.1035 2.4355c0.56921 0.06525 1.1464 0.0957 1.7344 0.0957 8.8978 0 16.115-7.3463 16.115-16.404 0-7.8707-5.4457-14.444-12.711-16.035zm-57.342 29.688c3.5081 8.6837 10.554 15.801 19.006 19.531-3.2629-3.5251-5.3441-8.2798-5.3457-13.49-5.2279-0.41688-10.208-2.3791-13.596-5.9668l-0.06445-0.07422zm13.66 6.041c0.01833 0.0015 0.03636 0.0044 0.05469 0.0059l-0.05469-0.01172v0.0059zm5.3457 13.49c0.0069 0.0075 0.01262 0.016 0.01953 0.02344l0.05469 0.01172c-0.02505-0.01099-0.0492-0.02411-0.07422-0.03516zm48.09-19.424-0.06445 0.07422c-3.387 3.5854-8.3683 5.5505-13.598 5.9668-0.0016 5.2151-2.0831 9.9672-5.3477 13.494 8.4513-3.7296 15.501-10.851 19.01-19.535zm-19.01 19.535c-0.02291 0.01011-0.04543 0.02119-0.06836 0.03125l0.05078-0.01172c0.0059-0.0064 0.01164-0.01312 0.01758-0.01953zm5.348-13.494c0.000001-0.002 0-0.0039 0-0.0059l-0.05078 0.01172c0.01705-0.0013 0.03373-0.0045 0.05078-0.0059zm-3.9004 0.48047-31.871 0.10742c-0.01407 0.27695-0.02148 0.55776-0.02148 0.83789 0 8.727 7.1476 15.803 15.961 15.803 8.8149 0 15.959-7.0758 15.959-15.803 0-0.31674-0.0086-0.63176-0.02734-0.94531z" transform="translate(0 -.00062564)" stroke="#0c2340" stroke-width=".51115" fill="#AE9142"/><path d="m76.696 52.288c0 9.2096-2.7414 16.517-6.6697 22.268 0.0015 0 0 0 0 0s-0.76002-0.30083-1.9501-0.30083c-2.5193 0-3.2746 1.5296-6.2834 1.5296-1.8219 0-2.5991-0.83246-4.091-1.2686v-3.7485s-0.44569 0.65738-1.9344 0.65738c-1.4903 0-1.9329-0.65738-1.9329-0.65738l0.0015 3.7437c-1.4966 0.43295-2.2738 1.267-4.0972 1.267-3.0072 0-3.761-1.5296-6.2803-1.5296-1.1995 0-1.9642 0.30083-1.9642 0.30083s-0.01095 0.0064 0 0c-3.9299-5.7461-6.6728-13.049-6.6728-22.262l-0.0031-19.718h20.943 20.94l-0.0047 19.718zm-12.521 29.095c-0.62553 0.56187-0.90858 0.73855-1.4903 0.8627-0.2893 0.06367-0.8945 0.09073-0.8945 0.09073-2.4677 0-3.0104-1.5312-6.0238-1.5312-3.0119 0-3.5577 1.5312-6.027 1.5312 0 0-0.60207-0.02707-0.88982-0.09073-0.58174-0.12415-0.86792-0.30083-1.4934-0.8627-1.2151-1.0903-2.2722-2.2332-3.3779-3.5527 2.2628 0.0015 2.8258 1.4182 5.7611 1.4182 2.4693 0 3.015-1.5312 6.027-1.5312 3.0135 0 3.5561 1.5312 6.0238 1.5312 2.9369 0 3.4889-1.4166 5.7627-1.4182-1.1056 1.3195-2.1612 2.4624-3.3779 3.5527zm-8.4134 6.2538c-1.201-0.70194-2.3598-1.4469-3.5999-2.3318 0.968-0.4409 1.8125-1.1158 3.6046-1.1158 1.7765 0 2.6382 0.67488 3.603 1.1158-1.2417 0.88499-2.4114 1.6315-3.6077 2.3318zm0-58.482h-24.247l0.0016 22.782c0 21.722 13.355 33.351 24.245 39.702 10.89-6.352 24.246-17.981 24.246-39.703l0.0031-22.782h-24.25z" stroke="#AE9142" stroke-width=".54197" fill="#0c2340"/><path d="m52.174 52.506c-0.7363-0.02003-1.6396 0.0194-2.7363 0.16211-4.3869 0.57574-6.2402-0.02148-6.2402-0.02148v13.723s1.5818 1.0214 5.9688 0.44726c4.3869-0.57248 5.9316 0.49609 5.9316 0.49609v-14.145s-0.71493-0.60202-2.9238-0.66211zm15.902 0.0078s-1.8514 0.74077-6.2383 0.16992c-4.3869-0.57248-5.6602 0.49805-5.6602 0.49805v14.145s1.5486-1.0689 5.9355-0.49805c4.3853 0.57411 5.9629-0.44922 5.9629-0.44922v-13.865z" transform="translate(0 -.00062564)" stroke="#0c2340" stroke-width=".73012" fill="#fff"/></g><path d="m69.148 53.127v-2.0812s-2.6907 1.2005-7.307 0.53336c-4.379-0.62959-6.2046 0.58718-6.2046 0.58718s-1.8255-1.2168-6.2046-0.58718c-6.6388 0.95744-7.9623-0.82532-7.3086-0.53336v2.0812h-1.2283v15.774h12.738s0.61659 0.79433 2.0031 0.79433c1.3881 0 1.9982-0.79433 1.9982-0.79433h12.748v-15.774h-1.2348z" stroke="#0c2340" stroke-width=".73015" fill="none"/><g><path d="m66.313 46.579 2.907 1.6996v-6.9337l-2.907 1.6996-8.6064 0.0082v-6.7396l1.6883-2.9539h-7.37l1.6883 2.9539v6.7314h-8.6128l-2.9054-1.6996v6.9337l2.9054-1.6996h8.6128v3.5345s1.1621 0.13049 1.9966 0.60513c0.83126-0.47464 1.9966-0.60513 1.9966-0.60513v-3.5345h8.6064z" stroke="#AE9142" stroke-width=".52602" fill="#0c2340"/><path d="m55.914 1.8379c-29.7 0-53.861 24.161-53.861 53.861 0 29.699 24.161 53.859 53.861 53.859 29.699 0 53.859-24.161 53.859-53.859 0-29.7-24.161-53.861-53.859-53.861zm0 13.25c22.414 0 40.65 18.234 40.65 40.65 0 22.414-18.235 40.652-40.65 40.652-22.414 0-40.652-18.238-40.652-40.652 0-22.415 18.237-40.65 40.652-40.65zm-16.195 17.318s-0.84896 2.5202-1.0039 2.9785c-0.46807-0.09297-3.0566-0.61328-3.0566-0.61328s1.7377 2.0071 2.0508 2.3691c-0.31312 0.36371-2.0508 2.3691-2.0508 2.3691s2.5886-0.51868 3.0566-0.61328c0.15494 0.45668 1.0039 2.9785 1.0039 2.9785s0.85057-2.5218 1.0039-2.9785c0.46807 0.0946 3.0547 0.61328 3.0547 0.61328s-1.7377-2.0054-2.0508-2.3691c0.31312-0.36208 2.0508-2.3691 2.0508-2.3691s-2.5866 0.52032-3.0547 0.61328c-0.154-0.458-1.004-2.978-1.004-2.978zm0 2.2734c0.2066 0.61652 0.52148 1.5508 0.52148 1.5508s0.95485-0.1944 1.5859-0.31836c-0.42288 0.48767-1.0664 1.2285-1.0664 1.2285s0.64353 0.7428 1.0664 1.2305c-0.63109-0.12722-1.5859-0.31836-1.5859-0.31836s-0.31489 0.9333-0.52148 1.5449c-0.2066-0.61162-0.52148-1.5449-0.52148-1.5449s-0.95519 0.19114-1.5879 0.31836c0.42288-0.48767 1.0664-1.2305 1.0664-1.2305s-0.64192-0.74085-1.0664-1.2285c0.63431 0.12396 1.5879 0.31836 1.5879 0.31836s0.31489-0.93426 0.52148-1.5508zm9.416 20.689c-0.01777 0-0.03657 0.0042-0.04297 0.01563-0.02582 0.13863-0.08226 0.38627-0.14844 0.60156 0.01776 0.03752 0.0956 0.05149 0.12305 0.02539 0.14203-0.32456 0.2435-0.36719 0.59375-0.36719h0.21484c0.09848 0 0.10156 0.01105 0.10156 0.17578v1.7109c0 0.4208-0.0373 0.43194-0.21484 0.45312l-0.16 0.017c-0.02581 0.02121-0.02251 0.0973 0.0098 0.11523 0.2421-0.01138 0.42326-0.01367 0.58789-0.01367 0.16786 0.000001 0.33781 0.0023 0.56055 0.01367 0.029-0.01794 0.03169-0.08752 0.0059-0.11523l-0.13672-0.01563c-0.17754-0.0212-0.21094-0.03233-0.21094-0.45312v-1.7109c0-0.16472-0.0014-0.17578 0.10352-0.17578h0.21289c0.40835 0 0.48087 0.07846 0.5293 0.38672 0.03228 0.02773 0.10171 0.01928 0.12109-0.01172-0.01453-0.12885 0.01884-0.46744 0.05273-0.62891-0.0032-0.01629-0.02463-0.02148-0.04883-0.02148-0.0129 0-0.03007 0.0058-0.04297 0.01563-0.04842 0.09459-0.10413 0.10547-0.29297 0.10547h-1.5508c-0.25663 0-0.3107-0.006-0.33008-0.10547-0.0081-0.01138-0.02096-0.01563-0.03711-0.01563zm3.3984 0.05469c-0.0081 0-0.13981 0.16368-0.27539 0.19141 0.0097 0.06524-0.02451 0.16152-0.07617 0.28711l-0.53516 1.4121c-0.08232 0.21203-0.14783 0.37967-0.19141 0.48242-0.05811 0.13048-0.10093 0.16793-0.21875 0.1875l-0.115 0.016c-0.02745 0.03425-0.02545 0.09403 0.002 0.11523 0.14042-0.0098 0.26278-0.01367 0.38867-0.01367 0.1614 0.0049 0.28723 0.0039 0.41797 0.01367 0.03068-0.01794 0.03556-0.08751 0.0098-0.11523l-0.11523-0.01563c-0.14688-0.02284-0.16146-0.03467-0.08398-0.26953l0.14062-0.41797c0.04035-0.10438 0.04905-0.10352 0.15234-0.10352h0.51953c0.11137 0 0.1452-0.000866 0.18555 0.10352l0.16016 0.48047c0.05165 0.17289 0.03852 0.19561-0.10352 0.20703l-0.084 0.017c-0.0226 0.02445-0.02056 0.09403 0.01172 0.11523 0.13397-0.0082 0.31422-0.01367 0.48047-0.01367 0.20014 0 0.34607 0.0039 0.50586 0.01367 0.03068-0.02119 0.03122-0.08751-0.0059-0.11523l-0.05664-0.01563c-0.20337-0.03425-0.21982-0.06032-0.30859-0.32617l-0.5625-1.6602c-0.06618-0.17778-0.11479-0.36193-0.17774-0.54297-0.0129-0.01794-0.0354-0.03125-0.06445-0.03125zm13.594 0.002c-0.74407 0-1.2734 0.59858-1.2734 1.4043 0 0.70296 0.46345 1.334 1.2656 1.334 0.71986 0 1.25-0.57877 1.25-1.3633 0-0.71927-0.42065-1.375-1.2422-1.375zm-21.459 0.05273c-0.0339 0.0098-0.03432 0.08002-0.01172 0.10938l0.0918 0.01758c0.1614 0.03425 0.19621 0.08766 0.30273 0.35352l0.672 1.666c0.07263 0.16799 0.13127 0.36001 0.17969 0.52148 0.01938 0.01142 0.04645 0.01758 0.07227 0.01758 0.03068 0 0.05995-0.0061 0.06641-0.01758 0.06618-0.20224 0.2474-0.66657 0.40234-1.0254l0.21484-0.49219c0.17754-0.40122 0.28478-0.66464 0.39453-0.85547 0.06779-0.11417 0.14985-0.14254 0.24024-0.16211l0.09961-0.01953c0.01615-0.03425 0.02449-0.09534-0.0078-0.11328-0.10814 0.0049-0.23781 0.0098-0.375 0.0098-0.12751 0-0.25818-0.0049-0.41797-0.0098-0.02745 0.01794-0.03486 0.07903-0.0059 0.11328l0.11133 0.02539c0.1146 0.02936 0.12936 0.06217 0.06641 0.21875-0.20498 0.54149-0.43505 1.0878-0.64648 1.582-0.03713-0.08808-0.14154-0.32222-0.21094-0.5l-0.2793-0.70312c-0.15495-0.40449-0.1875-0.49016-0.1875-0.5293 0-0.031 0.03164-0.0491 0.11719-0.07031l0.0957-0.02344c0.03551-0.031 0.02959-0.09208-0.0059-0.11328-0.20337 0.0049-0.33706 0.0098-0.50976 0.0098-0.15011 0-0.31542-0.0049-0.46875-0.0098zm2.9902 0c-0.03067 0.01305-0.03201 0.08228-0.0078 0.11328l0.08203 0.0078c0.18077 0.0261 0.21484 0.04014 0.21484 0.46094v1.4707c0 0.41917-0.03407 0.43194-0.21484 0.45312l-0.082 0.016c-0.0242 0.02772-0.02287 0.0973 0.0078 0.11523 0.16463-0.0098 0.34097-0.01367 0.51367-0.01367 0.16624 0.000001 0.33834 0.0039 0.50781 0.01367 0.02903-0.01794 0.0294-0.08752 0.002-0.11523l-0.08008-0.01563c-0.18077-0.0212-0.21484-0.03396-0.21484-0.45312v-1.4707c0-0.4208 0.03407-0.43484 0.21484-0.46094l0.08008-0.0078c0.02748-0.03099 0.0271-0.10025-0.002-0.11328-0.16947 0.0049-0.34157 0.0098-0.50781 0.0098-0.17754 0-0.34904-0.0049-0.51367-0.0098zm12.236 0c-0.0339 0.01305-0.03396 0.08392-0.0098 0.11328l0.05859 0.0059c0.184 0.02936 0.2168 0.04014 0.2168 0.46094v1.4727c0 0.4208-0.0328 0.43194-0.2168 0.45312l-0.138 0.016c-0.02581 0.02609-0.01928 0.0973 0.0098 0.11523 0.17109-0.01138 0.40373-0.01367 0.56836-0.01367h0.43359c0.22597 0 0.35906 0.000607 0.51562 0.0039 0.15979 0 0.22789 0.0016 0.30859 0.0098 0.05649-0.11091 0.14019-0.40818 0.16602-0.57617-0.02582-0.04077-0.09237-0.0541-0.12305-0.02148-0.13558 0.31804-0.16389 0.43398-0.64648 0.42578-0.31796 0-0.32268-0.02885-0.37109-0.08594-0.05808-0.0685-0.06641-0.21345-0.06641-0.41406v-0.45312c0-0.09947 0.0043-0.10938 0.08984-0.10938h0.12695c0.32926 0 0.39963 0.01073 0.42383 0.17383l0.0293 0.16016c0.02583 0.01958 0.09944 0.01862 0.11719-0.0059-0.0065-0.12558-0.01367-0.26564-0.01367-0.41406 0-0.15168 0.0073-0.28948 0.01367-0.40039-0.01775-0.02775-0.09136-0.0264-0.11719-0.002l-0.0293 0.13086c-0.02421 0.17615-0.09457 0.17773-0.42383 0.17773h-0.12695c-0.08549 0-0.08984-0.0011-0.08984-0.10547v-0.71484c0-0.22506-0.000909-0.23633 0.16211-0.23633h0.19922c0.10168 0 0.2166 0.01101 0.30859 0.03711 0.11782 0.03262 0.17856 0.13071 0.23828 0.35742 0.02582 0.0261 0.10554 0.02058 0.11524-0.01367-0.01776-0.16962-0.04049-0.48327-0.05664-0.54688-0.04842 0.0049-0.27258 0.01172-0.51953 0.01172h-0.66406c-0.08231 0-0.17091 0.000641-0.25-0.0059-0.08877 0-0.16887-0.0026-0.23828-0.0059zm3.0801 0.002c-0.3567 0-0.57769 0.0097-0.83594 0.0293-0.03068 0.02284-0.03014 0.09013-0.0059 0.11133l0.07617 0.0098c0.1727 0.02284 0.17188 0.06952 0.17188 0.45117v1.4473c0 0.4208-0.02976 0.43388-0.19922 0.45508l-0.081 0.016c-0.0226 0.02774-0.01608 0.09729 0.0098 0.11523 0.15979-0.0098 0.32111-0.01367 0.45508-0.01367 0.07102 0 0.14365 0.0039 0.23242 0.01367 0.08877 0.0016 0.11715 0.0098 0.22852 0.0098 0.32765 0 0.57701-0.04756 0.83203-0.18945 0.4487-0.24954 0.65039-0.70189 0.65039-1.1406 0-0.58716-0.3064-1.0114-0.74219-1.1875-0.26147-0.10112-0.45045-0.12695-0.79102-0.12695zm-4.2012 0.01367c-0.34056 0-0.68147 0.10796-0.93164 0.31836-0.25017 0.21529-0.42774 0.55735-0.42774 0.99609 0 0.49419 0.2077 0.83649 0.48047 1.0371 0.2421 0.17288 0.53113 0.24805 0.86524 0.24805 0.21951 0 0.45114-0.06179 0.52539-0.08789 0.04035-0.0098 0.07845-0.02866 0.11719-0.03516 0.04681-0.07176 0.13596-0.31882 0.16016-0.56836-0.01453-0.03426-0.07021-0.05346-0.09766-0.01758-0.09361 0.24465-0.27898 0.5625-0.70508 0.5625-0.43579 0-0.88281-0.39612-0.88281-1.1953 0-0.7682 0.43327-1.1074 0.85938-1.1074 0.44547 0 0.59458 0.31396 0.6543 0.54883 0.02421 0.02612 0.0845 0.02514 0.10547-0.0059-0.03066-0.28053-0.03878-0.50014-0.04687-0.58984-0.03067-0.0081-0.05178-0.01006-0.09375-0.02148-0.15495-0.04567-0.39158-0.08203-0.58203-0.08203zm7.3047 0.08789c0.56653 0 0.80664 0.69733 0.80664 1.291 0 0.79593-0.32501 1.1328-0.72852 1.1328-0.6101 0-0.81836-0.743-0.81836-1.291 0-0.84323 0.38838-1.1328 0.74023-1.1328zm-3.078 0.055c0.59881 0 1.0156 0.37696 1.0156 1.1582 0 0.6736-0.29248 1.1699-0.93164 1.1699-0.38091 0-0.28516-0.20493-0.28516-0.58984v-1.3926c0-0.18757 0.0058-0.27014 0.0332-0.29297 0.02097-0.02445 0.01463-0.05273 0.16797-0.05273zm-10.686 0.42578h0.0098c0.01615 0.02936 0.03963 0.10242 0.10742 0.31445l0.16602 0.4707c0.04842 0.1419 0.0189 0.16406-0.0957 0.16406h-0.4043c-0.09362 0-0.13224-0.0039-0.06445-0.17188l0.16602-0.46289c0.06941-0.18593 0.09909-0.2851 0.11523-0.31445zm6.9199 3.7812c-0.55362 0-0.83789 0.3348-0.83789 0.72461 0 0.35556 0.2482 0.5934 0.53711 0.75977l0.16406 0.0957c0.28407 0.16799 0.38477 0.34978 0.38477 0.57812 0 0.23976-0.16132 0.42188-0.45508 0.42188-0.36638 0-0.57317-0.42276-0.64258-0.625-0.02583-0.02775-0.09299-0.02548-0.11719 0.01367-0.0016 0.24791 0.04778 0.52033 0.11719 0.60352 0.07424 0.04893 0.26924 0.16992 0.62109 0.16992 0.54877-0.000001 0.87891-0.32654 0.87891-0.77344 0-0.40122-0.27029-0.65045-0.51562-0.7793l-0.23828-0.13476c-0.254-0.133-0.362-0.315-0.362-0.48 0-0.212 0.125-0.418 0.431-0.418 0.3228 0 0.45752 0.26715 0.51562 0.47266 0.03228 0.02771 0.10012 0.02253 0.12109-0.01172 0-0.18756-0.04168-0.4474-0.08203-0.53711-0.17754-0.03099-0.32101-0.08008-0.51953-0.08008zm6.6719 0c-0.55523 0-0.83789 0.3348-0.83789 0.72461 0 0.35556 0.25176 0.5934 0.53906 0.75977l0.16797 0.0957c0.27761 0.16799 0.38476 0.34978 0.38476 0.57812 0 0.23976-0.16939 0.42188-0.45508 0.42188-0.37445 0-0.57386-0.42276-0.64648-0.625-0.03228-0.02775-0.09426-0.02548-0.11524 0.01367-0.0065 0.24791 0.04031 0.52033 0.11133 0.60352 0.07747 0.04893 0.27348 0.16992 0.62695 0.16992 0.55038-0.000001 0.88086-0.32654 0.88086-0.77344 0-0.40122-0.27615-0.65045-0.52148-0.7793l-0.23828-0.13476c-0.25-0.133-0.36-0.315-0.36-0.48 0-0.212 0.125-0.418 0.428-0.418 0.3228 0 0.45879 0.26715 0.51367 0.47266 0.03551 0.02771 0.10494 0.02253 0.12109-0.01172 0-0.18756-0.0365-0.4474-0.08008-0.53711-0.17593-0.03099-0.32262-0.08008-0.51953-0.08008zm-19.549 0.05273c-0.34702 0-0.63298 0.01038-0.88477 0.0332-0.03068 0.01794-0.03209 0.09175-0.0078 0.11133l0.07422 0.0098c0.16625 0.02119 0.17383 0.07083 0.17383 0.44922v1.4512c0 0.41917-0.03459 0.43061-0.19922 0.45508l-0.07813 0.0098c-0.0226 0.02936-0.02314 0.10219 0.0059 0.11523 0.15818-0.0082 0.31525-0.0098 0.44922-0.0098 0.06779 0 0.14526 0.0016 0.23242 0.0098 0.08393 0.0065 0.17668 0.01367 0.2832 0.01367 0.32281 0 0.63068-0.05277 0.88086-0.19141 0.44063-0.25117 0.63867-0.70156 0.63867-1.1387 0-0.59205-0.3047-1.0107-0.73242-1.1836-0.25663-0.10601-0.49699-0.13477-0.83594-0.13477zm1.8125 0c-0.0323 0.01468-0.0356 0.07971-0.0098 0.10742l0.06641 0.01563c0.18077 0.02446 0.21289 0.03786 0.21289 0.45703v1.0059c0 0.39796 0.07925 0.67672 0.25195 0.84961 0.17754 0.17289 0.422 0.25195 0.78516 0.25195 0.25663 0 0.54494-0.07832 0.74024-0.29688 0.19692-0.22182 0.25-0.55198 0.25-0.91406v-0.47656c0-0.30663 0.0018-0.65959 0.05664-0.77539 0.02582-0.06362 0.095-0.08167 0.16602-0.09961l0.08398-0.01563c0.03064-0.02936 0.02287-0.09144-0.0078-0.10938-0.14042 0.0049-0.2429 0.0098-0.4043 0.0098-0.14688 0-0.29207-0.0049-0.41797-0.0098-0.04038 0.0098-0.04493 0.08003-0.0078 0.10938l0.07422 0.01367c0.09684 0.01305 0.15717 0.03959 0.18945 0.10156 0.06952 0.11254 0.07227 0.48344 0.07227 0.77539v0.5c0 0.60184-0.20601 0.99219-0.70312 0.99219-0.5294 0-0.68555-0.46111-0.68555-1.0059v-0.90625c0-0.41916 0.03144-0.43258 0.20898-0.45703l0.08398-0.01563c0.02902-0.02773 0.02287-0.09274-0.0078-0.10742-0.16463 0.0049-0.33707 0.0098-0.50977 0.0098-0.16625 0-0.33495-0.0049-0.48828-0.0098zm2.9355 0c-0.03551 0.01468-0.03522 0.09403-0.0078 0.11524l0.10742 0.0098c0.17916 0.031 0.21094 0.04244 0.21094 0.45508v1.4746c0 0.41264-0.03178 0.42248-0.21094 0.44531l-0.11328 0.01953c-0.03551 0.02284-0.02474 0.10219 0.0059 0.11523 0.15818-0.0082 0.34894-0.0098 0.54102-0.0098h0.39453c0.21628 0 0.40688 0.000354 0.55859 0.002 0.15656 0 0.27766 0.0029 0.35352 0.0078 0.05004-0.10601 0.1334-0.4059 0.16406-0.57227-0.0226-0.031-0.07717-0.04335-0.11914-0.02539-0.17432 0.40938-0.23728 0.42969-0.66016 0.42969-0.30505 0-0.36429-0.03114-0.40625-0.08984-0.05972-0.06687-0.0625-0.20694-0.0625-0.4043v-1.3926c0-0.41264 0.02821-0.42409 0.20898-0.45508l0.08398-0.0098c0.03068-0.02119 0.02796-0.10055-0.0059-0.11524-0.17109 0.0049-0.34029 0.0098-0.50977 0.0098-0.17109 0-0.34436-0.0049-0.5332-0.0098zm10.061 0c-0.34702 0-0.57744 0.0038-0.84375 0.0332-0.029 0.01631-0.02846 0.08523-0.0059 0.11133l0.13672 0.01758c0.15812 0.01957 0.16211 0.08096 0.16211 0.44141v1.4512c0 0.41754-0.0305 0.42932-0.21289 0.45703l-0.05859 0.0078c-0.0307 0.02935-0.02677 0.1022 0.0039 0.11523 0.15818-0.0082 0.3279-0.0098 0.49414-0.0098 0.16463 0 0.33458 0.0016 0.56055 0.0098 0.02748-0.01305 0.03041-0.08588 0.0078-0.11523l-0.14062-0.01758c-0.17916-0.01794-0.21094-0.02973-0.21094-0.44727v-1.7305c0-0.15494 0.00061-0.16797 0.18945-0.16797 0.35186 0 0.54883 0.27895 0.54883 0.60352s-0.12827 0.58579-0.47852 0.6543c-0.01293 0.02609-0.01147 0.07711 0.01758 0.10156 0.02906 0.0049 0.05985 0.0039 0.09375 0.0039 0.29859 0 0.85156-0.16802 0.85156-0.77148 0-0.2577-0.12536-0.46784-0.32227-0.5918-0.17109-0.10602-0.43788-0.15625-0.79297-0.15625zm1.4316 0c-0.03551 0.01303-0.03789 0.0875-0.01367 0.11524l0.06641 0.0059c0.17593 0.02448 0.20898 0.04014 0.20898 0.46094v1.4727c0 0.41753-0.03306 0.42932-0.20898 0.44727l-0.14453 0.01758c-0.02582 0.02936-0.02413 0.10219 0.0098 0.11523 0.16786-0.0082 0.39855-0.0098 0.56641-0.0098h0.43359c0.22919 0 0.41604 0.000354 0.57422 0.002 0.15817 0 0.23834 0.0012 0.32226 0.0078 0.05649-0.10601 0.13561-0.40753 0.1582-0.57227-0.0226-0.04241-0.08788-0.05313-0.125-0.02539-0.12912 0.32131-0.16584 0.43394-0.64844 0.42578-0.31958 0-0.38611-0.02721-0.42969-0.08594-0.05811-0.06688-0.06836-0.20596-0.06836-0.4082v-0.44531c0-0.09786 0.0062-0.10547 0.0918-0.10547h0.17969c0.33572 0 0.40157 0.0075 0.42578 0.17383l0.02539 0.1582c0.02905 0.02774 0.10495 0.02713 0.12109-0.0039 0-0.12396-0.0098-0.26466-0.0098-0.41797 0-0.1419 0.0098-0.28493 0.0098-0.39258-0.01615-0.03262-0.09204-0.03297-0.12109-0.002l-0.02539 0.13086c-0.0242 0.17289-0.09006 0.17383-0.42578 0.17383h-0.17969c-0.08555 0-0.0918-0.00041-0.0918-0.10156v-0.73242c0-0.22834-0.000568-0.23633 0.16406-0.23633h0.25586c0.10168 0 0.2188 0.0071 0.30273 0.0332 0.12105 0.03425 0.18086 0.13331 0.24219 0.36328 0.03068 0.0261 0.10818 0.01668 0.12109-0.01758-0.0242-0.17126-0.04508-0.48-0.06445-0.54688-0.04519 0.0033-0.26961 0.0098-0.51172 0.0098h-0.72656c-0.08071 0-0.16769 0.00064-0.25-0.0059-0.08716 0-0.16981-0.0022-0.23438-0.0039zm-16.158 0.1582c0.59235 0 1.0039 0.38086 1.0039 1.1621 0 0.67034-0.29011 1.1719-0.91797 1.1719-0.37607 0-0.40234-0.2121-0.40234-0.59375v-1.3926c0-0.18594 0.0015-0.27046 0.02734-0.29492 0.0242-0.02119 0.14057-0.05273 0.28906-0.05273zm6.5625 0.75391s-0.32054-0.0244-0.38672 0.43555l-0.0078 0.03125 0.11719-0.002 0.0098-0.02539c0.03551-0.10438 0.08367-0.23047 0.24023-0.23047 0.05326 0 0.11297 0.01613 0.26953 0.08789l0.04102 0.01953c0.3099 0.14516 0.34856 0.15983 0.45508 0.1582 0.16302 0.0065 0.35843-0.12892 0.40039-0.43555l0.002-0.03125-0.11914 0.002-0.0039 0.01953c-0.0339 0.16799-0.11307 0.24805-0.24219 0.24805-0.07102-0.0033-0.09341-0.01115-0.36133-0.13672-0.24856-0.1158-0.32852-0.14062-0.41406-0.14062z" transform="translate(0 -.00062564)" fill="#0c2340"/><path d="m55.656 77.689c-3.1086 0-3.6718 1.5684-6.2188 1.5684-3.0311 0-3.6121-1.4486-5.9492-1.4551 1.1411 1.3521 2.2329 2.5267 3.4902 3.6406 0.644 0.57737 0.93703 0.75624 1.5391 0.88672 0.29537 0.06689 0.91992 0.0918 0.91992 0.0918 2.5469 0 3.1101-1.5684 6.2188-1.5684 3.1086 0 3.6702 1.5684 6.2188 1.5684 0 0 0.62328-0.02493 0.92188-0.0918 0.60042-0.13048 0.8915-0.30935 1.5371-0.88672 1.2573-1.114 2.3452-2.2885 3.4863-3.6406-2.3436 0.0065-2.9142 1.4551-5.9453 1.4551-2.5486 0-3.1101-1.5684-6.2188-1.5684zm-0.03906 6.5781c-1.8497 0-2.7184 0.68916-3.7207 1.1426 1.2815 0.90847 2.4756 1.6694 3.7168 2.3887 1.2363-0.71764 2.4427-1.4818 3.7227-2.3887-0.99586-0.45342-1.882-1.1426-3.7188-1.1426z" transform="translate(0 -.00062564)" stroke="#AE9142" stroke-width=".52569" fill="#ded5ae"/></g><path d="m54.217 4.584c-0.72509 0.023749-0.88868 0.041876-1.1914 0.078125-0.33811 0.036249-0.88576 0.10719-1.2129 0.11719-0.17574 0-0.80892-0.013283-1.291-0.050781l0.01367 0.3125c0.2937 0.054688 0.36436 0.080442 0.63281 0.1875 0.13187 0.77635 0.16774 1.5682 0.19336 2.3477l0.07617 2.3125c0.02375 0.70185 0.000237 1.6413-0.04102 2.332-0.17211 0.08375-0.29901 0.15095-0.625 0.22656l0.01367 0.3125c0.33699-0.03625 0.95472-0.12267 1.4453-0.13867 0.35286-0.0125 1.3029 0.07578 2.0977 0.05078 2.3278-0.07625 3.5747-2.0036 3.5039-4.1738-0.092-2.7931-2.108-3.9625-3.616-3.9143zm8.1445 0.35938c-1.7116 0.09541-3.2773 1.3881-3.5977 3.5938-0.31737 2.1747 0.90731 4.3353 3.2461 4.6758 2.6634 0.38698 4.1716-1.8636 4.4219-3.5742 0.32711-2.2515-1.0848-4.335-3.332-4.6621-0.24733-0.036015-0.49376-0.046834-0.73828-0.033203zm-8.8066 0.27344c2.6903-0.087497 3.1115 2.4349 3.1445 3.4219 0.07 2.1568-0.95442 3.374-2.8965 3.4375-0.79459 0.02625-1.1509-0.13178-1.2754-0.71289-0.11-0.49123-0.17623-1.815-0.19336-2.3594l-0.04492-1.3262c-0.02375-0.74147-0.02242-1.4429-0.01367-2.2754 0.26724-0.059998 0.74219-0.16792 1.2793-0.18555zm-8.1211 0.25586-0.24024 0.056641-0.19726 0.27734c-0.43698-0.013749-0.82468-0.026557-1.291 0.085937-1.239 0.30087-1.8319 1.3804-1.5684 2.4668 0.33199 1.3634 1.6314 1.7585 2.8105 2.0996 0.67372 0.19774 1.1592 0.41364 1.3496 1.1973 0.22224 0.90884-0.26613 1.6703-1.084 1.8691-0.22837 0.055-1.3431 0.27341-2.1719-1.1035l-0.29688 0.07227c0.5396 1.1799 0.56403 1.2277 0.72266 1.6836 0.55298 0.09375 1.188 0.03234 1.7227-0.09766 1.3414-0.32537 2.4112-1.3223 2.0547-2.7871-0.357-1.4648-1.639-1.8365-2.247-2.0098-0.984-0.2832-1.824-0.5189-2.045-1.4277-0.15011-0.61948 0.09151-1.2542 0.99023-1.4727 1.1598-0.28199 1.7584 0.69585 1.9453 0.91797l0.25-0.060547c-0.263-0.4968-0.563-1.2806-0.704-1.7676zm16.984 0.054688c0.17037-0.013386 0.34392-0.00767 0.51758 0.017578 1.9567 0.28374 2.5911 2.5829 2.3555 4.2031-0.22824 1.5685-1.3102 3.16-3.0703 2.9043-1.7834-0.25937-2.5912-2.3481-2.3164-4.2383 0.25735-1.7676 1.321-2.793 2.5137-2.8867zm6.7285 0.67969-0.05859 0.1582c0.22087 0.28449 0.29202 0.40707 0.38476 0.74219l-1.3516 3.0098c-0.4736 1.0583-0.96437 2.1268-1.5234 3.1426-0.17937 0.01875-0.27515 0.03953-0.60352 0.01953l0.002 0.002-0.10352 0.29297c0.27711 0.05625 0.59173 0.11389 1.0215 0.26562 0.41748 0.14887 0.69907 0.30379 0.92969 0.42578l0.10352-0.29297c-0.32224-0.20999-0.41784-0.32689-0.51172-0.41602 0.0775-0.35761 0.12598-0.56228 0.35547-1.2129 0.33937-0.95509 0.55245-1.4163 0.69531-1.752l1.134-2.5637c0.064 0.8361 0.113 1.6823 0.131 2.5427l0.03711 1.957c0.015 0.76472-0.03374 1.6713-0.14648 2.4043l0.39844 0.14062c0.105-0.15624 0.20754-0.34012 0.41016-0.59961 0.67259-0.87884 1.7696-2.0469 2.6777-3.0352 0.20137-0.21899 1.2009-1.2171 1.4219-1.4551-0.51023 2.108-1.1632 4.263-1.6758 5.502-0.32837-0.02-0.52689-0.02219-0.8125-0.05469l-0.10547 0.29492c0.4321 0.11125 0.8684 0.21148 1.2773 0.35547 0.4076 0.14461 0.78716 0.33401 1.1387 0.5l0.104-0.294c-0.176-0.102-0.343-0.259-0.5-0.41 0.346-1.574 1.235-4.956 1.902-6.7324 0.195-0.0963 0.392-0.1638 0.623-0.1504l0.05859-0.16016c-0.36624-0.087496-0.71445-0.15626-1.1562-0.3125l-0.50781-0.17969-0.09766 0.55664-4.0059 4.2637c-0.0725-0.94971-0.09063-1.3153-0.10938-2.3145l-0.04492-2.3613c-0.0125-0.32037-0.01234-0.98155 0.03516-1.6406 0 0-0.386-0.13842-0.83398-0.31055-0.228-0.0953-0.466-0.1916-0.691-0.3265h-0.002zm-28.828 0.746c-0.4431 0.22161-0.75317 0.35848-1.3281 0.55859-0.57486 0.20024-1.0231 0.30208-1.3125 0.36133l0.10156 0.29492c0.34537-0.078747 0.65285-0.049609 0.85547-0.037109h0.002c0.55423 1.2383 0.72873 1.7409 0.83984 2.0605l0.67969 1.9531c0.46148 1.3255 0.63063 2.0915 0.73438 2.5645-0.09375 0.0875-0.18228 0.18702-0.67188 0.45312l0.10156 0.29492c0.40273-0.19524 0.70968-0.3422 1.2285-0.52344 0.47598-0.16599 0.95314-0.29099 1.4121-0.39648l-0.10352-0.29297c-0.17461 0.03375-0.58939 0.08147-0.875 0.08398-0.278-0.59-0.509-1.212-0.726-1.838l-0.746-2.15c-0.496-1.4247-0.673-2.215-0.77-2.5959 0.0875-0.071247 0.36803-0.3333 0.68164-0.49805l-0.104-0.2929zm-3.8281 1.166-0.26367 0.12695-0.03125 0.17383c-0.65922 0.38573-1.4869 0.79794-2.2363 1.1562-1.7089 0.81835-1.8844 0.8853-2.6191 1.166l-0.1582-0.08399-0.27344 0.13281c0.0925 0.14224 0.22708 0.3384 0.36133 0.61914 0.21849 0.45786 0.38306 0.88186 0.51367 1.209h0.002l0.23242-0.10938c-0.33199-1.2109 0.15533-1.5451 1.5762-2.1816 0.41135 0.72509 0.80448 1.4895 1.084 2.0762l0.71289 1.4902c0.41386 0.86722 0.78662 1.7526 1.1113 2.6484l-0.01172 0.03516c-0.16111 0.17699-0.35542 0.34135-0.56055 0.51172l0.13476 0.28125c0.21124-0.1295 0.84694-0.50606 1.0801-0.61719 0.35761-0.17087 1.0842-0.44596 1.3906-0.56445l-0.13476-0.2793c-0.25999 0.054-0.53451 0.09728-0.8125 0.11328-0.44198-0.70897-0.99525-1.7553-1.3652-2.5293l-0.71289-1.4883c-0.328-0.693-0.665-1.426-0.926-2.1369 0.157-0.1037 0.362-0.2168 0.711-0.3828 0.59-0.2832 1.305-0.4957 1.885 0.5527l0.263-0.1249c-0.132-0.1959-0.364-0.5173-0.712-1.2442-0.145-0.3052-0.188-0.417-0.239-0.5508zm41.611 1.582-0.14648 0.27734c0.29287 0.19711 0.48267 0.44203 0.61328 0.59766-0.52248 1.2529-0.76758 1.7263-0.92383 2.0254l-0.95508 1.8301c-0.64935 1.245-1.0946 1.8938-1.3691 2.293-0.12699-0.0125-0.26129-0.0014-0.79102-0.17969l-0.14453 0.27734c0.41748 0.15987 0.73764 0.28199 1.2246 0.53711 0.44561 0.23311 0.86408 0.49274 1.2559 0.75586l0.14453-0.27539c-0.14412-0.10375-0.46674-0.37434-0.66211-0.58008 0.23687-0.6091 0.53474-1.2013 0.83984-1.7891l1.0547-2.0176c0.69822-1.3365 1.1521-2.0064 1.3633-2.3359 0.11124 0.015 0.49434 0.03805 0.83008 0.1543l0.14453-0.27734c-0.465-0.169-0.777-0.303-1.316-0.584-0.54-0.282-0.921-0.5392-1.162-0.7088zm3.8066 1.9395-0.11133 0.16016c0.02 0.21924 0.05484 0.64066 0.05859 0.73828-0.51273 0.79947-1.1155 1.71-1.4707 2.2227-0.42236 0.6091-1.996 2.777-2.416 3.2598-0.26237-0.05375-0.28083-0.05129-0.66406-0.17578l-0.17578 0.25781c0.25261 0.12811 0.5498 0.27126 0.92578 0.53125 0.37348 0.26074 0.67213 0.52757 0.89062 0.72656l0.17774-0.25586c-0.32837-0.30637-0.39967-0.44935-0.4668-0.55859 0.105-0.21237 0.22707-0.42796 0.35156-0.62695 0.51273-0.86296 1.6251-2.5279 1.8398-2.8379 0.39298-0.56523 0.82878-1.1332 1.0898-1.4902l0.21875 3.584c0.21486 2.3174 0.11719 2.5815 0.13281 3.0508 0 0.17761-0.08281 1.0818-0.10156 1.2734 0.14411 0.10125 0.44359 0.37115 0.64258 0.55664 0.46998-1.0669 0.99228-1.7811 1.8125-2.9219l1.0469-1.4512c0.0125-0.0125 0.85919-1.1766 1.4414-1.832 0.23799 0.06875 0.37307 0.09859 0.61719 0.2207l0.17773-0.25586c-0.25387-0.12824-0.59203-0.301-0.94726-0.54688-0.34661-0.23987-0.61359-0.48942-0.7832-0.6543l-0.17773 0.25586c0.12 0.115 0.20088 0.20463 0.42188 0.5-0.48348 0.88258-1.2235 2.0139-1.8008 2.8477-0.30399 0.43748-0.87915 1.2223-1.2148 1.6855-0.09125-0.79097-0.21004-1.7876-0.33203-3.707-0.07125-1.1896-0.16416-2.5347 0.0332-3.5996l-0.126-0.089c-0.26-0.18-0.455-0.348-0.631-0.485-0.176-0.138-0.323-0.256-0.461-0.384zm-53.994 1.2305-0.33984 0.23242c-0.28074 0.18974-0.53571 0.31421-0.76758 0.4082l0.43945 0.36133 1.1484 4.0391c0.21361 0.73422 0.68559 2.5181 0.7832 3.1426-0.07625 0.16049-0.21112 0.37707-0.3125 0.47656l0.17578 0.25781c0.18911-0.15861 0.47054-0.42729 0.83789-0.67578 0.36874-0.24961 0.71701-0.40621 0.90625-0.50195l-0.17578-0.25977c-0.28924 0.11625-0.43118 0.13531-0.63867 0.16406-0.339-0.648-0.647-1.505-0.845-2.093l2.016-1.36c0.68347 0.5731 1.0652 0.97188 1.6426 1.5547-0.25274 0.35836-0.36862 0.49903-0.46875 0.58203l0.17578 0.25976c0.20024-0.18249 0.46261-0.42285 0.91797-0.73047 0.53336-0.36011 0.79609-0.47568 1.0586-0.60742l-0.17383-0.25586c-0.20024 0.05625-0.27049 0.05766-0.49024 0.06641-0.56998-0.32099-1.1402-0.70415-3.125-2.4082-1.616-1.387-2.183-1.976-2.765-2.65v-0.002zm0.05859 1.5293c0.34661 0.28324 1.8746 1.5411 2.1797 1.8047 0.23561 0.20149 0.40108 0.34302 0.54883 0.47852l-1.766 1.191-0.963-3.475zm-4.4668 1.4043-0.21484 0.19726 0.01953 0.17774c-0.5176 0.56036-1.1901 1.195-1.8027 1.7559-1.3977 1.2804-1.5455 1.3973-2.168 1.8789l-0.17383-0.03516-0.22266 0.20703c0.13062 0.10875 0.31357 0.25754 0.52344 0.48828 0.34311 0.37348 0.62413 0.73108 0.84375 1.0059h0.002l0.18945-0.17383c-0.67009-1.0614-0.30045-1.5234 0.875-2.5449 0.60423 0.5736 1.2011 1.1902 1.6406 1.6699l1.1133 1.2188c0.64935 0.70922 1.2648 1.4494 1.8359 2.2129v0.03516c-0.10375 0.21737-0.2394 0.4328-0.38477 0.6543l0.20898 0.22852c0.16474-0.18499 0.66314-0.7298 0.85352-0.9043 0.29299-0.26799 0.90795-0.74075 1.168-0.94336l-0.21289-0.23047c-0.23311 0.12512-0.4829 0.25066-0.74414 0.34766-0.62986-0.55048-1.4643-1.3925-2.043-2.0254l-1.1152-1.2168c-0.51748-0.56523-1.0531-1.1693-1.5098-1.7734 0.12-0.14524 0.28274-0.31103 0.56836-0.57226 0.48336-0.44248 1.1056-0.85463 1.9648-0.01953l0.21484-0.19726c-0.18304-0.149-0.49797-0.39002-1.0411-0.98438-0.22837-0.24911-0.3008-0.34292-0.38867-0.45703zm67.398 2.7012-0.26172 0.50391-3.7148 1.9609c-0.67497 0.36061-2.3232 1.1914-2.9141 1.416-0.17199-0.04-0.41321-0.12608-0.5332-0.20508l-0.21484 0.22461c0.19411 0.15199 0.5169 0.3729 0.83789 0.68164 0.31861 0.30887 0.54279 0.61651 0.67578 0.78125l0.2168-0.22461c-0.17337-0.25887-0.22097-0.39398-0.29297-0.58984 0.5651-0.46686 1.341-0.94892 1.873-1.2656l1.75 1.6914c-0.41986 0.78797-0.73198 1.247-1.1836 1.9316-0.40036-0.17211-0.56464-0.25594-0.66602-0.33594l-0.21484 0.22461c0.22087 0.15924 0.50881 0.36593 0.9043 0.74805 0.46148 0.44735 0.6263 0.67954 0.81055 0.91016l0.2168-0.22461c-0.09875-0.18437-0.11197-0.25389-0.16797-0.46875 0.19774-0.62372 0.45615-1.2605 1.7109-3.5547 1.0241-1.8677 1.4832-2.5447 2.0215-3.2539l-0.29492-0.2832c-0.24411-0.23561-0.41823-0.45985-0.55859-0.66797zm-0.63086 1.3242c-0.20499 0.39786-1.1192 2.1519-1.3145 2.5059-0.14899 0.27161-0.25102 0.46152-0.35352 0.63476l-1.5312-1.4785 3.1992-1.6621zm-71.953 1.1113v0.002c-0.27474 0.41198-0.47854 0.68416-0.87891 1.1406-0.40148 0.45773-0.73882 0.76632-0.96094 0.96094l0.235 0.206c0.25999-0.23861 0.54275-0.36401 0.72461-0.45312 1.0938 0.80259 1.4961 1.1536 1.75 1.377l1.5547 1.3613c1.056 0.92408 1.5816 1.5091 1.9062 1.8691-0.03875 0.1225-0.06871 0.25478-0.36133 0.72852l0.23438 0.20508c0.25261-0.3686 0.44931-0.64864 0.81055-1.0625 0.33211-0.37836 0.68344-0.72305 1.0312-1.041l-0.23438-0.20508c-0.13674 0.115-0.47213 0.36241-0.71875 0.50391-0.5346-0.37474-1.0418-0.80316-1.541-1.2402l-1.7109-1.4961c-1.1341-0.99358-1.6795-1.595-1.9492-1.8789 0.03875-0.10375 0.15213-0.47167 0.34375-0.76953l-0.236-0.208zm76.051 1.204-0.246 0.191c0.14649 0.27274 0.17239 0.37012 0.22852 0.60937-0.55048 0.56273-1.166 1.0846-1.791 1.5723l-1.6289 1.2715c-0.0125 0.0125-1.128 0.88023-2.1387 1.4453-0.21861-0.11125-0.28126-0.16855-0.51562-0.3418l-0.24414 0.19141c0.31861 0.34487 0.81128 0.89369 1.1152 1.2812l1.1855 1.5234c0.23074 0.29487 0.36545 0.48698 0.47656 0.65234 0.12 0.17399 0.21732 0.32103 0.35156 0.55664 0.59936-0.28924 0.94202-0.42164 1.5742-0.60352l-0.166-0.213c-0.92396-0.065-1.3696-0.14702-2.168-1.1719-0.89221-1.1444-0.61445-1.257 0.65625-2.248l1.2305-0.95898 0.69531 0.89453c0.67635 0.86722 0.87308 1.1178 0.6582 1.582l0.17188 0.2207c0.18437-0.18611 0.3491-0.3746 0.60547-0.57422 0.1225-0.09625 0.3196-0.20507 0.54297-0.32031l-0.17383-0.22266c-0.50048 0.035-0.72751-0.17208-1.3477-0.9668l-0.73242-0.94141c0.51273-0.39923 1.3997-1.0785 2.1797-1.582 0.21724 0.21611 0.57912 0.57358 0.97461 1.082 0.73359 0.94108 0.61108 1.3323 0.48047 1.7148l0.16602 0.21289c0.29899-0.39673 0.50686-0.61634 0.90234-0.95508-0.41748-0.43023-0.93484-1.0522-1.2949-1.5137l-0.85547-1.0977c-0.08625-0.11125-0.1997-0.27571-0.38281-0.5332-0.18528-0.25592-0.37915-0.54803-0.50976-0.75781zm-79.037 2.1035-0.14258 0.19726 0.02734 0.33789c-0.34174 0.27349-0.64309 0.51677-0.92383 0.90625-0.74459 1.0345-0.49277 2.2388 0.41406 2.8926v0.002c1.1402 0.82022 2.3838 0.27406 3.502-0.23242 0.63959-0.28937 1.1484-0.44143 1.8027 0.0293 0.75922 0.54686 0.88374 1.4441 0.39062 2.127-0.13674 0.19049-0.84054 1.08-2.3652 0.57227l-0.17969 0.24609c1.1791 0.54498 1.2251 0.56623 1.6426 0.80859 0.48086-0.28811 0.92385-0.74721 1.2461-1.1934 0.80685-1.1206 0.97042-2.5719-0.25391-3.4531-1.2244-0.88134-2.4387-0.32907-3.0137-0.06445-0.93008 0.42473-1.7213 0.79028-2.4805 0.24219-0.51636-0.37174-0.74456-1.0096-0.20508-1.7598 0.69822-0.96858 1.7882-0.61402 2.0762-0.56641l0.15039-0.20898c-0.525-0.206-1.261-0.606-1.686-0.883zm84.932 6.1465-0.17578 0.08398c-0.09129 0.19899-0.26933 0.58318-0.31445 0.66992-0.84097 0.4406-1.8142 0.93392-2.377 1.2031-0.67022 0.32037-3.1094 1.4248-3.7148 1.6348-0.19899-0.17637-0.21617-0.18078-0.48828-0.47852l-0.28125 0.13281c0.15624 0.23674 0.34327 0.51052 0.54102 0.92188 0.19661 0.41136 0.32257 0.79475 0.41406 1.0742l0.28125-0.13477c-0.13424-0.4291-0.12578-0.58988-0.12891-0.71875 0.19524-0.13174 0.40762-0.25885 0.61524-0.37109 0.87146-0.49498 2.6633-1.3923 3.0039-1.5547 0.6201-0.29787 1.2782-0.57503 1.6836-0.75391l-1.584 3.2227c-0.95946 2.1203-1.1748 2.3012-1.3945 2.7168-0.08125 0.15624-0.6065 0.90109-0.71875 1.0586 0.075 0.15799 0.20146 0.53946 0.2832 0.79883 0.93508-0.69447 1.7428-1.0546 3.0195-1.6406l1.6309-0.74219c0.0125 0 1.3288-0.59704 2.1602-0.87891 0.17088 0.17749 0.27441 0.27148 0.42578 0.49609l0.28-0.135c-0.15749-0.23499-0.36474-0.54885-0.55273-0.93945-0.18061-0.37974-0.29142-0.73124-0.35742-0.95898l-0.28125 0.13477c0.0475 0.15924 0.0736 0.27521 0.12109 0.64258-0.85683 0.52673-2.0611 1.1418-2.9766 1.5801-0.48098 0.23074-1.3681 0.63157-1.8906 0.86719 0.31249-0.73247 0.70426-1.6614 1.5488-3.3887 0.52498-1.0694 1.1111-2.2826 1.8105-3.1113l-0.0605-0.13477c-0.13699-0.28599-0.22455-0.53034-0.31054-0.73633-0.082-0.20599-0.14904-0.3786-0.20704-0.55859l-0.006-0.002zm-87.984 0.41211c-0.68888 0.05855-1.3621 0.44133-1.748 1.1719-0.08125 0.15499-0.10934 0.20644-0.33008 0.76367-0.0875 0.21974-0.24942 0.58346-0.45703 0.97656-0.13787 0.25874-0.40662 0.68642-0.61523 0.97266l0.2705 0.147c0.162-0.16562 0.34456-0.29237 0.51758-0.42578h0.00195c0.76753 0.29972 1.6868 0.73075 2.4102 1.1113l1.5293 0.80859c0.74697 0.39548 1.4837 0.8087 2.1758 1.3066 0 0.03625-0.04203 0.44076-0.08203 0.65625l0.27539 0.14648c0.13911-0.37586 0.2124-0.60068 0.55664-1.252 0.3711-0.70372 0.47751-0.81982 0.6875-1.1055l-0.27344-0.14453c-0.30649 0.30037-0.36745 0.33598-0.66406 0.58984-0.69209-0.24661-1.4161-0.57576-2.0703-0.92188l-0.54102-0.28711c0.09375-0.12124 0.16092-0.22025 0.26953-0.42773 0.12574-0.23799 0.22262-0.44931 0.28125-0.61719 0.68722-0.02125 1.3336-0.05067 2.1504-0.17578 1.3427-0.20449 1.8043-0.40984 2.0742-0.5332l0.20898-0.39062c0.22574-0.42786 0.40339-0.68743 0.60352-0.95117l-0.27539-0.14648c-0.55048 0.56886-1.5126 0.82935-2.2598 0.96484-1.0925 0.20387-1.9091 0.27684-2.3242 0.30859 0.16487-1.5918-1.052-2.2369-1.1777-2.3027-0.36668-0.19363-0.78591-0.27535-1.1992-0.24023v-0.002zm-0.3418 1.0469c0.4196-0.04325 0.86037 0.08967 1.2168 0.27734 1.0802 0.57186 1.2139 1.4886 0.35938 2.9688l-0.88672-0.4668c-0.65547-0.3466-1.4585-0.7969-2.0762-1.2148 0.06375-0.20449 0.12081-0.45185 0.29492-0.7832 0.27343-0.51754 0.67218-0.738 1.0918-0.78125zm-3.5273 4.6523 0.00195 0.002c-0.13674 0.58523-0.3801 1.3545-0.57422 1.9062l-0.46094 1.3145c-0.047498 0.13124-0.12628 0.31526-0.24414 0.60938-0.1175 0.29424-0.25704 0.61515-0.36328 0.83789l0.29492 0.10352c0.14976-0.2691 0.21941-0.34468 0.39062-0.51953 0.77022 0.15987 1.5428 0.39389 2.291 0.65625l1.9492 0.68555c0.0125 0 1.3506 0.47458 2.3711 1.0195 0.025 0.24474 0.01133 0.32657-0.01367 0.61719l0.29492 0.10352c0.12-0.45473 0.3142-1.1677 0.47656-1.6328l0.64062-1.8203c0.125-0.35274 0.21372-0.56884 0.29297-0.75195 0.08125-0.19537 0.1523-0.35534 0.2793-0.5957-0.56636-0.34799-0.86309-0.5654-1.3574-1l-0.08984 0.25391c0.44548 0.81285 0.61571 1.2329 0.18359 2.459-0.48098 1.3671-0.72312 1.1969-2.2441 0.66211l-1.4746-0.51758 0.37891-1.0742c0.36498-1.0369 0.46996-1.334 0.97656-1.4043l0.0918-0.26367c-0.25637-0.05375-0.50531-0.09147-0.81055-0.19922-0.14649-0.0525-0.34526-0.15696-0.5625-0.2832l-0.09375 0.26367c0.30037 0.40286 0.24887 0.70659-0.08398 1.6562l-0.39648 1.125c-0.6192-0.217-1.6704-0.597-2.5151-0.982 0.065-0.299 0.1692-0.795 0.3828-1.402 0.3955-1.125 0.7926-1.235 1.1855-1.332l0.0899-0.254c-0.4969-0.039-0.7961-0.094-1.293-0.244zm92.59 2.8516c-0.29136 0.02451-0.58902 0.0788-0.89648 0.16211-2.1203 0.57486-3.6178 2.5564-3 4.8359 0.70547 2.5975 3.3673 3.0875 5.0371 2.6348 2.1948-0.59498 3.5446-2.7184 2.9512-4.9102-0.45705-1.6876-2.0503-2.8941-4.0898-2.7227h-0.002zm1.0469 1c1.2702 0.06816 2.1834 0.78265 2.459 1.7988 0.51748 1.9071-1.3384 3.4056-2.918 3.834-1.5306 0.41386-3.4198 0.05356-3.8848-1.6621-0.47248-1.7381 1.1211-3.3101 2.9668-3.8105 0.49223-0.13337 0.95358-0.18288 1.377-0.16016zm-95.646 1.959v0.002c-0.012499 0.24899 0.0003103 0.48764-0.11719 1.0625-0.12 0.60736-0.22169 0.86122-0.30469 1.084l0.30469 0.06055c0.19399-0.37898 0.22883-0.42102 0.33008-0.60352 0.36986 0.14461 0.84966 0.32335 2.4902 1.207l1.1855 0.63867c0.49073 0.26424 0.57692 0.30589 1.3008 0.73438-0.47473 0.12124-1.0364 0.21389-1.6504 0.30664l-1.5 0.2168c-1.0779 0.15599-1.9345 0.20138-2.4961 0.23438-0.088746-0.42298-0.079999-0.54199-0.0625-0.69336l-0.30664-0.06055c-0.017499 0.28399-0.043514 0.69599-0.16211 1.293-0.1062 0.53998-0.18948 0.76207-0.29688 1.0391l0.30664 0.05859c0.098-0.156 0.1487-0.207 0.2732-0.373 1.328-0.285 2.5593-0.495 2.9023-0.546l1.5957-0.23437c0.96921-0.144 2.8933-0.35973 3.5391-0.41211l0.07226-0.35547c-0.84896-0.39498-2.8457-1.4908-3.168-1.6738l-1.402-0.816c-0.8324-0.485-1.6605-0.982-2.4394-1.541-0.0538-0.26-0.0616-0.298-0.1016-0.568l-0.30469-0.06055zm98.328 5.6055c-0.13386-0.01008-0.2713-0.0081-0.41016 0.0078-1.3964 0.15924-1.9465 1.3993-2.4336 2.5254-0.28074 0.64447-0.55597 1.101-1.3555 1.1914-0.93146 0.105-1.6255-0.47515-1.7207-1.3125-0.025-0.23199-0.10251-1.3637 1.3672-2.0137l-0.0332-0.30273c-1.2377 0.3881-1.2905 0.40645-1.7617 0.50781-0.16237 0.53586-0.18102 1.1719-0.11914 1.7188 0.15624 1.372 1.0108 2.5588 2.5098 2.3867 1.4989-0.16974 2.0264-1.3963 2.2754-1.9785 0.40161-0.93996 0.74176-1.7433 1.6719-1.8496 0.6336-0.0725 1.234 0.24739 1.3379 1.166 0.13425 1.1852-0.91142 1.6582-1.1543 1.8145l0.0293 0.25586c0.5261-0.20149 1.3394-0.39872 1.8398-0.48047l-0.0273-0.24414-0.24804-0.23047c0.07-0.4321 0.12927-0.81376 0.0762-1.291-0.12709-1.1087-0.90667-1.8005-1.8438-1.8711zm-99.68 2.088c0.024999 0.49436 0.023357 0.83469-0.025391 1.4414-0.048748 0.60548-0.13892 1.0576-0.20117 1.3457l0.3125 0.02539c0.067497-0.34549 0.21962-0.61306 0.3125-0.79492l-0.00195-0.0039c1.3573 0 1.8877 0.03695 2.2246 0.06445l2.0625 0.16797c1.4 0.115 2.169 0.2714 2.6426 0.36914 0.04375 0.12124 0.09608 0.24277 0.14258 0.79688l0.3125 0.02539c-0.0175-0.44686-0.02617-0.78912 0.01758-1.3359 0.04125-0.50173 0.11912-0.98776 0.20898-1.4492l-0.31055-0.02734c-0.03875 0.17324-0.16385 0.5747-0.27734 0.83594-0.65297 0.0175-1.3141-0.02313-1.9746-0.07813l-2.2697-0.183c-1.5027-0.124-2.2978-0.282-2.6836-0.348-0.03-0.108-0.1564-0.472-0.1797-0.826l-0.3125-0.02539zm99.85 3.2988v0.25781c1.2304 0.24287 1.312 0.82777 1.2461 2.3828-0.83247 0.04625-1.6924 0.05422-2.3418 0.04297l-1.6504-0.0293c-0.96184-0.01625-1.9232-0.07838-2.8691-0.1875l-0.021-0.026c-0.0875-0.22461-0.14924-0.46965-0.20898-0.72852h-0.3125c0.0225 0.24661 0.07406 0.98266 0.07031 1.2402-0.0125 0.39673-0.08664 1.1688-0.11914 1.4961h0.3125c0.07-0.25637 0.15197-0.52726 0.26172-0.78125 0.83371-0.08 2.0161-0.10555 2.873-0.0918l1.6524 0.0293c0.76647 0.0125 1.5724 0.0393 2.3242 0.12305 0.0237 0.18799 0.0329 0.42091 0.0254 0.80664-0.0125 0.65422-0.14043 1.3906-1.3379 1.4395v0.29297c0.23312-0.03 0.62396-0.09383 1.4297-0.08008 0.33924 0 0.4548 0.01945 0.59766 0.0332v-0.29297l-0.14062-0.10742c-0.0525-0.76159-0.0502-1.6851-0.0352-2.5176 0.0312-1.8945 0.0495-2.0795 0.12891-2.8633l0.004 0.002 0.14453-0.10352v-0.30469c-0.17087 0.02125-0.40556 0.05439-0.71679 0.04687-0.5066-0.0125-0.96102-0.05133-1.3125-0.08008zm-99.934 0.66211-0.3125 0.01367c0.051248 0.27837 0.1208 0.64871 0.13867 1.082 0.018749 0.4211-0.018829 0.7852-0.048828 1.0195l0.31055-0.01367c0.019999-0.16349 0.041786-0.28035 0.14453-0.63672 0.99608-0.14649 2.3455-0.24046 3.3574-0.2832 0.5321-0.0225 1.5069-0.03828 2.0781-0.05078-0.57486 0.55048-1.2996 1.2497-2.7559 2.5059-0.9026 0.776-1.9199 1.66-2.8879 2.147v0.15234c0.014999 0.31499 0 0.57281 0 0.79492 0 0.22224-0.012344 0.41037-0.027344 0.59961l0.19531-0.01367c0.16237-0.14761 0.47699-0.43036 0.55273-0.49023 0.94721-0.075 2.0364-0.145 2.6602-0.17188v0.0039c0.73972-0.03 3.4164-0.08476 4.0547-0.04102 0.115 0.23937 0.12872 0.25196 0.26172 0.63281l0.3125-0.01563c-0.05125-0.27712-0.11872-0.60198-0.13672-1.0586-0.02-0.45523 0.01672-0.85561 0.04297-1.1484l-0.3125 0.01172c-0.04625 0.44673-0.11752 0.59131-0.16602 0.71094-0.23199 0.04375-0.4777 0.07711-0.71094 0.09961-0.99721 0.1125-2.9933 0.23342-3.3691 0.24805-0.68847 0.02875-1.4058 0.025-1.8477 0.03125l2.7222-2.339c1.7166-1.572 1.9866-1.654 2.3516-1.951 0.13788-0.11125 0.9114-0.58738 1.0762-0.6875-0.0125-0.17574 0.03039-0.57667 0.05664-0.84766-1.1328 0.27099-2.0161 0.28565-3.4199 0.32226l-1.793 0.04102c-0.012499 0-1.4561 0.02648-2.3301-0.04102-0.0892-0.229-0.1492-0.356-0.1992-0.623l0.00195-0.002zm93.687 5.709 0.0039 0.002c-0.01875 0.40036-0.01858 0.63779-0.14258 1.3652-0.13424 0.78372-0.20067 0.92742-0.31055 1.2656l0.30859 0.05078c0.19774-0.38086 0.24464-0.43309 0.44726-0.76758 0.73485 0.02 1.5239 0.10806 2.2539 0.23242l0.60156 0.10352c-0.0512 0.14537-0.0831 0.26074-0.12305 0.49023-0.045 0.26611-0.0712 0.49992-0.0762 0.67578-0.64572 0.23187-1.2518 0.46163-1.9902 0.83398-1.2121 0.61148-1.5862 0.95139-1.8047 1.1504l-0.07617 0.43945c-0.05125 0.29424-0.10278 0.52145-0.16016 0.72656l-0.06445-0.02539c-0.0525 0.24174-0.1152 0.63078-0.25781 1.0508-0.14162 0.42223-0.32452 0.75677-0.41602 0.94726l0.29492 0.09766c0.15987-0.26611 0.26101-0.36676 0.40625-0.51562 0.66522 0.30999 1.4321 0.80376 1.9473 1.1504l-0.7793 2.3047c-0.89108-0.04-1.4382-0.12787-2.25-0.24023-0.01875-0.43936-0.01172-0.6216 0.01953-0.74609l-0.29688-0.10156c-0.05 0.26861-0.11149 0.61866-0.28711 1.1387-0.20499 0.61036-0.34398 0.85889-0.47461 1.125l0.29492 0.09766c0.125-0.16849 0.18182-0.21048 0.35156-0.34961 0.64935-0.09 1.3329-0.13163 3.9414 0.02148 2.1263 0.12374 2.9364 0.25103 3.8066 0.43164l0.13281-0.38672c0.10875-0.32224 0.23322-0.57489 0.36133-0.79102l-0.56836-0.02148-3.3633-2.5156c-0.61523-0.45648-2.0721-1.5892-2.5273-2.0273-0.02-0.09125-0.03422-0.20305-0.04297-0.31055 0.36874-0.67372 1.1614-1.1916 1.8047-1.5371 0.97409-0.53336 1.7281-0.85644 2.1113-1.0176 0.33937 1.5673 1.6963 1.7998 1.8379 1.8242 1.0876 0.18561 2.2882-0.49706 2.5117-1.8008 0.0275-0.17324 0.0387-0.23072 0.0762-0.83008 0.0125-0.23437 0.0558-0.634 0.1289-1.0723 0.0487-0.28687 0.17416-0.77752 0.28516-1.1133l-0.3086-0.05078c-0.1 0.20749-0.23683 0.38453-0.36132 0.56641-0.82147-0.0475-1.8299-0.17142-2.6367-0.31055l-1.7031-0.29102c-0.83246-0.14287-1.6609-0.30879-2.4727-0.56641-0.0125-0.03625-0.09758-0.43078-0.12695-0.65039l-0.30664-0.05273zm3.623 2.332 0.98633 0.16992c0.72997 0.12562 1.6358 0.3027 2.3535 0.50781 0 0.21487 0.0234 0.46929-0.0391 0.83789-0.19774 1.1524-1.2432 1.3301-2.0391 1.1934-1.2036-0.20749-1.6145-1.0367-1.2617-2.709zm-90.742 0.4707 0.002 0.0039c-0.5851-0.0136-1.1528 0.11812-1.5527 0.20508l-2.2023 0.474c-0.7117 0.156-1.355 0.247-1.963 0.33-0.1087-0.131-0.1788-0.211-0.33-0.539l-0.30469 0.06445c0.091246 0.24661 0.23048 0.63624 0.31836 1.0488 0.096246 0.44436 0.12008 0.797 0.12695 1.0117l0.30469-0.06641c-0.016249-0.38086 0.030001-0.53295 0.0625-0.69531 0.48458-0.15699 1.3812-0.4476 4.0117-1.0176 1.0168-0.21999 1.5651-0.25424 2.0781-0.03125 0.54198 0.23199 0.88304 0.81602 1.0039 1.375 0.34911 1.6138-0.85976 2.2455-3.0312 2.7168-0.81422 0.17574-2.4586 0.49712-3.2227 0.53125-0.13311-0.18799-0.32425-0.45699-0.42188-0.66211l-0.30664 0.06445c0.097496 0.26724 0.23118 0.63404 0.38867 1.3652 0.13674 0.62986 0.14567 0.91366 0.1543 1.1406l0.3047-0.069c-0.012499-0.28324 0.013674-0.38285 0.076172-0.63672 0.66647-0.23924 2.0554-0.57688 2.7793-0.73438v-0.002l1.332-0.28711c1.2073-0.26124 3.3418-0.72382 2.7559-3.4336-0.36998-1.7082-1.392-2.1355-2.3672-2.1582zm88.445 6.793 2.873 2.1777c-0.44798-0.015-2.4273-0.09023-2.8301-0.11523-0.3101-0.0175-0.52448-0.02867-0.72461-0.04492l0.68164-2.0176zm-84.723 1.3594-0.2793 0.13867c0.05375 0.19524 0.06547 0.42479 0.07422 0.64453-1.3439 0.88871-4.3318 2.7007-6.0469 3.5137-0.20749-0.06875-0.39731-0.15518-0.55469-0.32617l-0.15039 0.07617c0.20149 0.31899 0.40579 0.60936 0.61328 1.0273l0.23828 0.48242 0.45898-0.33203 5.8418-0.27734c-0.60786 0.73485-0.84694 1.0103-1.5293 1.7402l-1.6094 1.7285c-0.21611 0.23799-0.67596 0.71494-1.168 1.1543 0 0 0.18132 0.3663 0.38281 0.80078 0.0975 0.22711 0.20241 0.46418 0.26953 0.7168l0.15039-0.07422c0.03875-0.36137 0.07545-0.49567 0.24219-0.80078l3.062-1.222c1.0773-0.4295 2.17-0.85796 3.2754-1.1973h0.002c0.14335 0.11192 0.2268 0.16189 0.44726 0.4043l0.2793-0.13867c-0.15899-0.23399-0.34488-0.49436-0.54688-0.90234-0.19774-0.39798-0.29185-0.70414-0.37109-0.95312l-0.28125 0.14062c0.085 0.37598 0.07313 0.52492 0.07813 0.6543-0.30399 0.20261-0.47989 0.31586-1.0977 0.62109-0.90808 0.4516-1.383 0.63573-1.7188 0.77734l-2.5977 1.0547c0.5371-0.64447 1.0899-1.2861 1.6758-1.916l1.3359-1.4336c0.51998-0.55898 1.1858-1.1777 1.7754-1.627l-0.1875-0.37695c-0.18311 0.03875-0.38703 0.09858-0.71289 0.14258-1.0938 0.16487-2.6949 0.2422-4.0352 0.32031-0.29661 0.0175-1.7086 0.03914-2.0332 0.05664 1.8334-1.1596 3.8009-2.2529 5.0312-2.7852 0.22099 0.24174 0.36375 0.37945 0.54688 0.60156l0.2793-0.13867c-0.23299-0.37998-0.47693-0.75459-0.66992-1.1426-0.19199-0.38798-0.33371-0.78836-0.4707-1.1523h-0.002zm80.08 1.9004c-0.17449 0.43573-0.46385 1.1153-0.68359 1.5547l-0.86914 1.7246c-0.16849 0.33449-0.28547 0.53617-0.38672 0.70703-0.1075 0.18311-0.19922 0.3344-0.35547 0.55664 0.51748 0.41736 0.78535 0.66967 1.2188 1.1641l0.12109-0.23828c-0.33574-0.86422-0.44801-1.3013 0.13672-2.4609 0.65422-1.2963 0.8714-1.0936 2.3105-0.36719l1.3926 0.70312-0.50977 1.0117c-0.49686 0.98271-0.64015 1.2659-1.1504 1.2695l-0.12695 0.25c0.24774 0.08625 0.49131 0.15429 0.7793 0.30078 0.14038 0.07125 0.31942 0.20284 0.51953 0.35547l0.12695-0.25195c-0.24411-0.43823-0.15207-0.73236 0.30078-1.6309l0.53711-1.0645c0.57986 0.29299 1.572 0.80737 2.3594 1.2969-0.1025 0.28811-0.27131 0.76504-0.56055 1.3398-0.53836 1.0658-0.94488 1.1235-1.3477 1.1699l-0.12109 0.23828c0.48586 0.1025 0.77402 0.19542 1.25 0.41016 0.20999-0.56386 0.55154-1.2946 0.81641-1.8184l0.62695-1.2422c0.0625-0.12574 0.16337-0.2964 0.31836-0.57227 0.15262-0.27837 0.33563-0.57766 0.46875-0.78516l-0.2793-0.14258c-0.18267 0.24838-0.25934 0.31621-0.45117 0.4668-0.74335-0.25749-1.4795-0.58954-2.1875-0.94727l-1.8457-0.92969c-0.0125 0-1.2764-0.64572-2.2188-1.3184 0.0125-0.24537 0.03235-0.32376 0.08984-0.60938l-0.2793-0.14062zm-3.8398 7.123c-0.13311 0.20874-0.32179 0.54932-0.59766 0.89844-0.27587 0.34911-0.55956 0.60309-0.71094 0.75195l0.24609 0.19336c0.23924-0.19899 0.37173-0.25924 0.55859-0.34961 0.51998 0.51636 1.0739 1.239 1.4414 1.7383l-1.5098 1.9082c-0.827-0.34-1.312-0.605-2.041-0.986 0.13424-0.41873 0.20312-0.58852 0.27148-0.69727l-0.24609-0.19141c-0.1355 0.23437-0.31381 0.54054-0.6543 0.97266-0.39923 0.50298-0.61381 0.69149-0.82617 0.89648l0.24414 0.19336c0.17337-0.11624 0.24173-0.13769 0.44922-0.21094 0.64085 0.13424 1.2992 0.32869 3.7051 1.3516 1.9579 0.83497 2.6782 1.225 3.4375 1.6914l0.25391-0.32226c0.20999-0.26361 0.4165-0.46192 0.60938-0.62305l-0.53125-0.20898-2.3145-3.5039c-0.4261-0.63472-1.4133-2.1934-1.6953-2.7598 0.02375-0.17587 0.08348-0.42433 0.15234-0.54883l-0.24219-0.19141-0.002-0.002zm-71.846 0.48047c-1.022-0.063-1.9365 0.65833-2.4805 1.0703l-1.797 1.354c-0.5811 0.43948-1.1283 0.79348-1.6445 1.123-0.15374-0.07375-0.2519-0.11674-0.52539-0.34961l-0.24805 0.1875c0.18674 0.18311 0.47465 0.47801 0.72852 0.8125 0.27461 0.36624 0.44589 0.67556 0.54102 0.86719l0.24805-0.18555c-0.17337-0.33811-0.19538-0.49834-0.23438-0.6582 0.37586-0.34311 1.0657-0.98247 3.2129-2.6035 0.82997-0.62735 1.3146-0.89092 1.875-0.9043 0.58836-0.02 1.1428 0.36914 1.4883 0.82813 0.99358 1.3158 0.16486 2.394-1.6074 3.7344-0.66409 0.50286-2.0246 1.4851-2.7031 1.8379-0.20024-0.11374-0.48762-0.27733-0.66211-0.42383l-0.24805 0.1875c0.20024 0.20024 0.47222 0.47738 0.92383 1.0742 0.3881 0.5151 0.51664 0.77046 0.61914 0.9707l0.24805-0.18945c-0.12688-0.25387-0.15047-0.35176-0.19922-0.60938 0.5041-0.49798 1.622-1.3872 2.2129-1.834l1.0898-0.82226c0.98508-0.74459 2.7278-2.0604 1.0566-4.2734-0.6317-0.83725-1.2818-1.156-1.8945-1.1934h-0.002zm73.129 3.2188 1.9668 3.0195c-0.418-0.164-2.255-0.901-2.625-1.06-0.287-0.122-0.484-0.204-0.666-0.289l1.3223-1.6699zm-68.801 1.2188c-0.59086 0.34661-0.81236 0.42195-1.7559 0.69531l0.22461 0.21875c1.1585-0.18799 1.7429 0.1695 2.3594 0.77734 0.58223 0.57623 0.65114 0.93754 0.14453 1.5527-0.3686 0.43948-1.3842 1.4826-1.4844 1.584l-1.0332 1.0449c-0.51998 0.52736-1.0572 1.0195-1.6602 1.4297-0.60548-0.25149-0.78024-0.4241-1.0488-0.65234l-0.21875 0.22461c0.30149 0.24174 0.70566 0.56574 1.3379 1.1895 0.44073 0.43698 0.66187 0.71026 0.83398 0.95312l0.219-0.219c-0.18599-0.32999-0.21453-0.44918-0.26953-0.57617 0.51298-0.71997 1.1329-1.3681 1.7539-1.9961l1.0703-1.0801c0.79347-0.80559 1.4673-1.439 2.0801-1.8906 0.17087 0.05875 0.22246 0.07424 0.57031 0.27148l0.2207-0.22266c-0.34299-0.30274-0.93845-0.79887-1.2559-1.1113l-1.2559-1.2422c-0.20624-0.24037-0.50325-0.57032-0.83398-0.95117zm61.461 2.1621c-0.33087 0.31611-0.87678 0.86565-1.2148 1.1523l-1.3477 1.1465c-0.25761 0.18299-0.61386 0.45074-1.0215 0.74609 0.29537 0.6201 0.3487 0.84555 0.53906 1.8086l0.24219-0.20312c-0.0875-1.1706 0.31816-1.7198 0.97852-2.2812 0.62372-0.52973 0.98974-0.57003 1.5586-0.01367 0.40398 0.40773 1.3565 1.5086 1.4492 1.6172l0.95117 1.1191c0.47973 0.56523 0.92481 1.1427 1.2812 1.7773-0.30524 0.58223-0.49277 0.74179-0.74414 0.98828l0.20312 0.23633c0.26849-0.27711 0.62846-0.64839 1.3047-1.2246 0.4736-0.40273 0.76711-0.60101 1.0234-0.75l-0.204-0.239c-0.34424 0.15624-0.46578 0.176-0.59766 0.21875v0.0039c-0.67134-0.57248-1.2602-1.2501-1.834-1.9238l-0.98438-1.1582c-0.73235-0.86308-1.3039-1.5849-1.7031-2.2344 0.075-0.16599 0.09364-0.21851 0.32227-0.54688l-0.203-0.239zm-57.598 1.574c-0.54081 0.41895-0.75313 0.52048-1.6543 0.9082l0.25 0.19336c1.1255-0.33199 1.7495-0.04942 2.4355 0.47656 0.64935 0.49923 0.76442 0.85012 0.33594 1.5215-0.31124 0.48223-1.1888 1.6437-1.2754 1.7559l-0.89453 1.166c-0.45098 0.58698-0.92468 1.144-1.4727 1.625-0.63197-0.17399-0.82515-0.32159-1.1191-0.51758l-0.18945 0.25c0.32899 0.20299 0.76868 0.4756 1.4727 1.0176 0.49186 0.37724 0.74702 0.6226 0.94726 0.83984l0.18945-0.24609c-0.22461-0.30261-0.26702-0.41945-0.33789-0.53906 0.41998-0.7751 0.95708-1.4946 1.4941-2.1953l0.92774-1.207c0.68847-0.89721 1.2771-1.6086 1.8301-2.1348 0.17699 0.0375 0.22974 0.04772 0.59961 0.19922l0.18945-0.24609c-0.376-0.257-1.029-0.675-1.382-0.946l-1.398-1.076c-0.234-0.212-0.57-0.506-0.946-0.844h-0.002zm53.516 1.9277c-0.19289 0.15268-0.4845 0.41227-0.85938 0.64844-0.37598 0.23674-0.72706 0.38241-0.91992 0.47266l0.166 0.264c0.29299-0.1075 0.43496-0.12095 0.64258-0.14258 0.31849 0.65909 0.59992 1.524 0.7793 2.1172l-2.0605 1.2969c-0.66522-0.59573-1.0352-1.0064-1.5918-1.6094 0.26249-0.34911 0.38188-0.48828 0.48438-0.56641l-0.16602-0.26562c-0.20749 0.17699-0.47518 0.40623-0.94141 0.69922-0.54448 0.34299-0.81032 0.45027-1.0801 0.57226l0.16602 0.26367c0.20511-0.05125 0.27385-0.04883 0.49609-0.04883 0.55786 0.33937 1.1161 0.74218 3.041 2.5098 1.5685 1.4391 2.1168 2.0462 2.6758 2.7383l0.34766-0.2168c0.28674-0.18061 0.54451-0.29732 0.78125-0.38281l-0.42969-0.37695-1.0137-4.0742v-0.002c-0.193-0.74-0.603-2.538-0.68-3.165 0.08-0.15624 0.22243-0.37155 0.32617-0.4668l-0.166-0.264zm-49.406 1.135-0.166 0.264c0.13538 0.115 0.43656 0.40721 0.61719 0.62695-0.28311 0.58836-0.62354 1.1587-0.97266 1.7227l-1.1992 1.9336c-0.79459 1.2804-1.3008 1.916-1.5352 2.2285-0.11124-0.02125-0.49054-0.0751-0.81641-0.21484l-0.16406 0.26367c0.45286 0.20511 0.75208 0.36136 1.2695 0.68359 0.5176 0.31974 0.8792 0.6061 1.1074 0.79297l0.16211-0.26758c-0.27699-0.21849-0.44734-0.47713-0.56445-0.64062 0.61272-1.211 0.89523-1.6643 1.0723-1.9512l1.0918-1.7578c0.73972-1.1914 1.2292-1.804 1.5332-2.1836 0.12574 0.01875 0.26029 0.02529 0.77539 0.23828l0.16406-0.26562c-0.406-0.192-0.715-0.339-1.183-0.628-0.427-0.265-0.822-0.554-1.193-0.846zm3.2422 2.3984c-0.16773 0.0043-0.31222 0.0153-0.42969 0.02539-0.0775 0.19287-0.16904 0.42392-0.30078 0.70703-0.30037 0.64822-0.67096 1.2783-0.86133 1.6055-0.33449 0-0.42694-0.02477-0.52344-0.04102l-0.12891 0.2832c0.46148 0.14287 0.66442 0.20753 1.0781 0.40039 0.3821 0.17824 0.64476 0.32884 1 0.56445l0.13281-0.2832c-0.12374-0.07125-0.35127-0.21948-0.57227-0.46484 0.63598-1.5099 0.70656-1.6944 0.9043-2.0898 0.31974 0 0.94389 0.02346 1.5371 0.29883 1.5721 0.72747 1.8814 2.7037 0.99023 4.625-1.1158 2.4072-3.0152 2.3296-3.8965 1.9219-0.67872-0.31486-1.507-1.1705-1.3691-2.5254l-0.25586-0.11914c-0.14162 0.72259-0.47604 1.5855-0.72266 2.1445l0.21289 0.0977c0.1175-0.0613 0.2564-0.11023 0.40039-0.11524 0.80935 0.67623 1.3819 0.94238 1.5625 1.0254 2.3559 1.0912 4.3837-0.41778 5.2148-2.2109 0.77635-1.6734 0.69792-4.2003-1.8594-5.3867-0.89171-0.41379-1.6121-0.47373-2.1152-0.46094l0.002-0.002zm46.139 0.38086h0.002l0.84961 3.5039c-0.33811-0.29299-1.8226-1.6015-2.1191-1.875-0.22711-0.20999-0.38921-0.35573-0.5332-0.49609l1.8008-1.1328zm-7.6504 0.63672c-0.49082 0.02311-1.0313 0.14545-1.6211 0.40039-0.72997 0.31749-1.1944 0.68847-1.707 1.0938 0.0525 0.44436 0.10695 1.5134 0.0957 1.959l0.29102-0.12695c0.115-0.67385 0.36143-1.8438 1.6504-2.4004 1.7919-0.77635 3.4382 0.84797 4.1719 2.541 1.0681 2.4694-0.53168 3.6309-1.252 3.9434-1.0302 0.44423-1.9663 0.16833-2.7402-0.55664l-0.25586 0.11133c0.34537 0.4736 0.7014 1.0002 1.125 1.8926l0.24609-0.10742 0.15039-0.30469c0.33561-0.0463 0.8593-0.13283 1.5781-0.44531 2.5341-1.0961 2.8553-3.4449 2.0352-5.3418-0.42847-0.98877-1.6407-2.7584-3.7676-2.6582zm-32.449 1.2559-0.0957 0.29688c0.15861 0.0775 0.51981 0.28994 0.74805 0.46094-0.13174 0.63959-0.32348 1.2744-0.52734 1.9043l-0.7 2.171c-0.46148 1.4355-0.79856 2.1718-0.95117 2.5332-0.1125 0-0.49268 0.0458-0.8418-0.0117l-0.09766 0.29493c0.48698 0.09 0.81862 0.17068 1.3984 0.35742 0.57848 0.18549 0.99628 0.37509 1.2637 0.50195l0.0957-0.29687c-0.32224-0.14401-0.54813-0.35459-0.70312-0.48633 0.30274-1.3232 0.46461-1.8294 0.56836-2.1504l0.63476-1.9688c0.42973-1.3354 0.76028-2.0489 0.96289-2.4883 0.12688-0.01375 0.25812-0.03953 0.80859 0.04297l0.09766-0.29883c-0.43948-0.08625-0.77525-0.15377-1.2988-0.32227-0.47848-0.15374-0.93366-0.34103-1.3633-0.53516zm25.793 0.96289c-0.27239 0.0039-0.57401 0.04304-0.91016 0.12695-2.7135 0.67622-2.0937 2.9208-1.8301 3.9805l0.54492 2.1816c0.17574 0.70547 0.28618 1.3482 0.38867 1.9512-0.12812 0.11375-0.20706 0.18529-0.5293 0.34766l0.07813 0.30273c0.23924-0.1 0.62435-0.24907 1.0332-0.35156 0.44198-0.11125 0.79611-0.144 1.0098-0.15625l-0.07617-0.30274c-0.37836 0.0275-0.53489-0.0167-0.69727-0.043-0.16849-0.48099-0.48488-1.3668-1.1367-3.9766-0.25149-1.0084-0.30332-1.5569-0.0957-2.0781 0.21361-0.5481 0.78697-0.90648 1.3438-1.0469 1.599-0.39798 2.2696 0.78841 2.8066 2.9453 0.20137 0.80685 0.57348 2.4433 0.63086 3.2051-0.18311 0.13913-0.44778 0.33837-0.65039 0.44336l0.07617 0.30274c0.26361-0.105 0.62606-0.24783 1.3535-0.42969 0.6226-0.15499 0.90821-0.17245 1.1328-0.18945l-0.07617-0.30274c-0.28437 0.0175-0.38676-0.00093-0.64062-0.0547-0.26124-0.65909-0.64082-2.0381-0.82031-2.7558l-0.33203-1.3242c-0.26099-1.048-0.69659-2.7995-2.6035-2.7715v-0.0039zm-21.041 0.41016c-0.97759 0.06397-1.8247 0.57967-2.0664 1.6855-0.32224 1.4745 0.66551 2.3667 1.1367 2.7891 0.76047 0.6861 1.4124 1.2681 1.2109 2.1836-0.13662 0.62136-0.63112 1.0845-1.5332 0.88672-1.167-0.25511-1.278-1.3957-1.3477-1.6777l-0.25-0.0566c0.02 0.56398-0.05526 1.3999-0.14063 1.9004l0.23828 0.0508 0.30078-0.16016c0.38448 0.20388 0.73051 0.38649 1.1992 0.49024 1.245 0.27099 2.251-0.4401 2.4902-1.5312 0.30024-1.372-0.69734-2.2958-1.6055-3.1211-0.51998-0.47361-0.86158-0.87869-0.68945-1.666 0.20024-0.91671 0.97413-1.3857 1.7969-1.2051 0.22824 0.05 1.3275 0.34567 1.4668 1.9473l0.297 0.066c0.03125-1.2976 0.03235-1.3516 0.08984-1.8301-0.455-0.327-1.055-0.551-1.592-0.668-0.33721-0.07384-0.67605-0.10336-1.002-0.08203z" fill="#fff" transform="translate(0 -.00062564)"/></g></svg>
