<?xml version="1.0" encoding="UTF-8" standalone="no"?>
<svg height="338.94" viewBox="0 0 295.00002 338.94001" width="295.00003" xmlns="http://www.w3.org/2000/svg">
   <g transform="scale(2.2304554)">
      <path d="m129 13.13c-24.21-12.5-55.77-13.13-61.85-13.13h-2c-6.08 0-37.64.63-61.82 13.13l-3.33 1.72v70 .23c0 .53 1.06 13.13 9.63 27.6 7.82 13.2 23.7 30.67 54.93 38.87l1.57.41 1.56-.41c31.24-8.2 47.12-25.67 54.94-38.87 8.56-14.47 9.59-27.07 9.63-27.6v-.23-70zm-2.83 71.51c0 0-3.44 46.12-60 61-56.54-14.85-60-61-60-61v-66c22.92-11.88 53.14-12.48 58.98-12.48h2c5.84 0 36.06.6 59 12.44z"/>
      <path d="m66.15 6.17h-1c-5.84 0-36.06.6-59 12.44v66c0 0 3.45 46.12 60 61 56.54-14.85 60-61 60-61v-66c-22.94-11.85-53.15-12.45-59-12.45zm53.46 69.09v8c0 0-3.07 41.11-53.46 54.34a89.21 89.21 0 0 1-18.55-7.06 69.45 69.45 0 0 1-18.55-13.78c-15-15.88-16.37-33.5-16.37-33.5v-58.88 0a85.47 85.47 0 0 1 16.37-6.25 133 133 0 0 1  18.55-3.65 142.19 142.19 0 0 1  18.55-1.18c0 0 30.75-.65 53.46 11.08z" fill="#bfbfbf"/>
      <path d="m47.6 57.61v-43.13a133 133 0 0 0-18.55 3.65v21.87z"/>
      <path d="m29.05 18.13a85.47 85.47 0 0 0-16.37 6.25l16.37 15.62z" fill="#fdb515"/>
      <polygon fill="#fdb515" points="47.6 57.61 29.05 39.96 29.05 75.89 47.6 93.54"/>
      <polygon points="12.68 60.31 29.05 75.89 29.05 39.96 12.69 24.38 12.68 24.38"/>
      <path d="m66.15 75.26v-62a142.19 142.19 0 0 0-18.55 1.22v43.13z" fill="#fdb515"/>
      <polygon points="47.6 57.61 47.6 93.54 66.15 111.19 66.15 75.26"/>
      <path d="m111.86 83h-5.69v4.22a8 8 0 0 1-7 8.05 7.76 7.76 0 0 1-8.51-7.72v-4.55h-16.76v20.5h4.22a8 8 0 0 1 8 7 7.75 7.75 0 0 1-7.66 8.5h-4.56v5.7a7.75 7.75 0 0 1-7.75 7.75v5.11c50.39-13.23 53.46-54.34 53.46-54.34v-8a7.76 7.76 0 0 1-7.75 7.78z" fill="#fff"/>
      <path d="m66.15 111.19l-18.55-17.65v37a89.21 89.21 0 0 0 18.55 7.06z" fill="#fdb515"/>
      <path d="m66.15 13.3v4.76a7.75 7.75 0 0 1 7.75 7.75v5.69h4.56a7.75 7.75 0 0 1 7.71 8.5 8 8 0 0 1-8 7h-4.27v20.5h16.76v-4.5a7.75 7.75 0 0 1 8.51-7.71 8 8 0 0 1  7 8v4.22h5.69a7.75 7.75 0 0 1 7.75 7.75v-50.88c-22.71-11.73-53.46-11.08-53.46-11.08z" fill="#da2128"/>
      <path d="m29.05 75.89v40.85a69.45 69.45 0 0 0 18.55 13.78v-37z"/>
      <path d="m12.68 60.31v22.93c0 0 1.32 17.62 16.37 33.5v-40.85z" fill="#fdb515"/>
      <path d="m111.86 67.51h-5.69v-4.22a8 8 0 0 0-7-8 7.75 7.75 0 0 0-8.51 7.71v4.56h-16.76v-20.56h4.22a8 8 0 0 0 8-7 7.75 7.75 0 0 0-7.71-8.52h-4.51v-5.67a7.75 7.75 0 0 0-7.75-7.75v57.2h53.46a7.75 7.75 0 0 0-7.75-7.75z" fill="#fff"/>
      <path d="m66.15 111.19v21.28a7.75 7.75 0 0 0 7.75-7.75v-5.72h4.56a7.75 7.75 0 0 0 7.71-8.51 8 8 0 0 0-8-7h-4.27v-20.49h16.76v4.55a7.76 7.76 0 0 0 8.51 7.72 8 8 0 0 0  7-8.05v-4.22h5.69a7.76 7.76 0 0 0 7.75-7.76h-53.46z" fill="#da2128"/>
   </g>
</svg>
