<svg xmlns="http://www.w3.org/2000/svg" xmlns:v="https://vecta.io/nano" width="316.22776601683796" height="316.22776601683796" fill="none" viewBox="0 0 394.0 394.0"><style><![CDATA[.B{fill:#003591}.C{fill:#fff}.D{stroke:#003591}.E{stroke-width:1.683}]]></style><circle cx="196.995" cy="196.995" r="195.995" class="C"/><g class="B"><use href="#B"/><use href="#B" x="-141.742" y="0.281"/><path d="M94.806 141.957c-.353-.612-1.515-5.017-2.459-5.803l15.204 8.404s1.242-.338 1.949-.856l-2.773 4.646c.202-.118-.252-1.567-.252-1.567l-11.486-6.995c.119.204-.184 2.171-.184 2.171zm9.207-8.879c2.542-.521-10.857 2.501-5.779-6.708 4.199-7.609 9.661.28 7.985 3.152 2.994-1.92 11.056-.765 7.22 6.989-3.52 7.114-9.82-.354-9.426-3.433z"/></g><path d="M107.39 132.295c.115-.692 5.207-2.736 5.267 1.736.021 1.632-2.599 3.212-3.618 2.904-4.264-1.284-1.649-4.64-1.649-4.64zm-7.564-4.863c.483-.764 3.08-3.804 4.723-.284 2.058 4.405-2.514 4.575-1.948 4.331-1.582.685-4.602-1.144-2.775-4.047z" class="C"/><path d="M118.097 117.742c-2.499 1.364-4.71 4.696-7.067 1.588-1.489-1.966-.316-3.457.241-4.704.916-2.045 4.08-1.076 4.532-.853 1.52.751 5.059 3.539 5.786 5.971 1.258 4.214 1.146 8.517-.962 10.222 1.443.335 3.632-4.806 3.531-7.797-.131-3.889-2.617-6.72-4.685-8.671-1.732-1.632-6.17-4.472-9.347-1.277-3.575 3.593-2.487 8.525-.561 9.883 4.514 3.184 8.532-4.362 8.532-4.362zm2.528-11.319c.366-.919 3.4-5.335 5.901-2.568.904.997-.341 3.916-.756 4.047 1.549-.515 3.079-2.24 5.468-.174 2.823 2.443 1.619 7.595 1.2 8.515s-.973 3.061-1.541 3.253c1.657-.469 3.886-4.554 4.581-6.966.34-1.167-.628-6.566-2.869-7.411-1.564-.589-2.699-1.048-4.198-.589.083-2.111.051-2.638-.354-3.246-.396-.594-3.862-2.872-5.767-.44-2.223 2.838-1.665 5.579-1.665 5.579zm142.378-7.057c.65-.273 5.168-.865 6.068-1.703l-10.266 14.013s.178 1.279.6 2.044l-4.253-3.341c.091.217 1.583-.052 1.583-.052l8.397-10.504c-.217.092-2.129-.457-2.129-.457zm31.968 30.122c.864.48 4.859 4.051 1.799 6.18-1.104.769-3.843-.837-3.92-1.263.314 1.602 1.832 3.336-.522 5.444-2.78 2.49-7.738.64-8.598.11s-2.911-1.356-3.031-1.942c.255 1.703 4.024 4.431 6.328 5.428 1.115.483 6.592.21 7.716-1.906.784-1.475 1.383-2.542 1.116-4.087 2.085.351 2.611.385 3.264.06.64-.32 3.34-3.465 1.171-5.664-2.531-2.564-5.323-2.36-5.323-2.36zm-20.946-14.763c-1.033-2.652-4.059-5.268-.675-7.212 2.138-1.227 3.47.128 4.632.837 1.914 1.167.55 4.186.274 4.603-.94 1.413-4.154 4.569-6.658 4.983-4.342.713-8.592.054-10.02-2.254-.514 1.39 4.31 4.212 7.288 4.494 3.875.364 6.999-1.744 9.195-3.547 1.84-1.511 5.219-5.552 2.456-9.109-3.111-4.004-8.141-3.551-9.733-1.812-3.734 4.074 3.241 9.017 3.241 9.017zm8.627 3.8c1.05.104 2.74-.012 4.352.99.24.151 3.114 1.206 2.108 4.394s-6.178 2.458-6.845 2.637c-.544.147-5.799-.047-7.208-.272-1.128-.183-3.067-.281-3.911-.235.016-.02 8.126 7.643 8.126 7.643l4.338-.668-7.158-5.009c.402-.11 2.864.106 3.953.237.932.109 4.775.009 5.915-.103.25-.026 5.897-.653 6.252-3.272.417-3.089-.884-5.002-3.96-6.212-1.615-.63-3.791-1.421-5.962-.13zM179.333 361.839c5.492 4.332 7.354 16.308-3.362 17.644-10.696 1.336-19.08-13.718-3.625-17.594-4.649-9.129-6.323-15.705 4.135-17.476s15.201 13.506 2.852 17.426z" class="B"/><path d="M176.487 359.049c1.493-.061 8.221-3.057 4.892-8.431-4.44-7.161-10.647-.521-10.244.874 1.984 6.882 5.352 7.557 5.352 7.557zm-2.627 4.543c-1.193.462-7.705 2.039-5.328 8.422 2.681 7.206 11.845 2.934 11.831 1.309-.098-10.313-6.503-9.731-6.503-9.731z" class="C"/><path d="M148.164 344.536c.736.262 7.624-3.944 8.202-5.152 0 .472-9.464 29.073-9.569 29.284s1.945 2.261 2.261 2.313c-.105.157-8.57-2.735-8.676-2.681 1.21-.106 2.524-.579 2.682-.684s8.36-22.764 8.36-22.923c-.263.316-3.26-.157-3.26-.157zm95.59-6.135c-5.641 4.535-10.253 13.105-10.582 14.516-1.255 5.333-1.162 11.743 1.054 14.443 1.946 2.369 3.588 6.218 9.64 4.172 6.502-2.196 4.022-10.744.258-11.691-1.842-.464-4.928-.932-7.934-.553 2.37-1.826 9.015-4.514 12.596-.51 3.402 3.8 3.436 8.78.875 11.93-2.42 2.98-5.009 5.749-11.893 4.709s-9.64-12.944-9.472-15.696c.246-4.048 1.2-8.743 4.705-12.94 3.695-4.42 7.816-8.216 10.753-8.38zm-27.571 6.327c-6.338 3.494-12.358 11.142-12.928 12.472-2.154 5.039-3.168 11.368-1.449 14.412 1.507 2.667 2.461 6.74 8.775 5.77 6.784-1.044 5.814-9.89 2.268-11.474-1.734-.774-4.695-1.765-7.718-1.912 2.646-1.388 9.659-2.888 12.496 1.672 2.695 4.331 1.868 9.242-1.197 11.903-2.899 2.516-5.927 4.8-12.527 2.584-6.601-2.209-7.262-14.411-6.624-17.091.942-3.945 2.69-8.408 6.867-11.937 4.401-3.715 9.116-6.744 12.037-6.399z" class="B"/><g class="D"><path d="M196.834 392.827c108.243 0 195.993-87.751 195.993-195.994S305.077.841 196.834.841.841 88.592.841 196.833s87.751 195.994 195.993 195.994z" class="E"/><path d="M197.248 332.11c74.404 0 134.721-60.318 134.721-134.725S271.652 62.662 197.248 62.662 62.524 122.981 62.524 197.385 122.842 332.11 197.248 332.11z" stroke-width=".841"/><path d="M140.467 151.83h113.562v42.48c1.682 9.674-7.15 47.108-57.622 66.034-40.378-16.402-53.838-41.008-55.94-66.034v-42.48z" class="E"/></g><path d="M146.078 157.273h103.024v38.538c1.526 8.776-6.487 42.736-52.275 59.907-35.105-10.303-51.895-43.881-50.749-59.907v-38.538z" class="B"/><path d="M166.333 180.009H150.14v.842h16.193v-.842zm26.446-6.781h3.154c-.006-.493-.154-1.111.167-1.405.429-.396.739-.759.968-1.294.144-.338.751-.81 1.131-.313.192.252-.115.841.178.932.907.279.675 1.292.92 1.975 1.443-.151 2.878-.019 4.312.105.19.68-.556.783-1.014 1.019-.618.317-.911 1.049-1.38 1.629-.31.381-.266 1.58-.34 1.505-.052-.052-3.846.103-3.838.106.164.058-2.71-.048-2.733-.052-.095-.016-.105-.159-.192-.715-.013-.08-.297.025-.36-.045-.188-.218-.487-.444-.343-.818-.526-.102-1.153-.024-1.528-.369-.281-.26-.408-.916-.186-1.133.349-.344 1.154-.46 1.084-1.127zm-2.682 48.842h15.772s.632 6.098 5.048 6.624v.946h-25.13v-.841s3.68-.105 4.31-6.729zm-2.628-3.575h21.976v1.84c-2.208-.315-1.682.893-1.735.893l-18.507.053s.474-1.209-1.629-.893l-.105-1.893zm-9.989 11.882h41.165v1.682c.264.368-1.208-.788-.736.947h-39.641c.316-.841-.42-1.209-.842-.947l.054-1.682zm8.306-44.584c2.63-2.419 6.31-5.573 10.095-7.465h4.1s4.627 1.366 7.992 5.782 11.461 5.784 13.249 5.258c0 0-18.401 13.038-45.004.736 0 0 5.17-.264 9.568-4.311zm15.878 24.5h-7.571c-2.524-.316-7.781-1.683-8.622-2.524-.372-.369-3.26-1.577-2.944.947s2.102 2.944 3.154 1.893 2.839-.736 3.68.209c1.468 1.654 2.63 2.314.631 5.258v1.682h15.877v-1.682c-1.472-1.998-.632-3.712.527-5.258.631-.841 2.103-2.313 3.785-.525 1.464 1.557 2.98-1.915 2.734-1.052.413-1.447-.991-3.148-3.259-1.472-2.419 1.788-7.992 2.524-7.992 2.524zm-37.854-28.601h-9.148v1.472h1.472c2.208 2.419 15.589 14.013 16.088 14.511.736.736 9.285 8.42 15.563 9.989 2.313.579 3.728 1.385 6.413 1.683h7.571c3.26-.631 3.681-.526 5.573-1.472 2.427-1.212 16.321-5.618 19.768-9.884 1.104-1.368 5.048-2.944 8.517-9.99 3.374-6.849 2.208-13.88 2.208-13.88-.21-1.261-4.31-6.465-9.358-4.31-4.311 1.84-4.29 4.03-4.522 4.625-.368.947-.736 4.417 2.946 6.204s5.993-.104 6.308-1.156c.273-.912.262-.893.21-1.997 0 0-.734 3.66-3.574 2.522-.264-.105-4.684-.949-3.576-5.257.946-3.68 5.604-3.956 6.73-1.892 1.262 2.313 2.839 3.68 1.051 7.36-3.349 6.895-14.832 11.975-16.824 12.828-2.208.947-10.62 3.891-13.775 3.891h-10.83c-5.152-.106-13.459-3.891-14.616-4.206s-7.886-4.312-8.938-5.258c-1.673-1.504-5.257-5.783-5.257-5.783z" class="C"/><path d="M254.765 124.385H138.68v5.047h116.085v-5.047z" class="B"/><path d="M155.503 133.744h-12.408c-1.472-.211-6.834 5.046-1.366 7.57h15.036c2.313.316 4.626-7.254-1.262-7.57zm31.23-.211h-12.408c-1.472-.209-6.835 5.048-1.367 7.571h15.037c2.314.316 4.626-7.255-1.262-7.571zm32.597 0h-12.408c-1.472-.209-6.835 5.048-1.367 7.571h15.036c2.314.316 4.627-7.255-1.261-7.571zm31.649 0h-12.408c-1.472-.209-6.834 5.048-1.366 7.571h15.037c2.313.316 4.625-7.255-1.263-7.571z" class="D E"/><path d="M174.746 137.003h-20.82c-1.262.106-1.051 1.262 0 1.472h20.82c.63.422 1.156-1.682 0-1.472zm32.806-.052h-20.82c-1.261.105-1.05 1.261 0 1.472h20.82c.631.421 1.158-1.683 0-1.472zm32.492.105h-20.82c-1.261.106-1.051 1.262 0 1.472h20.82c.631.422 1.156-1.682 0-1.472zm-99.472-13.722h84.751c-3.05-2.524-11.356-1.156-12.723-1.472-1.681-.388-14.196-5.783-18.401-6.73s-19.032-7.15-33.859 3.364c1.472-2.417 5.363-4.626 13.775-8.306S191.46 99.667 192.2 99.254c.947-.525 3.155-1.892 4.732-3.469 4.627 1.157 10.62-2.839 11.988-4.521s1.452-2.304 2.419-2.208c1.05.105 1.576-2.103 1.366-1.683s1.007-1.952-2.734.105c-2.103 1.156-3.996.947-6.624 2.524-.316.525-9.884-4.417-12.198-5.259-.525-.104-.736 3.576-.421 4.101.316 1.683-23.868 9.779-25.656 10.2-2.459.579-13.049 6.754-15.457 9.463-2.524 2.84-3.752 5.775-5.574 8.203-.945 1.261-1.786 1.786-2.944 2.417-.292.16-2.733 2.209-.525 4.207zm69.714-31.861c.316-.157.368-1.419 1.472-1.577 1.198-.171 1.158-.157 1.262-.525.169-.589.578-.157.736-1.263l20.505 8.833c-1.052.631-1.999 2.733-2.419 4.627l-21.556-10.095z" class="B"/><path d="M159.555 172.115c-.846-1.703-.924-3.589-1.949-4.303.421 3.575-.525 4.416-.525 4.416s-.631 2.735.42 6.835h.841c.947-.736 2.735-3.891 1.213-6.948z" class="C"/><g class="B"><path d="M193.252 78.75l-8.623-3.996c-3.049-1.683-5.257 2.84-2.628 4.521l11.987 5.573.211-.841c-2.419-.315-1.052-5.257-.947-5.257zm1.367 5.258c-.211-.42-2.733-5.783 2.419-5.783.736 0 2.313-.632 2.838.315 0 0 .422 1.157 1.788.211s2.628-1.261 2.734.315.946-3.889 3.89 4.523c-2.313 0-5.072 1.064-5.888 3.784-.316 1.052-1.774-1.989-.841-3.575 1.052-1.787 1.792-2.752 1.997-3.575.316-1.261-.545-1.325-1.261.211-.736 1.577-2.524 1.26-2.524 6.729 0 .525-1.261.736-1.261-.841 0-4.381-.322-1.825 1.472-6.309.21-.525-.583-.16-.947 1.052-.315 1.051-1.577-.027-1.577 5.257 0 .736-1.892 0-1.892-1.157s1.156-4.416 1.892-4.836-.42-1.157-1.262-.421-.21 2.735-.421 3.576-1.156.525-1.156.525zm7.991 4.206l1.683.736c1.051-.525 2.944-2.419 4.837-2.839l-2.945-1.263c-1.367.527-3.575 3.365-3.575 3.365zm52.05 7.045l-15.142-6.624.106 5.993c-2.63.315-9.57 6.835-4.418 15.667l-.525 2.208 5.468 1.788.631-1.998c3.89 0 6.098-1.577 7.045-3.576l2.524 1.368 2.523-4.312-2.208-1.472s.841-1.786.21-4.626l3.786-4.416zm-18.156-54.02a2.9 2.9 0 0 0 0-5.8 2.9 2.9 0 0 0 0 5.8zm-83.508 1.628a2.9 2.9 0 0 0 2.9-2.9 2.9 2.9 0 0 0-2.9-2.899 2.9 2.9 0 0 0-2.898 2.899 2.9 2.9 0 0 0 2.898 2.9z"/><use href="#B" x="66.858" y="-231.838"/><path d="M50.651 269.957a2.9 2.9 0 1 0-2.9-2.9 2.9 2.9 0 0 0 2.9 2.9zm122.938-2.462c-2.313 4.732 38.591 8.728 47.423-1.052l11.986 16.72c-7.36 22.081-66.349 16.192-70.554 2.838l11.145-18.506zm-10.094 13.879l10.305-17.56s3.153-11.986-18.507-17.349-41.033-12.48-41.324-12.724c-.316-.263-14.51-6.519-15.877-16.719-.973-7.257 2.312-8.201 7.571-5.677 0 0 17.769 13.039 21.976 18.611 1.88 2.492 10.304 1.157 10.62.21s4.521-5.888.21-10.514-19.242-14.302-18.19-16.615c0 0 0 15.984 1.892 19.348.62 1.104-13.111-12.063-17.771-13.039-4.521-.946-12.407-1.472-16.297 4.416s-8.097 10.726-2.524 25.236 31.018 19.348 32.912 19.874 32.126 10.846 32.806 11.146c5.258 2.314 11.672 5.888 12.198 11.356zm57.517-18.506l11.145 15.772c-.209-4.416 13.249-10.829 16.193-11.145 0 0 26.288-9.884 33.228-11.567s28.6-9.043 30.072-26.919-7.57-19.768-13.248-21.24c-7.738-2.005-17.878 1.146-26.077 13.67 0 0-.211-14.722 2.103-18.296 0 0-9.963 10.33-15.562 12.197-5.048 1.683-8.313 17.76 4.416 14.932 9.463-2.104 12.088-10.775 18.086-15.773 5.046-4.206 6.94-5.678 11.356-5.258s6.309 2.735.63 13.67-26.917 14.932-28.81 15.141-28.42 8.109-29.652 8.833c-.895.526-14.722 1.262-13.88 15.983z"/></g><path d="M139.415 243.31c-.841-3.365-2.733-14.931-.841-14.931m116.507 13.67c1.472-4.207 1.261-11.147.841-16.194" stroke-width="1.261" class="D"/><g class="B"><path d="M247.509 275.591c-2.498 3.025-1.052 4.416-1.997 7.36-.895 2.783-5.468 7.361-6.625 7.045-1.734-.472-6.099-1.366-6.099-.736.631-3.785 7.467-14.405 16.615-17.138.41-.55.104 1.05-1.894 3.469zm-21.03 18.822c.106-.841 2.524-3.155 4.522-4.101 1.045-.495 5.702.046 6.834.841 1.419 1 2.576.896 3.471 2.208 1.692 2.491 5.993.527 6.308-.104 1.472 1.051-3.251 5.861-5.677 6.099-2.683.264-4.958 2.449-11.042-.316-1.156-.526-2.881-.952-3.102-1.103-3.05-2.103-1.314-3.524-1.314-3.524zm20.82-8.728c-1.788-5.678 7.046-11.145 9.779-10.83.627.072 5.889-3.68 7.045-5.678 1.158 2.523-7.045 14.09-8.201 14.3s-2.921.682-3.576 2.208c-.315.736-5.047 0-5.047 0zm-2.734 6.52c-.63-4.416 7.046-5.363 10.306-4.627s5.677 1.578 8.412-.105c1.472.736-3.043 6.072-10.622 5.679-5.853-.303-3.994-1.788-8.096-.947zm3.575 11.356c.736-3.891 5.543-3.892 6.099-7.781.105-.736 4.943-3.26 6.52-2.208s5.257-3.47 5.467-4.311c3.365 3.891-2.734 12.617-4.836 14.195s-1.894 1.577-2.735 1.682c-6.261.784-6.729-1.682-8.517-1.157s-1.998-.42-1.998-.42zm30.284-28.18c-2.734-.842 5.381-11.643 12.302-12.303 2.208-.211 7.255-4.627 9.254-5.783.21 3.995-12.303 19.874-19.138 18.506-1.577-.315-2.418-.42-2.418-.42zm-14.406 1.787c-.105-.946 1.788-4.416 2.944-5.362 2.372-1.94 6.204-3.68 6.94-4.311s4.838-2.84 5.574-4.943c1.261 1.788-4.507 12.116-4.732 13.25-.106.525-6.994-.579-8.412.841-.526.525-2.314.525-2.314.525zm-6.309 6.73c-.457.111.368 2.893 2.419 2.733 1.684-.128 3.26-1.261 4.732-.945 4.649.997 11.733-2.54 13.88-4.627 1.892-1.838 4.836-2.208 5.257-3.68-2.524.79-7.101.67-8.045.579-1.63-.159-10.167-.877-11.828 1.313-2.314 3.05-4.363 4.135-6.415 4.627zm-29.652 29.442c2.944 3.155 12.303 0 13.775-1.788s4.521-3.364 5.362-5.257c-3.154.736-3.365 1.366-5.782 1.577s-5.072-1.423-9.15.105c-3.364 1.262-6.496 2.911-4.205 5.363zm-60.251-.526c-.47 3.44-10.515 4.102-14.406-.21s-3.996-3.155-6.204-6.099c.736.369 10.62.947 12.303.841s8.937.842 8.307 5.468zm-20.505-18.296c.211 1.736 2.051 4.891 6.782 5.732s12.776-1 14.038-2.629 1.115-3.403-2.524-5.572c-2.997-1.788-9.917-.798-11.093.42-3.101 3.205-6.94.997-7.203 2.049zm-52.259-36.487c-1.052.525 6.099 20.243 20.82 18.612 1.577-5.573-8.623-12.093-13.249-13.144s-6.94-5.679-7.571-5.468zm15.142 19.873c-.947.895 11.412 9.044 14.142 8.938 4.334-.168 12.303-.946 14.354 0-1.526-2.47-7.047-6.219-13.512-8.463-2.287-.795-9.096.683-14.984-.475zm9.62-10.146c-2.364-.416-3.761-2.723-4.521-2.892.105 2.366 4.521 11.514 5.311 11.777.841.264 7.517-1.052 9.305 1.631.385-2.966-5.309-9.674-10.095-10.516zm19.979 8.149c-5.268-2.483-8.728-5.73-9.359-5.94.631 1.418 1.596 7.389 5.627 11.672 1.682 1.788 4.369 4.592 5.834 4.993 2.683.736 4.312-.156 5.994.105-.21-3.942-3.522-8.673-8.096-10.83zm22.45 14.3c1.104-3.155-12.671-17.665-16.824-16.875.788 1.523 2.944 2.312 3.365 8.307s4.363 8.201 5.257 8.412c.736-.58 8.043-.947 8.202.156zm-15.247 3.049c2.155.947 4.089-.946 4.311-.788-2.839-1.892-3.086-.389-5.152-2.838-1.42-1.683-2.208-1.683-4.102-1.051-3.329 1.108-9.749.327-9.832-.105-1.156 1.681 4.891 5.782 9.096 5.046.352-.062 4.923-.594 5.679-.264zm-3.943 8.045c-.967-.936-1.4-2.301-2.26-3.785-.579-1-3.996-3.049-6.415-3.049-2.781 0-5.625-2.999-5.625-4.891-3.891 11.305 7.254 17.508 11.618 17.035 4.419-.479 5.258-2.155 8.098-3.416-2.326-.864-3.944-.471-5.416-1.894zm54.415 9.62c2.419.054 5.965.62 8.464.264 1.472-.21 4.943-1.736 7.835-2.893.906-.361 5.572-2.733 6.676-4.205 1.937-2.582 5.784-4.838-3.47-9.726-2.869-1.516-6.572 1.944-6.572 2.103-.473 1.313 10.319 4.249 1.472 8.097-7.254 3.155-8.609 3.804-9.989 3.996-1.525.21-6.871.471-9.253-.054-5.731-1.262-7.519-1.944-9.936-3.364-3.714-2.179-3.943-6.887 2.944-8.518 1.282-.302-8.15-1.788-8.15-1.788-2.892.264-8.569 6.204-1.682 11.2s10.452 4.982 11.724 4.994c2.429.024 5.938-.191 9.937-.106z"/><path d="M192.673 308.818c-2.102-2.154.415-3.597 1.736-4.257.736-.369 4.484-1.191 6.466 0 1.841 1.103 2.734 2.103 1.946 3.996-.365.873 3.838-1.947 4.258-1.316s-1.503-2.233-3.786-3.785c-2.628-1.788-5.782-2.944-11.408-.42-1.338.6-4.22 4.018-2.366 5.1 1.261.736.841.366.841.366l2.313.316zm-4.837 1.788s-5.333 4.996-.105 8.045c3.785 2.208 5.737-.682 5.888-1.105.264-.736.593-1.523.159-2.365-.79-1.526-2.838-.544-2.156 1.313.578 1.577 1.525.105 1.42.685s-4.363 1.283-4.575-.894c-.157-1.63.24-2.75 3.68-4.468.632-.316 1.105-.686 2.261-1.106 1.57-.57-6.572-.105-6.572-.105zm16.352 2.262c-1.526-1.367-2.32-1.921-4.311-2.419-1.263-.314 6.624-.525 6.624-.525s5.309 6.781-1.42 9.409c-2.323.908-4.784-1.577-4.941-3.364-.15-1.684.945-1.524.945-1.524s.876-.232 1.42.736c.473.842.263 1.892-.789 1.892-.548 0 1.63 1.788 3.418.472.359-.262 1.648-2.352-.946-4.677zm-24.185-4.786s-10.568 1.631-10.884 1.472c.579-3.941-.997-7.832-9.62-6.781s-8.991-1.315-8.991-1.315c-.157.946 1.314 5.27 5.258 4.47 3.365-.684 12.341 1.497 12.881 3.521.211.791.157.631.736.631.959 0 13.616-.262 13.616-.262l-2.996-1.736zm36.119-1.733c-.158.42 6.888 3.31 8.254 2.364 0-2.048 4.992-8.212 12.408-6.73 5.783 1.158 7.571-1.102 8.412-1.628.106 1.472-2.156 7.571-6.046 6.36s-11.987.686-13.25 4.311c-1.313-.367-1.156-1.417-1.786-.997-.514.341-10.042-.315-10.2-2.419s2.208-1.261 2.208-1.261zm-113.72-132.333c-6.624 12.197-5.205 28.705 5.204 36.277-.63-1.998-1.03-4.914-.261-7.781.788-2.944.089-12.988-.316-14.827-1.104-4.994-4.627-13.669-4.627-13.669zm5.941 30.599c.684-6.467.105-10.088.159-12.25.052-2.156 4.416-8.149 5.466-10.357.036 1.156-1.829 5.039-.893 9.779.841 4.258-2.735 11.881-4.732 12.828zm-3.732-28.864c0 .736 4.153 9.726 3.942 12.934.79-.579 3.523-4.627 4.891-8.202.959-2.509.42-14.984-.841-16.509-5.102 2.892-7.992 11.777-7.992 11.777zm-.474-7.045c.105 2.111-.947 4.3-.947 4.679.211.525.895.316.895.473-.053.316 1.099-3.904 3.417-5.836.315-.262-.526-4.416 1.156-4.941-2.365.263-4.258 3.259-4.521 5.625zm-5.52-18.98c-.105 1.052-1.997 3.366-2.576 5.942-.721 3.212-1.6 16.134-.316 20.241.263.841 1.577 4.836 1.84 5.572.473-.42 2.787-8.569 4.784-9.2.264-1.209 1.315-11.304-.631-15.772-1.342-3.087-2.785-4.785-3.101-6.783zm-3.785 26.183c-.211 1.84 2.471 6.834 2.576 7.465s-.211 6.204.053 7.413c.103.475-7.189-8.346-7.676-9.2-.421-.736-1.788-10.936.104-14.406.211 2.052 4.943 8.728 4.943 8.728zm-6.414 6.888c.577 3.154 1.419 9.042 2.313 12.933.753 3.279 12.249 12.197 12.619 11.987-3.702-4.09-6.574-12.198-6.152-15.51-.893-.63-8.728-9.042-8.78-9.41zm201.835-18.507c-.263-.841-2.726-1.924-3.523-1.945.421.42 1.104 4.258.893 4.416.264.525 1.683 3.154 1.788 5.521.031.7 2.652-1.851 2.367-2.524-.895-2.103-1.267-4.64-1.525-5.468zm6.414-17.613c-.211 1.631-3.534 5.065-4.89 9.832-1.84 6.467.612 11.983.947 13.564.577 2.735 3.417 10.357 3.732 10.777.369-.577 2.419-8.042 3.208-10.514.731-2.288 1.052-11.724-.684-15.299-1.007-2.073-2.313-8.36-2.313-8.36zm-14.984 16.772c1.052.841 6.94 6.519 7.834 12.197-.683.842-3.523 7.518-3.366 11.303-.736.632-4.064-7.377-4.416-10.199-.316-2.524-.21-5.73.159-7.465.529-2.497-.053-5.52-.211-5.836zm-1.472 16.666c.788 3.049 2.103 5.362 1.629 9.148s-.105 11.62 4.05 13.406c-.422-1.525-.579-12.722-.054-13.722-1.577-.894-5.152-7.623-5.625-8.832zm11.987-6.94c-2.301 4.13-4.989 11.485-5.205 15.036-.272 4.461-.473 16.298.211 19.348 3.469-.106 7.158-6.56 7.833-9.99.684-3.469 1.917-12.237.263-15.982-1.998-4.522-3.102-8.412-3.102-8.412zm2.314 29.285c.525-.474 2.629-8.571 3.206-10.988.375-1.568 7.782-9.411 8.832-10.622-.682 1.842-1.366 8.151-2.049 11.358-.473 2.22-9.096 10.462-9.989 10.252zm11.035-30.599c-.364-2.629-.153-4.931-.364-5.468-.472 1.472-2.26 6.52-3.364 6.94-2.037.776-4.994 8.412-4.994 8.412-.211 1.524.736 6.256.893 6.992.188.875 6.807-6.632 7.413-8.78.322-1.14.862-4.864.416-8.096zm-25.993 147.533l16.984-11.617c-.898 4.141.128 4.444.128 4.444.655 1.537 14.043 20 14.618 20.05s1.22 1.114 3.408.255l-12.939 10.079c-.376.654-.771.936-.388 2.553-.177.197-3.936-4.945-4.255-4.921 1.484.502 2.143 1.406 3.127.438l7.637-5.701s-6.481-7.18-6.318-7.217l-4.196 3.212c-.183 1.462-.37 1.181.166 2.865-.066.152-5.134-5.739-5.134-5.739-.404-.194 2.7 1.667 3.481 1.21s4.479-3.451 4.479-3.451c.092.164-6.808-10.588-6.808-10.588-.834-.708-2.282-1.051-4.755 1.211-.892.814-8.041 4.432-8.197 11.35-.076.258-1.038-8.433-1.038-8.433zm29.161-15.751c-1.938-1.031-5.798-1.86-8.178-1.21-2.328.638-2.739 2.87-3.314 3.979 1.723-.373 4.122-.633 5.046-.337.854.272 4.734 1.953 6.657 2.865.437.208 3.852.609 5.917-.049-.122 1.361-1.434 7.736 2.452 10.301s8.306 2.172 10.103.961c.771-.52 10.04-10.133 10.388-11.05-1.465.449-1.488.71-3.664-.33-1.341-.64-18.889-17.161-19.063-17.598s-.725-1.332-.864-2.718c-.018.21-5.124 5.927-5.381 5.851 1.341-.249 2.127-.759 3.004.06l8.028 7.583s-2.772 2.606-3.537 2.954c-.839.38-.38.884-2.319.531-2.856-.52-3.008-.587-5.275-1.793z"/></g><path d="M321.036 302.796c-.982 1.547-2.766 2.602-3.732 6.316-.412 1.576 1.2 5.439 2.387 6.918s4.212 1.71 7.292-.084c1.728-1.007 3.372-2.866 4.689-4.014l-10.636-9.136z" class="C"/><path d="M322 277.385c.037.162-3.918 6.566-5.02 7.099 1.689-.587 2.484-.621 3.38-.012 1.834 1.244 20.452 14.451 20.452 14.451s1.78.74.805 3.977c-.148.463 5.097-6.247 5.649-7.095-.761.25-2.154 1.074-4.145-.265-.656-.44-19.593-14.224-20.177-14.585-1.099-.679-.968-2.146-.944-3.57zm5.128-10.38c.204.168-4.254 8.639-4.297 8.425.687-.07 2.425-2.304 4.089-.75s22.472 11.025 22.408 11.233 1.803-.229 1.716 2.663c-.118.254 4.079-6.068 4.31-6.428-1.43 1.248-2.276 1.313-4.279.269l-9.549-4.984 6.206-14.231 10.454 4.819s2.45 1.643 1.589 4.233c-.224.252 3.965-8.073 3.972-8.232-1.135.647-1.72 1.866-4.345.635l-21.52-10.084c-.504-.445-2.352-.271-2.74-3.185-.139.678-2.791 7.71-3.151 7.534 1.408-.88 1.62-1.976 3.475-1.148l10.313 4.439-6.299 13.964-11.101-5.584s-1.461-.281-1.251-3.588zm21.877-28.211l-6.015-2.967c-1.619-.197-6.328 7.561-4.933 10.853 1.368 3.232 4.237 7.9 10.513 6.38 3.02-.732 7.36-5.89 9.781-6.669 1.795-.579 5.087-1.972 6.706 1.761s-1.903 6.482-2.174 6.563-2.52 2.781-6.313 2.707l5.161 1.888c-.005-1.11.467-1.408.847-1.774.405-.385 4.328-3.516 5.383-5.269.382-.64 2.036-7.419-4.167-9.455s-10.557 2.371-10.788 2.57c-1.775 1.53-.627 1.686-4.389 3.618-.732.376-4.878 1.41-7.134-2.277-2.154-3.521-.698-5.26.436-6.611 1.359-1.621 2.786-2.232 7.086-1.318zm-4.952-22.823l-1.264 9.38c1.012-.817 2.396-3.572 4.036-2.796 1.098.517 10.347 2.348 10.347 2.348-1.544 1.224-1.636 10.177-.512 11.656 2.708 3.548 6.931 4.487 10.569 2.272s4.423-5.24 4.996-5.957 2.312-10.459 2.347-10.719c-.548.511-1.411 2.196-2.897 2.209s-22.316-5.109-23.047-5.333c-3.835-1.168-2.796-.061-4.575-3.06z" class="B"/><path d="M370.294 228.316l-11.567-2.356c.405 1.329-2.484 5.45 1.267 8.716s6.706 1.008 7.477.793c1.78-.493 3.84-5.265 2.823-7.153z" class="C"/><path d="M344.249 182.892c-.144.184.863 3.073.435 5.149-.089.437.667-1.323.899-1.352 1.277-.163 1.29-.023 2.428-.019 2.108.01 17.302 1.267 17.716 1.406-.119.149-20.67 9.225-20.835 9.316s-.368.657.095.8 20.12 8.345 20.12 8.345c-.124.203-16.23 1.845-17.992 2.052-1.066.128-1.911-1.836-1.93-3.58-.241 1.035-1.02 9.52-1.045 9.833 1.513-1.778 1.993-1.845 2.751-2.104.538-.18 22.21-2.72 22.302-2.553s3.574-.509 4.843 2.124c.795 1.651.877 1.547 1.311 2.741l.608-7.652-22.923-8.885 21.94-10.655.379-5.454c-.28.874-.976 2.436-1.786 3.236-.742.73-.332.869-2.616 1.057-.749.061-24.166-1.812-24.166-1.812s-1.796.016-2.534-1.993zm-5.366-27.977c.287 1.045 2.004 6.2 1.855 7.345.84-1.161.428-2.064 1.437-1.669l10.632 2.229 1.516 8.311-7.966 3.788s-1.844 1.14-3.244-.74c.176 1.508 1.681 7.059 1.416 7.872.904-.836.68-1.523 2.321-2.349 1.588-.8 25.749-14.574 25.827-14.352s2.036-1.379-.574-1.719-30.392-6.015-30.392-6.015-1.786-1.345-2.828-2.701z" class="B"/><path d="M357.635 163.607l1.3 5.895 8.064-4.518-9.364-1.377z" class="C"/><path d="M328.102 129.755c-.072.204 3.774 6.429 3.585 7.889-.031.315.999-3.865 2.104-3.815s10.541-4.285 10.541-4.285l6.766 13.947-10.246 4.472s-2.732 1.537-4.277-.563c-.101.52 2.433 6.092 2.171 7.228.748-2.357 1.226-2.947 2.992-3.731 1.31-.582 20.56-8.038 20.56-8.038s1.909-1.194 5.089-.208c0 0-2.269-5.6-2.409-6.354-.306 1.556-1.83 2.046-2.404 2.519-.115.095-8.208 3.611-8.208 3.611l-6.788-13.687 7.929-4.004s2.803-1.16 4.216.663c.316-.551-2.849-6.184-2.913-6.612-.174 1.252-1.539 2.712-2.622 3.133l-21.076 8.467c-3.013 1.14-5.524-.996-5.01-.632zM223.711 21.549l-16.404-1.472c1.577.736 1.577 4.101 1.473 4.311s-1.682 20.609-1.682 20.609.105 3.681-3.26 4.101l9.989 1.261c-2.208-1.367-2.944-2.343-2.944-5.047 0-.316.947-10.305.947-10.305l4.31.527s1.367.315 1.998 3.364l.736-6.729c-.631 1.999-2.523 1.788-2.523 1.788l-4.417-.527.841-10.829 5.784.736s4.416.736 5.047 4.205l.105-5.993zM172.712 32.59c1.894-5.363 3.575-10.831 15.668-12.619 3.61-.532 13.775 4.312 12.828 15.143-.122 1.397-1.157 14.405-14.932 15.247-15.05.919-14.433-15.308-13.564-17.771z" class="B"/><path d="M174.815 33.115c.894-5.257 6.52-10.095 12.092-9.568 4.546.428 12.303 5.467 11.778 12.197s-6.204 11.987-12.724 11.356-12.22-7.657-11.146-13.985z" class="C"/><path d="M134.323 30.797l-6.811 3.364c3.137-.344 2.691 2.116 2.691 2.116l-2.819 12.868-10.292-6.391s-2.361-1.929-1.036-3.928l-7.667 4.588c2.299-.28 3.826.347 4.612 1.021.226.193 13.194 7.119 13.194 7.119l4.514 9.465s1.748 2.187-.916 4.603l8.512-4.547c-3.484-.052-3.901-1.392-3.901-1.392l-4.273-9.06 2.25-14.829s.084-3.064 1.942-4.997zM85.933 62.97l-.357-4.719 18.418-12.996 3.893 2.657c-2.032-.373-3.557.375-4.341 1.173l-5.763 4.655 12.505 17.505s1.504 3.155 5.272 2.764l-6.796 4.945c.687-2.056-.688-4.905-.688-4.905l-14.257-18.32-5.488 4.107s-1.339.419-2.399 3.135zm-13.084 7.74l7.163-6.431c-1.264 3.301-.929 3.921.384 5.563s13.108 15.477 13.108 15.477 1.445 2.479 5.311 1.623l-6.329 6.195c.649-2.756.835-3.603-1.117-5.436s-14.497-16.17-14.497-16.17-.568-1.351-4.023-.821zm-4.923 15.275l-3.165-4.189c-.436 1.193-2.736 2.844-2.736 2.844s-5.849 2.131-5.517 7.905 6.419 8.16 10.849 5.4 12.229-2.827 12.728-1.811 4.051 4.756-1.42 7.701-8.227 1.363-8.533 1.491l2.247 3.204c1.541-.539 6.244.025 9.873-3.28 4.045-3.68 2.901-10.114 1.772-11.418-2.659-3.068-8.82-3.655-13.684-1.072s-7.467 4.469-10.003 1.603-.519-5.444.159-6.233 3.665-3.127 7.431-2.145zm-33.581 36.923l7.675-12.815s7.088-5.282 11.829 1.635c.717 1.048 1.076 4.452 1.108 4.872 1.735-.764 2.793-2.109 5.543-2.003 4 .158 13.979-2.008 14.915-3.556 1.048 1.292-.253 3.604-3.715 5.238s-12.019 1.438-12.833 1.817-2.211-.279-4.075 1.891c-.097.112-2.899 3.489-2.899 3.489l8.712 5.033s2.901 2.1 5.161-.076l-2.812 6.015c-.595-2.275-1.869-2.391-2.973-3.045s-19.401-9.706-19.401-9.706-2.943-1.253-6.235 1.211z" class="B"/><path d="M40.157 117.512l2.739-4.215s2.48-3.457 7.227-.655c4.272 2.524 1.943 7.551 1.943 7.551l-1.381 2.636-10.527-5.317z" class="C"/><path d="M31.231 131.897l-5.744 16.043c1.784-1.507 4.687-.777 4.687-.777l21.404 6.917s3.095 1.875 2.883 4.633l6.512-18.421-4.365-4.729c2.189 3.841.605 6.596.605 6.596l-2.299 7.24s-.905 2.734-4.243 1.06c-.548-.275-7.925-2.984-7.925-2.984l1.901-5.523s.485-1.935 3.155-1.505l-6.836-2.539c1.58 1.356 2.127 3.001 1.915 4.389s-1.989 4.368-1.989 4.368l-11.44-3.456 2.687-7.689s.067-1.904 2.591-1.989l-3.497-1.634zm-5.207 18.955l-1.58 6.973c1.437-1.901 2.243-1.013 2.815-.424s16.593 10.236 16.593 10.236 2.959 1.462-.365 2.136c-.92.188-19.437 2.319-19.437 2.319s-2.219-.044-2.964-2.94l-.931 9.984c1.163-1.353 2.208-2.049 4.325-2.753.824-.274 24.539-4.603 24.539-4.603s5.113-.704 1.124-3.249-21.115-12.846-21.115-12.846-1.663.338-3.004-4.833zm-7.261 40.517l.011-9.598c1.643 2.194.335 3.033 4.044 3.28.211.013 22.928.581 22.928.581s2.629-.093 4.116-2.739l-.324 8.252c-.772-1.841-2.901-2.101-3.86-2.24s-22.943-.79-22.943-.79-2.572-.544-3.972 3.254zm2.087 38.648l-1.469-5.478s-.821-1.097 1.64-3.393c4.011-3.74 19.385-19.713 19.385-19.713l-18.575 1.197s-2.636-.011-3.737 3.552l-.669-7.436c1.875 2.495 2.368 2.035 3.763 2.352.435.099 25.681-2.055 25.681-2.055s4.709-.778-.028 2.428c-.701.475-19.835 19.327-19.835 19.327l20.445-1.552s1.653-.441 2.255-3.649l.869 8.685c-1.144-2.548-.841-2.783-3.047-2.616l-21.477 1.84s-4.896.793-5.201 6.511zm3.102 10.309l-1.655-6.517c1.604 1.672 4.145.423 3.959.755s18.289-4.974 18.289-4.974 7.041-1.693 9.324 6.147c2.004 6.892.32 10.935.028 11.493-.923 1.756-1.347 2.116-3.157 2.875-.613.257-16.563 5.475-16.563 5.475s-2.985.965-4.045 5.052l-2.708-9.284c2.136 1.734 3.532.68 4.564.39s16.595-5.054 16.595-5.054 3.22-1.055 3.279-4.046c.043-2.217.519-4.585-2.12-8.486-1.425-2.106-2.384-2.244-5.111-2.038-1.157.088-17.853 5.152-17.853 5.152s-1.903-.068-2.825 3.06zm30.012 64.22l-8.116-11.891s-.805-1.493-2.057-1.352l3.849-2.445c-.68 2.403.507 3.54.507 3.54l4.541 6.469 10.053-6.533-2.701-4.244s-1.536-1.413-3.835-1.153l5.556-3.274c-1.112 1.395-.667 3.463-.317 3.739s2.759 3.813 2.759 3.813l7.968-5.344s1.947-1.31.505-3.021c-.245-.288-4.264-6.816-4.264-6.816s-1.792-2.763-4.777-2.953l5.619-.846 10.351 14.808c-2.103-.821-2.683-.333-5.339 1.451-.531.355-17.651 11.412-17.651 11.412s-2.6 1.352-2.651 4.64zm10.045 13.043l-5.517-6.678c3.276.9 4.436-.078 5.085-.894s17.051-15.79 17.051-15.79 2.005-1.918.748-3.682l6.025 5.564c-2.196-.706-3.704-.006-4.26.692s-8.636 7.856-8.636 7.856l12.332 11.726 7.987-7.04s2.504-2.188.861-4.541l6.921 5.989c-2.602-.552-3.846 1.046-4.942 2.147-.475.477-16.76 15.544-16.76 15.544s-1.404.688-1.525 4.3l-7.284-7.325c2.175 1.448 4.205.69 5.005.281s7.651-7.213 7.651-7.213l-12.472-12.03-6.212 5.888s-2.297 1.21-2.057 5.206zm37.703 33.59l-19.707-15.02 1.096-4.012c.084 1.997 1.132 1.897 1.056 2.223s7.329 5.953 7.329 5.953l15.259-19.411s1.625-2.901.109-5.504l8.126 5.458c-2.323.009-2.96-.036-4.507 1.486-.617.607-16.065 19.806-16.065 19.806l8.33 6.494s.634 1.099 3.239.745l-4.265 1.782z" class="B"/><path d="M94.884 231.691c.053.474-.42 1.578-1.577 2.734-1.636 1.636-2.932 1.201-3.207.053-.315-1.315-.42-1.525.525-2.419l-.631-1.052c-.42.736-1.892.211-1.787 2.419.089 1.893 2.139 3.412 2.944 3.68 1.103.368 2.085.16 3.469-1.052.421-.367 1.009-.528 1.893-2.628.841-1.997.209-1.827.209-2.629 0-.736 1.159-1.415 1.629.316.316 1.156.159 1.788.159 1.788h1.682c-.316-.316-.264-.579-.264-.579.316-1.631.527-2.261-.997-3.628-.903-.808-1.788-1.367-2.893-.315s-1.34 1.652-1.156 3.312zm14.143 9.674l1.261-2.051c-.893 0-.998-.157-1.104-.368-.193-.386-.686-2.282-3.26-3.102-1.156-.367-3.448-.772-5.94 1.316-1.945 1.629-2.524 3.153-1.315 5.834s4.513 3.131 5.52 3.26c1.629.211 2.734-.736 3.312-.998l-.211-1.683c-.631.631-1.733.947-2.944.788-1.157-.151-2.68.053-3.416-1.313-.604-1.12-.421-2.63.209-4.259.21-.541 3.418-2.735 5.52-.841s1.947 2.576 2.367 3.417zm5.573-.894l3.943 1.367c-1.21.264-1.419.578-1.578 1.052l-2.313 7.465s-.368 1.315.525 2.103l-5.046-2.05c1.42-.316 1.525-.369 1.84-.946s2.786-7.255 2.786-7.255.474-.841-.157-1.736zm14.037 5.941v-2.418c-.473.21-.788.21-.788.21l-5.836-1.209c.473.368.052 1.42.052 1.42l-1.735 8.359s.106.894-.998 1.156l8.569 2.418 1.788-3.996c-1.577 1.052-1.263.79-2.156.895s-3.469-.105-3.469-.105-1.207.149-.842-.947c.052-.157.526-2.365.526-2.365l1.893.105s.893-.105.999.999l.525-2.367c-.368.684-.947.421-.947.421l-2.365-.473.683-3.68 3.26.841s.473.052.841.736zm5.047-.053l3.469.054s1.211.209 1.474 1.524 5.73 9.464 5.73 9.464l1.683-5.679s.263-1.313-1.525-1.893l5.205-.052c-1.261.684-1.209.473-1.472 1.998-.109.631-2.524 8.202-2.524 8.202s-.42 3.26-1.84.42c-.287-.574-7.097-9.411-7.097-9.411l-.684 4.732s-.368 1.051 1.05 2.313l-5.993-.841c1.052-.368 2.208-.736 2.367-1.367s1.788-6.256 1.788-6.256.682-1.841-1.631-3.208zm26.341 12.671l2.313-1.366c-.579-.422-.692-.903-.895-1.21-1.102-1.682-.682-2.05-2.313-2.84-1.76-.85-2.86-1.47-5.94-.314-2.103.788-2.524 1.629-3.26 3.206-.249.534-.668 1.775.316 3.682.841 1.629 1.62 2.664 3.364 3.258 2.156.736 2.945.999 5.363-.42l.893-1.577c-.683.315-.945.841-1.944.947s-1.905.302-3.103-.159c-1.366-.525-1.682-.42-2.629-1.629-.747-.956-.315-4.207.159-4.838 1.61-2.148 6.334-1.13 6.781-.525.736.999 1.315 2.787.895 3.785zm9.989 6.099l.841-2.787c-.578.368-1.052-.578-1.052-.578l-3.628-4.47c.37 1.052-.525 2.578-.525 2.578l-4.889 4.678s-1.526 1.578-2.682.684l6.467 6.626 2.839-1.631c-1.315.209-1.315.368-2.051 0-.105-.052-2.575-2.681-2.575-2.681s-1.525-.684-.158-1.736 1.788-1.839 1.788-1.839l1.261 1.261s.736.578.105 1.472l2.471-2.418c-.945.421-1.367.316-1.524.157l-1.368-1.419 1.683-1.893 2.418 2.365s.684.159.579 1.631zm-1.841 18.823l2.892 1.577c-.42-.947.474-1.736.474-1.736l2.628-2.155 4.68 1.894.368 3.416s.209 1.156-.947 1.261l5.047 2.052c-.683-.736-.842-.421-.842-1.947 0-.157-1.681-12.408-1.681-12.408s.209-1.733-.999-.261c-.096.115-9.412 7.727-9.412 7.727s-.42.736-2.208.58z" class="C"/><path d="M179.004 278.274l-3.312 2.418 3.206 1.156.106-3.574z" class="B"/><path d="M185.892 278.379l8.253.051s3.155.369 3.576 2.578-1.472 4.522-1.945 4.888c.736.264.682.842.841 1.106.631 1.05 2.332 2.773 2.681 2.889.788.265.946.58 1.787.421-.052.686-1.528 1.572-2.839 1-1.682-.736-2.785-1.736-3.154-2.893s-1.419-1.523-2.734-1.628c-1.105-.089-3.101 0-3.101 0l-.105 2.839s.052 1.368.893 1.418l-4.207-.105c.947-.367 1.158-.367 1.315-.997s.316-10.411.316-10.411-.631-.84-1.577-1.156z" class="C"/><path d="M189.256 280.061l4.259.051a1.8 1.8 0 0 0 1.524 1.737c.157 1.839.105 2.944-.84 3.206-1.492.414-4.943.053-4.943.053v-5.047z" class="B"/><path d="M199.403 279.325l14.195-2.419.946 3.26c-.682-.894-1.05-1.63-1.682-1.472s-4.206.736-4.206.736l1.42 9.674s.683.577 1.788 1.052l-4.101.577-1.209.159c.998-.686 1.366-.475 1.156-1.736l-1.788-8.99-4.994.736s-.525-.105-.369.998c.119.833-1.156-2.575-1.156-2.575zm23.712-3.524l.63-1.893c-.142.144-.528.556-.736.316-.684-.787-.998-.947-2.156-.892s-.998.051-1.84.472c-.822.411-1.786.631-2.05 2.103-.315 1.769.264 2.208.684 2.472 2.278 1.424 3.837.892 4.416.892s1.998.265 2.365 1.577c.525 1.875 0 2.157-.525 2.683s-.999 1.102-2.734.788-2.681-1.208-2.576-1.578l-1.261 1.262c.84-.051.725.586 1.419 1.157.894.736.736.736 1.997.841s2.375.012 2.944-.262c1.315-.631 1.389-.756 2.261-1.682.842-.896 1.958-3.197 1.104-4.837-.682-1.316-2.109-1.292-2.681-1.472-.999-.316-2.103.105-3.68-.211-.068-.014-.529.068-1.631-.894-.42-.367-.052-1.419 1.052-1.578s2.63-.052 2.998.736zm1.734-14.3l2.734-3.049c-.262 1.052 0 1.788.264 2.102s4.101 6.047 4.101 6.047.997 1.261 2.785.211l-4.416 4.101c.42-1.367.736-2.208.158-3.051l-4.1-5.414s-.579-.999-1.526-.947zm10.673 4.364c.211-.947.316-1.052.106-2.156s-4.259-6.151-4.259-6.151-.736-1.42-1.999-.841l1.315-.895s.316-.577 1.525-.157 10.83 2.524 10.83 2.524l-2.523-5.521s-.263-.788-.893-.631l2.522-1.472c-.157.473-.262.947-.157 1.157s4.469 8.202 4.469 8.202.158 1.209-.894.789-10.988-1.683-10.988-1.683l2.208 4.206s.684 1.63 1.577 1.42c.876-.207-2.839 1.209-2.839 1.209zm8.833-15.352l5.257-2.472s1.472-.84 4.312.684c2.63 1.414 3.011 1.958 3.47 6.31.105.998-.619 2.256-1.736 2.733-1.103.473-6.571 2.419-6.571 2.419.368-1.051-.053-1.998-.053-1.998l-3.366-6.729s-.261-.947-1.313-.947z" class="C"/><path d="M246.563 250.565l4.048 7.624c.999-.21 3.122-.168 4.575-2.418 1.051-1.631.476-2.363.105-3.05-.684-1.261-1.257-1.952-2.892-3.26-.329-.262-1.337-.893-2.418-.578-.051.016-3.418 1.682-3.418 1.682z" class="B"/><path d="M257.288 246.307l3.47-1.525c-.21 1-.631 1.105-.104 1.893.234.354 2.102 5.783 2.102 5.783s.315.736 1.788.684 2.418-.105 2.839-1.261-.105-2.156-.105-2.156l-1.42-4.89s-.316-.946-1.104-.841l2.681-.999c-.263.631-.368.683-.157 1.104s1.84 6.31 1.84 6.31.618 2.245-.684 3.206c-.987.73-2.26 1.156-4.47 1.156-1.904 0-1.594.066-2.469-1.104-.159-.209-2.472-6.361-2.472-6.361s-.579-1.261-1.735-.999zm19.4-4.154v-1.788c-1.261.579-1.209.37-1.418.316s-2.156-.788-3.103-.157-1.467 1.364-1.261 2.26c.262 1.157.314 1.395 1.524 1.999 1.262.63 1.682.84 3.417.788 1.688-.051 1.841-.579 3.365 1.052 1.006 1.076-.293 2.661-1.209 2.733-1.315.105-1.175.556-3.628-.263-.947-.316-1.261-.105-1.84-1.104l-.052 2.735c.473-.369.84-.316 1.051-.159s1 .526 1.366.684 3.26.158 3.628-.21 2.008-.571 2.419-2.314c.421-1.786.368-1.42.052-2.418s-.315-1.735-1.261-2.314-1.63-.473-2.208-.525c-.879-.08-1.158.263-2.891.525-1.78.27-1.532-.441-1.683-.945-.158-.527.106-.579.526-.789.926-.464 1.161-.31 2.05-.211.474.053.474-.052 1.156.105zm3.575-.841l-1.418-2.26 9.148-4.521 1.366 2.576c-.789-.527-1.63-.684-1.998-.474l-1.315.788s-.631.264.316 1.578c.087.121 3.049 5.205 3.049 5.205s.631 1.524 2.051 1.157l-3.996 2.47c.632-1.156.527-1.314.211-1.944l-3.418-6.099s-.946-1.315-2.104-.841-1.524.788-1.524.788-.525.525-.368 1.577zm8.36-7.202l4.416-3.734s2.471-1.996 4.679-.157 1.947 3.312 1.788 4.048-.683 1.261-.947 1.261c.526.264 3.944.106 4.627-.052s2.261-.473 2.103-.789c-.158.895-1.156 2.104-1.63 2.313s-3.312.37-4.1.159-2.734-.525-3.418 1.052l1.736 2.26s.577.579 1.577.525l-2.419 2.051c-.053-1.209 0-1.525-.473-2.051l-5.625-6.309s-1.052-.683-2.314-.577z" class="C"/><path d="M291.988 233.321l3.312 3.785c.999-.42 1.577-.893 1.945-1.524s.631-1.367.526-1.788-.052-1.051-1.051-1.787-.895-.737-1.841-.789-1.944.841-2.103.999-.788 1.104-.788 1.104z" class="B"/><path d="M295.826 228.116l1.156-3.575c.421 1.051 1.052.894 1.052.894l2.838-.684-1.629-3.523s0-.631-.893 0l.998-3.627c.158.947.11 1.32.579 1.944.157.211 2.576 4.786 2.576 4.786l4.889.262s.736.315 1.21-.316l-.158 3.208c-.684-.894-.894-.684-1.577-.841-.411-.095-4.523-.789-4.523-.789l-4.362 1s-1 0-2.156 1.261z" class="C"/><path d="M310.766 61.681c.505.493 1.652 2.012.479 4.808l-10.36 24.608s-1.371 2.52 1.52 1.381l11.186-4.419-6.178 10.419s-1.42 2.413 1.444 1.904 26.46-7.189 26.46-7.189 3.81-1.784 5.78.195l-4.006-6.064c-.153 1.151-1.474 2.515-2.422 2.527s-21.32 6.355-21.32 6.355l4.568-9.645 9.344-3.181s3.445-1.8 5.809-.489c0 0-11.263-12.32-11.483-12.117.046 1.421.706 3.239-.604 5.552-.052.091-4.621 8.433-4.621 8.433l-8.763 3.1 7.435-17.628s.621-2.236 3.516-2.272c.153.113-7.784-6.276-7.784-6.276zm-5.493-1.515l3.401-4.632c-1.176.596-1.497.797-3.345-.731-1.897-1.569-11.121-7.911-11.121-7.911.06 1.475 1.161 3.296-.058 5.364-1.253 2.121-13.916 18.409-13.916 18.409s-.89 1.657-4.25 1.451L291.217 83.2l5.54-2.252c-2.116.357-4.104-.019-6.281-1.031-1.283-.596-5.346-4.159-5.346-4.159s-1.949-1.637.122-3.995l5.297-8.256 3.6 2.739s1.3 2.248.825 4.023l4.095-6.715c-2.159 1.829-4.743.277-4.743.277l-2.248-2.172 6.68-8.74 4.543 2.872s1.956 1.427 1.972 4.373zm-50.372-31.138l5.601 1.923s2.216-.117 2.552 4.319 7.364 24.835 7.364 24.835l7.767-16.825s1.293-.68.097-4.731l5.667 2.872c-2.357.952-2.747 2.724-2.747 2.724L270.11 67.353s-1.724 3.4-3.22-.98-7.585-27.055-7.585-27.055L252.121 54.8s-1.491 2.884-.217 5.148l-5.804-2.141c2.128-.541 3.522-3.64 3.522-3.64l7.826-18.189s1.354-2.032-.65-4.553l-1.897-2.396z" class="B"/><path d="M326 80.852c1.659-.615.603-5.501-2.462-2.736l-2.786 4.88L326 80.852z" class="C"/><defs><path id="B" d="M268.189 345.401a2.9 2.9 0 0 0 2.9-2.9 2.9 2.9 0 1 0-5.8 0 2.9 2.9 0 0 0 2.9 2.9z"/></defs></svg>